%TF.GenerationSoftware,KiCad,Pcbnew,(6.0.6)*%
%TF.CreationDate,2022-10-16T14:55:51-05:00*%
%TF.ProjectId,CartRiser,43617274-5269-4736-9572-2e6b69636164,rev?*%
%TF.SameCoordinates,Original*%
%TF.FileFunction,Soldermask,Bot*%
%TF.FilePolarity,Negative*%
%FSLAX46Y46*%
G04 Gerber Fmt 4.6, Leading zero omitted, Abs format (unit mm)*
G04 Created by KiCad (PCBNEW (6.0.6)) date 2022-10-16 14:55:51*
%MOMM*%
%LPD*%
G01*
G04 APERTURE LIST*
%ADD10C,3.200000*%
%ADD11R,1.700000X1.700000*%
%ADD12O,1.700000X1.700000*%
G04 APERTURE END LIST*
D10*
%TO.C,H4*%
X173800000Y-51900000D03*
%TD*%
%TO.C,H3*%
X152600000Y-112100000D03*
%TD*%
%TO.C,H2*%
X173800000Y-112100000D03*
%TD*%
%TO.C,H1*%
X152600000Y-51900000D03*
%TD*%
D11*
%TO.C,J2*%
X171325000Y-60520000D03*
D12*
X176325000Y-60520000D03*
X171325000Y-63060000D03*
X176325000Y-63060000D03*
X171325000Y-65600000D03*
X176325000Y-65600000D03*
X171325000Y-68140000D03*
X176325000Y-68140000D03*
X171325000Y-70680000D03*
X176325000Y-70680000D03*
X171325000Y-73220000D03*
X176325000Y-73220000D03*
X171325000Y-75760000D03*
X176325000Y-75760000D03*
X171325000Y-78300000D03*
X176325000Y-78300000D03*
X171325000Y-80840000D03*
X176325000Y-80840000D03*
X171325000Y-83380000D03*
X176325000Y-83380000D03*
X171325000Y-85920000D03*
X176325000Y-85920000D03*
X171325000Y-88460000D03*
X176325000Y-88460000D03*
X171325000Y-91000000D03*
X176325000Y-91000000D03*
X171325000Y-93540000D03*
X176325000Y-93540000D03*
X171325000Y-96080000D03*
X176325000Y-96080000D03*
X171325000Y-98620000D03*
X176325000Y-98620000D03*
X171325000Y-101160000D03*
X176325000Y-101160000D03*
X171325000Y-103700000D03*
X176325000Y-103700000D03*
%TD*%
D11*
%TO.C,J1*%
X153875000Y-60400000D03*
D12*
X151335000Y-60400000D03*
X153875000Y-62940000D03*
X151335000Y-62940000D03*
X153875000Y-65480000D03*
X151335000Y-65480000D03*
X153875000Y-68020000D03*
X151335000Y-68020000D03*
X153875000Y-70560000D03*
X151335000Y-70560000D03*
X153875000Y-73100000D03*
X151335000Y-73100000D03*
X153875000Y-75640000D03*
X151335000Y-75640000D03*
X153875000Y-78180000D03*
X151335000Y-78180000D03*
X153875000Y-80720000D03*
X151335000Y-80720000D03*
X153875000Y-83260000D03*
X151335000Y-83260000D03*
X153875000Y-85800000D03*
X151335000Y-85800000D03*
X153875000Y-88340000D03*
X151335000Y-88340000D03*
X153875000Y-90880000D03*
X151335000Y-90880000D03*
X153875000Y-93420000D03*
X151335000Y-93420000D03*
X153875000Y-95960000D03*
X151335000Y-95960000D03*
X153875000Y-98500000D03*
X151335000Y-98500000D03*
X153875000Y-101040000D03*
X151335000Y-101040000D03*
X153875000Y-103580000D03*
X151335000Y-103580000D03*
%TD*%
M02*
