%TF.GenerationSoftware,KiCad,Pcbnew,(6.0.6)*%
%TF.CreationDate,2022-10-16T14:55:51-05:00*%
%TF.ProjectId,CartRiser,43617274-5269-4736-9572-2e6b69636164,rev?*%
%TF.SameCoordinates,Original*%
%TF.FileFunction,Legend,Top*%
%TF.FilePolarity,Positive*%
%FSLAX46Y46*%
G04 Gerber Fmt 4.6, Leading zero omitted, Abs format (unit mm)*
G04 Created by KiCad (PCBNEW (6.0.6)) date 2022-10-16 14:55:51*
%MOMM*%
%LPD*%
G01*
G04 APERTURE LIST*
%ADD10C,0.300000*%
%ADD11C,0.150000*%
%ADD12C,0.120000*%
G04 APERTURE END LIST*
D10*
X157056071Y-85900000D02*
X157056071Y-85042857D01*
X158556071Y-85471428D02*
X157056071Y-85471428D01*
X158556071Y-84542857D02*
X157056071Y-84542857D01*
X156984642Y-82757142D02*
X158913214Y-84042857D01*
X158556071Y-82185714D02*
X158556071Y-81900000D01*
X158484642Y-81757142D01*
X158413214Y-81685714D01*
X158198928Y-81542857D01*
X157913214Y-81471428D01*
X157341785Y-81471428D01*
X157198928Y-81542857D01*
X157127500Y-81614285D01*
X157056071Y-81757142D01*
X157056071Y-82042857D01*
X157127500Y-82185714D01*
X157198928Y-82257142D01*
X157341785Y-82328571D01*
X157698928Y-82328571D01*
X157841785Y-82257142D01*
X157913214Y-82185714D01*
X157984642Y-82042857D01*
X157984642Y-81757142D01*
X157913214Y-81614285D01*
X157841785Y-81542857D01*
X157698928Y-81471428D01*
X158556071Y-80757142D02*
X158556071Y-80471428D01*
X158484642Y-80328571D01*
X158413214Y-80257142D01*
X158198928Y-80114285D01*
X157913214Y-80042857D01*
X157341785Y-80042857D01*
X157198928Y-80114285D01*
X157127500Y-80185714D01*
X157056071Y-80328571D01*
X157056071Y-80614285D01*
X157127500Y-80757142D01*
X157198928Y-80828571D01*
X157341785Y-80900000D01*
X157698928Y-80900000D01*
X157841785Y-80828571D01*
X157913214Y-80757142D01*
X157984642Y-80614285D01*
X157984642Y-80328571D01*
X157913214Y-80185714D01*
X157841785Y-80114285D01*
X157698928Y-80042857D01*
X158698928Y-79757142D02*
X158698928Y-78614285D01*
X157198928Y-78328571D02*
X157127500Y-78257142D01*
X157056071Y-78114285D01*
X157056071Y-77757142D01*
X157127500Y-77614285D01*
X157198928Y-77542857D01*
X157341785Y-77471428D01*
X157484642Y-77471428D01*
X157698928Y-77542857D01*
X158556071Y-78400000D01*
X158556071Y-77471428D01*
X157198928Y-76900000D02*
X157127500Y-76828571D01*
X157056071Y-76685714D01*
X157056071Y-76328571D01*
X157127500Y-76185714D01*
X157198928Y-76114285D01*
X157341785Y-76042857D01*
X157484642Y-76042857D01*
X157698928Y-76114285D01*
X158556071Y-76971428D01*
X158556071Y-76042857D01*
X160828214Y-88221428D02*
X160899642Y-88292857D01*
X160971071Y-88507142D01*
X160971071Y-88650000D01*
X160899642Y-88864285D01*
X160756785Y-89007142D01*
X160613928Y-89078571D01*
X160328214Y-89150000D01*
X160113928Y-89150000D01*
X159828214Y-89078571D01*
X159685357Y-89007142D01*
X159542500Y-88864285D01*
X159471071Y-88650000D01*
X159471071Y-88507142D01*
X159542500Y-88292857D01*
X159613928Y-88221428D01*
X160971071Y-86935714D02*
X160185357Y-86935714D01*
X160042500Y-87007142D01*
X159971071Y-87150000D01*
X159971071Y-87435714D01*
X160042500Y-87578571D01*
X160899642Y-86935714D02*
X160971071Y-87078571D01*
X160971071Y-87435714D01*
X160899642Y-87578571D01*
X160756785Y-87650000D01*
X160613928Y-87650000D01*
X160471071Y-87578571D01*
X160399642Y-87435714D01*
X160399642Y-87078571D01*
X160328214Y-86935714D01*
X160971071Y-86221428D02*
X159971071Y-86221428D01*
X160256785Y-86221428D02*
X160113928Y-86150000D01*
X160042500Y-86078571D01*
X159971071Y-85935714D01*
X159971071Y-85792857D01*
X159971071Y-85507142D02*
X159971071Y-84935714D01*
X159471071Y-85292857D02*
X160756785Y-85292857D01*
X160899642Y-85221428D01*
X160971071Y-85078571D01*
X160971071Y-84935714D01*
X160971071Y-84435714D02*
X159971071Y-84435714D01*
X160256785Y-84435714D02*
X160113928Y-84364285D01*
X160042500Y-84292857D01*
X159971071Y-84150000D01*
X159971071Y-84007142D01*
X160971071Y-83507142D02*
X159971071Y-83507142D01*
X159471071Y-83507142D02*
X159542500Y-83578571D01*
X159613928Y-83507142D01*
X159542500Y-83435714D01*
X159471071Y-83507142D01*
X159613928Y-83507142D01*
X160971071Y-82150000D02*
X159471071Y-82150000D01*
X160899642Y-82150000D02*
X160971071Y-82292857D01*
X160971071Y-82578571D01*
X160899642Y-82721428D01*
X160828214Y-82792857D01*
X160685357Y-82864285D01*
X160256785Y-82864285D01*
X160113928Y-82792857D01*
X160042500Y-82721428D01*
X159971071Y-82578571D01*
X159971071Y-82292857D01*
X160042500Y-82150000D01*
X159971071Y-80792857D02*
X161185357Y-80792857D01*
X161328214Y-80864285D01*
X161399642Y-80935714D01*
X161471071Y-81078571D01*
X161471071Y-81292857D01*
X161399642Y-81435714D01*
X160899642Y-80792857D02*
X160971071Y-80935714D01*
X160971071Y-81221428D01*
X160899642Y-81364285D01*
X160828214Y-81435714D01*
X160685357Y-81507142D01*
X160256785Y-81507142D01*
X160113928Y-81435714D01*
X160042500Y-81364285D01*
X159971071Y-81221428D01*
X159971071Y-80935714D01*
X160042500Y-80792857D01*
X160899642Y-79507142D02*
X160971071Y-79650000D01*
X160971071Y-79935714D01*
X160899642Y-80078571D01*
X160756785Y-80150000D01*
X160185357Y-80150000D01*
X160042500Y-80078571D01*
X159971071Y-79935714D01*
X159971071Y-79650000D01*
X160042500Y-79507142D01*
X160185357Y-79435714D01*
X160328214Y-79435714D01*
X160471071Y-80150000D01*
X160971071Y-76792857D02*
X160256785Y-77292857D01*
X160971071Y-77650000D02*
X159471071Y-77650000D01*
X159471071Y-77078571D01*
X159542500Y-76935714D01*
X159613928Y-76864285D01*
X159756785Y-76792857D01*
X159971071Y-76792857D01*
X160113928Y-76864285D01*
X160185357Y-76935714D01*
X160256785Y-77078571D01*
X160256785Y-77650000D01*
X160971071Y-76150000D02*
X159971071Y-76150000D01*
X159471071Y-76150000D02*
X159542500Y-76221428D01*
X159613928Y-76150000D01*
X159542500Y-76078571D01*
X159471071Y-76150000D01*
X159613928Y-76150000D01*
X160899642Y-75507142D02*
X160971071Y-75364285D01*
X160971071Y-75078571D01*
X160899642Y-74935714D01*
X160756785Y-74864285D01*
X160685357Y-74864285D01*
X160542500Y-74935714D01*
X160471071Y-75078571D01*
X160471071Y-75292857D01*
X160399642Y-75435714D01*
X160256785Y-75507142D01*
X160185357Y-75507142D01*
X160042500Y-75435714D01*
X159971071Y-75292857D01*
X159971071Y-75078571D01*
X160042500Y-74935714D01*
X160899642Y-73650000D02*
X160971071Y-73792857D01*
X160971071Y-74078571D01*
X160899642Y-74221428D01*
X160756785Y-74292857D01*
X160185357Y-74292857D01*
X160042500Y-74221428D01*
X159971071Y-74078571D01*
X159971071Y-73792857D01*
X160042500Y-73650000D01*
X160185357Y-73578571D01*
X160328214Y-73578571D01*
X160471071Y-74292857D01*
X160971071Y-72935714D02*
X159971071Y-72935714D01*
X160256785Y-72935714D02*
X160113928Y-72864285D01*
X160042500Y-72792857D01*
X159971071Y-72650000D01*
X159971071Y-72507142D01*
X163386071Y-85614285D02*
X163386071Y-86471428D01*
X163386071Y-86042857D02*
X161886071Y-86042857D01*
X162100357Y-86185714D01*
X162243214Y-86328571D01*
X162314642Y-86471428D01*
X161886071Y-84685714D02*
X161886071Y-84542857D01*
X161957500Y-84400000D01*
X162028928Y-84328571D01*
X162171785Y-84257142D01*
X162457500Y-84185714D01*
X162814642Y-84185714D01*
X163100357Y-84257142D01*
X163243214Y-84328571D01*
X163314642Y-84400000D01*
X163386071Y-84542857D01*
X163386071Y-84685714D01*
X163314642Y-84828571D01*
X163243214Y-84900000D01*
X163100357Y-84971428D01*
X162814642Y-85042857D01*
X162457500Y-85042857D01*
X162171785Y-84971428D01*
X162028928Y-84900000D01*
X161957500Y-84828571D01*
X161886071Y-84685714D01*
X161814642Y-82471428D02*
X163743214Y-83757142D01*
X163386071Y-81185714D02*
X163386071Y-82042857D01*
X163386071Y-81614285D02*
X161886071Y-81614285D01*
X162100357Y-81757142D01*
X162243214Y-81900000D01*
X162314642Y-82042857D01*
X161886071Y-79900000D02*
X161886071Y-80185714D01*
X161957500Y-80328571D01*
X162028928Y-80400000D01*
X162243214Y-80542857D01*
X162528928Y-80614285D01*
X163100357Y-80614285D01*
X163243214Y-80542857D01*
X163314642Y-80471428D01*
X163386071Y-80328571D01*
X163386071Y-80042857D01*
X163314642Y-79900000D01*
X163243214Y-79828571D01*
X163100357Y-79757142D01*
X162743214Y-79757142D01*
X162600357Y-79828571D01*
X162528928Y-79900000D01*
X162457500Y-80042857D01*
X162457500Y-80328571D01*
X162528928Y-80471428D01*
X162600357Y-80542857D01*
X162743214Y-80614285D01*
X161814642Y-78042857D02*
X163743214Y-79328571D01*
X162028928Y-77614285D02*
X161957500Y-77542857D01*
X161886071Y-77400000D01*
X161886071Y-77042857D01*
X161957500Y-76900000D01*
X162028928Y-76828571D01*
X162171785Y-76757142D01*
X162314642Y-76757142D01*
X162528928Y-76828571D01*
X163386071Y-77685714D01*
X163386071Y-76757142D01*
X162028928Y-76185714D02*
X161957500Y-76114285D01*
X161886071Y-75971428D01*
X161886071Y-75614285D01*
X161957500Y-75471428D01*
X162028928Y-75400000D01*
X162171785Y-75328571D01*
X162314642Y-75328571D01*
X162528928Y-75400000D01*
X163386071Y-76257142D01*
X163386071Y-75328571D01*
X165801071Y-86971428D02*
X164301071Y-86971428D01*
X164301071Y-86614285D01*
X164372500Y-86400000D01*
X164515357Y-86257142D01*
X164658214Y-86185714D01*
X164943928Y-86114285D01*
X165158214Y-86114285D01*
X165443928Y-86185714D01*
X165586785Y-86257142D01*
X165729642Y-86400000D01*
X165801071Y-86614285D01*
X165801071Y-86971428D01*
X165801071Y-84828571D02*
X165015357Y-84828571D01*
X164872500Y-84900000D01*
X164801071Y-85042857D01*
X164801071Y-85328571D01*
X164872500Y-85471428D01*
X165729642Y-84828571D02*
X165801071Y-84971428D01*
X165801071Y-85328571D01*
X165729642Y-85471428D01*
X165586785Y-85542857D01*
X165443928Y-85542857D01*
X165301071Y-85471428D01*
X165229642Y-85328571D01*
X165229642Y-84971428D01*
X165158214Y-84828571D01*
X164801071Y-84114285D02*
X165801071Y-84114285D01*
X164943928Y-84114285D02*
X164872500Y-84042857D01*
X164801071Y-83900000D01*
X164801071Y-83685714D01*
X164872500Y-83542857D01*
X165015357Y-83471428D01*
X165801071Y-83471428D01*
X164301071Y-81757142D02*
X165801071Y-81400000D01*
X164729642Y-81114285D01*
X165801071Y-80828571D01*
X164301071Y-80471428D01*
X165729642Y-79328571D02*
X165801071Y-79471428D01*
X165801071Y-79757142D01*
X165729642Y-79900000D01*
X165586785Y-79971428D01*
X165015357Y-79971428D01*
X164872500Y-79900000D01*
X164801071Y-79757142D01*
X164801071Y-79471428D01*
X164872500Y-79328571D01*
X165015357Y-79257142D01*
X165158214Y-79257142D01*
X165301071Y-79971428D01*
X165801071Y-78614285D02*
X164801071Y-78614285D01*
X165086785Y-78614285D02*
X164943928Y-78542857D01*
X164872500Y-78471428D01*
X164801071Y-78328571D01*
X164801071Y-78185714D01*
X164801071Y-77685714D02*
X165801071Y-77685714D01*
X164943928Y-77685714D02*
X164872500Y-77614285D01*
X164801071Y-77471428D01*
X164801071Y-77257142D01*
X164872500Y-77114285D01*
X165015357Y-77042857D01*
X165801071Y-77042857D01*
X165729642Y-75757142D02*
X165801071Y-75900000D01*
X165801071Y-76185714D01*
X165729642Y-76328571D01*
X165586785Y-76400000D01*
X165015357Y-76400000D01*
X164872500Y-76328571D01*
X164801071Y-76185714D01*
X164801071Y-75900000D01*
X164872500Y-75757142D01*
X165015357Y-75685714D01*
X165158214Y-75685714D01*
X165301071Y-76400000D01*
X165801071Y-75042857D02*
X164801071Y-75042857D01*
X165086785Y-75042857D02*
X164943928Y-74971428D01*
X164872500Y-74900000D01*
X164801071Y-74757142D01*
X164801071Y-74614285D01*
D11*
%TO.C,H4*%
X173038095Y-48152380D02*
X173038095Y-47152380D01*
X173038095Y-47628571D02*
X173609523Y-47628571D01*
X173609523Y-48152380D02*
X173609523Y-47152380D01*
X174514285Y-47485714D02*
X174514285Y-48152380D01*
X174276190Y-47104761D02*
X174038095Y-47819047D01*
X174657142Y-47819047D01*
%TO.C,H3*%
X151838095Y-108352380D02*
X151838095Y-107352380D01*
X151838095Y-107828571D02*
X152409523Y-107828571D01*
X152409523Y-108352380D02*
X152409523Y-107352380D01*
X152790476Y-107352380D02*
X153409523Y-107352380D01*
X153076190Y-107733333D01*
X153219047Y-107733333D01*
X153314285Y-107780952D01*
X153361904Y-107828571D01*
X153409523Y-107923809D01*
X153409523Y-108161904D01*
X153361904Y-108257142D01*
X153314285Y-108304761D01*
X153219047Y-108352380D01*
X152933333Y-108352380D01*
X152838095Y-108304761D01*
X152790476Y-108257142D01*
%TO.C,H2*%
X173038095Y-108352380D02*
X173038095Y-107352380D01*
X173038095Y-107828571D02*
X173609523Y-107828571D01*
X173609523Y-108352380D02*
X173609523Y-107352380D01*
X174038095Y-107447619D02*
X174085714Y-107400000D01*
X174180952Y-107352380D01*
X174419047Y-107352380D01*
X174514285Y-107400000D01*
X174561904Y-107447619D01*
X174609523Y-107542857D01*
X174609523Y-107638095D01*
X174561904Y-107780952D01*
X173990476Y-108352380D01*
X174609523Y-108352380D01*
%TO.C,H1*%
X151838095Y-48152380D02*
X151838095Y-47152380D01*
X151838095Y-47628571D02*
X152409523Y-47628571D01*
X152409523Y-48152380D02*
X152409523Y-47152380D01*
X153409523Y-48152380D02*
X152838095Y-48152380D01*
X153123809Y-48152380D02*
X153123809Y-47152380D01*
X153028571Y-47295238D01*
X152933333Y-47390476D01*
X152838095Y-47438095D01*
%TO.C,J2*%
X172991666Y-54952380D02*
X172991666Y-55666666D01*
X172944047Y-55809523D01*
X172848809Y-55904761D01*
X172705952Y-55952380D01*
X172610714Y-55952380D01*
X173420238Y-55047619D02*
X173467857Y-55000000D01*
X173563095Y-54952380D01*
X173801190Y-54952380D01*
X173896428Y-55000000D01*
X173944047Y-55047619D01*
X173991666Y-55142857D01*
X173991666Y-55238095D01*
X173944047Y-55380952D01*
X173372619Y-55952380D01*
X173991666Y-55952380D01*
X170063095Y-56500000D02*
X169967857Y-56452380D01*
X169825000Y-56452380D01*
X169682142Y-56500000D01*
X169586904Y-56595238D01*
X169539285Y-56690476D01*
X169491666Y-56880952D01*
X169491666Y-57023809D01*
X169539285Y-57214285D01*
X169586904Y-57309523D01*
X169682142Y-57404761D01*
X169825000Y-57452380D01*
X169920238Y-57452380D01*
X170063095Y-57404761D01*
X170110714Y-57357142D01*
X170110714Y-57023809D01*
X169920238Y-57023809D01*
X171110714Y-57452380D02*
X170777380Y-56976190D01*
X170539285Y-57452380D02*
X170539285Y-56452380D01*
X170920238Y-56452380D01*
X171015476Y-56500000D01*
X171063095Y-56547619D01*
X171110714Y-56642857D01*
X171110714Y-56785714D01*
X171063095Y-56880952D01*
X171015476Y-56928571D01*
X170920238Y-56976190D01*
X170539285Y-56976190D01*
X171729761Y-56452380D02*
X171920238Y-56452380D01*
X172015476Y-56500000D01*
X172110714Y-56595238D01*
X172158333Y-56785714D01*
X172158333Y-57119047D01*
X172110714Y-57309523D01*
X172015476Y-57404761D01*
X171920238Y-57452380D01*
X171729761Y-57452380D01*
X171634523Y-57404761D01*
X171539285Y-57309523D01*
X171491666Y-57119047D01*
X171491666Y-56785714D01*
X171539285Y-56595238D01*
X171634523Y-56500000D01*
X171729761Y-56452380D01*
X172586904Y-57452380D02*
X172586904Y-56452380D01*
X172920238Y-57166666D01*
X173253571Y-56452380D01*
X173253571Y-57452380D01*
X174491666Y-57452380D02*
X174491666Y-56452380D01*
X174872619Y-56452380D01*
X174967857Y-56500000D01*
X175015476Y-56547619D01*
X175063095Y-56642857D01*
X175063095Y-56785714D01*
X175015476Y-56880952D01*
X174967857Y-56928571D01*
X174872619Y-56976190D01*
X174491666Y-56976190D01*
X175634523Y-57452380D02*
X175539285Y-57404761D01*
X175491666Y-57357142D01*
X175444047Y-57261904D01*
X175444047Y-56976190D01*
X175491666Y-56880952D01*
X175539285Y-56833333D01*
X175634523Y-56785714D01*
X175777380Y-56785714D01*
X175872619Y-56833333D01*
X175920238Y-56880952D01*
X175967857Y-56976190D01*
X175967857Y-57261904D01*
X175920238Y-57357142D01*
X175872619Y-57404761D01*
X175777380Y-57452380D01*
X175634523Y-57452380D01*
X176396428Y-57452380D02*
X176396428Y-56785714D01*
X176396428Y-56976190D02*
X176444047Y-56880952D01*
X176491666Y-56833333D01*
X176586904Y-56785714D01*
X176682142Y-56785714D01*
X176872619Y-56785714D02*
X177253571Y-56785714D01*
X177015476Y-56452380D02*
X177015476Y-57309523D01*
X177063095Y-57404761D01*
X177158333Y-57452380D01*
X177253571Y-57452380D01*
D12*
X177625000Y-61790000D02*
X177625000Y-105030000D01*
X169995000Y-59190000D02*
X171325000Y-59190000D01*
X169995000Y-61790000D02*
X169995000Y-105030000D01*
X169995000Y-60520000D02*
X169995000Y-59190000D01*
X169995000Y-61790000D02*
X177625000Y-61790000D01*
X169995000Y-105030000D02*
X177625000Y-105030000D01*
%TD*%
M02*
