%TF.GenerationSoftware,KiCad,Pcbnew,(6.0.6)*%
%TF.CreationDate,2022-10-16T14:55:51-05:00*%
%TF.ProjectId,CartRiser,43617274-5269-4736-9572-2e6b69636164,rev?*%
%TF.SameCoordinates,Original*%
%TF.FileFunction,Copper,L2,Bot*%
%TF.FilePolarity,Positive*%
%FSLAX46Y46*%
G04 Gerber Fmt 4.6, Leading zero omitted, Abs format (unit mm)*
G04 Created by KiCad (PCBNEW (6.0.6)) date 2022-10-16 14:55:51*
%MOMM*%
%LPD*%
G01*
G04 APERTURE LIST*
%TA.AperFunction,ComponentPad*%
%ADD10R,1.700000X1.700000*%
%TD*%
%TA.AperFunction,ComponentPad*%
%ADD11O,1.700000X1.700000*%
%TD*%
%TA.AperFunction,Conductor*%
%ADD12C,0.500000*%
%TD*%
%TA.AperFunction,Conductor*%
%ADD13C,0.250000*%
%TD*%
%TA.AperFunction,Conductor*%
%ADD14C,0.400000*%
%TD*%
G04 APERTURE END LIST*
D10*
%TO.P,J2,1,Pin_1*%
%TO.N,~{CMRESET}*%
X171325000Y-60520000D03*
D11*
%TO.P,J2,2,Pin_2*%
%TO.N,GND*%
X176325000Y-60520000D03*
%TO.P,J2,3,Pin_3*%
%TO.N,D7*%
X171325000Y-63060000D03*
%TO.P,J2,4,Pin_4*%
%TO.N,~{CRUCLK}*%
X176325000Y-63060000D03*
%TO.P,J2,5,Pin_5*%
%TO.N,D6*%
X171325000Y-65600000D03*
%TO.P,J2,6,Pin_6*%
%TO.N,CRUIN*%
X176325000Y-65600000D03*
%TO.P,J2,7,Pin_7*%
%TO.N,D5*%
X171325000Y-68140000D03*
%TO.P,J2,8,Pin_8*%
%TO.N,A15-CRUOUT*%
X176325000Y-68140000D03*
%TO.P,J2,9,Pin_9*%
%TO.N,D4*%
X171325000Y-70680000D03*
%TO.P,J2,10,Pin_10*%
%TO.N,A13*%
X176325000Y-70680000D03*
%TO.P,J2,11,Pin_11*%
%TO.N,D3*%
X171325000Y-73220000D03*
%TO.P,J2,12,Pin_12*%
%TO.N,A12*%
X176325000Y-73220000D03*
%TO.P,J2,13,Pin_13*%
%TO.N,D2*%
X171325000Y-75760000D03*
%TO.P,J2,14,Pin_14*%
%TO.N,A11*%
X176325000Y-75760000D03*
%TO.P,J2,15,Pin_15*%
%TO.N,D1*%
X171325000Y-78300000D03*
%TO.P,J2,16,Pin_16*%
%TO.N,A10*%
X176325000Y-78300000D03*
%TO.P,J2,17,Pin_17*%
%TO.N,D0*%
X171325000Y-80840000D03*
%TO.P,J2,18,Pin_18*%
%TO.N,A9*%
X176325000Y-80840000D03*
%TO.P,J2,19,Pin_19*%
%TO.N,+5V*%
X171325000Y-83380000D03*
%TO.P,J2,20,Pin_20*%
%TO.N,A8*%
X176325000Y-83380000D03*
%TO.P,J2,21,Pin_21*%
%TO.N,~{GS}*%
X171325000Y-85920000D03*
%TO.P,J2,22,Pin_22*%
%TO.N,A7*%
X176325000Y-85920000D03*
%TO.P,J2,23,Pin_23*%
%TO.N,IO_A14*%
X171325000Y-88460000D03*
%TO.P,J2,24,Pin_24*%
%TO.N,A3*%
X176325000Y-88460000D03*
%TO.P,J2,25,Pin_25*%
%TO.N,DBIN*%
X171325000Y-91000000D03*
%TO.P,J2,26,Pin_26*%
%TO.N,A6*%
X176325000Y-91000000D03*
%TO.P,J2,27,Pin_27*%
%TO.N,GRMCLK*%
X171325000Y-93540000D03*
%TO.P,J2,28,Pin_28*%
%TO.N,A5*%
X176325000Y-93540000D03*
%TO.P,J2,29,Pin_29*%
%TO.N,-5V*%
X171325000Y-96080000D03*
%TO.P,J2,30,Pin_30*%
%TO.N,A4*%
X176325000Y-96080000D03*
%TO.P,J2,31,Pin_31*%
%TO.N,GREADY*%
X171325000Y-98620000D03*
%TO.P,J2,32,Pin_32*%
%TO.N,~{mWE}*%
X176325000Y-98620000D03*
%TO.P,J2,33,Pin_33*%
%TO.N,VSS*%
X171325000Y-101160000D03*
%TO.P,J2,34,Pin_34*%
%TO.N,~{ROMG}*%
X176325000Y-101160000D03*
%TO.P,J2,35,Pin_35*%
%TO.N,GND*%
X171325000Y-103700000D03*
%TO.P,J2,36,Pin_36*%
X176325000Y-103700000D03*
%TD*%
D10*
%TO.P,J1,1,Pin_1*%
%TO.N,~{CMRESET}*%
X153875000Y-60400000D03*
D11*
%TO.P,J1,2,Pin_2*%
%TO.N,GND*%
X151335000Y-60400000D03*
%TO.P,J1,3,Pin_3*%
%TO.N,D7*%
X153875000Y-62940000D03*
%TO.P,J1,4,Pin_4*%
%TO.N,~{CRUCLK}*%
X151335000Y-62940000D03*
%TO.P,J1,5,Pin_5*%
%TO.N,D6*%
X153875000Y-65480000D03*
%TO.P,J1,6,Pin_6*%
%TO.N,CRUIN*%
X151335000Y-65480000D03*
%TO.P,J1,7,Pin_7*%
%TO.N,D5*%
X153875000Y-68020000D03*
%TO.P,J1,8,Pin_8*%
%TO.N,A15-CRUOUT*%
X151335000Y-68020000D03*
%TO.P,J1,9,Pin_9*%
%TO.N,D4*%
X153875000Y-70560000D03*
%TO.P,J1,10,Pin_10*%
%TO.N,A13*%
X151335000Y-70560000D03*
%TO.P,J1,11,Pin_11*%
%TO.N,D3*%
X153875000Y-73100000D03*
%TO.P,J1,12,Pin_12*%
%TO.N,A12*%
X151335000Y-73100000D03*
%TO.P,J1,13,Pin_13*%
%TO.N,D2*%
X153875000Y-75640000D03*
%TO.P,J1,14,Pin_14*%
%TO.N,A11*%
X151335000Y-75640000D03*
%TO.P,J1,15,Pin_15*%
%TO.N,D1*%
X153875000Y-78180000D03*
%TO.P,J1,16,Pin_16*%
%TO.N,A10*%
X151335000Y-78180000D03*
%TO.P,J1,17,Pin_17*%
%TO.N,D0*%
X153875000Y-80720000D03*
%TO.P,J1,18,Pin_18*%
%TO.N,A9*%
X151335000Y-80720000D03*
%TO.P,J1,19,Pin_19*%
%TO.N,+5V*%
X153875000Y-83260000D03*
%TO.P,J1,20,Pin_20*%
%TO.N,A8*%
X151335000Y-83260000D03*
%TO.P,J1,21,Pin_21*%
%TO.N,~{GS}*%
X153875000Y-85800000D03*
%TO.P,J1,22,Pin_22*%
%TO.N,A7*%
X151335000Y-85800000D03*
%TO.P,J1,23,Pin_23*%
%TO.N,IO_A14*%
X153875000Y-88340000D03*
%TO.P,J1,24,Pin_24*%
%TO.N,A3*%
X151335000Y-88340000D03*
%TO.P,J1,25,Pin_25*%
%TO.N,DBIN*%
X153875000Y-90880000D03*
%TO.P,J1,26,Pin_26*%
%TO.N,A6*%
X151335000Y-90880000D03*
%TO.P,J1,27,Pin_27*%
%TO.N,GRMCLK*%
X153875000Y-93420000D03*
%TO.P,J1,28,Pin_28*%
%TO.N,A5*%
X151335000Y-93420000D03*
%TO.P,J1,29,Pin_29*%
%TO.N,-5V*%
X153875000Y-95960000D03*
%TO.P,J1,30,Pin_30*%
%TO.N,A4*%
X151335000Y-95960000D03*
%TO.P,J1,31,Pin_31*%
%TO.N,GREADY*%
X153875000Y-98500000D03*
%TO.P,J1,32,Pin_32*%
%TO.N,~{mWE}*%
X151335000Y-98500000D03*
%TO.P,J1,33,Pin_33*%
%TO.N,VSS*%
X153875000Y-101040000D03*
%TO.P,J1,34,Pin_34*%
%TO.N,~{ROMG}*%
X151335000Y-101040000D03*
%TO.P,J1,35,Pin_35*%
%TO.N,GND*%
X153875000Y-103580000D03*
%TO.P,J1,36,Pin_36*%
X151335000Y-103580000D03*
%TD*%
D12*
%TO.N,D6*%
X153995000Y-65600000D02*
X153875000Y-65480000D01*
X171325000Y-65600000D02*
X153995000Y-65600000D01*
%TO.N,D5*%
X153995000Y-68140000D02*
X153875000Y-68020000D01*
X171325000Y-68140000D02*
X153995000Y-68140000D01*
D13*
%TO.N,D4*%
X153995000Y-70680000D02*
X153875000Y-70560000D01*
X171325000Y-70680000D02*
X153995000Y-70680000D01*
D12*
%TO.N,D3*%
X153995000Y-73220000D02*
X153875000Y-73100000D01*
X171325000Y-73220000D02*
X153995000Y-73220000D01*
%TO.N,D2*%
X171325000Y-75760000D02*
X153995000Y-75760000D01*
X153995000Y-75760000D02*
X153875000Y-75640000D01*
D13*
%TO.N,D1*%
X153995000Y-78300000D02*
X153875000Y-78180000D01*
X171325000Y-78300000D02*
X153995000Y-78300000D01*
D12*
%TO.N,D0*%
X153995000Y-80840000D02*
X153875000Y-80720000D01*
X171325000Y-80840000D02*
X153995000Y-80840000D01*
%TO.N,+5V*%
X153995000Y-83380000D02*
X153875000Y-83260000D01*
X171325000Y-83380000D02*
X153995000Y-83380000D01*
D13*
%TO.N,~{GS}*%
X153995000Y-85920000D02*
X153875000Y-85800000D01*
X171325000Y-85920000D02*
X153995000Y-85920000D01*
D12*
%TO.N,IO_A14*%
X153995000Y-88460000D02*
X153875000Y-88340000D01*
X171325000Y-88460000D02*
X153995000Y-88460000D01*
%TO.N,DBIN*%
X171205000Y-90880000D02*
X171325000Y-91000000D01*
X153875000Y-90880000D02*
X171205000Y-90880000D01*
%TO.N,GRMCLK*%
X153995000Y-93540000D02*
X153875000Y-93420000D01*
X171325000Y-93540000D02*
X153995000Y-93540000D01*
D13*
%TO.N,-5V*%
X153995000Y-96080000D02*
X153875000Y-95960000D01*
X171325000Y-96080000D02*
X153995000Y-96080000D01*
D12*
%TO.N,GREADY*%
X153995000Y-98620000D02*
X153875000Y-98500000D01*
X171325000Y-98620000D02*
X153995000Y-98620000D01*
%TO.N,VSS*%
X153995000Y-101160000D02*
X153875000Y-101040000D01*
X171325000Y-101160000D02*
X153995000Y-101160000D01*
D13*
%TO.N,A11*%
X175145001Y-76939999D02*
X176325000Y-75760000D01*
X151335000Y-75640000D02*
X152634999Y-76939999D01*
X152634999Y-76939999D02*
X175145001Y-76939999D01*
%TO.N,~{CRUCLK}*%
X174985000Y-64400000D02*
X176325000Y-63060000D01*
X170133556Y-64400000D02*
X174985000Y-64400000D01*
X169947834Y-64214278D02*
X170133556Y-64400000D01*
X152609278Y-64214278D02*
X169947834Y-64214278D01*
X151335000Y-62940000D02*
X152609278Y-64214278D01*
%TO.N,CRUIN*%
X175025000Y-66900000D02*
X176325000Y-65600000D01*
X170093556Y-66900000D02*
X175025000Y-66900000D01*
X152510000Y-66655000D02*
X169848556Y-66655000D01*
X151335000Y-65480000D02*
X152510000Y-66655000D01*
X169848556Y-66655000D02*
X170093556Y-66900000D01*
%TO.N,A15-CRUOUT*%
X170053556Y-69400000D02*
X175065000Y-69400000D01*
X169848556Y-69195000D02*
X170053556Y-69400000D01*
X152510000Y-69195000D02*
X169848556Y-69195000D01*
X151335000Y-68020000D02*
X152510000Y-69195000D01*
X175065000Y-69400000D02*
X176325000Y-68140000D01*
%TO.N,A13*%
X152630000Y-71855000D02*
X175150000Y-71855000D01*
X175150000Y-71855000D02*
X176325000Y-70680000D01*
X151335000Y-70560000D02*
X152630000Y-71855000D01*
%TO.N,A12*%
X152635000Y-74400000D02*
X175145000Y-74400000D01*
X175145000Y-74400000D02*
X176325000Y-73220000D01*
X151335000Y-73100000D02*
X152635000Y-74400000D01*
%TO.N,A10*%
X175096778Y-79528222D02*
X176325000Y-78300000D01*
X152683222Y-79528222D02*
X175096778Y-79528222D01*
X151335000Y-78180000D02*
X152683222Y-79528222D01*
D14*
%TO.N,A9*%
X175065000Y-82100000D02*
X176325000Y-80840000D01*
X169711424Y-81970000D02*
X169841424Y-82100000D01*
X152585000Y-81970000D02*
X169711424Y-81970000D01*
X151335000Y-80720000D02*
X152585000Y-81970000D01*
X169841424Y-82100000D02*
X175065000Y-82100000D01*
%TO.N,A8*%
X169852850Y-84651426D02*
X175053574Y-84651426D01*
X169711424Y-84510000D02*
X169852850Y-84651426D01*
X152585000Y-84510000D02*
X169711424Y-84510000D01*
X175053574Y-84651426D02*
X176325000Y-83380000D01*
X151335000Y-83260000D02*
X152585000Y-84510000D01*
%TO.N,A7*%
X175075000Y-87170000D02*
X176325000Y-85920000D01*
X170670001Y-87170000D02*
X175075000Y-87170000D01*
X170550001Y-87050000D02*
X170670001Y-87170000D01*
X151335000Y-85800000D02*
X152585000Y-87050000D01*
X152585000Y-87050000D02*
X170550001Y-87050000D01*
%TO.N,A3*%
X175070712Y-89714288D02*
X176325000Y-88460000D01*
X169835712Y-89714288D02*
X175070712Y-89714288D01*
X152585000Y-89590000D02*
X169711424Y-89590000D01*
X151335000Y-88340000D02*
X152585000Y-89590000D01*
X169711424Y-89590000D02*
X169835712Y-89714288D01*
%TO.N,A6*%
X175040712Y-92284288D02*
X176325000Y-91000000D01*
X169865712Y-92284288D02*
X175040712Y-92284288D01*
X152585000Y-92130000D02*
X169711424Y-92130000D01*
X169711424Y-92130000D02*
X169865712Y-92284288D01*
X151335000Y-90880000D02*
X152585000Y-92130000D01*
%TO.N,A5*%
X175065000Y-94800000D02*
X176325000Y-93540000D01*
X169841424Y-94800000D02*
X175065000Y-94800000D01*
X169711424Y-94670000D02*
X169841424Y-94800000D01*
X152585000Y-94670000D02*
X169711424Y-94670000D01*
X151335000Y-93420000D02*
X152585000Y-94670000D01*
%TO.N,A4*%
X152590712Y-97215712D02*
X151335000Y-95960000D01*
X155334288Y-97215712D02*
X152590712Y-97215712D01*
X175075000Y-97330000D02*
X155448576Y-97330000D01*
X176325000Y-96080000D02*
X175075000Y-97330000D01*
X155448576Y-97330000D02*
X155334288Y-97215712D01*
%TO.N,~{mWE}*%
X152625000Y-99790000D02*
X151335000Y-98500000D01*
X156050000Y-99790000D02*
X152625000Y-99790000D01*
X175075000Y-99870000D02*
X156130000Y-99870000D01*
X176325000Y-98620000D02*
X175075000Y-99870000D01*
X156130000Y-99870000D02*
X156050000Y-99790000D01*
%TO.N,~{ROMG}*%
X152595000Y-102300000D02*
X151335000Y-101040000D01*
X155448576Y-102410000D02*
X155338576Y-102300000D01*
X175075000Y-102410000D02*
X155448576Y-102410000D01*
X176325000Y-101160000D02*
X175075000Y-102410000D01*
X155338576Y-102300000D02*
X152595000Y-102300000D01*
D12*
%TO.N,GND*%
X151455000Y-103700000D02*
X151335000Y-103580000D01*
X176325000Y-103700000D02*
X151455000Y-103700000D01*
%TD*%
%TA.AperFunction,Conductor*%
%TO.N,GND*%
G36*
X171758108Y-43933912D02*
G01*
X185874752Y-43999419D01*
X185942779Y-44019737D01*
X185989022Y-44073608D01*
X186000167Y-44125250D01*
X186093612Y-114208500D01*
X186099832Y-118873832D01*
X186079921Y-118941979D01*
X186026327Y-118988544D01*
X185973832Y-119000000D01*
X142127542Y-119000000D01*
X142059421Y-118979998D01*
X142012928Y-118926342D01*
X142001551Y-118872468D01*
X142059179Y-114134144D01*
X142082305Y-112232703D01*
X150490743Y-112232703D01*
X150528268Y-112517734D01*
X150604129Y-112795036D01*
X150716923Y-113059476D01*
X150864561Y-113306161D01*
X151044313Y-113530528D01*
X151252851Y-113728423D01*
X151486317Y-113896186D01*
X151490112Y-113898195D01*
X151490113Y-113898196D01*
X151511869Y-113909715D01*
X151740392Y-114030712D01*
X152010373Y-114129511D01*
X152291264Y-114190755D01*
X152319841Y-114193004D01*
X152514282Y-114208307D01*
X152514291Y-114208307D01*
X152516739Y-114208500D01*
X152672271Y-114208500D01*
X152674407Y-114208354D01*
X152674418Y-114208354D01*
X152882548Y-114194165D01*
X152882554Y-114194164D01*
X152886825Y-114193873D01*
X152891020Y-114193004D01*
X152891022Y-114193004D01*
X153027583Y-114164724D01*
X153168342Y-114135574D01*
X153439343Y-114039607D01*
X153694812Y-113907750D01*
X153698313Y-113905289D01*
X153698317Y-113905287D01*
X153812417Y-113825096D01*
X153930023Y-113742441D01*
X154140622Y-113546740D01*
X154322713Y-113324268D01*
X154472927Y-113079142D01*
X154588483Y-112815898D01*
X154667244Y-112539406D01*
X154707751Y-112254784D01*
X154707845Y-112236951D01*
X154707867Y-112232703D01*
X171690743Y-112232703D01*
X171728268Y-112517734D01*
X171804129Y-112795036D01*
X171916923Y-113059476D01*
X172064561Y-113306161D01*
X172244313Y-113530528D01*
X172452851Y-113728423D01*
X172686317Y-113896186D01*
X172690112Y-113898195D01*
X172690113Y-113898196D01*
X172711869Y-113909715D01*
X172940392Y-114030712D01*
X173210373Y-114129511D01*
X173491264Y-114190755D01*
X173519841Y-114193004D01*
X173714282Y-114208307D01*
X173714291Y-114208307D01*
X173716739Y-114208500D01*
X173872271Y-114208500D01*
X173874407Y-114208354D01*
X173874418Y-114208354D01*
X174082548Y-114194165D01*
X174082554Y-114194164D01*
X174086825Y-114193873D01*
X174091020Y-114193004D01*
X174091022Y-114193004D01*
X174227583Y-114164724D01*
X174368342Y-114135574D01*
X174639343Y-114039607D01*
X174894812Y-113907750D01*
X174898313Y-113905289D01*
X174898317Y-113905287D01*
X175012417Y-113825096D01*
X175130023Y-113742441D01*
X175340622Y-113546740D01*
X175522713Y-113324268D01*
X175672927Y-113079142D01*
X175788483Y-112815898D01*
X175867244Y-112539406D01*
X175907751Y-112254784D01*
X175907845Y-112236951D01*
X175909235Y-111971583D01*
X175909235Y-111971576D01*
X175909257Y-111967297D01*
X175871732Y-111682266D01*
X175795871Y-111404964D01*
X175683077Y-111140524D01*
X175535439Y-110893839D01*
X175355687Y-110669472D01*
X175147149Y-110471577D01*
X174913683Y-110303814D01*
X174891843Y-110292250D01*
X174868654Y-110279972D01*
X174659608Y-110169288D01*
X174389627Y-110070489D01*
X174108736Y-110009245D01*
X174077685Y-110006801D01*
X173885718Y-109991693D01*
X173885709Y-109991693D01*
X173883261Y-109991500D01*
X173727729Y-109991500D01*
X173725593Y-109991646D01*
X173725582Y-109991646D01*
X173517452Y-110005835D01*
X173517446Y-110005836D01*
X173513175Y-110006127D01*
X173508980Y-110006996D01*
X173508978Y-110006996D01*
X173372417Y-110035276D01*
X173231658Y-110064426D01*
X172960657Y-110160393D01*
X172705188Y-110292250D01*
X172701687Y-110294711D01*
X172701683Y-110294713D01*
X172691594Y-110301804D01*
X172469977Y-110457559D01*
X172259378Y-110653260D01*
X172077287Y-110875732D01*
X171927073Y-111120858D01*
X171811517Y-111384102D01*
X171732756Y-111660594D01*
X171692249Y-111945216D01*
X171692227Y-111949505D01*
X171692226Y-111949512D01*
X171690765Y-112228417D01*
X171690743Y-112232703D01*
X154707867Y-112232703D01*
X154709235Y-111971583D01*
X154709235Y-111971576D01*
X154709257Y-111967297D01*
X154671732Y-111682266D01*
X154595871Y-111404964D01*
X154483077Y-111140524D01*
X154335439Y-110893839D01*
X154155687Y-110669472D01*
X153947149Y-110471577D01*
X153713683Y-110303814D01*
X153691843Y-110292250D01*
X153668654Y-110279972D01*
X153459608Y-110169288D01*
X153189627Y-110070489D01*
X152908736Y-110009245D01*
X152877685Y-110006801D01*
X152685718Y-109991693D01*
X152685709Y-109991693D01*
X152683261Y-109991500D01*
X152527729Y-109991500D01*
X152525593Y-109991646D01*
X152525582Y-109991646D01*
X152317452Y-110005835D01*
X152317446Y-110005836D01*
X152313175Y-110006127D01*
X152308980Y-110006996D01*
X152308978Y-110006996D01*
X152172417Y-110035276D01*
X152031658Y-110064426D01*
X151760657Y-110160393D01*
X151505188Y-110292250D01*
X151501687Y-110294711D01*
X151501683Y-110294713D01*
X151491594Y-110301804D01*
X151269977Y-110457559D01*
X151059378Y-110653260D01*
X150877287Y-110875732D01*
X150727073Y-111120858D01*
X150611517Y-111384102D01*
X150532756Y-111660594D01*
X150492249Y-111945216D01*
X150492227Y-111949505D01*
X150492226Y-111949512D01*
X150490765Y-112228417D01*
X150490743Y-112232703D01*
X142082305Y-112232703D01*
X142184281Y-103847966D01*
X150003257Y-103847966D01*
X150033565Y-103982446D01*
X150036645Y-103992275D01*
X150116770Y-104189603D01*
X150121413Y-104198794D01*
X150232694Y-104380388D01*
X150238777Y-104388699D01*
X150378213Y-104549667D01*
X150385580Y-104556883D01*
X150549434Y-104692916D01*
X150557881Y-104698831D01*
X150741756Y-104806279D01*
X150751042Y-104810729D01*
X150950001Y-104886703D01*
X150959899Y-104889579D01*
X151063250Y-104910606D01*
X151077299Y-104909410D01*
X151081000Y-104899065D01*
X151081000Y-104898517D01*
X151589000Y-104898517D01*
X151593064Y-104912359D01*
X151606478Y-104914393D01*
X151613184Y-104913534D01*
X151623262Y-104911392D01*
X151827255Y-104850191D01*
X151836842Y-104846433D01*
X152028095Y-104752739D01*
X152036945Y-104747464D01*
X152210328Y-104623792D01*
X152218200Y-104617139D01*
X152369052Y-104466812D01*
X152375730Y-104458965D01*
X152503022Y-104281819D01*
X152504147Y-104282627D01*
X152551669Y-104238876D01*
X152621607Y-104226661D01*
X152687046Y-104254197D01*
X152714870Y-104286028D01*
X152772690Y-104380383D01*
X152778777Y-104388699D01*
X152918213Y-104549667D01*
X152925580Y-104556883D01*
X153089434Y-104692916D01*
X153097881Y-104698831D01*
X153281756Y-104806279D01*
X153291042Y-104810729D01*
X153490001Y-104886703D01*
X153499899Y-104889579D01*
X153603250Y-104910606D01*
X153617299Y-104909410D01*
X153621000Y-104899065D01*
X153621000Y-104898517D01*
X154129000Y-104898517D01*
X154133064Y-104912359D01*
X154146478Y-104914393D01*
X154153184Y-104913534D01*
X154163262Y-104911392D01*
X154367255Y-104850191D01*
X154376842Y-104846433D01*
X154568095Y-104752739D01*
X154576945Y-104747464D01*
X154750328Y-104623792D01*
X154758200Y-104617139D01*
X154909052Y-104466812D01*
X154915730Y-104458965D01*
X155040003Y-104286020D01*
X155045313Y-104277183D01*
X155139670Y-104086267D01*
X155143469Y-104076672D01*
X155176497Y-103967966D01*
X169993257Y-103967966D01*
X170023565Y-104102446D01*
X170026645Y-104112275D01*
X170106770Y-104309603D01*
X170111413Y-104318794D01*
X170222694Y-104500388D01*
X170228777Y-104508699D01*
X170368213Y-104669667D01*
X170375580Y-104676883D01*
X170539434Y-104812916D01*
X170547881Y-104818831D01*
X170731756Y-104926279D01*
X170741042Y-104930729D01*
X170940001Y-105006703D01*
X170949899Y-105009579D01*
X171053250Y-105030606D01*
X171067299Y-105029410D01*
X171071000Y-105019065D01*
X171071000Y-105018517D01*
X171579000Y-105018517D01*
X171583064Y-105032359D01*
X171596478Y-105034393D01*
X171603184Y-105033534D01*
X171613262Y-105031392D01*
X171817255Y-104970191D01*
X171826842Y-104966433D01*
X172018095Y-104872739D01*
X172026945Y-104867464D01*
X172200328Y-104743792D01*
X172208200Y-104737139D01*
X172359052Y-104586812D01*
X172365730Y-104578965D01*
X172490003Y-104406020D01*
X172495313Y-104397183D01*
X172589670Y-104206267D01*
X172593469Y-104196672D01*
X172655377Y-103992910D01*
X172657555Y-103982837D01*
X172658986Y-103971962D01*
X172658363Y-103967966D01*
X174993257Y-103967966D01*
X175023565Y-104102446D01*
X175026645Y-104112275D01*
X175106770Y-104309603D01*
X175111413Y-104318794D01*
X175222694Y-104500388D01*
X175228777Y-104508699D01*
X175368213Y-104669667D01*
X175375580Y-104676883D01*
X175539434Y-104812916D01*
X175547881Y-104818831D01*
X175731756Y-104926279D01*
X175741042Y-104930729D01*
X175940001Y-105006703D01*
X175949899Y-105009579D01*
X176053250Y-105030606D01*
X176067299Y-105029410D01*
X176071000Y-105019065D01*
X176071000Y-105018517D01*
X176579000Y-105018517D01*
X176583064Y-105032359D01*
X176596478Y-105034393D01*
X176603184Y-105033534D01*
X176613262Y-105031392D01*
X176817255Y-104970191D01*
X176826842Y-104966433D01*
X177018095Y-104872739D01*
X177026945Y-104867464D01*
X177200328Y-104743792D01*
X177208200Y-104737139D01*
X177359052Y-104586812D01*
X177365730Y-104578965D01*
X177490003Y-104406020D01*
X177495313Y-104397183D01*
X177589670Y-104206267D01*
X177593469Y-104196672D01*
X177655377Y-103992910D01*
X177657555Y-103982837D01*
X177658986Y-103971962D01*
X177656775Y-103957778D01*
X177643617Y-103954000D01*
X176597115Y-103954000D01*
X176581876Y-103958475D01*
X176580671Y-103959865D01*
X176579000Y-103967548D01*
X176579000Y-105018517D01*
X176071000Y-105018517D01*
X176071000Y-103972115D01*
X176066525Y-103956876D01*
X176065135Y-103955671D01*
X176057452Y-103954000D01*
X175008225Y-103954000D01*
X174994694Y-103957973D01*
X174993257Y-103967966D01*
X172658363Y-103967966D01*
X172656775Y-103957778D01*
X172643617Y-103954000D01*
X171597115Y-103954000D01*
X171581876Y-103958475D01*
X171580671Y-103959865D01*
X171579000Y-103967548D01*
X171579000Y-105018517D01*
X171071000Y-105018517D01*
X171071000Y-103972115D01*
X171066525Y-103956876D01*
X171065135Y-103955671D01*
X171057452Y-103954000D01*
X170008225Y-103954000D01*
X169994694Y-103957973D01*
X169993257Y-103967966D01*
X155176497Y-103967966D01*
X155205377Y-103872910D01*
X155207555Y-103862837D01*
X155208986Y-103851962D01*
X155206775Y-103837778D01*
X155193617Y-103834000D01*
X154147115Y-103834000D01*
X154131876Y-103838475D01*
X154130671Y-103839865D01*
X154129000Y-103847548D01*
X154129000Y-104898517D01*
X153621000Y-104898517D01*
X153621000Y-103852115D01*
X153616525Y-103836876D01*
X153615135Y-103835671D01*
X153607452Y-103834000D01*
X151607115Y-103834000D01*
X151591876Y-103838475D01*
X151590671Y-103839865D01*
X151589000Y-103847548D01*
X151589000Y-104898517D01*
X151081000Y-104898517D01*
X151081000Y-103852115D01*
X151076525Y-103836876D01*
X151075135Y-103835671D01*
X151067452Y-103834000D01*
X150018225Y-103834000D01*
X150004694Y-103837973D01*
X150003257Y-103847966D01*
X142184281Y-103847966D01*
X142218837Y-101006695D01*
X149972251Y-101006695D01*
X149985110Y-101229715D01*
X149986247Y-101234761D01*
X149986248Y-101234767D01*
X150010304Y-101341508D01*
X150034222Y-101447639D01*
X150118266Y-101654616D01*
X150234987Y-101845088D01*
X150381250Y-102013938D01*
X150553126Y-102156632D01*
X150623113Y-102197529D01*
X150626955Y-102199774D01*
X150675679Y-102251412D01*
X150688750Y-102321195D01*
X150662019Y-102386967D01*
X150621562Y-102420327D01*
X150613457Y-102424546D01*
X150604738Y-102430036D01*
X150434433Y-102557905D01*
X150426726Y-102564748D01*
X150279590Y-102718717D01*
X150273104Y-102726727D01*
X150153098Y-102902649D01*
X150148000Y-102911623D01*
X150058338Y-103104783D01*
X150054775Y-103114470D01*
X149999389Y-103314183D01*
X150000912Y-103322607D01*
X150013292Y-103326000D01*
X155193344Y-103326000D01*
X155206875Y-103322027D01*
X155208180Y-103312947D01*
X155196217Y-103265320D01*
X155199021Y-103194379D01*
X155239734Y-103136215D01*
X155305429Y-103109296D01*
X155341382Y-103110734D01*
X155396293Y-103120911D01*
X155396296Y-103120911D01*
X155403762Y-103122295D01*
X155411342Y-103121858D01*
X155411343Y-103121858D01*
X155465956Y-103118709D01*
X155473209Y-103118500D01*
X169911238Y-103118500D01*
X169979359Y-103138502D01*
X170025852Y-103192158D01*
X170035956Y-103262432D01*
X170032655Y-103278172D01*
X169989389Y-103434183D01*
X169990912Y-103442607D01*
X170003292Y-103446000D01*
X172643344Y-103446000D01*
X172656875Y-103442027D01*
X172658180Y-103432947D01*
X172618555Y-103275196D01*
X172621359Y-103204255D01*
X172662072Y-103146091D01*
X172727767Y-103119172D01*
X172740759Y-103118500D01*
X174911238Y-103118500D01*
X174979359Y-103138502D01*
X175025852Y-103192158D01*
X175035956Y-103262432D01*
X175032655Y-103278172D01*
X174989389Y-103434183D01*
X174990912Y-103442607D01*
X175003292Y-103446000D01*
X177643344Y-103446000D01*
X177656875Y-103442027D01*
X177658180Y-103432947D01*
X177616214Y-103265875D01*
X177612894Y-103256124D01*
X177527972Y-103060814D01*
X177523105Y-103051739D01*
X177407426Y-102872926D01*
X177401136Y-102864757D01*
X177257806Y-102707240D01*
X177250273Y-102700215D01*
X177083139Y-102568222D01*
X177074556Y-102562520D01*
X177037602Y-102542120D01*
X176987631Y-102491687D01*
X176972859Y-102422245D01*
X176997975Y-102355839D01*
X177025327Y-102329232D01*
X177048797Y-102312491D01*
X177204860Y-102201173D01*
X177252874Y-102153327D01*
X177359435Y-102047137D01*
X177363096Y-102043489D01*
X177384331Y-102013938D01*
X177490435Y-101866277D01*
X177493453Y-101862077D01*
X177501850Y-101845088D01*
X177590136Y-101666453D01*
X177590137Y-101666451D01*
X177592430Y-101661811D01*
X177633114Y-101527906D01*
X177655865Y-101453023D01*
X177655865Y-101453021D01*
X177657370Y-101448069D01*
X177686529Y-101226590D01*
X177688156Y-101160000D01*
X177669852Y-100937361D01*
X177615431Y-100720702D01*
X177526354Y-100515840D01*
X177486906Y-100454862D01*
X177407822Y-100332617D01*
X177407820Y-100332614D01*
X177405014Y-100328277D01*
X177254670Y-100163051D01*
X177250619Y-100159852D01*
X177250615Y-100159848D01*
X177083414Y-100027800D01*
X177083410Y-100027798D01*
X177079359Y-100024598D01*
X177038053Y-100001796D01*
X176988084Y-99951364D01*
X176973312Y-99881921D01*
X176998428Y-99815516D01*
X177025780Y-99788909D01*
X177069603Y-99757650D01*
X177204860Y-99661173D01*
X177252874Y-99613327D01*
X177359435Y-99507137D01*
X177363096Y-99503489D01*
X177384331Y-99473938D01*
X177490435Y-99326277D01*
X177493453Y-99322077D01*
X177501850Y-99305088D01*
X177590136Y-99126453D01*
X177590137Y-99126451D01*
X177592430Y-99121811D01*
X177633114Y-98987906D01*
X177655865Y-98913023D01*
X177655865Y-98913021D01*
X177657370Y-98908069D01*
X177686529Y-98686590D01*
X177688156Y-98620000D01*
X177669852Y-98397361D01*
X177615431Y-98180702D01*
X177526354Y-97975840D01*
X177486906Y-97914862D01*
X177407822Y-97792617D01*
X177407820Y-97792614D01*
X177405014Y-97788277D01*
X177254670Y-97623051D01*
X177250619Y-97619852D01*
X177250615Y-97619848D01*
X177083414Y-97487800D01*
X177083410Y-97487798D01*
X177079359Y-97484598D01*
X177038053Y-97461796D01*
X176988084Y-97411364D01*
X176973312Y-97341921D01*
X176998428Y-97275516D01*
X177025780Y-97248909D01*
X177069603Y-97217650D01*
X177204860Y-97121173D01*
X177252874Y-97073327D01*
X177359435Y-96967137D01*
X177363096Y-96963489D01*
X177384331Y-96933938D01*
X177490435Y-96786277D01*
X177493453Y-96782077D01*
X177501850Y-96765088D01*
X177590136Y-96586453D01*
X177590137Y-96586451D01*
X177592430Y-96581811D01*
X177633114Y-96447906D01*
X177655865Y-96373023D01*
X177655865Y-96373021D01*
X177657370Y-96368069D01*
X177686529Y-96146590D01*
X177688156Y-96080000D01*
X177669852Y-95857361D01*
X177615431Y-95640702D01*
X177526354Y-95435840D01*
X177486906Y-95374862D01*
X177407822Y-95252617D01*
X177407820Y-95252614D01*
X177405014Y-95248277D01*
X177254670Y-95083051D01*
X177250619Y-95079852D01*
X177250615Y-95079848D01*
X177083414Y-94947800D01*
X177083410Y-94947798D01*
X177079359Y-94944598D01*
X177038053Y-94921796D01*
X176988084Y-94871364D01*
X176973312Y-94801921D01*
X176998428Y-94735516D01*
X177025780Y-94708909D01*
X177069603Y-94677650D01*
X177204860Y-94581173D01*
X177252874Y-94533327D01*
X177359435Y-94427137D01*
X177363096Y-94423489D01*
X177384331Y-94393938D01*
X177490435Y-94246277D01*
X177493453Y-94242077D01*
X177501850Y-94225088D01*
X177590136Y-94046453D01*
X177590137Y-94046451D01*
X177592430Y-94041811D01*
X177633114Y-93907906D01*
X177655865Y-93833023D01*
X177655867Y-93833015D01*
X177657370Y-93828069D01*
X177686529Y-93606590D01*
X177688156Y-93540000D01*
X177669852Y-93317361D01*
X177615431Y-93100702D01*
X177526354Y-92895840D01*
X177486906Y-92834862D01*
X177407822Y-92712617D01*
X177407820Y-92712614D01*
X177405014Y-92708277D01*
X177254670Y-92543051D01*
X177250619Y-92539852D01*
X177250615Y-92539848D01*
X177083414Y-92407800D01*
X177083410Y-92407798D01*
X177079359Y-92404598D01*
X177038053Y-92381796D01*
X176988084Y-92331364D01*
X176973312Y-92261921D01*
X176998428Y-92195516D01*
X177025780Y-92168909D01*
X177069603Y-92137650D01*
X177204860Y-92041173D01*
X177252874Y-91993327D01*
X177359435Y-91887137D01*
X177363096Y-91883489D01*
X177384331Y-91853938D01*
X177490435Y-91706277D01*
X177493453Y-91702077D01*
X177501850Y-91685088D01*
X177590136Y-91506453D01*
X177590137Y-91506451D01*
X177592430Y-91501811D01*
X177633114Y-91367904D01*
X177655865Y-91293023D01*
X177655867Y-91293015D01*
X177657370Y-91288069D01*
X177686529Y-91066590D01*
X177688156Y-91000000D01*
X177669852Y-90777361D01*
X177615431Y-90560702D01*
X177526354Y-90355840D01*
X177486906Y-90294862D01*
X177407822Y-90172617D01*
X177407820Y-90172614D01*
X177405014Y-90168277D01*
X177254670Y-90003051D01*
X177250619Y-89999852D01*
X177250615Y-89999848D01*
X177083414Y-89867800D01*
X177083410Y-89867798D01*
X177079359Y-89864598D01*
X177038053Y-89841796D01*
X176988084Y-89791364D01*
X176973312Y-89721921D01*
X176998428Y-89655516D01*
X177025780Y-89628909D01*
X177069603Y-89597650D01*
X177204860Y-89501173D01*
X177252874Y-89453327D01*
X177359435Y-89347137D01*
X177363096Y-89343489D01*
X177384331Y-89313938D01*
X177490435Y-89166277D01*
X177493453Y-89162077D01*
X177501850Y-89145088D01*
X177590136Y-88966453D01*
X177590137Y-88966451D01*
X177592430Y-88961811D01*
X177633114Y-88827906D01*
X177655865Y-88753023D01*
X177655865Y-88753021D01*
X177657370Y-88748069D01*
X177686529Y-88526590D01*
X177688156Y-88460000D01*
X177669852Y-88237361D01*
X177615431Y-88020702D01*
X177526354Y-87815840D01*
X177486906Y-87754862D01*
X177407822Y-87632617D01*
X177407820Y-87632614D01*
X177405014Y-87628277D01*
X177254670Y-87463051D01*
X177250619Y-87459852D01*
X177250615Y-87459848D01*
X177083414Y-87327800D01*
X177083410Y-87327798D01*
X177079359Y-87324598D01*
X177038053Y-87301796D01*
X176988084Y-87251364D01*
X176973312Y-87181921D01*
X176998428Y-87115516D01*
X177025780Y-87088909D01*
X177069603Y-87057650D01*
X177204860Y-86961173D01*
X177252874Y-86913327D01*
X177359435Y-86807137D01*
X177363096Y-86803489D01*
X177384331Y-86773938D01*
X177490435Y-86626277D01*
X177493453Y-86622077D01*
X177501850Y-86605088D01*
X177590136Y-86426453D01*
X177590137Y-86426451D01*
X177592430Y-86421811D01*
X177633114Y-86287906D01*
X177655865Y-86213023D01*
X177655865Y-86213021D01*
X177657370Y-86208069D01*
X177686529Y-85986590D01*
X177688156Y-85920000D01*
X177669852Y-85697361D01*
X177615431Y-85480702D01*
X177526354Y-85275840D01*
X177486906Y-85214862D01*
X177407822Y-85092617D01*
X177407820Y-85092614D01*
X177405014Y-85088277D01*
X177254670Y-84923051D01*
X177250619Y-84919852D01*
X177250615Y-84919848D01*
X177083414Y-84787800D01*
X177083410Y-84787798D01*
X177079359Y-84784598D01*
X177038053Y-84761796D01*
X176988084Y-84711364D01*
X176973312Y-84641921D01*
X176998428Y-84575516D01*
X177025780Y-84548909D01*
X177069603Y-84517650D01*
X177204860Y-84421173D01*
X177252874Y-84373327D01*
X177359435Y-84267137D01*
X177363096Y-84263489D01*
X177384331Y-84233938D01*
X177490435Y-84086277D01*
X177493453Y-84082077D01*
X177501850Y-84065088D01*
X177590136Y-83886453D01*
X177590137Y-83886451D01*
X177592430Y-83881811D01*
X177633114Y-83747906D01*
X177655865Y-83673023D01*
X177655865Y-83673021D01*
X177657370Y-83668069D01*
X177686529Y-83446590D01*
X177688156Y-83380000D01*
X177669852Y-83157361D01*
X177615431Y-82940702D01*
X177526354Y-82735840D01*
X177486906Y-82674862D01*
X177407822Y-82552617D01*
X177407820Y-82552614D01*
X177405014Y-82548277D01*
X177254670Y-82383051D01*
X177250619Y-82379852D01*
X177250615Y-82379848D01*
X177083414Y-82247800D01*
X177083410Y-82247798D01*
X177079359Y-82244598D01*
X177038053Y-82221796D01*
X176988084Y-82171364D01*
X176973312Y-82101921D01*
X176998428Y-82035516D01*
X177025780Y-82008909D01*
X177069603Y-81977650D01*
X177204860Y-81881173D01*
X177252874Y-81833327D01*
X177359435Y-81727137D01*
X177363096Y-81723489D01*
X177384331Y-81693938D01*
X177490435Y-81546277D01*
X177493453Y-81542077D01*
X177501850Y-81525088D01*
X177590136Y-81346453D01*
X177590137Y-81346451D01*
X177592430Y-81341811D01*
X177633114Y-81207906D01*
X177655865Y-81133023D01*
X177655867Y-81133015D01*
X177657370Y-81128069D01*
X177686529Y-80906590D01*
X177688156Y-80840000D01*
X177669852Y-80617361D01*
X177615431Y-80400702D01*
X177526354Y-80195840D01*
X177486906Y-80134862D01*
X177407822Y-80012617D01*
X177407820Y-80012614D01*
X177405014Y-80008277D01*
X177254670Y-79843051D01*
X177250619Y-79839852D01*
X177250615Y-79839848D01*
X177083414Y-79707800D01*
X177083410Y-79707798D01*
X177079359Y-79704598D01*
X177038053Y-79681796D01*
X176988084Y-79631364D01*
X176973312Y-79561921D01*
X176998428Y-79495516D01*
X177025780Y-79468909D01*
X177069603Y-79437650D01*
X177204860Y-79341173D01*
X177252874Y-79293327D01*
X177359435Y-79187137D01*
X177363096Y-79183489D01*
X177384331Y-79153938D01*
X177490435Y-79006277D01*
X177493453Y-79002077D01*
X177501850Y-78985088D01*
X177590136Y-78806453D01*
X177590137Y-78806451D01*
X177592430Y-78801811D01*
X177657370Y-78588069D01*
X177686529Y-78366590D01*
X177688156Y-78300000D01*
X177669852Y-78077361D01*
X177615431Y-77860702D01*
X177526354Y-77655840D01*
X177472666Y-77572851D01*
X177407822Y-77472617D01*
X177407820Y-77472614D01*
X177405014Y-77468277D01*
X177254670Y-77303051D01*
X177250619Y-77299852D01*
X177250615Y-77299848D01*
X177083414Y-77167800D01*
X177083410Y-77167798D01*
X177079359Y-77164598D01*
X177038053Y-77141796D01*
X176988084Y-77091364D01*
X176973312Y-77021921D01*
X176998428Y-76955516D01*
X177025780Y-76928909D01*
X177069603Y-76897650D01*
X177204860Y-76801173D01*
X177252874Y-76753327D01*
X177359435Y-76647137D01*
X177363096Y-76643489D01*
X177384331Y-76613938D01*
X177490435Y-76466277D01*
X177493453Y-76462077D01*
X177501850Y-76445088D01*
X177590136Y-76266453D01*
X177590137Y-76266451D01*
X177592430Y-76261811D01*
X177657370Y-76048069D01*
X177686529Y-75826590D01*
X177688156Y-75760000D01*
X177669852Y-75537361D01*
X177615431Y-75320702D01*
X177526354Y-75115840D01*
X177476139Y-75038220D01*
X177407822Y-74932617D01*
X177407820Y-74932614D01*
X177405014Y-74928277D01*
X177254670Y-74763051D01*
X177250619Y-74759852D01*
X177250615Y-74759848D01*
X177083414Y-74627800D01*
X177083410Y-74627798D01*
X177079359Y-74624598D01*
X177038053Y-74601796D01*
X176988084Y-74551364D01*
X176973312Y-74481921D01*
X176998428Y-74415516D01*
X177025780Y-74388909D01*
X177069603Y-74357650D01*
X177204860Y-74261173D01*
X177252874Y-74213327D01*
X177359435Y-74107137D01*
X177363096Y-74103489D01*
X177384331Y-74073938D01*
X177490435Y-73926277D01*
X177493453Y-73922077D01*
X177501850Y-73905088D01*
X177590136Y-73726453D01*
X177590137Y-73726451D01*
X177592430Y-73721811D01*
X177657370Y-73508069D01*
X177686529Y-73286590D01*
X177688156Y-73220000D01*
X177669852Y-72997361D01*
X177615431Y-72780702D01*
X177526354Y-72575840D01*
X177469851Y-72488500D01*
X177407822Y-72392617D01*
X177407820Y-72392614D01*
X177405014Y-72388277D01*
X177254670Y-72223051D01*
X177250619Y-72219852D01*
X177250615Y-72219848D01*
X177083414Y-72087800D01*
X177083410Y-72087798D01*
X177079359Y-72084598D01*
X177038053Y-72061796D01*
X176988084Y-72011364D01*
X176973312Y-71941921D01*
X176998428Y-71875516D01*
X177025780Y-71848909D01*
X177069603Y-71817650D01*
X177204860Y-71721173D01*
X177252874Y-71673327D01*
X177359435Y-71567137D01*
X177363096Y-71563489D01*
X177384331Y-71533938D01*
X177490435Y-71386277D01*
X177493453Y-71382077D01*
X177501850Y-71365088D01*
X177590136Y-71186453D01*
X177590137Y-71186451D01*
X177592430Y-71181811D01*
X177657370Y-70968069D01*
X177686529Y-70746590D01*
X177688156Y-70680000D01*
X177669852Y-70457361D01*
X177615431Y-70240702D01*
X177526354Y-70035840D01*
X177449205Y-69916586D01*
X177407822Y-69852617D01*
X177407820Y-69852614D01*
X177405014Y-69848277D01*
X177254670Y-69683051D01*
X177250619Y-69679852D01*
X177250615Y-69679848D01*
X177083414Y-69547800D01*
X177083410Y-69547798D01*
X177079359Y-69544598D01*
X177038053Y-69521796D01*
X176988084Y-69471364D01*
X176973312Y-69401921D01*
X176998428Y-69335516D01*
X177025780Y-69308909D01*
X177069603Y-69277650D01*
X177204860Y-69181173D01*
X177252874Y-69133327D01*
X177359435Y-69027137D01*
X177363096Y-69023489D01*
X177384331Y-68993938D01*
X177490435Y-68846277D01*
X177493453Y-68842077D01*
X177501850Y-68825088D01*
X177590136Y-68646453D01*
X177590137Y-68646451D01*
X177592430Y-68641811D01*
X177657370Y-68428069D01*
X177686529Y-68206590D01*
X177688156Y-68140000D01*
X177669852Y-67917361D01*
X177615431Y-67700702D01*
X177526354Y-67495840D01*
X177448913Y-67376134D01*
X177407822Y-67312617D01*
X177407820Y-67312614D01*
X177405014Y-67308277D01*
X177254670Y-67143051D01*
X177250619Y-67139852D01*
X177250615Y-67139848D01*
X177083414Y-67007800D01*
X177083410Y-67007798D01*
X177079359Y-67004598D01*
X177038053Y-66981796D01*
X176988084Y-66931364D01*
X176973312Y-66861921D01*
X176998428Y-66795516D01*
X177025780Y-66768909D01*
X177069603Y-66737650D01*
X177204860Y-66641173D01*
X177252874Y-66593327D01*
X177359435Y-66487137D01*
X177363096Y-66483489D01*
X177384331Y-66453938D01*
X177490435Y-66306277D01*
X177493453Y-66302077D01*
X177501850Y-66285088D01*
X177590136Y-66106453D01*
X177590137Y-66106451D01*
X177592430Y-66101811D01*
X177657370Y-65888069D01*
X177686529Y-65666590D01*
X177688156Y-65600000D01*
X177669852Y-65377361D01*
X177615431Y-65160702D01*
X177526354Y-64955840D01*
X177456446Y-64847778D01*
X177407822Y-64772617D01*
X177407820Y-64772614D01*
X177405014Y-64768277D01*
X177254670Y-64603051D01*
X177250619Y-64599852D01*
X177250615Y-64599848D01*
X177083414Y-64467800D01*
X177083410Y-64467798D01*
X177079359Y-64464598D01*
X177038053Y-64441796D01*
X176988084Y-64391364D01*
X176973312Y-64321921D01*
X176998428Y-64255516D01*
X177025780Y-64228909D01*
X177069603Y-64197650D01*
X177204860Y-64101173D01*
X177252874Y-64053327D01*
X177359435Y-63947137D01*
X177363096Y-63943489D01*
X177384331Y-63913938D01*
X177490435Y-63766277D01*
X177493453Y-63762077D01*
X177501850Y-63745088D01*
X177590136Y-63566453D01*
X177590137Y-63566451D01*
X177592430Y-63561811D01*
X177657370Y-63348069D01*
X177686529Y-63126590D01*
X177688156Y-63060000D01*
X177669852Y-62837361D01*
X177615431Y-62620702D01*
X177526354Y-62415840D01*
X177486906Y-62354862D01*
X177407822Y-62232617D01*
X177407820Y-62232614D01*
X177405014Y-62228277D01*
X177254670Y-62063051D01*
X177250619Y-62059852D01*
X177250615Y-62059848D01*
X177083414Y-61927800D01*
X177083410Y-61927798D01*
X177079359Y-61924598D01*
X177037569Y-61901529D01*
X176987598Y-61851097D01*
X176972826Y-61781654D01*
X176997942Y-61715248D01*
X177025294Y-61688641D01*
X177200328Y-61563792D01*
X177208200Y-61557139D01*
X177359052Y-61406812D01*
X177365730Y-61398965D01*
X177490003Y-61226020D01*
X177495313Y-61217183D01*
X177589670Y-61026267D01*
X177593469Y-61016672D01*
X177655377Y-60812910D01*
X177657555Y-60802837D01*
X177658986Y-60791962D01*
X177656775Y-60777778D01*
X177643617Y-60774000D01*
X175008225Y-60774000D01*
X174994694Y-60777973D01*
X174993257Y-60787966D01*
X175023565Y-60922446D01*
X175026645Y-60932275D01*
X175106770Y-61129603D01*
X175111413Y-61138794D01*
X175222694Y-61320388D01*
X175228777Y-61328699D01*
X175368213Y-61489667D01*
X175375580Y-61496883D01*
X175539434Y-61632916D01*
X175547881Y-61638831D01*
X175616969Y-61679203D01*
X175665693Y-61730842D01*
X175678764Y-61800625D01*
X175652033Y-61866396D01*
X175611584Y-61899752D01*
X175598607Y-61906507D01*
X175594474Y-61909610D01*
X175594471Y-61909612D01*
X175470567Y-62002642D01*
X175419965Y-62040635D01*
X175265629Y-62202138D01*
X175139743Y-62386680D01*
X175045688Y-62589305D01*
X174985989Y-62804570D01*
X174962251Y-63026695D01*
X174962548Y-63031848D01*
X174962548Y-63031851D01*
X174967893Y-63124547D01*
X174975110Y-63249715D01*
X174976247Y-63254761D01*
X174976248Y-63254767D01*
X175008453Y-63397668D01*
X175003917Y-63468520D01*
X174974631Y-63514464D01*
X174759500Y-63729595D01*
X174697188Y-63763621D01*
X174670405Y-63766500D01*
X172694088Y-63766500D01*
X172625967Y-63746498D01*
X172579474Y-63692842D01*
X172569370Y-63622568D01*
X172581131Y-63584673D01*
X172590136Y-63566453D01*
X172590137Y-63566451D01*
X172592430Y-63561811D01*
X172657370Y-63348069D01*
X172686529Y-63126590D01*
X172688156Y-63060000D01*
X172669852Y-62837361D01*
X172615431Y-62620702D01*
X172526354Y-62415840D01*
X172486906Y-62354862D01*
X172407822Y-62232617D01*
X172407820Y-62232614D01*
X172405014Y-62228277D01*
X172401532Y-62224450D01*
X172257798Y-62066488D01*
X172226746Y-62002642D01*
X172235141Y-61932143D01*
X172280317Y-61877375D01*
X172306761Y-61863706D01*
X172413297Y-61823767D01*
X172421705Y-61820615D01*
X172538261Y-61733261D01*
X172625615Y-61616705D01*
X172676745Y-61480316D01*
X172683500Y-61418134D01*
X172683500Y-60254183D01*
X174989389Y-60254183D01*
X174990912Y-60262607D01*
X175003292Y-60266000D01*
X176052885Y-60266000D01*
X176068124Y-60261525D01*
X176069329Y-60260135D01*
X176071000Y-60252452D01*
X176071000Y-60247885D01*
X176579000Y-60247885D01*
X176583475Y-60263124D01*
X176584865Y-60264329D01*
X176592548Y-60266000D01*
X177643344Y-60266000D01*
X177656875Y-60262027D01*
X177658180Y-60252947D01*
X177616214Y-60085875D01*
X177612894Y-60076124D01*
X177527972Y-59880814D01*
X177523105Y-59871739D01*
X177407426Y-59692926D01*
X177401136Y-59684757D01*
X177257806Y-59527240D01*
X177250273Y-59520215D01*
X177083139Y-59388222D01*
X177074552Y-59382517D01*
X176888117Y-59279599D01*
X176878705Y-59275369D01*
X176677959Y-59204280D01*
X176667988Y-59201646D01*
X176596837Y-59188972D01*
X176583540Y-59190432D01*
X176579000Y-59204989D01*
X176579000Y-60247885D01*
X176071000Y-60247885D01*
X176071000Y-59203102D01*
X176067082Y-59189758D01*
X176052806Y-59187771D01*
X176014324Y-59193660D01*
X176004288Y-59196051D01*
X175801868Y-59262212D01*
X175792359Y-59266209D01*
X175603463Y-59364542D01*
X175594738Y-59370036D01*
X175424433Y-59497905D01*
X175416726Y-59504748D01*
X175269590Y-59658717D01*
X175263104Y-59666727D01*
X175143098Y-59842649D01*
X175138000Y-59851623D01*
X175048338Y-60044783D01*
X175044775Y-60054470D01*
X174989389Y-60254183D01*
X172683500Y-60254183D01*
X172683500Y-59621866D01*
X172676745Y-59559684D01*
X172625615Y-59423295D01*
X172538261Y-59306739D01*
X172421705Y-59219385D01*
X172285316Y-59168255D01*
X172223134Y-59161500D01*
X170426866Y-59161500D01*
X170364684Y-59168255D01*
X170228295Y-59219385D01*
X170111739Y-59306739D01*
X170024385Y-59423295D01*
X169973255Y-59559684D01*
X169966500Y-59621866D01*
X169966500Y-61418134D01*
X169973255Y-61480316D01*
X170024385Y-61616705D01*
X170111739Y-61733261D01*
X170228295Y-61820615D01*
X170236704Y-61823767D01*
X170236705Y-61823768D01*
X170345451Y-61864535D01*
X170402216Y-61907176D01*
X170426916Y-61973738D01*
X170411709Y-62043087D01*
X170392316Y-62069568D01*
X170265629Y-62202138D01*
X170139743Y-62386680D01*
X170045688Y-62589305D01*
X169985989Y-62804570D01*
X169962251Y-63026695D01*
X169962548Y-63031848D01*
X169962548Y-63031851D01*
X169967893Y-63124547D01*
X169975110Y-63249715D01*
X169976247Y-63254761D01*
X169976248Y-63254767D01*
X170015081Y-63427077D01*
X170010545Y-63497928D01*
X169968423Y-63555080D01*
X169902090Y-63580386D01*
X169892164Y-63580778D01*
X155270177Y-63580778D01*
X155202056Y-63560776D01*
X155155563Y-63507120D01*
X155145459Y-63436846D01*
X155149619Y-63418149D01*
X155205865Y-63233023D01*
X155205865Y-63233021D01*
X155207370Y-63228069D01*
X155236529Y-63006590D01*
X155238156Y-62940000D01*
X155219852Y-62717361D01*
X155165431Y-62500702D01*
X155076354Y-62295840D01*
X155018500Y-62206411D01*
X154957822Y-62112617D01*
X154957820Y-62112614D01*
X154955014Y-62108277D01*
X154951532Y-62104450D01*
X154807798Y-61946488D01*
X154776746Y-61882642D01*
X154785141Y-61812143D01*
X154830317Y-61757375D01*
X154856761Y-61743706D01*
X154963297Y-61703767D01*
X154971705Y-61700615D01*
X155088261Y-61613261D01*
X155175615Y-61496705D01*
X155226745Y-61360316D01*
X155233500Y-61298134D01*
X155233500Y-59501866D01*
X155226745Y-59439684D01*
X155175615Y-59303295D01*
X155088261Y-59186739D01*
X154971705Y-59099385D01*
X154835316Y-59048255D01*
X154773134Y-59041500D01*
X152976866Y-59041500D01*
X152914684Y-59048255D01*
X152778295Y-59099385D01*
X152661739Y-59186739D01*
X152574385Y-59303295D01*
X152571233Y-59311703D01*
X152571232Y-59311705D01*
X152529722Y-59422433D01*
X152487081Y-59479198D01*
X152420519Y-59503898D01*
X152351170Y-59488691D01*
X152318546Y-59463004D01*
X152267799Y-59407234D01*
X152260273Y-59400215D01*
X152093139Y-59268222D01*
X152084552Y-59262517D01*
X151898117Y-59159599D01*
X151888705Y-59155369D01*
X151687959Y-59084280D01*
X151677988Y-59081646D01*
X151606837Y-59068972D01*
X151593540Y-59070432D01*
X151589000Y-59084989D01*
X151589000Y-60528000D01*
X151568998Y-60596121D01*
X151515342Y-60642614D01*
X151463000Y-60654000D01*
X150018225Y-60654000D01*
X150004694Y-60657973D01*
X150003257Y-60667966D01*
X150033565Y-60802446D01*
X150036645Y-60812275D01*
X150116770Y-61009603D01*
X150121413Y-61018794D01*
X150232694Y-61200388D01*
X150238777Y-61208699D01*
X150378213Y-61369667D01*
X150385580Y-61376883D01*
X150549434Y-61512916D01*
X150557881Y-61518831D01*
X150626969Y-61559203D01*
X150675693Y-61610842D01*
X150688764Y-61680625D01*
X150662033Y-61746396D01*
X150621584Y-61779752D01*
X150608607Y-61786507D01*
X150604474Y-61789610D01*
X150604471Y-61789612D01*
X150444646Y-61909612D01*
X150429965Y-61920635D01*
X150426393Y-61924373D01*
X150290585Y-62066488D01*
X150275629Y-62082138D01*
X150149743Y-62266680D01*
X150134003Y-62300590D01*
X150078301Y-62420590D01*
X150055688Y-62469305D01*
X149995989Y-62684570D01*
X149972251Y-62906695D01*
X149972548Y-62911848D01*
X149972548Y-62911851D01*
X149978011Y-63006590D01*
X149985110Y-63129715D01*
X149986247Y-63134761D01*
X149986248Y-63134767D01*
X150006119Y-63222939D01*
X150034222Y-63347639D01*
X150118266Y-63554616D01*
X150234987Y-63745088D01*
X150381250Y-63913938D01*
X150553126Y-64056632D01*
X150623113Y-64097529D01*
X150626445Y-64099476D01*
X150675169Y-64151114D01*
X150688240Y-64220897D01*
X150661509Y-64286669D01*
X150621055Y-64320027D01*
X150608607Y-64326507D01*
X150604474Y-64329610D01*
X150604471Y-64329612D01*
X150434100Y-64457530D01*
X150429965Y-64460635D01*
X150275629Y-64622138D01*
X150149743Y-64806680D01*
X150147564Y-64811375D01*
X150078301Y-64960590D01*
X150055688Y-65009305D01*
X149995989Y-65224570D01*
X149972251Y-65446695D01*
X149985110Y-65669715D01*
X149986247Y-65674761D01*
X149986248Y-65674767D01*
X150010304Y-65781508D01*
X150034222Y-65887639D01*
X150118266Y-66094616D01*
X150234987Y-66285088D01*
X150381250Y-66453938D01*
X150553126Y-66596632D01*
X150623113Y-66637529D01*
X150626445Y-66639476D01*
X150675169Y-66691114D01*
X150688240Y-66760897D01*
X150661509Y-66826669D01*
X150621055Y-66860027D01*
X150608607Y-66866507D01*
X150604474Y-66869610D01*
X150604471Y-66869612D01*
X150434100Y-66997530D01*
X150429965Y-67000635D01*
X150275629Y-67162138D01*
X150149743Y-67346680D01*
X150136071Y-67376134D01*
X150062023Y-67535658D01*
X150055688Y-67549305D01*
X149995989Y-67764570D01*
X149972251Y-67986695D01*
X149985110Y-68209715D01*
X149986247Y-68214761D01*
X149986248Y-68214767D01*
X150010304Y-68321508D01*
X150034222Y-68427639D01*
X150118266Y-68634616D01*
X150234987Y-68825088D01*
X150381250Y-68993938D01*
X150553126Y-69136632D01*
X150623113Y-69177529D01*
X150626445Y-69179476D01*
X150675169Y-69231114D01*
X150688240Y-69300897D01*
X150661509Y-69366669D01*
X150621055Y-69400027D01*
X150608607Y-69406507D01*
X150604474Y-69409610D01*
X150604471Y-69409612D01*
X150434100Y-69537530D01*
X150429965Y-69540635D01*
X150275629Y-69702138D01*
X150149743Y-69886680D01*
X150135861Y-69916586D01*
X150078301Y-70040590D01*
X150055688Y-70089305D01*
X149995989Y-70304570D01*
X149972251Y-70526695D01*
X149985110Y-70749715D01*
X149986247Y-70754761D01*
X149986248Y-70754767D01*
X150010304Y-70861508D01*
X150034222Y-70967639D01*
X150118266Y-71174616D01*
X150234987Y-71365088D01*
X150381250Y-71533938D01*
X150553126Y-71676632D01*
X150623113Y-71717529D01*
X150626445Y-71719476D01*
X150675169Y-71771114D01*
X150688240Y-71840897D01*
X150661509Y-71906669D01*
X150621055Y-71940027D01*
X150608607Y-71946507D01*
X150604474Y-71949610D01*
X150604471Y-71949612D01*
X150434100Y-72077530D01*
X150429965Y-72080635D01*
X150275629Y-72242138D01*
X150149743Y-72426680D01*
X150147564Y-72431375D01*
X150071939Y-72594296D01*
X150055688Y-72629305D01*
X149995989Y-72844570D01*
X149972251Y-73066695D01*
X149985110Y-73289715D01*
X149986247Y-73294761D01*
X149986248Y-73294767D01*
X150010304Y-73401508D01*
X150034222Y-73507639D01*
X150082032Y-73625382D01*
X150109425Y-73692842D01*
X150118266Y-73714616D01*
X150234987Y-73905088D01*
X150381250Y-74073938D01*
X150553126Y-74216632D01*
X150623113Y-74257529D01*
X150626445Y-74259476D01*
X150675169Y-74311114D01*
X150688240Y-74380897D01*
X150661509Y-74446669D01*
X150621055Y-74480027D01*
X150608607Y-74486507D01*
X150604474Y-74489610D01*
X150604471Y-74489612D01*
X150434100Y-74617530D01*
X150429965Y-74620635D01*
X150275629Y-74782138D01*
X150149743Y-74966680D01*
X150147564Y-74971375D01*
X150069618Y-75139296D01*
X150055688Y-75169305D01*
X149995989Y-75384570D01*
X149972251Y-75606695D01*
X149985110Y-75829715D01*
X149986247Y-75834761D01*
X149986248Y-75834767D01*
X150010304Y-75941508D01*
X150034222Y-76047639D01*
X150118266Y-76254616D01*
X150234987Y-76445088D01*
X150381250Y-76613938D01*
X150553126Y-76756632D01*
X150623113Y-76797529D01*
X150626445Y-76799476D01*
X150675169Y-76851114D01*
X150688240Y-76920897D01*
X150661509Y-76986669D01*
X150621055Y-77020027D01*
X150608607Y-77026507D01*
X150604474Y-77029610D01*
X150604471Y-77029612D01*
X150434100Y-77157530D01*
X150429965Y-77160635D01*
X150275629Y-77322138D01*
X150149743Y-77506680D01*
X150147564Y-77511375D01*
X150078301Y-77660590D01*
X150055688Y-77709305D01*
X149995989Y-77924570D01*
X149972251Y-78146695D01*
X149985110Y-78369715D01*
X149986247Y-78374761D01*
X149986248Y-78374767D01*
X150010304Y-78481508D01*
X150034222Y-78587639D01*
X150118266Y-78794616D01*
X150234987Y-78985088D01*
X150381250Y-79153938D01*
X150553126Y-79296632D01*
X150623113Y-79337529D01*
X150626445Y-79339476D01*
X150675169Y-79391114D01*
X150688240Y-79460897D01*
X150661509Y-79526669D01*
X150621055Y-79560027D01*
X150608607Y-79566507D01*
X150604474Y-79569610D01*
X150604471Y-79569612D01*
X150434100Y-79697530D01*
X150429965Y-79700635D01*
X150275629Y-79862138D01*
X150149743Y-80046680D01*
X150147564Y-80051375D01*
X150062152Y-80235380D01*
X150055688Y-80249305D01*
X149995989Y-80464570D01*
X149972251Y-80686695D01*
X149985110Y-80909715D01*
X149986247Y-80914761D01*
X149986248Y-80914767D01*
X150010304Y-81021508D01*
X150034222Y-81127639D01*
X150118266Y-81334616D01*
X150234987Y-81525088D01*
X150381250Y-81693938D01*
X150553126Y-81836632D01*
X150623113Y-81877529D01*
X150626445Y-81879476D01*
X150675169Y-81931114D01*
X150688240Y-82000897D01*
X150661509Y-82066669D01*
X150621055Y-82100027D01*
X150608607Y-82106507D01*
X150604474Y-82109610D01*
X150604471Y-82109612D01*
X150434100Y-82237530D01*
X150429965Y-82240635D01*
X150275629Y-82402138D01*
X150149743Y-82586680D01*
X150147564Y-82591375D01*
X150078301Y-82740590D01*
X150055688Y-82789305D01*
X149995989Y-83004570D01*
X149972251Y-83226695D01*
X149985110Y-83449715D01*
X149986247Y-83454761D01*
X149986248Y-83454767D01*
X150010304Y-83561508D01*
X150034222Y-83667639D01*
X150118266Y-83874616D01*
X150234987Y-84065088D01*
X150381250Y-84233938D01*
X150553126Y-84376632D01*
X150623113Y-84417529D01*
X150626445Y-84419476D01*
X150675169Y-84471114D01*
X150688240Y-84540897D01*
X150661509Y-84606669D01*
X150621055Y-84640027D01*
X150608607Y-84646507D01*
X150604474Y-84649610D01*
X150604471Y-84649612D01*
X150434100Y-84777530D01*
X150429965Y-84780635D01*
X150275629Y-84942138D01*
X150149743Y-85126680D01*
X150147564Y-85131375D01*
X150078301Y-85280590D01*
X150055688Y-85329305D01*
X149995989Y-85544570D01*
X149972251Y-85766695D01*
X149985110Y-85989715D01*
X149986247Y-85994761D01*
X149986248Y-85994767D01*
X150010304Y-86101508D01*
X150034222Y-86207639D01*
X150118266Y-86414616D01*
X150234987Y-86605088D01*
X150381250Y-86773938D01*
X150553126Y-86916632D01*
X150623113Y-86957529D01*
X150626445Y-86959476D01*
X150675169Y-87011114D01*
X150688240Y-87080897D01*
X150661509Y-87146669D01*
X150621055Y-87180027D01*
X150608607Y-87186507D01*
X150604474Y-87189610D01*
X150604471Y-87189612D01*
X150434100Y-87317530D01*
X150429965Y-87320635D01*
X150275629Y-87482138D01*
X150149743Y-87666680D01*
X150147564Y-87671375D01*
X150078301Y-87820590D01*
X150055688Y-87869305D01*
X149995989Y-88084570D01*
X149972251Y-88306695D01*
X149985110Y-88529715D01*
X149986247Y-88534761D01*
X149986248Y-88534767D01*
X150010304Y-88641508D01*
X150034222Y-88747639D01*
X150118266Y-88954616D01*
X150234987Y-89145088D01*
X150381250Y-89313938D01*
X150553126Y-89456632D01*
X150623113Y-89497529D01*
X150626445Y-89499476D01*
X150675169Y-89551114D01*
X150688240Y-89620897D01*
X150661509Y-89686669D01*
X150621055Y-89720027D01*
X150608607Y-89726507D01*
X150604474Y-89729610D01*
X150604471Y-89729612D01*
X150434100Y-89857530D01*
X150429965Y-89860635D01*
X150275629Y-90022138D01*
X150149743Y-90206680D01*
X150147564Y-90211375D01*
X150078301Y-90360590D01*
X150055688Y-90409305D01*
X149995989Y-90624570D01*
X149972251Y-90846695D01*
X149985110Y-91069715D01*
X149986247Y-91074761D01*
X149986248Y-91074767D01*
X150010304Y-91181508D01*
X150034222Y-91287639D01*
X150118266Y-91494616D01*
X150234987Y-91685088D01*
X150381250Y-91853938D01*
X150553126Y-91996632D01*
X150623113Y-92037529D01*
X150626445Y-92039476D01*
X150675169Y-92091114D01*
X150688240Y-92160897D01*
X150661509Y-92226669D01*
X150621055Y-92260027D01*
X150608607Y-92266507D01*
X150604474Y-92269610D01*
X150604471Y-92269612D01*
X150434100Y-92397530D01*
X150429965Y-92400635D01*
X150275629Y-92562138D01*
X150149743Y-92746680D01*
X150147564Y-92751375D01*
X150078301Y-92900590D01*
X150055688Y-92949305D01*
X149995989Y-93164570D01*
X149972251Y-93386695D01*
X149985110Y-93609715D01*
X149986247Y-93614761D01*
X149986248Y-93614767D01*
X150010304Y-93721508D01*
X150034222Y-93827639D01*
X150118266Y-94034616D01*
X150234987Y-94225088D01*
X150381250Y-94393938D01*
X150553126Y-94536632D01*
X150623113Y-94577529D01*
X150626445Y-94579476D01*
X150675169Y-94631114D01*
X150688240Y-94700897D01*
X150661509Y-94766669D01*
X150621055Y-94800027D01*
X150608607Y-94806507D01*
X150604474Y-94809610D01*
X150604471Y-94809612D01*
X150434100Y-94937530D01*
X150429965Y-94940635D01*
X150275629Y-95102138D01*
X150149743Y-95286680D01*
X150147564Y-95291375D01*
X150078301Y-95440590D01*
X150055688Y-95489305D01*
X149995989Y-95704570D01*
X149972251Y-95926695D01*
X149985110Y-96149715D01*
X149986247Y-96154761D01*
X149986248Y-96154767D01*
X150010304Y-96261508D01*
X150034222Y-96367639D01*
X150118266Y-96574616D01*
X150234987Y-96765088D01*
X150381250Y-96933938D01*
X150553126Y-97076632D01*
X150623113Y-97117529D01*
X150626445Y-97119476D01*
X150675169Y-97171114D01*
X150688240Y-97240897D01*
X150661509Y-97306669D01*
X150621055Y-97340027D01*
X150608607Y-97346507D01*
X150604474Y-97349610D01*
X150604471Y-97349612D01*
X150434100Y-97477530D01*
X150429965Y-97480635D01*
X150275629Y-97642138D01*
X150149743Y-97826680D01*
X150147564Y-97831375D01*
X150078301Y-97980590D01*
X150055688Y-98029305D01*
X149995989Y-98244570D01*
X149972251Y-98466695D01*
X149985110Y-98689715D01*
X149986247Y-98694761D01*
X149986248Y-98694767D01*
X150010304Y-98801508D01*
X150034222Y-98907639D01*
X150118266Y-99114616D01*
X150234987Y-99305088D01*
X150381250Y-99473938D01*
X150553126Y-99616632D01*
X150623113Y-99657529D01*
X150626445Y-99659476D01*
X150675169Y-99711114D01*
X150688240Y-99780897D01*
X150661509Y-99846669D01*
X150621055Y-99880027D01*
X150608607Y-99886507D01*
X150604474Y-99889610D01*
X150604471Y-99889612D01*
X150434100Y-100017530D01*
X150429965Y-100020635D01*
X150275629Y-100182138D01*
X150149743Y-100366680D01*
X150147564Y-100371375D01*
X150078301Y-100520590D01*
X150055688Y-100569305D01*
X149995989Y-100784570D01*
X149972251Y-101006695D01*
X142218837Y-101006695D01*
X142715935Y-60134183D01*
X149999389Y-60134183D01*
X150000912Y-60142607D01*
X150013292Y-60146000D01*
X151062885Y-60146000D01*
X151078124Y-60141525D01*
X151079329Y-60140135D01*
X151081000Y-60132452D01*
X151081000Y-59083102D01*
X151077082Y-59069758D01*
X151062806Y-59067771D01*
X151024324Y-59073660D01*
X151014288Y-59076051D01*
X150811868Y-59142212D01*
X150802359Y-59146209D01*
X150613463Y-59244542D01*
X150604738Y-59250036D01*
X150434433Y-59377905D01*
X150426726Y-59384748D01*
X150279590Y-59538717D01*
X150273104Y-59546727D01*
X150153098Y-59722649D01*
X150148000Y-59731623D01*
X150058338Y-59924783D01*
X150054775Y-59934470D01*
X149999389Y-60134183D01*
X142715935Y-60134183D01*
X142814467Y-52032703D01*
X150490743Y-52032703D01*
X150528268Y-52317734D01*
X150604129Y-52595036D01*
X150716923Y-52859476D01*
X150864561Y-53106161D01*
X151044313Y-53330528D01*
X151252851Y-53528423D01*
X151486317Y-53696186D01*
X151490112Y-53698195D01*
X151490113Y-53698196D01*
X151511869Y-53709715D01*
X151740392Y-53830712D01*
X152010373Y-53929511D01*
X152291264Y-53990755D01*
X152319841Y-53993004D01*
X152514282Y-54008307D01*
X152514291Y-54008307D01*
X152516739Y-54008500D01*
X152672271Y-54008500D01*
X152674407Y-54008354D01*
X152674418Y-54008354D01*
X152882548Y-53994165D01*
X152882554Y-53994164D01*
X152886825Y-53993873D01*
X152891020Y-53993004D01*
X152891022Y-53993004D01*
X153027583Y-53964724D01*
X153168342Y-53935574D01*
X153439343Y-53839607D01*
X153694812Y-53707750D01*
X153698313Y-53705289D01*
X153698317Y-53705287D01*
X153812418Y-53625095D01*
X153930023Y-53542441D01*
X154140622Y-53346740D01*
X154322713Y-53124268D01*
X154472927Y-52879142D01*
X154588483Y-52615898D01*
X154667244Y-52339406D01*
X154707751Y-52054784D01*
X154707845Y-52036951D01*
X154707867Y-52032703D01*
X171690743Y-52032703D01*
X171728268Y-52317734D01*
X171804129Y-52595036D01*
X171916923Y-52859476D01*
X172064561Y-53106161D01*
X172244313Y-53330528D01*
X172452851Y-53528423D01*
X172686317Y-53696186D01*
X172690112Y-53698195D01*
X172690113Y-53698196D01*
X172711869Y-53709715D01*
X172940392Y-53830712D01*
X173210373Y-53929511D01*
X173491264Y-53990755D01*
X173519841Y-53993004D01*
X173714282Y-54008307D01*
X173714291Y-54008307D01*
X173716739Y-54008500D01*
X173872271Y-54008500D01*
X173874407Y-54008354D01*
X173874418Y-54008354D01*
X174082548Y-53994165D01*
X174082554Y-53994164D01*
X174086825Y-53993873D01*
X174091020Y-53993004D01*
X174091022Y-53993004D01*
X174227583Y-53964724D01*
X174368342Y-53935574D01*
X174639343Y-53839607D01*
X174894812Y-53707750D01*
X174898313Y-53705289D01*
X174898317Y-53705287D01*
X175012418Y-53625095D01*
X175130023Y-53542441D01*
X175340622Y-53346740D01*
X175522713Y-53124268D01*
X175672927Y-52879142D01*
X175788483Y-52615898D01*
X175867244Y-52339406D01*
X175907751Y-52054784D01*
X175907845Y-52036951D01*
X175909235Y-51771583D01*
X175909235Y-51771576D01*
X175909257Y-51767297D01*
X175871732Y-51482266D01*
X175795871Y-51204964D01*
X175683077Y-50940524D01*
X175535439Y-50693839D01*
X175355687Y-50469472D01*
X175147149Y-50271577D01*
X174913683Y-50103814D01*
X174891843Y-50092250D01*
X174868654Y-50079972D01*
X174659608Y-49969288D01*
X174389627Y-49870489D01*
X174108736Y-49809245D01*
X174077685Y-49806801D01*
X173885718Y-49791693D01*
X173885709Y-49791693D01*
X173883261Y-49791500D01*
X173727729Y-49791500D01*
X173725593Y-49791646D01*
X173725582Y-49791646D01*
X173517452Y-49805835D01*
X173517446Y-49805836D01*
X173513175Y-49806127D01*
X173508980Y-49806996D01*
X173508978Y-49806996D01*
X173372416Y-49835277D01*
X173231658Y-49864426D01*
X172960657Y-49960393D01*
X172705188Y-50092250D01*
X172701687Y-50094711D01*
X172701683Y-50094713D01*
X172691594Y-50101804D01*
X172469977Y-50257559D01*
X172259378Y-50453260D01*
X172077287Y-50675732D01*
X171927073Y-50920858D01*
X171811517Y-51184102D01*
X171732756Y-51460594D01*
X171692249Y-51745216D01*
X171692227Y-51749505D01*
X171692226Y-51749512D01*
X171690765Y-52028417D01*
X171690743Y-52032703D01*
X154707867Y-52032703D01*
X154709235Y-51771583D01*
X154709235Y-51771576D01*
X154709257Y-51767297D01*
X154671732Y-51482266D01*
X154595871Y-51204964D01*
X154483077Y-50940524D01*
X154335439Y-50693839D01*
X154155687Y-50469472D01*
X153947149Y-50271577D01*
X153713683Y-50103814D01*
X153691843Y-50092250D01*
X153668654Y-50079972D01*
X153459608Y-49969288D01*
X153189627Y-49870489D01*
X152908736Y-49809245D01*
X152877685Y-49806801D01*
X152685718Y-49791693D01*
X152685709Y-49791693D01*
X152683261Y-49791500D01*
X152527729Y-49791500D01*
X152525593Y-49791646D01*
X152525582Y-49791646D01*
X152317452Y-49805835D01*
X152317446Y-49805836D01*
X152313175Y-49806127D01*
X152308980Y-49806996D01*
X152308978Y-49806996D01*
X152172416Y-49835277D01*
X152031658Y-49864426D01*
X151760657Y-49960393D01*
X151505188Y-50092250D01*
X151501687Y-50094711D01*
X151501683Y-50094713D01*
X151491594Y-50101804D01*
X151269977Y-50257559D01*
X151059378Y-50453260D01*
X150877287Y-50675732D01*
X150727073Y-50920858D01*
X150611517Y-51184102D01*
X150532756Y-51460594D01*
X150492249Y-51745216D01*
X150492227Y-51749505D01*
X150492226Y-51749512D01*
X150490765Y-52028417D01*
X150490743Y-52032703D01*
X142814467Y-52032703D01*
X142900000Y-45000000D01*
X142900000Y-43926586D01*
X142920002Y-43858465D01*
X142973658Y-43811972D01*
X143026583Y-43800587D01*
X171758108Y-43933912D01*
G37*
%TD.AperFunction*%
%TD*%
M02*
