%TF.GenerationSoftware,KiCad,Pcbnew,(6.0.6)*%
%TF.CreationDate,2022-11-20T10:14:25-06:00*%
%TF.ProjectId,IO_Riser,494f5f52-6973-4657-922e-6b696361645f,V0.9*%
%TF.SameCoordinates,Original*%
%TF.FileFunction,Copper,L1,Top*%
%TF.FilePolarity,Positive*%
%FSLAX46Y46*%
G04 Gerber Fmt 4.6, Leading zero omitted, Abs format (unit mm)*
G04 Created by KiCad (PCBNEW (6.0.6)) date 2022-11-20 10:14:25*
%MOMM*%
%LPD*%
G01*
G04 APERTURE LIST*
%TA.AperFunction,ConnectorPad*%
%ADD10R,7.620000X1.780000*%
%TD*%
%TA.AperFunction,ComponentPad*%
%ADD11R,1.700000X1.700000*%
%TD*%
%TA.AperFunction,ComponentPad*%
%ADD12O,1.700000X1.700000*%
%TD*%
%TA.AperFunction,ViaPad*%
%ADD13C,0.800000*%
%TD*%
%TA.AperFunction,Conductor*%
%ADD14C,0.250000*%
%TD*%
G04 APERTURE END LIST*
D10*
%TO.P,J2,2,Pin_2*%
%TO.N,SBE*%
X165452500Y-111340000D03*
%TO.P,J2,4,Pin_4*%
%TO.N,~{IO_EXT_INT}*%
X165452500Y-108800000D03*
%TO.P,J2,6,Pin_6*%
%TO.N,IO_A10*%
X165452500Y-106260000D03*
%TO.P,J2,8,Pin_8*%
%TO.N,IO_A11*%
X165452500Y-103720000D03*
%TO.P,J2,10,Pin_10*%
%TO.N,IO_A3*%
X165452500Y-101180000D03*
%TO.P,J2,12,Pin_12*%
%TO.N,READY_~{HOLD}*%
X165452500Y-98640000D03*
%TO.P,J2,14,Pin_14*%
%TO.N,IO_A8*%
X165452500Y-96100000D03*
%TO.P,J2,16,Pin_16*%
%TO.N,IO_A14*%
X165452500Y-93560000D03*
%TO.P,J2,18,Pin_18*%
%TO.N,IO_A9*%
X165452500Y-91020000D03*
%TO.P,J2,20,Pin_20*%
%TO.N,IO_A2*%
X165452500Y-88480000D03*
%TO.P,J2,22,Pin_22*%
%TO.N,~{IO_CRUCLK}*%
X165452500Y-85940000D03*
%TO.P,J2,24,Pin_24*%
%TO.N,IO_\u00D83*%
X165452500Y-83400000D03*
%TO.P,J2,26,Pin_26*%
%TO.N,~{IO_WE}*%
X165452500Y-80860000D03*
%TO.P,J2,28,Pin_28*%
%TO.N,~{IO_MBE}*%
X165452500Y-78320000D03*
%TO.P,J2,30,Pin_30*%
%TO.N,IO_A1*%
X165452500Y-75780000D03*
%TO.P,J2,32,Pin_32*%
%TO.N,~{MEMEN}*%
X165452500Y-73240000D03*
%TO.P,J2,34,Pin_34*%
%TO.N,D7*%
X165452500Y-70700000D03*
%TO.P,J2,36,Pin_36*%
%TO.N,D6*%
X165452500Y-68160000D03*
%TO.P,J2,38,Pin_38*%
%TO.N,D5*%
X165452500Y-65620000D03*
%TO.P,J2,40,Pin_40*%
%TO.N,D1*%
X165452500Y-63080000D03*
%TO.P,J2,42,Pin_42*%
%TO.N,D3*%
X165452500Y-60540000D03*
%TO.P,J2,44,Pin_44*%
%TO.N,IO_SNDIN*%
X165452500Y-58000000D03*
%TD*%
D11*
%TO.P,J1,1,Pin_1*%
%TO.N,+5V*%
X97800000Y-85500000D03*
D12*
%TO.P,J1,2,Pin_2*%
%TO.N,SBE*%
X97800000Y-82960000D03*
%TO.P,J1,3,Pin_3*%
%TO.N,~{IO_RESET}*%
X100340000Y-85500000D03*
%TO.P,J1,4,Pin_4*%
%TO.N,~{IO_EXT_INT}*%
X100340000Y-82960000D03*
%TO.P,J1,5,Pin_5*%
%TO.N,IO_A5*%
X102880000Y-85500000D03*
%TO.P,J1,6,Pin_6*%
%TO.N,IO_A10*%
X102880000Y-82960000D03*
%TO.P,J1,7,Pin_7*%
%TO.N,IO_A4*%
X105420000Y-85500000D03*
%TO.P,J1,8,Pin_8*%
%TO.N,IO_A11*%
X105420000Y-82960000D03*
%TO.P,J1,9,Pin_9*%
%TO.N,IO_DBIN*%
X107960000Y-85500000D03*
%TO.P,J1,10,Pin_10*%
%TO.N,IO_A3*%
X107960000Y-82960000D03*
%TO.P,J1,11,Pin_11*%
%TO.N,IO_A12*%
X110500000Y-85500000D03*
%TO.P,J1,12,Pin_12*%
%TO.N,READY_~{HOLD}*%
X110500000Y-82960000D03*
%TO.P,J1,13,Pin_13*%
%TO.N,~{IO_LOAD}*%
X113040000Y-85500000D03*
%TO.P,J1,14,Pin_14*%
%TO.N,IO_A8*%
X113040000Y-82960000D03*
%TO.P,J1,15,Pin_15*%
%TO.N,IO_A13*%
X115580000Y-85500000D03*
%TO.P,J1,16,Pin_16*%
%TO.N,IO_A14*%
X115580000Y-82960000D03*
%TO.P,J1,17,Pin_17*%
%TO.N,IO_A7*%
X118120000Y-85500000D03*
%TO.P,J1,18,Pin_18*%
%TO.N,IO_A9*%
X118120000Y-82960000D03*
%TO.P,J1,19,Pin_19*%
%TO.N,IO_A15-CRUOUT*%
X120660000Y-85500000D03*
%TO.P,J1,20,Pin_20*%
%TO.N,IO_A2*%
X120660000Y-82960000D03*
%TO.P,J1,21,Pin_21*%
%TO.N,GND*%
X123200000Y-85500000D03*
%TO.P,J1,22,Pin_22*%
%TO.N,~{IO_CRUCLK}*%
X123200000Y-82960000D03*
%TO.P,J1,23,Pin_23*%
%TO.N,GND*%
X125740000Y-85500000D03*
%TO.P,J1,24,Pin_24*%
%TO.N,IO_\u00D83*%
X125740000Y-82960000D03*
%TO.P,J1,25,Pin_25*%
%TO.N,GND*%
X128280000Y-85500000D03*
%TO.P,J1,26,Pin_26*%
%TO.N,~{IO_WE}*%
X128280000Y-82960000D03*
%TO.P,J1,27,Pin_27*%
%TO.N,GND*%
X130820000Y-85500000D03*
%TO.P,J1,28,Pin_28*%
%TO.N,~{IO_MBE}*%
X130820000Y-82960000D03*
%TO.P,J1,29,Pin_29*%
%TO.N,IO_A6*%
X133360000Y-85500000D03*
%TO.P,J1,30,Pin_30*%
%TO.N,IO_A1*%
X133360000Y-82960000D03*
%TO.P,J1,31,Pin_31*%
%TO.N,IO_A0*%
X135900000Y-85500000D03*
%TO.P,J1,32,Pin_32*%
%TO.N,~{MEMEN}*%
X135900000Y-82960000D03*
%TO.P,J1,33,Pin_33*%
%TO.N,IO_CRUIN*%
X138440000Y-85500000D03*
%TO.P,J1,34,Pin_34*%
%TO.N,D7*%
X138440000Y-82960000D03*
%TO.P,J1,35,Pin_35*%
%TO.N,D4*%
X140980000Y-85500000D03*
%TO.P,J1,36,Pin_36*%
%TO.N,D6*%
X140980000Y-82960000D03*
%TO.P,J1,37,Pin_37*%
%TO.N,D0*%
X143520000Y-85500000D03*
%TO.P,J1,38,Pin_38*%
%TO.N,D5*%
X143520000Y-82960000D03*
%TO.P,J1,39,Pin_39*%
%TO.N,D2*%
X146060000Y-85500000D03*
%TO.P,J1,40,Pin_40*%
%TO.N,D1*%
X146060000Y-82960000D03*
%TO.P,J1,41,Pin_41*%
%TO.N,HOLD{slash}IAQ*%
X148600000Y-85500000D03*
%TO.P,J1,42,Pin_42*%
%TO.N,D3*%
X148600000Y-82960000D03*
%TO.P,J1,43,Pin_43*%
%TO.N,-5V*%
X151140000Y-85500000D03*
%TO.P,J1,44,Pin_44*%
%TO.N,IO_SNDIN*%
X151140000Y-82960000D03*
%TD*%
D13*
%TO.N,IO_SNDIN*%
X160496500Y-59485600D03*
%TO.N,D3*%
X158737500Y-60191000D03*
%TO.N,D1*%
X155068300Y-63914100D03*
%TO.N,D5*%
X149513600Y-67860600D03*
%TO.N,D6*%
X148202100Y-68807100D03*
%TO.N,D7*%
X143010600Y-76526500D03*
%TO.N,IO_A1*%
X146696700Y-74992700D03*
%TD*%
D14*
%TO.N,IO_SNDIN*%
X161317200Y-58664900D02*
X161317200Y-58000000D01*
X160496500Y-59485600D02*
X161317200Y-58664900D01*
X165452500Y-58000000D02*
X161317200Y-58000000D01*
%TO.N,D3*%
X165452500Y-60540000D02*
X161317200Y-60540000D01*
X159086500Y-60540000D02*
X161317200Y-60540000D01*
X158737500Y-60191000D02*
X159086500Y-60540000D01*
%TO.N,D1*%
X160483100Y-63914100D02*
X161317200Y-63080000D01*
X155068300Y-63914100D02*
X160483100Y-63914100D01*
X165452500Y-63080000D02*
X161317200Y-63080000D01*
%TO.N,D5*%
X151754200Y-65620000D02*
X165452500Y-65620000D01*
X149513600Y-67860600D02*
X151754200Y-65620000D01*
%TO.N,D6*%
X160670100Y-68807100D02*
X161317200Y-68160000D01*
X148202100Y-68807100D02*
X160670100Y-68807100D01*
X165452500Y-68160000D02*
X161317200Y-68160000D01*
%TO.N,D7*%
X165452500Y-70700000D02*
X161317200Y-70700000D01*
X148837100Y-70700000D02*
X161317200Y-70700000D01*
X143010600Y-76526500D02*
X148837100Y-70700000D01*
%TO.N,~{MEMEN}*%
X147386100Y-73240000D02*
X165452500Y-73240000D01*
X138841400Y-81784700D02*
X147386100Y-73240000D01*
X137883200Y-81784700D02*
X138841400Y-81784700D01*
X137075300Y-82592600D02*
X137883200Y-81784700D01*
X137075300Y-82960000D02*
X137075300Y-82592600D01*
X135900000Y-82960000D02*
X137075300Y-82960000D01*
%TO.N,IO_A1*%
X165452500Y-75780000D02*
X161317200Y-75780000D01*
X160529900Y-74992700D02*
X146696700Y-74992700D01*
X161317200Y-75780000D02*
X160529900Y-74992700D01*
%TO.N,~{IO_MBE}*%
X160868600Y-78320000D02*
X165452500Y-78320000D01*
X155050700Y-84137900D02*
X160868600Y-78320000D01*
X132805900Y-84137900D02*
X155050700Y-84137900D01*
X131995300Y-83327300D02*
X132805900Y-84137900D01*
X131995300Y-82960000D02*
X131995300Y-83327300D01*
X130820000Y-82960000D02*
X131995300Y-82960000D01*
%TO.N,~{IO_WE}*%
X160644300Y-80860000D02*
X165452500Y-80860000D01*
X154799800Y-86704500D02*
X160644300Y-80860000D01*
X132805700Y-86704500D02*
X154799800Y-86704500D01*
X132090000Y-85988800D02*
X132805700Y-86704500D01*
X132090000Y-85105800D02*
X132090000Y-85988800D01*
X131119500Y-84135300D02*
X132090000Y-85105800D01*
X130263200Y-84135300D02*
X131119500Y-84135300D01*
X129455300Y-83327400D02*
X130263200Y-84135300D01*
X129455300Y-82960000D02*
X129455300Y-83327400D01*
X128280000Y-82960000D02*
X129455300Y-82960000D01*
%TO.N,IO_\u00D83*%
X161235300Y-83400000D02*
X165452500Y-83400000D01*
X157458200Y-87177100D02*
X161235300Y-83400000D01*
X125735800Y-87177100D02*
X157458200Y-87177100D01*
X124536000Y-85977300D02*
X125735800Y-87177100D01*
X124536000Y-84972000D02*
X124536000Y-85977300D01*
X125372700Y-84135300D02*
X124536000Y-84972000D01*
X125740000Y-84135300D02*
X125372700Y-84135300D01*
X125740000Y-82960000D02*
X125740000Y-84135300D01*
%TO.N,~{IO_CRUCLK}*%
X160827600Y-85940000D02*
X165452500Y-85940000D01*
X159112900Y-87654700D02*
X160827600Y-85940000D01*
X123659000Y-87654700D02*
X159112900Y-87654700D01*
X122023700Y-86019400D02*
X123659000Y-87654700D01*
X122023700Y-84944300D02*
X122023700Y-86019400D01*
X122832700Y-84135300D02*
X122023700Y-84944300D01*
X123200000Y-84135300D02*
X122832700Y-84135300D01*
X123200000Y-82960000D02*
X123200000Y-84135300D01*
%TO.N,GND*%
X130820000Y-85500000D02*
X128280000Y-85500000D01*
X128280000Y-85500000D02*
X125740000Y-85500000D01*
%TO.N,IO_A2*%
X121969800Y-88480000D02*
X165452500Y-88480000D01*
X119459400Y-85969600D02*
X121969800Y-88480000D01*
X119459400Y-84968600D02*
X119459400Y-85969600D01*
X120292700Y-84135300D02*
X119459400Y-84968600D01*
X120660000Y-84135300D02*
X120292700Y-84135300D01*
X120660000Y-82960000D02*
X120660000Y-84135300D01*
%TO.N,IO_A9*%
X121970500Y-91020000D02*
X165452500Y-91020000D01*
X116943200Y-85992700D02*
X121970500Y-91020000D01*
X116943200Y-84944800D02*
X116943200Y-85992700D01*
X117752700Y-84135300D02*
X116943200Y-84944800D01*
X118120000Y-84135300D02*
X117752700Y-84135300D01*
X118120000Y-82960000D02*
X118120000Y-84135300D01*
%TO.N,IO_A14*%
X121963200Y-93560000D02*
X165452500Y-93560000D01*
X114401000Y-85997800D02*
X121963200Y-93560000D01*
X114401000Y-84947000D02*
X114401000Y-85997800D01*
X115212700Y-84135300D02*
X114401000Y-84947000D01*
X115580000Y-84135300D02*
X115212700Y-84135300D01*
X115580000Y-82960000D02*
X115580000Y-84135300D01*
%TO.N,IO_A8*%
X121927700Y-96100000D02*
X165452500Y-96100000D01*
X111864200Y-86036500D02*
X121927700Y-96100000D01*
X111864200Y-84943800D02*
X111864200Y-86036500D01*
X112672700Y-84135300D02*
X111864200Y-84943800D01*
X113040000Y-84135300D02*
X112672700Y-84135300D01*
X113040000Y-82960000D02*
X113040000Y-84135300D01*
%TO.N,READY_~{HOLD}*%
X121977800Y-98640000D02*
X165452500Y-98640000D01*
X109324200Y-85986400D02*
X121977800Y-98640000D01*
X109324200Y-84943800D02*
X109324200Y-85986400D01*
X110132700Y-84135300D02*
X109324200Y-84943800D01*
X110500000Y-84135300D02*
X110132700Y-84135300D01*
X110500000Y-82960000D02*
X110500000Y-84135300D01*
%TO.N,IO_A3*%
X121976000Y-101180000D02*
X165452500Y-101180000D01*
X106779900Y-85983900D02*
X121976000Y-101180000D01*
X106779900Y-84948100D02*
X106779900Y-85983900D01*
X107592700Y-84135300D02*
X106779900Y-84948100D01*
X107960000Y-84135300D02*
X107592700Y-84135300D01*
X107960000Y-82960000D02*
X107960000Y-84135300D01*
%TO.N,IO_A11*%
X148750000Y-103720000D02*
X165452500Y-103720000D01*
X147279900Y-105190100D02*
X148750000Y-103720000D01*
X123444300Y-105190100D02*
X147279900Y-105190100D01*
X104239900Y-85985700D02*
X123444300Y-105190100D01*
X104239900Y-84948100D02*
X104239900Y-85985700D01*
X105052700Y-84135300D02*
X104239900Y-84948100D01*
X105420000Y-84135300D02*
X105052700Y-84135300D01*
X105420000Y-82960000D02*
X105420000Y-84135300D01*
%TO.N,IO_A10*%
X121973600Y-106260000D02*
X165452500Y-106260000D01*
X101702500Y-85988900D02*
X121973600Y-106260000D01*
X101702500Y-84945500D02*
X101702500Y-85988900D01*
X102512700Y-84135300D02*
X101702500Y-84945500D01*
X102880000Y-84135300D02*
X102512700Y-84135300D01*
X102880000Y-82960000D02*
X102880000Y-84135300D01*
%TO.N,~{IO_EXT_INT}*%
X121954800Y-108800000D02*
X165452500Y-108800000D01*
X99140100Y-85985300D02*
X121954800Y-108800000D01*
X99140100Y-84967900D02*
X99140100Y-85985300D01*
X99972700Y-84135300D02*
X99140100Y-84967900D01*
X100340000Y-84135300D02*
X99972700Y-84135300D01*
X100340000Y-82960000D02*
X100340000Y-84135300D01*
%TO.N,SBE*%
X121404600Y-111340000D02*
X165452500Y-111340000D01*
X96624600Y-86560000D02*
X121404600Y-111340000D01*
X96624600Y-84502700D02*
X96624600Y-86560000D01*
X96992000Y-84135300D02*
X96624600Y-84502700D01*
X97800000Y-84135300D02*
X96992000Y-84135300D01*
X97800000Y-82960000D02*
X97800000Y-84135300D01*
%TD*%
%TA.AperFunction,Conductor*%
%TO.N,GND*%
G36*
X123844621Y-85266002D02*
G01*
X123891114Y-85319658D01*
X123902500Y-85372000D01*
X123902500Y-85628000D01*
X123882498Y-85696121D01*
X123828842Y-85742614D01*
X123776500Y-85754000D01*
X123072000Y-85754000D01*
X123003879Y-85733998D01*
X122957386Y-85680342D01*
X122946000Y-85628000D01*
X122946000Y-85372000D01*
X122966002Y-85303879D01*
X123019658Y-85257386D01*
X123072000Y-85246000D01*
X123776500Y-85246000D01*
X123844621Y-85266002D01*
G37*
%TD.AperFunction*%
%TA.AperFunction,Conductor*%
G36*
X131016121Y-85266002D02*
G01*
X131062614Y-85319658D01*
X131074000Y-85372000D01*
X131074000Y-85628000D01*
X131053998Y-85696121D01*
X131000342Y-85742614D01*
X130948000Y-85754000D01*
X125295500Y-85754000D01*
X125227379Y-85733998D01*
X125180886Y-85680342D01*
X125169500Y-85628000D01*
X125169500Y-85372000D01*
X125189502Y-85303879D01*
X125243158Y-85257386D01*
X125295500Y-85246000D01*
X130948000Y-85246000D01*
X131016121Y-85266002D01*
G37*
%TD.AperFunction*%
%TD*%
M02*
