%TF.GenerationSoftware,KiCad,Pcbnew,(6.0.6)*%
%TF.CreationDate,2022-11-20T10:14:25-06:00*%
%TF.ProjectId,IO_Riser,494f5f52-6973-4657-922e-6b696361645f,V0.9*%
%TF.SameCoordinates,Original*%
%TF.FileFunction,Copper,L2,Bot*%
%TF.FilePolarity,Positive*%
%FSLAX46Y46*%
G04 Gerber Fmt 4.6, Leading zero omitted, Abs format (unit mm)*
G04 Created by KiCad (PCBNEW (6.0.6)) date 2022-11-20 10:14:25*
%MOMM*%
%LPD*%
G01*
G04 APERTURE LIST*
%TA.AperFunction,ConnectorPad*%
%ADD10R,7.620000X1.780000*%
%TD*%
%TA.AperFunction,ComponentPad*%
%ADD11R,1.700000X1.700000*%
%TD*%
%TA.AperFunction,ComponentPad*%
%ADD12O,1.700000X1.700000*%
%TD*%
%TA.AperFunction,ViaPad*%
%ADD13C,0.800000*%
%TD*%
%TA.AperFunction,Conductor*%
%ADD14C,0.250000*%
%TD*%
G04 APERTURE END LIST*
D10*
%TO.P,J2,1,Pin_1*%
%TO.N,+5V*%
X165452500Y-111340000D03*
%TO.P,J2,3,Pin_3*%
%TO.N,~{IO_RESET}*%
X165452500Y-108800000D03*
%TO.P,J2,5,Pin_5*%
%TO.N,IO_A5*%
X165452500Y-106260000D03*
%TO.P,J2,7,Pin_7*%
%TO.N,IO_A4*%
X165452500Y-103720000D03*
%TO.P,J2,9,Pin_9*%
%TO.N,IO_DBIN*%
X165452500Y-101180000D03*
%TO.P,J2,11,Pin_11*%
%TO.N,IO_A12*%
X165452500Y-98640000D03*
%TO.P,J2,13,Pin_13*%
%TO.N,~{IO_LOAD}*%
X165452500Y-96100000D03*
%TO.P,J2,15,Pin_15*%
%TO.N,IO_A13*%
X165452500Y-93560000D03*
%TO.P,J2,17,Pin_17*%
%TO.N,IO_A7*%
X165452500Y-91020000D03*
%TO.P,J2,19,Pin_19*%
%TO.N,IO_A15-CRUOUT*%
X165452500Y-88480000D03*
%TO.P,J2,21,Pin_21*%
%TO.N,GND*%
X165452500Y-85940000D03*
%TO.P,J2,23,Pin_23*%
X165452500Y-83400000D03*
%TO.P,J2,25,Pin_25*%
X165452500Y-80860000D03*
%TO.P,J2,27,Pin_27*%
X165452500Y-78320000D03*
%TO.P,J2,29,Pin_29*%
%TO.N,IO_A6*%
X165452500Y-75780000D03*
%TO.P,J2,31,Pin_31*%
%TO.N,IO_A0*%
X165452500Y-73240000D03*
%TO.P,J2,33,Pin_33*%
%TO.N,IO_CRUIN*%
X165452500Y-70700000D03*
%TO.P,J2,35,Pin_35*%
%TO.N,D4*%
X165452500Y-68160000D03*
%TO.P,J2,37,Pin_37*%
%TO.N,D0*%
X165452500Y-65620000D03*
%TO.P,J2,39,Pin_39*%
%TO.N,D2*%
X165452500Y-63080000D03*
%TO.P,J2,41,Pin_41*%
%TO.N,HOLD{slash}IAQ*%
X165452500Y-60540000D03*
%TO.P,J2,43,Pin_43*%
%TO.N,-5V*%
X165452500Y-58000000D03*
%TD*%
D11*
%TO.P,J1,1,Pin_1*%
%TO.N,+5V*%
X97800000Y-85500000D03*
D12*
%TO.P,J1,2,Pin_2*%
%TO.N,SBE*%
X97800000Y-82960000D03*
%TO.P,J1,3,Pin_3*%
%TO.N,~{IO_RESET}*%
X100340000Y-85500000D03*
%TO.P,J1,4,Pin_4*%
%TO.N,~{IO_EXT_INT}*%
X100340000Y-82960000D03*
%TO.P,J1,5,Pin_5*%
%TO.N,IO_A5*%
X102880000Y-85500000D03*
%TO.P,J1,6,Pin_6*%
%TO.N,IO_A10*%
X102880000Y-82960000D03*
%TO.P,J1,7,Pin_7*%
%TO.N,IO_A4*%
X105420000Y-85500000D03*
%TO.P,J1,8,Pin_8*%
%TO.N,IO_A11*%
X105420000Y-82960000D03*
%TO.P,J1,9,Pin_9*%
%TO.N,IO_DBIN*%
X107960000Y-85500000D03*
%TO.P,J1,10,Pin_10*%
%TO.N,IO_A3*%
X107960000Y-82960000D03*
%TO.P,J1,11,Pin_11*%
%TO.N,IO_A12*%
X110500000Y-85500000D03*
%TO.P,J1,12,Pin_12*%
%TO.N,READY_~{HOLD}*%
X110500000Y-82960000D03*
%TO.P,J1,13,Pin_13*%
%TO.N,~{IO_LOAD}*%
X113040000Y-85500000D03*
%TO.P,J1,14,Pin_14*%
%TO.N,IO_A8*%
X113040000Y-82960000D03*
%TO.P,J1,15,Pin_15*%
%TO.N,IO_A13*%
X115580000Y-85500000D03*
%TO.P,J1,16,Pin_16*%
%TO.N,IO_A14*%
X115580000Y-82960000D03*
%TO.P,J1,17,Pin_17*%
%TO.N,IO_A7*%
X118120000Y-85500000D03*
%TO.P,J1,18,Pin_18*%
%TO.N,IO_A9*%
X118120000Y-82960000D03*
%TO.P,J1,19,Pin_19*%
%TO.N,IO_A15-CRUOUT*%
X120660000Y-85500000D03*
%TO.P,J1,20,Pin_20*%
%TO.N,IO_A2*%
X120660000Y-82960000D03*
%TO.P,J1,21,Pin_21*%
%TO.N,GND*%
X123200000Y-85500000D03*
%TO.P,J1,22,Pin_22*%
%TO.N,~{IO_CRUCLK}*%
X123200000Y-82960000D03*
%TO.P,J1,23,Pin_23*%
%TO.N,GND*%
X125740000Y-85500000D03*
%TO.P,J1,24,Pin_24*%
%TO.N,IO_\u00D83*%
X125740000Y-82960000D03*
%TO.P,J1,25,Pin_25*%
%TO.N,GND*%
X128280000Y-85500000D03*
%TO.P,J1,26,Pin_26*%
%TO.N,~{IO_WE}*%
X128280000Y-82960000D03*
%TO.P,J1,27,Pin_27*%
%TO.N,GND*%
X130820000Y-85500000D03*
%TO.P,J1,28,Pin_28*%
%TO.N,~{IO_MBE}*%
X130820000Y-82960000D03*
%TO.P,J1,29,Pin_29*%
%TO.N,IO_A6*%
X133360000Y-85500000D03*
%TO.P,J1,30,Pin_30*%
%TO.N,IO_A1*%
X133360000Y-82960000D03*
%TO.P,J1,31,Pin_31*%
%TO.N,IO_A0*%
X135900000Y-85500000D03*
%TO.P,J1,32,Pin_32*%
%TO.N,~{MEMEN}*%
X135900000Y-82960000D03*
%TO.P,J1,33,Pin_33*%
%TO.N,IO_CRUIN*%
X138440000Y-85500000D03*
%TO.P,J1,34,Pin_34*%
%TO.N,D7*%
X138440000Y-82960000D03*
%TO.P,J1,35,Pin_35*%
%TO.N,D4*%
X140980000Y-85500000D03*
%TO.P,J1,36,Pin_36*%
%TO.N,D6*%
X140980000Y-82960000D03*
%TO.P,J1,37,Pin_37*%
%TO.N,D0*%
X143520000Y-85500000D03*
%TO.P,J1,38,Pin_38*%
%TO.N,D5*%
X143520000Y-82960000D03*
%TO.P,J1,39,Pin_39*%
%TO.N,D2*%
X146060000Y-85500000D03*
%TO.P,J1,40,Pin_40*%
%TO.N,D1*%
X146060000Y-82960000D03*
%TO.P,J1,41,Pin_41*%
%TO.N,HOLD{slash}IAQ*%
X148600000Y-85500000D03*
%TO.P,J1,42,Pin_42*%
%TO.N,D3*%
X148600000Y-82960000D03*
%TO.P,J1,43,Pin_43*%
%TO.N,-5V*%
X151140000Y-85500000D03*
%TO.P,J1,44,Pin_44*%
%TO.N,IO_SNDIN*%
X151140000Y-82960000D03*
%TD*%
D13*
%TO.N,IO_SNDIN*%
X160496500Y-59485600D03*
%TO.N,D3*%
X158737500Y-60191000D03*
%TO.N,D1*%
X155068300Y-63914100D03*
%TO.N,D5*%
X149513600Y-67860600D03*
%TO.N,D6*%
X148202100Y-68807100D03*
%TO.N,D7*%
X143010600Y-76526500D03*
%TO.N,IO_A1*%
X146696700Y-74992700D03*
%TD*%
D14*
%TO.N,IO_SNDIN*%
X151140000Y-82960000D02*
X151140000Y-81784700D01*
X156243900Y-63738200D02*
X160496500Y-59485600D01*
X156243900Y-64401200D02*
X156243900Y-63738200D01*
X152040300Y-68604800D02*
X156243900Y-64401200D01*
X152040300Y-80884400D02*
X152040300Y-68604800D01*
X151140000Y-81784700D02*
X152040300Y-80884400D01*
%TO.N,-5V*%
X165452500Y-58000000D02*
X161317200Y-58000000D01*
X151140000Y-85500000D02*
X151140000Y-84324700D01*
X161317200Y-59690700D02*
X161317200Y-58000000D01*
X156694200Y-64313700D02*
X161317200Y-59690700D01*
X156694200Y-64587800D02*
X156694200Y-64313700D01*
X155075100Y-66206900D02*
X156694200Y-64587800D01*
X155075100Y-80756900D02*
X155075100Y-66206900D01*
X151507300Y-84324700D02*
X155075100Y-80756900D01*
X151140000Y-84324700D02*
X151507300Y-84324700D01*
%TO.N,D3*%
X148600000Y-82960000D02*
X148600000Y-81784700D01*
X155793600Y-63134900D02*
X158737500Y-60191000D01*
X155793600Y-64214600D02*
X155793600Y-63134900D01*
X151590000Y-68418200D02*
X155793600Y-64214600D01*
X151590000Y-78794700D02*
X151590000Y-68418200D01*
X148600000Y-81784700D02*
X151590000Y-78794700D01*
%TO.N,HOLD{slash}IAQ*%
X165452500Y-60540000D02*
X161317200Y-60540000D01*
X148600000Y-85500000D02*
X149775300Y-85500000D01*
X161317200Y-60601700D02*
X161317200Y-60540000D01*
X155866900Y-66052000D02*
X161317200Y-60601700D01*
X155866900Y-82440700D02*
X155866900Y-66052000D01*
X151632300Y-86675300D02*
X155866900Y-82440700D01*
X150583200Y-86675300D02*
X151632300Y-86675300D01*
X149775300Y-85867400D02*
X150583200Y-86675300D01*
X149775300Y-85500000D02*
X149775300Y-85867400D01*
%TO.N,D1*%
X149964000Y-69018400D02*
X155068300Y-63914100D01*
X149964000Y-77880700D02*
X149964000Y-69018400D01*
X146060000Y-81784700D02*
X149964000Y-77880700D01*
X146060000Y-82960000D02*
X146060000Y-81784700D01*
%TO.N,D2*%
X146060000Y-85500000D02*
X147235300Y-85500000D01*
X165452500Y-63080000D02*
X161317200Y-63080000D01*
X156426000Y-67971200D02*
X161317200Y-63080000D01*
X156426000Y-82545000D02*
X156426000Y-67971200D01*
X151830600Y-87140400D02*
X156426000Y-82545000D01*
X148508400Y-87140400D02*
X151830600Y-87140400D01*
X147235300Y-85867300D02*
X148508400Y-87140400D01*
X147235300Y-85500000D02*
X147235300Y-85867300D01*
%TO.N,D5*%
X143520000Y-82960000D02*
X143520000Y-81784700D01*
X149513600Y-75791100D02*
X143520000Y-81784700D01*
X149513600Y-67860600D02*
X149513600Y-75791100D01*
%TO.N,D0*%
X143520000Y-85500000D02*
X144695300Y-85500000D01*
X165452500Y-65620000D02*
X161317200Y-65620000D01*
X159065700Y-67871500D02*
X161317200Y-65620000D01*
X159065700Y-80542200D02*
X159065700Y-67871500D01*
X152002300Y-87605600D02*
X159065700Y-80542200D01*
X146433500Y-87605600D02*
X152002300Y-87605600D01*
X144695300Y-85867400D02*
X146433500Y-87605600D01*
X144695300Y-85500000D02*
X144695300Y-85867400D01*
%TO.N,D6*%
X140980000Y-82960000D02*
X140980000Y-81784700D01*
X148202100Y-74562600D02*
X140980000Y-81784700D01*
X148202100Y-68807100D02*
X148202100Y-74562600D01*
%TO.N,D4*%
X140980000Y-85500000D02*
X142155300Y-85500000D01*
X165452500Y-68160000D02*
X161317200Y-68160000D01*
X159516100Y-69961100D02*
X161317200Y-68160000D01*
X159516100Y-80759500D02*
X159516100Y-69961100D01*
X152194700Y-88080900D02*
X159516100Y-80759500D01*
X144414700Y-88080900D02*
X152194700Y-88080900D01*
X142155300Y-85821500D02*
X144414700Y-88080900D01*
X142155300Y-85500000D02*
X142155300Y-85821500D01*
%TO.N,D7*%
X138440000Y-82960000D02*
X138440000Y-81784700D01*
X143010600Y-77214100D02*
X143010600Y-76526500D01*
X138440000Y-81784700D02*
X143010600Y-77214100D01*
%TO.N,IO_CRUIN*%
X138440000Y-85500000D02*
X139615300Y-85500000D01*
X165452500Y-70700000D02*
X161317200Y-70700000D01*
X160078900Y-71938300D02*
X161317200Y-70700000D01*
X160078900Y-80833600D02*
X160078900Y-71938300D01*
X152381300Y-88531200D02*
X160078900Y-80833600D01*
X142279100Y-88531200D02*
X152381300Y-88531200D01*
X139615300Y-85867400D02*
X142279100Y-88531200D01*
X139615300Y-85500000D02*
X139615300Y-85867400D01*
%TO.N,IO_A0*%
X165452500Y-73240000D02*
X161317200Y-73240000D01*
X135900000Y-85500000D02*
X137075300Y-85500000D01*
X160529200Y-74028000D02*
X161317200Y-73240000D01*
X160529200Y-81020200D02*
X160529200Y-74028000D01*
X152567900Y-88981500D02*
X160529200Y-81020200D01*
X140189500Y-88981500D02*
X152567900Y-88981500D01*
X137075300Y-85867300D02*
X140189500Y-88981500D01*
X137075300Y-85500000D02*
X137075300Y-85867300D01*
%TO.N,IO_A1*%
X133360000Y-82960000D02*
X134535300Y-82960000D01*
X134535300Y-82592700D02*
X134535300Y-82960000D01*
X142135300Y-74992700D02*
X134535300Y-82592700D01*
X146696700Y-74992700D02*
X142135300Y-74992700D01*
%TO.N,IO_A6*%
X133360000Y-85500000D02*
X134535300Y-85500000D01*
X165452500Y-75780000D02*
X161317200Y-75780000D01*
X161317200Y-80869100D02*
X161317200Y-75780000D01*
X152754500Y-89431800D02*
X161317200Y-80869100D01*
X138099800Y-89431800D02*
X152754500Y-89431800D01*
X134535300Y-85867300D02*
X138099800Y-89431800D01*
X134535300Y-85500000D02*
X134535300Y-85867300D01*
%TO.N,GND*%
X125740000Y-85500000D02*
X123200000Y-85500000D01*
X165452500Y-78320000D02*
X165452500Y-80860000D01*
X165452500Y-83400000D02*
X163384900Y-83400000D01*
X163092300Y-83692600D02*
X163092300Y-85940000D01*
X163384900Y-83400000D02*
X163092300Y-83692600D01*
X165452500Y-85940000D02*
X163092300Y-85940000D01*
X163384900Y-83400000D02*
X161429800Y-83400000D01*
X163969800Y-80860000D02*
X165452500Y-80860000D01*
X161429800Y-83400000D02*
X163969800Y-80860000D01*
X130820000Y-85500000D02*
X131995300Y-85500000D01*
X154947700Y-89882100D02*
X161429800Y-83400000D01*
X136010000Y-89882100D02*
X154947700Y-89882100D01*
X131995300Y-85867400D02*
X136010000Y-89882100D01*
X131995300Y-85500000D02*
X131995300Y-85867400D01*
%TO.N,IO_A15-CRUOUT*%
X120660000Y-85500000D02*
X121835300Y-85500000D01*
X165452500Y-88480000D02*
X161317200Y-88480000D01*
X159464800Y-90332400D02*
X161317200Y-88480000D01*
X126300400Y-90332400D02*
X159464800Y-90332400D01*
X121835300Y-85867300D02*
X126300400Y-90332400D01*
X121835300Y-85500000D02*
X121835300Y-85867300D01*
%TO.N,IO_A7*%
X124448000Y-91020000D02*
X165452500Y-91020000D01*
X119295300Y-85867300D02*
X124448000Y-91020000D01*
X119295300Y-85500000D02*
X119295300Y-85867300D01*
X118120000Y-85500000D02*
X119295300Y-85500000D01*
%TO.N,IO_A13*%
X124448000Y-93560000D02*
X165452500Y-93560000D01*
X116755300Y-85867300D02*
X124448000Y-93560000D01*
X116755300Y-85500000D02*
X116755300Y-85867300D01*
X115580000Y-85500000D02*
X116755300Y-85500000D01*
%TO.N,~{IO_LOAD}*%
X124448000Y-96100000D02*
X165452500Y-96100000D01*
X114215300Y-85867300D02*
X124448000Y-96100000D01*
X114215300Y-85500000D02*
X114215300Y-85867300D01*
X113040000Y-85500000D02*
X114215300Y-85500000D01*
%TO.N,IO_A12*%
X124448000Y-98640000D02*
X165452500Y-98640000D01*
X111675300Y-85867300D02*
X124448000Y-98640000D01*
X111675300Y-85500000D02*
X111675300Y-85867300D01*
X110500000Y-85500000D02*
X111675300Y-85500000D01*
%TO.N,IO_DBIN*%
X124448000Y-101180000D02*
X165452500Y-101180000D01*
X109135300Y-85867300D02*
X124448000Y-101180000D01*
X109135300Y-85500000D02*
X109135300Y-85867300D01*
X107960000Y-85500000D02*
X109135300Y-85500000D01*
%TO.N,IO_A4*%
X148750000Y-103720000D02*
X165452500Y-103720000D01*
X147325200Y-105144800D02*
X148750000Y-103720000D01*
X125872800Y-105144800D02*
X147325200Y-105144800D01*
X106595300Y-85867300D02*
X125872800Y-105144800D01*
X106595300Y-85500000D02*
X106595300Y-85867300D01*
X105420000Y-85500000D02*
X106595300Y-85500000D01*
%TO.N,IO_A5*%
X124448000Y-106260000D02*
X165452500Y-106260000D01*
X104055300Y-85867300D02*
X124448000Y-106260000D01*
X104055300Y-85500000D02*
X104055300Y-85867300D01*
X102880000Y-85500000D02*
X104055300Y-85500000D01*
%TO.N,~{IO_RESET}*%
X124448000Y-108800000D02*
X165452500Y-108800000D01*
X101515300Y-85867300D02*
X124448000Y-108800000D01*
X101515300Y-85500000D02*
X101515300Y-85867300D01*
X100340000Y-85500000D02*
X101515300Y-85500000D01*
%TO.N,+5V*%
X124448000Y-111340000D02*
X165452500Y-111340000D01*
X98975300Y-85867300D02*
X124448000Y-111340000D01*
X98975300Y-85500000D02*
X98975300Y-85867300D01*
X97800000Y-85500000D02*
X98975300Y-85500000D01*
%TD*%
%TA.AperFunction,Conductor*%
%TO.N,GND*%
G36*
X131016121Y-85266002D02*
G01*
X131062614Y-85319658D01*
X131074000Y-85372000D01*
X131074000Y-86818517D01*
X131078064Y-86832359D01*
X131091478Y-86834393D01*
X131098184Y-86833534D01*
X131108262Y-86831392D01*
X131312255Y-86770191D01*
X131321842Y-86766433D01*
X131513095Y-86672739D01*
X131521945Y-86667464D01*
X131695328Y-86543792D01*
X131703200Y-86537139D01*
X131854052Y-86386812D01*
X131860730Y-86378965D01*
X131988022Y-86201819D01*
X131989279Y-86202722D01*
X132036373Y-86159362D01*
X132106311Y-86147145D01*
X132171751Y-86174678D01*
X132199579Y-86206511D01*
X132259987Y-86305088D01*
X132406250Y-86473938D01*
X132578126Y-86616632D01*
X132771000Y-86729338D01*
X132979692Y-86809030D01*
X132984760Y-86810061D01*
X132984763Y-86810062D01*
X133079862Y-86829410D01*
X133198597Y-86853567D01*
X133203772Y-86853757D01*
X133203774Y-86853757D01*
X133416673Y-86861564D01*
X133416677Y-86861564D01*
X133421837Y-86861753D01*
X133426957Y-86861097D01*
X133426959Y-86861097D01*
X133638288Y-86834025D01*
X133638289Y-86834025D01*
X133643416Y-86833368D01*
X133648366Y-86831883D01*
X133852429Y-86770661D01*
X133852434Y-86770659D01*
X133857384Y-86769174D01*
X134057994Y-86670896D01*
X134134070Y-86616632D01*
X134195869Y-86572552D01*
X134262943Y-86549278D01*
X134331951Y-86565962D01*
X134358132Y-86586036D01*
X137255901Y-89483805D01*
X137289927Y-89546117D01*
X137284862Y-89616932D01*
X137242315Y-89673768D01*
X137175795Y-89698579D01*
X137166806Y-89698900D01*
X126614994Y-89698900D01*
X126546873Y-89678898D01*
X126525899Y-89661995D01*
X123778526Y-86914621D01*
X123744500Y-86852309D01*
X123749565Y-86781493D01*
X123792112Y-86724658D01*
X123812189Y-86712375D01*
X123893090Y-86672742D01*
X123901945Y-86667464D01*
X124075328Y-86543792D01*
X124083200Y-86537139D01*
X124234052Y-86386812D01*
X124240730Y-86378965D01*
X124368022Y-86201819D01*
X124369147Y-86202627D01*
X124416669Y-86158876D01*
X124486607Y-86146661D01*
X124552046Y-86174197D01*
X124579870Y-86206028D01*
X124637690Y-86300383D01*
X124643777Y-86308699D01*
X124783213Y-86469667D01*
X124790580Y-86476883D01*
X124954434Y-86612916D01*
X124962881Y-86618831D01*
X125146756Y-86726279D01*
X125156042Y-86730729D01*
X125355001Y-86806703D01*
X125364899Y-86809579D01*
X125468250Y-86830606D01*
X125482299Y-86829410D01*
X125486000Y-86819065D01*
X125486000Y-86818517D01*
X125994000Y-86818517D01*
X125998064Y-86832359D01*
X126011478Y-86834393D01*
X126018184Y-86833534D01*
X126028262Y-86831392D01*
X126232255Y-86770191D01*
X126241842Y-86766433D01*
X126433095Y-86672739D01*
X126441945Y-86667464D01*
X126615328Y-86543792D01*
X126623200Y-86537139D01*
X126774052Y-86386812D01*
X126780730Y-86378965D01*
X126908022Y-86201819D01*
X126909147Y-86202627D01*
X126956669Y-86158876D01*
X127026607Y-86146661D01*
X127092046Y-86174197D01*
X127119870Y-86206028D01*
X127177690Y-86300383D01*
X127183777Y-86308699D01*
X127323213Y-86469667D01*
X127330580Y-86476883D01*
X127494434Y-86612916D01*
X127502881Y-86618831D01*
X127686756Y-86726279D01*
X127696042Y-86730729D01*
X127895001Y-86806703D01*
X127904899Y-86809579D01*
X128008250Y-86830606D01*
X128022299Y-86829410D01*
X128026000Y-86819065D01*
X128026000Y-86818517D01*
X128534000Y-86818517D01*
X128538064Y-86832359D01*
X128551478Y-86834393D01*
X128558184Y-86833534D01*
X128568262Y-86831392D01*
X128772255Y-86770191D01*
X128781842Y-86766433D01*
X128973095Y-86672739D01*
X128981945Y-86667464D01*
X129155328Y-86543792D01*
X129163200Y-86537139D01*
X129314052Y-86386812D01*
X129320730Y-86378965D01*
X129448022Y-86201819D01*
X129449147Y-86202627D01*
X129496669Y-86158876D01*
X129566607Y-86146661D01*
X129632046Y-86174197D01*
X129659870Y-86206028D01*
X129717690Y-86300383D01*
X129723777Y-86308699D01*
X129863213Y-86469667D01*
X129870580Y-86476883D01*
X130034434Y-86612916D01*
X130042881Y-86618831D01*
X130226756Y-86726279D01*
X130236042Y-86730729D01*
X130435001Y-86806703D01*
X130444899Y-86809579D01*
X130548250Y-86830606D01*
X130562299Y-86829410D01*
X130566000Y-86819065D01*
X130566000Y-85772115D01*
X130561525Y-85756876D01*
X130560135Y-85755671D01*
X130552452Y-85754000D01*
X128552115Y-85754000D01*
X128536876Y-85758475D01*
X128535671Y-85759865D01*
X128534000Y-85767548D01*
X128534000Y-86818517D01*
X128026000Y-86818517D01*
X128026000Y-85772115D01*
X128021525Y-85756876D01*
X128020135Y-85755671D01*
X128012452Y-85754000D01*
X126012115Y-85754000D01*
X125996876Y-85758475D01*
X125995671Y-85759865D01*
X125994000Y-85767548D01*
X125994000Y-86818517D01*
X125486000Y-86818517D01*
X125486000Y-85772115D01*
X125481525Y-85756876D01*
X125480135Y-85755671D01*
X125472452Y-85754000D01*
X123072000Y-85754000D01*
X123003879Y-85733998D01*
X122957386Y-85680342D01*
X122946000Y-85628000D01*
X122946000Y-85372000D01*
X122966002Y-85303879D01*
X123019658Y-85257386D01*
X123072000Y-85246000D01*
X130948000Y-85246000D01*
X131016121Y-85266002D01*
G37*
%TD.AperFunction*%
%TD*%
M02*
