M48
; DRILL file {KiCad (6.0.6)} date Sun Nov 20 10:14:23 2022
; FORMAT={-:-/ absolute / inch / decimal}
; #@! TF.CreationDate,2022-11-20T10:14:23-06:00
; #@! TF.GenerationSoftware,Kicad,Pcbnew,(6.0.6)
; #@! TF.FileFunction,Plated,1,2,PTH
FMAT,2
INCH
; #@! TA.AperFunction,Plated,PTH,ViaDrill
T1C0.0157
; #@! TA.AperFunction,Plated,PTH,ComponentDrill
T2C0.0394
%
G90
G05
T1
X5.6303Y-3.0129
X5.7755Y-2.9525
X5.8347Y-2.7089
X5.8864Y-2.6717
X6.1051Y-2.5163
X6.2495Y-2.3697
X6.3188Y-2.342
T2
X3.8504Y-3.2661
X3.8504Y-3.3661
X3.9504Y-3.2661
X3.9504Y-3.3661
X4.0504Y-3.2661
X4.0504Y-3.3661
X4.1504Y-3.2661
X4.1504Y-3.3661
X4.2504Y-3.2661
X4.2504Y-3.3661
X4.3504Y-3.2661
X4.3504Y-3.3661
X4.4504Y-3.2661
X4.4504Y-3.3661
X4.5504Y-3.2661
X4.5504Y-3.3661
X4.6504Y-3.2661
X4.6504Y-3.3661
X4.7504Y-3.2661
X4.7504Y-3.3661
X4.8504Y-3.2661
X4.8504Y-3.3661
X4.9504Y-3.2661
X4.9504Y-3.3661
X5.0504Y-3.2661
X5.0504Y-3.3661
X5.1504Y-3.2661
X5.1504Y-3.3661
X5.2504Y-3.2661
X5.2504Y-3.3661
X5.3504Y-3.2661
X5.3504Y-3.3661
X5.4504Y-3.2661
X5.4504Y-3.3661
X5.5504Y-3.2661
X5.5504Y-3.3661
X5.6504Y-3.2661
X5.6504Y-3.3661
X5.7504Y-3.2661
X5.7504Y-3.3661
X5.8504Y-3.2661
X5.8504Y-3.3661
X5.9504Y-3.2661
X5.9504Y-3.3661
T0
M30
