%TF.GenerationSoftware,KiCad,Pcbnew,(6.0.6)*%
%TF.CreationDate,2022-10-25T12:39:07-05:00*%
%TF.ProjectId,IO_Riser,494f5f52-6973-4657-922e-6b696361645f,V0.8*%
%TF.SameCoordinates,Original*%
%TF.FileFunction,Copper,L1,Top*%
%TF.FilePolarity,Positive*%
%FSLAX46Y46*%
G04 Gerber Fmt 4.6, Leading zero omitted, Abs format (unit mm)*
G04 Created by KiCad (PCBNEW (6.0.6)) date 2022-10-25 12:39:07*
%MOMM*%
%LPD*%
G01*
G04 APERTURE LIST*
%TA.AperFunction,ComponentPad*%
%ADD10R,1.700000X1.700000*%
%TD*%
%TA.AperFunction,ComponentPad*%
%ADD11O,1.700000X1.700000*%
%TD*%
%TA.AperFunction,Conductor*%
%ADD12C,0.250000*%
%TD*%
%TA.AperFunction,Conductor*%
%ADD13C,1.000000*%
%TD*%
G04 APERTURE END LIST*
D10*
%TO.P,J2,1,Pin_1*%
%TO.N,+5V*%
X151825000Y-58455000D03*
D11*
%TO.P,J2,2,Pin_2*%
%TO.N,SBE*%
X156825000Y-58455000D03*
%TO.P,J2,3,Pin_3*%
%TO.N,~{IO_RESET}*%
X151825000Y-60995000D03*
%TO.P,J2,4,Pin_4*%
%TO.N,~{IO_EXT_INT}*%
X156825000Y-60995000D03*
%TO.P,J2,5,Pin_5*%
%TO.N,IO_A5*%
X151825000Y-63535000D03*
%TO.P,J2,6,Pin_6*%
%TO.N,IO_A10*%
X156825000Y-63535000D03*
%TO.P,J2,7,Pin_7*%
%TO.N,IO_A4*%
X151825000Y-66075000D03*
%TO.P,J2,8,Pin_8*%
%TO.N,IO_A11*%
X156825000Y-66075000D03*
%TO.P,J2,9,Pin_9*%
%TO.N,IO_DBIN*%
X151825000Y-68615000D03*
%TO.P,J2,10,Pin_10*%
%TO.N,IO_A3*%
X156825000Y-68615000D03*
%TO.P,J2,11,Pin_11*%
%TO.N,IO_A12*%
X151825000Y-71155000D03*
%TO.P,J2,12,Pin_12*%
%TO.N,READY_~{HOLD}*%
X156825000Y-71155000D03*
%TO.P,J2,13,Pin_13*%
%TO.N,~{IO_LOAD}*%
X151825000Y-73695000D03*
%TO.P,J2,14,Pin_14*%
%TO.N,IO_A8*%
X156825000Y-73695000D03*
%TO.P,J2,15,Pin_15*%
%TO.N,IO_A13*%
X151825000Y-76235000D03*
%TO.P,J2,16,Pin_16*%
%TO.N,IO_A14*%
X156825000Y-76235000D03*
%TO.P,J2,17,Pin_17*%
%TO.N,IO_A7*%
X151825000Y-78775000D03*
%TO.P,J2,18,Pin_18*%
%TO.N,IO_A9*%
X156825000Y-78775000D03*
%TO.P,J2,19,Pin_19*%
%TO.N,IO_A15-CRUOUT*%
X151825000Y-81315000D03*
%TO.P,J2,20,Pin_20*%
%TO.N,IO_A2*%
X156825000Y-81315000D03*
%TO.P,J2,21,Pin_21*%
%TO.N,GND*%
X151825000Y-83855000D03*
%TO.P,J2,22,Pin_22*%
%TO.N,~{IO_CRUCLK}*%
X156825000Y-83855000D03*
%TO.P,J2,23,Pin_23*%
%TO.N,GND*%
X151825000Y-86395000D03*
%TO.P,J2,24,Pin_24*%
%TO.N,IO_\u00D83*%
X156825000Y-86395000D03*
%TO.P,J2,25,Pin_25*%
%TO.N,GND*%
X151825000Y-88935000D03*
%TO.P,J2,26,Pin_26*%
%TO.N,~{IO_WE}*%
X156825000Y-88935000D03*
%TO.P,J2,27,Pin_27*%
%TO.N,GND*%
X151825000Y-91475000D03*
%TO.P,J2,28,Pin_28*%
%TO.N,~{IO_MBE}*%
X156825000Y-91475000D03*
%TO.P,J2,29,Pin_29*%
%TO.N,IO_A6*%
X151825000Y-94015000D03*
%TO.P,J2,30,Pin_30*%
%TO.N,IO_A1*%
X156825000Y-94015000D03*
%TO.P,J2,31,Pin_31*%
%TO.N,IO_A0*%
X151825000Y-96555000D03*
%TO.P,J2,32,Pin_32*%
%TO.N,~{MEMEN}*%
X156825000Y-96555000D03*
%TO.P,J2,33,Pin_33*%
%TO.N,IO_CRUIN*%
X151825000Y-99095000D03*
%TO.P,J2,34,Pin_34*%
%TO.N,D7*%
X156825000Y-99095000D03*
%TO.P,J2,35,Pin_35*%
%TO.N,D4*%
X151825000Y-101635000D03*
%TO.P,J2,36,Pin_36*%
%TO.N,D6*%
X156825000Y-101635000D03*
%TO.P,J2,37,Pin_37*%
%TO.N,D0*%
X151905000Y-104175000D03*
%TO.P,J2,38,Pin_38*%
%TO.N,D5*%
X156905000Y-104175000D03*
%TO.P,J2,39,Pin_39*%
%TO.N,D2*%
X151905000Y-106715000D03*
%TO.P,J2,40,Pin_40*%
%TO.N,D1*%
X156905000Y-106715000D03*
%TO.P,J2,41,Pin_41*%
%TO.N,HOLD{slash}IAQ*%
X151905000Y-109255000D03*
%TO.P,J2,42,Pin_42*%
%TO.N,D3*%
X156905000Y-109255000D03*
%TO.P,J2,43,Pin_43*%
%TO.N,-5V*%
X151905000Y-111795000D03*
%TO.P,J2,44,Pin_44*%
%TO.N,IO_SNDIN*%
X156905000Y-111795000D03*
%TD*%
D10*
%TO.P,J1,1,Pin_1*%
%TO.N,+5V*%
X145975000Y-58425000D03*
D11*
%TO.P,J1,2,Pin_2*%
%TO.N,SBE*%
X143435000Y-58425000D03*
%TO.P,J1,3,Pin_3*%
%TO.N,~{IO_RESET}*%
X145975000Y-60965000D03*
%TO.P,J1,4,Pin_4*%
%TO.N,~{IO_EXT_INT}*%
X143435000Y-60965000D03*
%TO.P,J1,5,Pin_5*%
%TO.N,IO_A5*%
X145975000Y-63505000D03*
%TO.P,J1,6,Pin_6*%
%TO.N,IO_A10*%
X143435000Y-63505000D03*
%TO.P,J1,7,Pin_7*%
%TO.N,IO_A4*%
X145975000Y-66045000D03*
%TO.P,J1,8,Pin_8*%
%TO.N,IO_A11*%
X143435000Y-66045000D03*
%TO.P,J1,9,Pin_9*%
%TO.N,IO_DBIN*%
X145975000Y-68585000D03*
%TO.P,J1,10,Pin_10*%
%TO.N,IO_A3*%
X143435000Y-68585000D03*
%TO.P,J1,11,Pin_11*%
%TO.N,IO_A12*%
X145975000Y-71125000D03*
%TO.P,J1,12,Pin_12*%
%TO.N,READY_~{HOLD}*%
X143435000Y-71125000D03*
%TO.P,J1,13,Pin_13*%
%TO.N,~{IO_LOAD}*%
X145975000Y-73665000D03*
%TO.P,J1,14,Pin_14*%
%TO.N,IO_A8*%
X143435000Y-73665000D03*
%TO.P,J1,15,Pin_15*%
%TO.N,IO_A13*%
X145975000Y-76205000D03*
%TO.P,J1,16,Pin_16*%
%TO.N,IO_A14*%
X143435000Y-76205000D03*
%TO.P,J1,17,Pin_17*%
%TO.N,IO_A7*%
X145975000Y-78745000D03*
%TO.P,J1,18,Pin_18*%
%TO.N,IO_A9*%
X143435000Y-78745000D03*
%TO.P,J1,19,Pin_19*%
%TO.N,IO_A15-CRUOUT*%
X145975000Y-81285000D03*
%TO.P,J1,20,Pin_20*%
%TO.N,IO_A2*%
X143435000Y-81285000D03*
%TO.P,J1,21,Pin_21*%
%TO.N,GND*%
X145975000Y-83825000D03*
%TO.P,J1,22,Pin_22*%
%TO.N,~{IO_CRUCLK}*%
X143435000Y-83825000D03*
%TO.P,J1,23,Pin_23*%
%TO.N,GND*%
X145975000Y-86365000D03*
%TO.P,J1,24,Pin_24*%
%TO.N,IO_\u00D83*%
X143435000Y-86365000D03*
%TO.P,J1,25,Pin_25*%
%TO.N,GND*%
X145975000Y-88905000D03*
%TO.P,J1,26,Pin_26*%
%TO.N,~{IO_WE}*%
X143435000Y-88905000D03*
%TO.P,J1,27,Pin_27*%
%TO.N,GND*%
X145975000Y-91445000D03*
%TO.P,J1,28,Pin_28*%
%TO.N,~{IO_MBE}*%
X143435000Y-91445000D03*
%TO.P,J1,29,Pin_29*%
%TO.N,IO_A6*%
X145975000Y-93985000D03*
%TO.P,J1,30,Pin_30*%
%TO.N,IO_A1*%
X143435000Y-93985000D03*
%TO.P,J1,31,Pin_31*%
%TO.N,IO_A0*%
X145975000Y-96525000D03*
%TO.P,J1,32,Pin_32*%
%TO.N,~{MEMEN}*%
X143435000Y-96525000D03*
%TO.P,J1,33,Pin_33*%
%TO.N,IO_CRUIN*%
X145975000Y-99065000D03*
%TO.P,J1,34,Pin_34*%
%TO.N,D7*%
X143435000Y-99065000D03*
%TO.P,J1,35,Pin_35*%
%TO.N,D4*%
X145975000Y-101605000D03*
%TO.P,J1,36,Pin_36*%
%TO.N,D6*%
X143435000Y-101605000D03*
%TO.P,J1,37,Pin_37*%
%TO.N,D0*%
X145975000Y-104145000D03*
%TO.P,J1,38,Pin_38*%
%TO.N,D5*%
X143435000Y-104145000D03*
%TO.P,J1,39,Pin_39*%
%TO.N,D2*%
X145975000Y-106685000D03*
%TO.P,J1,40,Pin_40*%
%TO.N,D1*%
X143435000Y-106685000D03*
%TO.P,J1,41,Pin_41*%
%TO.N,HOLD{slash}IAQ*%
X145975000Y-109225000D03*
%TO.P,J1,42,Pin_42*%
%TO.N,D3*%
X143435000Y-109225000D03*
%TO.P,J1,43,Pin_43*%
%TO.N,-5V*%
X145975000Y-111765000D03*
%TO.P,J1,44,Pin_44*%
%TO.N,IO_SNDIN*%
X143435000Y-111765000D03*
%TD*%
D12*
%TO.N,~{IO_MBE}*%
X154474400Y-92650300D02*
X155649700Y-91475000D01*
X145448300Y-92650300D02*
X154474400Y-92650300D01*
X144610300Y-91812300D02*
X145448300Y-92650300D01*
X144610300Y-91445000D02*
X144610300Y-91812300D01*
X143435000Y-91445000D02*
X144610300Y-91445000D01*
X156825000Y-91475000D02*
X155649700Y-91475000D01*
D13*
%TO.N,GND*%
X145975000Y-88905000D02*
X145975000Y-86365000D01*
X145975000Y-86365000D02*
X145975000Y-83825000D01*
X151825000Y-91475000D02*
X151825000Y-88935000D01*
X151825000Y-88935000D02*
X151825000Y-86395000D01*
X151825000Y-86395000D02*
X151825000Y-83855000D01*
D12*
%TO.N,SBE*%
X154474400Y-59630300D02*
X155649700Y-58455000D01*
X145007600Y-59630300D02*
X154474400Y-59630300D01*
X144610300Y-59233000D02*
X145007600Y-59630300D01*
X144610300Y-58425000D02*
X144610300Y-59233000D01*
X143435000Y-58425000D02*
X144610300Y-58425000D01*
X156825000Y-58455000D02*
X155649700Y-58455000D01*
%TD*%
%TA.AperFunction,Conductor*%
%TO.N,GND*%
G36*
X155769612Y-59335158D02*
G01*
X155820815Y-59370715D01*
X155871250Y-59428938D01*
X156043126Y-59571632D01*
X156065106Y-59584476D01*
X156116445Y-59614476D01*
X156165169Y-59666114D01*
X156178240Y-59735897D01*
X156151509Y-59801669D01*
X156111055Y-59835027D01*
X156098607Y-59841507D01*
X156094474Y-59844610D01*
X156094471Y-59844612D01*
X155924100Y-59972530D01*
X155919965Y-59975635D01*
X155916393Y-59979373D01*
X155769319Y-60133277D01*
X155765629Y-60137138D01*
X155762715Y-60141410D01*
X155762714Y-60141411D01*
X155680985Y-60261222D01*
X155639743Y-60321680D01*
X155545688Y-60524305D01*
X155485989Y-60739570D01*
X155462251Y-60961695D01*
X155462548Y-60966848D01*
X155462548Y-60966851D01*
X155474812Y-61179547D01*
X155475110Y-61184715D01*
X155476247Y-61189761D01*
X155476248Y-61189767D01*
X155489358Y-61247939D01*
X155524222Y-61402639D01*
X155562461Y-61496811D01*
X155597873Y-61584020D01*
X155608266Y-61609616D01*
X155724987Y-61800088D01*
X155871250Y-61968938D01*
X156043126Y-62111632D01*
X156065106Y-62124476D01*
X156116445Y-62154476D01*
X156165169Y-62206114D01*
X156178240Y-62275897D01*
X156151509Y-62341669D01*
X156111055Y-62375027D01*
X156098607Y-62381507D01*
X156094474Y-62384610D01*
X156094471Y-62384612D01*
X155924100Y-62512530D01*
X155919965Y-62515635D01*
X155916393Y-62519373D01*
X155769319Y-62673277D01*
X155765629Y-62677138D01*
X155639743Y-62861680D01*
X155545688Y-63064305D01*
X155485989Y-63279570D01*
X155462251Y-63501695D01*
X155462548Y-63506848D01*
X155462548Y-63506851D01*
X155474812Y-63719547D01*
X155475110Y-63724715D01*
X155476247Y-63729761D01*
X155476248Y-63729767D01*
X155489358Y-63787939D01*
X155524222Y-63942639D01*
X155562461Y-64036811D01*
X155597873Y-64124020D01*
X155608266Y-64149616D01*
X155724987Y-64340088D01*
X155871250Y-64508938D01*
X156043126Y-64651632D01*
X156065106Y-64664476D01*
X156116445Y-64694476D01*
X156165169Y-64746114D01*
X156178240Y-64815897D01*
X156151509Y-64881669D01*
X156111055Y-64915027D01*
X156098607Y-64921507D01*
X156094474Y-64924610D01*
X156094471Y-64924612D01*
X155924100Y-65052530D01*
X155919965Y-65055635D01*
X155916393Y-65059373D01*
X155769319Y-65213277D01*
X155765629Y-65217138D01*
X155639743Y-65401680D01*
X155545688Y-65604305D01*
X155485989Y-65819570D01*
X155462251Y-66041695D01*
X155462548Y-66046848D01*
X155462548Y-66046851D01*
X155474812Y-66259547D01*
X155475110Y-66264715D01*
X155476247Y-66269761D01*
X155476248Y-66269767D01*
X155489358Y-66327939D01*
X155524222Y-66482639D01*
X155562461Y-66576811D01*
X155597873Y-66664020D01*
X155608266Y-66689616D01*
X155724987Y-66880088D01*
X155871250Y-67048938D01*
X156043126Y-67191632D01*
X156065106Y-67204476D01*
X156116445Y-67234476D01*
X156165169Y-67286114D01*
X156178240Y-67355897D01*
X156151509Y-67421669D01*
X156111055Y-67455027D01*
X156098607Y-67461507D01*
X156094474Y-67464610D01*
X156094471Y-67464612D01*
X155924100Y-67592530D01*
X155919965Y-67595635D01*
X155916393Y-67599373D01*
X155769319Y-67753277D01*
X155765629Y-67757138D01*
X155639743Y-67941680D01*
X155545688Y-68144305D01*
X155485989Y-68359570D01*
X155462251Y-68581695D01*
X155462548Y-68586848D01*
X155462548Y-68586851D01*
X155474812Y-68799547D01*
X155475110Y-68804715D01*
X155476247Y-68809761D01*
X155476248Y-68809767D01*
X155489358Y-68867939D01*
X155524222Y-69022639D01*
X155562461Y-69116811D01*
X155597873Y-69204020D01*
X155608266Y-69229616D01*
X155724987Y-69420088D01*
X155871250Y-69588938D01*
X156043126Y-69731632D01*
X156065106Y-69744476D01*
X156116445Y-69774476D01*
X156165169Y-69826114D01*
X156178240Y-69895897D01*
X156151509Y-69961669D01*
X156111055Y-69995027D01*
X156098607Y-70001507D01*
X156094474Y-70004610D01*
X156094471Y-70004612D01*
X155924100Y-70132530D01*
X155919965Y-70135635D01*
X155916393Y-70139373D01*
X155769319Y-70293277D01*
X155765629Y-70297138D01*
X155639743Y-70481680D01*
X155545688Y-70684305D01*
X155485989Y-70899570D01*
X155462251Y-71121695D01*
X155462548Y-71126848D01*
X155462548Y-71126851D01*
X155474812Y-71339547D01*
X155475110Y-71344715D01*
X155476247Y-71349761D01*
X155476248Y-71349767D01*
X155489358Y-71407939D01*
X155524222Y-71562639D01*
X155562461Y-71656811D01*
X155597873Y-71744020D01*
X155608266Y-71769616D01*
X155724987Y-71960088D01*
X155871250Y-72128938D01*
X156043126Y-72271632D01*
X156065106Y-72284476D01*
X156116445Y-72314476D01*
X156165169Y-72366114D01*
X156178240Y-72435897D01*
X156151509Y-72501669D01*
X156111055Y-72535027D01*
X156098607Y-72541507D01*
X156094474Y-72544610D01*
X156094471Y-72544612D01*
X155924100Y-72672530D01*
X155919965Y-72675635D01*
X155916393Y-72679373D01*
X155769319Y-72833277D01*
X155765629Y-72837138D01*
X155639743Y-73021680D01*
X155545688Y-73224305D01*
X155485989Y-73439570D01*
X155462251Y-73661695D01*
X155462548Y-73666848D01*
X155462548Y-73666851D01*
X155474812Y-73879547D01*
X155475110Y-73884715D01*
X155476247Y-73889761D01*
X155476248Y-73889767D01*
X155489358Y-73947939D01*
X155524222Y-74102639D01*
X155562461Y-74196811D01*
X155597873Y-74284020D01*
X155608266Y-74309616D01*
X155724987Y-74500088D01*
X155871250Y-74668938D01*
X156043126Y-74811632D01*
X156065106Y-74824476D01*
X156116445Y-74854476D01*
X156165169Y-74906114D01*
X156178240Y-74975897D01*
X156151509Y-75041669D01*
X156111055Y-75075027D01*
X156098607Y-75081507D01*
X156094474Y-75084610D01*
X156094471Y-75084612D01*
X155924100Y-75212530D01*
X155919965Y-75215635D01*
X155916393Y-75219373D01*
X155769319Y-75373277D01*
X155765629Y-75377138D01*
X155639743Y-75561680D01*
X155545688Y-75764305D01*
X155485989Y-75979570D01*
X155462251Y-76201695D01*
X155462548Y-76206848D01*
X155462548Y-76206851D01*
X155474812Y-76419547D01*
X155475110Y-76424715D01*
X155476247Y-76429761D01*
X155476248Y-76429767D01*
X155489358Y-76487939D01*
X155524222Y-76642639D01*
X155562461Y-76736811D01*
X155597873Y-76824020D01*
X155608266Y-76849616D01*
X155724987Y-77040088D01*
X155871250Y-77208938D01*
X156043126Y-77351632D01*
X156065106Y-77364476D01*
X156116445Y-77394476D01*
X156165169Y-77446114D01*
X156178240Y-77515897D01*
X156151509Y-77581669D01*
X156111055Y-77615027D01*
X156098607Y-77621507D01*
X156094474Y-77624610D01*
X156094471Y-77624612D01*
X155924100Y-77752530D01*
X155919965Y-77755635D01*
X155916393Y-77759373D01*
X155769319Y-77913277D01*
X155765629Y-77917138D01*
X155639743Y-78101680D01*
X155545688Y-78304305D01*
X155485989Y-78519570D01*
X155462251Y-78741695D01*
X155462548Y-78746848D01*
X155462548Y-78746851D01*
X155474812Y-78959547D01*
X155475110Y-78964715D01*
X155476247Y-78969761D01*
X155476248Y-78969767D01*
X155489358Y-79027939D01*
X155524222Y-79182639D01*
X155562461Y-79276811D01*
X155597873Y-79364020D01*
X155608266Y-79389616D01*
X155724987Y-79580088D01*
X155871250Y-79748938D01*
X156043126Y-79891632D01*
X156065106Y-79904476D01*
X156116445Y-79934476D01*
X156165169Y-79986114D01*
X156178240Y-80055897D01*
X156151509Y-80121669D01*
X156111055Y-80155027D01*
X156098607Y-80161507D01*
X156094474Y-80164610D01*
X156094471Y-80164612D01*
X155924100Y-80292530D01*
X155919965Y-80295635D01*
X155916393Y-80299373D01*
X155769319Y-80453277D01*
X155765629Y-80457138D01*
X155639743Y-80641680D01*
X155545688Y-80844305D01*
X155485989Y-81059570D01*
X155462251Y-81281695D01*
X155462548Y-81286848D01*
X155462548Y-81286851D01*
X155474812Y-81499547D01*
X155475110Y-81504715D01*
X155476247Y-81509761D01*
X155476248Y-81509767D01*
X155489358Y-81567939D01*
X155524222Y-81722639D01*
X155562461Y-81816811D01*
X155597873Y-81904020D01*
X155608266Y-81929616D01*
X155724987Y-82120088D01*
X155871250Y-82288938D01*
X156043126Y-82431632D01*
X156084649Y-82455896D01*
X156116445Y-82474476D01*
X156165169Y-82526114D01*
X156178240Y-82595897D01*
X156151509Y-82661669D01*
X156111055Y-82695027D01*
X156098607Y-82701507D01*
X156094474Y-82704610D01*
X156094471Y-82704612D01*
X155924100Y-82832530D01*
X155919965Y-82835635D01*
X155916393Y-82839373D01*
X155769319Y-82993277D01*
X155765629Y-82997138D01*
X155762715Y-83001410D01*
X155762714Y-83001411D01*
X155750404Y-83019457D01*
X155639743Y-83181680D01*
X155545688Y-83384305D01*
X155485989Y-83599570D01*
X155462251Y-83821695D01*
X155462548Y-83826848D01*
X155462548Y-83826851D01*
X155474812Y-84039547D01*
X155475110Y-84044715D01*
X155476247Y-84049761D01*
X155476248Y-84049767D01*
X155490449Y-84112778D01*
X155524222Y-84262639D01*
X155564346Y-84361453D01*
X155597873Y-84444020D01*
X155608266Y-84469616D01*
X155724987Y-84660088D01*
X155871250Y-84828938D01*
X156043126Y-84971632D01*
X156065106Y-84984476D01*
X156116445Y-85014476D01*
X156165169Y-85066114D01*
X156178240Y-85135897D01*
X156151509Y-85201669D01*
X156111055Y-85235027D01*
X156098607Y-85241507D01*
X156094474Y-85244610D01*
X156094471Y-85244612D01*
X155924100Y-85372530D01*
X155919965Y-85375635D01*
X155916393Y-85379373D01*
X155769319Y-85533277D01*
X155765629Y-85537138D01*
X155762715Y-85541410D01*
X155762714Y-85541411D01*
X155750404Y-85559457D01*
X155639743Y-85721680D01*
X155545688Y-85924305D01*
X155485989Y-86139570D01*
X155462251Y-86361695D01*
X155462548Y-86366848D01*
X155462548Y-86366851D01*
X155474812Y-86579547D01*
X155475110Y-86584715D01*
X155476247Y-86589761D01*
X155476248Y-86589767D01*
X155490449Y-86652778D01*
X155524222Y-86802639D01*
X155564346Y-86901453D01*
X155597873Y-86984020D01*
X155608266Y-87009616D01*
X155724987Y-87200088D01*
X155871250Y-87368938D01*
X156043126Y-87511632D01*
X156065106Y-87524476D01*
X156116445Y-87554476D01*
X156165169Y-87606114D01*
X156178240Y-87675897D01*
X156151509Y-87741669D01*
X156111055Y-87775027D01*
X156098607Y-87781507D01*
X156094474Y-87784610D01*
X156094471Y-87784612D01*
X155924100Y-87912530D01*
X155919965Y-87915635D01*
X155916393Y-87919373D01*
X155769319Y-88073277D01*
X155765629Y-88077138D01*
X155762715Y-88081410D01*
X155762714Y-88081411D01*
X155750404Y-88099457D01*
X155639743Y-88261680D01*
X155545688Y-88464305D01*
X155485989Y-88679570D01*
X155462251Y-88901695D01*
X155462548Y-88906848D01*
X155462548Y-88906851D01*
X155474812Y-89119547D01*
X155475110Y-89124715D01*
X155476247Y-89129761D01*
X155476248Y-89129767D01*
X155490449Y-89192778D01*
X155524222Y-89342639D01*
X155564346Y-89441453D01*
X155597873Y-89524020D01*
X155608266Y-89549616D01*
X155724987Y-89740088D01*
X155871250Y-89908938D01*
X156043126Y-90051632D01*
X156065106Y-90064476D01*
X156116445Y-90094476D01*
X156165169Y-90146114D01*
X156178240Y-90215897D01*
X156151509Y-90281669D01*
X156111055Y-90315027D01*
X156098607Y-90321507D01*
X156094474Y-90324610D01*
X156094471Y-90324612D01*
X155924100Y-90452530D01*
X155919965Y-90455635D01*
X155916393Y-90459373D01*
X155769319Y-90613277D01*
X155765629Y-90617138D01*
X155762715Y-90621410D01*
X155762714Y-90621411D01*
X155647905Y-90789715D01*
X155592994Y-90834718D01*
X155563531Y-90843159D01*
X155557729Y-90844078D01*
X155549810Y-90844327D01*
X155542200Y-90846538D01*
X155542199Y-90846538D01*
X155530358Y-90849978D01*
X155511006Y-90853986D01*
X155503935Y-90854880D01*
X155490903Y-90856526D01*
X155483534Y-90859443D01*
X155483532Y-90859444D01*
X155449797Y-90872800D01*
X155438569Y-90876645D01*
X155396107Y-90888982D01*
X155389285Y-90893016D01*
X155389279Y-90893019D01*
X155378668Y-90899294D01*
X155360918Y-90907990D01*
X155349456Y-90912528D01*
X155349451Y-90912531D01*
X155342083Y-90915448D01*
X155335668Y-90920109D01*
X155306325Y-90941427D01*
X155296407Y-90947943D01*
X155277719Y-90958995D01*
X155258337Y-90970458D01*
X155244013Y-90984782D01*
X155228981Y-90997621D01*
X155212593Y-91009528D01*
X155184412Y-91043593D01*
X155176422Y-91052373D01*
X154248900Y-91979895D01*
X154186588Y-92013921D01*
X154159805Y-92016800D01*
X153249727Y-92016800D01*
X153181606Y-91996798D01*
X153135113Y-91943142D01*
X153125009Y-91872868D01*
X153129168Y-91854172D01*
X153155379Y-91767903D01*
X153157555Y-91757837D01*
X153158986Y-91746962D01*
X153156775Y-91732778D01*
X153143617Y-91729000D01*
X150508225Y-91729000D01*
X150494694Y-91732973D01*
X150493257Y-91742966D01*
X150520331Y-91863099D01*
X150515795Y-91933950D01*
X150473673Y-91991102D01*
X150407340Y-92016408D01*
X150397414Y-92016800D01*
X147390612Y-92016800D01*
X147322491Y-91996798D01*
X147275998Y-91943142D01*
X147265894Y-91872868D01*
X147270054Y-91854171D01*
X147305377Y-91737910D01*
X147307555Y-91727837D01*
X147308986Y-91716962D01*
X147306775Y-91702778D01*
X147293617Y-91699000D01*
X145847000Y-91699000D01*
X145778879Y-91678998D01*
X145732386Y-91625342D01*
X145721000Y-91573000D01*
X145721000Y-91209183D01*
X150489389Y-91209183D01*
X150490912Y-91217607D01*
X150503292Y-91221000D01*
X151552885Y-91221000D01*
X151568124Y-91216525D01*
X151569329Y-91215135D01*
X151571000Y-91207452D01*
X151571000Y-91202885D01*
X152079000Y-91202885D01*
X152083475Y-91218124D01*
X152084865Y-91219329D01*
X152092548Y-91221000D01*
X153143344Y-91221000D01*
X153156875Y-91217027D01*
X153158180Y-91207947D01*
X153116214Y-91040875D01*
X153112894Y-91031124D01*
X153027972Y-90835814D01*
X153023105Y-90826739D01*
X152907426Y-90647926D01*
X152901136Y-90639757D01*
X152757806Y-90482240D01*
X152750273Y-90475215D01*
X152583139Y-90343222D01*
X152574552Y-90337517D01*
X152537116Y-90316851D01*
X152487146Y-90266419D01*
X152472374Y-90196976D01*
X152497490Y-90130571D01*
X152524842Y-90103964D01*
X152700327Y-89978792D01*
X152708200Y-89972139D01*
X152859052Y-89821812D01*
X152865730Y-89813965D01*
X152990003Y-89641020D01*
X152995313Y-89632183D01*
X153089670Y-89441267D01*
X153093469Y-89431672D01*
X153155377Y-89227910D01*
X153157555Y-89217837D01*
X153158986Y-89206962D01*
X153156775Y-89192778D01*
X153143617Y-89189000D01*
X152097115Y-89189000D01*
X152081876Y-89193475D01*
X152080671Y-89194865D01*
X152079000Y-89202548D01*
X152079000Y-91202885D01*
X151571000Y-91202885D01*
X151571000Y-89207115D01*
X151566525Y-89191876D01*
X151565135Y-89190671D01*
X151557452Y-89189000D01*
X150508225Y-89189000D01*
X150494694Y-89192973D01*
X150493257Y-89202966D01*
X150523565Y-89337446D01*
X150526645Y-89347275D01*
X150606770Y-89544603D01*
X150611413Y-89553794D01*
X150722694Y-89735388D01*
X150728777Y-89743699D01*
X150868213Y-89904667D01*
X150875580Y-89911883D01*
X151039434Y-90047916D01*
X151047881Y-90053831D01*
X151117479Y-90094501D01*
X151166203Y-90146140D01*
X151179274Y-90215923D01*
X151152543Y-90281694D01*
X151112087Y-90315053D01*
X151103462Y-90319542D01*
X151094738Y-90325036D01*
X150924433Y-90452905D01*
X150916726Y-90459748D01*
X150769590Y-90613717D01*
X150763104Y-90621727D01*
X150643098Y-90797649D01*
X150638000Y-90806623D01*
X150548338Y-90999783D01*
X150544775Y-91009470D01*
X150489389Y-91209183D01*
X145721000Y-91209183D01*
X145721000Y-91172885D01*
X146229000Y-91172885D01*
X146233475Y-91188124D01*
X146234865Y-91189329D01*
X146242548Y-91191000D01*
X147293344Y-91191000D01*
X147306875Y-91187027D01*
X147308180Y-91177947D01*
X147266214Y-91010875D01*
X147262894Y-91001124D01*
X147177972Y-90805814D01*
X147173105Y-90796739D01*
X147057426Y-90617926D01*
X147051136Y-90609757D01*
X146907806Y-90452240D01*
X146900273Y-90445215D01*
X146733139Y-90313222D01*
X146724552Y-90307517D01*
X146687116Y-90286851D01*
X146637146Y-90236419D01*
X146622374Y-90166976D01*
X146647490Y-90100571D01*
X146674842Y-90073964D01*
X146850327Y-89948792D01*
X146858200Y-89942139D01*
X147009052Y-89791812D01*
X147015730Y-89783965D01*
X147140003Y-89611020D01*
X147145313Y-89602183D01*
X147239670Y-89411267D01*
X147243469Y-89401672D01*
X147305377Y-89197910D01*
X147307555Y-89187837D01*
X147308986Y-89176962D01*
X147306775Y-89162778D01*
X147293617Y-89159000D01*
X146247115Y-89159000D01*
X146231876Y-89163475D01*
X146230671Y-89164865D01*
X146229000Y-89172548D01*
X146229000Y-91172885D01*
X145721000Y-91172885D01*
X145721000Y-88669183D01*
X150489389Y-88669183D01*
X150490912Y-88677607D01*
X150503292Y-88681000D01*
X151552885Y-88681000D01*
X151568124Y-88676525D01*
X151569329Y-88675135D01*
X151571000Y-88667452D01*
X151571000Y-88662885D01*
X152079000Y-88662885D01*
X152083475Y-88678124D01*
X152084865Y-88679329D01*
X152092548Y-88681000D01*
X153143344Y-88681000D01*
X153156875Y-88677027D01*
X153158180Y-88667947D01*
X153116214Y-88500875D01*
X153112894Y-88491124D01*
X153027972Y-88295814D01*
X153023105Y-88286739D01*
X152907426Y-88107926D01*
X152901136Y-88099757D01*
X152757806Y-87942240D01*
X152750273Y-87935215D01*
X152583139Y-87803222D01*
X152574552Y-87797517D01*
X152537116Y-87776851D01*
X152487146Y-87726419D01*
X152472374Y-87656976D01*
X152497490Y-87590571D01*
X152524842Y-87563964D01*
X152700327Y-87438792D01*
X152708200Y-87432139D01*
X152859052Y-87281812D01*
X152865730Y-87273965D01*
X152990003Y-87101020D01*
X152995313Y-87092183D01*
X153089670Y-86901267D01*
X153093469Y-86891672D01*
X153155377Y-86687910D01*
X153157555Y-86677837D01*
X153158986Y-86666962D01*
X153156775Y-86652778D01*
X153143617Y-86649000D01*
X152097115Y-86649000D01*
X152081876Y-86653475D01*
X152080671Y-86654865D01*
X152079000Y-86662548D01*
X152079000Y-88662885D01*
X151571000Y-88662885D01*
X151571000Y-86667115D01*
X151566525Y-86651876D01*
X151565135Y-86650671D01*
X151557452Y-86649000D01*
X150508225Y-86649000D01*
X150494694Y-86652973D01*
X150493257Y-86662966D01*
X150523565Y-86797446D01*
X150526645Y-86807275D01*
X150606770Y-87004603D01*
X150611413Y-87013794D01*
X150722694Y-87195388D01*
X150728777Y-87203699D01*
X150868213Y-87364667D01*
X150875580Y-87371883D01*
X151039434Y-87507916D01*
X151047881Y-87513831D01*
X151117479Y-87554501D01*
X151166203Y-87606140D01*
X151179274Y-87675923D01*
X151152543Y-87741694D01*
X151112087Y-87775053D01*
X151103462Y-87779542D01*
X151094738Y-87785036D01*
X150924433Y-87912905D01*
X150916726Y-87919748D01*
X150769590Y-88073717D01*
X150763104Y-88081727D01*
X150643098Y-88257649D01*
X150638000Y-88266623D01*
X150548338Y-88459783D01*
X150544775Y-88469470D01*
X150489389Y-88669183D01*
X145721000Y-88669183D01*
X145721000Y-88632885D01*
X146229000Y-88632885D01*
X146233475Y-88648124D01*
X146234865Y-88649329D01*
X146242548Y-88651000D01*
X147293344Y-88651000D01*
X147306875Y-88647027D01*
X147308180Y-88637947D01*
X147266214Y-88470875D01*
X147262894Y-88461124D01*
X147177972Y-88265814D01*
X147173105Y-88256739D01*
X147057426Y-88077926D01*
X147051136Y-88069757D01*
X146907806Y-87912240D01*
X146900273Y-87905215D01*
X146733139Y-87773222D01*
X146724552Y-87767517D01*
X146687116Y-87746851D01*
X146637146Y-87696419D01*
X146622374Y-87626976D01*
X146647490Y-87560571D01*
X146674842Y-87533964D01*
X146850327Y-87408792D01*
X146858200Y-87402139D01*
X147009052Y-87251812D01*
X147015730Y-87243965D01*
X147140003Y-87071020D01*
X147145313Y-87062183D01*
X147239670Y-86871267D01*
X147243469Y-86861672D01*
X147305377Y-86657910D01*
X147307555Y-86647837D01*
X147308986Y-86636962D01*
X147306775Y-86622778D01*
X147293617Y-86619000D01*
X146247115Y-86619000D01*
X146231876Y-86623475D01*
X146230671Y-86624865D01*
X146229000Y-86632548D01*
X146229000Y-88632885D01*
X145721000Y-88632885D01*
X145721000Y-86129183D01*
X150489389Y-86129183D01*
X150490912Y-86137607D01*
X150503292Y-86141000D01*
X151552885Y-86141000D01*
X151568124Y-86136525D01*
X151569329Y-86135135D01*
X151571000Y-86127452D01*
X151571000Y-86122885D01*
X152079000Y-86122885D01*
X152083475Y-86138124D01*
X152084865Y-86139329D01*
X152092548Y-86141000D01*
X153143344Y-86141000D01*
X153156875Y-86137027D01*
X153158180Y-86127947D01*
X153116214Y-85960875D01*
X153112894Y-85951124D01*
X153027972Y-85755814D01*
X153023105Y-85746739D01*
X152907426Y-85567926D01*
X152901136Y-85559757D01*
X152757806Y-85402240D01*
X152750273Y-85395215D01*
X152583139Y-85263222D01*
X152574552Y-85257517D01*
X152537116Y-85236851D01*
X152487146Y-85186419D01*
X152472374Y-85116976D01*
X152497490Y-85050571D01*
X152524842Y-85023964D01*
X152700327Y-84898792D01*
X152708200Y-84892139D01*
X152859052Y-84741812D01*
X152865730Y-84733965D01*
X152990003Y-84561020D01*
X152995313Y-84552183D01*
X153089670Y-84361267D01*
X153093469Y-84351672D01*
X153155377Y-84147910D01*
X153157555Y-84137837D01*
X153158986Y-84126962D01*
X153156775Y-84112778D01*
X153143617Y-84109000D01*
X152097115Y-84109000D01*
X152081876Y-84113475D01*
X152080671Y-84114865D01*
X152079000Y-84122548D01*
X152079000Y-86122885D01*
X151571000Y-86122885D01*
X151571000Y-84127115D01*
X151566525Y-84111876D01*
X151565135Y-84110671D01*
X151557452Y-84109000D01*
X150508225Y-84109000D01*
X150494694Y-84112973D01*
X150493257Y-84122966D01*
X150523565Y-84257446D01*
X150526645Y-84267275D01*
X150606770Y-84464603D01*
X150611413Y-84473794D01*
X150722694Y-84655388D01*
X150728777Y-84663699D01*
X150868213Y-84824667D01*
X150875580Y-84831883D01*
X151039434Y-84967916D01*
X151047881Y-84973831D01*
X151117479Y-85014501D01*
X151166203Y-85066140D01*
X151179274Y-85135923D01*
X151152543Y-85201694D01*
X151112087Y-85235053D01*
X151103462Y-85239542D01*
X151094738Y-85245036D01*
X150924433Y-85372905D01*
X150916726Y-85379748D01*
X150769590Y-85533717D01*
X150763104Y-85541727D01*
X150643098Y-85717649D01*
X150638000Y-85726623D01*
X150548338Y-85919783D01*
X150544775Y-85929470D01*
X150489389Y-86129183D01*
X145721000Y-86129183D01*
X145721000Y-86092885D01*
X146229000Y-86092885D01*
X146233475Y-86108124D01*
X146234865Y-86109329D01*
X146242548Y-86111000D01*
X147293344Y-86111000D01*
X147306875Y-86107027D01*
X147308180Y-86097947D01*
X147266214Y-85930875D01*
X147262894Y-85921124D01*
X147177972Y-85725814D01*
X147173105Y-85716739D01*
X147057426Y-85537926D01*
X147051136Y-85529757D01*
X146907806Y-85372240D01*
X146900273Y-85365215D01*
X146733139Y-85233222D01*
X146724552Y-85227517D01*
X146687116Y-85206851D01*
X146637146Y-85156419D01*
X146622374Y-85086976D01*
X146647490Y-85020571D01*
X146674842Y-84993964D01*
X146850327Y-84868792D01*
X146858200Y-84862139D01*
X147009052Y-84711812D01*
X147015730Y-84703965D01*
X147140003Y-84531020D01*
X147145313Y-84522183D01*
X147239670Y-84331267D01*
X147243469Y-84321672D01*
X147305377Y-84117910D01*
X147307555Y-84107837D01*
X147308986Y-84096962D01*
X147306775Y-84082778D01*
X147293617Y-84079000D01*
X146247115Y-84079000D01*
X146231876Y-84083475D01*
X146230671Y-84084865D01*
X146229000Y-84092548D01*
X146229000Y-86092885D01*
X145721000Y-86092885D01*
X145721000Y-83697000D01*
X145741002Y-83628879D01*
X145794658Y-83582386D01*
X145847000Y-83571000D01*
X147293344Y-83571000D01*
X147306875Y-83567027D01*
X147308180Y-83557947D01*
X147266214Y-83390875D01*
X147262894Y-83381124D01*
X147177972Y-83185814D01*
X147173105Y-83176739D01*
X147057426Y-82997926D01*
X147051136Y-82989757D01*
X146907806Y-82832240D01*
X146900273Y-82825215D01*
X146733139Y-82693222D01*
X146724556Y-82687520D01*
X146687602Y-82667120D01*
X146637631Y-82616687D01*
X146622859Y-82547245D01*
X146647975Y-82480839D01*
X146675327Y-82454232D01*
X146707011Y-82431632D01*
X146854860Y-82326173D01*
X147013096Y-82168489D01*
X147047876Y-82120088D01*
X147140435Y-81991277D01*
X147143453Y-81987077D01*
X147164320Y-81944857D01*
X147240136Y-81791453D01*
X147240137Y-81791451D01*
X147242430Y-81786811D01*
X147307370Y-81573069D01*
X147336529Y-81351590D01*
X147338156Y-81285000D01*
X147319852Y-81062361D01*
X147265431Y-80845702D01*
X147176354Y-80640840D01*
X147055014Y-80453277D01*
X146904670Y-80288051D01*
X146900619Y-80284852D01*
X146900615Y-80284848D01*
X146733414Y-80152800D01*
X146733410Y-80152798D01*
X146729359Y-80149598D01*
X146688053Y-80126796D01*
X146638084Y-80076364D01*
X146623312Y-80006921D01*
X146648428Y-79940516D01*
X146675780Y-79913909D01*
X146719603Y-79882650D01*
X146854860Y-79786173D01*
X147013096Y-79628489D01*
X147047876Y-79580088D01*
X147140435Y-79451277D01*
X147143453Y-79447077D01*
X147164320Y-79404857D01*
X147240136Y-79251453D01*
X147240137Y-79251451D01*
X147242430Y-79246811D01*
X147307370Y-79033069D01*
X147336529Y-78811590D01*
X147338156Y-78745000D01*
X147319852Y-78522361D01*
X147265431Y-78305702D01*
X147176354Y-78100840D01*
X147055014Y-77913277D01*
X146904670Y-77748051D01*
X146900619Y-77744852D01*
X146900615Y-77744848D01*
X146733414Y-77612800D01*
X146733410Y-77612798D01*
X146729359Y-77609598D01*
X146688053Y-77586796D01*
X146638084Y-77536364D01*
X146623312Y-77466921D01*
X146648428Y-77400516D01*
X146675780Y-77373909D01*
X146719603Y-77342650D01*
X146854860Y-77246173D01*
X147013096Y-77088489D01*
X147047876Y-77040088D01*
X147140435Y-76911277D01*
X147143453Y-76907077D01*
X147164320Y-76864857D01*
X147240136Y-76711453D01*
X147240137Y-76711451D01*
X147242430Y-76706811D01*
X147307370Y-76493069D01*
X147336529Y-76271590D01*
X147338156Y-76205000D01*
X147319852Y-75982361D01*
X147265431Y-75765702D01*
X147176354Y-75560840D01*
X147055014Y-75373277D01*
X146904670Y-75208051D01*
X146900619Y-75204852D01*
X146900615Y-75204848D01*
X146733414Y-75072800D01*
X146733410Y-75072798D01*
X146729359Y-75069598D01*
X146688053Y-75046796D01*
X146638084Y-74996364D01*
X146623312Y-74926921D01*
X146648428Y-74860516D01*
X146675780Y-74833909D01*
X146719603Y-74802650D01*
X146854860Y-74706173D01*
X147013096Y-74548489D01*
X147047876Y-74500088D01*
X147140435Y-74371277D01*
X147143453Y-74367077D01*
X147164320Y-74324857D01*
X147240136Y-74171453D01*
X147240137Y-74171451D01*
X147242430Y-74166811D01*
X147307370Y-73953069D01*
X147336529Y-73731590D01*
X147338156Y-73665000D01*
X147319852Y-73442361D01*
X147265431Y-73225702D01*
X147176354Y-73020840D01*
X147055014Y-72833277D01*
X146904670Y-72668051D01*
X146900619Y-72664852D01*
X146900615Y-72664848D01*
X146733414Y-72532800D01*
X146733410Y-72532798D01*
X146729359Y-72529598D01*
X146688053Y-72506796D01*
X146638084Y-72456364D01*
X146623312Y-72386921D01*
X146648428Y-72320516D01*
X146675780Y-72293909D01*
X146719603Y-72262650D01*
X146854860Y-72166173D01*
X147013096Y-72008489D01*
X147047876Y-71960088D01*
X147140435Y-71831277D01*
X147143453Y-71827077D01*
X147164320Y-71784857D01*
X147240136Y-71631453D01*
X147240137Y-71631451D01*
X147242430Y-71626811D01*
X147307370Y-71413069D01*
X147336529Y-71191590D01*
X147338156Y-71125000D01*
X147319852Y-70902361D01*
X147265431Y-70685702D01*
X147176354Y-70480840D01*
X147055014Y-70293277D01*
X146904670Y-70128051D01*
X146900619Y-70124852D01*
X146900615Y-70124848D01*
X146733414Y-69992800D01*
X146733410Y-69992798D01*
X146729359Y-69989598D01*
X146688053Y-69966796D01*
X146638084Y-69916364D01*
X146623312Y-69846921D01*
X146648428Y-69780516D01*
X146675780Y-69753909D01*
X146719603Y-69722650D01*
X146854860Y-69626173D01*
X147013096Y-69468489D01*
X147047876Y-69420088D01*
X147140435Y-69291277D01*
X147143453Y-69287077D01*
X147164320Y-69244857D01*
X147240136Y-69091453D01*
X147240137Y-69091451D01*
X147242430Y-69086811D01*
X147307370Y-68873069D01*
X147336529Y-68651590D01*
X147338156Y-68585000D01*
X147319852Y-68362361D01*
X147265431Y-68145702D01*
X147176354Y-67940840D01*
X147055014Y-67753277D01*
X146904670Y-67588051D01*
X146900619Y-67584852D01*
X146900615Y-67584848D01*
X146733414Y-67452800D01*
X146733410Y-67452798D01*
X146729359Y-67449598D01*
X146688053Y-67426796D01*
X146638084Y-67376364D01*
X146623312Y-67306921D01*
X146648428Y-67240516D01*
X146675780Y-67213909D01*
X146719603Y-67182650D01*
X146854860Y-67086173D01*
X147013096Y-66928489D01*
X147047876Y-66880088D01*
X147140435Y-66751277D01*
X147143453Y-66747077D01*
X147164320Y-66704857D01*
X147240136Y-66551453D01*
X147240137Y-66551451D01*
X147242430Y-66546811D01*
X147307370Y-66333069D01*
X147336529Y-66111590D01*
X147338156Y-66045000D01*
X147319852Y-65822361D01*
X147265431Y-65605702D01*
X147176354Y-65400840D01*
X147055014Y-65213277D01*
X146904670Y-65048051D01*
X146900619Y-65044852D01*
X146900615Y-65044848D01*
X146733414Y-64912800D01*
X146733410Y-64912798D01*
X146729359Y-64909598D01*
X146688053Y-64886796D01*
X146638084Y-64836364D01*
X146623312Y-64766921D01*
X146648428Y-64700516D01*
X146675780Y-64673909D01*
X146719603Y-64642650D01*
X146854860Y-64546173D01*
X147013096Y-64388489D01*
X147047876Y-64340088D01*
X147140435Y-64211277D01*
X147143453Y-64207077D01*
X147164320Y-64164857D01*
X147240136Y-64011453D01*
X147240137Y-64011451D01*
X147242430Y-64006811D01*
X147307370Y-63793069D01*
X147336529Y-63571590D01*
X147338156Y-63505000D01*
X147319852Y-63282361D01*
X147265431Y-63065702D01*
X147176354Y-62860840D01*
X147055014Y-62673277D01*
X146904670Y-62508051D01*
X146900619Y-62504852D01*
X146900615Y-62504848D01*
X146733414Y-62372800D01*
X146733410Y-62372798D01*
X146729359Y-62369598D01*
X146688053Y-62346796D01*
X146638084Y-62296364D01*
X146623312Y-62226921D01*
X146648428Y-62160516D01*
X146675780Y-62133909D01*
X146719603Y-62102650D01*
X146854860Y-62006173D01*
X147013096Y-61848489D01*
X147047876Y-61800088D01*
X147140435Y-61671277D01*
X147143453Y-61667077D01*
X147164320Y-61624857D01*
X147240136Y-61471453D01*
X147240137Y-61471451D01*
X147242430Y-61466811D01*
X147307370Y-61253069D01*
X147336529Y-61031590D01*
X147338156Y-60965000D01*
X147319852Y-60742361D01*
X147265431Y-60525702D01*
X147262783Y-60519610D01*
X147228185Y-60440043D01*
X147219364Y-60369596D01*
X147250031Y-60305564D01*
X147310447Y-60268276D01*
X147343734Y-60263800D01*
X150469210Y-60263800D01*
X150537331Y-60283802D01*
X150583824Y-60337458D01*
X150593928Y-60407732D01*
X150583498Y-60442850D01*
X150545688Y-60524305D01*
X150485989Y-60739570D01*
X150462251Y-60961695D01*
X150462548Y-60966848D01*
X150462548Y-60966851D01*
X150474812Y-61179547D01*
X150475110Y-61184715D01*
X150476247Y-61189761D01*
X150476248Y-61189767D01*
X150489358Y-61247939D01*
X150524222Y-61402639D01*
X150562461Y-61496811D01*
X150597873Y-61584020D01*
X150608266Y-61609616D01*
X150724987Y-61800088D01*
X150871250Y-61968938D01*
X151043126Y-62111632D01*
X151065106Y-62124476D01*
X151116445Y-62154476D01*
X151165169Y-62206114D01*
X151178240Y-62275897D01*
X151151509Y-62341669D01*
X151111055Y-62375027D01*
X151098607Y-62381507D01*
X151094474Y-62384610D01*
X151094471Y-62384612D01*
X150924100Y-62512530D01*
X150919965Y-62515635D01*
X150916393Y-62519373D01*
X150769319Y-62673277D01*
X150765629Y-62677138D01*
X150639743Y-62861680D01*
X150545688Y-63064305D01*
X150485989Y-63279570D01*
X150462251Y-63501695D01*
X150462548Y-63506848D01*
X150462548Y-63506851D01*
X150474812Y-63719547D01*
X150475110Y-63724715D01*
X150476247Y-63729761D01*
X150476248Y-63729767D01*
X150489358Y-63787939D01*
X150524222Y-63942639D01*
X150562461Y-64036811D01*
X150597873Y-64124020D01*
X150608266Y-64149616D01*
X150724987Y-64340088D01*
X150871250Y-64508938D01*
X151043126Y-64651632D01*
X151065106Y-64664476D01*
X151116445Y-64694476D01*
X151165169Y-64746114D01*
X151178240Y-64815897D01*
X151151509Y-64881669D01*
X151111055Y-64915027D01*
X151098607Y-64921507D01*
X151094474Y-64924610D01*
X151094471Y-64924612D01*
X150924100Y-65052530D01*
X150919965Y-65055635D01*
X150916393Y-65059373D01*
X150769319Y-65213277D01*
X150765629Y-65217138D01*
X150639743Y-65401680D01*
X150545688Y-65604305D01*
X150485989Y-65819570D01*
X150462251Y-66041695D01*
X150462548Y-66046848D01*
X150462548Y-66046851D01*
X150474812Y-66259547D01*
X150475110Y-66264715D01*
X150476247Y-66269761D01*
X150476248Y-66269767D01*
X150489358Y-66327939D01*
X150524222Y-66482639D01*
X150562461Y-66576811D01*
X150597873Y-66664020D01*
X150608266Y-66689616D01*
X150724987Y-66880088D01*
X150871250Y-67048938D01*
X151043126Y-67191632D01*
X151065106Y-67204476D01*
X151116445Y-67234476D01*
X151165169Y-67286114D01*
X151178240Y-67355897D01*
X151151509Y-67421669D01*
X151111055Y-67455027D01*
X151098607Y-67461507D01*
X151094474Y-67464610D01*
X151094471Y-67464612D01*
X150924100Y-67592530D01*
X150919965Y-67595635D01*
X150916393Y-67599373D01*
X150769319Y-67753277D01*
X150765629Y-67757138D01*
X150639743Y-67941680D01*
X150545688Y-68144305D01*
X150485989Y-68359570D01*
X150462251Y-68581695D01*
X150462548Y-68586848D01*
X150462548Y-68586851D01*
X150474812Y-68799547D01*
X150475110Y-68804715D01*
X150476247Y-68809761D01*
X150476248Y-68809767D01*
X150489358Y-68867939D01*
X150524222Y-69022639D01*
X150562461Y-69116811D01*
X150597873Y-69204020D01*
X150608266Y-69229616D01*
X150724987Y-69420088D01*
X150871250Y-69588938D01*
X151043126Y-69731632D01*
X151065106Y-69744476D01*
X151116445Y-69774476D01*
X151165169Y-69826114D01*
X151178240Y-69895897D01*
X151151509Y-69961669D01*
X151111055Y-69995027D01*
X151098607Y-70001507D01*
X151094474Y-70004610D01*
X151094471Y-70004612D01*
X150924100Y-70132530D01*
X150919965Y-70135635D01*
X150916393Y-70139373D01*
X150769319Y-70293277D01*
X150765629Y-70297138D01*
X150639743Y-70481680D01*
X150545688Y-70684305D01*
X150485989Y-70899570D01*
X150462251Y-71121695D01*
X150462548Y-71126848D01*
X150462548Y-71126851D01*
X150474812Y-71339547D01*
X150475110Y-71344715D01*
X150476247Y-71349761D01*
X150476248Y-71349767D01*
X150489358Y-71407939D01*
X150524222Y-71562639D01*
X150562461Y-71656811D01*
X150597873Y-71744020D01*
X150608266Y-71769616D01*
X150724987Y-71960088D01*
X150871250Y-72128938D01*
X151043126Y-72271632D01*
X151065106Y-72284476D01*
X151116445Y-72314476D01*
X151165169Y-72366114D01*
X151178240Y-72435897D01*
X151151509Y-72501669D01*
X151111055Y-72535027D01*
X151098607Y-72541507D01*
X151094474Y-72544610D01*
X151094471Y-72544612D01*
X150924100Y-72672530D01*
X150919965Y-72675635D01*
X150916393Y-72679373D01*
X150769319Y-72833277D01*
X150765629Y-72837138D01*
X150639743Y-73021680D01*
X150545688Y-73224305D01*
X150485989Y-73439570D01*
X150462251Y-73661695D01*
X150462548Y-73666848D01*
X150462548Y-73666851D01*
X150474812Y-73879547D01*
X150475110Y-73884715D01*
X150476247Y-73889761D01*
X150476248Y-73889767D01*
X150489358Y-73947939D01*
X150524222Y-74102639D01*
X150562461Y-74196811D01*
X150597873Y-74284020D01*
X150608266Y-74309616D01*
X150724987Y-74500088D01*
X150871250Y-74668938D01*
X151043126Y-74811632D01*
X151065106Y-74824476D01*
X151116445Y-74854476D01*
X151165169Y-74906114D01*
X151178240Y-74975897D01*
X151151509Y-75041669D01*
X151111055Y-75075027D01*
X151098607Y-75081507D01*
X151094474Y-75084610D01*
X151094471Y-75084612D01*
X150924100Y-75212530D01*
X150919965Y-75215635D01*
X150916393Y-75219373D01*
X150769319Y-75373277D01*
X150765629Y-75377138D01*
X150639743Y-75561680D01*
X150545688Y-75764305D01*
X150485989Y-75979570D01*
X150462251Y-76201695D01*
X150462548Y-76206848D01*
X150462548Y-76206851D01*
X150474812Y-76419547D01*
X150475110Y-76424715D01*
X150476247Y-76429761D01*
X150476248Y-76429767D01*
X150489358Y-76487939D01*
X150524222Y-76642639D01*
X150562461Y-76736811D01*
X150597873Y-76824020D01*
X150608266Y-76849616D01*
X150724987Y-77040088D01*
X150871250Y-77208938D01*
X151043126Y-77351632D01*
X151065106Y-77364476D01*
X151116445Y-77394476D01*
X151165169Y-77446114D01*
X151178240Y-77515897D01*
X151151509Y-77581669D01*
X151111055Y-77615027D01*
X151098607Y-77621507D01*
X151094474Y-77624610D01*
X151094471Y-77624612D01*
X150924100Y-77752530D01*
X150919965Y-77755635D01*
X150916393Y-77759373D01*
X150769319Y-77913277D01*
X150765629Y-77917138D01*
X150639743Y-78101680D01*
X150545688Y-78304305D01*
X150485989Y-78519570D01*
X150462251Y-78741695D01*
X150462548Y-78746848D01*
X150462548Y-78746851D01*
X150474812Y-78959547D01*
X150475110Y-78964715D01*
X150476247Y-78969761D01*
X150476248Y-78969767D01*
X150489358Y-79027939D01*
X150524222Y-79182639D01*
X150562461Y-79276811D01*
X150597873Y-79364020D01*
X150608266Y-79389616D01*
X150724987Y-79580088D01*
X150871250Y-79748938D01*
X151043126Y-79891632D01*
X151065106Y-79904476D01*
X151116445Y-79934476D01*
X151165169Y-79986114D01*
X151178240Y-80055897D01*
X151151509Y-80121669D01*
X151111055Y-80155027D01*
X151098607Y-80161507D01*
X151094474Y-80164610D01*
X151094471Y-80164612D01*
X150924100Y-80292530D01*
X150919965Y-80295635D01*
X150916393Y-80299373D01*
X150769319Y-80453277D01*
X150765629Y-80457138D01*
X150639743Y-80641680D01*
X150545688Y-80844305D01*
X150485989Y-81059570D01*
X150462251Y-81281695D01*
X150462548Y-81286848D01*
X150462548Y-81286851D01*
X150474812Y-81499547D01*
X150475110Y-81504715D01*
X150476247Y-81509761D01*
X150476248Y-81509767D01*
X150489358Y-81567939D01*
X150524222Y-81722639D01*
X150562461Y-81816811D01*
X150597873Y-81904020D01*
X150608266Y-81929616D01*
X150724987Y-82120088D01*
X150871250Y-82288938D01*
X151043126Y-82431632D01*
X151084649Y-82455896D01*
X151116955Y-82474774D01*
X151165679Y-82526412D01*
X151178750Y-82596195D01*
X151152019Y-82661967D01*
X151111562Y-82695327D01*
X151103457Y-82699546D01*
X151094738Y-82705036D01*
X150924433Y-82832905D01*
X150916726Y-82839748D01*
X150769590Y-82993717D01*
X150763104Y-83001727D01*
X150643098Y-83177649D01*
X150638000Y-83186623D01*
X150548338Y-83379783D01*
X150544775Y-83389470D01*
X150489389Y-83589183D01*
X150490912Y-83597607D01*
X150503292Y-83601000D01*
X153143344Y-83601000D01*
X153156875Y-83597027D01*
X153158180Y-83587947D01*
X153116214Y-83420875D01*
X153112894Y-83411124D01*
X153027972Y-83215814D01*
X153023105Y-83206739D01*
X152907426Y-83027926D01*
X152901136Y-83019757D01*
X152757806Y-82862240D01*
X152750273Y-82855215D01*
X152583139Y-82723222D01*
X152574556Y-82717520D01*
X152537602Y-82697120D01*
X152487631Y-82646687D01*
X152472859Y-82577245D01*
X152497975Y-82510839D01*
X152525327Y-82484232D01*
X152565053Y-82455896D01*
X152704860Y-82356173D01*
X152863096Y-82198489D01*
X152922594Y-82115689D01*
X152990435Y-82021277D01*
X152993453Y-82017077D01*
X153051506Y-81899616D01*
X153090136Y-81821453D01*
X153090137Y-81821451D01*
X153092430Y-81816811D01*
X153157370Y-81603069D01*
X153186529Y-81381590D01*
X153188156Y-81315000D01*
X153169852Y-81092361D01*
X153115431Y-80875702D01*
X153026354Y-80670840D01*
X152984755Y-80606538D01*
X152907822Y-80487617D01*
X152907820Y-80487614D01*
X152905014Y-80483277D01*
X152754670Y-80318051D01*
X152750619Y-80314852D01*
X152750615Y-80314848D01*
X152583414Y-80182800D01*
X152583410Y-80182798D01*
X152579359Y-80179598D01*
X152538053Y-80156796D01*
X152488084Y-80106364D01*
X152473312Y-80036921D01*
X152498428Y-79970516D01*
X152525780Y-79943909D01*
X152581063Y-79904476D01*
X152704860Y-79816173D01*
X152863096Y-79658489D01*
X152922594Y-79575689D01*
X152990435Y-79481277D01*
X152993453Y-79477077D01*
X153051506Y-79359616D01*
X153090136Y-79281453D01*
X153090137Y-79281451D01*
X153092430Y-79276811D01*
X153157370Y-79063069D01*
X153186529Y-78841590D01*
X153188156Y-78775000D01*
X153169852Y-78552361D01*
X153115431Y-78335702D01*
X153026354Y-78130840D01*
X152984755Y-78066538D01*
X152907822Y-77947617D01*
X152907820Y-77947614D01*
X152905014Y-77943277D01*
X152754670Y-77778051D01*
X152750619Y-77774852D01*
X152750615Y-77774848D01*
X152583414Y-77642800D01*
X152583410Y-77642798D01*
X152579359Y-77639598D01*
X152538053Y-77616796D01*
X152488084Y-77566364D01*
X152473312Y-77496921D01*
X152498428Y-77430516D01*
X152525780Y-77403909D01*
X152581063Y-77364476D01*
X152704860Y-77276173D01*
X152863096Y-77118489D01*
X152922594Y-77035689D01*
X152990435Y-76941277D01*
X152993453Y-76937077D01*
X153051506Y-76819616D01*
X153090136Y-76741453D01*
X153090137Y-76741451D01*
X153092430Y-76736811D01*
X153157370Y-76523069D01*
X153186529Y-76301590D01*
X153188156Y-76235000D01*
X153169852Y-76012361D01*
X153115431Y-75795702D01*
X153026354Y-75590840D01*
X152984755Y-75526538D01*
X152907822Y-75407617D01*
X152907820Y-75407614D01*
X152905014Y-75403277D01*
X152754670Y-75238051D01*
X152750619Y-75234852D01*
X152750615Y-75234848D01*
X152583414Y-75102800D01*
X152583410Y-75102798D01*
X152579359Y-75099598D01*
X152538053Y-75076796D01*
X152488084Y-75026364D01*
X152473312Y-74956921D01*
X152498428Y-74890516D01*
X152525780Y-74863909D01*
X152581063Y-74824476D01*
X152704860Y-74736173D01*
X152863096Y-74578489D01*
X152922594Y-74495689D01*
X152990435Y-74401277D01*
X152993453Y-74397077D01*
X153051506Y-74279616D01*
X153090136Y-74201453D01*
X153090137Y-74201451D01*
X153092430Y-74196811D01*
X153157370Y-73983069D01*
X153186529Y-73761590D01*
X153188156Y-73695000D01*
X153169852Y-73472361D01*
X153115431Y-73255702D01*
X153026354Y-73050840D01*
X152984755Y-72986538D01*
X152907822Y-72867617D01*
X152907820Y-72867614D01*
X152905014Y-72863277D01*
X152754670Y-72698051D01*
X152750619Y-72694852D01*
X152750615Y-72694848D01*
X152583414Y-72562800D01*
X152583410Y-72562798D01*
X152579359Y-72559598D01*
X152538053Y-72536796D01*
X152488084Y-72486364D01*
X152473312Y-72416921D01*
X152498428Y-72350516D01*
X152525780Y-72323909D01*
X152581063Y-72284476D01*
X152704860Y-72196173D01*
X152863096Y-72038489D01*
X152922594Y-71955689D01*
X152990435Y-71861277D01*
X152993453Y-71857077D01*
X153051506Y-71739616D01*
X153090136Y-71661453D01*
X153090137Y-71661451D01*
X153092430Y-71656811D01*
X153157370Y-71443069D01*
X153186529Y-71221590D01*
X153188156Y-71155000D01*
X153169852Y-70932361D01*
X153115431Y-70715702D01*
X153026354Y-70510840D01*
X152984755Y-70446538D01*
X152907822Y-70327617D01*
X152907820Y-70327614D01*
X152905014Y-70323277D01*
X152754670Y-70158051D01*
X152750619Y-70154852D01*
X152750615Y-70154848D01*
X152583414Y-70022800D01*
X152583410Y-70022798D01*
X152579359Y-70019598D01*
X152538053Y-69996796D01*
X152488084Y-69946364D01*
X152473312Y-69876921D01*
X152498428Y-69810516D01*
X152525780Y-69783909D01*
X152581063Y-69744476D01*
X152704860Y-69656173D01*
X152863096Y-69498489D01*
X152922594Y-69415689D01*
X152990435Y-69321277D01*
X152993453Y-69317077D01*
X153051506Y-69199616D01*
X153090136Y-69121453D01*
X153090137Y-69121451D01*
X153092430Y-69116811D01*
X153157370Y-68903069D01*
X153186529Y-68681590D01*
X153188156Y-68615000D01*
X153169852Y-68392361D01*
X153115431Y-68175702D01*
X153026354Y-67970840D01*
X152984755Y-67906538D01*
X152907822Y-67787617D01*
X152907820Y-67787614D01*
X152905014Y-67783277D01*
X152754670Y-67618051D01*
X152750619Y-67614852D01*
X152750615Y-67614848D01*
X152583414Y-67482800D01*
X152583410Y-67482798D01*
X152579359Y-67479598D01*
X152538053Y-67456796D01*
X152488084Y-67406364D01*
X152473312Y-67336921D01*
X152498428Y-67270516D01*
X152525780Y-67243909D01*
X152581063Y-67204476D01*
X152704860Y-67116173D01*
X152863096Y-66958489D01*
X152922594Y-66875689D01*
X152990435Y-66781277D01*
X152993453Y-66777077D01*
X153051506Y-66659616D01*
X153090136Y-66581453D01*
X153090137Y-66581451D01*
X153092430Y-66576811D01*
X153157370Y-66363069D01*
X153186529Y-66141590D01*
X153188156Y-66075000D01*
X153169852Y-65852361D01*
X153115431Y-65635702D01*
X153026354Y-65430840D01*
X152984755Y-65366538D01*
X152907822Y-65247617D01*
X152907820Y-65247614D01*
X152905014Y-65243277D01*
X152754670Y-65078051D01*
X152750619Y-65074852D01*
X152750615Y-65074848D01*
X152583414Y-64942800D01*
X152583410Y-64942798D01*
X152579359Y-64939598D01*
X152538053Y-64916796D01*
X152488084Y-64866364D01*
X152473312Y-64796921D01*
X152498428Y-64730516D01*
X152525780Y-64703909D01*
X152581063Y-64664476D01*
X152704860Y-64576173D01*
X152863096Y-64418489D01*
X152922594Y-64335689D01*
X152990435Y-64241277D01*
X152993453Y-64237077D01*
X153051506Y-64119616D01*
X153090136Y-64041453D01*
X153090137Y-64041451D01*
X153092430Y-64036811D01*
X153157370Y-63823069D01*
X153186529Y-63601590D01*
X153188156Y-63535000D01*
X153169852Y-63312361D01*
X153115431Y-63095702D01*
X153026354Y-62890840D01*
X152984755Y-62826538D01*
X152907822Y-62707617D01*
X152907820Y-62707614D01*
X152905014Y-62703277D01*
X152754670Y-62538051D01*
X152750619Y-62534852D01*
X152750615Y-62534848D01*
X152583414Y-62402800D01*
X152583410Y-62402798D01*
X152579359Y-62399598D01*
X152538053Y-62376796D01*
X152488084Y-62326364D01*
X152473312Y-62256921D01*
X152498428Y-62190516D01*
X152525780Y-62163909D01*
X152581063Y-62124476D01*
X152704860Y-62036173D01*
X152863096Y-61878489D01*
X152922594Y-61795689D01*
X152990435Y-61701277D01*
X152993453Y-61697077D01*
X153051506Y-61579616D01*
X153090136Y-61501453D01*
X153090137Y-61501451D01*
X153092430Y-61496811D01*
X153157370Y-61283069D01*
X153186529Y-61061590D01*
X153188156Y-60995000D01*
X153169852Y-60772361D01*
X153115431Y-60555702D01*
X153065140Y-60440041D01*
X153056320Y-60369596D01*
X153086987Y-60305564D01*
X153147403Y-60268276D01*
X153180690Y-60263800D01*
X154395633Y-60263800D01*
X154406816Y-60264327D01*
X154414309Y-60266002D01*
X154422235Y-60265753D01*
X154422236Y-60265753D01*
X154482386Y-60263862D01*
X154486345Y-60263800D01*
X154514256Y-60263800D01*
X154518191Y-60263303D01*
X154518256Y-60263295D01*
X154530093Y-60262362D01*
X154562351Y-60261348D01*
X154566370Y-60261222D01*
X154574289Y-60260973D01*
X154593743Y-60255321D01*
X154613100Y-60251313D01*
X154625330Y-60249768D01*
X154625331Y-60249768D01*
X154633197Y-60248774D01*
X154640568Y-60245855D01*
X154640570Y-60245855D01*
X154674312Y-60232496D01*
X154685542Y-60228651D01*
X154720383Y-60218529D01*
X154720384Y-60218529D01*
X154727993Y-60216318D01*
X154734812Y-60212285D01*
X154734817Y-60212283D01*
X154745428Y-60206007D01*
X154763176Y-60197312D01*
X154782017Y-60189852D01*
X154817787Y-60163864D01*
X154827707Y-60157348D01*
X154858935Y-60138880D01*
X154858938Y-60138878D01*
X154865762Y-60134842D01*
X154880083Y-60120521D01*
X154895117Y-60107680D01*
X154896831Y-60106435D01*
X154911507Y-60095772D01*
X154939698Y-60061695D01*
X154947688Y-60052916D01*
X155636485Y-59364119D01*
X155698797Y-59330093D01*
X155769612Y-59335158D01*
G37*
%TD.AperFunction*%
%TD*%
M02*
