M48
; DRILL file {KiCad (6.0.6)} date Sun Oct 16 15:28:39 2022
; FORMAT={-:-/ absolute / inch / decimal}
; #@! TF.CreationDate,2022-10-16T15:28:39-05:00
; #@! TF.GenerationSoftware,Kicad,Pcbnew,(6.0.6)
; #@! TF.FileFunction,Plated,1,2,PTH
FMAT,2
INCH
; #@! TA.AperFunction,Plated,PTH,ComponentDrill
T1C0.0394
%
G90
G05
T1
X4.7927Y-2.3081
X4.7927Y-2.4081
X4.7927Y-2.5081
X4.7927Y-2.6081
X4.7927Y-2.7081
X4.7927Y-2.8081
X4.7927Y-2.9081
X4.7927Y-3.0081
X4.7927Y-3.1081
X4.7927Y-3.2081
X4.7927Y-3.3081
X4.7927Y-3.4081
X4.7927Y-3.5081
X4.7927Y-3.6081
X4.7927Y-3.7081
X4.7927Y-3.8081
X4.7927Y-3.9081
X4.7927Y-4.0081
X4.7927Y-4.1081
X4.7927Y-4.2081
X4.7927Y-4.3081
X4.7927Y-4.4081
X4.8927Y-2.3081
X4.8927Y-2.4081
X4.8927Y-2.5081
X4.8927Y-2.6081
X4.8927Y-2.7081
X4.8927Y-2.8081
X4.8927Y-2.9081
X4.8927Y-3.0081
X4.8927Y-3.1081
X4.8927Y-3.2081
X4.8927Y-3.3081
X4.8927Y-3.4081
X4.8927Y-3.5081
X4.8927Y-3.6081
X4.8927Y-3.7081
X4.8927Y-3.8081
X4.8927Y-3.9081
X4.8927Y-4.0081
X4.8927Y-4.1081
X4.8927Y-4.2081
X4.8927Y-4.3081
X4.8927Y-4.4081
X5.9774Y-2.3014
X5.9774Y-2.4014
X5.9774Y-2.5014
X5.9774Y-2.6014
X5.9774Y-2.7014
X5.9774Y-2.8014
X5.9774Y-2.9014
X5.9774Y-3.0014
X5.9774Y-3.1014
X5.9774Y-3.2014
X5.9774Y-3.3014
X5.9774Y-3.4014
X5.9774Y-3.5014
X5.9774Y-3.6014
X5.9774Y-3.7014
X5.9774Y-3.8014
X5.9774Y-3.9014
X5.9774Y-4.0014
X5.9805Y-4.1014
X5.9805Y-4.2014
X5.9805Y-4.3014
X5.9805Y-4.4014
X6.1742Y-2.3014
X6.1742Y-2.4014
X6.1742Y-2.5014
X6.1742Y-2.6014
X6.1742Y-2.7014
X6.1742Y-2.8014
X6.1742Y-2.9014
X6.1742Y-3.0014
X6.1742Y-3.1014
X6.1742Y-3.2014
X6.1742Y-3.3014
X6.1742Y-3.4014
X6.1742Y-3.5014
X6.1742Y-3.6014
X6.1742Y-3.7014
X6.1742Y-3.8014
X6.1742Y-3.9014
X6.1742Y-4.0014
X6.1774Y-4.1014
X6.1774Y-4.2014
X6.1774Y-4.3014
X6.1774Y-4.4014
T0
M30
