%TF.GenerationSoftware,KiCad,Pcbnew,(6.0.6)*%
%TF.CreationDate,2022-10-16T15:28:40-05:00*%
%TF.ProjectId,IO_Riser,494f5f52-6973-4657-922e-6b696361645f,rev?*%
%TF.SameCoordinates,Original*%
%TF.FileFunction,Copper,L2,Bot*%
%TF.FilePolarity,Positive*%
%FSLAX46Y46*%
G04 Gerber Fmt 4.6, Leading zero omitted, Abs format (unit mm)*
G04 Created by KiCad (PCBNEW (6.0.6)) date 2022-10-16 15:28:40*
%MOMM*%
%LPD*%
G01*
G04 APERTURE LIST*
%TA.AperFunction,ComponentPad*%
%ADD10O,1.700000X1.700000*%
%TD*%
%TA.AperFunction,ComponentPad*%
%ADD11R,1.700000X1.700000*%
%TD*%
G04 APERTURE END LIST*
D10*
%TO.P,J2,44,Pin_44*%
%TO.N,IO_SNDIN*%
X156905000Y-111795000D03*
%TO.P,J2,43,Pin_43*%
%TO.N,-5V*%
X151905000Y-111795000D03*
%TO.P,J2,42,Pin_42*%
%TO.N,D3*%
X156905000Y-109255000D03*
%TO.P,J2,41,Pin_41*%
%TO.N,HOLD{slash}IAQ*%
X151905000Y-109255000D03*
%TO.P,J2,40,Pin_40*%
%TO.N,D1*%
X156905000Y-106715000D03*
%TO.P,J2,39,Pin_39*%
%TO.N,D2*%
X151905000Y-106715000D03*
%TO.P,J2,38,Pin_38*%
%TO.N,D5*%
X156905000Y-104175000D03*
%TO.P,J2,37,Pin_37*%
%TO.N,D0*%
X151905000Y-104175000D03*
%TO.P,J2,36,Pin_36*%
%TO.N,D6*%
X156825000Y-101635000D03*
%TO.P,J2,35,Pin_35*%
%TO.N,D4*%
X151825000Y-101635000D03*
%TO.P,J2,34,Pin_34*%
%TO.N,D7*%
X156825000Y-99095000D03*
%TO.P,J2,33,Pin_33*%
%TO.N,IO_CRUIN*%
X151825000Y-99095000D03*
%TO.P,J2,32,Pin_32*%
%TO.N,~{MEMEN}*%
X156825000Y-96555000D03*
%TO.P,J2,31,Pin_31*%
%TO.N,IO_A0*%
X151825000Y-96555000D03*
%TO.P,J2,30,Pin_30*%
%TO.N,IO_A1*%
X156825000Y-94015000D03*
%TO.P,J2,29,Pin_29*%
%TO.N,IO_A6*%
X151825000Y-94015000D03*
%TO.P,J2,28,Pin_28*%
%TO.N,~{IO_MBE}*%
X156825000Y-91475000D03*
%TO.P,J2,27,Pin_27*%
%TO.N,GND*%
X151825000Y-91475000D03*
%TO.P,J2,26,Pin_26*%
%TO.N,~{IO_WE}*%
X156825000Y-88935000D03*
%TO.P,J2,25,Pin_25*%
%TO.N,GND*%
X151825000Y-88935000D03*
%TO.P,J2,24,Pin_24*%
%TO.N,IO_\u00D83*%
X156825000Y-86395000D03*
%TO.P,J2,23,Pin_23*%
%TO.N,GND*%
X151825000Y-86395000D03*
%TO.P,J2,22,Pin_22*%
%TO.N,~{IO_CRUCLK}*%
X156825000Y-83855000D03*
%TO.P,J2,21,Pin_21*%
%TO.N,GND*%
X151825000Y-83855000D03*
%TO.P,J2,20,Pin_20*%
%TO.N,IO_A2*%
X156825000Y-81315000D03*
%TO.P,J2,19,Pin_19*%
%TO.N,IO_A15-CRUOUT*%
X151825000Y-81315000D03*
%TO.P,J2,18,Pin_18*%
%TO.N,IO_A9*%
X156825000Y-78775000D03*
%TO.P,J2,17,Pin_17*%
%TO.N,IO_A7*%
X151825000Y-78775000D03*
%TO.P,J2,16,Pin_16*%
%TO.N,IO_A14*%
X156825000Y-76235000D03*
%TO.P,J2,15,Pin_15*%
%TO.N,IO_A13*%
X151825000Y-76235000D03*
%TO.P,J2,14,Pin_14*%
%TO.N,IO_A8*%
X156825000Y-73695000D03*
%TO.P,J2,13,Pin_13*%
%TO.N,~{IO_LOAD}*%
X151825000Y-73695000D03*
%TO.P,J2,12,Pin_12*%
%TO.N,READY_~{HOLD}*%
X156825000Y-71155000D03*
%TO.P,J2,11,Pin_11*%
%TO.N,IO_A12*%
X151825000Y-71155000D03*
%TO.P,J2,10,Pin_10*%
%TO.N,IO_A3*%
X156825000Y-68615000D03*
%TO.P,J2,9,Pin_9*%
%TO.N,IO_DBIN*%
X151825000Y-68615000D03*
%TO.P,J2,8,Pin_8*%
%TO.N,IO_A11*%
X156825000Y-66075000D03*
%TO.P,J2,7,Pin_7*%
%TO.N,IO_A4*%
X151825000Y-66075000D03*
%TO.P,J2,6,Pin_6*%
%TO.N,IO_A10*%
X156825000Y-63535000D03*
%TO.P,J2,5,Pin_5*%
%TO.N,IO_A5*%
X151825000Y-63535000D03*
%TO.P,J2,4,Pin_4*%
%TO.N,~{IO_EXT_INT}*%
X156825000Y-60995000D03*
%TO.P,J2,3,Pin_3*%
%TO.N,~{IO_RESET}*%
X151825000Y-60995000D03*
%TO.P,J2,2,Pin_2*%
%TO.N,SBE*%
X156825000Y-58455000D03*
D11*
%TO.P,J2,1,Pin_1*%
%TO.N,+5V*%
X151825000Y-58455000D03*
%TD*%
%TO.P,J1,1,Pin_1*%
%TO.N,+5V*%
X124275000Y-58625000D03*
D10*
%TO.P,J1,2,Pin_2*%
%TO.N,SBE*%
X121735000Y-58625000D03*
%TO.P,J1,3,Pin_3*%
%TO.N,~{IO_RESET}*%
X124275000Y-61165000D03*
%TO.P,J1,4,Pin_4*%
%TO.N,~{IO_EXT_INT}*%
X121735000Y-61165000D03*
%TO.P,J1,5,Pin_5*%
%TO.N,IO_A5*%
X124275000Y-63705000D03*
%TO.P,J1,6,Pin_6*%
%TO.N,IO_A10*%
X121735000Y-63705000D03*
%TO.P,J1,7,Pin_7*%
%TO.N,IO_A4*%
X124275000Y-66245000D03*
%TO.P,J1,8,Pin_8*%
%TO.N,IO_A11*%
X121735000Y-66245000D03*
%TO.P,J1,9,Pin_9*%
%TO.N,IO_DBIN*%
X124275000Y-68785000D03*
%TO.P,J1,10,Pin_10*%
%TO.N,IO_A3*%
X121735000Y-68785000D03*
%TO.P,J1,11,Pin_11*%
%TO.N,IO_A12*%
X124275000Y-71325000D03*
%TO.P,J1,12,Pin_12*%
%TO.N,READY_~{HOLD}*%
X121735000Y-71325000D03*
%TO.P,J1,13,Pin_13*%
%TO.N,~{IO_LOAD}*%
X124275000Y-73865000D03*
%TO.P,J1,14,Pin_14*%
%TO.N,IO_A8*%
X121735000Y-73865000D03*
%TO.P,J1,15,Pin_15*%
%TO.N,IO_A13*%
X124275000Y-76405000D03*
%TO.P,J1,16,Pin_16*%
%TO.N,IO_A14*%
X121735000Y-76405000D03*
%TO.P,J1,17,Pin_17*%
%TO.N,IO_A7*%
X124275000Y-78945000D03*
%TO.P,J1,18,Pin_18*%
%TO.N,IO_A9*%
X121735000Y-78945000D03*
%TO.P,J1,19,Pin_19*%
%TO.N,IO_A15-CRUOUT*%
X124275000Y-81485000D03*
%TO.P,J1,20,Pin_20*%
%TO.N,IO_A2*%
X121735000Y-81485000D03*
%TO.P,J1,21,Pin_21*%
%TO.N,GND*%
X124275000Y-84025000D03*
%TO.P,J1,22,Pin_22*%
%TO.N,~{IO_CRUCLK}*%
X121735000Y-84025000D03*
%TO.P,J1,23,Pin_23*%
%TO.N,GND*%
X124275000Y-86565000D03*
%TO.P,J1,24,Pin_24*%
%TO.N,IO_\u00D83*%
X121735000Y-86565000D03*
%TO.P,J1,25,Pin_25*%
%TO.N,GND*%
X124275000Y-89105000D03*
%TO.P,J1,26,Pin_26*%
%TO.N,~{IO_WE}*%
X121735000Y-89105000D03*
%TO.P,J1,27,Pin_27*%
%TO.N,GND*%
X124275000Y-91645000D03*
%TO.P,J1,28,Pin_28*%
%TO.N,~{IO_MBE}*%
X121735000Y-91645000D03*
%TO.P,J1,29,Pin_29*%
%TO.N,IO_A6*%
X124275000Y-94185000D03*
%TO.P,J1,30,Pin_30*%
%TO.N,IO_A1*%
X121735000Y-94185000D03*
%TO.P,J1,31,Pin_31*%
%TO.N,IO_A0*%
X124275000Y-96725000D03*
%TO.P,J1,32,Pin_32*%
%TO.N,~{MEMEN}*%
X121735000Y-96725000D03*
%TO.P,J1,33,Pin_33*%
%TO.N,IO_CRUIN*%
X124275000Y-99265000D03*
%TO.P,J1,34,Pin_34*%
%TO.N,D7*%
X121735000Y-99265000D03*
%TO.P,J1,35,Pin_35*%
%TO.N,D4*%
X124275000Y-101805000D03*
%TO.P,J1,36,Pin_36*%
%TO.N,D6*%
X121735000Y-101805000D03*
%TO.P,J1,37,Pin_37*%
%TO.N,D0*%
X124275000Y-104345000D03*
%TO.P,J1,38,Pin_38*%
%TO.N,D5*%
X121735000Y-104345000D03*
%TO.P,J1,39,Pin_39*%
%TO.N,D2*%
X124275000Y-106885000D03*
%TO.P,J1,40,Pin_40*%
%TO.N,D1*%
X121735000Y-106885000D03*
%TO.P,J1,41,Pin_41*%
%TO.N,HOLD{slash}IAQ*%
X124275000Y-109425000D03*
%TO.P,J1,42,Pin_42*%
%TO.N,D3*%
X121735000Y-109425000D03*
%TO.P,J1,43,Pin_43*%
%TO.N,-5V*%
X124275000Y-111965000D03*
%TO.P,J1,44,Pin_44*%
%TO.N,IO_SNDIN*%
X121735000Y-111965000D03*
%TD*%
%TA.AperFunction,Conductor*%
%TO.N,GND*%
G36*
X166341203Y-40020110D02*
G01*
X166387795Y-40073681D01*
X166399275Y-40126951D01*
X165900711Y-127375642D01*
X165880320Y-127443647D01*
X165826400Y-127489833D01*
X165775645Y-127500919D01*
X140379284Y-127688693D01*
X111926930Y-127899062D01*
X111858665Y-127879564D01*
X111811776Y-127826253D01*
X111800000Y-127773065D01*
X111800000Y-119932703D01*
X120890743Y-119932703D01*
X120928268Y-120217734D01*
X121004129Y-120495036D01*
X121116923Y-120759476D01*
X121264561Y-121006161D01*
X121444313Y-121230528D01*
X121652851Y-121428423D01*
X121886317Y-121596186D01*
X121890112Y-121598195D01*
X121890113Y-121598196D01*
X121911869Y-121609715D01*
X122140392Y-121730712D01*
X122410373Y-121829511D01*
X122691264Y-121890755D01*
X122719841Y-121893004D01*
X122914282Y-121908307D01*
X122914291Y-121908307D01*
X122916739Y-121908500D01*
X123072271Y-121908500D01*
X123074407Y-121908354D01*
X123074418Y-121908354D01*
X123282548Y-121894165D01*
X123282554Y-121894164D01*
X123286825Y-121893873D01*
X123291020Y-121893004D01*
X123291022Y-121893004D01*
X123427584Y-121864723D01*
X123568342Y-121835574D01*
X123839343Y-121739607D01*
X124094812Y-121607750D01*
X124098313Y-121605289D01*
X124098317Y-121605287D01*
X124212417Y-121525096D01*
X124330023Y-121442441D01*
X124540622Y-121246740D01*
X124722713Y-121024268D01*
X124872927Y-120779142D01*
X124988483Y-120515898D01*
X125067244Y-120239406D01*
X125107751Y-119954784D01*
X125107845Y-119936951D01*
X125107867Y-119932703D01*
X152090743Y-119932703D01*
X152128268Y-120217734D01*
X152204129Y-120495036D01*
X152316923Y-120759476D01*
X152464561Y-121006161D01*
X152644313Y-121230528D01*
X152852851Y-121428423D01*
X153086317Y-121596186D01*
X153090112Y-121598195D01*
X153090113Y-121598196D01*
X153111869Y-121609715D01*
X153340392Y-121730712D01*
X153610373Y-121829511D01*
X153891264Y-121890755D01*
X153919841Y-121893004D01*
X154114282Y-121908307D01*
X154114291Y-121908307D01*
X154116739Y-121908500D01*
X154272271Y-121908500D01*
X154274407Y-121908354D01*
X154274418Y-121908354D01*
X154482548Y-121894165D01*
X154482554Y-121894164D01*
X154486825Y-121893873D01*
X154491020Y-121893004D01*
X154491022Y-121893004D01*
X154627584Y-121864723D01*
X154768342Y-121835574D01*
X155039343Y-121739607D01*
X155294812Y-121607750D01*
X155298313Y-121605289D01*
X155298317Y-121605287D01*
X155412417Y-121525096D01*
X155530023Y-121442441D01*
X155740622Y-121246740D01*
X155922713Y-121024268D01*
X156072927Y-120779142D01*
X156188483Y-120515898D01*
X156267244Y-120239406D01*
X156307751Y-119954784D01*
X156307845Y-119936951D01*
X156309235Y-119671583D01*
X156309235Y-119671576D01*
X156309257Y-119667297D01*
X156271732Y-119382266D01*
X156195871Y-119104964D01*
X156083077Y-118840524D01*
X155935439Y-118593839D01*
X155755687Y-118369472D01*
X155547149Y-118171577D01*
X155313683Y-118003814D01*
X155291843Y-117992250D01*
X155268654Y-117979972D01*
X155059608Y-117869288D01*
X154789627Y-117770489D01*
X154508736Y-117709245D01*
X154477685Y-117706801D01*
X154285718Y-117691693D01*
X154285709Y-117691693D01*
X154283261Y-117691500D01*
X154127729Y-117691500D01*
X154125593Y-117691646D01*
X154125582Y-117691646D01*
X153917452Y-117705835D01*
X153917446Y-117705836D01*
X153913175Y-117706127D01*
X153908980Y-117706996D01*
X153908978Y-117706996D01*
X153772417Y-117735276D01*
X153631658Y-117764426D01*
X153360657Y-117860393D01*
X153105188Y-117992250D01*
X153101687Y-117994711D01*
X153101683Y-117994713D01*
X153091594Y-118001804D01*
X152869977Y-118157559D01*
X152659378Y-118353260D01*
X152477287Y-118575732D01*
X152327073Y-118820858D01*
X152211517Y-119084102D01*
X152132756Y-119360594D01*
X152092249Y-119645216D01*
X152092227Y-119649505D01*
X152092226Y-119649512D01*
X152090765Y-119928417D01*
X152090743Y-119932703D01*
X125107867Y-119932703D01*
X125109235Y-119671583D01*
X125109235Y-119671576D01*
X125109257Y-119667297D01*
X125071732Y-119382266D01*
X124995871Y-119104964D01*
X124883077Y-118840524D01*
X124735439Y-118593839D01*
X124555687Y-118369472D01*
X124347149Y-118171577D01*
X124113683Y-118003814D01*
X124091843Y-117992250D01*
X124068654Y-117979972D01*
X123859608Y-117869288D01*
X123589627Y-117770489D01*
X123308736Y-117709245D01*
X123277685Y-117706801D01*
X123085718Y-117691693D01*
X123085709Y-117691693D01*
X123083261Y-117691500D01*
X122927729Y-117691500D01*
X122925593Y-117691646D01*
X122925582Y-117691646D01*
X122717452Y-117705835D01*
X122717446Y-117705836D01*
X122713175Y-117706127D01*
X122708980Y-117706996D01*
X122708978Y-117706996D01*
X122572417Y-117735276D01*
X122431658Y-117764426D01*
X122160657Y-117860393D01*
X121905188Y-117992250D01*
X121901687Y-117994711D01*
X121901683Y-117994713D01*
X121891594Y-118001804D01*
X121669977Y-118157559D01*
X121459378Y-118353260D01*
X121277287Y-118575732D01*
X121127073Y-118820858D01*
X121011517Y-119084102D01*
X120932756Y-119360594D01*
X120892249Y-119645216D01*
X120892227Y-119649505D01*
X120892226Y-119649512D01*
X120890765Y-119928417D01*
X120890743Y-119932703D01*
X111800000Y-119932703D01*
X111800000Y-111931695D01*
X120372251Y-111931695D01*
X120372548Y-111936848D01*
X120372548Y-111936851D01*
X120378011Y-112031590D01*
X120385110Y-112154715D01*
X120386247Y-112159761D01*
X120386248Y-112159767D01*
X120395910Y-112202639D01*
X120434222Y-112372639D01*
X120518266Y-112579616D01*
X120569019Y-112662438D01*
X120632291Y-112765688D01*
X120634987Y-112770088D01*
X120781250Y-112938938D01*
X120953126Y-113081632D01*
X121146000Y-113194338D01*
X121354692Y-113274030D01*
X121359760Y-113275061D01*
X121359763Y-113275062D01*
X121467017Y-113296883D01*
X121573597Y-113318567D01*
X121578772Y-113318757D01*
X121578774Y-113318757D01*
X121791673Y-113326564D01*
X121791677Y-113326564D01*
X121796837Y-113326753D01*
X121801957Y-113326097D01*
X121801959Y-113326097D01*
X122013288Y-113299025D01*
X122013289Y-113299025D01*
X122018416Y-113298368D01*
X122023366Y-113296883D01*
X122227429Y-113235661D01*
X122227434Y-113235659D01*
X122232384Y-113234174D01*
X122432994Y-113135896D01*
X122614860Y-113006173D01*
X122773096Y-112848489D01*
X122784565Y-112832529D01*
X122903453Y-112667077D01*
X122904776Y-112668028D01*
X122951645Y-112624857D01*
X123021580Y-112612625D01*
X123087026Y-112640144D01*
X123114875Y-112671994D01*
X123174987Y-112770088D01*
X123321250Y-112938938D01*
X123493126Y-113081632D01*
X123686000Y-113194338D01*
X123894692Y-113274030D01*
X123899760Y-113275061D01*
X123899763Y-113275062D01*
X124007017Y-113296883D01*
X124113597Y-113318567D01*
X124118772Y-113318757D01*
X124118774Y-113318757D01*
X124331673Y-113326564D01*
X124331677Y-113326564D01*
X124336837Y-113326753D01*
X124341957Y-113326097D01*
X124341959Y-113326097D01*
X124553288Y-113299025D01*
X124553289Y-113299025D01*
X124558416Y-113298368D01*
X124563366Y-113296883D01*
X124767429Y-113235661D01*
X124767434Y-113235659D01*
X124772384Y-113234174D01*
X124972994Y-113135896D01*
X125154860Y-113006173D01*
X125313096Y-112848489D01*
X125324565Y-112832529D01*
X125440435Y-112671277D01*
X125443453Y-112667077D01*
X125464320Y-112624857D01*
X125540136Y-112471453D01*
X125540137Y-112471451D01*
X125542430Y-112466811D01*
X125607370Y-112253069D01*
X125636529Y-112031590D01*
X125637551Y-111989767D01*
X125638074Y-111968365D01*
X125638074Y-111968361D01*
X125638156Y-111965000D01*
X125619852Y-111742361D01*
X125565431Y-111525702D01*
X125476354Y-111320840D01*
X125355014Y-111133277D01*
X125204670Y-110968051D01*
X125200619Y-110964852D01*
X125200615Y-110964848D01*
X125033414Y-110832800D01*
X125033410Y-110832798D01*
X125029359Y-110829598D01*
X124988053Y-110806796D01*
X124938084Y-110756364D01*
X124923312Y-110686921D01*
X124948428Y-110620516D01*
X124975780Y-110593909D01*
X125035042Y-110551638D01*
X125154860Y-110466173D01*
X125313096Y-110308489D01*
X125324565Y-110292529D01*
X125440435Y-110131277D01*
X125443453Y-110127077D01*
X125464320Y-110084857D01*
X125540136Y-109931453D01*
X125540137Y-109931451D01*
X125542430Y-109926811D01*
X125607370Y-109713069D01*
X125636529Y-109491590D01*
X125637551Y-109449767D01*
X125638074Y-109428365D01*
X125638074Y-109428361D01*
X125638156Y-109425000D01*
X125619852Y-109202361D01*
X125565431Y-108985702D01*
X125476354Y-108780840D01*
X125355014Y-108593277D01*
X125204670Y-108428051D01*
X125200619Y-108424852D01*
X125200615Y-108424848D01*
X125033414Y-108292800D01*
X125033410Y-108292798D01*
X125029359Y-108289598D01*
X124988053Y-108266796D01*
X124938084Y-108216364D01*
X124923312Y-108146921D01*
X124948428Y-108080516D01*
X124975780Y-108053909D01*
X125035042Y-108011638D01*
X125154860Y-107926173D01*
X125313096Y-107768489D01*
X125324565Y-107752529D01*
X125440435Y-107591277D01*
X125443453Y-107587077D01*
X125464320Y-107544857D01*
X125540136Y-107391453D01*
X125540137Y-107391451D01*
X125542430Y-107386811D01*
X125607370Y-107173069D01*
X125636529Y-106951590D01*
X125637551Y-106909767D01*
X125638074Y-106888365D01*
X125638074Y-106888361D01*
X125638156Y-106885000D01*
X125619852Y-106662361D01*
X125565431Y-106445702D01*
X125476354Y-106240840D01*
X125355014Y-106053277D01*
X125204670Y-105888051D01*
X125200619Y-105884852D01*
X125200615Y-105884848D01*
X125033414Y-105752800D01*
X125033410Y-105752798D01*
X125029359Y-105749598D01*
X124988053Y-105726796D01*
X124938084Y-105676364D01*
X124923312Y-105606921D01*
X124948428Y-105540516D01*
X124975780Y-105513909D01*
X125035042Y-105471638D01*
X125154860Y-105386173D01*
X125313096Y-105228489D01*
X125324565Y-105212529D01*
X125440435Y-105051277D01*
X125443453Y-105047077D01*
X125464320Y-105004857D01*
X125540136Y-104851453D01*
X125540137Y-104851451D01*
X125542430Y-104846811D01*
X125607370Y-104633069D01*
X125636529Y-104411590D01*
X125637551Y-104369767D01*
X125638074Y-104348365D01*
X125638074Y-104348361D01*
X125638156Y-104345000D01*
X125619852Y-104122361D01*
X125565431Y-103905702D01*
X125476354Y-103700840D01*
X125355014Y-103513277D01*
X125204670Y-103348051D01*
X125200619Y-103344852D01*
X125200615Y-103344848D01*
X125033414Y-103212800D01*
X125033410Y-103212798D01*
X125029359Y-103209598D01*
X124988053Y-103186796D01*
X124938084Y-103136364D01*
X124923312Y-103066921D01*
X124948428Y-103000516D01*
X124975780Y-102973909D01*
X125035042Y-102931638D01*
X125154860Y-102846173D01*
X125313096Y-102688489D01*
X125324565Y-102672529D01*
X125440435Y-102511277D01*
X125443453Y-102507077D01*
X125464320Y-102464857D01*
X125540136Y-102311453D01*
X125540137Y-102311451D01*
X125542430Y-102306811D01*
X125607370Y-102093069D01*
X125636529Y-101871590D01*
X125637551Y-101829767D01*
X125638074Y-101808365D01*
X125638074Y-101808361D01*
X125638156Y-101805000D01*
X125621442Y-101601695D01*
X150462251Y-101601695D01*
X150462548Y-101606848D01*
X150462548Y-101606851D01*
X150468011Y-101701590D01*
X150475110Y-101824715D01*
X150476247Y-101829761D01*
X150476248Y-101829767D01*
X150496119Y-101917939D01*
X150524222Y-102042639D01*
X150608266Y-102249616D01*
X150610965Y-102254020D01*
X150715141Y-102424020D01*
X150724987Y-102440088D01*
X150871250Y-102608938D01*
X151043126Y-102751632D01*
X151135988Y-102805896D01*
X151157701Y-102818584D01*
X151206425Y-102870222D01*
X151219496Y-102940005D01*
X151192765Y-103005777D01*
X151169786Y-103028130D01*
X151089571Y-103088357D01*
X151025632Y-103136364D01*
X150999965Y-103155635D01*
X150845629Y-103317138D01*
X150842715Y-103321410D01*
X150842714Y-103321411D01*
X150821936Y-103351870D01*
X150719743Y-103501680D01*
X150704003Y-103535590D01*
X150629315Y-103696492D01*
X150625688Y-103704305D01*
X150565989Y-103919570D01*
X150542251Y-104141695D01*
X150542548Y-104146848D01*
X150542548Y-104146851D01*
X150548011Y-104241590D01*
X150555110Y-104364715D01*
X150556247Y-104369761D01*
X150556248Y-104369767D01*
X150576119Y-104457939D01*
X150604222Y-104582639D01*
X150688266Y-104789616D01*
X150690965Y-104794020D01*
X150795141Y-104964020D01*
X150804987Y-104980088D01*
X150951250Y-105148938D01*
X151123126Y-105291632D01*
X151163169Y-105315031D01*
X151196445Y-105334476D01*
X151245169Y-105386114D01*
X151258240Y-105455897D01*
X151231509Y-105521669D01*
X151191055Y-105555027D01*
X151178607Y-105561507D01*
X151174474Y-105564610D01*
X151174471Y-105564612D01*
X151005247Y-105691669D01*
X150999965Y-105695635D01*
X150845629Y-105857138D01*
X150842715Y-105861410D01*
X150842714Y-105861411D01*
X150821936Y-105891870D01*
X150719743Y-106041680D01*
X150704003Y-106075590D01*
X150629315Y-106236492D01*
X150625688Y-106244305D01*
X150565989Y-106459570D01*
X150542251Y-106681695D01*
X150542548Y-106686848D01*
X150542548Y-106686851D01*
X150548011Y-106781590D01*
X150555110Y-106904715D01*
X150556247Y-106909761D01*
X150556248Y-106909767D01*
X150576119Y-106997939D01*
X150604222Y-107122639D01*
X150688266Y-107329616D01*
X150690965Y-107334020D01*
X150795141Y-107504020D01*
X150804987Y-107520088D01*
X150951250Y-107688938D01*
X151123126Y-107831632D01*
X151163169Y-107855031D01*
X151196445Y-107874476D01*
X151245169Y-107926114D01*
X151258240Y-107995897D01*
X151231509Y-108061669D01*
X151191055Y-108095027D01*
X151178607Y-108101507D01*
X151174474Y-108104610D01*
X151174471Y-108104612D01*
X151005247Y-108231669D01*
X150999965Y-108235635D01*
X150845629Y-108397138D01*
X150842715Y-108401410D01*
X150842714Y-108401411D01*
X150821936Y-108431870D01*
X150719743Y-108581680D01*
X150704003Y-108615590D01*
X150629315Y-108776492D01*
X150625688Y-108784305D01*
X150565989Y-108999570D01*
X150542251Y-109221695D01*
X150542548Y-109226848D01*
X150542548Y-109226851D01*
X150548011Y-109321590D01*
X150555110Y-109444715D01*
X150556247Y-109449761D01*
X150556248Y-109449767D01*
X150576119Y-109537939D01*
X150604222Y-109662639D01*
X150688266Y-109869616D01*
X150690965Y-109874020D01*
X150795141Y-110044020D01*
X150804987Y-110060088D01*
X150951250Y-110228938D01*
X151123126Y-110371632D01*
X151163169Y-110395031D01*
X151196445Y-110414476D01*
X151245169Y-110466114D01*
X151258240Y-110535897D01*
X151231509Y-110601669D01*
X151191055Y-110635027D01*
X151178607Y-110641507D01*
X151174474Y-110644610D01*
X151174471Y-110644612D01*
X151005247Y-110771669D01*
X150999965Y-110775635D01*
X150845629Y-110937138D01*
X150842715Y-110941410D01*
X150842714Y-110941411D01*
X150821936Y-110971870D01*
X150719743Y-111121680D01*
X150704003Y-111155590D01*
X150629315Y-111316492D01*
X150625688Y-111324305D01*
X150565989Y-111539570D01*
X150542251Y-111761695D01*
X150542548Y-111766848D01*
X150542548Y-111766851D01*
X150548011Y-111861590D01*
X150555110Y-111984715D01*
X150556247Y-111989761D01*
X150556248Y-111989767D01*
X150576119Y-112077939D01*
X150604222Y-112202639D01*
X150688266Y-112409616D01*
X150690965Y-112414020D01*
X150795141Y-112584020D01*
X150804987Y-112600088D01*
X150951250Y-112768938D01*
X151123126Y-112911632D01*
X151316000Y-113024338D01*
X151524692Y-113104030D01*
X151529760Y-113105061D01*
X151529763Y-113105062D01*
X151637017Y-113126883D01*
X151743597Y-113148567D01*
X151748772Y-113148757D01*
X151748774Y-113148757D01*
X151961673Y-113156564D01*
X151961677Y-113156564D01*
X151966837Y-113156753D01*
X151971957Y-113156097D01*
X151971959Y-113156097D01*
X152183288Y-113129025D01*
X152183289Y-113129025D01*
X152188416Y-113128368D01*
X152193366Y-113126883D01*
X152397429Y-113065661D01*
X152397434Y-113065659D01*
X152402384Y-113064174D01*
X152602994Y-112965896D01*
X152784860Y-112836173D01*
X152943096Y-112678489D01*
X153002594Y-112595689D01*
X153070435Y-112501277D01*
X153073453Y-112497077D01*
X153088412Y-112466811D01*
X153170136Y-112301453D01*
X153170137Y-112301451D01*
X153172430Y-112296811D01*
X153237370Y-112083069D01*
X153266529Y-111861590D01*
X153268156Y-111795000D01*
X153249852Y-111572361D01*
X153195431Y-111355702D01*
X153106354Y-111150840D01*
X152990573Y-110971870D01*
X152987822Y-110967617D01*
X152987820Y-110967614D01*
X152985014Y-110963277D01*
X152834670Y-110798051D01*
X152830619Y-110794852D01*
X152830615Y-110794848D01*
X152663414Y-110662800D01*
X152663410Y-110662798D01*
X152659359Y-110659598D01*
X152618053Y-110636796D01*
X152568084Y-110586364D01*
X152553312Y-110516921D01*
X152578428Y-110450516D01*
X152605780Y-110423909D01*
X152649603Y-110392650D01*
X152784860Y-110296173D01*
X152943096Y-110138489D01*
X153002594Y-110055689D01*
X153070435Y-109961277D01*
X153073453Y-109957077D01*
X153088412Y-109926811D01*
X153170136Y-109761453D01*
X153170137Y-109761451D01*
X153172430Y-109756811D01*
X153237370Y-109543069D01*
X153266529Y-109321590D01*
X153268156Y-109255000D01*
X153249852Y-109032361D01*
X153195431Y-108815702D01*
X153106354Y-108610840D01*
X152990573Y-108431870D01*
X152987822Y-108427617D01*
X152987820Y-108427614D01*
X152985014Y-108423277D01*
X152834670Y-108258051D01*
X152830619Y-108254852D01*
X152830615Y-108254848D01*
X152663414Y-108122800D01*
X152663410Y-108122798D01*
X152659359Y-108119598D01*
X152618053Y-108096796D01*
X152568084Y-108046364D01*
X152553312Y-107976921D01*
X152578428Y-107910516D01*
X152605780Y-107883909D01*
X152649603Y-107852650D01*
X152784860Y-107756173D01*
X152943096Y-107598489D01*
X153002594Y-107515689D01*
X153070435Y-107421277D01*
X153073453Y-107417077D01*
X153088412Y-107386811D01*
X153170136Y-107221453D01*
X153170137Y-107221451D01*
X153172430Y-107216811D01*
X153237370Y-107003069D01*
X153266529Y-106781590D01*
X153268156Y-106715000D01*
X153249852Y-106492361D01*
X153195431Y-106275702D01*
X153106354Y-106070840D01*
X152990573Y-105891870D01*
X152987822Y-105887617D01*
X152987820Y-105887614D01*
X152985014Y-105883277D01*
X152834670Y-105718051D01*
X152830619Y-105714852D01*
X152830615Y-105714848D01*
X152663414Y-105582800D01*
X152663410Y-105582798D01*
X152659359Y-105579598D01*
X152618053Y-105556796D01*
X152568084Y-105506364D01*
X152553312Y-105436921D01*
X152578428Y-105370516D01*
X152605780Y-105343909D01*
X152649603Y-105312650D01*
X152784860Y-105216173D01*
X152943096Y-105058489D01*
X153002594Y-104975689D01*
X153070435Y-104881277D01*
X153073453Y-104877077D01*
X153088412Y-104846811D01*
X153170136Y-104681453D01*
X153170137Y-104681451D01*
X153172430Y-104676811D01*
X153237370Y-104463069D01*
X153266529Y-104241590D01*
X153268156Y-104175000D01*
X153249852Y-103952361D01*
X153195431Y-103735702D01*
X153106354Y-103530840D01*
X152990573Y-103351870D01*
X152987822Y-103347617D01*
X152987820Y-103347614D01*
X152985014Y-103343277D01*
X152834670Y-103178051D01*
X152830619Y-103174852D01*
X152830615Y-103174848D01*
X152663414Y-103042800D01*
X152663410Y-103042798D01*
X152659359Y-103039598D01*
X152649831Y-103034338D01*
X152598092Y-103005777D01*
X152572956Y-102991901D01*
X152522986Y-102941469D01*
X152508214Y-102872027D01*
X152533330Y-102805621D01*
X152560682Y-102779014D01*
X152700656Y-102679172D01*
X152700659Y-102679170D01*
X152704860Y-102676173D01*
X152863096Y-102518489D01*
X152922594Y-102435689D01*
X152990435Y-102341277D01*
X152993453Y-102337077D01*
X153008412Y-102306811D01*
X153090136Y-102141453D01*
X153090137Y-102141451D01*
X153092430Y-102136811D01*
X153157370Y-101923069D01*
X153186529Y-101701590D01*
X153188156Y-101635000D01*
X153185418Y-101601695D01*
X155462251Y-101601695D01*
X155462548Y-101606848D01*
X155462548Y-101606851D01*
X155468011Y-101701590D01*
X155475110Y-101824715D01*
X155476247Y-101829761D01*
X155476248Y-101829767D01*
X155496119Y-101917939D01*
X155524222Y-102042639D01*
X155608266Y-102249616D01*
X155610965Y-102254020D01*
X155715141Y-102424020D01*
X155724987Y-102440088D01*
X155871250Y-102608938D01*
X156043126Y-102751632D01*
X156135988Y-102805896D01*
X156157701Y-102818584D01*
X156206425Y-102870222D01*
X156219496Y-102940005D01*
X156192765Y-103005777D01*
X156169786Y-103028130D01*
X156089571Y-103088357D01*
X156025632Y-103136364D01*
X155999965Y-103155635D01*
X155845629Y-103317138D01*
X155842715Y-103321410D01*
X155842714Y-103321411D01*
X155821936Y-103351870D01*
X155719743Y-103501680D01*
X155704003Y-103535590D01*
X155629315Y-103696492D01*
X155625688Y-103704305D01*
X155565989Y-103919570D01*
X155542251Y-104141695D01*
X155542548Y-104146848D01*
X155542548Y-104146851D01*
X155548011Y-104241590D01*
X155555110Y-104364715D01*
X155556247Y-104369761D01*
X155556248Y-104369767D01*
X155576119Y-104457939D01*
X155604222Y-104582639D01*
X155688266Y-104789616D01*
X155690965Y-104794020D01*
X155795141Y-104964020D01*
X155804987Y-104980088D01*
X155951250Y-105148938D01*
X156123126Y-105291632D01*
X156163169Y-105315031D01*
X156196445Y-105334476D01*
X156245169Y-105386114D01*
X156258240Y-105455897D01*
X156231509Y-105521669D01*
X156191055Y-105555027D01*
X156178607Y-105561507D01*
X156174474Y-105564610D01*
X156174471Y-105564612D01*
X156005247Y-105691669D01*
X155999965Y-105695635D01*
X155845629Y-105857138D01*
X155842715Y-105861410D01*
X155842714Y-105861411D01*
X155821936Y-105891870D01*
X155719743Y-106041680D01*
X155704003Y-106075590D01*
X155629315Y-106236492D01*
X155625688Y-106244305D01*
X155565989Y-106459570D01*
X155542251Y-106681695D01*
X155542548Y-106686848D01*
X155542548Y-106686851D01*
X155548011Y-106781590D01*
X155555110Y-106904715D01*
X155556247Y-106909761D01*
X155556248Y-106909767D01*
X155576119Y-106997939D01*
X155604222Y-107122639D01*
X155688266Y-107329616D01*
X155690965Y-107334020D01*
X155795141Y-107504020D01*
X155804987Y-107520088D01*
X155951250Y-107688938D01*
X156123126Y-107831632D01*
X156163169Y-107855031D01*
X156196445Y-107874476D01*
X156245169Y-107926114D01*
X156258240Y-107995897D01*
X156231509Y-108061669D01*
X156191055Y-108095027D01*
X156178607Y-108101507D01*
X156174474Y-108104610D01*
X156174471Y-108104612D01*
X156005247Y-108231669D01*
X155999965Y-108235635D01*
X155845629Y-108397138D01*
X155842715Y-108401410D01*
X155842714Y-108401411D01*
X155821936Y-108431870D01*
X155719743Y-108581680D01*
X155704003Y-108615590D01*
X155629315Y-108776492D01*
X155625688Y-108784305D01*
X155565989Y-108999570D01*
X155542251Y-109221695D01*
X155542548Y-109226848D01*
X155542548Y-109226851D01*
X155548011Y-109321590D01*
X155555110Y-109444715D01*
X155556247Y-109449761D01*
X155556248Y-109449767D01*
X155576119Y-109537939D01*
X155604222Y-109662639D01*
X155688266Y-109869616D01*
X155690965Y-109874020D01*
X155795141Y-110044020D01*
X155804987Y-110060088D01*
X155951250Y-110228938D01*
X156123126Y-110371632D01*
X156163169Y-110395031D01*
X156196445Y-110414476D01*
X156245169Y-110466114D01*
X156258240Y-110535897D01*
X156231509Y-110601669D01*
X156191055Y-110635027D01*
X156178607Y-110641507D01*
X156174474Y-110644610D01*
X156174471Y-110644612D01*
X156005247Y-110771669D01*
X155999965Y-110775635D01*
X155845629Y-110937138D01*
X155842715Y-110941410D01*
X155842714Y-110941411D01*
X155821936Y-110971870D01*
X155719743Y-111121680D01*
X155704003Y-111155590D01*
X155629315Y-111316492D01*
X155625688Y-111324305D01*
X155565989Y-111539570D01*
X155542251Y-111761695D01*
X155542548Y-111766848D01*
X155542548Y-111766851D01*
X155548011Y-111861590D01*
X155555110Y-111984715D01*
X155556247Y-111989761D01*
X155556248Y-111989767D01*
X155576119Y-112077939D01*
X155604222Y-112202639D01*
X155688266Y-112409616D01*
X155690965Y-112414020D01*
X155795141Y-112584020D01*
X155804987Y-112600088D01*
X155951250Y-112768938D01*
X156123126Y-112911632D01*
X156316000Y-113024338D01*
X156524692Y-113104030D01*
X156529760Y-113105061D01*
X156529763Y-113105062D01*
X156637017Y-113126883D01*
X156743597Y-113148567D01*
X156748772Y-113148757D01*
X156748774Y-113148757D01*
X156961673Y-113156564D01*
X156961677Y-113156564D01*
X156966837Y-113156753D01*
X156971957Y-113156097D01*
X156971959Y-113156097D01*
X157183288Y-113129025D01*
X157183289Y-113129025D01*
X157188416Y-113128368D01*
X157193366Y-113126883D01*
X157397429Y-113065661D01*
X157397434Y-113065659D01*
X157402384Y-113064174D01*
X157602994Y-112965896D01*
X157784860Y-112836173D01*
X157943096Y-112678489D01*
X158002594Y-112595689D01*
X158070435Y-112501277D01*
X158073453Y-112497077D01*
X158088412Y-112466811D01*
X158170136Y-112301453D01*
X158170137Y-112301451D01*
X158172430Y-112296811D01*
X158237370Y-112083069D01*
X158266529Y-111861590D01*
X158268156Y-111795000D01*
X158249852Y-111572361D01*
X158195431Y-111355702D01*
X158106354Y-111150840D01*
X157990573Y-110971870D01*
X157987822Y-110967617D01*
X157987820Y-110967614D01*
X157985014Y-110963277D01*
X157834670Y-110798051D01*
X157830619Y-110794852D01*
X157830615Y-110794848D01*
X157663414Y-110662800D01*
X157663410Y-110662798D01*
X157659359Y-110659598D01*
X157618053Y-110636796D01*
X157568084Y-110586364D01*
X157553312Y-110516921D01*
X157578428Y-110450516D01*
X157605780Y-110423909D01*
X157649603Y-110392650D01*
X157784860Y-110296173D01*
X157943096Y-110138489D01*
X158002594Y-110055689D01*
X158070435Y-109961277D01*
X158073453Y-109957077D01*
X158088412Y-109926811D01*
X158170136Y-109761453D01*
X158170137Y-109761451D01*
X158172430Y-109756811D01*
X158237370Y-109543069D01*
X158266529Y-109321590D01*
X158268156Y-109255000D01*
X158249852Y-109032361D01*
X158195431Y-108815702D01*
X158106354Y-108610840D01*
X157990573Y-108431870D01*
X157987822Y-108427617D01*
X157987820Y-108427614D01*
X157985014Y-108423277D01*
X157834670Y-108258051D01*
X157830619Y-108254852D01*
X157830615Y-108254848D01*
X157663414Y-108122800D01*
X157663410Y-108122798D01*
X157659359Y-108119598D01*
X157618053Y-108096796D01*
X157568084Y-108046364D01*
X157553312Y-107976921D01*
X157578428Y-107910516D01*
X157605780Y-107883909D01*
X157649603Y-107852650D01*
X157784860Y-107756173D01*
X157943096Y-107598489D01*
X158002594Y-107515689D01*
X158070435Y-107421277D01*
X158073453Y-107417077D01*
X158088412Y-107386811D01*
X158170136Y-107221453D01*
X158170137Y-107221451D01*
X158172430Y-107216811D01*
X158237370Y-107003069D01*
X158266529Y-106781590D01*
X158268156Y-106715000D01*
X158249852Y-106492361D01*
X158195431Y-106275702D01*
X158106354Y-106070840D01*
X157990573Y-105891870D01*
X157987822Y-105887617D01*
X157987820Y-105887614D01*
X157985014Y-105883277D01*
X157834670Y-105718051D01*
X157830619Y-105714852D01*
X157830615Y-105714848D01*
X157663414Y-105582800D01*
X157663410Y-105582798D01*
X157659359Y-105579598D01*
X157618053Y-105556796D01*
X157568084Y-105506364D01*
X157553312Y-105436921D01*
X157578428Y-105370516D01*
X157605780Y-105343909D01*
X157649603Y-105312650D01*
X157784860Y-105216173D01*
X157943096Y-105058489D01*
X158002594Y-104975689D01*
X158070435Y-104881277D01*
X158073453Y-104877077D01*
X158088412Y-104846811D01*
X158170136Y-104681453D01*
X158170137Y-104681451D01*
X158172430Y-104676811D01*
X158237370Y-104463069D01*
X158266529Y-104241590D01*
X158268156Y-104175000D01*
X158249852Y-103952361D01*
X158195431Y-103735702D01*
X158106354Y-103530840D01*
X157990573Y-103351870D01*
X157987822Y-103347617D01*
X157987820Y-103347614D01*
X157985014Y-103343277D01*
X157834670Y-103178051D01*
X157830619Y-103174852D01*
X157830615Y-103174848D01*
X157663414Y-103042800D01*
X157663410Y-103042798D01*
X157659359Y-103039598D01*
X157649831Y-103034338D01*
X157598092Y-103005777D01*
X157572956Y-102991901D01*
X157522986Y-102941469D01*
X157508214Y-102872027D01*
X157533330Y-102805621D01*
X157560682Y-102779014D01*
X157700656Y-102679172D01*
X157700659Y-102679170D01*
X157704860Y-102676173D01*
X157863096Y-102518489D01*
X157922594Y-102435689D01*
X157990435Y-102341277D01*
X157993453Y-102337077D01*
X158008412Y-102306811D01*
X158090136Y-102141453D01*
X158090137Y-102141451D01*
X158092430Y-102136811D01*
X158157370Y-101923069D01*
X158186529Y-101701590D01*
X158188156Y-101635000D01*
X158169852Y-101412361D01*
X158115431Y-101195702D01*
X158026354Y-100990840D01*
X157910573Y-100811870D01*
X157907822Y-100807617D01*
X157907820Y-100807614D01*
X157905014Y-100803277D01*
X157754670Y-100638051D01*
X157750619Y-100634852D01*
X157750615Y-100634848D01*
X157583414Y-100502800D01*
X157583410Y-100502798D01*
X157579359Y-100499598D01*
X157538053Y-100476796D01*
X157488084Y-100426364D01*
X157473312Y-100356921D01*
X157498428Y-100290516D01*
X157525780Y-100263909D01*
X157569603Y-100232650D01*
X157704860Y-100136173D01*
X157863096Y-99978489D01*
X157922594Y-99895689D01*
X157990435Y-99801277D01*
X157993453Y-99797077D01*
X158008412Y-99766811D01*
X158090136Y-99601453D01*
X158090137Y-99601451D01*
X158092430Y-99596811D01*
X158157370Y-99383069D01*
X158186529Y-99161590D01*
X158188156Y-99095000D01*
X158169852Y-98872361D01*
X158115431Y-98655702D01*
X158026354Y-98450840D01*
X157910573Y-98271870D01*
X157907822Y-98267617D01*
X157907820Y-98267614D01*
X157905014Y-98263277D01*
X157754670Y-98098051D01*
X157750619Y-98094852D01*
X157750615Y-98094848D01*
X157583414Y-97962800D01*
X157583410Y-97962798D01*
X157579359Y-97959598D01*
X157538053Y-97936796D01*
X157488084Y-97886364D01*
X157473312Y-97816921D01*
X157498428Y-97750516D01*
X157525780Y-97723909D01*
X157569603Y-97692650D01*
X157704860Y-97596173D01*
X157863096Y-97438489D01*
X157922594Y-97355689D01*
X157990435Y-97261277D01*
X157993453Y-97257077D01*
X158008412Y-97226811D01*
X158090136Y-97061453D01*
X158090137Y-97061451D01*
X158092430Y-97056811D01*
X158157370Y-96843069D01*
X158186529Y-96621590D01*
X158188156Y-96555000D01*
X158169852Y-96332361D01*
X158115431Y-96115702D01*
X158026354Y-95910840D01*
X157910573Y-95731870D01*
X157907822Y-95727617D01*
X157907820Y-95727614D01*
X157905014Y-95723277D01*
X157754670Y-95558051D01*
X157750619Y-95554852D01*
X157750615Y-95554848D01*
X157583414Y-95422800D01*
X157583410Y-95422798D01*
X157579359Y-95419598D01*
X157538053Y-95396796D01*
X157488084Y-95346364D01*
X157473312Y-95276921D01*
X157498428Y-95210516D01*
X157525780Y-95183909D01*
X157569603Y-95152650D01*
X157704860Y-95056173D01*
X157863096Y-94898489D01*
X157922594Y-94815689D01*
X157990435Y-94721277D01*
X157993453Y-94717077D01*
X158008412Y-94686811D01*
X158090136Y-94521453D01*
X158090137Y-94521451D01*
X158092430Y-94516811D01*
X158157370Y-94303069D01*
X158186529Y-94081590D01*
X158188156Y-94015000D01*
X158169852Y-93792361D01*
X158115431Y-93575702D01*
X158026354Y-93370840D01*
X157910573Y-93191870D01*
X157907822Y-93187617D01*
X157907820Y-93187614D01*
X157905014Y-93183277D01*
X157754670Y-93018051D01*
X157750619Y-93014852D01*
X157750615Y-93014848D01*
X157583414Y-92882800D01*
X157583410Y-92882798D01*
X157579359Y-92879598D01*
X157538053Y-92856796D01*
X157488084Y-92806364D01*
X157473312Y-92736921D01*
X157498428Y-92670516D01*
X157525780Y-92643909D01*
X157569603Y-92612650D01*
X157704860Y-92516173D01*
X157863096Y-92358489D01*
X157870684Y-92347930D01*
X157990435Y-92181277D01*
X157993453Y-92177077D01*
X158008412Y-92146811D01*
X158090136Y-91981453D01*
X158090137Y-91981451D01*
X158092430Y-91976811D01*
X158157370Y-91763069D01*
X158186529Y-91541590D01*
X158188156Y-91475000D01*
X158169852Y-91252361D01*
X158115431Y-91035702D01*
X158026354Y-90830840D01*
X157986906Y-90769862D01*
X157907822Y-90647617D01*
X157907820Y-90647614D01*
X157905014Y-90643277D01*
X157754670Y-90478051D01*
X157750619Y-90474852D01*
X157750615Y-90474848D01*
X157583414Y-90342800D01*
X157583410Y-90342798D01*
X157579359Y-90339598D01*
X157538053Y-90316796D01*
X157488084Y-90266364D01*
X157473312Y-90196921D01*
X157498428Y-90130516D01*
X157525780Y-90103909D01*
X157569603Y-90072650D01*
X157704860Y-89976173D01*
X157863096Y-89818489D01*
X157870684Y-89807930D01*
X157990435Y-89641277D01*
X157993453Y-89637077D01*
X158008412Y-89606811D01*
X158090136Y-89441453D01*
X158090137Y-89441451D01*
X158092430Y-89436811D01*
X158157370Y-89223069D01*
X158186529Y-89001590D01*
X158188156Y-88935000D01*
X158169852Y-88712361D01*
X158115431Y-88495702D01*
X158026354Y-88290840D01*
X157986906Y-88229862D01*
X157907822Y-88107617D01*
X157907820Y-88107614D01*
X157905014Y-88103277D01*
X157754670Y-87938051D01*
X157750619Y-87934852D01*
X157750615Y-87934848D01*
X157583414Y-87802800D01*
X157583410Y-87802798D01*
X157579359Y-87799598D01*
X157538053Y-87776796D01*
X157488084Y-87726364D01*
X157473312Y-87656921D01*
X157498428Y-87590516D01*
X157525780Y-87563909D01*
X157569603Y-87532650D01*
X157704860Y-87436173D01*
X157863096Y-87278489D01*
X157870684Y-87267930D01*
X157990435Y-87101277D01*
X157993453Y-87097077D01*
X158008412Y-87066811D01*
X158090136Y-86901453D01*
X158090137Y-86901451D01*
X158092430Y-86896811D01*
X158157370Y-86683069D01*
X158186529Y-86461590D01*
X158188156Y-86395000D01*
X158169852Y-86172361D01*
X158115431Y-85955702D01*
X158026354Y-85750840D01*
X157986906Y-85689862D01*
X157907822Y-85567617D01*
X157907820Y-85567614D01*
X157905014Y-85563277D01*
X157754670Y-85398051D01*
X157750619Y-85394852D01*
X157750615Y-85394848D01*
X157583414Y-85262800D01*
X157583410Y-85262798D01*
X157579359Y-85259598D01*
X157538053Y-85236796D01*
X157488084Y-85186364D01*
X157473312Y-85116921D01*
X157498428Y-85050516D01*
X157525780Y-85023909D01*
X157569603Y-84992650D01*
X157704860Y-84896173D01*
X157863096Y-84738489D01*
X157870684Y-84727930D01*
X157990435Y-84561277D01*
X157993453Y-84557077D01*
X158008412Y-84526811D01*
X158090136Y-84361453D01*
X158090137Y-84361451D01*
X158092430Y-84356811D01*
X158157370Y-84143069D01*
X158186529Y-83921590D01*
X158188156Y-83855000D01*
X158169852Y-83632361D01*
X158115431Y-83415702D01*
X158026354Y-83210840D01*
X157986906Y-83149862D01*
X157907822Y-83027617D01*
X157907820Y-83027614D01*
X157905014Y-83023277D01*
X157754670Y-82858051D01*
X157750619Y-82854852D01*
X157750615Y-82854848D01*
X157583414Y-82722800D01*
X157583410Y-82722798D01*
X157579359Y-82719598D01*
X157538053Y-82696796D01*
X157488084Y-82646364D01*
X157473312Y-82576921D01*
X157498428Y-82510516D01*
X157525780Y-82483909D01*
X157569603Y-82452650D01*
X157704860Y-82356173D01*
X157863096Y-82198489D01*
X157922594Y-82115689D01*
X157990435Y-82021277D01*
X157993453Y-82017077D01*
X158008412Y-81986811D01*
X158090136Y-81821453D01*
X158090137Y-81821451D01*
X158092430Y-81816811D01*
X158157370Y-81603069D01*
X158186529Y-81381590D01*
X158188156Y-81315000D01*
X158169852Y-81092361D01*
X158115431Y-80875702D01*
X158026354Y-80670840D01*
X157910573Y-80491870D01*
X157907822Y-80487617D01*
X157907820Y-80487614D01*
X157905014Y-80483277D01*
X157754670Y-80318051D01*
X157750619Y-80314852D01*
X157750615Y-80314848D01*
X157583414Y-80182800D01*
X157583410Y-80182798D01*
X157579359Y-80179598D01*
X157538053Y-80156796D01*
X157488084Y-80106364D01*
X157473312Y-80036921D01*
X157498428Y-79970516D01*
X157525780Y-79943909D01*
X157569603Y-79912650D01*
X157704860Y-79816173D01*
X157863096Y-79658489D01*
X157922594Y-79575689D01*
X157990435Y-79481277D01*
X157993453Y-79477077D01*
X158008412Y-79446811D01*
X158090136Y-79281453D01*
X158090137Y-79281451D01*
X158092430Y-79276811D01*
X158157370Y-79063069D01*
X158186529Y-78841590D01*
X158188156Y-78775000D01*
X158169852Y-78552361D01*
X158115431Y-78335702D01*
X158026354Y-78130840D01*
X157910573Y-77951870D01*
X157907822Y-77947617D01*
X157907820Y-77947614D01*
X157905014Y-77943277D01*
X157754670Y-77778051D01*
X157750619Y-77774852D01*
X157750615Y-77774848D01*
X157583414Y-77642800D01*
X157583410Y-77642798D01*
X157579359Y-77639598D01*
X157538053Y-77616796D01*
X157488084Y-77566364D01*
X157473312Y-77496921D01*
X157498428Y-77430516D01*
X157525780Y-77403909D01*
X157569603Y-77372650D01*
X157704860Y-77276173D01*
X157863096Y-77118489D01*
X157922594Y-77035689D01*
X157990435Y-76941277D01*
X157993453Y-76937077D01*
X158008412Y-76906811D01*
X158090136Y-76741453D01*
X158090137Y-76741451D01*
X158092430Y-76736811D01*
X158157370Y-76523069D01*
X158186529Y-76301590D01*
X158188156Y-76235000D01*
X158169852Y-76012361D01*
X158115431Y-75795702D01*
X158026354Y-75590840D01*
X157910573Y-75411870D01*
X157907822Y-75407617D01*
X157907820Y-75407614D01*
X157905014Y-75403277D01*
X157754670Y-75238051D01*
X157750619Y-75234852D01*
X157750615Y-75234848D01*
X157583414Y-75102800D01*
X157583410Y-75102798D01*
X157579359Y-75099598D01*
X157538053Y-75076796D01*
X157488084Y-75026364D01*
X157473312Y-74956921D01*
X157498428Y-74890516D01*
X157525780Y-74863909D01*
X157569603Y-74832650D01*
X157704860Y-74736173D01*
X157863096Y-74578489D01*
X157922594Y-74495689D01*
X157990435Y-74401277D01*
X157993453Y-74397077D01*
X158008412Y-74366811D01*
X158090136Y-74201453D01*
X158090137Y-74201451D01*
X158092430Y-74196811D01*
X158157370Y-73983069D01*
X158186529Y-73761590D01*
X158188156Y-73695000D01*
X158169852Y-73472361D01*
X158115431Y-73255702D01*
X158026354Y-73050840D01*
X157910573Y-72871870D01*
X157907822Y-72867617D01*
X157907820Y-72867614D01*
X157905014Y-72863277D01*
X157754670Y-72698051D01*
X157750619Y-72694852D01*
X157750615Y-72694848D01*
X157583414Y-72562800D01*
X157583410Y-72562798D01*
X157579359Y-72559598D01*
X157538053Y-72536796D01*
X157488084Y-72486364D01*
X157473312Y-72416921D01*
X157498428Y-72350516D01*
X157525780Y-72323909D01*
X157569603Y-72292650D01*
X157704860Y-72196173D01*
X157863096Y-72038489D01*
X157922594Y-71955689D01*
X157990435Y-71861277D01*
X157993453Y-71857077D01*
X158008412Y-71826811D01*
X158090136Y-71661453D01*
X158090137Y-71661451D01*
X158092430Y-71656811D01*
X158157370Y-71443069D01*
X158186529Y-71221590D01*
X158188156Y-71155000D01*
X158169852Y-70932361D01*
X158115431Y-70715702D01*
X158026354Y-70510840D01*
X157910573Y-70331870D01*
X157907822Y-70327617D01*
X157907820Y-70327614D01*
X157905014Y-70323277D01*
X157754670Y-70158051D01*
X157750619Y-70154852D01*
X157750615Y-70154848D01*
X157583414Y-70022800D01*
X157583410Y-70022798D01*
X157579359Y-70019598D01*
X157538053Y-69996796D01*
X157488084Y-69946364D01*
X157473312Y-69876921D01*
X157498428Y-69810516D01*
X157525780Y-69783909D01*
X157569603Y-69752650D01*
X157704860Y-69656173D01*
X157863096Y-69498489D01*
X157922594Y-69415689D01*
X157990435Y-69321277D01*
X157993453Y-69317077D01*
X158008412Y-69286811D01*
X158090136Y-69121453D01*
X158090137Y-69121451D01*
X158092430Y-69116811D01*
X158157370Y-68903069D01*
X158186529Y-68681590D01*
X158188156Y-68615000D01*
X158169852Y-68392361D01*
X158115431Y-68175702D01*
X158026354Y-67970840D01*
X157910573Y-67791870D01*
X157907822Y-67787617D01*
X157907820Y-67787614D01*
X157905014Y-67783277D01*
X157754670Y-67618051D01*
X157750619Y-67614852D01*
X157750615Y-67614848D01*
X157583414Y-67482800D01*
X157583410Y-67482798D01*
X157579359Y-67479598D01*
X157538053Y-67456796D01*
X157488084Y-67406364D01*
X157473312Y-67336921D01*
X157498428Y-67270516D01*
X157525780Y-67243909D01*
X157569603Y-67212650D01*
X157704860Y-67116173D01*
X157863096Y-66958489D01*
X157922594Y-66875689D01*
X157990435Y-66781277D01*
X157993453Y-66777077D01*
X158008412Y-66746811D01*
X158090136Y-66581453D01*
X158090137Y-66581451D01*
X158092430Y-66576811D01*
X158157370Y-66363069D01*
X158186529Y-66141590D01*
X158188156Y-66075000D01*
X158169852Y-65852361D01*
X158115431Y-65635702D01*
X158026354Y-65430840D01*
X157910573Y-65251870D01*
X157907822Y-65247617D01*
X157907820Y-65247614D01*
X157905014Y-65243277D01*
X157754670Y-65078051D01*
X157750619Y-65074852D01*
X157750615Y-65074848D01*
X157583414Y-64942800D01*
X157583410Y-64942798D01*
X157579359Y-64939598D01*
X157538053Y-64916796D01*
X157488084Y-64866364D01*
X157473312Y-64796921D01*
X157498428Y-64730516D01*
X157525780Y-64703909D01*
X157569603Y-64672650D01*
X157704860Y-64576173D01*
X157863096Y-64418489D01*
X157922594Y-64335689D01*
X157990435Y-64241277D01*
X157993453Y-64237077D01*
X158008412Y-64206811D01*
X158090136Y-64041453D01*
X158090137Y-64041451D01*
X158092430Y-64036811D01*
X158157370Y-63823069D01*
X158186529Y-63601590D01*
X158188156Y-63535000D01*
X158169852Y-63312361D01*
X158115431Y-63095702D01*
X158026354Y-62890840D01*
X157910573Y-62711870D01*
X157907822Y-62707617D01*
X157907820Y-62707614D01*
X157905014Y-62703277D01*
X157754670Y-62538051D01*
X157750619Y-62534852D01*
X157750615Y-62534848D01*
X157583414Y-62402800D01*
X157583410Y-62402798D01*
X157579359Y-62399598D01*
X157538053Y-62376796D01*
X157488084Y-62326364D01*
X157473312Y-62256921D01*
X157498428Y-62190516D01*
X157525780Y-62163909D01*
X157569603Y-62132650D01*
X157704860Y-62036173D01*
X157863096Y-61878489D01*
X157922594Y-61795689D01*
X157990435Y-61701277D01*
X157993453Y-61697077D01*
X158008412Y-61666811D01*
X158090136Y-61501453D01*
X158090137Y-61501451D01*
X158092430Y-61496811D01*
X158157370Y-61283069D01*
X158186529Y-61061590D01*
X158188156Y-60995000D01*
X158169852Y-60772361D01*
X158115431Y-60555702D01*
X158026354Y-60350840D01*
X157986906Y-60289862D01*
X157907822Y-60167617D01*
X157907820Y-60167614D01*
X157905014Y-60163277D01*
X157754670Y-59998051D01*
X157750619Y-59994852D01*
X157750615Y-59994848D01*
X157583414Y-59862800D01*
X157583410Y-59862798D01*
X157579359Y-59859598D01*
X157538053Y-59836796D01*
X157488084Y-59786364D01*
X157473312Y-59716921D01*
X157498428Y-59650516D01*
X157525780Y-59623909D01*
X157590899Y-59577460D01*
X157704860Y-59496173D01*
X157863096Y-59338489D01*
X157922594Y-59255689D01*
X157990435Y-59161277D01*
X157993453Y-59157077D01*
X158052589Y-59037425D01*
X158090136Y-58961453D01*
X158090137Y-58961451D01*
X158092430Y-58956811D01*
X158157370Y-58743069D01*
X158186529Y-58521590D01*
X158188156Y-58455000D01*
X158169852Y-58232361D01*
X158115431Y-58015702D01*
X158026354Y-57810840D01*
X157936884Y-57672540D01*
X157907822Y-57627617D01*
X157907820Y-57627614D01*
X157905014Y-57623277D01*
X157754670Y-57458051D01*
X157750619Y-57454852D01*
X157750615Y-57454848D01*
X157583414Y-57322800D01*
X157583410Y-57322798D01*
X157579359Y-57319598D01*
X157559790Y-57308795D01*
X157527136Y-57290769D01*
X157383789Y-57211638D01*
X157378920Y-57209914D01*
X157378916Y-57209912D01*
X157178087Y-57138795D01*
X157178083Y-57138794D01*
X157173212Y-57137069D01*
X157168119Y-57136162D01*
X157168116Y-57136161D01*
X156958373Y-57098800D01*
X156958367Y-57098799D01*
X156953284Y-57097894D01*
X156879452Y-57096992D01*
X156735081Y-57095228D01*
X156735079Y-57095228D01*
X156729911Y-57095165D01*
X156509091Y-57128955D01*
X156296756Y-57198357D01*
X156266443Y-57214137D01*
X156105012Y-57298173D01*
X156098607Y-57301507D01*
X156094474Y-57304610D01*
X156094471Y-57304612D01*
X155924100Y-57432530D01*
X155919965Y-57435635D01*
X155765629Y-57597138D01*
X155762715Y-57601410D01*
X155762714Y-57601411D01*
X155719552Y-57664684D01*
X155639743Y-57781680D01*
X155624003Y-57815590D01*
X155558653Y-57956375D01*
X155545688Y-57984305D01*
X155485989Y-58199570D01*
X155462251Y-58421695D01*
X155462548Y-58426848D01*
X155462548Y-58426851D01*
X155468011Y-58521590D01*
X155475110Y-58644715D01*
X155476247Y-58649761D01*
X155476248Y-58649767D01*
X155496119Y-58737939D01*
X155524222Y-58862639D01*
X155608266Y-59069616D01*
X155610965Y-59074020D01*
X155715141Y-59244020D01*
X155724987Y-59260088D01*
X155871250Y-59428938D01*
X156043126Y-59571632D01*
X156083169Y-59595031D01*
X156116445Y-59614476D01*
X156165169Y-59666114D01*
X156178240Y-59735897D01*
X156151509Y-59801669D01*
X156111055Y-59835027D01*
X156098607Y-59841507D01*
X156094474Y-59844610D01*
X156094471Y-59844612D01*
X155928089Y-59969535D01*
X155919965Y-59975635D01*
X155765629Y-60137138D01*
X155762715Y-60141410D01*
X155762714Y-60141411D01*
X155742197Y-60171488D01*
X155639743Y-60321680D01*
X155624003Y-60355590D01*
X155549315Y-60516492D01*
X155545688Y-60524305D01*
X155485989Y-60739570D01*
X155462251Y-60961695D01*
X155462548Y-60966848D01*
X155462548Y-60966851D01*
X155468011Y-61061590D01*
X155475110Y-61184715D01*
X155476247Y-61189761D01*
X155476248Y-61189767D01*
X155496119Y-61277939D01*
X155524222Y-61402639D01*
X155608266Y-61609616D01*
X155610965Y-61614020D01*
X155715141Y-61784020D01*
X155724987Y-61800088D01*
X155871250Y-61968938D01*
X156043126Y-62111632D01*
X156083169Y-62135031D01*
X156116445Y-62154476D01*
X156165169Y-62206114D01*
X156178240Y-62275897D01*
X156151509Y-62341669D01*
X156111055Y-62375027D01*
X156098607Y-62381507D01*
X156094474Y-62384610D01*
X156094471Y-62384612D01*
X155925247Y-62511669D01*
X155919965Y-62515635D01*
X155765629Y-62677138D01*
X155762715Y-62681410D01*
X155762714Y-62681411D01*
X155741936Y-62711870D01*
X155639743Y-62861680D01*
X155624003Y-62895590D01*
X155549315Y-63056492D01*
X155545688Y-63064305D01*
X155485989Y-63279570D01*
X155462251Y-63501695D01*
X155462548Y-63506848D01*
X155462548Y-63506851D01*
X155468011Y-63601590D01*
X155475110Y-63724715D01*
X155476247Y-63729761D01*
X155476248Y-63729767D01*
X155496119Y-63817939D01*
X155524222Y-63942639D01*
X155608266Y-64149616D01*
X155610965Y-64154020D01*
X155715141Y-64324020D01*
X155724987Y-64340088D01*
X155871250Y-64508938D01*
X156043126Y-64651632D01*
X156083169Y-64675031D01*
X156116445Y-64694476D01*
X156165169Y-64746114D01*
X156178240Y-64815897D01*
X156151509Y-64881669D01*
X156111055Y-64915027D01*
X156098607Y-64921507D01*
X156094474Y-64924610D01*
X156094471Y-64924612D01*
X155925247Y-65051669D01*
X155919965Y-65055635D01*
X155765629Y-65217138D01*
X155762715Y-65221410D01*
X155762714Y-65221411D01*
X155741936Y-65251870D01*
X155639743Y-65401680D01*
X155624003Y-65435590D01*
X155549315Y-65596492D01*
X155545688Y-65604305D01*
X155485989Y-65819570D01*
X155462251Y-66041695D01*
X155462548Y-66046848D01*
X155462548Y-66046851D01*
X155468011Y-66141590D01*
X155475110Y-66264715D01*
X155476247Y-66269761D01*
X155476248Y-66269767D01*
X155496119Y-66357939D01*
X155524222Y-66482639D01*
X155608266Y-66689616D01*
X155610965Y-66694020D01*
X155715141Y-66864020D01*
X155724987Y-66880088D01*
X155871250Y-67048938D01*
X156043126Y-67191632D01*
X156083169Y-67215031D01*
X156116445Y-67234476D01*
X156165169Y-67286114D01*
X156178240Y-67355897D01*
X156151509Y-67421669D01*
X156111055Y-67455027D01*
X156098607Y-67461507D01*
X156094474Y-67464610D01*
X156094471Y-67464612D01*
X155925247Y-67591669D01*
X155919965Y-67595635D01*
X155765629Y-67757138D01*
X155762715Y-67761410D01*
X155762714Y-67761411D01*
X155741936Y-67791870D01*
X155639743Y-67941680D01*
X155624003Y-67975590D01*
X155549315Y-68136492D01*
X155545688Y-68144305D01*
X155485989Y-68359570D01*
X155462251Y-68581695D01*
X155462548Y-68586848D01*
X155462548Y-68586851D01*
X155468011Y-68681590D01*
X155475110Y-68804715D01*
X155476247Y-68809761D01*
X155476248Y-68809767D01*
X155496119Y-68897939D01*
X155524222Y-69022639D01*
X155608266Y-69229616D01*
X155610965Y-69234020D01*
X155715141Y-69404020D01*
X155724987Y-69420088D01*
X155871250Y-69588938D01*
X156043126Y-69731632D01*
X156083169Y-69755031D01*
X156116445Y-69774476D01*
X156165169Y-69826114D01*
X156178240Y-69895897D01*
X156151509Y-69961669D01*
X156111055Y-69995027D01*
X156098607Y-70001507D01*
X156094474Y-70004610D01*
X156094471Y-70004612D01*
X155925247Y-70131669D01*
X155919965Y-70135635D01*
X155765629Y-70297138D01*
X155762715Y-70301410D01*
X155762714Y-70301411D01*
X155741936Y-70331870D01*
X155639743Y-70481680D01*
X155624003Y-70515590D01*
X155549315Y-70676492D01*
X155545688Y-70684305D01*
X155485989Y-70899570D01*
X155462251Y-71121695D01*
X155462548Y-71126848D01*
X155462548Y-71126851D01*
X155468011Y-71221590D01*
X155475110Y-71344715D01*
X155476247Y-71349761D01*
X155476248Y-71349767D01*
X155496119Y-71437939D01*
X155524222Y-71562639D01*
X155608266Y-71769616D01*
X155610965Y-71774020D01*
X155715141Y-71944020D01*
X155724987Y-71960088D01*
X155871250Y-72128938D01*
X156043126Y-72271632D01*
X156083169Y-72295031D01*
X156116445Y-72314476D01*
X156165169Y-72366114D01*
X156178240Y-72435897D01*
X156151509Y-72501669D01*
X156111055Y-72535027D01*
X156098607Y-72541507D01*
X156094474Y-72544610D01*
X156094471Y-72544612D01*
X155925247Y-72671669D01*
X155919965Y-72675635D01*
X155765629Y-72837138D01*
X155762715Y-72841410D01*
X155762714Y-72841411D01*
X155741936Y-72871870D01*
X155639743Y-73021680D01*
X155624003Y-73055590D01*
X155549315Y-73216492D01*
X155545688Y-73224305D01*
X155485989Y-73439570D01*
X155462251Y-73661695D01*
X155462548Y-73666848D01*
X155462548Y-73666851D01*
X155468011Y-73761590D01*
X155475110Y-73884715D01*
X155476247Y-73889761D01*
X155476248Y-73889767D01*
X155496119Y-73977939D01*
X155524222Y-74102639D01*
X155608266Y-74309616D01*
X155610965Y-74314020D01*
X155715141Y-74484020D01*
X155724987Y-74500088D01*
X155871250Y-74668938D01*
X156043126Y-74811632D01*
X156083169Y-74835031D01*
X156116445Y-74854476D01*
X156165169Y-74906114D01*
X156178240Y-74975897D01*
X156151509Y-75041669D01*
X156111055Y-75075027D01*
X156098607Y-75081507D01*
X156094474Y-75084610D01*
X156094471Y-75084612D01*
X155925247Y-75211669D01*
X155919965Y-75215635D01*
X155765629Y-75377138D01*
X155762715Y-75381410D01*
X155762714Y-75381411D01*
X155741936Y-75411870D01*
X155639743Y-75561680D01*
X155624003Y-75595590D01*
X155549315Y-75756492D01*
X155545688Y-75764305D01*
X155485989Y-75979570D01*
X155462251Y-76201695D01*
X155462548Y-76206848D01*
X155462548Y-76206851D01*
X155468011Y-76301590D01*
X155475110Y-76424715D01*
X155476247Y-76429761D01*
X155476248Y-76429767D01*
X155496119Y-76517939D01*
X155524222Y-76642639D01*
X155608266Y-76849616D01*
X155610965Y-76854020D01*
X155715141Y-77024020D01*
X155724987Y-77040088D01*
X155871250Y-77208938D01*
X156043126Y-77351632D01*
X156083169Y-77375031D01*
X156116445Y-77394476D01*
X156165169Y-77446114D01*
X156178240Y-77515897D01*
X156151509Y-77581669D01*
X156111055Y-77615027D01*
X156098607Y-77621507D01*
X156094474Y-77624610D01*
X156094471Y-77624612D01*
X155925247Y-77751669D01*
X155919965Y-77755635D01*
X155765629Y-77917138D01*
X155762715Y-77921410D01*
X155762714Y-77921411D01*
X155741936Y-77951870D01*
X155639743Y-78101680D01*
X155624003Y-78135590D01*
X155549315Y-78296492D01*
X155545688Y-78304305D01*
X155485989Y-78519570D01*
X155462251Y-78741695D01*
X155462548Y-78746848D01*
X155462548Y-78746851D01*
X155468011Y-78841590D01*
X155475110Y-78964715D01*
X155476247Y-78969761D01*
X155476248Y-78969767D01*
X155496119Y-79057939D01*
X155524222Y-79182639D01*
X155608266Y-79389616D01*
X155610965Y-79394020D01*
X155715141Y-79564020D01*
X155724987Y-79580088D01*
X155871250Y-79748938D01*
X156043126Y-79891632D01*
X156083169Y-79915031D01*
X156116445Y-79934476D01*
X156165169Y-79986114D01*
X156178240Y-80055897D01*
X156151509Y-80121669D01*
X156111055Y-80155027D01*
X156098607Y-80161507D01*
X156094474Y-80164610D01*
X156094471Y-80164612D01*
X155925247Y-80291669D01*
X155919965Y-80295635D01*
X155765629Y-80457138D01*
X155762715Y-80461410D01*
X155762714Y-80461411D01*
X155741936Y-80491870D01*
X155639743Y-80641680D01*
X155624003Y-80675590D01*
X155549315Y-80836492D01*
X155545688Y-80844305D01*
X155485989Y-81059570D01*
X155462251Y-81281695D01*
X155462548Y-81286848D01*
X155462548Y-81286851D01*
X155468011Y-81381590D01*
X155475110Y-81504715D01*
X155476247Y-81509761D01*
X155476248Y-81509767D01*
X155496119Y-81597939D01*
X155524222Y-81722639D01*
X155608266Y-81929616D01*
X155610965Y-81934020D01*
X155715141Y-82104020D01*
X155724987Y-82120088D01*
X155871250Y-82288938D01*
X156043126Y-82431632D01*
X156083169Y-82455031D01*
X156116445Y-82474476D01*
X156165169Y-82526114D01*
X156178240Y-82595897D01*
X156151509Y-82661669D01*
X156111055Y-82695027D01*
X156098607Y-82701507D01*
X156094474Y-82704610D01*
X156094471Y-82704612D01*
X155925247Y-82831669D01*
X155919965Y-82835635D01*
X155765629Y-82997138D01*
X155762715Y-83001410D01*
X155762714Y-83001411D01*
X155741936Y-83031870D01*
X155639743Y-83181680D01*
X155624003Y-83215590D01*
X155558653Y-83356375D01*
X155545688Y-83384305D01*
X155485989Y-83599570D01*
X155462251Y-83821695D01*
X155462548Y-83826848D01*
X155462548Y-83826851D01*
X155468011Y-83921590D01*
X155475110Y-84044715D01*
X155476247Y-84049761D01*
X155476248Y-84049767D01*
X155490449Y-84112778D01*
X155524222Y-84262639D01*
X155608266Y-84469616D01*
X155610965Y-84474020D01*
X155715141Y-84644020D01*
X155724987Y-84660088D01*
X155871250Y-84828938D01*
X156043126Y-84971632D01*
X156082546Y-84994667D01*
X156116445Y-85014476D01*
X156165169Y-85066114D01*
X156178240Y-85135897D01*
X156151509Y-85201669D01*
X156111055Y-85235027D01*
X156098607Y-85241507D01*
X156094474Y-85244610D01*
X156094471Y-85244612D01*
X155924100Y-85372530D01*
X155919965Y-85375635D01*
X155765629Y-85537138D01*
X155762715Y-85541410D01*
X155762714Y-85541411D01*
X155741936Y-85571870D01*
X155639743Y-85721680D01*
X155624003Y-85755590D01*
X155558653Y-85896375D01*
X155545688Y-85924305D01*
X155485989Y-86139570D01*
X155462251Y-86361695D01*
X155462548Y-86366848D01*
X155462548Y-86366851D01*
X155468011Y-86461590D01*
X155475110Y-86584715D01*
X155476247Y-86589761D01*
X155476248Y-86589767D01*
X155490449Y-86652778D01*
X155524222Y-86802639D01*
X155608266Y-87009616D01*
X155610965Y-87014020D01*
X155715141Y-87184020D01*
X155724987Y-87200088D01*
X155871250Y-87368938D01*
X156043126Y-87511632D01*
X156082546Y-87534667D01*
X156116445Y-87554476D01*
X156165169Y-87606114D01*
X156178240Y-87675897D01*
X156151509Y-87741669D01*
X156111055Y-87775027D01*
X156098607Y-87781507D01*
X156094474Y-87784610D01*
X156094471Y-87784612D01*
X155924100Y-87912530D01*
X155919965Y-87915635D01*
X155765629Y-88077138D01*
X155762715Y-88081410D01*
X155762714Y-88081411D01*
X155741936Y-88111870D01*
X155639743Y-88261680D01*
X155624003Y-88295590D01*
X155558653Y-88436375D01*
X155545688Y-88464305D01*
X155485989Y-88679570D01*
X155462251Y-88901695D01*
X155462548Y-88906848D01*
X155462548Y-88906851D01*
X155468011Y-89001590D01*
X155475110Y-89124715D01*
X155476247Y-89129761D01*
X155476248Y-89129767D01*
X155490449Y-89192778D01*
X155524222Y-89342639D01*
X155608266Y-89549616D01*
X155610965Y-89554020D01*
X155715141Y-89724020D01*
X155724987Y-89740088D01*
X155871250Y-89908938D01*
X156043126Y-90051632D01*
X156082546Y-90074667D01*
X156116445Y-90094476D01*
X156165169Y-90146114D01*
X156178240Y-90215897D01*
X156151509Y-90281669D01*
X156111055Y-90315027D01*
X156098607Y-90321507D01*
X156094474Y-90324610D01*
X156094471Y-90324612D01*
X155924100Y-90452530D01*
X155919965Y-90455635D01*
X155765629Y-90617138D01*
X155762715Y-90621410D01*
X155762714Y-90621411D01*
X155741936Y-90651870D01*
X155639743Y-90801680D01*
X155624003Y-90835590D01*
X155558653Y-90976375D01*
X155545688Y-91004305D01*
X155485989Y-91219570D01*
X155462251Y-91441695D01*
X155462548Y-91446848D01*
X155462548Y-91446851D01*
X155468011Y-91541590D01*
X155475110Y-91664715D01*
X155476247Y-91669761D01*
X155476248Y-91669767D01*
X155485674Y-91711590D01*
X155524222Y-91882639D01*
X155608266Y-92089616D01*
X155610965Y-92094020D01*
X155715141Y-92264020D01*
X155724987Y-92280088D01*
X155871250Y-92448938D01*
X156043126Y-92591632D01*
X156082546Y-92614667D01*
X156116445Y-92634476D01*
X156165169Y-92686114D01*
X156178240Y-92755897D01*
X156151509Y-92821669D01*
X156111055Y-92855027D01*
X156098607Y-92861507D01*
X156094474Y-92864610D01*
X156094471Y-92864612D01*
X155925247Y-92991669D01*
X155919965Y-92995635D01*
X155765629Y-93157138D01*
X155762715Y-93161410D01*
X155762714Y-93161411D01*
X155741936Y-93191870D01*
X155639743Y-93341680D01*
X155624003Y-93375590D01*
X155549315Y-93536492D01*
X155545688Y-93544305D01*
X155485989Y-93759570D01*
X155462251Y-93981695D01*
X155462548Y-93986848D01*
X155462548Y-93986851D01*
X155468011Y-94081590D01*
X155475110Y-94204715D01*
X155476247Y-94209761D01*
X155476248Y-94209767D01*
X155496119Y-94297939D01*
X155524222Y-94422639D01*
X155608266Y-94629616D01*
X155610965Y-94634020D01*
X155715141Y-94804020D01*
X155724987Y-94820088D01*
X155871250Y-94988938D01*
X156043126Y-95131632D01*
X156083169Y-95155031D01*
X156116445Y-95174476D01*
X156165169Y-95226114D01*
X156178240Y-95295897D01*
X156151509Y-95361669D01*
X156111055Y-95395027D01*
X156098607Y-95401507D01*
X156094474Y-95404610D01*
X156094471Y-95404612D01*
X155925247Y-95531669D01*
X155919965Y-95535635D01*
X155765629Y-95697138D01*
X155762715Y-95701410D01*
X155762714Y-95701411D01*
X155741936Y-95731870D01*
X155639743Y-95881680D01*
X155624003Y-95915590D01*
X155549315Y-96076492D01*
X155545688Y-96084305D01*
X155485989Y-96299570D01*
X155462251Y-96521695D01*
X155462548Y-96526848D01*
X155462548Y-96526851D01*
X155468011Y-96621590D01*
X155475110Y-96744715D01*
X155476247Y-96749761D01*
X155476248Y-96749767D01*
X155496119Y-96837939D01*
X155524222Y-96962639D01*
X155608266Y-97169616D01*
X155610965Y-97174020D01*
X155715141Y-97344020D01*
X155724987Y-97360088D01*
X155871250Y-97528938D01*
X156043126Y-97671632D01*
X156083169Y-97695031D01*
X156116445Y-97714476D01*
X156165169Y-97766114D01*
X156178240Y-97835897D01*
X156151509Y-97901669D01*
X156111055Y-97935027D01*
X156098607Y-97941507D01*
X156094474Y-97944610D01*
X156094471Y-97944612D01*
X155925247Y-98071669D01*
X155919965Y-98075635D01*
X155765629Y-98237138D01*
X155762715Y-98241410D01*
X155762714Y-98241411D01*
X155741936Y-98271870D01*
X155639743Y-98421680D01*
X155624003Y-98455590D01*
X155549315Y-98616492D01*
X155545688Y-98624305D01*
X155485989Y-98839570D01*
X155462251Y-99061695D01*
X155462548Y-99066848D01*
X155462548Y-99066851D01*
X155468011Y-99161590D01*
X155475110Y-99284715D01*
X155476247Y-99289761D01*
X155476248Y-99289767D01*
X155496119Y-99377939D01*
X155524222Y-99502639D01*
X155608266Y-99709616D01*
X155610965Y-99714020D01*
X155715141Y-99884020D01*
X155724987Y-99900088D01*
X155871250Y-100068938D01*
X156043126Y-100211632D01*
X156083169Y-100235031D01*
X156116445Y-100254476D01*
X156165169Y-100306114D01*
X156178240Y-100375897D01*
X156151509Y-100441669D01*
X156111055Y-100475027D01*
X156098607Y-100481507D01*
X156094474Y-100484610D01*
X156094471Y-100484612D01*
X155925247Y-100611669D01*
X155919965Y-100615635D01*
X155765629Y-100777138D01*
X155762715Y-100781410D01*
X155762714Y-100781411D01*
X155741936Y-100811870D01*
X155639743Y-100961680D01*
X155624003Y-100995590D01*
X155549315Y-101156492D01*
X155545688Y-101164305D01*
X155485989Y-101379570D01*
X155462251Y-101601695D01*
X153185418Y-101601695D01*
X153169852Y-101412361D01*
X153115431Y-101195702D01*
X153026354Y-100990840D01*
X152910573Y-100811870D01*
X152907822Y-100807617D01*
X152907820Y-100807614D01*
X152905014Y-100803277D01*
X152754670Y-100638051D01*
X152750619Y-100634852D01*
X152750615Y-100634848D01*
X152583414Y-100502800D01*
X152583410Y-100502798D01*
X152579359Y-100499598D01*
X152538053Y-100476796D01*
X152488084Y-100426364D01*
X152473312Y-100356921D01*
X152498428Y-100290516D01*
X152525780Y-100263909D01*
X152569603Y-100232650D01*
X152704860Y-100136173D01*
X152863096Y-99978489D01*
X152922594Y-99895689D01*
X152990435Y-99801277D01*
X152993453Y-99797077D01*
X153008412Y-99766811D01*
X153090136Y-99601453D01*
X153090137Y-99601451D01*
X153092430Y-99596811D01*
X153157370Y-99383069D01*
X153186529Y-99161590D01*
X153188156Y-99095000D01*
X153169852Y-98872361D01*
X153115431Y-98655702D01*
X153026354Y-98450840D01*
X152910573Y-98271870D01*
X152907822Y-98267617D01*
X152907820Y-98267614D01*
X152905014Y-98263277D01*
X152754670Y-98098051D01*
X152750619Y-98094852D01*
X152750615Y-98094848D01*
X152583414Y-97962800D01*
X152583410Y-97962798D01*
X152579359Y-97959598D01*
X152538053Y-97936796D01*
X152488084Y-97886364D01*
X152473312Y-97816921D01*
X152498428Y-97750516D01*
X152525780Y-97723909D01*
X152569603Y-97692650D01*
X152704860Y-97596173D01*
X152863096Y-97438489D01*
X152922594Y-97355689D01*
X152990435Y-97261277D01*
X152993453Y-97257077D01*
X153008412Y-97226811D01*
X153090136Y-97061453D01*
X153090137Y-97061451D01*
X153092430Y-97056811D01*
X153157370Y-96843069D01*
X153186529Y-96621590D01*
X153188156Y-96555000D01*
X153169852Y-96332361D01*
X153115431Y-96115702D01*
X153026354Y-95910840D01*
X152910573Y-95731870D01*
X152907822Y-95727617D01*
X152907820Y-95727614D01*
X152905014Y-95723277D01*
X152754670Y-95558051D01*
X152750619Y-95554852D01*
X152750615Y-95554848D01*
X152583414Y-95422800D01*
X152583410Y-95422798D01*
X152579359Y-95419598D01*
X152538053Y-95396796D01*
X152488084Y-95346364D01*
X152473312Y-95276921D01*
X152498428Y-95210516D01*
X152525780Y-95183909D01*
X152569603Y-95152650D01*
X152704860Y-95056173D01*
X152863096Y-94898489D01*
X152922594Y-94815689D01*
X152990435Y-94721277D01*
X152993453Y-94717077D01*
X153008412Y-94686811D01*
X153090136Y-94521453D01*
X153090137Y-94521451D01*
X153092430Y-94516811D01*
X153157370Y-94303069D01*
X153186529Y-94081590D01*
X153188156Y-94015000D01*
X153169852Y-93792361D01*
X153115431Y-93575702D01*
X153026354Y-93370840D01*
X152910573Y-93191870D01*
X152907822Y-93187617D01*
X152907820Y-93187614D01*
X152905014Y-93183277D01*
X152754670Y-93018051D01*
X152750619Y-93014852D01*
X152750615Y-93014848D01*
X152583414Y-92882800D01*
X152583410Y-92882798D01*
X152579359Y-92879598D01*
X152569831Y-92874338D01*
X152541964Y-92858955D01*
X152537569Y-92856529D01*
X152487598Y-92806097D01*
X152472826Y-92736654D01*
X152497942Y-92670248D01*
X152525294Y-92643641D01*
X152700328Y-92518792D01*
X152708200Y-92512139D01*
X152859052Y-92361812D01*
X152865730Y-92353965D01*
X152990003Y-92181020D01*
X152995313Y-92172183D01*
X153089670Y-91981267D01*
X153093469Y-91971672D01*
X153155377Y-91767910D01*
X153157555Y-91757837D01*
X153158986Y-91746962D01*
X153156775Y-91732778D01*
X153143617Y-91729000D01*
X150508225Y-91729000D01*
X150494694Y-91732973D01*
X150493257Y-91742966D01*
X150523565Y-91877446D01*
X150526645Y-91887275D01*
X150606770Y-92084603D01*
X150611413Y-92093794D01*
X150722694Y-92275388D01*
X150728777Y-92283699D01*
X150868213Y-92444667D01*
X150875580Y-92451883D01*
X151039434Y-92587916D01*
X151047881Y-92593831D01*
X151116969Y-92634203D01*
X151165693Y-92685842D01*
X151178764Y-92755625D01*
X151152033Y-92821396D01*
X151111584Y-92854752D01*
X151098607Y-92861507D01*
X151094474Y-92864610D01*
X151094471Y-92864612D01*
X150925247Y-92991669D01*
X150919965Y-92995635D01*
X150765629Y-93157138D01*
X150762715Y-93161410D01*
X150762714Y-93161411D01*
X150741936Y-93191870D01*
X150639743Y-93341680D01*
X150624003Y-93375590D01*
X150549315Y-93536492D01*
X150545688Y-93544305D01*
X150485989Y-93759570D01*
X150462251Y-93981695D01*
X150462548Y-93986848D01*
X150462548Y-93986851D01*
X150468011Y-94081590D01*
X150475110Y-94204715D01*
X150476247Y-94209761D01*
X150476248Y-94209767D01*
X150496119Y-94297939D01*
X150524222Y-94422639D01*
X150608266Y-94629616D01*
X150610965Y-94634020D01*
X150715141Y-94804020D01*
X150724987Y-94820088D01*
X150871250Y-94988938D01*
X151043126Y-95131632D01*
X151083169Y-95155031D01*
X151116445Y-95174476D01*
X151165169Y-95226114D01*
X151178240Y-95295897D01*
X151151509Y-95361669D01*
X151111055Y-95395027D01*
X151098607Y-95401507D01*
X151094474Y-95404610D01*
X151094471Y-95404612D01*
X150925247Y-95531669D01*
X150919965Y-95535635D01*
X150765629Y-95697138D01*
X150762715Y-95701410D01*
X150762714Y-95701411D01*
X150741936Y-95731870D01*
X150639743Y-95881680D01*
X150624003Y-95915590D01*
X150549315Y-96076492D01*
X150545688Y-96084305D01*
X150485989Y-96299570D01*
X150462251Y-96521695D01*
X150462548Y-96526848D01*
X150462548Y-96526851D01*
X150468011Y-96621590D01*
X150475110Y-96744715D01*
X150476247Y-96749761D01*
X150476248Y-96749767D01*
X150496119Y-96837939D01*
X150524222Y-96962639D01*
X150608266Y-97169616D01*
X150610965Y-97174020D01*
X150715141Y-97344020D01*
X150724987Y-97360088D01*
X150871250Y-97528938D01*
X151043126Y-97671632D01*
X151083169Y-97695031D01*
X151116445Y-97714476D01*
X151165169Y-97766114D01*
X151178240Y-97835897D01*
X151151509Y-97901669D01*
X151111055Y-97935027D01*
X151098607Y-97941507D01*
X151094474Y-97944610D01*
X151094471Y-97944612D01*
X150925247Y-98071669D01*
X150919965Y-98075635D01*
X150765629Y-98237138D01*
X150762715Y-98241410D01*
X150762714Y-98241411D01*
X150741936Y-98271870D01*
X150639743Y-98421680D01*
X150624003Y-98455590D01*
X150549315Y-98616492D01*
X150545688Y-98624305D01*
X150485989Y-98839570D01*
X150462251Y-99061695D01*
X150462548Y-99066848D01*
X150462548Y-99066851D01*
X150468011Y-99161590D01*
X150475110Y-99284715D01*
X150476247Y-99289761D01*
X150476248Y-99289767D01*
X150496119Y-99377939D01*
X150524222Y-99502639D01*
X150608266Y-99709616D01*
X150610965Y-99714020D01*
X150715141Y-99884020D01*
X150724987Y-99900088D01*
X150871250Y-100068938D01*
X151043126Y-100211632D01*
X151083169Y-100235031D01*
X151116445Y-100254476D01*
X151165169Y-100306114D01*
X151178240Y-100375897D01*
X151151509Y-100441669D01*
X151111055Y-100475027D01*
X151098607Y-100481507D01*
X151094474Y-100484610D01*
X151094471Y-100484612D01*
X150925247Y-100611669D01*
X150919965Y-100615635D01*
X150765629Y-100777138D01*
X150762715Y-100781410D01*
X150762714Y-100781411D01*
X150741936Y-100811870D01*
X150639743Y-100961680D01*
X150624003Y-100995590D01*
X150549315Y-101156492D01*
X150545688Y-101164305D01*
X150485989Y-101379570D01*
X150462251Y-101601695D01*
X125621442Y-101601695D01*
X125619852Y-101582361D01*
X125565431Y-101365702D01*
X125476354Y-101160840D01*
X125355014Y-100973277D01*
X125204670Y-100808051D01*
X125200619Y-100804852D01*
X125200615Y-100804848D01*
X125033414Y-100672800D01*
X125033410Y-100672798D01*
X125029359Y-100669598D01*
X124988053Y-100646796D01*
X124938084Y-100596364D01*
X124923312Y-100526921D01*
X124948428Y-100460516D01*
X124975780Y-100433909D01*
X125035042Y-100391638D01*
X125154860Y-100306173D01*
X125313096Y-100148489D01*
X125324565Y-100132529D01*
X125440435Y-99971277D01*
X125443453Y-99967077D01*
X125464320Y-99924857D01*
X125540136Y-99771453D01*
X125540137Y-99771451D01*
X125542430Y-99766811D01*
X125607370Y-99553069D01*
X125636529Y-99331590D01*
X125637551Y-99289767D01*
X125638074Y-99268365D01*
X125638074Y-99268361D01*
X125638156Y-99265000D01*
X125619852Y-99042361D01*
X125565431Y-98825702D01*
X125476354Y-98620840D01*
X125355014Y-98433277D01*
X125204670Y-98268051D01*
X125200619Y-98264852D01*
X125200615Y-98264848D01*
X125033414Y-98132800D01*
X125033410Y-98132798D01*
X125029359Y-98129598D01*
X124988053Y-98106796D01*
X124938084Y-98056364D01*
X124923312Y-97986921D01*
X124948428Y-97920516D01*
X124975780Y-97893909D01*
X125035042Y-97851638D01*
X125154860Y-97766173D01*
X125313096Y-97608489D01*
X125324565Y-97592529D01*
X125440435Y-97431277D01*
X125443453Y-97427077D01*
X125464320Y-97384857D01*
X125540136Y-97231453D01*
X125540137Y-97231451D01*
X125542430Y-97226811D01*
X125607370Y-97013069D01*
X125636529Y-96791590D01*
X125637551Y-96749767D01*
X125638074Y-96728365D01*
X125638074Y-96728361D01*
X125638156Y-96725000D01*
X125619852Y-96502361D01*
X125565431Y-96285702D01*
X125476354Y-96080840D01*
X125355014Y-95893277D01*
X125204670Y-95728051D01*
X125200619Y-95724852D01*
X125200615Y-95724848D01*
X125033414Y-95592800D01*
X125033410Y-95592798D01*
X125029359Y-95589598D01*
X124988053Y-95566796D01*
X124938084Y-95516364D01*
X124923312Y-95446921D01*
X124948428Y-95380516D01*
X124975780Y-95353909D01*
X125035042Y-95311638D01*
X125154860Y-95226173D01*
X125313096Y-95068489D01*
X125324565Y-95052529D01*
X125440435Y-94891277D01*
X125443453Y-94887077D01*
X125464320Y-94844857D01*
X125540136Y-94691453D01*
X125540137Y-94691451D01*
X125542430Y-94686811D01*
X125607370Y-94473069D01*
X125636529Y-94251590D01*
X125637551Y-94209767D01*
X125638074Y-94188365D01*
X125638074Y-94188361D01*
X125638156Y-94185000D01*
X125619852Y-93962361D01*
X125565431Y-93745702D01*
X125476354Y-93540840D01*
X125355014Y-93353277D01*
X125204670Y-93188051D01*
X125200619Y-93184852D01*
X125200615Y-93184848D01*
X125033414Y-93052800D01*
X125033410Y-93052798D01*
X125029359Y-93049598D01*
X124987569Y-93026529D01*
X124937598Y-92976097D01*
X124922826Y-92906654D01*
X124947942Y-92840248D01*
X124975294Y-92813641D01*
X125150328Y-92688792D01*
X125158200Y-92682139D01*
X125309052Y-92531812D01*
X125315730Y-92523965D01*
X125440003Y-92351020D01*
X125445313Y-92342183D01*
X125539670Y-92151267D01*
X125543469Y-92141672D01*
X125605377Y-91937910D01*
X125607555Y-91927837D01*
X125608986Y-91916962D01*
X125606775Y-91902778D01*
X125593617Y-91899000D01*
X124147000Y-91899000D01*
X124078879Y-91878998D01*
X124032386Y-91825342D01*
X124021000Y-91773000D01*
X124021000Y-91372885D01*
X124529000Y-91372885D01*
X124533475Y-91388124D01*
X124534865Y-91389329D01*
X124542548Y-91391000D01*
X125593344Y-91391000D01*
X125606875Y-91387027D01*
X125608180Y-91377947D01*
X125566214Y-91210875D01*
X125565638Y-91209183D01*
X150489389Y-91209183D01*
X150490912Y-91217607D01*
X150503292Y-91221000D01*
X151552885Y-91221000D01*
X151568124Y-91216525D01*
X151569329Y-91215135D01*
X151571000Y-91207452D01*
X151571000Y-91202885D01*
X152079000Y-91202885D01*
X152083475Y-91218124D01*
X152084865Y-91219329D01*
X152092548Y-91221000D01*
X153143344Y-91221000D01*
X153156875Y-91217027D01*
X153158180Y-91207947D01*
X153116214Y-91040875D01*
X153112894Y-91031124D01*
X153027972Y-90835814D01*
X153023105Y-90826739D01*
X152907426Y-90647926D01*
X152901136Y-90639757D01*
X152757806Y-90482240D01*
X152750273Y-90475215D01*
X152583139Y-90343222D01*
X152574552Y-90337517D01*
X152537116Y-90316851D01*
X152487146Y-90266419D01*
X152472374Y-90196976D01*
X152497490Y-90130571D01*
X152524842Y-90103964D01*
X152700327Y-89978792D01*
X152708200Y-89972139D01*
X152859052Y-89821812D01*
X152865730Y-89813965D01*
X152990003Y-89641020D01*
X152995313Y-89632183D01*
X153089670Y-89441267D01*
X153093469Y-89431672D01*
X153155377Y-89227910D01*
X153157555Y-89217837D01*
X153158986Y-89206962D01*
X153156775Y-89192778D01*
X153143617Y-89189000D01*
X152097115Y-89189000D01*
X152081876Y-89193475D01*
X152080671Y-89194865D01*
X152079000Y-89202548D01*
X152079000Y-91202885D01*
X151571000Y-91202885D01*
X151571000Y-89207115D01*
X151566525Y-89191876D01*
X151565135Y-89190671D01*
X151557452Y-89189000D01*
X150508225Y-89189000D01*
X150494694Y-89192973D01*
X150493257Y-89202966D01*
X150523565Y-89337446D01*
X150526645Y-89347275D01*
X150606770Y-89544603D01*
X150611413Y-89553794D01*
X150722694Y-89735388D01*
X150728777Y-89743699D01*
X150868213Y-89904667D01*
X150875580Y-89911883D01*
X151039434Y-90047916D01*
X151047881Y-90053831D01*
X151117479Y-90094501D01*
X151166203Y-90146140D01*
X151179274Y-90215923D01*
X151152543Y-90281694D01*
X151112087Y-90315053D01*
X151103462Y-90319542D01*
X151094738Y-90325036D01*
X150924433Y-90452905D01*
X150916726Y-90459748D01*
X150769590Y-90613717D01*
X150763104Y-90621727D01*
X150643098Y-90797649D01*
X150638000Y-90806623D01*
X150548338Y-90999783D01*
X150544775Y-91009470D01*
X150489389Y-91209183D01*
X125565638Y-91209183D01*
X125562894Y-91201124D01*
X125477972Y-91005814D01*
X125473105Y-90996739D01*
X125357426Y-90817926D01*
X125351136Y-90809757D01*
X125207806Y-90652240D01*
X125200273Y-90645215D01*
X125033139Y-90513222D01*
X125024552Y-90507517D01*
X124987116Y-90486851D01*
X124937146Y-90436419D01*
X124922374Y-90366976D01*
X124947490Y-90300571D01*
X124974842Y-90273964D01*
X125150327Y-90148792D01*
X125158200Y-90142139D01*
X125309052Y-89991812D01*
X125315730Y-89983965D01*
X125440003Y-89811020D01*
X125445313Y-89802183D01*
X125539670Y-89611267D01*
X125543469Y-89601672D01*
X125605377Y-89397910D01*
X125607555Y-89387837D01*
X125608986Y-89376962D01*
X125606775Y-89362778D01*
X125593617Y-89359000D01*
X124547115Y-89359000D01*
X124531876Y-89363475D01*
X124530671Y-89364865D01*
X124529000Y-89372548D01*
X124529000Y-91372885D01*
X124021000Y-91372885D01*
X124021000Y-88832885D01*
X124529000Y-88832885D01*
X124533475Y-88848124D01*
X124534865Y-88849329D01*
X124542548Y-88851000D01*
X125593344Y-88851000D01*
X125606875Y-88847027D01*
X125608180Y-88837947D01*
X125566214Y-88670875D01*
X125565638Y-88669183D01*
X150489389Y-88669183D01*
X150490912Y-88677607D01*
X150503292Y-88681000D01*
X151552885Y-88681000D01*
X151568124Y-88676525D01*
X151569329Y-88675135D01*
X151571000Y-88667452D01*
X151571000Y-88662885D01*
X152079000Y-88662885D01*
X152083475Y-88678124D01*
X152084865Y-88679329D01*
X152092548Y-88681000D01*
X153143344Y-88681000D01*
X153156875Y-88677027D01*
X153158180Y-88667947D01*
X153116214Y-88500875D01*
X153112894Y-88491124D01*
X153027972Y-88295814D01*
X153023105Y-88286739D01*
X152907426Y-88107926D01*
X152901136Y-88099757D01*
X152757806Y-87942240D01*
X152750273Y-87935215D01*
X152583139Y-87803222D01*
X152574552Y-87797517D01*
X152537116Y-87776851D01*
X152487146Y-87726419D01*
X152472374Y-87656976D01*
X152497490Y-87590571D01*
X152524842Y-87563964D01*
X152700327Y-87438792D01*
X152708200Y-87432139D01*
X152859052Y-87281812D01*
X152865730Y-87273965D01*
X152990003Y-87101020D01*
X152995313Y-87092183D01*
X153089670Y-86901267D01*
X153093469Y-86891672D01*
X153155377Y-86687910D01*
X153157555Y-86677837D01*
X153158986Y-86666962D01*
X153156775Y-86652778D01*
X153143617Y-86649000D01*
X152097115Y-86649000D01*
X152081876Y-86653475D01*
X152080671Y-86654865D01*
X152079000Y-86662548D01*
X152079000Y-88662885D01*
X151571000Y-88662885D01*
X151571000Y-86667115D01*
X151566525Y-86651876D01*
X151565135Y-86650671D01*
X151557452Y-86649000D01*
X150508225Y-86649000D01*
X150494694Y-86652973D01*
X150493257Y-86662966D01*
X150523565Y-86797446D01*
X150526645Y-86807275D01*
X150606770Y-87004603D01*
X150611413Y-87013794D01*
X150722694Y-87195388D01*
X150728777Y-87203699D01*
X150868213Y-87364667D01*
X150875580Y-87371883D01*
X151039434Y-87507916D01*
X151047881Y-87513831D01*
X151117479Y-87554501D01*
X151166203Y-87606140D01*
X151179274Y-87675923D01*
X151152543Y-87741694D01*
X151112087Y-87775053D01*
X151103462Y-87779542D01*
X151094738Y-87785036D01*
X150924433Y-87912905D01*
X150916726Y-87919748D01*
X150769590Y-88073717D01*
X150763104Y-88081727D01*
X150643098Y-88257649D01*
X150638000Y-88266623D01*
X150548338Y-88459783D01*
X150544775Y-88469470D01*
X150489389Y-88669183D01*
X125565638Y-88669183D01*
X125562894Y-88661124D01*
X125477972Y-88465814D01*
X125473105Y-88456739D01*
X125357426Y-88277926D01*
X125351136Y-88269757D01*
X125207806Y-88112240D01*
X125200273Y-88105215D01*
X125033139Y-87973222D01*
X125024552Y-87967517D01*
X124987116Y-87946851D01*
X124937146Y-87896419D01*
X124922374Y-87826976D01*
X124947490Y-87760571D01*
X124974842Y-87733964D01*
X125150327Y-87608792D01*
X125158200Y-87602139D01*
X125309052Y-87451812D01*
X125315730Y-87443965D01*
X125440003Y-87271020D01*
X125445313Y-87262183D01*
X125539670Y-87071267D01*
X125543469Y-87061672D01*
X125605377Y-86857910D01*
X125607555Y-86847837D01*
X125608986Y-86836962D01*
X125606775Y-86822778D01*
X125593617Y-86819000D01*
X124547115Y-86819000D01*
X124531876Y-86823475D01*
X124530671Y-86824865D01*
X124529000Y-86832548D01*
X124529000Y-88832885D01*
X124021000Y-88832885D01*
X124021000Y-86292885D01*
X124529000Y-86292885D01*
X124533475Y-86308124D01*
X124534865Y-86309329D01*
X124542548Y-86311000D01*
X125593344Y-86311000D01*
X125606875Y-86307027D01*
X125608180Y-86297947D01*
X125566214Y-86130875D01*
X125565638Y-86129183D01*
X150489389Y-86129183D01*
X150490912Y-86137607D01*
X150503292Y-86141000D01*
X151552885Y-86141000D01*
X151568124Y-86136525D01*
X151569329Y-86135135D01*
X151571000Y-86127452D01*
X151571000Y-86122885D01*
X152079000Y-86122885D01*
X152083475Y-86138124D01*
X152084865Y-86139329D01*
X152092548Y-86141000D01*
X153143344Y-86141000D01*
X153156875Y-86137027D01*
X153158180Y-86127947D01*
X153116214Y-85960875D01*
X153112894Y-85951124D01*
X153027972Y-85755814D01*
X153023105Y-85746739D01*
X152907426Y-85567926D01*
X152901136Y-85559757D01*
X152757806Y-85402240D01*
X152750273Y-85395215D01*
X152583139Y-85263222D01*
X152574552Y-85257517D01*
X152537116Y-85236851D01*
X152487146Y-85186419D01*
X152472374Y-85116976D01*
X152497490Y-85050571D01*
X152524842Y-85023964D01*
X152700327Y-84898792D01*
X152708200Y-84892139D01*
X152859052Y-84741812D01*
X152865730Y-84733965D01*
X152990003Y-84561020D01*
X152995313Y-84552183D01*
X153089670Y-84361267D01*
X153093469Y-84351672D01*
X153155377Y-84147910D01*
X153157555Y-84137837D01*
X153158986Y-84126962D01*
X153156775Y-84112778D01*
X153143617Y-84109000D01*
X152097115Y-84109000D01*
X152081876Y-84113475D01*
X152080671Y-84114865D01*
X152079000Y-84122548D01*
X152079000Y-86122885D01*
X151571000Y-86122885D01*
X151571000Y-84127115D01*
X151566525Y-84111876D01*
X151565135Y-84110671D01*
X151557452Y-84109000D01*
X150508225Y-84109000D01*
X150494694Y-84112973D01*
X150493257Y-84122966D01*
X150523565Y-84257446D01*
X150526645Y-84267275D01*
X150606770Y-84464603D01*
X150611413Y-84473794D01*
X150722694Y-84655388D01*
X150728777Y-84663699D01*
X150868213Y-84824667D01*
X150875580Y-84831883D01*
X151039434Y-84967916D01*
X151047881Y-84973831D01*
X151117479Y-85014501D01*
X151166203Y-85066140D01*
X151179274Y-85135923D01*
X151152543Y-85201694D01*
X151112087Y-85235053D01*
X151103462Y-85239542D01*
X151094738Y-85245036D01*
X150924433Y-85372905D01*
X150916726Y-85379748D01*
X150769590Y-85533717D01*
X150763104Y-85541727D01*
X150643098Y-85717649D01*
X150638000Y-85726623D01*
X150548338Y-85919783D01*
X150544775Y-85929470D01*
X150489389Y-86129183D01*
X125565638Y-86129183D01*
X125562894Y-86121124D01*
X125477972Y-85925814D01*
X125473105Y-85916739D01*
X125357426Y-85737926D01*
X125351136Y-85729757D01*
X125207806Y-85572240D01*
X125200273Y-85565215D01*
X125033139Y-85433222D01*
X125024552Y-85427517D01*
X124987116Y-85406851D01*
X124937146Y-85356419D01*
X124922374Y-85286976D01*
X124947490Y-85220571D01*
X124974842Y-85193964D01*
X125150327Y-85068792D01*
X125158200Y-85062139D01*
X125309052Y-84911812D01*
X125315730Y-84903965D01*
X125440003Y-84731020D01*
X125445313Y-84722183D01*
X125539670Y-84531267D01*
X125543469Y-84521672D01*
X125605377Y-84317910D01*
X125607555Y-84307837D01*
X125608986Y-84296962D01*
X125606775Y-84282778D01*
X125593617Y-84279000D01*
X124547115Y-84279000D01*
X124531876Y-84283475D01*
X124530671Y-84284865D01*
X124529000Y-84292548D01*
X124529000Y-86292885D01*
X124021000Y-86292885D01*
X124021000Y-83897000D01*
X124041002Y-83828879D01*
X124094658Y-83782386D01*
X124147000Y-83771000D01*
X125593344Y-83771000D01*
X125606875Y-83767027D01*
X125608180Y-83757947D01*
X125566214Y-83590875D01*
X125562894Y-83581124D01*
X125477972Y-83385814D01*
X125473105Y-83376739D01*
X125357426Y-83197926D01*
X125351136Y-83189757D01*
X125207806Y-83032240D01*
X125200273Y-83025215D01*
X125033139Y-82893222D01*
X125024556Y-82887520D01*
X124987602Y-82867120D01*
X124937631Y-82816687D01*
X124922859Y-82747245D01*
X124947975Y-82680839D01*
X124975327Y-82654232D01*
X125035042Y-82611638D01*
X125154860Y-82526173D01*
X125313096Y-82368489D01*
X125324565Y-82352529D01*
X125440435Y-82191277D01*
X125443453Y-82187077D01*
X125464320Y-82144857D01*
X125540136Y-81991453D01*
X125540137Y-81991451D01*
X125542430Y-81986811D01*
X125607370Y-81773069D01*
X125636529Y-81551590D01*
X125637551Y-81509767D01*
X125638074Y-81488365D01*
X125638074Y-81488361D01*
X125638156Y-81485000D01*
X125621442Y-81281695D01*
X150462251Y-81281695D01*
X150462548Y-81286848D01*
X150462548Y-81286851D01*
X150468011Y-81381590D01*
X150475110Y-81504715D01*
X150476247Y-81509761D01*
X150476248Y-81509767D01*
X150496119Y-81597939D01*
X150524222Y-81722639D01*
X150608266Y-81929616D01*
X150610965Y-81934020D01*
X150715141Y-82104020D01*
X150724987Y-82120088D01*
X150871250Y-82288938D01*
X151043126Y-82431632D01*
X151083169Y-82455031D01*
X151116955Y-82474774D01*
X151165679Y-82526412D01*
X151178750Y-82596195D01*
X151152019Y-82661967D01*
X151111562Y-82695327D01*
X151103457Y-82699546D01*
X151094738Y-82705036D01*
X150924433Y-82832905D01*
X150916726Y-82839748D01*
X150769590Y-82993717D01*
X150763104Y-83001727D01*
X150643098Y-83177649D01*
X150638000Y-83186623D01*
X150548338Y-83379783D01*
X150544775Y-83389470D01*
X150489389Y-83589183D01*
X150490912Y-83597607D01*
X150503292Y-83601000D01*
X153143344Y-83601000D01*
X153156875Y-83597027D01*
X153158180Y-83587947D01*
X153116214Y-83420875D01*
X153112894Y-83411124D01*
X153027972Y-83215814D01*
X153023105Y-83206739D01*
X152907426Y-83027926D01*
X152901136Y-83019757D01*
X152757806Y-82862240D01*
X152750273Y-82855215D01*
X152583139Y-82723222D01*
X152574556Y-82717520D01*
X152537602Y-82697120D01*
X152487631Y-82646687D01*
X152472859Y-82577245D01*
X152497975Y-82510839D01*
X152525327Y-82484232D01*
X152566265Y-82455031D01*
X152704860Y-82356173D01*
X152863096Y-82198489D01*
X152922594Y-82115689D01*
X152990435Y-82021277D01*
X152993453Y-82017077D01*
X153008412Y-81986811D01*
X153090136Y-81821453D01*
X153090137Y-81821451D01*
X153092430Y-81816811D01*
X153157370Y-81603069D01*
X153186529Y-81381590D01*
X153188156Y-81315000D01*
X153169852Y-81092361D01*
X153115431Y-80875702D01*
X153026354Y-80670840D01*
X152910573Y-80491870D01*
X152907822Y-80487617D01*
X152907820Y-80487614D01*
X152905014Y-80483277D01*
X152754670Y-80318051D01*
X152750619Y-80314852D01*
X152750615Y-80314848D01*
X152583414Y-80182800D01*
X152583410Y-80182798D01*
X152579359Y-80179598D01*
X152538053Y-80156796D01*
X152488084Y-80106364D01*
X152473312Y-80036921D01*
X152498428Y-79970516D01*
X152525780Y-79943909D01*
X152569603Y-79912650D01*
X152704860Y-79816173D01*
X152863096Y-79658489D01*
X152922594Y-79575689D01*
X152990435Y-79481277D01*
X152993453Y-79477077D01*
X153008412Y-79446811D01*
X153090136Y-79281453D01*
X153090137Y-79281451D01*
X153092430Y-79276811D01*
X153157370Y-79063069D01*
X153186529Y-78841590D01*
X153188156Y-78775000D01*
X153169852Y-78552361D01*
X153115431Y-78335702D01*
X153026354Y-78130840D01*
X152910573Y-77951870D01*
X152907822Y-77947617D01*
X152907820Y-77947614D01*
X152905014Y-77943277D01*
X152754670Y-77778051D01*
X152750619Y-77774852D01*
X152750615Y-77774848D01*
X152583414Y-77642800D01*
X152583410Y-77642798D01*
X152579359Y-77639598D01*
X152538053Y-77616796D01*
X152488084Y-77566364D01*
X152473312Y-77496921D01*
X152498428Y-77430516D01*
X152525780Y-77403909D01*
X152569603Y-77372650D01*
X152704860Y-77276173D01*
X152863096Y-77118489D01*
X152922594Y-77035689D01*
X152990435Y-76941277D01*
X152993453Y-76937077D01*
X153008412Y-76906811D01*
X153090136Y-76741453D01*
X153090137Y-76741451D01*
X153092430Y-76736811D01*
X153157370Y-76523069D01*
X153186529Y-76301590D01*
X153188156Y-76235000D01*
X153169852Y-76012361D01*
X153115431Y-75795702D01*
X153026354Y-75590840D01*
X152910573Y-75411870D01*
X152907822Y-75407617D01*
X152907820Y-75407614D01*
X152905014Y-75403277D01*
X152754670Y-75238051D01*
X152750619Y-75234852D01*
X152750615Y-75234848D01*
X152583414Y-75102800D01*
X152583410Y-75102798D01*
X152579359Y-75099598D01*
X152538053Y-75076796D01*
X152488084Y-75026364D01*
X152473312Y-74956921D01*
X152498428Y-74890516D01*
X152525780Y-74863909D01*
X152569603Y-74832650D01*
X152704860Y-74736173D01*
X152863096Y-74578489D01*
X152922594Y-74495689D01*
X152990435Y-74401277D01*
X152993453Y-74397077D01*
X153008412Y-74366811D01*
X153090136Y-74201453D01*
X153090137Y-74201451D01*
X153092430Y-74196811D01*
X153157370Y-73983069D01*
X153186529Y-73761590D01*
X153188156Y-73695000D01*
X153169852Y-73472361D01*
X153115431Y-73255702D01*
X153026354Y-73050840D01*
X152910573Y-72871870D01*
X152907822Y-72867617D01*
X152907820Y-72867614D01*
X152905014Y-72863277D01*
X152754670Y-72698051D01*
X152750619Y-72694852D01*
X152750615Y-72694848D01*
X152583414Y-72562800D01*
X152583410Y-72562798D01*
X152579359Y-72559598D01*
X152538053Y-72536796D01*
X152488084Y-72486364D01*
X152473312Y-72416921D01*
X152498428Y-72350516D01*
X152525780Y-72323909D01*
X152569603Y-72292650D01*
X152704860Y-72196173D01*
X152863096Y-72038489D01*
X152922594Y-71955689D01*
X152990435Y-71861277D01*
X152993453Y-71857077D01*
X153008412Y-71826811D01*
X153090136Y-71661453D01*
X153090137Y-71661451D01*
X153092430Y-71656811D01*
X153157370Y-71443069D01*
X153186529Y-71221590D01*
X153188156Y-71155000D01*
X153169852Y-70932361D01*
X153115431Y-70715702D01*
X153026354Y-70510840D01*
X152910573Y-70331870D01*
X152907822Y-70327617D01*
X152907820Y-70327614D01*
X152905014Y-70323277D01*
X152754670Y-70158051D01*
X152750619Y-70154852D01*
X152750615Y-70154848D01*
X152583414Y-70022800D01*
X152583410Y-70022798D01*
X152579359Y-70019598D01*
X152538053Y-69996796D01*
X152488084Y-69946364D01*
X152473312Y-69876921D01*
X152498428Y-69810516D01*
X152525780Y-69783909D01*
X152569603Y-69752650D01*
X152704860Y-69656173D01*
X152863096Y-69498489D01*
X152922594Y-69415689D01*
X152990435Y-69321277D01*
X152993453Y-69317077D01*
X153008412Y-69286811D01*
X153090136Y-69121453D01*
X153090137Y-69121451D01*
X153092430Y-69116811D01*
X153157370Y-68903069D01*
X153186529Y-68681590D01*
X153188156Y-68615000D01*
X153169852Y-68392361D01*
X153115431Y-68175702D01*
X153026354Y-67970840D01*
X152910573Y-67791870D01*
X152907822Y-67787617D01*
X152907820Y-67787614D01*
X152905014Y-67783277D01*
X152754670Y-67618051D01*
X152750619Y-67614852D01*
X152750615Y-67614848D01*
X152583414Y-67482800D01*
X152583410Y-67482798D01*
X152579359Y-67479598D01*
X152538053Y-67456796D01*
X152488084Y-67406364D01*
X152473312Y-67336921D01*
X152498428Y-67270516D01*
X152525780Y-67243909D01*
X152569603Y-67212650D01*
X152704860Y-67116173D01*
X152863096Y-66958489D01*
X152922594Y-66875689D01*
X152990435Y-66781277D01*
X152993453Y-66777077D01*
X153008412Y-66746811D01*
X153090136Y-66581453D01*
X153090137Y-66581451D01*
X153092430Y-66576811D01*
X153157370Y-66363069D01*
X153186529Y-66141590D01*
X153188156Y-66075000D01*
X153169852Y-65852361D01*
X153115431Y-65635702D01*
X153026354Y-65430840D01*
X152910573Y-65251870D01*
X152907822Y-65247617D01*
X152907820Y-65247614D01*
X152905014Y-65243277D01*
X152754670Y-65078051D01*
X152750619Y-65074852D01*
X152750615Y-65074848D01*
X152583414Y-64942800D01*
X152583410Y-64942798D01*
X152579359Y-64939598D01*
X152538053Y-64916796D01*
X152488084Y-64866364D01*
X152473312Y-64796921D01*
X152498428Y-64730516D01*
X152525780Y-64703909D01*
X152569603Y-64672650D01*
X152704860Y-64576173D01*
X152863096Y-64418489D01*
X152922594Y-64335689D01*
X152990435Y-64241277D01*
X152993453Y-64237077D01*
X153008412Y-64206811D01*
X153090136Y-64041453D01*
X153090137Y-64041451D01*
X153092430Y-64036811D01*
X153157370Y-63823069D01*
X153186529Y-63601590D01*
X153188156Y-63535000D01*
X153169852Y-63312361D01*
X153115431Y-63095702D01*
X153026354Y-62890840D01*
X152910573Y-62711870D01*
X152907822Y-62707617D01*
X152907820Y-62707614D01*
X152905014Y-62703277D01*
X152754670Y-62538051D01*
X152750619Y-62534852D01*
X152750615Y-62534848D01*
X152583414Y-62402800D01*
X152583410Y-62402798D01*
X152579359Y-62399598D01*
X152538053Y-62376796D01*
X152488084Y-62326364D01*
X152473312Y-62256921D01*
X152498428Y-62190516D01*
X152525780Y-62163909D01*
X152569603Y-62132650D01*
X152704860Y-62036173D01*
X152863096Y-61878489D01*
X152922594Y-61795689D01*
X152990435Y-61701277D01*
X152993453Y-61697077D01*
X153008412Y-61666811D01*
X153090136Y-61501453D01*
X153090137Y-61501451D01*
X153092430Y-61496811D01*
X153157370Y-61283069D01*
X153186529Y-61061590D01*
X153188156Y-60995000D01*
X153169852Y-60772361D01*
X153115431Y-60555702D01*
X153026354Y-60350840D01*
X152986906Y-60289862D01*
X152907822Y-60167617D01*
X152907820Y-60167614D01*
X152905014Y-60163277D01*
X152901532Y-60159450D01*
X152757798Y-60001488D01*
X152726746Y-59937642D01*
X152735141Y-59867143D01*
X152780317Y-59812375D01*
X152806761Y-59798706D01*
X152913297Y-59758767D01*
X152921705Y-59755615D01*
X153038261Y-59668261D01*
X153125615Y-59551705D01*
X153176745Y-59415316D01*
X153183500Y-59353134D01*
X153183500Y-57556866D01*
X153176745Y-57494684D01*
X153125615Y-57358295D01*
X153038261Y-57241739D01*
X152921705Y-57154385D01*
X152785316Y-57103255D01*
X152723134Y-57096500D01*
X150926866Y-57096500D01*
X150864684Y-57103255D01*
X150728295Y-57154385D01*
X150611739Y-57241739D01*
X150524385Y-57358295D01*
X150473255Y-57494684D01*
X150466500Y-57556866D01*
X150466500Y-59353134D01*
X150473255Y-59415316D01*
X150524385Y-59551705D01*
X150611739Y-59668261D01*
X150728295Y-59755615D01*
X150736704Y-59758767D01*
X150736705Y-59758768D01*
X150845451Y-59799535D01*
X150902216Y-59842176D01*
X150926916Y-59908738D01*
X150911709Y-59978087D01*
X150892316Y-60004568D01*
X150765629Y-60137138D01*
X150762715Y-60141410D01*
X150762714Y-60141411D01*
X150742197Y-60171488D01*
X150639743Y-60321680D01*
X150624003Y-60355590D01*
X150549315Y-60516492D01*
X150545688Y-60524305D01*
X150485989Y-60739570D01*
X150462251Y-60961695D01*
X150462548Y-60966848D01*
X150462548Y-60966851D01*
X150468011Y-61061590D01*
X150475110Y-61184715D01*
X150476247Y-61189761D01*
X150476248Y-61189767D01*
X150496119Y-61277939D01*
X150524222Y-61402639D01*
X150608266Y-61609616D01*
X150610965Y-61614020D01*
X150715141Y-61784020D01*
X150724987Y-61800088D01*
X150871250Y-61968938D01*
X151043126Y-62111632D01*
X151083169Y-62135031D01*
X151116445Y-62154476D01*
X151165169Y-62206114D01*
X151178240Y-62275897D01*
X151151509Y-62341669D01*
X151111055Y-62375027D01*
X151098607Y-62381507D01*
X151094474Y-62384610D01*
X151094471Y-62384612D01*
X150925247Y-62511669D01*
X150919965Y-62515635D01*
X150765629Y-62677138D01*
X150762715Y-62681410D01*
X150762714Y-62681411D01*
X150741936Y-62711870D01*
X150639743Y-62861680D01*
X150624003Y-62895590D01*
X150549315Y-63056492D01*
X150545688Y-63064305D01*
X150485989Y-63279570D01*
X150462251Y-63501695D01*
X150462548Y-63506848D01*
X150462548Y-63506851D01*
X150468011Y-63601590D01*
X150475110Y-63724715D01*
X150476247Y-63729761D01*
X150476248Y-63729767D01*
X150496119Y-63817939D01*
X150524222Y-63942639D01*
X150608266Y-64149616D01*
X150610965Y-64154020D01*
X150715141Y-64324020D01*
X150724987Y-64340088D01*
X150871250Y-64508938D01*
X151043126Y-64651632D01*
X151083169Y-64675031D01*
X151116445Y-64694476D01*
X151165169Y-64746114D01*
X151178240Y-64815897D01*
X151151509Y-64881669D01*
X151111055Y-64915027D01*
X151098607Y-64921507D01*
X151094474Y-64924610D01*
X151094471Y-64924612D01*
X150925247Y-65051669D01*
X150919965Y-65055635D01*
X150765629Y-65217138D01*
X150762715Y-65221410D01*
X150762714Y-65221411D01*
X150741936Y-65251870D01*
X150639743Y-65401680D01*
X150624003Y-65435590D01*
X150549315Y-65596492D01*
X150545688Y-65604305D01*
X150485989Y-65819570D01*
X150462251Y-66041695D01*
X150462548Y-66046848D01*
X150462548Y-66046851D01*
X150468011Y-66141590D01*
X150475110Y-66264715D01*
X150476247Y-66269761D01*
X150476248Y-66269767D01*
X150496119Y-66357939D01*
X150524222Y-66482639D01*
X150608266Y-66689616D01*
X150610965Y-66694020D01*
X150715141Y-66864020D01*
X150724987Y-66880088D01*
X150871250Y-67048938D01*
X151043126Y-67191632D01*
X151083169Y-67215031D01*
X151116445Y-67234476D01*
X151165169Y-67286114D01*
X151178240Y-67355897D01*
X151151509Y-67421669D01*
X151111055Y-67455027D01*
X151098607Y-67461507D01*
X151094474Y-67464610D01*
X151094471Y-67464612D01*
X150925247Y-67591669D01*
X150919965Y-67595635D01*
X150765629Y-67757138D01*
X150762715Y-67761410D01*
X150762714Y-67761411D01*
X150741936Y-67791870D01*
X150639743Y-67941680D01*
X150624003Y-67975590D01*
X150549315Y-68136492D01*
X150545688Y-68144305D01*
X150485989Y-68359570D01*
X150462251Y-68581695D01*
X150462548Y-68586848D01*
X150462548Y-68586851D01*
X150468011Y-68681590D01*
X150475110Y-68804715D01*
X150476247Y-68809761D01*
X150476248Y-68809767D01*
X150496119Y-68897939D01*
X150524222Y-69022639D01*
X150608266Y-69229616D01*
X150610965Y-69234020D01*
X150715141Y-69404020D01*
X150724987Y-69420088D01*
X150871250Y-69588938D01*
X151043126Y-69731632D01*
X151083169Y-69755031D01*
X151116445Y-69774476D01*
X151165169Y-69826114D01*
X151178240Y-69895897D01*
X151151509Y-69961669D01*
X151111055Y-69995027D01*
X151098607Y-70001507D01*
X151094474Y-70004610D01*
X151094471Y-70004612D01*
X150925247Y-70131669D01*
X150919965Y-70135635D01*
X150765629Y-70297138D01*
X150762715Y-70301410D01*
X150762714Y-70301411D01*
X150741936Y-70331870D01*
X150639743Y-70481680D01*
X150624003Y-70515590D01*
X150549315Y-70676492D01*
X150545688Y-70684305D01*
X150485989Y-70899570D01*
X150462251Y-71121695D01*
X150462548Y-71126848D01*
X150462548Y-71126851D01*
X150468011Y-71221590D01*
X150475110Y-71344715D01*
X150476247Y-71349761D01*
X150476248Y-71349767D01*
X150496119Y-71437939D01*
X150524222Y-71562639D01*
X150608266Y-71769616D01*
X150610965Y-71774020D01*
X150715141Y-71944020D01*
X150724987Y-71960088D01*
X150871250Y-72128938D01*
X151043126Y-72271632D01*
X151083169Y-72295031D01*
X151116445Y-72314476D01*
X151165169Y-72366114D01*
X151178240Y-72435897D01*
X151151509Y-72501669D01*
X151111055Y-72535027D01*
X151098607Y-72541507D01*
X151094474Y-72544610D01*
X151094471Y-72544612D01*
X150925247Y-72671669D01*
X150919965Y-72675635D01*
X150765629Y-72837138D01*
X150762715Y-72841410D01*
X150762714Y-72841411D01*
X150741936Y-72871870D01*
X150639743Y-73021680D01*
X150624003Y-73055590D01*
X150549315Y-73216492D01*
X150545688Y-73224305D01*
X150485989Y-73439570D01*
X150462251Y-73661695D01*
X150462548Y-73666848D01*
X150462548Y-73666851D01*
X150468011Y-73761590D01*
X150475110Y-73884715D01*
X150476247Y-73889761D01*
X150476248Y-73889767D01*
X150496119Y-73977939D01*
X150524222Y-74102639D01*
X150608266Y-74309616D01*
X150610965Y-74314020D01*
X150715141Y-74484020D01*
X150724987Y-74500088D01*
X150871250Y-74668938D01*
X151043126Y-74811632D01*
X151083169Y-74835031D01*
X151116445Y-74854476D01*
X151165169Y-74906114D01*
X151178240Y-74975897D01*
X151151509Y-75041669D01*
X151111055Y-75075027D01*
X151098607Y-75081507D01*
X151094474Y-75084610D01*
X151094471Y-75084612D01*
X150925247Y-75211669D01*
X150919965Y-75215635D01*
X150765629Y-75377138D01*
X150762715Y-75381410D01*
X150762714Y-75381411D01*
X150741936Y-75411870D01*
X150639743Y-75561680D01*
X150624003Y-75595590D01*
X150549315Y-75756492D01*
X150545688Y-75764305D01*
X150485989Y-75979570D01*
X150462251Y-76201695D01*
X150462548Y-76206848D01*
X150462548Y-76206851D01*
X150468011Y-76301590D01*
X150475110Y-76424715D01*
X150476247Y-76429761D01*
X150476248Y-76429767D01*
X150496119Y-76517939D01*
X150524222Y-76642639D01*
X150608266Y-76849616D01*
X150610965Y-76854020D01*
X150715141Y-77024020D01*
X150724987Y-77040088D01*
X150871250Y-77208938D01*
X151043126Y-77351632D01*
X151083169Y-77375031D01*
X151116445Y-77394476D01*
X151165169Y-77446114D01*
X151178240Y-77515897D01*
X151151509Y-77581669D01*
X151111055Y-77615027D01*
X151098607Y-77621507D01*
X151094474Y-77624610D01*
X151094471Y-77624612D01*
X150925247Y-77751669D01*
X150919965Y-77755635D01*
X150765629Y-77917138D01*
X150762715Y-77921410D01*
X150762714Y-77921411D01*
X150741936Y-77951870D01*
X150639743Y-78101680D01*
X150624003Y-78135590D01*
X150549315Y-78296492D01*
X150545688Y-78304305D01*
X150485989Y-78519570D01*
X150462251Y-78741695D01*
X150462548Y-78746848D01*
X150462548Y-78746851D01*
X150468011Y-78841590D01*
X150475110Y-78964715D01*
X150476247Y-78969761D01*
X150476248Y-78969767D01*
X150496119Y-79057939D01*
X150524222Y-79182639D01*
X150608266Y-79389616D01*
X150610965Y-79394020D01*
X150715141Y-79564020D01*
X150724987Y-79580088D01*
X150871250Y-79748938D01*
X151043126Y-79891632D01*
X151083169Y-79915031D01*
X151116445Y-79934476D01*
X151165169Y-79986114D01*
X151178240Y-80055897D01*
X151151509Y-80121669D01*
X151111055Y-80155027D01*
X151098607Y-80161507D01*
X151094474Y-80164610D01*
X151094471Y-80164612D01*
X150925247Y-80291669D01*
X150919965Y-80295635D01*
X150765629Y-80457138D01*
X150762715Y-80461410D01*
X150762714Y-80461411D01*
X150741936Y-80491870D01*
X150639743Y-80641680D01*
X150624003Y-80675590D01*
X150549315Y-80836492D01*
X150545688Y-80844305D01*
X150485989Y-81059570D01*
X150462251Y-81281695D01*
X125621442Y-81281695D01*
X125619852Y-81262361D01*
X125565431Y-81045702D01*
X125476354Y-80840840D01*
X125355014Y-80653277D01*
X125204670Y-80488051D01*
X125200619Y-80484852D01*
X125200615Y-80484848D01*
X125033414Y-80352800D01*
X125033410Y-80352798D01*
X125029359Y-80349598D01*
X124988053Y-80326796D01*
X124938084Y-80276364D01*
X124923312Y-80206921D01*
X124948428Y-80140516D01*
X124975780Y-80113909D01*
X125035042Y-80071638D01*
X125154860Y-79986173D01*
X125313096Y-79828489D01*
X125324565Y-79812529D01*
X125440435Y-79651277D01*
X125443453Y-79647077D01*
X125464320Y-79604857D01*
X125540136Y-79451453D01*
X125540137Y-79451451D01*
X125542430Y-79446811D01*
X125607370Y-79233069D01*
X125636529Y-79011590D01*
X125637551Y-78969767D01*
X125638074Y-78948365D01*
X125638074Y-78948361D01*
X125638156Y-78945000D01*
X125619852Y-78722361D01*
X125565431Y-78505702D01*
X125476354Y-78300840D01*
X125355014Y-78113277D01*
X125204670Y-77948051D01*
X125200619Y-77944852D01*
X125200615Y-77944848D01*
X125033414Y-77812800D01*
X125033410Y-77812798D01*
X125029359Y-77809598D01*
X124988053Y-77786796D01*
X124938084Y-77736364D01*
X124923312Y-77666921D01*
X124948428Y-77600516D01*
X124975780Y-77573909D01*
X125035042Y-77531638D01*
X125154860Y-77446173D01*
X125313096Y-77288489D01*
X125324565Y-77272529D01*
X125440435Y-77111277D01*
X125443453Y-77107077D01*
X125464320Y-77064857D01*
X125540136Y-76911453D01*
X125540137Y-76911451D01*
X125542430Y-76906811D01*
X125607370Y-76693069D01*
X125636529Y-76471590D01*
X125637551Y-76429767D01*
X125638074Y-76408365D01*
X125638074Y-76408361D01*
X125638156Y-76405000D01*
X125619852Y-76182361D01*
X125565431Y-75965702D01*
X125476354Y-75760840D01*
X125355014Y-75573277D01*
X125204670Y-75408051D01*
X125200619Y-75404852D01*
X125200615Y-75404848D01*
X125033414Y-75272800D01*
X125033410Y-75272798D01*
X125029359Y-75269598D01*
X124988053Y-75246796D01*
X124938084Y-75196364D01*
X124923312Y-75126921D01*
X124948428Y-75060516D01*
X124975780Y-75033909D01*
X125035042Y-74991638D01*
X125154860Y-74906173D01*
X125313096Y-74748489D01*
X125324565Y-74732529D01*
X125440435Y-74571277D01*
X125443453Y-74567077D01*
X125464320Y-74524857D01*
X125540136Y-74371453D01*
X125540137Y-74371451D01*
X125542430Y-74366811D01*
X125607370Y-74153069D01*
X125636529Y-73931590D01*
X125637551Y-73889767D01*
X125638074Y-73868365D01*
X125638074Y-73868361D01*
X125638156Y-73865000D01*
X125619852Y-73642361D01*
X125565431Y-73425702D01*
X125476354Y-73220840D01*
X125355014Y-73033277D01*
X125204670Y-72868051D01*
X125200619Y-72864852D01*
X125200615Y-72864848D01*
X125033414Y-72732800D01*
X125033410Y-72732798D01*
X125029359Y-72729598D01*
X124988053Y-72706796D01*
X124938084Y-72656364D01*
X124923312Y-72586921D01*
X124948428Y-72520516D01*
X124975780Y-72493909D01*
X125035042Y-72451638D01*
X125154860Y-72366173D01*
X125313096Y-72208489D01*
X125324565Y-72192529D01*
X125440435Y-72031277D01*
X125443453Y-72027077D01*
X125464320Y-71984857D01*
X125540136Y-71831453D01*
X125540137Y-71831451D01*
X125542430Y-71826811D01*
X125607370Y-71613069D01*
X125636529Y-71391590D01*
X125637551Y-71349767D01*
X125638074Y-71328365D01*
X125638074Y-71328361D01*
X125638156Y-71325000D01*
X125619852Y-71102361D01*
X125565431Y-70885702D01*
X125476354Y-70680840D01*
X125355014Y-70493277D01*
X125204670Y-70328051D01*
X125200619Y-70324852D01*
X125200615Y-70324848D01*
X125033414Y-70192800D01*
X125033410Y-70192798D01*
X125029359Y-70189598D01*
X124988053Y-70166796D01*
X124938084Y-70116364D01*
X124923312Y-70046921D01*
X124948428Y-69980516D01*
X124975780Y-69953909D01*
X125035042Y-69911638D01*
X125154860Y-69826173D01*
X125313096Y-69668489D01*
X125324565Y-69652529D01*
X125440435Y-69491277D01*
X125443453Y-69487077D01*
X125464320Y-69444857D01*
X125540136Y-69291453D01*
X125540137Y-69291451D01*
X125542430Y-69286811D01*
X125607370Y-69073069D01*
X125636529Y-68851590D01*
X125637551Y-68809767D01*
X125638074Y-68788365D01*
X125638074Y-68788361D01*
X125638156Y-68785000D01*
X125619852Y-68562361D01*
X125565431Y-68345702D01*
X125476354Y-68140840D01*
X125355014Y-67953277D01*
X125204670Y-67788051D01*
X125200619Y-67784852D01*
X125200615Y-67784848D01*
X125033414Y-67652800D01*
X125033410Y-67652798D01*
X125029359Y-67649598D01*
X124988053Y-67626796D01*
X124938084Y-67576364D01*
X124923312Y-67506921D01*
X124948428Y-67440516D01*
X124975780Y-67413909D01*
X125035042Y-67371638D01*
X125154860Y-67286173D01*
X125313096Y-67128489D01*
X125324565Y-67112529D01*
X125440435Y-66951277D01*
X125443453Y-66947077D01*
X125464320Y-66904857D01*
X125540136Y-66751453D01*
X125540137Y-66751451D01*
X125542430Y-66746811D01*
X125607370Y-66533069D01*
X125636529Y-66311590D01*
X125637551Y-66269767D01*
X125638074Y-66248365D01*
X125638074Y-66248361D01*
X125638156Y-66245000D01*
X125619852Y-66022361D01*
X125565431Y-65805702D01*
X125476354Y-65600840D01*
X125355014Y-65413277D01*
X125204670Y-65248051D01*
X125200619Y-65244852D01*
X125200615Y-65244848D01*
X125033414Y-65112800D01*
X125033410Y-65112798D01*
X125029359Y-65109598D01*
X124988053Y-65086796D01*
X124938084Y-65036364D01*
X124923312Y-64966921D01*
X124948428Y-64900516D01*
X124975780Y-64873909D01*
X125035042Y-64831638D01*
X125154860Y-64746173D01*
X125313096Y-64588489D01*
X125324565Y-64572529D01*
X125440435Y-64411277D01*
X125443453Y-64407077D01*
X125464320Y-64364857D01*
X125540136Y-64211453D01*
X125540137Y-64211451D01*
X125542430Y-64206811D01*
X125607370Y-63993069D01*
X125636529Y-63771590D01*
X125637551Y-63729767D01*
X125638074Y-63708365D01*
X125638074Y-63708361D01*
X125638156Y-63705000D01*
X125619852Y-63482361D01*
X125565431Y-63265702D01*
X125476354Y-63060840D01*
X125355014Y-62873277D01*
X125204670Y-62708051D01*
X125200619Y-62704852D01*
X125200615Y-62704848D01*
X125033414Y-62572800D01*
X125033410Y-62572798D01*
X125029359Y-62569598D01*
X124988053Y-62546796D01*
X124938084Y-62496364D01*
X124923312Y-62426921D01*
X124948428Y-62360516D01*
X124975780Y-62333909D01*
X125035042Y-62291638D01*
X125154860Y-62206173D01*
X125313096Y-62048489D01*
X125324565Y-62032529D01*
X125440435Y-61871277D01*
X125443453Y-61867077D01*
X125464320Y-61824857D01*
X125540136Y-61671453D01*
X125540137Y-61671451D01*
X125542430Y-61666811D01*
X125607370Y-61453069D01*
X125636529Y-61231590D01*
X125637551Y-61189767D01*
X125638074Y-61168365D01*
X125638074Y-61168361D01*
X125638156Y-61165000D01*
X125619852Y-60942361D01*
X125565431Y-60725702D01*
X125476354Y-60520840D01*
X125355014Y-60333277D01*
X125340568Y-60317401D01*
X125207798Y-60171488D01*
X125176746Y-60107642D01*
X125185141Y-60037143D01*
X125230317Y-59982375D01*
X125256761Y-59968706D01*
X125363297Y-59928767D01*
X125371705Y-59925615D01*
X125488261Y-59838261D01*
X125575615Y-59721705D01*
X125626745Y-59585316D01*
X125633500Y-59523134D01*
X125633500Y-57726866D01*
X125626745Y-57664684D01*
X125575615Y-57528295D01*
X125488261Y-57411739D01*
X125371705Y-57324385D01*
X125235316Y-57273255D01*
X125173134Y-57266500D01*
X123376866Y-57266500D01*
X123314684Y-57273255D01*
X123178295Y-57324385D01*
X123061739Y-57411739D01*
X122974385Y-57528295D01*
X122971233Y-57536703D01*
X122929919Y-57646907D01*
X122887277Y-57703671D01*
X122820716Y-57728371D01*
X122751367Y-57713163D01*
X122718743Y-57687476D01*
X122668151Y-57631875D01*
X122668142Y-57631866D01*
X122664670Y-57628051D01*
X122660619Y-57624852D01*
X122660615Y-57624848D01*
X122493414Y-57492800D01*
X122493410Y-57492798D01*
X122489359Y-57489598D01*
X122293789Y-57381638D01*
X122288920Y-57379914D01*
X122288916Y-57379912D01*
X122088087Y-57308795D01*
X122088083Y-57308794D01*
X122083212Y-57307069D01*
X122078119Y-57306162D01*
X122078116Y-57306161D01*
X121868373Y-57268800D01*
X121868367Y-57268799D01*
X121863284Y-57267894D01*
X121789452Y-57266992D01*
X121645081Y-57265228D01*
X121645079Y-57265228D01*
X121639911Y-57265165D01*
X121419091Y-57298955D01*
X121206756Y-57368357D01*
X121176443Y-57384137D01*
X121040609Y-57454848D01*
X121008607Y-57471507D01*
X121004474Y-57474610D01*
X121004471Y-57474612D01*
X120834100Y-57602530D01*
X120829965Y-57605635D01*
X120790525Y-57646907D01*
X120736280Y-57703671D01*
X120675629Y-57767138D01*
X120672715Y-57771410D01*
X120672714Y-57771411D01*
X120642577Y-57815590D01*
X120549743Y-57951680D01*
X120455688Y-58154305D01*
X120395989Y-58369570D01*
X120372251Y-58591695D01*
X120385110Y-58814715D01*
X120386247Y-58819761D01*
X120386248Y-58819767D01*
X120395910Y-58862639D01*
X120434222Y-59032639D01*
X120518266Y-59239616D01*
X120555685Y-59300678D01*
X120625935Y-59415316D01*
X120634987Y-59430088D01*
X120781250Y-59598938D01*
X120953126Y-59741632D01*
X120977055Y-59755615D01*
X121026445Y-59784476D01*
X121075169Y-59836114D01*
X121088240Y-59905897D01*
X121061509Y-59971669D01*
X121021055Y-60005027D01*
X121008607Y-60011507D01*
X121004474Y-60014610D01*
X121004471Y-60014612D01*
X120834100Y-60142530D01*
X120829965Y-60145635D01*
X120675629Y-60307138D01*
X120672720Y-60311403D01*
X120672714Y-60311411D01*
X120642577Y-60355590D01*
X120549743Y-60491680D01*
X120455688Y-60694305D01*
X120395989Y-60909570D01*
X120372251Y-61131695D01*
X120372548Y-61136848D01*
X120372548Y-61136851D01*
X120378011Y-61231590D01*
X120385110Y-61354715D01*
X120386247Y-61359761D01*
X120386248Y-61359767D01*
X120395910Y-61402639D01*
X120434222Y-61572639D01*
X120518266Y-61779616D01*
X120569019Y-61862438D01*
X120632291Y-61965688D01*
X120634987Y-61970088D01*
X120781250Y-62138938D01*
X120953126Y-62281632D01*
X121023595Y-62322811D01*
X121026445Y-62324476D01*
X121075169Y-62376114D01*
X121088240Y-62445897D01*
X121061509Y-62511669D01*
X121021055Y-62545027D01*
X121008607Y-62551507D01*
X121004474Y-62554610D01*
X121004471Y-62554612D01*
X120834100Y-62682530D01*
X120829965Y-62685635D01*
X120675629Y-62847138D01*
X120672720Y-62851403D01*
X120672714Y-62851411D01*
X120642577Y-62895590D01*
X120549743Y-63031680D01*
X120455688Y-63234305D01*
X120395989Y-63449570D01*
X120372251Y-63671695D01*
X120372548Y-63676848D01*
X120372548Y-63676851D01*
X120378011Y-63771590D01*
X120385110Y-63894715D01*
X120386247Y-63899761D01*
X120386248Y-63899767D01*
X120395910Y-63942639D01*
X120434222Y-64112639D01*
X120518266Y-64319616D01*
X120569019Y-64402438D01*
X120632291Y-64505688D01*
X120634987Y-64510088D01*
X120781250Y-64678938D01*
X120953126Y-64821632D01*
X121023595Y-64862811D01*
X121026445Y-64864476D01*
X121075169Y-64916114D01*
X121088240Y-64985897D01*
X121061509Y-65051669D01*
X121021055Y-65085027D01*
X121008607Y-65091507D01*
X121004474Y-65094610D01*
X121004471Y-65094612D01*
X120834100Y-65222530D01*
X120829965Y-65225635D01*
X120675629Y-65387138D01*
X120672720Y-65391403D01*
X120672714Y-65391411D01*
X120642577Y-65435590D01*
X120549743Y-65571680D01*
X120455688Y-65774305D01*
X120395989Y-65989570D01*
X120372251Y-66211695D01*
X120372548Y-66216848D01*
X120372548Y-66216851D01*
X120378011Y-66311590D01*
X120385110Y-66434715D01*
X120386247Y-66439761D01*
X120386248Y-66439767D01*
X120395910Y-66482639D01*
X120434222Y-66652639D01*
X120518266Y-66859616D01*
X120569019Y-66942438D01*
X120632291Y-67045688D01*
X120634987Y-67050088D01*
X120781250Y-67218938D01*
X120953126Y-67361632D01*
X121023595Y-67402811D01*
X121026445Y-67404476D01*
X121075169Y-67456114D01*
X121088240Y-67525897D01*
X121061509Y-67591669D01*
X121021055Y-67625027D01*
X121008607Y-67631507D01*
X121004474Y-67634610D01*
X121004471Y-67634612D01*
X120834100Y-67762530D01*
X120829965Y-67765635D01*
X120675629Y-67927138D01*
X120672720Y-67931403D01*
X120672714Y-67931411D01*
X120642577Y-67975590D01*
X120549743Y-68111680D01*
X120455688Y-68314305D01*
X120395989Y-68529570D01*
X120372251Y-68751695D01*
X120372548Y-68756848D01*
X120372548Y-68756851D01*
X120378011Y-68851590D01*
X120385110Y-68974715D01*
X120386247Y-68979761D01*
X120386248Y-68979767D01*
X120395910Y-69022639D01*
X120434222Y-69192639D01*
X120518266Y-69399616D01*
X120569019Y-69482438D01*
X120632291Y-69585688D01*
X120634987Y-69590088D01*
X120781250Y-69758938D01*
X120953126Y-69901632D01*
X121023595Y-69942811D01*
X121026445Y-69944476D01*
X121075169Y-69996114D01*
X121088240Y-70065897D01*
X121061509Y-70131669D01*
X121021055Y-70165027D01*
X121008607Y-70171507D01*
X121004474Y-70174610D01*
X121004471Y-70174612D01*
X120834100Y-70302530D01*
X120829965Y-70305635D01*
X120675629Y-70467138D01*
X120672720Y-70471403D01*
X120672714Y-70471411D01*
X120642577Y-70515590D01*
X120549743Y-70651680D01*
X120455688Y-70854305D01*
X120395989Y-71069570D01*
X120372251Y-71291695D01*
X120372548Y-71296848D01*
X120372548Y-71296851D01*
X120378011Y-71391590D01*
X120385110Y-71514715D01*
X120386247Y-71519761D01*
X120386248Y-71519767D01*
X120395910Y-71562639D01*
X120434222Y-71732639D01*
X120518266Y-71939616D01*
X120569019Y-72022438D01*
X120632291Y-72125688D01*
X120634987Y-72130088D01*
X120781250Y-72298938D01*
X120953126Y-72441632D01*
X121023595Y-72482811D01*
X121026445Y-72484476D01*
X121075169Y-72536114D01*
X121088240Y-72605897D01*
X121061509Y-72671669D01*
X121021055Y-72705027D01*
X121008607Y-72711507D01*
X121004474Y-72714610D01*
X121004471Y-72714612D01*
X120834100Y-72842530D01*
X120829965Y-72845635D01*
X120675629Y-73007138D01*
X120672720Y-73011403D01*
X120672714Y-73011411D01*
X120642577Y-73055590D01*
X120549743Y-73191680D01*
X120455688Y-73394305D01*
X120395989Y-73609570D01*
X120372251Y-73831695D01*
X120372548Y-73836848D01*
X120372548Y-73836851D01*
X120378011Y-73931590D01*
X120385110Y-74054715D01*
X120386247Y-74059761D01*
X120386248Y-74059767D01*
X120395910Y-74102639D01*
X120434222Y-74272639D01*
X120518266Y-74479616D01*
X120569019Y-74562438D01*
X120632291Y-74665688D01*
X120634987Y-74670088D01*
X120781250Y-74838938D01*
X120953126Y-74981632D01*
X121023595Y-75022811D01*
X121026445Y-75024476D01*
X121075169Y-75076114D01*
X121088240Y-75145897D01*
X121061509Y-75211669D01*
X121021055Y-75245027D01*
X121008607Y-75251507D01*
X121004474Y-75254610D01*
X121004471Y-75254612D01*
X120834100Y-75382530D01*
X120829965Y-75385635D01*
X120675629Y-75547138D01*
X120672720Y-75551403D01*
X120672714Y-75551411D01*
X120642577Y-75595590D01*
X120549743Y-75731680D01*
X120455688Y-75934305D01*
X120395989Y-76149570D01*
X120372251Y-76371695D01*
X120372548Y-76376848D01*
X120372548Y-76376851D01*
X120378011Y-76471590D01*
X120385110Y-76594715D01*
X120386247Y-76599761D01*
X120386248Y-76599767D01*
X120395910Y-76642639D01*
X120434222Y-76812639D01*
X120518266Y-77019616D01*
X120569019Y-77102438D01*
X120632291Y-77205688D01*
X120634987Y-77210088D01*
X120781250Y-77378938D01*
X120953126Y-77521632D01*
X121023595Y-77562811D01*
X121026445Y-77564476D01*
X121075169Y-77616114D01*
X121088240Y-77685897D01*
X121061509Y-77751669D01*
X121021055Y-77785027D01*
X121008607Y-77791507D01*
X121004474Y-77794610D01*
X121004471Y-77794612D01*
X120834100Y-77922530D01*
X120829965Y-77925635D01*
X120675629Y-78087138D01*
X120672720Y-78091403D01*
X120672714Y-78091411D01*
X120642577Y-78135590D01*
X120549743Y-78271680D01*
X120455688Y-78474305D01*
X120395989Y-78689570D01*
X120372251Y-78911695D01*
X120372548Y-78916848D01*
X120372548Y-78916851D01*
X120378011Y-79011590D01*
X120385110Y-79134715D01*
X120386247Y-79139761D01*
X120386248Y-79139767D01*
X120395910Y-79182639D01*
X120434222Y-79352639D01*
X120518266Y-79559616D01*
X120569019Y-79642438D01*
X120632291Y-79745688D01*
X120634987Y-79750088D01*
X120781250Y-79918938D01*
X120953126Y-80061632D01*
X121023595Y-80102811D01*
X121026445Y-80104476D01*
X121075169Y-80156114D01*
X121088240Y-80225897D01*
X121061509Y-80291669D01*
X121021055Y-80325027D01*
X121008607Y-80331507D01*
X121004474Y-80334610D01*
X121004471Y-80334612D01*
X120834100Y-80462530D01*
X120829965Y-80465635D01*
X120675629Y-80627138D01*
X120672720Y-80631403D01*
X120672714Y-80631411D01*
X120642577Y-80675590D01*
X120549743Y-80811680D01*
X120455688Y-81014305D01*
X120395989Y-81229570D01*
X120372251Y-81451695D01*
X120372548Y-81456848D01*
X120372548Y-81456851D01*
X120378011Y-81551590D01*
X120385110Y-81674715D01*
X120386247Y-81679761D01*
X120386248Y-81679767D01*
X120395910Y-81722639D01*
X120434222Y-81892639D01*
X120518266Y-82099616D01*
X120569019Y-82182438D01*
X120632291Y-82285688D01*
X120634987Y-82290088D01*
X120781250Y-82458938D01*
X120953126Y-82601632D01*
X120991456Y-82624030D01*
X121026445Y-82644476D01*
X121075169Y-82696114D01*
X121088240Y-82765897D01*
X121061509Y-82831669D01*
X121021055Y-82865027D01*
X121008607Y-82871507D01*
X121004474Y-82874610D01*
X121004471Y-82874612D01*
X120834100Y-83002530D01*
X120829965Y-83005635D01*
X120675629Y-83167138D01*
X120672715Y-83171410D01*
X120672714Y-83171411D01*
X120642577Y-83215590D01*
X120549743Y-83351680D01*
X120455688Y-83554305D01*
X120395989Y-83769570D01*
X120372251Y-83991695D01*
X120372548Y-83996848D01*
X120372548Y-83996851D01*
X120379111Y-84110671D01*
X120385110Y-84214715D01*
X120386247Y-84219761D01*
X120386248Y-84219767D01*
X120395910Y-84262639D01*
X120434222Y-84432639D01*
X120518266Y-84639616D01*
X120634987Y-84830088D01*
X120781250Y-84998938D01*
X120953126Y-85141632D01*
X121023595Y-85182811D01*
X121026445Y-85184476D01*
X121075169Y-85236114D01*
X121088240Y-85305897D01*
X121061509Y-85371669D01*
X121021055Y-85405027D01*
X121008607Y-85411507D01*
X121004474Y-85414610D01*
X121004471Y-85414612D01*
X120834100Y-85542530D01*
X120829965Y-85545635D01*
X120675629Y-85707138D01*
X120672715Y-85711410D01*
X120672714Y-85711411D01*
X120642577Y-85755590D01*
X120549743Y-85891680D01*
X120455688Y-86094305D01*
X120395989Y-86309570D01*
X120372251Y-86531695D01*
X120372548Y-86536848D01*
X120372548Y-86536851D01*
X120379111Y-86650671D01*
X120385110Y-86754715D01*
X120386247Y-86759761D01*
X120386248Y-86759767D01*
X120395910Y-86802639D01*
X120434222Y-86972639D01*
X120518266Y-87179616D01*
X120634987Y-87370088D01*
X120781250Y-87538938D01*
X120953126Y-87681632D01*
X121023595Y-87722811D01*
X121026445Y-87724476D01*
X121075169Y-87776114D01*
X121088240Y-87845897D01*
X121061509Y-87911669D01*
X121021055Y-87945027D01*
X121008607Y-87951507D01*
X121004474Y-87954610D01*
X121004471Y-87954612D01*
X120834100Y-88082530D01*
X120829965Y-88085635D01*
X120675629Y-88247138D01*
X120672715Y-88251410D01*
X120672714Y-88251411D01*
X120642577Y-88295590D01*
X120549743Y-88431680D01*
X120455688Y-88634305D01*
X120395989Y-88849570D01*
X120372251Y-89071695D01*
X120372548Y-89076848D01*
X120372548Y-89076851D01*
X120379111Y-89190671D01*
X120385110Y-89294715D01*
X120386247Y-89299761D01*
X120386248Y-89299767D01*
X120395910Y-89342639D01*
X120434222Y-89512639D01*
X120518266Y-89719616D01*
X120634987Y-89910088D01*
X120781250Y-90078938D01*
X120953126Y-90221632D01*
X121023595Y-90262811D01*
X121026445Y-90264476D01*
X121075169Y-90316114D01*
X121088240Y-90385897D01*
X121061509Y-90451669D01*
X121021055Y-90485027D01*
X121008607Y-90491507D01*
X121004474Y-90494610D01*
X121004471Y-90494612D01*
X120834100Y-90622530D01*
X120829965Y-90625635D01*
X120675629Y-90787138D01*
X120672715Y-90791410D01*
X120672714Y-90791411D01*
X120642577Y-90835590D01*
X120549743Y-90971680D01*
X120455688Y-91174305D01*
X120395989Y-91389570D01*
X120372251Y-91611695D01*
X120372548Y-91616848D01*
X120372548Y-91616851D01*
X120379232Y-91732778D01*
X120385110Y-91834715D01*
X120386247Y-91839761D01*
X120386248Y-91839767D01*
X120395910Y-91882639D01*
X120434222Y-92052639D01*
X120518266Y-92259616D01*
X120634987Y-92450088D01*
X120781250Y-92618938D01*
X120884115Y-92704338D01*
X120945891Y-92755625D01*
X120953126Y-92761632D01*
X121023595Y-92802811D01*
X121026445Y-92804476D01*
X121075169Y-92856114D01*
X121088240Y-92925897D01*
X121061509Y-92991669D01*
X121021055Y-93025027D01*
X121008607Y-93031507D01*
X121004474Y-93034610D01*
X121004471Y-93034612D01*
X120834100Y-93162530D01*
X120829965Y-93165635D01*
X120675629Y-93327138D01*
X120672720Y-93331403D01*
X120672714Y-93331411D01*
X120642577Y-93375590D01*
X120549743Y-93511680D01*
X120455688Y-93714305D01*
X120395989Y-93929570D01*
X120372251Y-94151695D01*
X120372548Y-94156848D01*
X120372548Y-94156851D01*
X120378011Y-94251590D01*
X120385110Y-94374715D01*
X120386247Y-94379761D01*
X120386248Y-94379767D01*
X120395910Y-94422639D01*
X120434222Y-94592639D01*
X120518266Y-94799616D01*
X120569019Y-94882438D01*
X120632291Y-94985688D01*
X120634987Y-94990088D01*
X120781250Y-95158938D01*
X120953126Y-95301632D01*
X121023595Y-95342811D01*
X121026445Y-95344476D01*
X121075169Y-95396114D01*
X121088240Y-95465897D01*
X121061509Y-95531669D01*
X121021055Y-95565027D01*
X121008607Y-95571507D01*
X121004474Y-95574610D01*
X121004471Y-95574612D01*
X120834100Y-95702530D01*
X120829965Y-95705635D01*
X120675629Y-95867138D01*
X120672720Y-95871403D01*
X120672714Y-95871411D01*
X120642577Y-95915590D01*
X120549743Y-96051680D01*
X120455688Y-96254305D01*
X120395989Y-96469570D01*
X120372251Y-96691695D01*
X120372548Y-96696848D01*
X120372548Y-96696851D01*
X120378011Y-96791590D01*
X120385110Y-96914715D01*
X120386247Y-96919761D01*
X120386248Y-96919767D01*
X120395910Y-96962639D01*
X120434222Y-97132639D01*
X120518266Y-97339616D01*
X120569019Y-97422438D01*
X120632291Y-97525688D01*
X120634987Y-97530088D01*
X120781250Y-97698938D01*
X120953126Y-97841632D01*
X121023595Y-97882811D01*
X121026445Y-97884476D01*
X121075169Y-97936114D01*
X121088240Y-98005897D01*
X121061509Y-98071669D01*
X121021055Y-98105027D01*
X121008607Y-98111507D01*
X121004474Y-98114610D01*
X121004471Y-98114612D01*
X120834100Y-98242530D01*
X120829965Y-98245635D01*
X120675629Y-98407138D01*
X120672720Y-98411403D01*
X120672714Y-98411411D01*
X120642577Y-98455590D01*
X120549743Y-98591680D01*
X120455688Y-98794305D01*
X120395989Y-99009570D01*
X120372251Y-99231695D01*
X120372548Y-99236848D01*
X120372548Y-99236851D01*
X120378011Y-99331590D01*
X120385110Y-99454715D01*
X120386247Y-99459761D01*
X120386248Y-99459767D01*
X120395910Y-99502639D01*
X120434222Y-99672639D01*
X120518266Y-99879616D01*
X120569019Y-99962438D01*
X120632291Y-100065688D01*
X120634987Y-100070088D01*
X120781250Y-100238938D01*
X120953126Y-100381632D01*
X121023595Y-100422811D01*
X121026445Y-100424476D01*
X121075169Y-100476114D01*
X121088240Y-100545897D01*
X121061509Y-100611669D01*
X121021055Y-100645027D01*
X121008607Y-100651507D01*
X121004474Y-100654610D01*
X121004471Y-100654612D01*
X120834100Y-100782530D01*
X120829965Y-100785635D01*
X120675629Y-100947138D01*
X120672720Y-100951403D01*
X120672714Y-100951411D01*
X120642577Y-100995590D01*
X120549743Y-101131680D01*
X120455688Y-101334305D01*
X120395989Y-101549570D01*
X120372251Y-101771695D01*
X120372548Y-101776848D01*
X120372548Y-101776851D01*
X120378011Y-101871590D01*
X120385110Y-101994715D01*
X120386247Y-101999761D01*
X120386248Y-101999767D01*
X120395910Y-102042639D01*
X120434222Y-102212639D01*
X120518266Y-102419616D01*
X120569019Y-102502438D01*
X120632291Y-102605688D01*
X120634987Y-102610088D01*
X120781250Y-102778938D01*
X120953126Y-102921632D01*
X120984568Y-102940005D01*
X121026445Y-102964476D01*
X121075169Y-103016114D01*
X121088240Y-103085897D01*
X121061509Y-103151669D01*
X121021055Y-103185027D01*
X121008607Y-103191507D01*
X121004474Y-103194610D01*
X121004471Y-103194612D01*
X120834100Y-103322530D01*
X120829965Y-103325635D01*
X120675629Y-103487138D01*
X120672720Y-103491403D01*
X120672714Y-103491411D01*
X120642577Y-103535590D01*
X120549743Y-103671680D01*
X120455688Y-103874305D01*
X120395989Y-104089570D01*
X120372251Y-104311695D01*
X120372548Y-104316848D01*
X120372548Y-104316851D01*
X120378011Y-104411590D01*
X120385110Y-104534715D01*
X120386247Y-104539761D01*
X120386248Y-104539767D01*
X120395910Y-104582639D01*
X120434222Y-104752639D01*
X120518266Y-104959616D01*
X120569019Y-105042438D01*
X120632291Y-105145688D01*
X120634987Y-105150088D01*
X120781250Y-105318938D01*
X120953126Y-105461632D01*
X121023595Y-105502811D01*
X121026445Y-105504476D01*
X121075169Y-105556114D01*
X121088240Y-105625897D01*
X121061509Y-105691669D01*
X121021055Y-105725027D01*
X121008607Y-105731507D01*
X121004474Y-105734610D01*
X121004471Y-105734612D01*
X120834100Y-105862530D01*
X120829965Y-105865635D01*
X120675629Y-106027138D01*
X120672720Y-106031403D01*
X120672714Y-106031411D01*
X120642577Y-106075590D01*
X120549743Y-106211680D01*
X120455688Y-106414305D01*
X120395989Y-106629570D01*
X120372251Y-106851695D01*
X120372548Y-106856848D01*
X120372548Y-106856851D01*
X120378011Y-106951590D01*
X120385110Y-107074715D01*
X120386247Y-107079761D01*
X120386248Y-107079767D01*
X120395910Y-107122639D01*
X120434222Y-107292639D01*
X120518266Y-107499616D01*
X120569019Y-107582438D01*
X120632291Y-107685688D01*
X120634987Y-107690088D01*
X120781250Y-107858938D01*
X120953126Y-108001632D01*
X121023595Y-108042811D01*
X121026445Y-108044476D01*
X121075169Y-108096114D01*
X121088240Y-108165897D01*
X121061509Y-108231669D01*
X121021055Y-108265027D01*
X121008607Y-108271507D01*
X121004474Y-108274610D01*
X121004471Y-108274612D01*
X120834100Y-108402530D01*
X120829965Y-108405635D01*
X120675629Y-108567138D01*
X120672720Y-108571403D01*
X120672714Y-108571411D01*
X120642577Y-108615590D01*
X120549743Y-108751680D01*
X120455688Y-108954305D01*
X120395989Y-109169570D01*
X120372251Y-109391695D01*
X120372548Y-109396848D01*
X120372548Y-109396851D01*
X120378011Y-109491590D01*
X120385110Y-109614715D01*
X120386247Y-109619761D01*
X120386248Y-109619767D01*
X120395910Y-109662639D01*
X120434222Y-109832639D01*
X120518266Y-110039616D01*
X120569019Y-110122438D01*
X120632291Y-110225688D01*
X120634987Y-110230088D01*
X120781250Y-110398938D01*
X120953126Y-110541632D01*
X121023595Y-110582811D01*
X121026445Y-110584476D01*
X121075169Y-110636114D01*
X121088240Y-110705897D01*
X121061509Y-110771669D01*
X121021055Y-110805027D01*
X121008607Y-110811507D01*
X121004474Y-110814610D01*
X121004471Y-110814612D01*
X120834100Y-110942530D01*
X120829965Y-110945635D01*
X120675629Y-111107138D01*
X120672720Y-111111403D01*
X120672714Y-111111411D01*
X120642577Y-111155590D01*
X120549743Y-111291680D01*
X120455688Y-111494305D01*
X120395989Y-111709570D01*
X120372251Y-111931695D01*
X111800000Y-111931695D01*
X111800000Y-48832703D01*
X120790743Y-48832703D01*
X120828268Y-49117734D01*
X120904129Y-49395036D01*
X121016923Y-49659476D01*
X121164561Y-49906161D01*
X121344313Y-50130528D01*
X121552851Y-50328423D01*
X121786317Y-50496186D01*
X121790112Y-50498195D01*
X121790113Y-50498196D01*
X121811869Y-50509715D01*
X122040392Y-50630712D01*
X122310373Y-50729511D01*
X122591264Y-50790755D01*
X122619841Y-50793004D01*
X122814282Y-50808307D01*
X122814291Y-50808307D01*
X122816739Y-50808500D01*
X122972271Y-50808500D01*
X122974407Y-50808354D01*
X122974418Y-50808354D01*
X123182548Y-50794165D01*
X123182554Y-50794164D01*
X123186825Y-50793873D01*
X123191020Y-50793004D01*
X123191022Y-50793004D01*
X123327583Y-50764724D01*
X123468342Y-50735574D01*
X123739343Y-50639607D01*
X123994812Y-50507750D01*
X123998313Y-50505289D01*
X123998317Y-50505287D01*
X124112418Y-50425095D01*
X124230023Y-50342441D01*
X124440622Y-50146740D01*
X124622713Y-49924268D01*
X124772927Y-49679142D01*
X124888483Y-49415898D01*
X124967244Y-49139406D01*
X125007751Y-48854784D01*
X125007845Y-48836951D01*
X125007867Y-48832703D01*
X152090743Y-48832703D01*
X152128268Y-49117734D01*
X152204129Y-49395036D01*
X152316923Y-49659476D01*
X152464561Y-49906161D01*
X152644313Y-50130528D01*
X152852851Y-50328423D01*
X153086317Y-50496186D01*
X153090112Y-50498195D01*
X153090113Y-50498196D01*
X153111869Y-50509715D01*
X153340392Y-50630712D01*
X153610373Y-50729511D01*
X153891264Y-50790755D01*
X153919841Y-50793004D01*
X154114282Y-50808307D01*
X154114291Y-50808307D01*
X154116739Y-50808500D01*
X154272271Y-50808500D01*
X154274407Y-50808354D01*
X154274418Y-50808354D01*
X154482548Y-50794165D01*
X154482554Y-50794164D01*
X154486825Y-50793873D01*
X154491020Y-50793004D01*
X154491022Y-50793004D01*
X154627583Y-50764724D01*
X154768342Y-50735574D01*
X155039343Y-50639607D01*
X155294812Y-50507750D01*
X155298313Y-50505289D01*
X155298317Y-50505287D01*
X155412418Y-50425095D01*
X155530023Y-50342441D01*
X155740622Y-50146740D01*
X155922713Y-49924268D01*
X156072927Y-49679142D01*
X156188483Y-49415898D01*
X156267244Y-49139406D01*
X156307751Y-48854784D01*
X156307845Y-48836951D01*
X156309235Y-48571583D01*
X156309235Y-48571576D01*
X156309257Y-48567297D01*
X156271732Y-48282266D01*
X156195871Y-48004964D01*
X156083077Y-47740524D01*
X155935439Y-47493839D01*
X155755687Y-47269472D01*
X155547149Y-47071577D01*
X155313683Y-46903814D01*
X155291843Y-46892250D01*
X155268654Y-46879972D01*
X155059608Y-46769288D01*
X154789627Y-46670489D01*
X154508736Y-46609245D01*
X154477685Y-46606801D01*
X154285718Y-46591693D01*
X154285709Y-46591693D01*
X154283261Y-46591500D01*
X154127729Y-46591500D01*
X154125593Y-46591646D01*
X154125582Y-46591646D01*
X153917452Y-46605835D01*
X153917446Y-46605836D01*
X153913175Y-46606127D01*
X153908980Y-46606996D01*
X153908978Y-46606996D01*
X153772416Y-46635277D01*
X153631658Y-46664426D01*
X153360657Y-46760393D01*
X153105188Y-46892250D01*
X153101687Y-46894711D01*
X153101683Y-46894713D01*
X153091594Y-46901804D01*
X152869977Y-47057559D01*
X152659378Y-47253260D01*
X152477287Y-47475732D01*
X152327073Y-47720858D01*
X152211517Y-47984102D01*
X152132756Y-48260594D01*
X152092249Y-48545216D01*
X152092227Y-48549505D01*
X152092226Y-48549512D01*
X152090765Y-48828417D01*
X152090743Y-48832703D01*
X125007867Y-48832703D01*
X125009235Y-48571583D01*
X125009235Y-48571576D01*
X125009257Y-48567297D01*
X124971732Y-48282266D01*
X124895871Y-48004964D01*
X124783077Y-47740524D01*
X124635439Y-47493839D01*
X124455687Y-47269472D01*
X124247149Y-47071577D01*
X124013683Y-46903814D01*
X123991843Y-46892250D01*
X123968654Y-46879972D01*
X123759608Y-46769288D01*
X123489627Y-46670489D01*
X123208736Y-46609245D01*
X123177685Y-46606801D01*
X122985718Y-46591693D01*
X122985709Y-46591693D01*
X122983261Y-46591500D01*
X122827729Y-46591500D01*
X122825593Y-46591646D01*
X122825582Y-46591646D01*
X122617452Y-46605835D01*
X122617446Y-46605836D01*
X122613175Y-46606127D01*
X122608980Y-46606996D01*
X122608978Y-46606996D01*
X122472416Y-46635277D01*
X122331658Y-46664426D01*
X122060657Y-46760393D01*
X121805188Y-46892250D01*
X121801687Y-46894711D01*
X121801683Y-46894713D01*
X121791594Y-46901804D01*
X121569977Y-47057559D01*
X121359378Y-47253260D01*
X121177287Y-47475732D01*
X121027073Y-47720858D01*
X120911517Y-47984102D01*
X120832756Y-48260594D01*
X120792249Y-48545216D01*
X120792227Y-48549505D01*
X120792226Y-48549512D01*
X120790765Y-48828417D01*
X120790743Y-48832703D01*
X111800000Y-48832703D01*
X111800000Y-40225770D01*
X111820002Y-40157649D01*
X111873658Y-40111156D01*
X111925769Y-40099770D01*
X166273046Y-40000233D01*
X166341203Y-40020110D01*
G37*
%TD.AperFunction*%
%TD*%
M02*
