%TF.GenerationSoftware,KiCad,Pcbnew,(6.0.6)*%
%TF.CreationDate,2022-10-25T12:39:07-05:00*%
%TF.ProjectId,IO_Riser,494f5f52-6973-4657-922e-6b696361645f,V0.8*%
%TF.SameCoordinates,Original*%
%TF.FileFunction,Legend,Top*%
%TF.FilePolarity,Positive*%
%FSLAX46Y46*%
G04 Gerber Fmt 4.6, Leading zero omitted, Abs format (unit mm)*
G04 Created by KiCad (PCBNEW (6.0.6)) date 2022-10-25 12:39:07*
%MOMM*%
%LPD*%
G01*
G04 APERTURE LIST*
%ADD10C,0.150000*%
%ADD11C,0.120000*%
G04 APERTURE END LIST*
D10*
%TO.C,J2*%
X153491666Y-53187380D02*
X153491666Y-53901666D01*
X153444047Y-54044523D01*
X153348809Y-54139761D01*
X153205952Y-54187380D01*
X153110714Y-54187380D01*
X153920238Y-53282619D02*
X153967857Y-53235000D01*
X154063095Y-53187380D01*
X154301190Y-53187380D01*
X154396428Y-53235000D01*
X154444047Y-53282619D01*
X154491666Y-53377857D01*
X154491666Y-53473095D01*
X154444047Y-53615952D01*
X153872619Y-54187380D01*
X154491666Y-54187380D01*
X150848809Y-55687380D02*
X150848809Y-54687380D01*
X152039285Y-54639761D02*
X151182142Y-55925476D01*
X152563095Y-54687380D02*
X152753571Y-54687380D01*
X152848809Y-54735000D01*
X152944047Y-54830238D01*
X152991666Y-55020714D01*
X152991666Y-55354047D01*
X152944047Y-55544523D01*
X152848809Y-55639761D01*
X152753571Y-55687380D01*
X152563095Y-55687380D01*
X152467857Y-55639761D01*
X152372619Y-55544523D01*
X152325000Y-55354047D01*
X152325000Y-55020714D01*
X152372619Y-54830238D01*
X152467857Y-54735000D01*
X152563095Y-54687380D01*
X154182142Y-55687380D02*
X154182142Y-54687380D01*
X154563095Y-54687380D01*
X154658333Y-54735000D01*
X154705952Y-54782619D01*
X154753571Y-54877857D01*
X154753571Y-55020714D01*
X154705952Y-55115952D01*
X154658333Y-55163571D01*
X154563095Y-55211190D01*
X154182142Y-55211190D01*
X155325000Y-55687380D02*
X155229761Y-55639761D01*
X155182142Y-55592142D01*
X155134523Y-55496904D01*
X155134523Y-55211190D01*
X155182142Y-55115952D01*
X155229761Y-55068333D01*
X155325000Y-55020714D01*
X155467857Y-55020714D01*
X155563095Y-55068333D01*
X155610714Y-55115952D01*
X155658333Y-55211190D01*
X155658333Y-55496904D01*
X155610714Y-55592142D01*
X155563095Y-55639761D01*
X155467857Y-55687380D01*
X155325000Y-55687380D01*
X156086904Y-55687380D02*
X156086904Y-55020714D01*
X156086904Y-55211190D02*
X156134523Y-55115952D01*
X156182142Y-55068333D01*
X156277380Y-55020714D01*
X156372619Y-55020714D01*
X156563095Y-55020714D02*
X156944047Y-55020714D01*
X156705952Y-54687380D02*
X156705952Y-55544523D01*
X156753571Y-55639761D01*
X156848809Y-55687380D01*
X156944047Y-55687380D01*
D11*
X150495000Y-59725000D02*
X150495000Y-113375000D01*
X150495000Y-58455000D02*
X150495000Y-57125000D01*
X158125000Y-59725000D02*
X158125000Y-113375000D01*
X150495000Y-59725000D02*
X158125000Y-59725000D01*
X150495000Y-113375000D02*
X158125000Y-113375000D01*
X150495000Y-57125000D02*
X151825000Y-57125000D01*
%TD*%
M02*
