%TF.GenerationSoftware,KiCad,Pcbnew,(6.0.6)*%
%TF.CreationDate,2022-11-20T10:14:25-06:00*%
%TF.ProjectId,IO_Riser,494f5f52-6973-4657-922e-6b696361645f,V0.9*%
%TF.SameCoordinates,Original*%
%TF.FileFunction,Legend,Top*%
%TF.FilePolarity,Positive*%
%FSLAX46Y46*%
G04 Gerber Fmt 4.6, Leading zero omitted, Abs format (unit mm)*
G04 Created by KiCad (PCBNEW (6.0.6)) date 2022-11-20 10:14:25*
%MOMM*%
%LPD*%
G01*
G04 APERTURE LIST*
%ADD10C,0.150000*%
%ADD11C,0.120000*%
G04 APERTURE END LIST*
D10*
%TO.C,J2*%
X157964880Y-102543333D02*
X158679166Y-102543333D01*
X158822023Y-102590952D01*
X158917261Y-102686190D01*
X158964880Y-102829047D01*
X158964880Y-102924285D01*
X158060119Y-102114761D02*
X158012500Y-102067142D01*
X157964880Y-101971904D01*
X157964880Y-101733809D01*
X158012500Y-101638571D01*
X158060119Y-101590952D01*
X158155357Y-101543333D01*
X158250595Y-101543333D01*
X158393452Y-101590952D01*
X158964880Y-102162380D01*
X158964880Y-101543333D01*
%TO.C,J1*%
X94922380Y-84563333D02*
X95636666Y-84563333D01*
X95779523Y-84610952D01*
X95874761Y-84706190D01*
X95922380Y-84849047D01*
X95922380Y-84944285D01*
X95922380Y-83563333D02*
X95922380Y-84134761D01*
X95922380Y-83849047D02*
X94922380Y-83849047D01*
X95065238Y-83944285D01*
X95160476Y-84039523D01*
X95208095Y-84134761D01*
D11*
%TO.C,J2*%
X169302500Y-113890000D02*
X160352500Y-113890000D01*
X160352500Y-55400000D02*
X160352500Y-55000000D01*
X169302500Y-55400000D02*
X160352500Y-55400000D01*
%TO.C,J1*%
X99070000Y-86830000D02*
X99070000Y-84230000D01*
X96470000Y-86830000D02*
X96470000Y-85500000D01*
X99070000Y-84230000D02*
X96470000Y-84230000D01*
X99070000Y-86830000D02*
X152470000Y-86830000D01*
X96470000Y-81630000D02*
X152470000Y-81630000D01*
X97800000Y-86830000D02*
X96470000Y-86830000D01*
X96470000Y-84230000D02*
X96470000Y-81630000D01*
X152470000Y-86830000D02*
X152470000Y-81630000D01*
%TD*%
M02*
