%TF.GenerationSoftware,KiCad,Pcbnew,(6.0.6)*%
%TF.CreationDate,2022-11-20T10:14:25-06:00*%
%TF.ProjectId,IO_Riser,494f5f52-6973-4657-922e-6b696361645f,V0.9*%
%TF.SameCoordinates,Original*%
%TF.FileFunction,Soldermask,Top*%
%TF.FilePolarity,Negative*%
%FSLAX46Y46*%
G04 Gerber Fmt 4.6, Leading zero omitted, Abs format (unit mm)*
G04 Created by KiCad (PCBNEW (6.0.6)) date 2022-11-20 10:14:25*
%MOMM*%
%LPD*%
G01*
G04 APERTURE LIST*
%ADD10R,7.620000X1.780000*%
%ADD11C,3.200000*%
%ADD12R,1.700000X1.700000*%
%ADD13O,1.700000X1.700000*%
G04 APERTURE END LIST*
D10*
%TO.C,J2*%
X165452500Y-111340000D03*
X165452500Y-108800000D03*
X165452500Y-106260000D03*
X165452500Y-103720000D03*
X165452500Y-101180000D03*
X165452500Y-98640000D03*
X165452500Y-96100000D03*
X165452500Y-93560000D03*
X165452500Y-91020000D03*
X165452500Y-88480000D03*
X165452500Y-85940000D03*
X165452500Y-83400000D03*
X165452500Y-80860000D03*
X165452500Y-78320000D03*
X165452500Y-75780000D03*
X165452500Y-73240000D03*
X165452500Y-70700000D03*
X165452500Y-68160000D03*
X165452500Y-65620000D03*
X165452500Y-63080000D03*
X165452500Y-60540000D03*
X165452500Y-58000000D03*
%TD*%
D11*
%TO.C,H4*%
X145500000Y-63900000D03*
%TD*%
%TO.C,H3*%
X145500000Y-103200000D03*
%TD*%
D12*
%TO.C,J1*%
X97800000Y-85500000D03*
D13*
X97800000Y-82960000D03*
X100340000Y-85500000D03*
X100340000Y-82960000D03*
X102880000Y-85500000D03*
X102880000Y-82960000D03*
X105420000Y-85500000D03*
X105420000Y-82960000D03*
X107960000Y-85500000D03*
X107960000Y-82960000D03*
X110500000Y-85500000D03*
X110500000Y-82960000D03*
X113040000Y-85500000D03*
X113040000Y-82960000D03*
X115580000Y-85500000D03*
X115580000Y-82960000D03*
X118120000Y-85500000D03*
X118120000Y-82960000D03*
X120660000Y-85500000D03*
X120660000Y-82960000D03*
X123200000Y-85500000D03*
X123200000Y-82960000D03*
X125740000Y-85500000D03*
X125740000Y-82960000D03*
X128280000Y-85500000D03*
X128280000Y-82960000D03*
X130820000Y-85500000D03*
X130820000Y-82960000D03*
X133360000Y-85500000D03*
X133360000Y-82960000D03*
X135900000Y-85500000D03*
X135900000Y-82960000D03*
X138440000Y-85500000D03*
X138440000Y-82960000D03*
X140980000Y-85500000D03*
X140980000Y-82960000D03*
X143520000Y-85500000D03*
X143520000Y-82960000D03*
X146060000Y-85500000D03*
X146060000Y-82960000D03*
X148600000Y-85500000D03*
X148600000Y-82960000D03*
X151140000Y-85500000D03*
X151140000Y-82960000D03*
%TD*%
M02*
