M48
; DRILL file {KiCad (6.0.6)} date Tue Oct 25 12:39:10 2022
; FORMAT={-:-/ absolute / inch / decimal}
; #@! TF.CreationDate,2022-10-25T12:39:10-05:00
; #@! TF.GenerationSoftware,Kicad,Pcbnew,(6.0.6)
; #@! TF.FileFunction,Plated,1,2,PTH
FMAT,2
INCH
; #@! TA.AperFunction,Plated,PTH,ComponentDrill
T1C0.0394
%
G90
G05
T1
X5.647Y-2.3002
X5.647Y-2.4002
X5.647Y-2.5002
X5.647Y-2.6002
X5.647Y-2.7002
X5.647Y-2.8002
X5.647Y-2.9002
X5.647Y-3.0002
X5.647Y-3.1002
X5.647Y-3.2002
X5.647Y-3.3002
X5.647Y-3.4002
X5.647Y-3.5002
X5.647Y-3.6002
X5.647Y-3.7002
X5.647Y-3.8002
X5.647Y-3.9002
X5.647Y-4.0002
X5.647Y-4.1002
X5.647Y-4.2002
X5.647Y-4.3002
X5.647Y-4.4002
X5.747Y-2.3002
X5.747Y-2.4002
X5.747Y-2.5002
X5.747Y-2.6002
X5.747Y-2.7002
X5.747Y-2.8002
X5.747Y-2.9002
X5.747Y-3.0002
X5.747Y-3.1002
X5.747Y-3.2002
X5.747Y-3.3002
X5.747Y-3.4002
X5.747Y-3.5002
X5.747Y-3.6002
X5.747Y-3.7002
X5.747Y-3.8002
X5.747Y-3.9002
X5.747Y-4.0002
X5.747Y-4.1002
X5.747Y-4.2002
X5.747Y-4.3002
X5.747Y-4.4002
X5.9774Y-2.3014
X5.9774Y-2.4014
X5.9774Y-2.5014
X5.9774Y-2.6014
X5.9774Y-2.7014
X5.9774Y-2.8014
X5.9774Y-2.9014
X5.9774Y-3.0014
X5.9774Y-3.1014
X5.9774Y-3.2014
X5.9774Y-3.3014
X5.9774Y-3.4014
X5.9774Y-3.5014
X5.9774Y-3.6014
X5.9774Y-3.7014
X5.9774Y-3.8014
X5.9774Y-3.9014
X5.9774Y-4.0014
X5.9805Y-4.1014
X5.9805Y-4.2014
X5.9805Y-4.3014
X5.9805Y-4.4014
X6.1742Y-2.3014
X6.1742Y-2.4014
X6.1742Y-2.5014
X6.1742Y-2.6014
X6.1742Y-2.7014
X6.1742Y-2.8014
X6.1742Y-2.9014
X6.1742Y-3.0014
X6.1742Y-3.1014
X6.1742Y-3.2014
X6.1742Y-3.3014
X6.1742Y-3.4014
X6.1742Y-3.5014
X6.1742Y-3.6014
X6.1742Y-3.7014
X6.1742Y-3.8014
X6.1742Y-3.9014
X6.1742Y-4.0014
X6.1774Y-4.1014
X6.1774Y-4.2014
X6.1774Y-4.3014
X6.1774Y-4.4014
T0
M30
