%TF.GenerationSoftware,KiCad,Pcbnew,(6.0.6)*%
%TF.CreationDate,2022-10-16T15:28:40-05:00*%
%TF.ProjectId,IO_Riser,494f5f52-6973-4657-922e-6b696361645f,rev?*%
%TF.SameCoordinates,Original*%
%TF.FileFunction,Copper,L1,Top*%
%TF.FilePolarity,Positive*%
%FSLAX46Y46*%
G04 Gerber Fmt 4.6, Leading zero omitted, Abs format (unit mm)*
G04 Created by KiCad (PCBNEW (6.0.6)) date 2022-10-16 15:28:40*
%MOMM*%
%LPD*%
G01*
G04 APERTURE LIST*
%TA.AperFunction,ComponentPad*%
%ADD10O,1.700000X1.700000*%
%TD*%
%TA.AperFunction,ComponentPad*%
%ADD11R,1.700000X1.700000*%
%TD*%
%TA.AperFunction,Conductor*%
%ADD12C,0.250000*%
%TD*%
%TA.AperFunction,Conductor*%
%ADD13C,1.000000*%
%TD*%
G04 APERTURE END LIST*
D10*
%TO.P,J2,44,Pin_44*%
%TO.N,IO_SNDIN*%
X156905000Y-111795000D03*
%TO.P,J2,43,Pin_43*%
%TO.N,-5V*%
X151905000Y-111795000D03*
%TO.P,J2,42,Pin_42*%
%TO.N,D3*%
X156905000Y-109255000D03*
%TO.P,J2,41,Pin_41*%
%TO.N,HOLD{slash}IAQ*%
X151905000Y-109255000D03*
%TO.P,J2,40,Pin_40*%
%TO.N,D1*%
X156905000Y-106715000D03*
%TO.P,J2,39,Pin_39*%
%TO.N,D2*%
X151905000Y-106715000D03*
%TO.P,J2,38,Pin_38*%
%TO.N,D5*%
X156905000Y-104175000D03*
%TO.P,J2,37,Pin_37*%
%TO.N,D0*%
X151905000Y-104175000D03*
%TO.P,J2,36,Pin_36*%
%TO.N,D6*%
X156825000Y-101635000D03*
%TO.P,J2,35,Pin_35*%
%TO.N,D4*%
X151825000Y-101635000D03*
%TO.P,J2,34,Pin_34*%
%TO.N,D7*%
X156825000Y-99095000D03*
%TO.P,J2,33,Pin_33*%
%TO.N,IO_CRUIN*%
X151825000Y-99095000D03*
%TO.P,J2,32,Pin_32*%
%TO.N,~{MEMEN}*%
X156825000Y-96555000D03*
%TO.P,J2,31,Pin_31*%
%TO.N,IO_A0*%
X151825000Y-96555000D03*
%TO.P,J2,30,Pin_30*%
%TO.N,IO_A1*%
X156825000Y-94015000D03*
%TO.P,J2,29,Pin_29*%
%TO.N,IO_A6*%
X151825000Y-94015000D03*
%TO.P,J2,28,Pin_28*%
%TO.N,~{IO_MBE}*%
X156825000Y-91475000D03*
%TO.P,J2,27,Pin_27*%
%TO.N,GND*%
X151825000Y-91475000D03*
%TO.P,J2,26,Pin_26*%
%TO.N,~{IO_WE}*%
X156825000Y-88935000D03*
%TO.P,J2,25,Pin_25*%
%TO.N,GND*%
X151825000Y-88935000D03*
%TO.P,J2,24,Pin_24*%
%TO.N,IO_\u00D83*%
X156825000Y-86395000D03*
%TO.P,J2,23,Pin_23*%
%TO.N,GND*%
X151825000Y-86395000D03*
%TO.P,J2,22,Pin_22*%
%TO.N,~{IO_CRUCLK}*%
X156825000Y-83855000D03*
%TO.P,J2,21,Pin_21*%
%TO.N,GND*%
X151825000Y-83855000D03*
%TO.P,J2,20,Pin_20*%
%TO.N,IO_A2*%
X156825000Y-81315000D03*
%TO.P,J2,19,Pin_19*%
%TO.N,IO_A15-CRUOUT*%
X151825000Y-81315000D03*
%TO.P,J2,18,Pin_18*%
%TO.N,IO_A9*%
X156825000Y-78775000D03*
%TO.P,J2,17,Pin_17*%
%TO.N,IO_A7*%
X151825000Y-78775000D03*
%TO.P,J2,16,Pin_16*%
%TO.N,IO_A14*%
X156825000Y-76235000D03*
%TO.P,J2,15,Pin_15*%
%TO.N,IO_A13*%
X151825000Y-76235000D03*
%TO.P,J2,14,Pin_14*%
%TO.N,IO_A8*%
X156825000Y-73695000D03*
%TO.P,J2,13,Pin_13*%
%TO.N,~{IO_LOAD}*%
X151825000Y-73695000D03*
%TO.P,J2,12,Pin_12*%
%TO.N,READY_~{HOLD}*%
X156825000Y-71155000D03*
%TO.P,J2,11,Pin_11*%
%TO.N,IO_A12*%
X151825000Y-71155000D03*
%TO.P,J2,10,Pin_10*%
%TO.N,IO_A3*%
X156825000Y-68615000D03*
%TO.P,J2,9,Pin_9*%
%TO.N,IO_DBIN*%
X151825000Y-68615000D03*
%TO.P,J2,8,Pin_8*%
%TO.N,IO_A11*%
X156825000Y-66075000D03*
%TO.P,J2,7,Pin_7*%
%TO.N,IO_A4*%
X151825000Y-66075000D03*
%TO.P,J2,6,Pin_6*%
%TO.N,IO_A10*%
X156825000Y-63535000D03*
%TO.P,J2,5,Pin_5*%
%TO.N,IO_A5*%
X151825000Y-63535000D03*
%TO.P,J2,4,Pin_4*%
%TO.N,~{IO_EXT_INT}*%
X156825000Y-60995000D03*
%TO.P,J2,3,Pin_3*%
%TO.N,~{IO_RESET}*%
X151825000Y-60995000D03*
%TO.P,J2,2,Pin_2*%
%TO.N,SBE*%
X156825000Y-58455000D03*
D11*
%TO.P,J2,1,Pin_1*%
%TO.N,+5V*%
X151825000Y-58455000D03*
%TD*%
%TO.P,J1,1,Pin_1*%
%TO.N,+5V*%
X124275000Y-58625000D03*
D10*
%TO.P,J1,2,Pin_2*%
%TO.N,SBE*%
X121735000Y-58625000D03*
%TO.P,J1,3,Pin_3*%
%TO.N,~{IO_RESET}*%
X124275000Y-61165000D03*
%TO.P,J1,4,Pin_4*%
%TO.N,~{IO_EXT_INT}*%
X121735000Y-61165000D03*
%TO.P,J1,5,Pin_5*%
%TO.N,IO_A5*%
X124275000Y-63705000D03*
%TO.P,J1,6,Pin_6*%
%TO.N,IO_A10*%
X121735000Y-63705000D03*
%TO.P,J1,7,Pin_7*%
%TO.N,IO_A4*%
X124275000Y-66245000D03*
%TO.P,J1,8,Pin_8*%
%TO.N,IO_A11*%
X121735000Y-66245000D03*
%TO.P,J1,9,Pin_9*%
%TO.N,IO_DBIN*%
X124275000Y-68785000D03*
%TO.P,J1,10,Pin_10*%
%TO.N,IO_A3*%
X121735000Y-68785000D03*
%TO.P,J1,11,Pin_11*%
%TO.N,IO_A12*%
X124275000Y-71325000D03*
%TO.P,J1,12,Pin_12*%
%TO.N,READY_~{HOLD}*%
X121735000Y-71325000D03*
%TO.P,J1,13,Pin_13*%
%TO.N,~{IO_LOAD}*%
X124275000Y-73865000D03*
%TO.P,J1,14,Pin_14*%
%TO.N,IO_A8*%
X121735000Y-73865000D03*
%TO.P,J1,15,Pin_15*%
%TO.N,IO_A13*%
X124275000Y-76405000D03*
%TO.P,J1,16,Pin_16*%
%TO.N,IO_A14*%
X121735000Y-76405000D03*
%TO.P,J1,17,Pin_17*%
%TO.N,IO_A7*%
X124275000Y-78945000D03*
%TO.P,J1,18,Pin_18*%
%TO.N,IO_A9*%
X121735000Y-78945000D03*
%TO.P,J1,19,Pin_19*%
%TO.N,IO_A15-CRUOUT*%
X124275000Y-81485000D03*
%TO.P,J1,20,Pin_20*%
%TO.N,IO_A2*%
X121735000Y-81485000D03*
%TO.P,J1,21,Pin_21*%
%TO.N,GND*%
X124275000Y-84025000D03*
%TO.P,J1,22,Pin_22*%
%TO.N,~{IO_CRUCLK}*%
X121735000Y-84025000D03*
%TO.P,J1,23,Pin_23*%
%TO.N,GND*%
X124275000Y-86565000D03*
%TO.P,J1,24,Pin_24*%
%TO.N,IO_\u00D83*%
X121735000Y-86565000D03*
%TO.P,J1,25,Pin_25*%
%TO.N,GND*%
X124275000Y-89105000D03*
%TO.P,J1,26,Pin_26*%
%TO.N,~{IO_WE}*%
X121735000Y-89105000D03*
%TO.P,J1,27,Pin_27*%
%TO.N,GND*%
X124275000Y-91645000D03*
%TO.P,J1,28,Pin_28*%
%TO.N,~{IO_MBE}*%
X121735000Y-91645000D03*
%TO.P,J1,29,Pin_29*%
%TO.N,IO_A6*%
X124275000Y-94185000D03*
%TO.P,J1,30,Pin_30*%
%TO.N,IO_A1*%
X121735000Y-94185000D03*
%TO.P,J1,31,Pin_31*%
%TO.N,IO_A0*%
X124275000Y-96725000D03*
%TO.P,J1,32,Pin_32*%
%TO.N,~{MEMEN}*%
X121735000Y-96725000D03*
%TO.P,J1,33,Pin_33*%
%TO.N,IO_CRUIN*%
X124275000Y-99265000D03*
%TO.P,J1,34,Pin_34*%
%TO.N,D7*%
X121735000Y-99265000D03*
%TO.P,J1,35,Pin_35*%
%TO.N,D4*%
X124275000Y-101805000D03*
%TO.P,J1,36,Pin_36*%
%TO.N,D6*%
X121735000Y-101805000D03*
%TO.P,J1,37,Pin_37*%
%TO.N,D0*%
X124275000Y-104345000D03*
%TO.P,J1,38,Pin_38*%
%TO.N,D5*%
X121735000Y-104345000D03*
%TO.P,J1,39,Pin_39*%
%TO.N,D2*%
X124275000Y-106885000D03*
%TO.P,J1,40,Pin_40*%
%TO.N,D1*%
X121735000Y-106885000D03*
%TO.P,J1,41,Pin_41*%
%TO.N,HOLD{slash}IAQ*%
X124275000Y-109425000D03*
%TO.P,J1,42,Pin_42*%
%TO.N,D3*%
X121735000Y-109425000D03*
%TO.P,J1,43,Pin_43*%
%TO.N,-5V*%
X124275000Y-111965000D03*
%TO.P,J1,44,Pin_44*%
%TO.N,IO_SNDIN*%
X121735000Y-111965000D03*
%TD*%
D12*
%TO.N,IO_SNDIN*%
X123371443Y-113601443D02*
X121735000Y-111965000D01*
X155098557Y-113601443D02*
X123371443Y-113601443D01*
X156905000Y-111795000D02*
X155098557Y-113601443D01*
%TO.N,D3*%
X155560000Y-110600000D02*
X156905000Y-109255000D01*
X122910000Y-110600000D02*
X155560000Y-110600000D01*
X121735000Y-109425000D02*
X122910000Y-110600000D01*
%TO.N,D1*%
X122930000Y-108080000D02*
X121735000Y-106885000D01*
X156905000Y-106715000D02*
X155540000Y-108080000D01*
X155540000Y-108080000D02*
X122930000Y-108080000D01*
%TO.N,D5*%
X150688556Y-105400000D02*
X155680000Y-105400000D01*
X150488556Y-105600000D02*
X150688556Y-105400000D01*
X155680000Y-105400000D02*
X156905000Y-104175000D01*
X122700000Y-105600000D02*
X150488556Y-105600000D01*
X121735000Y-104635000D02*
X122700000Y-105600000D01*
X121735000Y-104345000D02*
X121735000Y-104635000D01*
%TO.N,D6*%
X122930000Y-103000000D02*
X121735000Y-101805000D01*
X156825000Y-101775000D02*
X155600000Y-103000000D01*
X155600000Y-103000000D02*
X122930000Y-103000000D01*
X156825000Y-101635000D02*
X156825000Y-101775000D01*
%TO.N,D7*%
X155620000Y-100300000D02*
X156825000Y-99095000D01*
X150628556Y-100300000D02*
X155620000Y-100300000D01*
X150389278Y-100539278D02*
X150628556Y-100300000D01*
X121735000Y-99265000D02*
X123009278Y-100539278D01*
X123009278Y-100539278D02*
X150389278Y-100539278D01*
%TO.N,~{MEMEN}*%
X155500001Y-97879999D02*
X156825000Y-96555000D01*
X150389278Y-97999278D02*
X150508557Y-97879999D01*
X123009278Y-97999278D02*
X150389278Y-97999278D01*
X150508557Y-97879999D02*
X155500001Y-97879999D01*
X121735000Y-96725000D02*
X123009278Y-97999278D01*
%TO.N,IO_A1*%
X122930000Y-95380000D02*
X121735000Y-94185000D01*
X155460000Y-95380000D02*
X122930000Y-95380000D01*
X156825000Y-94015000D02*
X155460000Y-95380000D01*
%TO.N,~{IO_MBE}*%
X150508556Y-92800000D02*
X155500000Y-92800000D01*
X155500000Y-92800000D02*
X156825000Y-91475000D01*
X150408556Y-92900000D02*
X150508556Y-92800000D01*
X122990000Y-92900000D02*
X150408556Y-92900000D01*
X121735000Y-91645000D02*
X122990000Y-92900000D01*
%TO.N,~{IO_WE}*%
X122930000Y-90300000D02*
X121735000Y-89105000D01*
X155460000Y-90300000D02*
X122930000Y-90300000D01*
X156825000Y-88935000D02*
X155460000Y-90300000D01*
%TO.N,IO_\u00D83*%
X122930000Y-87760000D02*
X155460000Y-87760000D01*
X121735000Y-86565000D02*
X122930000Y-87760000D01*
X155460000Y-87760000D02*
X156825000Y-86395000D01*
%TO.N,~{IO_CRUCLK}*%
X122930000Y-85220000D02*
X121735000Y-84025000D01*
X153920000Y-85220000D02*
X122930000Y-85220000D01*
X154000000Y-85300000D02*
X153920000Y-85220000D01*
X155445000Y-83855000D02*
X154000000Y-85300000D01*
X156825000Y-83855000D02*
X155445000Y-83855000D01*
%TO.N,IO_A9*%
X125551444Y-80200000D02*
X122990000Y-80200000D01*
X122990000Y-80200000D02*
X121735000Y-78945000D01*
X155204278Y-80004278D02*
X125747166Y-80004278D01*
X125747166Y-80004278D02*
X125551444Y-80200000D01*
X155400000Y-80200000D02*
X155204278Y-80004278D01*
X156825000Y-78775000D02*
X155400000Y-80200000D01*
%TO.N,IO_A2*%
X122910000Y-82660000D02*
X155480000Y-82660000D01*
X155480000Y-82660000D02*
X156825000Y-81315000D01*
X121735000Y-81485000D02*
X122910000Y-82660000D01*
%TO.N,IO_A14*%
X122930000Y-77600000D02*
X121735000Y-76405000D01*
X150468556Y-77600000D02*
X122930000Y-77600000D01*
X150568556Y-77500000D02*
X150468556Y-77600000D01*
X155560000Y-77500000D02*
X150568556Y-77500000D01*
X156825000Y-76235000D02*
X155560000Y-77500000D01*
%TO.N,IO_A8*%
X122910000Y-75040000D02*
X121735000Y-73865000D01*
X156825000Y-73695000D02*
X155480000Y-75040000D01*
X155480000Y-75040000D02*
X122910000Y-75040000D01*
%TO.N,READY_~{HOLD}*%
X155600001Y-72379999D02*
X156825000Y-71155000D01*
X150389278Y-72599278D02*
X150608557Y-72379999D01*
X150608557Y-72379999D02*
X155600001Y-72379999D01*
X123009278Y-72599278D02*
X150389278Y-72599278D01*
X121735000Y-71325000D02*
X123009278Y-72599278D01*
%TO.N,IO_A3*%
X122930000Y-69980000D02*
X121735000Y-68785000D01*
X154320000Y-69980000D02*
X122930000Y-69980000D01*
X155685000Y-68615000D02*
X154320000Y-69980000D01*
X156825000Y-68615000D02*
X155685000Y-68615000D01*
%TO.N,IO_A11*%
X148799278Y-67500722D02*
X122990722Y-67500722D01*
X149050000Y-67250000D02*
X148799278Y-67500722D01*
X155650000Y-67250000D02*
X149050000Y-67250000D01*
X156825000Y-66075000D02*
X155650000Y-67250000D01*
X122990722Y-67500722D02*
X121735000Y-66245000D01*
%TO.N,IO_A10*%
X122930000Y-64900000D02*
X121735000Y-63705000D01*
X155460000Y-64900000D02*
X122930000Y-64900000D01*
X156825000Y-63535000D02*
X155460000Y-64900000D01*
%TO.N,~{IO_EXT_INT}*%
X122930000Y-62360000D02*
X121735000Y-61165000D01*
X155460000Y-62360000D02*
X122930000Y-62360000D01*
X156825000Y-60995000D02*
X155460000Y-62360000D01*
%TO.N,SBE*%
X122910000Y-59800000D02*
X121735000Y-58625000D01*
X125801444Y-59630000D02*
X125631444Y-59800000D01*
X155650000Y-59630000D02*
X125801444Y-59630000D01*
X125631444Y-59800000D02*
X122910000Y-59800000D01*
X156825000Y-58455000D02*
X155650000Y-59630000D01*
%TO.N,~{IO_LOAD}*%
X124445000Y-73695000D02*
X124275000Y-73865000D01*
X151825000Y-73695000D02*
X124445000Y-73695000D01*
%TO.N,IO_A12*%
X124445000Y-71155000D02*
X124275000Y-71325000D01*
X151825000Y-71155000D02*
X124445000Y-71155000D01*
%TO.N,IO_DBIN*%
X124445000Y-68615000D02*
X124275000Y-68785000D01*
X151825000Y-68615000D02*
X124445000Y-68615000D01*
%TO.N,IO_A4*%
X151825000Y-66075000D02*
X124445000Y-66075000D01*
X124445000Y-66075000D02*
X124275000Y-66245000D01*
%TO.N,IO_A5*%
X124445000Y-63535000D02*
X124275000Y-63705000D01*
X151825000Y-63535000D02*
X124445000Y-63535000D01*
%TO.N,~{IO_RESET}*%
X124445000Y-60995000D02*
X124275000Y-61165000D01*
X151825000Y-60995000D02*
X124445000Y-60995000D01*
%TO.N,IO_A13*%
X151825000Y-76235000D02*
X124445000Y-76235000D01*
X124445000Y-76235000D02*
X124275000Y-76405000D01*
%TO.N,IO_A7*%
X124445000Y-78775000D02*
X124275000Y-78945000D01*
X151825000Y-78775000D02*
X124445000Y-78775000D01*
%TO.N,IO_A15-CRUOUT*%
X151825000Y-81315000D02*
X124445000Y-81315000D01*
X124445000Y-81315000D02*
X124275000Y-81485000D01*
%TO.N,IO_A6*%
X124445000Y-94015000D02*
X124275000Y-94185000D01*
X151825000Y-94015000D02*
X124445000Y-94015000D01*
%TO.N,IO_A0*%
X124445000Y-96555000D02*
X124275000Y-96725000D01*
X151825000Y-96555000D02*
X124445000Y-96555000D01*
%TO.N,IO_CRUIN*%
X124445000Y-99095000D02*
X124275000Y-99265000D01*
X151825000Y-99095000D02*
X124445000Y-99095000D01*
%TO.N,D4*%
X124445000Y-101635000D02*
X124275000Y-101805000D01*
X151825000Y-101635000D02*
X124445000Y-101635000D01*
%TO.N,D0*%
X124445000Y-104175000D02*
X124275000Y-104345000D01*
X151905000Y-104175000D02*
X124445000Y-104175000D01*
%TO.N,D2*%
X151905000Y-106715000D02*
X124445000Y-106715000D01*
X124445000Y-106715000D02*
X124275000Y-106885000D01*
%TO.N,HOLD{slash}IAQ*%
X124445000Y-109255000D02*
X124275000Y-109425000D01*
X151905000Y-109255000D02*
X124445000Y-109255000D01*
D13*
%TO.N,-5V*%
X124445000Y-111795000D02*
X124275000Y-111965000D01*
X151905000Y-111795000D02*
X124445000Y-111795000D01*
%TO.N,+5V*%
X124445000Y-58455000D02*
X124275000Y-58625000D01*
X151825000Y-58455000D02*
X124445000Y-58455000D01*
%TD*%
%TA.AperFunction,Conductor*%
%TO.N,GND*%
G36*
X124471121Y-90953502D02*
G01*
X124517614Y-91007158D01*
X124529000Y-91059500D01*
X124529000Y-91372885D01*
X124533475Y-91388124D01*
X124534865Y-91389329D01*
X124542548Y-91391000D01*
X125593344Y-91391000D01*
X125606875Y-91387027D01*
X125608180Y-91377947D01*
X125566214Y-91210875D01*
X125562894Y-91201124D01*
X125523161Y-91109742D01*
X125514342Y-91039295D01*
X125545008Y-90975263D01*
X125605425Y-90937976D01*
X125638711Y-90933500D01*
X150400145Y-90933500D01*
X150468266Y-90953502D01*
X150514759Y-91007158D01*
X150524863Y-91077432D01*
X150521562Y-91093173D01*
X150489389Y-91209184D01*
X150490912Y-91217607D01*
X150503292Y-91221000D01*
X151552885Y-91221000D01*
X151568124Y-91216525D01*
X151569329Y-91215135D01*
X151571000Y-91207452D01*
X151571000Y-91059500D01*
X151591002Y-90991379D01*
X151644658Y-90944886D01*
X151697000Y-90933500D01*
X151953000Y-90933500D01*
X152021121Y-90953502D01*
X152067614Y-91007158D01*
X152079000Y-91059500D01*
X152079000Y-91202885D01*
X152083475Y-91218124D01*
X152084865Y-91219329D01*
X152092548Y-91221000D01*
X153143344Y-91221000D01*
X153156875Y-91217027D01*
X153158180Y-91207947D01*
X153128603Y-91090196D01*
X153131407Y-91019255D01*
X153172120Y-90961091D01*
X153237815Y-90934172D01*
X153250807Y-90933500D01*
X155381233Y-90933500D01*
X155392417Y-90934027D01*
X155399909Y-90935702D01*
X155407836Y-90935453D01*
X155411012Y-90935753D01*
X155476948Y-90962076D01*
X155518186Y-91019869D01*
X155520573Y-91094866D01*
X155485989Y-91219570D01*
X155462251Y-91441695D01*
X155462548Y-91446848D01*
X155462548Y-91446851D01*
X155468011Y-91541590D01*
X155475110Y-91664715D01*
X155476247Y-91669761D01*
X155476248Y-91669767D01*
X155508453Y-91812668D01*
X155503917Y-91883520D01*
X155474631Y-91929464D01*
X155274500Y-92129595D01*
X155212188Y-92163621D01*
X155185405Y-92166500D01*
X153200944Y-92166500D01*
X153132823Y-92146498D01*
X153086330Y-92092842D01*
X153076226Y-92022568D01*
X153087986Y-91984674D01*
X153089672Y-91981263D01*
X153093469Y-91971672D01*
X153155377Y-91767910D01*
X153157555Y-91757837D01*
X153158986Y-91746962D01*
X153156775Y-91732778D01*
X153143617Y-91729000D01*
X150508225Y-91729000D01*
X150494694Y-91732973D01*
X150493257Y-91742966D01*
X150523565Y-91877446D01*
X150526644Y-91887275D01*
X150570008Y-91994067D01*
X150577104Y-92064708D01*
X150544882Y-92127971D01*
X150483572Y-92163772D01*
X150468653Y-92166074D01*
X150468707Y-92166499D01*
X150466739Y-92166748D01*
X150464694Y-92167006D01*
X150452852Y-92167939D01*
X150408666Y-92169327D01*
X150391300Y-92174372D01*
X150389214Y-92174978D01*
X150369862Y-92178986D01*
X150362791Y-92179880D01*
X150349759Y-92181526D01*
X150342390Y-92184443D01*
X150342388Y-92184444D01*
X150308653Y-92197800D01*
X150297425Y-92201645D01*
X150254963Y-92213982D01*
X150248141Y-92218016D01*
X150248135Y-92218019D01*
X150237524Y-92224294D01*
X150219774Y-92232990D01*
X150208312Y-92237528D01*
X150208307Y-92237531D01*
X150200939Y-92240448D01*
X150194527Y-92245107D01*
X150187578Y-92248927D01*
X150186336Y-92246669D01*
X150131340Y-92266294D01*
X150124141Y-92266500D01*
X125675512Y-92266500D01*
X125607391Y-92246498D01*
X125560898Y-92192842D01*
X125550794Y-92122568D01*
X125554954Y-92103871D01*
X125605377Y-91937910D01*
X125607555Y-91927837D01*
X125608986Y-91916962D01*
X125606775Y-91902778D01*
X125593617Y-91899000D01*
X124147000Y-91899000D01*
X124078879Y-91878998D01*
X124032386Y-91825342D01*
X124021000Y-91773000D01*
X124021000Y-91059500D01*
X124041002Y-90991379D01*
X124094658Y-90944886D01*
X124147000Y-90933500D01*
X124403000Y-90933500D01*
X124471121Y-90953502D01*
G37*
%TD.AperFunction*%
%TA.AperFunction,Conductor*%
G36*
X124471121Y-88413502D02*
G01*
X124517614Y-88467158D01*
X124529000Y-88519500D01*
X124529000Y-88832885D01*
X124533475Y-88848124D01*
X124534865Y-88849329D01*
X124542548Y-88851000D01*
X125593344Y-88851000D01*
X125606875Y-88847027D01*
X125608180Y-88837947D01*
X125566214Y-88670875D01*
X125562894Y-88661124D01*
X125523161Y-88569742D01*
X125514342Y-88499295D01*
X125545008Y-88435263D01*
X125605425Y-88397976D01*
X125638711Y-88393500D01*
X150400145Y-88393500D01*
X150468266Y-88413502D01*
X150514759Y-88467158D01*
X150524863Y-88537432D01*
X150521562Y-88553173D01*
X150489389Y-88669184D01*
X150490912Y-88677607D01*
X150503292Y-88681000D01*
X151552885Y-88681000D01*
X151568124Y-88676525D01*
X151569329Y-88675135D01*
X151571000Y-88667452D01*
X151571000Y-88519500D01*
X151591002Y-88451379D01*
X151644658Y-88404886D01*
X151697000Y-88393500D01*
X151953000Y-88393500D01*
X152021121Y-88413502D01*
X152067614Y-88467158D01*
X152079000Y-88519500D01*
X152079000Y-88662885D01*
X152083475Y-88678124D01*
X152084865Y-88679329D01*
X152092548Y-88681000D01*
X153143344Y-88681000D01*
X153156875Y-88677027D01*
X153158180Y-88667947D01*
X153128603Y-88550196D01*
X153131407Y-88479255D01*
X153172120Y-88421091D01*
X153237815Y-88394172D01*
X153250807Y-88393500D01*
X155381233Y-88393500D01*
X155392417Y-88394027D01*
X155399909Y-88395702D01*
X155407836Y-88395453D01*
X155411012Y-88395753D01*
X155476948Y-88422076D01*
X155518186Y-88479869D01*
X155520573Y-88554866D01*
X155485989Y-88679570D01*
X155462251Y-88901695D01*
X155462548Y-88906848D01*
X155462548Y-88906851D01*
X155468011Y-89001590D01*
X155475110Y-89124715D01*
X155476247Y-89129761D01*
X155476248Y-89129767D01*
X155508453Y-89272668D01*
X155503917Y-89343520D01*
X155474631Y-89389464D01*
X155234500Y-89629595D01*
X155172188Y-89663621D01*
X155145405Y-89666500D01*
X153181175Y-89666500D01*
X153113054Y-89646498D01*
X153066561Y-89592842D01*
X153056457Y-89522568D01*
X153068217Y-89484674D01*
X153089672Y-89441263D01*
X153093469Y-89431672D01*
X153155377Y-89227910D01*
X153157555Y-89217837D01*
X153158986Y-89206962D01*
X153156775Y-89192778D01*
X153143617Y-89189000D01*
X152097115Y-89189000D01*
X152081876Y-89193475D01*
X152080671Y-89194865D01*
X152079000Y-89202548D01*
X152079000Y-89540500D01*
X152058998Y-89608621D01*
X152005342Y-89655114D01*
X151953000Y-89666500D01*
X151697000Y-89666500D01*
X151628879Y-89646498D01*
X151582386Y-89592842D01*
X151571000Y-89540500D01*
X151571000Y-89207115D01*
X151566525Y-89191876D01*
X151565135Y-89190671D01*
X151557452Y-89189000D01*
X150508225Y-89189000D01*
X150494694Y-89192973D01*
X150493257Y-89202966D01*
X150523565Y-89337446D01*
X150526644Y-89347275D01*
X150585856Y-89493096D01*
X150592952Y-89563737D01*
X150560730Y-89627000D01*
X150499420Y-89662801D01*
X150469113Y-89666500D01*
X125693741Y-89666500D01*
X125625620Y-89646498D01*
X125579127Y-89592842D01*
X125569023Y-89522568D01*
X125573183Y-89503871D01*
X125605377Y-89397910D01*
X125607555Y-89387837D01*
X125608986Y-89376962D01*
X125606775Y-89362778D01*
X125593617Y-89359000D01*
X124547115Y-89359000D01*
X124531876Y-89363475D01*
X124530671Y-89364865D01*
X124529000Y-89372548D01*
X124529000Y-89540500D01*
X124508998Y-89608621D01*
X124455342Y-89655114D01*
X124403000Y-89666500D01*
X124147000Y-89666500D01*
X124078879Y-89646498D01*
X124032386Y-89592842D01*
X124021000Y-89540500D01*
X124021000Y-88519500D01*
X124041002Y-88451379D01*
X124094658Y-88404886D01*
X124147000Y-88393500D01*
X124403000Y-88393500D01*
X124471121Y-88413502D01*
G37*
%TD.AperFunction*%
%TA.AperFunction,Conductor*%
G36*
X155674598Y-84625472D02*
G01*
X155725803Y-84661030D01*
X155871250Y-84828938D01*
X156043126Y-84971632D01*
X156083169Y-84995031D01*
X156116445Y-85014476D01*
X156165169Y-85066114D01*
X156178240Y-85135897D01*
X156151509Y-85201669D01*
X156111055Y-85235027D01*
X156098607Y-85241507D01*
X156094474Y-85244610D01*
X156094471Y-85244612D01*
X156012847Y-85305897D01*
X155919965Y-85375635D01*
X155765629Y-85537138D01*
X155639743Y-85721680D01*
X155603884Y-85798933D01*
X155550852Y-85913181D01*
X155545688Y-85924305D01*
X155485989Y-86139570D01*
X155462251Y-86361695D01*
X155462548Y-86366848D01*
X155462548Y-86366851D01*
X155468011Y-86461590D01*
X155475110Y-86584715D01*
X155476247Y-86589761D01*
X155476248Y-86589767D01*
X155508453Y-86732668D01*
X155503917Y-86803520D01*
X155474631Y-86849464D01*
X155234500Y-87089595D01*
X155172188Y-87123621D01*
X155145405Y-87126500D01*
X153181175Y-87126500D01*
X153113054Y-87106498D01*
X153066561Y-87052842D01*
X153056457Y-86982568D01*
X153068217Y-86944674D01*
X153089672Y-86901263D01*
X153093469Y-86891672D01*
X153155377Y-86687910D01*
X153157555Y-86677837D01*
X153158986Y-86666962D01*
X153156775Y-86652778D01*
X153143617Y-86649000D01*
X152097115Y-86649000D01*
X152081876Y-86653475D01*
X152080671Y-86654865D01*
X152079000Y-86662548D01*
X152079000Y-87000500D01*
X152058998Y-87068621D01*
X152005342Y-87115114D01*
X151953000Y-87126500D01*
X151697000Y-87126500D01*
X151628879Y-87106498D01*
X151582386Y-87052842D01*
X151571000Y-87000500D01*
X151571000Y-86667115D01*
X151566525Y-86651876D01*
X151565135Y-86650671D01*
X151557452Y-86649000D01*
X150508225Y-86649000D01*
X150494694Y-86652973D01*
X150493257Y-86662966D01*
X150523565Y-86797446D01*
X150526644Y-86807275D01*
X150585856Y-86953096D01*
X150592952Y-87023737D01*
X150560730Y-87087000D01*
X150499420Y-87122801D01*
X150469113Y-87126500D01*
X125693741Y-87126500D01*
X125625620Y-87106498D01*
X125579127Y-87052842D01*
X125569023Y-86982568D01*
X125573183Y-86963871D01*
X125605377Y-86857910D01*
X125607555Y-86847837D01*
X125608986Y-86836962D01*
X125606775Y-86822778D01*
X125593617Y-86819000D01*
X124547115Y-86819000D01*
X124531876Y-86823475D01*
X124530671Y-86824865D01*
X124529000Y-86832548D01*
X124529000Y-87000500D01*
X124508998Y-87068621D01*
X124455342Y-87115114D01*
X124403000Y-87126500D01*
X124147000Y-87126500D01*
X124078879Y-87106498D01*
X124032386Y-87052842D01*
X124021000Y-87000500D01*
X124021000Y-85979500D01*
X124041002Y-85911379D01*
X124094658Y-85864886D01*
X124147000Y-85853500D01*
X124403000Y-85853500D01*
X124471121Y-85873502D01*
X124517614Y-85927158D01*
X124529000Y-85979500D01*
X124529000Y-86292885D01*
X124533475Y-86308124D01*
X124534865Y-86309329D01*
X124542548Y-86311000D01*
X125593344Y-86311000D01*
X125606875Y-86307027D01*
X125608180Y-86297947D01*
X125566214Y-86130875D01*
X125562894Y-86121124D01*
X125523161Y-86029742D01*
X125514342Y-85959295D01*
X125545008Y-85895263D01*
X125605425Y-85857976D01*
X125638711Y-85853500D01*
X150400145Y-85853500D01*
X150468266Y-85873502D01*
X150514759Y-85927158D01*
X150524863Y-85997432D01*
X150521562Y-86013173D01*
X150489389Y-86129184D01*
X150490912Y-86137607D01*
X150503292Y-86141000D01*
X151552885Y-86141000D01*
X151568124Y-86136525D01*
X151569329Y-86135135D01*
X151571000Y-86127452D01*
X151571000Y-85979500D01*
X151591002Y-85911379D01*
X151644658Y-85864886D01*
X151697000Y-85853500D01*
X151953000Y-85853500D01*
X152021121Y-85873502D01*
X152067614Y-85927158D01*
X152079000Y-85979500D01*
X152079000Y-86122885D01*
X152083475Y-86138124D01*
X152084865Y-86139329D01*
X152092548Y-86141000D01*
X153143344Y-86141000D01*
X153156875Y-86137027D01*
X153158180Y-86127947D01*
X153128603Y-86010196D01*
X153131407Y-85939255D01*
X153172120Y-85881091D01*
X153237815Y-85854172D01*
X153250807Y-85853500D01*
X153657845Y-85853500D01*
X153707883Y-85863862D01*
X153718180Y-85868318D01*
X153726512Y-85871923D01*
X153733642Y-85875278D01*
X153783704Y-85900785D01*
X153791749Y-85902583D01*
X153814294Y-85909909D01*
X153821855Y-85913181D01*
X153862445Y-85919610D01*
X153877326Y-85921967D01*
X153885101Y-85923451D01*
X153901686Y-85927158D01*
X153939909Y-85935702D01*
X153947832Y-85935453D01*
X153947833Y-85935453D01*
X153947894Y-85935451D01*
X153948144Y-85935443D01*
X153971815Y-85936933D01*
X153972111Y-85936980D01*
X153972114Y-85936980D01*
X153979943Y-85938220D01*
X153987835Y-85937474D01*
X153987836Y-85937474D01*
X154035858Y-85932935D01*
X154043755Y-85932438D01*
X154076972Y-85931393D01*
X154099889Y-85930673D01*
X154107798Y-85928375D01*
X154131094Y-85923932D01*
X154131404Y-85923903D01*
X154131407Y-85923902D01*
X154139292Y-85923157D01*
X154192144Y-85904129D01*
X154199673Y-85901683D01*
X154245981Y-85888230D01*
X154245985Y-85888228D01*
X154253593Y-85886018D01*
X154260416Y-85881983D01*
X154260420Y-85881981D01*
X154260688Y-85881823D01*
X154282132Y-85871733D01*
X154282423Y-85871628D01*
X154282431Y-85871624D01*
X154289889Y-85868939D01*
X154336365Y-85837354D01*
X154342996Y-85833145D01*
X154391362Y-85804542D01*
X154397182Y-85798722D01*
X154415453Y-85783606D01*
X154415710Y-85783431D01*
X154422271Y-85778972D01*
X154459418Y-85736837D01*
X154464837Y-85731067D01*
X155541471Y-84654433D01*
X155603783Y-84620407D01*
X155674598Y-84625472D01*
G37*
%TD.AperFunction*%
%TA.AperFunction,Conductor*%
G36*
X150473812Y-83313502D02*
G01*
X150520305Y-83367158D01*
X150530409Y-83437432D01*
X150527108Y-83453172D01*
X150489389Y-83589183D01*
X150490912Y-83597607D01*
X150503292Y-83601000D01*
X153143344Y-83601000D01*
X153156875Y-83597027D01*
X153158180Y-83587947D01*
X153123579Y-83450196D01*
X153126383Y-83379255D01*
X153167096Y-83321091D01*
X153232791Y-83294172D01*
X153245783Y-83293500D01*
X154806406Y-83293500D01*
X154874527Y-83313502D01*
X154921020Y-83367158D01*
X154931124Y-83437432D01*
X154901630Y-83502012D01*
X154895502Y-83508594D01*
X154312505Y-84091590D01*
X153854500Y-84549595D01*
X153792188Y-84583621D01*
X153765405Y-84586500D01*
X153181175Y-84586500D01*
X153113054Y-84566498D01*
X153066561Y-84512842D01*
X153056457Y-84442568D01*
X153068217Y-84404674D01*
X153089672Y-84361263D01*
X153093469Y-84351672D01*
X153155377Y-84147910D01*
X153157555Y-84137837D01*
X153158986Y-84126962D01*
X153156775Y-84112778D01*
X153143617Y-84109000D01*
X152097115Y-84109000D01*
X152081876Y-84113475D01*
X152080671Y-84114865D01*
X152079000Y-84122548D01*
X152079000Y-84460500D01*
X152058998Y-84528621D01*
X152005342Y-84575114D01*
X151953000Y-84586500D01*
X151697000Y-84586500D01*
X151628879Y-84566498D01*
X151582386Y-84512842D01*
X151571000Y-84460500D01*
X151571000Y-84127115D01*
X151566525Y-84111876D01*
X151565135Y-84110671D01*
X151557452Y-84109000D01*
X150508225Y-84109000D01*
X150494694Y-84112973D01*
X150493257Y-84122966D01*
X150523565Y-84257446D01*
X150526644Y-84267275D01*
X150585856Y-84413096D01*
X150592952Y-84483737D01*
X150560730Y-84547000D01*
X150499420Y-84582801D01*
X150469113Y-84586500D01*
X125693741Y-84586500D01*
X125625620Y-84566498D01*
X125579127Y-84512842D01*
X125569023Y-84442568D01*
X125573183Y-84423871D01*
X125605377Y-84317910D01*
X125607555Y-84307837D01*
X125608986Y-84296962D01*
X125606775Y-84282778D01*
X125593617Y-84279000D01*
X124547115Y-84279000D01*
X124531876Y-84283475D01*
X124530671Y-84284865D01*
X124529000Y-84292548D01*
X124529000Y-84460500D01*
X124508998Y-84528621D01*
X124455342Y-84575114D01*
X124403000Y-84586500D01*
X124147000Y-84586500D01*
X124078879Y-84566498D01*
X124032386Y-84512842D01*
X124021000Y-84460500D01*
X124021000Y-83897000D01*
X124041002Y-83828879D01*
X124094658Y-83782386D01*
X124147000Y-83771000D01*
X125593344Y-83771000D01*
X125606875Y-83767027D01*
X125608180Y-83757947D01*
X125566214Y-83590875D01*
X125562896Y-83581129D01*
X125514464Y-83469743D01*
X125505644Y-83399296D01*
X125536311Y-83335264D01*
X125596727Y-83297976D01*
X125630014Y-83293500D01*
X150405691Y-83293500D01*
X150473812Y-83313502D01*
G37*
%TD.AperFunction*%
%TD*%
M02*
