M48
; DRILL file {KiCad (6.0.6)} date Sun Oct 16 14:55:53 2022
; FORMAT={-:-/ absolute / inch / decimal}
; #@! TF.CreationDate,2022-10-16T14:55:53-05:00
; #@! TF.GenerationSoftware,Kicad,Pcbnew,(6.0.6)
; #@! TF.FileFunction,Plated,1,2,PTH
FMAT,2
INCH
; #@! TA.AperFunction,Plated,PTH,ComponentDrill
T1C0.0394
%
G90
G05
T1
X5.9581Y-2.378
X5.9581Y-2.478
X5.9581Y-2.578
X5.9581Y-2.678
X5.9581Y-2.778
X5.9581Y-2.878
X5.9581Y-2.978
X5.9581Y-3.078
X5.9581Y-3.178
X5.9581Y-3.278
X5.9581Y-3.378
X5.9581Y-3.478
X5.9581Y-3.578
X5.9581Y-3.678
X5.9581Y-3.778
X5.9581Y-3.878
X5.9581Y-3.978
X5.9581Y-4.078
X6.0581Y-2.378
X6.0581Y-2.478
X6.0581Y-2.578
X6.0581Y-2.678
X6.0581Y-2.778
X6.0581Y-2.878
X6.0581Y-2.978
X6.0581Y-3.078
X6.0581Y-3.178
X6.0581Y-3.278
X6.0581Y-3.378
X6.0581Y-3.478
X6.0581Y-3.578
X6.0581Y-3.678
X6.0581Y-3.778
X6.0581Y-3.878
X6.0581Y-3.978
X6.0581Y-4.078
X6.7451Y-2.3827
X6.7451Y-2.4827
X6.7451Y-2.5827
X6.7451Y-2.6827
X6.7451Y-2.7827
X6.7451Y-2.8827
X6.7451Y-2.9827
X6.7451Y-3.0827
X6.7451Y-3.1827
X6.7451Y-3.2827
X6.7451Y-3.3827
X6.7451Y-3.4827
X6.7451Y-3.5827
X6.7451Y-3.6827
X6.7451Y-3.7827
X6.7451Y-3.8827
X6.7451Y-3.9827
X6.7451Y-4.0827
X6.9419Y-2.3827
X6.9419Y-2.4827
X6.9419Y-2.5827
X6.9419Y-2.6827
X6.9419Y-2.7827
X6.9419Y-2.8827
X6.9419Y-2.9827
X6.9419Y-3.0827
X6.9419Y-3.1827
X6.9419Y-3.2827
X6.9419Y-3.3827
X6.9419Y-3.4827
X6.9419Y-3.5827
X6.9419Y-3.6827
X6.9419Y-3.7827
X6.9419Y-3.8827
X6.9419Y-3.9827
X6.9419Y-4.0827
T0
M30
