%TF.GenerationSoftware,KiCad,Pcbnew,(6.0.6)*%
%TF.CreationDate,2022-10-25T09:25:13-05:00*%
%TF.ProjectId,CartRiser,43617274-5269-4736-9572-2e6b69636164,.8*%
%TF.SameCoordinates,Original*%
%TF.FileFunction,Copper,L1,Top*%
%TF.FilePolarity,Positive*%
%FSLAX46Y46*%
G04 Gerber Fmt 4.6, Leading zero omitted, Abs format (unit mm)*
G04 Created by KiCad (PCBNEW (6.0.6)) date 2022-10-25 09:25:13*
%MOMM*%
%LPD*%
G01*
G04 APERTURE LIST*
%TA.AperFunction,ComponentPad*%
%ADD10R,1.700000X1.700000*%
%TD*%
%TA.AperFunction,ComponentPad*%
%ADD11O,1.700000X1.700000*%
%TD*%
%TA.AperFunction,Conductor*%
%ADD12C,0.250000*%
%TD*%
%TA.AperFunction,Conductor*%
%ADD13C,1.000000*%
%TD*%
G04 APERTURE END LIST*
D10*
%TO.P,J2,1,Pin_1*%
%TO.N,~{CMRESET}*%
X171325000Y-60520000D03*
D11*
%TO.P,J2,2,Pin_2*%
%TO.N,GND*%
X176325000Y-60520000D03*
%TO.P,J2,3,Pin_3*%
%TO.N,D7*%
X171325000Y-63060000D03*
%TO.P,J2,4,Pin_4*%
%TO.N,~{CRUCLK}*%
X176325000Y-63060000D03*
%TO.P,J2,5,Pin_5*%
%TO.N,D6*%
X171325000Y-65600000D03*
%TO.P,J2,6,Pin_6*%
%TO.N,CRUIN*%
X176325000Y-65600000D03*
%TO.P,J2,7,Pin_7*%
%TO.N,D5*%
X171325000Y-68140000D03*
%TO.P,J2,8,Pin_8*%
%TO.N,A15-CRUOUT*%
X176325000Y-68140000D03*
%TO.P,J2,9,Pin_9*%
%TO.N,D4*%
X171325000Y-70680000D03*
%TO.P,J2,10,Pin_10*%
%TO.N,A13*%
X176325000Y-70680000D03*
%TO.P,J2,11,Pin_11*%
%TO.N,D3*%
X171325000Y-73220000D03*
%TO.P,J2,12,Pin_12*%
%TO.N,A12*%
X176325000Y-73220000D03*
%TO.P,J2,13,Pin_13*%
%TO.N,D2*%
X171325000Y-75760000D03*
%TO.P,J2,14,Pin_14*%
%TO.N,A11*%
X176325000Y-75760000D03*
%TO.P,J2,15,Pin_15*%
%TO.N,D1*%
X171325000Y-78300000D03*
%TO.P,J2,16,Pin_16*%
%TO.N,A10*%
X176325000Y-78300000D03*
%TO.P,J2,17,Pin_17*%
%TO.N,D0*%
X171325000Y-80840000D03*
%TO.P,J2,18,Pin_18*%
%TO.N,A9*%
X176325000Y-80840000D03*
%TO.P,J2,19,Pin_19*%
%TO.N,+5V*%
X171325000Y-83380000D03*
%TO.P,J2,20,Pin_20*%
%TO.N,A8*%
X176325000Y-83380000D03*
%TO.P,J2,21,Pin_21*%
%TO.N,~{GS}*%
X171325000Y-85920000D03*
%TO.P,J2,22,Pin_22*%
%TO.N,A7*%
X176325000Y-85920000D03*
%TO.P,J2,23,Pin_23*%
%TO.N,IO_A14*%
X171325000Y-88460000D03*
%TO.P,J2,24,Pin_24*%
%TO.N,A3*%
X176325000Y-88460000D03*
%TO.P,J2,25,Pin_25*%
%TO.N,DBIN*%
X171325000Y-91000000D03*
%TO.P,J2,26,Pin_26*%
%TO.N,A6*%
X176325000Y-91000000D03*
%TO.P,J2,27,Pin_27*%
%TO.N,GRMCLK*%
X171325000Y-93540000D03*
%TO.P,J2,28,Pin_28*%
%TO.N,A5*%
X176325000Y-93540000D03*
%TO.P,J2,29,Pin_29*%
%TO.N,-5V*%
X171325000Y-96080000D03*
%TO.P,J2,30,Pin_30*%
%TO.N,A4*%
X176325000Y-96080000D03*
%TO.P,J2,31,Pin_31*%
%TO.N,GREADY*%
X171325000Y-98620000D03*
%TO.P,J2,32,Pin_32*%
%TO.N,~{mWE}*%
X176325000Y-98620000D03*
%TO.P,J2,33,Pin_33*%
%TO.N,VSS*%
X171325000Y-101160000D03*
%TO.P,J2,34,Pin_34*%
%TO.N,~{ROMG}*%
X176325000Y-101160000D03*
%TO.P,J2,35,Pin_35*%
%TO.N,GND*%
X171325000Y-103700000D03*
%TO.P,J2,36,Pin_36*%
X176325000Y-103700000D03*
%TD*%
D10*
%TO.P,J1,1,Pin_1*%
%TO.N,~{CMRESET}*%
X166900000Y-60500000D03*
D11*
%TO.P,J1,2,Pin_2*%
%TO.N,GND*%
X164360000Y-60500000D03*
%TO.P,J1,3,Pin_3*%
%TO.N,D7*%
X166900000Y-63040000D03*
%TO.P,J1,4,Pin_4*%
%TO.N,~{CRUCLK}*%
X164360000Y-63040000D03*
%TO.P,J1,5,Pin_5*%
%TO.N,D6*%
X166900000Y-65580000D03*
%TO.P,J1,6,Pin_6*%
%TO.N,CRUIN*%
X164360000Y-65580000D03*
%TO.P,J1,7,Pin_7*%
%TO.N,D5*%
X166900000Y-68120000D03*
%TO.P,J1,8,Pin_8*%
%TO.N,A15-CRUOUT*%
X164360000Y-68120000D03*
%TO.P,J1,9,Pin_9*%
%TO.N,D4*%
X166900000Y-70660000D03*
%TO.P,J1,10,Pin_10*%
%TO.N,A13*%
X164360000Y-70660000D03*
%TO.P,J1,11,Pin_11*%
%TO.N,D3*%
X166900000Y-73200000D03*
%TO.P,J1,12,Pin_12*%
%TO.N,A12*%
X164360000Y-73200000D03*
%TO.P,J1,13,Pin_13*%
%TO.N,D2*%
X166900000Y-75740000D03*
%TO.P,J1,14,Pin_14*%
%TO.N,A11*%
X164360000Y-75740000D03*
%TO.P,J1,15,Pin_15*%
%TO.N,D1*%
X166900000Y-78280000D03*
%TO.P,J1,16,Pin_16*%
%TO.N,A10*%
X164360000Y-78280000D03*
%TO.P,J1,17,Pin_17*%
%TO.N,D0*%
X166900000Y-80820000D03*
%TO.P,J1,18,Pin_18*%
%TO.N,A9*%
X164360000Y-80820000D03*
%TO.P,J1,19,Pin_19*%
%TO.N,+5V*%
X166900000Y-83360000D03*
%TO.P,J1,20,Pin_20*%
%TO.N,A8*%
X164360000Y-83360000D03*
%TO.P,J1,21,Pin_21*%
%TO.N,~{GS}*%
X166900000Y-85900000D03*
%TO.P,J1,22,Pin_22*%
%TO.N,A7*%
X164360000Y-85900000D03*
%TO.P,J1,23,Pin_23*%
%TO.N,IO_A14*%
X166900000Y-88440000D03*
%TO.P,J1,24,Pin_24*%
%TO.N,A3*%
X164360000Y-88440000D03*
%TO.P,J1,25,Pin_25*%
%TO.N,DBIN*%
X166900000Y-90980000D03*
%TO.P,J1,26,Pin_26*%
%TO.N,A6*%
X164360000Y-90980000D03*
%TO.P,J1,27,Pin_27*%
%TO.N,GRMCLK*%
X166900000Y-93520000D03*
%TO.P,J1,28,Pin_28*%
%TO.N,A5*%
X164360000Y-93520000D03*
%TO.P,J1,29,Pin_29*%
%TO.N,-5V*%
X166900000Y-96060000D03*
%TO.P,J1,30,Pin_30*%
%TO.N,A4*%
X164360000Y-96060000D03*
%TO.P,J1,31,Pin_31*%
%TO.N,GREADY*%
X166900000Y-98600000D03*
%TO.P,J1,32,Pin_32*%
%TO.N,~{mWE}*%
X164360000Y-98600000D03*
%TO.P,J1,33,Pin_33*%
%TO.N,VSS*%
X166900000Y-101140000D03*
%TO.P,J1,34,Pin_34*%
%TO.N,~{ROMG}*%
X164360000Y-101140000D03*
%TO.P,J1,35,Pin_35*%
%TO.N,GND*%
X166900000Y-103680000D03*
%TO.P,J1,36,Pin_36*%
X164360000Y-103680000D03*
%TD*%
D12*
%TO.N,~{CRUCLK}*%
X173953200Y-61863500D02*
X175149700Y-63060000D01*
X166344500Y-61863500D02*
X173953200Y-61863500D01*
X165535300Y-62672700D02*
X166344500Y-61863500D01*
X165535300Y-63040000D02*
X165535300Y-62672700D01*
X164360000Y-63040000D02*
X165535300Y-63040000D01*
X176325000Y-63060000D02*
X175149700Y-63060000D01*
D13*
%TO.N,GND*%
X177899000Y-62094000D02*
X176325000Y-60520000D01*
X177899000Y-102126000D02*
X177899000Y-62094000D01*
X176325000Y-103700000D02*
X177899000Y-102126000D01*
%TD*%
%TA.AperFunction,Conductor*%
%TO.N,GND*%
G36*
X178041925Y-47028502D02*
G01*
X178088418Y-47082158D01*
X178099804Y-47134682D01*
X178045446Y-84424171D01*
X178000182Y-115474963D01*
X177980081Y-115543054D01*
X177926357Y-115589469D01*
X177874967Y-115600777D01*
X162035282Y-115699160D01*
X161967039Y-115679581D01*
X161920214Y-115626215D01*
X161908500Y-115573162D01*
X161908500Y-112232703D01*
X171690743Y-112232703D01*
X171728268Y-112517734D01*
X171804129Y-112795036D01*
X171916923Y-113059476D01*
X172064561Y-113306161D01*
X172244313Y-113530528D01*
X172452851Y-113728423D01*
X172686317Y-113896186D01*
X172690112Y-113898195D01*
X172690113Y-113898196D01*
X172711869Y-113909715D01*
X172940392Y-114030712D01*
X173210373Y-114129511D01*
X173491264Y-114190755D01*
X173519841Y-114193004D01*
X173714282Y-114208307D01*
X173714291Y-114208307D01*
X173716739Y-114208500D01*
X173872271Y-114208500D01*
X173874407Y-114208354D01*
X173874418Y-114208354D01*
X174082548Y-114194165D01*
X174082554Y-114194164D01*
X174086825Y-114193873D01*
X174091020Y-114193004D01*
X174091022Y-114193004D01*
X174227583Y-114164724D01*
X174368342Y-114135574D01*
X174639343Y-114039607D01*
X174894812Y-113907750D01*
X174898313Y-113905289D01*
X174898317Y-113905287D01*
X175012417Y-113825096D01*
X175130023Y-113742441D01*
X175340622Y-113546740D01*
X175522713Y-113324268D01*
X175672927Y-113079142D01*
X175788483Y-112815898D01*
X175867244Y-112539406D01*
X175907751Y-112254784D01*
X175907845Y-112236951D01*
X175909235Y-111971583D01*
X175909235Y-111971576D01*
X175909257Y-111967297D01*
X175871732Y-111682266D01*
X175795871Y-111404964D01*
X175683077Y-111140524D01*
X175535439Y-110893839D01*
X175355687Y-110669472D01*
X175147149Y-110471577D01*
X174913683Y-110303814D01*
X174891843Y-110292250D01*
X174868654Y-110279972D01*
X174659608Y-110169288D01*
X174389627Y-110070489D01*
X174108736Y-110009245D01*
X174077685Y-110006801D01*
X173885718Y-109991693D01*
X173885709Y-109991693D01*
X173883261Y-109991500D01*
X173727729Y-109991500D01*
X173725593Y-109991646D01*
X173725582Y-109991646D01*
X173517452Y-110005835D01*
X173517446Y-110005836D01*
X173513175Y-110006127D01*
X173508980Y-110006996D01*
X173508978Y-110006996D01*
X173372417Y-110035276D01*
X173231658Y-110064426D01*
X172960657Y-110160393D01*
X172705188Y-110292250D01*
X172701687Y-110294711D01*
X172701683Y-110294713D01*
X172691594Y-110301804D01*
X172469977Y-110457559D01*
X172259378Y-110653260D01*
X172077287Y-110875732D01*
X171927073Y-111120858D01*
X171811517Y-111384102D01*
X171732756Y-111660594D01*
X171692249Y-111945216D01*
X171692227Y-111949505D01*
X171692226Y-111949512D01*
X171690765Y-112228417D01*
X171690743Y-112232703D01*
X161908500Y-112232703D01*
X161908500Y-109860500D01*
X161917106Y-103947966D01*
X163028257Y-103947966D01*
X163058565Y-104082446D01*
X163061645Y-104092275D01*
X163141770Y-104289603D01*
X163146413Y-104298794D01*
X163257694Y-104480388D01*
X163263777Y-104488699D01*
X163403213Y-104649667D01*
X163410580Y-104656883D01*
X163574434Y-104792916D01*
X163582881Y-104798831D01*
X163766756Y-104906279D01*
X163776042Y-104910729D01*
X163975001Y-104986703D01*
X163984899Y-104989579D01*
X164088250Y-105010606D01*
X164102299Y-105009410D01*
X164106000Y-104999065D01*
X164106000Y-104998517D01*
X164614000Y-104998517D01*
X164618064Y-105012359D01*
X164631478Y-105014393D01*
X164638184Y-105013534D01*
X164648262Y-105011392D01*
X164852255Y-104950191D01*
X164861842Y-104946433D01*
X165053095Y-104852739D01*
X165061945Y-104847464D01*
X165235328Y-104723792D01*
X165243200Y-104717139D01*
X165394052Y-104566812D01*
X165400730Y-104558965D01*
X165528022Y-104381819D01*
X165529147Y-104382627D01*
X165576669Y-104338876D01*
X165646607Y-104326661D01*
X165712046Y-104354197D01*
X165739870Y-104386028D01*
X165797690Y-104480383D01*
X165803777Y-104488699D01*
X165943213Y-104649667D01*
X165950580Y-104656883D01*
X166114434Y-104792916D01*
X166122881Y-104798831D01*
X166306756Y-104906279D01*
X166316042Y-104910729D01*
X166515001Y-104986703D01*
X166524899Y-104989579D01*
X166628250Y-105010606D01*
X166642299Y-105009410D01*
X166646000Y-104999065D01*
X166646000Y-104998517D01*
X167154000Y-104998517D01*
X167158064Y-105012359D01*
X167171478Y-105014393D01*
X167178184Y-105013534D01*
X167188262Y-105011392D01*
X167392255Y-104950191D01*
X167401842Y-104946433D01*
X167593095Y-104852739D01*
X167601945Y-104847464D01*
X167775328Y-104723792D01*
X167783200Y-104717139D01*
X167934052Y-104566812D01*
X167940730Y-104558965D01*
X168065003Y-104386020D01*
X168070313Y-104377183D01*
X168164670Y-104186267D01*
X168168469Y-104176672D01*
X168230377Y-103972910D01*
X168231446Y-103967966D01*
X169993257Y-103967966D01*
X170023565Y-104102446D01*
X170026645Y-104112275D01*
X170106770Y-104309603D01*
X170111413Y-104318794D01*
X170222694Y-104500388D01*
X170228777Y-104508699D01*
X170368213Y-104669667D01*
X170375580Y-104676883D01*
X170539434Y-104812916D01*
X170547881Y-104818831D01*
X170731756Y-104926279D01*
X170741042Y-104930729D01*
X170940001Y-105006703D01*
X170949899Y-105009579D01*
X171053250Y-105030606D01*
X171067299Y-105029410D01*
X171071000Y-105019065D01*
X171071000Y-105018517D01*
X171579000Y-105018517D01*
X171583064Y-105032359D01*
X171596478Y-105034393D01*
X171603184Y-105033534D01*
X171613262Y-105031392D01*
X171817255Y-104970191D01*
X171826842Y-104966433D01*
X172018095Y-104872739D01*
X172026945Y-104867464D01*
X172200328Y-104743792D01*
X172208200Y-104737139D01*
X172359052Y-104586812D01*
X172365730Y-104578965D01*
X172490003Y-104406020D01*
X172495313Y-104397183D01*
X172589670Y-104206267D01*
X172593469Y-104196672D01*
X172655377Y-103992910D01*
X172657555Y-103982837D01*
X172658986Y-103971962D01*
X172658363Y-103967966D01*
X174993257Y-103967966D01*
X175023565Y-104102446D01*
X175026645Y-104112275D01*
X175106770Y-104309603D01*
X175111413Y-104318794D01*
X175222694Y-104500388D01*
X175228777Y-104508699D01*
X175368213Y-104669667D01*
X175375580Y-104676883D01*
X175539434Y-104812916D01*
X175547881Y-104818831D01*
X175731756Y-104926279D01*
X175741042Y-104930729D01*
X175940001Y-105006703D01*
X175949899Y-105009579D01*
X176053250Y-105030606D01*
X176067299Y-105029410D01*
X176071000Y-105019065D01*
X176071000Y-105018517D01*
X176579000Y-105018517D01*
X176583064Y-105032359D01*
X176596478Y-105034393D01*
X176603184Y-105033534D01*
X176613262Y-105031392D01*
X176817255Y-104970191D01*
X176826842Y-104966433D01*
X177018095Y-104872739D01*
X177026945Y-104867464D01*
X177200328Y-104743792D01*
X177208200Y-104737139D01*
X177359052Y-104586812D01*
X177365730Y-104578965D01*
X177490003Y-104406020D01*
X177495313Y-104397183D01*
X177589670Y-104206267D01*
X177593469Y-104196672D01*
X177655377Y-103992910D01*
X177657555Y-103982837D01*
X177658986Y-103971962D01*
X177656775Y-103957778D01*
X177643617Y-103954000D01*
X176597115Y-103954000D01*
X176581876Y-103958475D01*
X176580671Y-103959865D01*
X176579000Y-103967548D01*
X176579000Y-105018517D01*
X176071000Y-105018517D01*
X176071000Y-103972115D01*
X176066525Y-103956876D01*
X176065135Y-103955671D01*
X176057452Y-103954000D01*
X175008225Y-103954000D01*
X174994694Y-103957973D01*
X174993257Y-103967966D01*
X172658363Y-103967966D01*
X172656775Y-103957778D01*
X172643617Y-103954000D01*
X171597115Y-103954000D01*
X171581876Y-103958475D01*
X171580671Y-103959865D01*
X171579000Y-103967548D01*
X171579000Y-105018517D01*
X171071000Y-105018517D01*
X171071000Y-103972115D01*
X171066525Y-103956876D01*
X171065135Y-103955671D01*
X171057452Y-103954000D01*
X170008225Y-103954000D01*
X169994694Y-103957973D01*
X169993257Y-103967966D01*
X168231446Y-103967966D01*
X168232555Y-103962837D01*
X168233986Y-103951962D01*
X168231775Y-103937778D01*
X168218617Y-103934000D01*
X167172115Y-103934000D01*
X167156876Y-103938475D01*
X167155671Y-103939865D01*
X167154000Y-103947548D01*
X167154000Y-104998517D01*
X166646000Y-104998517D01*
X166646000Y-103952115D01*
X166641525Y-103936876D01*
X166640135Y-103935671D01*
X166632452Y-103934000D01*
X164632115Y-103934000D01*
X164616876Y-103938475D01*
X164615671Y-103939865D01*
X164614000Y-103947548D01*
X164614000Y-104998517D01*
X164106000Y-104998517D01*
X164106000Y-103952115D01*
X164101525Y-103936876D01*
X164100135Y-103935671D01*
X164092452Y-103934000D01*
X163043225Y-103934000D01*
X163029694Y-103937973D01*
X163028257Y-103947966D01*
X161917106Y-103947966D01*
X161921242Y-101106695D01*
X162997251Y-101106695D01*
X162997548Y-101111848D01*
X162997548Y-101111851D01*
X163003011Y-101206590D01*
X163010110Y-101329715D01*
X163011247Y-101334761D01*
X163011248Y-101334767D01*
X163031119Y-101422939D01*
X163059222Y-101547639D01*
X163143266Y-101754616D01*
X163194019Y-101837438D01*
X163257291Y-101940688D01*
X163259987Y-101945088D01*
X163406250Y-102113938D01*
X163578126Y-102256632D01*
X163612352Y-102276632D01*
X163651955Y-102299774D01*
X163700679Y-102351412D01*
X163713750Y-102421195D01*
X163687019Y-102486967D01*
X163646562Y-102520327D01*
X163638457Y-102524546D01*
X163629738Y-102530036D01*
X163459433Y-102657905D01*
X163451726Y-102664748D01*
X163304590Y-102818717D01*
X163298104Y-102826727D01*
X163178098Y-103002649D01*
X163173000Y-103011623D01*
X163083338Y-103204783D01*
X163079775Y-103214470D01*
X163024389Y-103414183D01*
X163025912Y-103422607D01*
X163038292Y-103426000D01*
X168218344Y-103426000D01*
X168231875Y-103422027D01*
X168233180Y-103412947D01*
X168191214Y-103245875D01*
X168187894Y-103236124D01*
X168102972Y-103040814D01*
X168098105Y-103031739D01*
X167982426Y-102852926D01*
X167976136Y-102844757D01*
X167832806Y-102687240D01*
X167825273Y-102680215D01*
X167658139Y-102548222D01*
X167649556Y-102542520D01*
X167612602Y-102522120D01*
X167562631Y-102471687D01*
X167547859Y-102402245D01*
X167572975Y-102335839D01*
X167600327Y-102309232D01*
X167623797Y-102292491D01*
X167779860Y-102181173D01*
X167938096Y-102023489D01*
X167997594Y-101940689D01*
X168065435Y-101846277D01*
X168068453Y-101842077D01*
X168089320Y-101799857D01*
X168165136Y-101646453D01*
X168165137Y-101646451D01*
X168167430Y-101641811D01*
X168232370Y-101428069D01*
X168261529Y-101206590D01*
X168262585Y-101163365D01*
X168263074Y-101143365D01*
X168263074Y-101143361D01*
X168263156Y-101140000D01*
X168244852Y-100917361D01*
X168190431Y-100700702D01*
X168101354Y-100495840D01*
X168061906Y-100434862D01*
X167982822Y-100312617D01*
X167982820Y-100312614D01*
X167980014Y-100308277D01*
X167829670Y-100143051D01*
X167825619Y-100139852D01*
X167825615Y-100139848D01*
X167658414Y-100007800D01*
X167658410Y-100007798D01*
X167654359Y-100004598D01*
X167613053Y-99981796D01*
X167563084Y-99931364D01*
X167548312Y-99861921D01*
X167573428Y-99795516D01*
X167600780Y-99768909D01*
X167650664Y-99733327D01*
X167779860Y-99641173D01*
X167938096Y-99483489D01*
X167997594Y-99400689D01*
X168065435Y-99306277D01*
X168068453Y-99302077D01*
X168089320Y-99259857D01*
X168165136Y-99106453D01*
X168165137Y-99106451D01*
X168167430Y-99101811D01*
X168232370Y-98888069D01*
X168261529Y-98666590D01*
X168262585Y-98623365D01*
X168263074Y-98603365D01*
X168263074Y-98603361D01*
X168263156Y-98600000D01*
X168244852Y-98377361D01*
X168190431Y-98160702D01*
X168101354Y-97955840D01*
X168061906Y-97894862D01*
X167982822Y-97772617D01*
X167982820Y-97772614D01*
X167980014Y-97768277D01*
X167829670Y-97603051D01*
X167825619Y-97599852D01*
X167825615Y-97599848D01*
X167658414Y-97467800D01*
X167658410Y-97467798D01*
X167654359Y-97464598D01*
X167613053Y-97441796D01*
X167563084Y-97391364D01*
X167548312Y-97321921D01*
X167573428Y-97255516D01*
X167600780Y-97228909D01*
X167650664Y-97193327D01*
X167779860Y-97101173D01*
X167938096Y-96943489D01*
X167997594Y-96860689D01*
X168065435Y-96766277D01*
X168068453Y-96762077D01*
X168089320Y-96719857D01*
X168165136Y-96566453D01*
X168165137Y-96566451D01*
X168167430Y-96561811D01*
X168232370Y-96348069D01*
X168261529Y-96126590D01*
X168262585Y-96083365D01*
X168263074Y-96063365D01*
X168263074Y-96063361D01*
X168263156Y-96060000D01*
X168244852Y-95837361D01*
X168190431Y-95620702D01*
X168101354Y-95415840D01*
X168061906Y-95354862D01*
X167982822Y-95232617D01*
X167982820Y-95232614D01*
X167980014Y-95228277D01*
X167829670Y-95063051D01*
X167825619Y-95059852D01*
X167825615Y-95059848D01*
X167658414Y-94927800D01*
X167658410Y-94927798D01*
X167654359Y-94924598D01*
X167613053Y-94901796D01*
X167563084Y-94851364D01*
X167548312Y-94781921D01*
X167573428Y-94715516D01*
X167600780Y-94688909D01*
X167650664Y-94653327D01*
X167779860Y-94561173D01*
X167938096Y-94403489D01*
X167997594Y-94320689D01*
X168065435Y-94226277D01*
X168068453Y-94222077D01*
X168089320Y-94179857D01*
X168165136Y-94026453D01*
X168165137Y-94026451D01*
X168167430Y-94021811D01*
X168232370Y-93808069D01*
X168261529Y-93586590D01*
X168262585Y-93543365D01*
X168263074Y-93523365D01*
X168263074Y-93523361D01*
X168263156Y-93520000D01*
X168244852Y-93297361D01*
X168190431Y-93080702D01*
X168101354Y-92875840D01*
X168061906Y-92814862D01*
X167982822Y-92692617D01*
X167982820Y-92692614D01*
X167980014Y-92688277D01*
X167829670Y-92523051D01*
X167825619Y-92519852D01*
X167825615Y-92519848D01*
X167658414Y-92387800D01*
X167658410Y-92387798D01*
X167654359Y-92384598D01*
X167613053Y-92361796D01*
X167563084Y-92311364D01*
X167548312Y-92241921D01*
X167573428Y-92175516D01*
X167600780Y-92148909D01*
X167650664Y-92113327D01*
X167779860Y-92021173D01*
X167938096Y-91863489D01*
X167997594Y-91780689D01*
X168065435Y-91686277D01*
X168068453Y-91682077D01*
X168089320Y-91639857D01*
X168165136Y-91486453D01*
X168165137Y-91486451D01*
X168167430Y-91481811D01*
X168232370Y-91268069D01*
X168261529Y-91046590D01*
X168262585Y-91003365D01*
X168263074Y-90983365D01*
X168263074Y-90983361D01*
X168263156Y-90980000D01*
X168244852Y-90757361D01*
X168190431Y-90540702D01*
X168101354Y-90335840D01*
X168061906Y-90274862D01*
X167982822Y-90152617D01*
X167982820Y-90152614D01*
X167980014Y-90148277D01*
X167829670Y-89983051D01*
X167825619Y-89979852D01*
X167825615Y-89979848D01*
X167658414Y-89847800D01*
X167658410Y-89847798D01*
X167654359Y-89844598D01*
X167613053Y-89821796D01*
X167563084Y-89771364D01*
X167548312Y-89701921D01*
X167573428Y-89635516D01*
X167600780Y-89608909D01*
X167650664Y-89573327D01*
X167779860Y-89481173D01*
X167938096Y-89323489D01*
X167997594Y-89240689D01*
X168065435Y-89146277D01*
X168068453Y-89142077D01*
X168089320Y-89099857D01*
X168165136Y-88946453D01*
X168165137Y-88946451D01*
X168167430Y-88941811D01*
X168232370Y-88728069D01*
X168261529Y-88506590D01*
X168262585Y-88463365D01*
X168263074Y-88443365D01*
X168263074Y-88443361D01*
X168263156Y-88440000D01*
X168244852Y-88217361D01*
X168190431Y-88000702D01*
X168101354Y-87795840D01*
X168061906Y-87734862D01*
X167982822Y-87612617D01*
X167982820Y-87612614D01*
X167980014Y-87608277D01*
X167829670Y-87443051D01*
X167825619Y-87439852D01*
X167825615Y-87439848D01*
X167658414Y-87307800D01*
X167658410Y-87307798D01*
X167654359Y-87304598D01*
X167613053Y-87281796D01*
X167563084Y-87231364D01*
X167548312Y-87161921D01*
X167573428Y-87095516D01*
X167600780Y-87068909D01*
X167650664Y-87033327D01*
X167779860Y-86941173D01*
X167938096Y-86783489D01*
X167997594Y-86700689D01*
X168065435Y-86606277D01*
X168068453Y-86602077D01*
X168089320Y-86559857D01*
X168165136Y-86406453D01*
X168165137Y-86406451D01*
X168167430Y-86401811D01*
X168232370Y-86188069D01*
X168261529Y-85966590D01*
X168262585Y-85923365D01*
X168263074Y-85903365D01*
X168263074Y-85903361D01*
X168263156Y-85900000D01*
X168244852Y-85677361D01*
X168190431Y-85460702D01*
X168101354Y-85255840D01*
X168061906Y-85194862D01*
X167982822Y-85072617D01*
X167982820Y-85072614D01*
X167980014Y-85068277D01*
X167829670Y-84903051D01*
X167825619Y-84899852D01*
X167825615Y-84899848D01*
X167658414Y-84767800D01*
X167658410Y-84767798D01*
X167654359Y-84764598D01*
X167613053Y-84741796D01*
X167563084Y-84691364D01*
X167548312Y-84621921D01*
X167573428Y-84555516D01*
X167600780Y-84528909D01*
X167650664Y-84493327D01*
X167779860Y-84401173D01*
X167938096Y-84243489D01*
X167997594Y-84160689D01*
X168065435Y-84066277D01*
X168068453Y-84062077D01*
X168089320Y-84019857D01*
X168165136Y-83866453D01*
X168165137Y-83866451D01*
X168167430Y-83861811D01*
X168232370Y-83648069D01*
X168261529Y-83426590D01*
X168262585Y-83383365D01*
X168263074Y-83363365D01*
X168263074Y-83363361D01*
X168263156Y-83360000D01*
X168244852Y-83137361D01*
X168190431Y-82920702D01*
X168101354Y-82715840D01*
X168061906Y-82654862D01*
X167982822Y-82532617D01*
X167982820Y-82532614D01*
X167980014Y-82528277D01*
X167829670Y-82363051D01*
X167825619Y-82359852D01*
X167825615Y-82359848D01*
X167658414Y-82227800D01*
X167658410Y-82227798D01*
X167654359Y-82224598D01*
X167613053Y-82201796D01*
X167563084Y-82151364D01*
X167548312Y-82081921D01*
X167573428Y-82015516D01*
X167600780Y-81988909D01*
X167650664Y-81953327D01*
X167779860Y-81861173D01*
X167938096Y-81703489D01*
X167997594Y-81620689D01*
X168065435Y-81526277D01*
X168068453Y-81522077D01*
X168089320Y-81479857D01*
X168165136Y-81326453D01*
X168165137Y-81326451D01*
X168167430Y-81321811D01*
X168232370Y-81108069D01*
X168261529Y-80886590D01*
X168262585Y-80843365D01*
X168263074Y-80823365D01*
X168263074Y-80823361D01*
X168263156Y-80820000D01*
X168244852Y-80597361D01*
X168190431Y-80380702D01*
X168101354Y-80175840D01*
X168061906Y-80114862D01*
X167982822Y-79992617D01*
X167982820Y-79992614D01*
X167980014Y-79988277D01*
X167829670Y-79823051D01*
X167825619Y-79819852D01*
X167825615Y-79819848D01*
X167658414Y-79687800D01*
X167658410Y-79687798D01*
X167654359Y-79684598D01*
X167613053Y-79661796D01*
X167563084Y-79611364D01*
X167548312Y-79541921D01*
X167573428Y-79475516D01*
X167600780Y-79448909D01*
X167650664Y-79413327D01*
X167779860Y-79321173D01*
X167938096Y-79163489D01*
X167997594Y-79080689D01*
X168065435Y-78986277D01*
X168068453Y-78982077D01*
X168089320Y-78939857D01*
X168165136Y-78786453D01*
X168165137Y-78786451D01*
X168167430Y-78781811D01*
X168232370Y-78568069D01*
X168261529Y-78346590D01*
X168262585Y-78303365D01*
X168263074Y-78283365D01*
X168263074Y-78283361D01*
X168263156Y-78280000D01*
X168244852Y-78057361D01*
X168190431Y-77840702D01*
X168101354Y-77635840D01*
X168061906Y-77574862D01*
X167982822Y-77452617D01*
X167982820Y-77452614D01*
X167980014Y-77448277D01*
X167829670Y-77283051D01*
X167825619Y-77279852D01*
X167825615Y-77279848D01*
X167658414Y-77147800D01*
X167658410Y-77147798D01*
X167654359Y-77144598D01*
X167613053Y-77121796D01*
X167563084Y-77071364D01*
X167548312Y-77001921D01*
X167573428Y-76935516D01*
X167600780Y-76908909D01*
X167650664Y-76873327D01*
X167779860Y-76781173D01*
X167938096Y-76623489D01*
X167997594Y-76540689D01*
X168065435Y-76446277D01*
X168068453Y-76442077D01*
X168089320Y-76399857D01*
X168165136Y-76246453D01*
X168165137Y-76246451D01*
X168167430Y-76241811D01*
X168232370Y-76028069D01*
X168261529Y-75806590D01*
X168262585Y-75763365D01*
X168263074Y-75743365D01*
X168263074Y-75743361D01*
X168263156Y-75740000D01*
X168244852Y-75517361D01*
X168190431Y-75300702D01*
X168101354Y-75095840D01*
X168061906Y-75034862D01*
X167982822Y-74912617D01*
X167982820Y-74912614D01*
X167980014Y-74908277D01*
X167829670Y-74743051D01*
X167825619Y-74739852D01*
X167825615Y-74739848D01*
X167658414Y-74607800D01*
X167658410Y-74607798D01*
X167654359Y-74604598D01*
X167613053Y-74581796D01*
X167563084Y-74531364D01*
X167548312Y-74461921D01*
X167573428Y-74395516D01*
X167600780Y-74368909D01*
X167650664Y-74333327D01*
X167779860Y-74241173D01*
X167938096Y-74083489D01*
X167997594Y-74000689D01*
X168065435Y-73906277D01*
X168068453Y-73902077D01*
X168089320Y-73859857D01*
X168165136Y-73706453D01*
X168165137Y-73706451D01*
X168167430Y-73701811D01*
X168232370Y-73488069D01*
X168261529Y-73266590D01*
X168262585Y-73223365D01*
X168263074Y-73203365D01*
X168263074Y-73203361D01*
X168263156Y-73200000D01*
X168244852Y-72977361D01*
X168190431Y-72760702D01*
X168101354Y-72555840D01*
X168061906Y-72494862D01*
X167982822Y-72372617D01*
X167982820Y-72372614D01*
X167980014Y-72368277D01*
X167829670Y-72203051D01*
X167825619Y-72199852D01*
X167825615Y-72199848D01*
X167658414Y-72067800D01*
X167658410Y-72067798D01*
X167654359Y-72064598D01*
X167613053Y-72041796D01*
X167563084Y-71991364D01*
X167548312Y-71921921D01*
X167573428Y-71855516D01*
X167600780Y-71828909D01*
X167650664Y-71793327D01*
X167779860Y-71701173D01*
X167938096Y-71543489D01*
X167997594Y-71460689D01*
X168065435Y-71366277D01*
X168068453Y-71362077D01*
X168089320Y-71319857D01*
X168165136Y-71166453D01*
X168165137Y-71166451D01*
X168167430Y-71161811D01*
X168232370Y-70948069D01*
X168261529Y-70726590D01*
X168262585Y-70683365D01*
X168263074Y-70663365D01*
X168263074Y-70663361D01*
X168263156Y-70660000D01*
X168244852Y-70437361D01*
X168190431Y-70220702D01*
X168101354Y-70015840D01*
X168061906Y-69954862D01*
X167982822Y-69832617D01*
X167982820Y-69832614D01*
X167980014Y-69828277D01*
X167829670Y-69663051D01*
X167825619Y-69659852D01*
X167825615Y-69659848D01*
X167658414Y-69527800D01*
X167658410Y-69527798D01*
X167654359Y-69524598D01*
X167613053Y-69501796D01*
X167563084Y-69451364D01*
X167548312Y-69381921D01*
X167573428Y-69315516D01*
X167600780Y-69288909D01*
X167650664Y-69253327D01*
X167779860Y-69161173D01*
X167938096Y-69003489D01*
X167997594Y-68920689D01*
X168065435Y-68826277D01*
X168068453Y-68822077D01*
X168089320Y-68779857D01*
X168165136Y-68626453D01*
X168165137Y-68626451D01*
X168167430Y-68621811D01*
X168232370Y-68408069D01*
X168261529Y-68186590D01*
X168262585Y-68143365D01*
X168263074Y-68123365D01*
X168263074Y-68123361D01*
X168263156Y-68120000D01*
X168244852Y-67897361D01*
X168190431Y-67680702D01*
X168101354Y-67475840D01*
X168061906Y-67414862D01*
X167982822Y-67292617D01*
X167982820Y-67292614D01*
X167980014Y-67288277D01*
X167829670Y-67123051D01*
X167825619Y-67119852D01*
X167825615Y-67119848D01*
X167658414Y-66987800D01*
X167658410Y-66987798D01*
X167654359Y-66984598D01*
X167613053Y-66961796D01*
X167563084Y-66911364D01*
X167548312Y-66841921D01*
X167573428Y-66775516D01*
X167600780Y-66748909D01*
X167650664Y-66713327D01*
X167779860Y-66621173D01*
X167938096Y-66463489D01*
X167997594Y-66380689D01*
X168065435Y-66286277D01*
X168068453Y-66282077D01*
X168089320Y-66239857D01*
X168165136Y-66086453D01*
X168165137Y-66086451D01*
X168167430Y-66081811D01*
X168232370Y-65868069D01*
X168261529Y-65646590D01*
X168262585Y-65603365D01*
X168263074Y-65583365D01*
X168263074Y-65583361D01*
X168263156Y-65580000D01*
X168244852Y-65357361D01*
X168190431Y-65140702D01*
X168101354Y-64935840D01*
X168061906Y-64874862D01*
X167982822Y-64752617D01*
X167982820Y-64752614D01*
X167980014Y-64748277D01*
X167829670Y-64583051D01*
X167825619Y-64579852D01*
X167825615Y-64579848D01*
X167658414Y-64447800D01*
X167658410Y-64447798D01*
X167654359Y-64444598D01*
X167613053Y-64421796D01*
X167563084Y-64371364D01*
X167548312Y-64301921D01*
X167573428Y-64235516D01*
X167600780Y-64208909D01*
X167650664Y-64173327D01*
X167779860Y-64081173D01*
X167938096Y-63923489D01*
X167983227Y-63860683D01*
X168065435Y-63746277D01*
X168068453Y-63742077D01*
X168089320Y-63699857D01*
X168165136Y-63546453D01*
X168165137Y-63546451D01*
X168167430Y-63541811D01*
X168232370Y-63328069D01*
X168261529Y-63106590D01*
X168262585Y-63063365D01*
X168263074Y-63043365D01*
X168263074Y-63043361D01*
X168263156Y-63040000D01*
X168244852Y-62817361D01*
X168203742Y-62653695D01*
X168206546Y-62582754D01*
X168247259Y-62524591D01*
X168312954Y-62497672D01*
X168325946Y-62497000D01*
X169905588Y-62497000D01*
X169973709Y-62517002D01*
X170020202Y-62570658D01*
X170030306Y-62640932D01*
X170027005Y-62656672D01*
X169985989Y-62804570D01*
X169962251Y-63026695D01*
X169962548Y-63031848D01*
X169962548Y-63031851D01*
X169968011Y-63126590D01*
X169975110Y-63249715D01*
X169976247Y-63254761D01*
X169976248Y-63254767D01*
X169996119Y-63342939D01*
X170024222Y-63467639D01*
X170070012Y-63580407D01*
X170101817Y-63658733D01*
X170108266Y-63674616D01*
X170146763Y-63737438D01*
X170222288Y-63860683D01*
X170224987Y-63865088D01*
X170371250Y-64033938D01*
X170543126Y-64176632D01*
X170582219Y-64199476D01*
X170616445Y-64219476D01*
X170665169Y-64271114D01*
X170678240Y-64340897D01*
X170651509Y-64406669D01*
X170611055Y-64440027D01*
X170598607Y-64446507D01*
X170594474Y-64449610D01*
X170594471Y-64449612D01*
X170441624Y-64564373D01*
X170419965Y-64580635D01*
X170416393Y-64584373D01*
X170288313Y-64718401D01*
X170265629Y-64742138D01*
X170139743Y-64926680D01*
X170124003Y-64960590D01*
X170054972Y-65109305D01*
X170045688Y-65129305D01*
X169985989Y-65344570D01*
X169962251Y-65566695D01*
X169962548Y-65571848D01*
X169962548Y-65571851D01*
X169968011Y-65666590D01*
X169975110Y-65789715D01*
X169976247Y-65794761D01*
X169976248Y-65794767D01*
X169996119Y-65882939D01*
X170024222Y-66007639D01*
X170108266Y-66214616D01*
X170110965Y-66219020D01*
X170210035Y-66380688D01*
X170224987Y-66405088D01*
X170371250Y-66573938D01*
X170543126Y-66716632D01*
X170582219Y-66739476D01*
X170616445Y-66759476D01*
X170665169Y-66811114D01*
X170678240Y-66880897D01*
X170651509Y-66946669D01*
X170611055Y-66980027D01*
X170598607Y-66986507D01*
X170594474Y-66989610D01*
X170594471Y-66989612D01*
X170441624Y-67104373D01*
X170419965Y-67120635D01*
X170416393Y-67124373D01*
X170288313Y-67258401D01*
X170265629Y-67282138D01*
X170139743Y-67466680D01*
X170124003Y-67500590D01*
X170054972Y-67649305D01*
X170045688Y-67669305D01*
X169985989Y-67884570D01*
X169962251Y-68106695D01*
X169962548Y-68111848D01*
X169962548Y-68111851D01*
X169968011Y-68206590D01*
X169975110Y-68329715D01*
X169976247Y-68334761D01*
X169976248Y-68334767D01*
X169996119Y-68422939D01*
X170024222Y-68547639D01*
X170108266Y-68754616D01*
X170110965Y-68759020D01*
X170210035Y-68920688D01*
X170224987Y-68945088D01*
X170371250Y-69113938D01*
X170543126Y-69256632D01*
X170582219Y-69279476D01*
X170616445Y-69299476D01*
X170665169Y-69351114D01*
X170678240Y-69420897D01*
X170651509Y-69486669D01*
X170611055Y-69520027D01*
X170598607Y-69526507D01*
X170594474Y-69529610D01*
X170594471Y-69529612D01*
X170441624Y-69644373D01*
X170419965Y-69660635D01*
X170416393Y-69664373D01*
X170288313Y-69798401D01*
X170265629Y-69822138D01*
X170139743Y-70006680D01*
X170124003Y-70040590D01*
X170054972Y-70189305D01*
X170045688Y-70209305D01*
X169985989Y-70424570D01*
X169962251Y-70646695D01*
X169962548Y-70651848D01*
X169962548Y-70651851D01*
X169968011Y-70746590D01*
X169975110Y-70869715D01*
X169976247Y-70874761D01*
X169976248Y-70874767D01*
X169996119Y-70962939D01*
X170024222Y-71087639D01*
X170108266Y-71294616D01*
X170110965Y-71299020D01*
X170210035Y-71460688D01*
X170224987Y-71485088D01*
X170371250Y-71653938D01*
X170543126Y-71796632D01*
X170582219Y-71819476D01*
X170616445Y-71839476D01*
X170665169Y-71891114D01*
X170678240Y-71960897D01*
X170651509Y-72026669D01*
X170611055Y-72060027D01*
X170598607Y-72066507D01*
X170594474Y-72069610D01*
X170594471Y-72069612D01*
X170441624Y-72184373D01*
X170419965Y-72200635D01*
X170416393Y-72204373D01*
X170288313Y-72338401D01*
X170265629Y-72362138D01*
X170139743Y-72546680D01*
X170124003Y-72580590D01*
X170054972Y-72729305D01*
X170045688Y-72749305D01*
X169985989Y-72964570D01*
X169962251Y-73186695D01*
X169962548Y-73191848D01*
X169962548Y-73191851D01*
X169968011Y-73286590D01*
X169975110Y-73409715D01*
X169976247Y-73414761D01*
X169976248Y-73414767D01*
X169996119Y-73502939D01*
X170024222Y-73627639D01*
X170108266Y-73834616D01*
X170110965Y-73839020D01*
X170210035Y-74000688D01*
X170224987Y-74025088D01*
X170371250Y-74193938D01*
X170543126Y-74336632D01*
X170582219Y-74359476D01*
X170616445Y-74379476D01*
X170665169Y-74431114D01*
X170678240Y-74500897D01*
X170651509Y-74566669D01*
X170611055Y-74600027D01*
X170598607Y-74606507D01*
X170594474Y-74609610D01*
X170594471Y-74609612D01*
X170441624Y-74724373D01*
X170419965Y-74740635D01*
X170416393Y-74744373D01*
X170288313Y-74878401D01*
X170265629Y-74902138D01*
X170139743Y-75086680D01*
X170124003Y-75120590D01*
X170054972Y-75269305D01*
X170045688Y-75289305D01*
X169985989Y-75504570D01*
X169962251Y-75726695D01*
X169962548Y-75731848D01*
X169962548Y-75731851D01*
X169968011Y-75826590D01*
X169975110Y-75949715D01*
X169976247Y-75954761D01*
X169976248Y-75954767D01*
X169996119Y-76042939D01*
X170024222Y-76167639D01*
X170108266Y-76374616D01*
X170110965Y-76379020D01*
X170210035Y-76540688D01*
X170224987Y-76565088D01*
X170371250Y-76733938D01*
X170543126Y-76876632D01*
X170582219Y-76899476D01*
X170616445Y-76919476D01*
X170665169Y-76971114D01*
X170678240Y-77040897D01*
X170651509Y-77106669D01*
X170611055Y-77140027D01*
X170598607Y-77146507D01*
X170594474Y-77149610D01*
X170594471Y-77149612D01*
X170441624Y-77264373D01*
X170419965Y-77280635D01*
X170416393Y-77284373D01*
X170288313Y-77418401D01*
X170265629Y-77442138D01*
X170139743Y-77626680D01*
X170124003Y-77660590D01*
X170054972Y-77809305D01*
X170045688Y-77829305D01*
X169985989Y-78044570D01*
X169962251Y-78266695D01*
X169962548Y-78271848D01*
X169962548Y-78271851D01*
X169968011Y-78366590D01*
X169975110Y-78489715D01*
X169976247Y-78494761D01*
X169976248Y-78494767D01*
X169996119Y-78582939D01*
X170024222Y-78707639D01*
X170108266Y-78914616D01*
X170110965Y-78919020D01*
X170210035Y-79080688D01*
X170224987Y-79105088D01*
X170371250Y-79273938D01*
X170543126Y-79416632D01*
X170582219Y-79439476D01*
X170616445Y-79459476D01*
X170665169Y-79511114D01*
X170678240Y-79580897D01*
X170651509Y-79646669D01*
X170611055Y-79680027D01*
X170598607Y-79686507D01*
X170594474Y-79689610D01*
X170594471Y-79689612D01*
X170441624Y-79804373D01*
X170419965Y-79820635D01*
X170416393Y-79824373D01*
X170288313Y-79958401D01*
X170265629Y-79982138D01*
X170139743Y-80166680D01*
X170124003Y-80200590D01*
X170054972Y-80349305D01*
X170045688Y-80369305D01*
X169985989Y-80584570D01*
X169962251Y-80806695D01*
X169962548Y-80811848D01*
X169962548Y-80811851D01*
X169968011Y-80906590D01*
X169975110Y-81029715D01*
X169976247Y-81034761D01*
X169976248Y-81034767D01*
X169996119Y-81122939D01*
X170024222Y-81247639D01*
X170108266Y-81454616D01*
X170110965Y-81459020D01*
X170210035Y-81620688D01*
X170224987Y-81645088D01*
X170371250Y-81813938D01*
X170543126Y-81956632D01*
X170582219Y-81979476D01*
X170616445Y-81999476D01*
X170665169Y-82051114D01*
X170678240Y-82120897D01*
X170651509Y-82186669D01*
X170611055Y-82220027D01*
X170598607Y-82226507D01*
X170594474Y-82229610D01*
X170594471Y-82229612D01*
X170441624Y-82344373D01*
X170419965Y-82360635D01*
X170416393Y-82364373D01*
X170288313Y-82498401D01*
X170265629Y-82522138D01*
X170139743Y-82706680D01*
X170124003Y-82740590D01*
X170054972Y-82889305D01*
X170045688Y-82909305D01*
X169985989Y-83124570D01*
X169962251Y-83346695D01*
X169962548Y-83351848D01*
X169962548Y-83351851D01*
X169968011Y-83446590D01*
X169975110Y-83569715D01*
X169976247Y-83574761D01*
X169976248Y-83574767D01*
X169996119Y-83662939D01*
X170024222Y-83787639D01*
X170108266Y-83994616D01*
X170110965Y-83999020D01*
X170210035Y-84160688D01*
X170224987Y-84185088D01*
X170371250Y-84353938D01*
X170543126Y-84496632D01*
X170582219Y-84519476D01*
X170616445Y-84539476D01*
X170665169Y-84591114D01*
X170678240Y-84660897D01*
X170651509Y-84726669D01*
X170611055Y-84760027D01*
X170598607Y-84766507D01*
X170594474Y-84769610D01*
X170594471Y-84769612D01*
X170441624Y-84884373D01*
X170419965Y-84900635D01*
X170416393Y-84904373D01*
X170288313Y-85038401D01*
X170265629Y-85062138D01*
X170139743Y-85246680D01*
X170124003Y-85280590D01*
X170054972Y-85429305D01*
X170045688Y-85449305D01*
X169985989Y-85664570D01*
X169962251Y-85886695D01*
X169962548Y-85891848D01*
X169962548Y-85891851D01*
X169968011Y-85986590D01*
X169975110Y-86109715D01*
X169976247Y-86114761D01*
X169976248Y-86114767D01*
X169996119Y-86202939D01*
X170024222Y-86327639D01*
X170108266Y-86534616D01*
X170110965Y-86539020D01*
X170210035Y-86700688D01*
X170224987Y-86725088D01*
X170371250Y-86893938D01*
X170543126Y-87036632D01*
X170582219Y-87059476D01*
X170616445Y-87079476D01*
X170665169Y-87131114D01*
X170678240Y-87200897D01*
X170651509Y-87266669D01*
X170611055Y-87300027D01*
X170598607Y-87306507D01*
X170594474Y-87309610D01*
X170594471Y-87309612D01*
X170441624Y-87424373D01*
X170419965Y-87440635D01*
X170416393Y-87444373D01*
X170288313Y-87578401D01*
X170265629Y-87602138D01*
X170139743Y-87786680D01*
X170124003Y-87820590D01*
X170054972Y-87969305D01*
X170045688Y-87989305D01*
X169985989Y-88204570D01*
X169962251Y-88426695D01*
X169962548Y-88431848D01*
X169962548Y-88431851D01*
X169968011Y-88526590D01*
X169975110Y-88649715D01*
X169976247Y-88654761D01*
X169976248Y-88654767D01*
X169996119Y-88742939D01*
X170024222Y-88867639D01*
X170108266Y-89074616D01*
X170110965Y-89079020D01*
X170210035Y-89240688D01*
X170224987Y-89265088D01*
X170371250Y-89433938D01*
X170543126Y-89576632D01*
X170582219Y-89599476D01*
X170616445Y-89619476D01*
X170665169Y-89671114D01*
X170678240Y-89740897D01*
X170651509Y-89806669D01*
X170611055Y-89840027D01*
X170598607Y-89846507D01*
X170594474Y-89849610D01*
X170594471Y-89849612D01*
X170441624Y-89964373D01*
X170419965Y-89980635D01*
X170416393Y-89984373D01*
X170288313Y-90118401D01*
X170265629Y-90142138D01*
X170139743Y-90326680D01*
X170124003Y-90360590D01*
X170054972Y-90509305D01*
X170045688Y-90529305D01*
X169985989Y-90744570D01*
X169962251Y-90966695D01*
X169962548Y-90971848D01*
X169962548Y-90971851D01*
X169968011Y-91066590D01*
X169975110Y-91189715D01*
X169976247Y-91194761D01*
X169976248Y-91194767D01*
X169996119Y-91282939D01*
X170024222Y-91407639D01*
X170108266Y-91614616D01*
X170110965Y-91619020D01*
X170210035Y-91780688D01*
X170224987Y-91805088D01*
X170371250Y-91973938D01*
X170543126Y-92116632D01*
X170582219Y-92139476D01*
X170616445Y-92159476D01*
X170665169Y-92211114D01*
X170678240Y-92280897D01*
X170651509Y-92346669D01*
X170611055Y-92380027D01*
X170598607Y-92386507D01*
X170594474Y-92389610D01*
X170594471Y-92389612D01*
X170441624Y-92504373D01*
X170419965Y-92520635D01*
X170416393Y-92524373D01*
X170288313Y-92658401D01*
X170265629Y-92682138D01*
X170139743Y-92866680D01*
X170124003Y-92900590D01*
X170054972Y-93049305D01*
X170045688Y-93069305D01*
X169985989Y-93284570D01*
X169962251Y-93506695D01*
X169962548Y-93511848D01*
X169962548Y-93511851D01*
X169968011Y-93606590D01*
X169975110Y-93729715D01*
X169976247Y-93734761D01*
X169976248Y-93734767D01*
X169996119Y-93822939D01*
X170024222Y-93947639D01*
X170108266Y-94154616D01*
X170110965Y-94159020D01*
X170210035Y-94320688D01*
X170224987Y-94345088D01*
X170371250Y-94513938D01*
X170543126Y-94656632D01*
X170582219Y-94679476D01*
X170616445Y-94699476D01*
X170665169Y-94751114D01*
X170678240Y-94820897D01*
X170651509Y-94886669D01*
X170611055Y-94920027D01*
X170598607Y-94926507D01*
X170594474Y-94929610D01*
X170594471Y-94929612D01*
X170441624Y-95044373D01*
X170419965Y-95060635D01*
X170416393Y-95064373D01*
X170288313Y-95198401D01*
X170265629Y-95222138D01*
X170139743Y-95406680D01*
X170124003Y-95440590D01*
X170054972Y-95589305D01*
X170045688Y-95609305D01*
X169985989Y-95824570D01*
X169962251Y-96046695D01*
X169962548Y-96051848D01*
X169962548Y-96051851D01*
X169968011Y-96146590D01*
X169975110Y-96269715D01*
X169976247Y-96274761D01*
X169976248Y-96274767D01*
X169996119Y-96362939D01*
X170024222Y-96487639D01*
X170108266Y-96694616D01*
X170110965Y-96699020D01*
X170210035Y-96860688D01*
X170224987Y-96885088D01*
X170371250Y-97053938D01*
X170543126Y-97196632D01*
X170582219Y-97219476D01*
X170616445Y-97239476D01*
X170665169Y-97291114D01*
X170678240Y-97360897D01*
X170651509Y-97426669D01*
X170611055Y-97460027D01*
X170598607Y-97466507D01*
X170594474Y-97469610D01*
X170594471Y-97469612D01*
X170441624Y-97584373D01*
X170419965Y-97600635D01*
X170416393Y-97604373D01*
X170288313Y-97738401D01*
X170265629Y-97762138D01*
X170139743Y-97946680D01*
X170124003Y-97980590D01*
X170054972Y-98129305D01*
X170045688Y-98149305D01*
X169985989Y-98364570D01*
X169962251Y-98586695D01*
X169962548Y-98591848D01*
X169962548Y-98591851D01*
X169968011Y-98686590D01*
X169975110Y-98809715D01*
X169976247Y-98814761D01*
X169976248Y-98814767D01*
X169996119Y-98902939D01*
X170024222Y-99027639D01*
X170108266Y-99234616D01*
X170110965Y-99239020D01*
X170210035Y-99400688D01*
X170224987Y-99425088D01*
X170371250Y-99593938D01*
X170543126Y-99736632D01*
X170582219Y-99759476D01*
X170616445Y-99779476D01*
X170665169Y-99831114D01*
X170678240Y-99900897D01*
X170651509Y-99966669D01*
X170611055Y-100000027D01*
X170598607Y-100006507D01*
X170594474Y-100009610D01*
X170594471Y-100009612D01*
X170441624Y-100124373D01*
X170419965Y-100140635D01*
X170416393Y-100144373D01*
X170288313Y-100278401D01*
X170265629Y-100302138D01*
X170139743Y-100486680D01*
X170124003Y-100520590D01*
X170054972Y-100669305D01*
X170045688Y-100689305D01*
X169985989Y-100904570D01*
X169962251Y-101126695D01*
X169962548Y-101131848D01*
X169962548Y-101131851D01*
X169968011Y-101226590D01*
X169975110Y-101349715D01*
X169976247Y-101354761D01*
X169976248Y-101354767D01*
X169996119Y-101442939D01*
X170024222Y-101567639D01*
X170108266Y-101774616D01*
X170110965Y-101779020D01*
X170210035Y-101940688D01*
X170224987Y-101965088D01*
X170371250Y-102133938D01*
X170543126Y-102276632D01*
X170601762Y-102310896D01*
X170616955Y-102319774D01*
X170665679Y-102371412D01*
X170678750Y-102441195D01*
X170652019Y-102506967D01*
X170611562Y-102540327D01*
X170603457Y-102544546D01*
X170594738Y-102550036D01*
X170424433Y-102677905D01*
X170416726Y-102684748D01*
X170269590Y-102838717D01*
X170263104Y-102846727D01*
X170143098Y-103022649D01*
X170138000Y-103031623D01*
X170048338Y-103224783D01*
X170044775Y-103234470D01*
X169989389Y-103434183D01*
X169990912Y-103442607D01*
X170003292Y-103446000D01*
X172643344Y-103446000D01*
X172656875Y-103442027D01*
X172658180Y-103432947D01*
X172616214Y-103265875D01*
X172612894Y-103256124D01*
X172527972Y-103060814D01*
X172523105Y-103051739D01*
X172407426Y-102872926D01*
X172401136Y-102864757D01*
X172257806Y-102707240D01*
X172250273Y-102700215D01*
X172083139Y-102568222D01*
X172074556Y-102562520D01*
X172037602Y-102542120D01*
X171987631Y-102491687D01*
X171972859Y-102422245D01*
X171997975Y-102355839D01*
X172025327Y-102329232D01*
X172066626Y-102299774D01*
X172204860Y-102201173D01*
X172363096Y-102043489D01*
X172377468Y-102023489D01*
X172490435Y-101866277D01*
X172493453Y-101862077D01*
X172500908Y-101846994D01*
X172590136Y-101666453D01*
X172590137Y-101666451D01*
X172592430Y-101661811D01*
X172657370Y-101448069D01*
X172686529Y-101226590D01*
X172688156Y-101160000D01*
X172669852Y-100937361D01*
X172615431Y-100720702D01*
X172526354Y-100515840D01*
X172405014Y-100328277D01*
X172254670Y-100163051D01*
X172250619Y-100159852D01*
X172250615Y-100159848D01*
X172083414Y-100027800D01*
X172083410Y-100027798D01*
X172079359Y-100024598D01*
X172038053Y-100001796D01*
X171988084Y-99951364D01*
X171973312Y-99881921D01*
X171998428Y-99815516D01*
X172025780Y-99788909D01*
X172069603Y-99757650D01*
X172204860Y-99661173D01*
X172363096Y-99503489D01*
X172377468Y-99483489D01*
X172490435Y-99326277D01*
X172493453Y-99322077D01*
X172500908Y-99306994D01*
X172590136Y-99126453D01*
X172590137Y-99126451D01*
X172592430Y-99121811D01*
X172657370Y-98908069D01*
X172686529Y-98686590D01*
X172688156Y-98620000D01*
X172669852Y-98397361D01*
X172615431Y-98180702D01*
X172526354Y-97975840D01*
X172405014Y-97788277D01*
X172254670Y-97623051D01*
X172250619Y-97619852D01*
X172250615Y-97619848D01*
X172083414Y-97487800D01*
X172083410Y-97487798D01*
X172079359Y-97484598D01*
X172038053Y-97461796D01*
X171988084Y-97411364D01*
X171973312Y-97341921D01*
X171998428Y-97275516D01*
X172025780Y-97248909D01*
X172069603Y-97217650D01*
X172204860Y-97121173D01*
X172363096Y-96963489D01*
X172377468Y-96943489D01*
X172490435Y-96786277D01*
X172493453Y-96782077D01*
X172500908Y-96766994D01*
X172590136Y-96586453D01*
X172590137Y-96586451D01*
X172592430Y-96581811D01*
X172657370Y-96368069D01*
X172686529Y-96146590D01*
X172688156Y-96080000D01*
X172669852Y-95857361D01*
X172615431Y-95640702D01*
X172526354Y-95435840D01*
X172405014Y-95248277D01*
X172254670Y-95083051D01*
X172250619Y-95079852D01*
X172250615Y-95079848D01*
X172083414Y-94947800D01*
X172083410Y-94947798D01*
X172079359Y-94944598D01*
X172038053Y-94921796D01*
X171988084Y-94871364D01*
X171973312Y-94801921D01*
X171998428Y-94735516D01*
X172025780Y-94708909D01*
X172069603Y-94677650D01*
X172204860Y-94581173D01*
X172363096Y-94423489D01*
X172377468Y-94403489D01*
X172490435Y-94246277D01*
X172493453Y-94242077D01*
X172500908Y-94226994D01*
X172590136Y-94046453D01*
X172590137Y-94046451D01*
X172592430Y-94041811D01*
X172657370Y-93828069D01*
X172686529Y-93606590D01*
X172688156Y-93540000D01*
X172669852Y-93317361D01*
X172615431Y-93100702D01*
X172526354Y-92895840D01*
X172405014Y-92708277D01*
X172254670Y-92543051D01*
X172250619Y-92539852D01*
X172250615Y-92539848D01*
X172083414Y-92407800D01*
X172083410Y-92407798D01*
X172079359Y-92404598D01*
X172038053Y-92381796D01*
X171988084Y-92331364D01*
X171973312Y-92261921D01*
X171998428Y-92195516D01*
X172025780Y-92168909D01*
X172069603Y-92137650D01*
X172204860Y-92041173D01*
X172363096Y-91883489D01*
X172377468Y-91863489D01*
X172490435Y-91706277D01*
X172493453Y-91702077D01*
X172500908Y-91686994D01*
X172590136Y-91506453D01*
X172590137Y-91506451D01*
X172592430Y-91501811D01*
X172657370Y-91288069D01*
X172686529Y-91066590D01*
X172688156Y-91000000D01*
X172669852Y-90777361D01*
X172615431Y-90560702D01*
X172526354Y-90355840D01*
X172405014Y-90168277D01*
X172254670Y-90003051D01*
X172250619Y-89999852D01*
X172250615Y-89999848D01*
X172083414Y-89867800D01*
X172083410Y-89867798D01*
X172079359Y-89864598D01*
X172038053Y-89841796D01*
X171988084Y-89791364D01*
X171973312Y-89721921D01*
X171998428Y-89655516D01*
X172025780Y-89628909D01*
X172069603Y-89597650D01*
X172204860Y-89501173D01*
X172363096Y-89343489D01*
X172377468Y-89323489D01*
X172490435Y-89166277D01*
X172493453Y-89162077D01*
X172500908Y-89146994D01*
X172590136Y-88966453D01*
X172590137Y-88966451D01*
X172592430Y-88961811D01*
X172657370Y-88748069D01*
X172686529Y-88526590D01*
X172688156Y-88460000D01*
X172669852Y-88237361D01*
X172615431Y-88020702D01*
X172526354Y-87815840D01*
X172405014Y-87628277D01*
X172254670Y-87463051D01*
X172250619Y-87459852D01*
X172250615Y-87459848D01*
X172083414Y-87327800D01*
X172083410Y-87327798D01*
X172079359Y-87324598D01*
X172038053Y-87301796D01*
X171988084Y-87251364D01*
X171973312Y-87181921D01*
X171998428Y-87115516D01*
X172025780Y-87088909D01*
X172069603Y-87057650D01*
X172204860Y-86961173D01*
X172363096Y-86803489D01*
X172377468Y-86783489D01*
X172490435Y-86626277D01*
X172493453Y-86622077D01*
X172500908Y-86606994D01*
X172590136Y-86426453D01*
X172590137Y-86426451D01*
X172592430Y-86421811D01*
X172657370Y-86208069D01*
X172686529Y-85986590D01*
X172688156Y-85920000D01*
X172669852Y-85697361D01*
X172615431Y-85480702D01*
X172526354Y-85275840D01*
X172405014Y-85088277D01*
X172254670Y-84923051D01*
X172250619Y-84919852D01*
X172250615Y-84919848D01*
X172083414Y-84787800D01*
X172083410Y-84787798D01*
X172079359Y-84784598D01*
X172038053Y-84761796D01*
X171988084Y-84711364D01*
X171973312Y-84641921D01*
X171998428Y-84575516D01*
X172025780Y-84548909D01*
X172069603Y-84517650D01*
X172204860Y-84421173D01*
X172363096Y-84263489D01*
X172377468Y-84243489D01*
X172490435Y-84086277D01*
X172493453Y-84082077D01*
X172500908Y-84066994D01*
X172590136Y-83886453D01*
X172590137Y-83886451D01*
X172592430Y-83881811D01*
X172657370Y-83668069D01*
X172686529Y-83446590D01*
X172688156Y-83380000D01*
X172669852Y-83157361D01*
X172615431Y-82940702D01*
X172526354Y-82735840D01*
X172405014Y-82548277D01*
X172254670Y-82383051D01*
X172250619Y-82379852D01*
X172250615Y-82379848D01*
X172083414Y-82247800D01*
X172083410Y-82247798D01*
X172079359Y-82244598D01*
X172038053Y-82221796D01*
X171988084Y-82171364D01*
X171973312Y-82101921D01*
X171998428Y-82035516D01*
X172025780Y-82008909D01*
X172069603Y-81977650D01*
X172204860Y-81881173D01*
X172363096Y-81723489D01*
X172377468Y-81703489D01*
X172490435Y-81546277D01*
X172493453Y-81542077D01*
X172500908Y-81526994D01*
X172590136Y-81346453D01*
X172590137Y-81346451D01*
X172592430Y-81341811D01*
X172657370Y-81128069D01*
X172686529Y-80906590D01*
X172688156Y-80840000D01*
X172669852Y-80617361D01*
X172615431Y-80400702D01*
X172526354Y-80195840D01*
X172405014Y-80008277D01*
X172254670Y-79843051D01*
X172250619Y-79839852D01*
X172250615Y-79839848D01*
X172083414Y-79707800D01*
X172083410Y-79707798D01*
X172079359Y-79704598D01*
X172038053Y-79681796D01*
X171988084Y-79631364D01*
X171973312Y-79561921D01*
X171998428Y-79495516D01*
X172025780Y-79468909D01*
X172069603Y-79437650D01*
X172204860Y-79341173D01*
X172363096Y-79183489D01*
X172377468Y-79163489D01*
X172490435Y-79006277D01*
X172493453Y-79002077D01*
X172500908Y-78986994D01*
X172590136Y-78806453D01*
X172590137Y-78806451D01*
X172592430Y-78801811D01*
X172657370Y-78588069D01*
X172686529Y-78366590D01*
X172688156Y-78300000D01*
X172669852Y-78077361D01*
X172615431Y-77860702D01*
X172526354Y-77655840D01*
X172405014Y-77468277D01*
X172254670Y-77303051D01*
X172250619Y-77299852D01*
X172250615Y-77299848D01*
X172083414Y-77167800D01*
X172083410Y-77167798D01*
X172079359Y-77164598D01*
X172038053Y-77141796D01*
X171988084Y-77091364D01*
X171973312Y-77021921D01*
X171998428Y-76955516D01*
X172025780Y-76928909D01*
X172069603Y-76897650D01*
X172204860Y-76801173D01*
X172363096Y-76643489D01*
X172377468Y-76623489D01*
X172490435Y-76466277D01*
X172493453Y-76462077D01*
X172500908Y-76446994D01*
X172590136Y-76266453D01*
X172590137Y-76266451D01*
X172592430Y-76261811D01*
X172657370Y-76048069D01*
X172686529Y-75826590D01*
X172688156Y-75760000D01*
X172669852Y-75537361D01*
X172615431Y-75320702D01*
X172526354Y-75115840D01*
X172405014Y-74928277D01*
X172254670Y-74763051D01*
X172250619Y-74759852D01*
X172250615Y-74759848D01*
X172083414Y-74627800D01*
X172083410Y-74627798D01*
X172079359Y-74624598D01*
X172038053Y-74601796D01*
X171988084Y-74551364D01*
X171973312Y-74481921D01*
X171998428Y-74415516D01*
X172025780Y-74388909D01*
X172069603Y-74357650D01*
X172204860Y-74261173D01*
X172363096Y-74103489D01*
X172377468Y-74083489D01*
X172490435Y-73926277D01*
X172493453Y-73922077D01*
X172500908Y-73906994D01*
X172590136Y-73726453D01*
X172590137Y-73726451D01*
X172592430Y-73721811D01*
X172657370Y-73508069D01*
X172686529Y-73286590D01*
X172688156Y-73220000D01*
X172669852Y-72997361D01*
X172615431Y-72780702D01*
X172526354Y-72575840D01*
X172405014Y-72388277D01*
X172254670Y-72223051D01*
X172250619Y-72219852D01*
X172250615Y-72219848D01*
X172083414Y-72087800D01*
X172083410Y-72087798D01*
X172079359Y-72084598D01*
X172038053Y-72061796D01*
X171988084Y-72011364D01*
X171973312Y-71941921D01*
X171998428Y-71875516D01*
X172025780Y-71848909D01*
X172069603Y-71817650D01*
X172204860Y-71721173D01*
X172363096Y-71563489D01*
X172377468Y-71543489D01*
X172490435Y-71386277D01*
X172493453Y-71382077D01*
X172500908Y-71366994D01*
X172590136Y-71186453D01*
X172590137Y-71186451D01*
X172592430Y-71181811D01*
X172657370Y-70968069D01*
X172686529Y-70746590D01*
X172688156Y-70680000D01*
X172669852Y-70457361D01*
X172615431Y-70240702D01*
X172526354Y-70035840D01*
X172405014Y-69848277D01*
X172254670Y-69683051D01*
X172250619Y-69679852D01*
X172250615Y-69679848D01*
X172083414Y-69547800D01*
X172083410Y-69547798D01*
X172079359Y-69544598D01*
X172038053Y-69521796D01*
X171988084Y-69471364D01*
X171973312Y-69401921D01*
X171998428Y-69335516D01*
X172025780Y-69308909D01*
X172069603Y-69277650D01*
X172204860Y-69181173D01*
X172363096Y-69023489D01*
X172377468Y-69003489D01*
X172490435Y-68846277D01*
X172493453Y-68842077D01*
X172500908Y-68826994D01*
X172590136Y-68646453D01*
X172590137Y-68646451D01*
X172592430Y-68641811D01*
X172657370Y-68428069D01*
X172686529Y-68206590D01*
X172688156Y-68140000D01*
X172669852Y-67917361D01*
X172615431Y-67700702D01*
X172526354Y-67495840D01*
X172405014Y-67308277D01*
X172254670Y-67143051D01*
X172250619Y-67139852D01*
X172250615Y-67139848D01*
X172083414Y-67007800D01*
X172083410Y-67007798D01*
X172079359Y-67004598D01*
X172038053Y-66981796D01*
X171988084Y-66931364D01*
X171973312Y-66861921D01*
X171998428Y-66795516D01*
X172025780Y-66768909D01*
X172069603Y-66737650D01*
X172204860Y-66641173D01*
X172363096Y-66483489D01*
X172377468Y-66463489D01*
X172490435Y-66306277D01*
X172493453Y-66302077D01*
X172500908Y-66286994D01*
X172590136Y-66106453D01*
X172590137Y-66106451D01*
X172592430Y-66101811D01*
X172657370Y-65888069D01*
X172686529Y-65666590D01*
X172688156Y-65600000D01*
X172669852Y-65377361D01*
X172615431Y-65160702D01*
X172526354Y-64955840D01*
X172405014Y-64768277D01*
X172254670Y-64603051D01*
X172250619Y-64599852D01*
X172250615Y-64599848D01*
X172083414Y-64467800D01*
X172083410Y-64467798D01*
X172079359Y-64464598D01*
X172038053Y-64441796D01*
X171988084Y-64391364D01*
X171973312Y-64321921D01*
X171998428Y-64255516D01*
X172025780Y-64228909D01*
X172069603Y-64197650D01*
X172204860Y-64101173D01*
X172363096Y-63943489D01*
X172377468Y-63923489D01*
X172490435Y-63766277D01*
X172493453Y-63762077D01*
X172498991Y-63750873D01*
X172590136Y-63566453D01*
X172590137Y-63566451D01*
X172592430Y-63561811D01*
X172657370Y-63348069D01*
X172686529Y-63126590D01*
X172688156Y-63060000D01*
X172669852Y-62837361D01*
X172666125Y-62822522D01*
X172623719Y-62653695D01*
X172626523Y-62582754D01*
X172667236Y-62524591D01*
X172732932Y-62497672D01*
X172745923Y-62497000D01*
X173638606Y-62497000D01*
X173706727Y-62517002D01*
X173727701Y-62533905D01*
X174646043Y-63452247D01*
X174653587Y-63460537D01*
X174657700Y-63467018D01*
X174663477Y-63472443D01*
X174707367Y-63513658D01*
X174710209Y-63516413D01*
X174729931Y-63536135D01*
X174733055Y-63538558D01*
X174733059Y-63538562D01*
X174733124Y-63538612D01*
X174742145Y-63546317D01*
X174774379Y-63576586D01*
X174781327Y-63580405D01*
X174781329Y-63580407D01*
X174792132Y-63586346D01*
X174808659Y-63597202D01*
X174818398Y-63604757D01*
X174818400Y-63604758D01*
X174824660Y-63609614D01*
X174865240Y-63627174D01*
X174875888Y-63632391D01*
X174907608Y-63649829D01*
X174914640Y-63653695D01*
X174922316Y-63655666D01*
X174922319Y-63655667D01*
X174934262Y-63658733D01*
X174952967Y-63665137D01*
X174971555Y-63673181D01*
X174979378Y-63674420D01*
X174979388Y-63674423D01*
X175015224Y-63680099D01*
X175026844Y-63682505D01*
X175061985Y-63691527D01*
X175064336Y-63692130D01*
X175064337Y-63692131D01*
X175069669Y-63693500D01*
X175069448Y-63694360D01*
X175128425Y-63720077D01*
X175154996Y-63750873D01*
X175222287Y-63860683D01*
X175222291Y-63860688D01*
X175224987Y-63865088D01*
X175371250Y-64033938D01*
X175543126Y-64176632D01*
X175582219Y-64199476D01*
X175616445Y-64219476D01*
X175665169Y-64271114D01*
X175678240Y-64340897D01*
X175651509Y-64406669D01*
X175611055Y-64440027D01*
X175598607Y-64446507D01*
X175594474Y-64449610D01*
X175594471Y-64449612D01*
X175441624Y-64564373D01*
X175419965Y-64580635D01*
X175416393Y-64584373D01*
X175288313Y-64718401D01*
X175265629Y-64742138D01*
X175139743Y-64926680D01*
X175124003Y-64960590D01*
X175054972Y-65109305D01*
X175045688Y-65129305D01*
X174985989Y-65344570D01*
X174962251Y-65566695D01*
X174962548Y-65571848D01*
X174962548Y-65571851D01*
X174968011Y-65666590D01*
X174975110Y-65789715D01*
X174976247Y-65794761D01*
X174976248Y-65794767D01*
X174996119Y-65882939D01*
X175024222Y-66007639D01*
X175108266Y-66214616D01*
X175110965Y-66219020D01*
X175210035Y-66380688D01*
X175224987Y-66405088D01*
X175371250Y-66573938D01*
X175543126Y-66716632D01*
X175582219Y-66739476D01*
X175616445Y-66759476D01*
X175665169Y-66811114D01*
X175678240Y-66880897D01*
X175651509Y-66946669D01*
X175611055Y-66980027D01*
X175598607Y-66986507D01*
X175594474Y-66989610D01*
X175594471Y-66989612D01*
X175441624Y-67104373D01*
X175419965Y-67120635D01*
X175416393Y-67124373D01*
X175288313Y-67258401D01*
X175265629Y-67282138D01*
X175139743Y-67466680D01*
X175124003Y-67500590D01*
X175054972Y-67649305D01*
X175045688Y-67669305D01*
X174985989Y-67884570D01*
X174962251Y-68106695D01*
X174962548Y-68111848D01*
X174962548Y-68111851D01*
X174968011Y-68206590D01*
X174975110Y-68329715D01*
X174976247Y-68334761D01*
X174976248Y-68334767D01*
X174996119Y-68422939D01*
X175024222Y-68547639D01*
X175108266Y-68754616D01*
X175110965Y-68759020D01*
X175210035Y-68920688D01*
X175224987Y-68945088D01*
X175371250Y-69113938D01*
X175543126Y-69256632D01*
X175582219Y-69279476D01*
X175616445Y-69299476D01*
X175665169Y-69351114D01*
X175678240Y-69420897D01*
X175651509Y-69486669D01*
X175611055Y-69520027D01*
X175598607Y-69526507D01*
X175594474Y-69529610D01*
X175594471Y-69529612D01*
X175441624Y-69644373D01*
X175419965Y-69660635D01*
X175416393Y-69664373D01*
X175288313Y-69798401D01*
X175265629Y-69822138D01*
X175139743Y-70006680D01*
X175124003Y-70040590D01*
X175054972Y-70189305D01*
X175045688Y-70209305D01*
X174985989Y-70424570D01*
X174962251Y-70646695D01*
X174962548Y-70651848D01*
X174962548Y-70651851D01*
X174968011Y-70746590D01*
X174975110Y-70869715D01*
X174976247Y-70874761D01*
X174976248Y-70874767D01*
X174996119Y-70962939D01*
X175024222Y-71087639D01*
X175108266Y-71294616D01*
X175110965Y-71299020D01*
X175210035Y-71460688D01*
X175224987Y-71485088D01*
X175371250Y-71653938D01*
X175543126Y-71796632D01*
X175582219Y-71819476D01*
X175616445Y-71839476D01*
X175665169Y-71891114D01*
X175678240Y-71960897D01*
X175651509Y-72026669D01*
X175611055Y-72060027D01*
X175598607Y-72066507D01*
X175594474Y-72069610D01*
X175594471Y-72069612D01*
X175441624Y-72184373D01*
X175419965Y-72200635D01*
X175416393Y-72204373D01*
X175288313Y-72338401D01*
X175265629Y-72362138D01*
X175139743Y-72546680D01*
X175124003Y-72580590D01*
X175054972Y-72729305D01*
X175045688Y-72749305D01*
X174985989Y-72964570D01*
X174962251Y-73186695D01*
X174962548Y-73191848D01*
X174962548Y-73191851D01*
X174968011Y-73286590D01*
X174975110Y-73409715D01*
X174976247Y-73414761D01*
X174976248Y-73414767D01*
X174996119Y-73502939D01*
X175024222Y-73627639D01*
X175108266Y-73834616D01*
X175110965Y-73839020D01*
X175210035Y-74000688D01*
X175224987Y-74025088D01*
X175371250Y-74193938D01*
X175543126Y-74336632D01*
X175582219Y-74359476D01*
X175616445Y-74379476D01*
X175665169Y-74431114D01*
X175678240Y-74500897D01*
X175651509Y-74566669D01*
X175611055Y-74600027D01*
X175598607Y-74606507D01*
X175594474Y-74609610D01*
X175594471Y-74609612D01*
X175441624Y-74724373D01*
X175419965Y-74740635D01*
X175416393Y-74744373D01*
X175288313Y-74878401D01*
X175265629Y-74902138D01*
X175139743Y-75086680D01*
X175124003Y-75120590D01*
X175054972Y-75269305D01*
X175045688Y-75289305D01*
X174985989Y-75504570D01*
X174962251Y-75726695D01*
X174962548Y-75731848D01*
X174962548Y-75731851D01*
X174968011Y-75826590D01*
X174975110Y-75949715D01*
X174976247Y-75954761D01*
X174976248Y-75954767D01*
X174996119Y-76042939D01*
X175024222Y-76167639D01*
X175108266Y-76374616D01*
X175110965Y-76379020D01*
X175210035Y-76540688D01*
X175224987Y-76565088D01*
X175371250Y-76733938D01*
X175543126Y-76876632D01*
X175582219Y-76899476D01*
X175616445Y-76919476D01*
X175665169Y-76971114D01*
X175678240Y-77040897D01*
X175651509Y-77106669D01*
X175611055Y-77140027D01*
X175598607Y-77146507D01*
X175594474Y-77149610D01*
X175594471Y-77149612D01*
X175441624Y-77264373D01*
X175419965Y-77280635D01*
X175416393Y-77284373D01*
X175288313Y-77418401D01*
X175265629Y-77442138D01*
X175139743Y-77626680D01*
X175124003Y-77660590D01*
X175054972Y-77809305D01*
X175045688Y-77829305D01*
X174985989Y-78044570D01*
X174962251Y-78266695D01*
X174962548Y-78271848D01*
X174962548Y-78271851D01*
X174968011Y-78366590D01*
X174975110Y-78489715D01*
X174976247Y-78494761D01*
X174976248Y-78494767D01*
X174996119Y-78582939D01*
X175024222Y-78707639D01*
X175108266Y-78914616D01*
X175110965Y-78919020D01*
X175210035Y-79080688D01*
X175224987Y-79105088D01*
X175371250Y-79273938D01*
X175543126Y-79416632D01*
X175582219Y-79439476D01*
X175616445Y-79459476D01*
X175665169Y-79511114D01*
X175678240Y-79580897D01*
X175651509Y-79646669D01*
X175611055Y-79680027D01*
X175598607Y-79686507D01*
X175594474Y-79689610D01*
X175594471Y-79689612D01*
X175441624Y-79804373D01*
X175419965Y-79820635D01*
X175416393Y-79824373D01*
X175288313Y-79958401D01*
X175265629Y-79982138D01*
X175139743Y-80166680D01*
X175124003Y-80200590D01*
X175054972Y-80349305D01*
X175045688Y-80369305D01*
X174985989Y-80584570D01*
X174962251Y-80806695D01*
X174962548Y-80811848D01*
X174962548Y-80811851D01*
X174968011Y-80906590D01*
X174975110Y-81029715D01*
X174976247Y-81034761D01*
X174976248Y-81034767D01*
X174996119Y-81122939D01*
X175024222Y-81247639D01*
X175108266Y-81454616D01*
X175110965Y-81459020D01*
X175210035Y-81620688D01*
X175224987Y-81645088D01*
X175371250Y-81813938D01*
X175543126Y-81956632D01*
X175582219Y-81979476D01*
X175616445Y-81999476D01*
X175665169Y-82051114D01*
X175678240Y-82120897D01*
X175651509Y-82186669D01*
X175611055Y-82220027D01*
X175598607Y-82226507D01*
X175594474Y-82229610D01*
X175594471Y-82229612D01*
X175441624Y-82344373D01*
X175419965Y-82360635D01*
X175416393Y-82364373D01*
X175288313Y-82498401D01*
X175265629Y-82522138D01*
X175139743Y-82706680D01*
X175124003Y-82740590D01*
X175054972Y-82889305D01*
X175045688Y-82909305D01*
X174985989Y-83124570D01*
X174962251Y-83346695D01*
X174962548Y-83351848D01*
X174962548Y-83351851D01*
X174968011Y-83446590D01*
X174975110Y-83569715D01*
X174976247Y-83574761D01*
X174976248Y-83574767D01*
X174996119Y-83662939D01*
X175024222Y-83787639D01*
X175108266Y-83994616D01*
X175110965Y-83999020D01*
X175210035Y-84160688D01*
X175224987Y-84185088D01*
X175371250Y-84353938D01*
X175543126Y-84496632D01*
X175582219Y-84519476D01*
X175616445Y-84539476D01*
X175665169Y-84591114D01*
X175678240Y-84660897D01*
X175651509Y-84726669D01*
X175611055Y-84760027D01*
X175598607Y-84766507D01*
X175594474Y-84769610D01*
X175594471Y-84769612D01*
X175441624Y-84884373D01*
X175419965Y-84900635D01*
X175416393Y-84904373D01*
X175288313Y-85038401D01*
X175265629Y-85062138D01*
X175139743Y-85246680D01*
X175124003Y-85280590D01*
X175054972Y-85429305D01*
X175045688Y-85449305D01*
X174985989Y-85664570D01*
X174962251Y-85886695D01*
X174962548Y-85891848D01*
X174962548Y-85891851D01*
X174968011Y-85986590D01*
X174975110Y-86109715D01*
X174976247Y-86114761D01*
X174976248Y-86114767D01*
X174996119Y-86202939D01*
X175024222Y-86327639D01*
X175108266Y-86534616D01*
X175110965Y-86539020D01*
X175210035Y-86700688D01*
X175224987Y-86725088D01*
X175371250Y-86893938D01*
X175543126Y-87036632D01*
X175582219Y-87059476D01*
X175616445Y-87079476D01*
X175665169Y-87131114D01*
X175678240Y-87200897D01*
X175651509Y-87266669D01*
X175611055Y-87300027D01*
X175598607Y-87306507D01*
X175594474Y-87309610D01*
X175594471Y-87309612D01*
X175441624Y-87424373D01*
X175419965Y-87440635D01*
X175416393Y-87444373D01*
X175288313Y-87578401D01*
X175265629Y-87602138D01*
X175139743Y-87786680D01*
X175124003Y-87820590D01*
X175054972Y-87969305D01*
X175045688Y-87989305D01*
X174985989Y-88204570D01*
X174962251Y-88426695D01*
X174962548Y-88431848D01*
X174962548Y-88431851D01*
X174968011Y-88526590D01*
X174975110Y-88649715D01*
X174976247Y-88654761D01*
X174976248Y-88654767D01*
X174996119Y-88742939D01*
X175024222Y-88867639D01*
X175108266Y-89074616D01*
X175110965Y-89079020D01*
X175210035Y-89240688D01*
X175224987Y-89265088D01*
X175371250Y-89433938D01*
X175543126Y-89576632D01*
X175582219Y-89599476D01*
X175616445Y-89619476D01*
X175665169Y-89671114D01*
X175678240Y-89740897D01*
X175651509Y-89806669D01*
X175611055Y-89840027D01*
X175598607Y-89846507D01*
X175594474Y-89849610D01*
X175594471Y-89849612D01*
X175441624Y-89964373D01*
X175419965Y-89980635D01*
X175416393Y-89984373D01*
X175288313Y-90118401D01*
X175265629Y-90142138D01*
X175139743Y-90326680D01*
X175124003Y-90360590D01*
X175054972Y-90509305D01*
X175045688Y-90529305D01*
X174985989Y-90744570D01*
X174962251Y-90966695D01*
X174962548Y-90971848D01*
X174962548Y-90971851D01*
X174968011Y-91066590D01*
X174975110Y-91189715D01*
X174976247Y-91194761D01*
X174976248Y-91194767D01*
X174996119Y-91282939D01*
X175024222Y-91407639D01*
X175108266Y-91614616D01*
X175110965Y-91619020D01*
X175210035Y-91780688D01*
X175224987Y-91805088D01*
X175371250Y-91973938D01*
X175543126Y-92116632D01*
X175582219Y-92139476D01*
X175616445Y-92159476D01*
X175665169Y-92211114D01*
X175678240Y-92280897D01*
X175651509Y-92346669D01*
X175611055Y-92380027D01*
X175598607Y-92386507D01*
X175594474Y-92389610D01*
X175594471Y-92389612D01*
X175441624Y-92504373D01*
X175419965Y-92520635D01*
X175416393Y-92524373D01*
X175288313Y-92658401D01*
X175265629Y-92682138D01*
X175139743Y-92866680D01*
X175124003Y-92900590D01*
X175054972Y-93049305D01*
X175045688Y-93069305D01*
X174985989Y-93284570D01*
X174962251Y-93506695D01*
X174962548Y-93511848D01*
X174962548Y-93511851D01*
X174968011Y-93606590D01*
X174975110Y-93729715D01*
X174976247Y-93734761D01*
X174976248Y-93734767D01*
X174996119Y-93822939D01*
X175024222Y-93947639D01*
X175108266Y-94154616D01*
X175110965Y-94159020D01*
X175210035Y-94320688D01*
X175224987Y-94345088D01*
X175371250Y-94513938D01*
X175543126Y-94656632D01*
X175582219Y-94679476D01*
X175616445Y-94699476D01*
X175665169Y-94751114D01*
X175678240Y-94820897D01*
X175651509Y-94886669D01*
X175611055Y-94920027D01*
X175598607Y-94926507D01*
X175594474Y-94929610D01*
X175594471Y-94929612D01*
X175441624Y-95044373D01*
X175419965Y-95060635D01*
X175416393Y-95064373D01*
X175288313Y-95198401D01*
X175265629Y-95222138D01*
X175139743Y-95406680D01*
X175124003Y-95440590D01*
X175054972Y-95589305D01*
X175045688Y-95609305D01*
X174985989Y-95824570D01*
X174962251Y-96046695D01*
X174962548Y-96051848D01*
X174962548Y-96051851D01*
X174968011Y-96146590D01*
X174975110Y-96269715D01*
X174976247Y-96274761D01*
X174976248Y-96274767D01*
X174996119Y-96362939D01*
X175024222Y-96487639D01*
X175108266Y-96694616D01*
X175110965Y-96699020D01*
X175210035Y-96860688D01*
X175224987Y-96885088D01*
X175371250Y-97053938D01*
X175543126Y-97196632D01*
X175582219Y-97219476D01*
X175616445Y-97239476D01*
X175665169Y-97291114D01*
X175678240Y-97360897D01*
X175651509Y-97426669D01*
X175611055Y-97460027D01*
X175598607Y-97466507D01*
X175594474Y-97469610D01*
X175594471Y-97469612D01*
X175441624Y-97584373D01*
X175419965Y-97600635D01*
X175416393Y-97604373D01*
X175288313Y-97738401D01*
X175265629Y-97762138D01*
X175139743Y-97946680D01*
X175124003Y-97980590D01*
X175054972Y-98129305D01*
X175045688Y-98149305D01*
X174985989Y-98364570D01*
X174962251Y-98586695D01*
X174962548Y-98591848D01*
X174962548Y-98591851D01*
X174968011Y-98686590D01*
X174975110Y-98809715D01*
X174976247Y-98814761D01*
X174976248Y-98814767D01*
X174996119Y-98902939D01*
X175024222Y-99027639D01*
X175108266Y-99234616D01*
X175110965Y-99239020D01*
X175210035Y-99400688D01*
X175224987Y-99425088D01*
X175371250Y-99593938D01*
X175543126Y-99736632D01*
X175582219Y-99759476D01*
X175616445Y-99779476D01*
X175665169Y-99831114D01*
X175678240Y-99900897D01*
X175651509Y-99966669D01*
X175611055Y-100000027D01*
X175598607Y-100006507D01*
X175594474Y-100009610D01*
X175594471Y-100009612D01*
X175441624Y-100124373D01*
X175419965Y-100140635D01*
X175416393Y-100144373D01*
X175288313Y-100278401D01*
X175265629Y-100302138D01*
X175139743Y-100486680D01*
X175124003Y-100520590D01*
X175054972Y-100669305D01*
X175045688Y-100689305D01*
X174985989Y-100904570D01*
X174962251Y-101126695D01*
X174962548Y-101131848D01*
X174962548Y-101131851D01*
X174968011Y-101226590D01*
X174975110Y-101349715D01*
X174976247Y-101354761D01*
X174976248Y-101354767D01*
X174996119Y-101442939D01*
X175024222Y-101567639D01*
X175108266Y-101774616D01*
X175110965Y-101779020D01*
X175210035Y-101940688D01*
X175224987Y-101965088D01*
X175371250Y-102133938D01*
X175543126Y-102276632D01*
X175601762Y-102310896D01*
X175616955Y-102319774D01*
X175665679Y-102371412D01*
X175678750Y-102441195D01*
X175652019Y-102506967D01*
X175611562Y-102540327D01*
X175603457Y-102544546D01*
X175594738Y-102550036D01*
X175424433Y-102677905D01*
X175416726Y-102684748D01*
X175269590Y-102838717D01*
X175263104Y-102846727D01*
X175143098Y-103022649D01*
X175138000Y-103031623D01*
X175048338Y-103224783D01*
X175044775Y-103234470D01*
X174989389Y-103434183D01*
X174990912Y-103442607D01*
X175003292Y-103446000D01*
X177643344Y-103446000D01*
X177656875Y-103442027D01*
X177658180Y-103432947D01*
X177616214Y-103265875D01*
X177612894Y-103256124D01*
X177527972Y-103060814D01*
X177523105Y-103051739D01*
X177407426Y-102872926D01*
X177401136Y-102864757D01*
X177257806Y-102707240D01*
X177250273Y-102700215D01*
X177083139Y-102568222D01*
X177074556Y-102562520D01*
X177037602Y-102542120D01*
X176987631Y-102491687D01*
X176972859Y-102422245D01*
X176997975Y-102355839D01*
X177025327Y-102329232D01*
X177066626Y-102299774D01*
X177204860Y-102201173D01*
X177363096Y-102043489D01*
X177377468Y-102023489D01*
X177490435Y-101866277D01*
X177493453Y-101862077D01*
X177500908Y-101846994D01*
X177590136Y-101666453D01*
X177590137Y-101666451D01*
X177592430Y-101661811D01*
X177657370Y-101448069D01*
X177686529Y-101226590D01*
X177688156Y-101160000D01*
X177669852Y-100937361D01*
X177615431Y-100720702D01*
X177526354Y-100515840D01*
X177405014Y-100328277D01*
X177254670Y-100163051D01*
X177250619Y-100159852D01*
X177250615Y-100159848D01*
X177083414Y-100027800D01*
X177083410Y-100027798D01*
X177079359Y-100024598D01*
X177038053Y-100001796D01*
X176988084Y-99951364D01*
X176973312Y-99881921D01*
X176998428Y-99815516D01*
X177025780Y-99788909D01*
X177069603Y-99757650D01*
X177204860Y-99661173D01*
X177363096Y-99503489D01*
X177377468Y-99483489D01*
X177490435Y-99326277D01*
X177493453Y-99322077D01*
X177500908Y-99306994D01*
X177590136Y-99126453D01*
X177590137Y-99126451D01*
X177592430Y-99121811D01*
X177657370Y-98908069D01*
X177686529Y-98686590D01*
X177688156Y-98620000D01*
X177669852Y-98397361D01*
X177615431Y-98180702D01*
X177526354Y-97975840D01*
X177405014Y-97788277D01*
X177254670Y-97623051D01*
X177250619Y-97619852D01*
X177250615Y-97619848D01*
X177083414Y-97487800D01*
X177083410Y-97487798D01*
X177079359Y-97484598D01*
X177038053Y-97461796D01*
X176988084Y-97411364D01*
X176973312Y-97341921D01*
X176998428Y-97275516D01*
X177025780Y-97248909D01*
X177069603Y-97217650D01*
X177204860Y-97121173D01*
X177363096Y-96963489D01*
X177377468Y-96943489D01*
X177490435Y-96786277D01*
X177493453Y-96782077D01*
X177500908Y-96766994D01*
X177590136Y-96586453D01*
X177590137Y-96586451D01*
X177592430Y-96581811D01*
X177657370Y-96368069D01*
X177686529Y-96146590D01*
X177688156Y-96080000D01*
X177669852Y-95857361D01*
X177615431Y-95640702D01*
X177526354Y-95435840D01*
X177405014Y-95248277D01*
X177254670Y-95083051D01*
X177250619Y-95079852D01*
X177250615Y-95079848D01*
X177083414Y-94947800D01*
X177083410Y-94947798D01*
X177079359Y-94944598D01*
X177038053Y-94921796D01*
X176988084Y-94871364D01*
X176973312Y-94801921D01*
X176998428Y-94735516D01*
X177025780Y-94708909D01*
X177069603Y-94677650D01*
X177204860Y-94581173D01*
X177363096Y-94423489D01*
X177377468Y-94403489D01*
X177490435Y-94246277D01*
X177493453Y-94242077D01*
X177500908Y-94226994D01*
X177590136Y-94046453D01*
X177590137Y-94046451D01*
X177592430Y-94041811D01*
X177657370Y-93828069D01*
X177686529Y-93606590D01*
X177688156Y-93540000D01*
X177669852Y-93317361D01*
X177615431Y-93100702D01*
X177526354Y-92895840D01*
X177405014Y-92708277D01*
X177254670Y-92543051D01*
X177250619Y-92539852D01*
X177250615Y-92539848D01*
X177083414Y-92407800D01*
X177083410Y-92407798D01*
X177079359Y-92404598D01*
X177038053Y-92381796D01*
X176988084Y-92331364D01*
X176973312Y-92261921D01*
X176998428Y-92195516D01*
X177025780Y-92168909D01*
X177069603Y-92137650D01*
X177204860Y-92041173D01*
X177363096Y-91883489D01*
X177377468Y-91863489D01*
X177490435Y-91706277D01*
X177493453Y-91702077D01*
X177500908Y-91686994D01*
X177590136Y-91506453D01*
X177590137Y-91506451D01*
X177592430Y-91501811D01*
X177657370Y-91288069D01*
X177686529Y-91066590D01*
X177688156Y-91000000D01*
X177669852Y-90777361D01*
X177615431Y-90560702D01*
X177526354Y-90355840D01*
X177405014Y-90168277D01*
X177254670Y-90003051D01*
X177250619Y-89999852D01*
X177250615Y-89999848D01*
X177083414Y-89867800D01*
X177083410Y-89867798D01*
X177079359Y-89864598D01*
X177038053Y-89841796D01*
X176988084Y-89791364D01*
X176973312Y-89721921D01*
X176998428Y-89655516D01*
X177025780Y-89628909D01*
X177069603Y-89597650D01*
X177204860Y-89501173D01*
X177363096Y-89343489D01*
X177377468Y-89323489D01*
X177490435Y-89166277D01*
X177493453Y-89162077D01*
X177500908Y-89146994D01*
X177590136Y-88966453D01*
X177590137Y-88966451D01*
X177592430Y-88961811D01*
X177657370Y-88748069D01*
X177686529Y-88526590D01*
X177688156Y-88460000D01*
X177669852Y-88237361D01*
X177615431Y-88020702D01*
X177526354Y-87815840D01*
X177405014Y-87628277D01*
X177254670Y-87463051D01*
X177250619Y-87459852D01*
X177250615Y-87459848D01*
X177083414Y-87327800D01*
X177083410Y-87327798D01*
X177079359Y-87324598D01*
X177038053Y-87301796D01*
X176988084Y-87251364D01*
X176973312Y-87181921D01*
X176998428Y-87115516D01*
X177025780Y-87088909D01*
X177069603Y-87057650D01*
X177204860Y-86961173D01*
X177363096Y-86803489D01*
X177377468Y-86783489D01*
X177490435Y-86626277D01*
X177493453Y-86622077D01*
X177500908Y-86606994D01*
X177590136Y-86426453D01*
X177590137Y-86426451D01*
X177592430Y-86421811D01*
X177657370Y-86208069D01*
X177686529Y-85986590D01*
X177688156Y-85920000D01*
X177669852Y-85697361D01*
X177615431Y-85480702D01*
X177526354Y-85275840D01*
X177405014Y-85088277D01*
X177254670Y-84923051D01*
X177250619Y-84919852D01*
X177250615Y-84919848D01*
X177083414Y-84787800D01*
X177083410Y-84787798D01*
X177079359Y-84784598D01*
X177038053Y-84761796D01*
X176988084Y-84711364D01*
X176973312Y-84641921D01*
X176998428Y-84575516D01*
X177025780Y-84548909D01*
X177069603Y-84517650D01*
X177204860Y-84421173D01*
X177363096Y-84263489D01*
X177377468Y-84243489D01*
X177490435Y-84086277D01*
X177493453Y-84082077D01*
X177500908Y-84066994D01*
X177590136Y-83886453D01*
X177590137Y-83886451D01*
X177592430Y-83881811D01*
X177657370Y-83668069D01*
X177686529Y-83446590D01*
X177688156Y-83380000D01*
X177669852Y-83157361D01*
X177615431Y-82940702D01*
X177526354Y-82735840D01*
X177405014Y-82548277D01*
X177254670Y-82383051D01*
X177250619Y-82379852D01*
X177250615Y-82379848D01*
X177083414Y-82247800D01*
X177083410Y-82247798D01*
X177079359Y-82244598D01*
X177038053Y-82221796D01*
X176988084Y-82171364D01*
X176973312Y-82101921D01*
X176998428Y-82035516D01*
X177025780Y-82008909D01*
X177069603Y-81977650D01*
X177204860Y-81881173D01*
X177363096Y-81723489D01*
X177377468Y-81703489D01*
X177490435Y-81546277D01*
X177493453Y-81542077D01*
X177500908Y-81526994D01*
X177590136Y-81346453D01*
X177590137Y-81346451D01*
X177592430Y-81341811D01*
X177657370Y-81128069D01*
X177686529Y-80906590D01*
X177688156Y-80840000D01*
X177669852Y-80617361D01*
X177615431Y-80400702D01*
X177526354Y-80195840D01*
X177405014Y-80008277D01*
X177254670Y-79843051D01*
X177250619Y-79839852D01*
X177250615Y-79839848D01*
X177083414Y-79707800D01*
X177083410Y-79707798D01*
X177079359Y-79704598D01*
X177038053Y-79681796D01*
X176988084Y-79631364D01*
X176973312Y-79561921D01*
X176998428Y-79495516D01*
X177025780Y-79468909D01*
X177069603Y-79437650D01*
X177204860Y-79341173D01*
X177363096Y-79183489D01*
X177377468Y-79163489D01*
X177490435Y-79006277D01*
X177493453Y-79002077D01*
X177500908Y-78986994D01*
X177590136Y-78806453D01*
X177590137Y-78806451D01*
X177592430Y-78801811D01*
X177657370Y-78588069D01*
X177686529Y-78366590D01*
X177688156Y-78300000D01*
X177669852Y-78077361D01*
X177615431Y-77860702D01*
X177526354Y-77655840D01*
X177405014Y-77468277D01*
X177254670Y-77303051D01*
X177250619Y-77299852D01*
X177250615Y-77299848D01*
X177083414Y-77167800D01*
X177083410Y-77167798D01*
X177079359Y-77164598D01*
X177038053Y-77141796D01*
X176988084Y-77091364D01*
X176973312Y-77021921D01*
X176998428Y-76955516D01*
X177025780Y-76928909D01*
X177069603Y-76897650D01*
X177204860Y-76801173D01*
X177363096Y-76643489D01*
X177377468Y-76623489D01*
X177490435Y-76466277D01*
X177493453Y-76462077D01*
X177500908Y-76446994D01*
X177590136Y-76266453D01*
X177590137Y-76266451D01*
X177592430Y-76261811D01*
X177657370Y-76048069D01*
X177686529Y-75826590D01*
X177688156Y-75760000D01*
X177669852Y-75537361D01*
X177615431Y-75320702D01*
X177526354Y-75115840D01*
X177405014Y-74928277D01*
X177254670Y-74763051D01*
X177250619Y-74759852D01*
X177250615Y-74759848D01*
X177083414Y-74627800D01*
X177083410Y-74627798D01*
X177079359Y-74624598D01*
X177038053Y-74601796D01*
X176988084Y-74551364D01*
X176973312Y-74481921D01*
X176998428Y-74415516D01*
X177025780Y-74388909D01*
X177069603Y-74357650D01*
X177204860Y-74261173D01*
X177363096Y-74103489D01*
X177377468Y-74083489D01*
X177490435Y-73926277D01*
X177493453Y-73922077D01*
X177500908Y-73906994D01*
X177590136Y-73726453D01*
X177590137Y-73726451D01*
X177592430Y-73721811D01*
X177657370Y-73508069D01*
X177686529Y-73286590D01*
X177688156Y-73220000D01*
X177669852Y-72997361D01*
X177615431Y-72780702D01*
X177526354Y-72575840D01*
X177405014Y-72388277D01*
X177254670Y-72223051D01*
X177250619Y-72219852D01*
X177250615Y-72219848D01*
X177083414Y-72087800D01*
X177083410Y-72087798D01*
X177079359Y-72084598D01*
X177038053Y-72061796D01*
X176988084Y-72011364D01*
X176973312Y-71941921D01*
X176998428Y-71875516D01*
X177025780Y-71848909D01*
X177069603Y-71817650D01*
X177204860Y-71721173D01*
X177363096Y-71563489D01*
X177377468Y-71543489D01*
X177490435Y-71386277D01*
X177493453Y-71382077D01*
X177500908Y-71366994D01*
X177590136Y-71186453D01*
X177590137Y-71186451D01*
X177592430Y-71181811D01*
X177657370Y-70968069D01*
X177686529Y-70746590D01*
X177688156Y-70680000D01*
X177669852Y-70457361D01*
X177615431Y-70240702D01*
X177526354Y-70035840D01*
X177405014Y-69848277D01*
X177254670Y-69683051D01*
X177250619Y-69679852D01*
X177250615Y-69679848D01*
X177083414Y-69547800D01*
X177083410Y-69547798D01*
X177079359Y-69544598D01*
X177038053Y-69521796D01*
X176988084Y-69471364D01*
X176973312Y-69401921D01*
X176998428Y-69335516D01*
X177025780Y-69308909D01*
X177069603Y-69277650D01*
X177204860Y-69181173D01*
X177363096Y-69023489D01*
X177377468Y-69003489D01*
X177490435Y-68846277D01*
X177493453Y-68842077D01*
X177500908Y-68826994D01*
X177590136Y-68646453D01*
X177590137Y-68646451D01*
X177592430Y-68641811D01*
X177657370Y-68428069D01*
X177686529Y-68206590D01*
X177688156Y-68140000D01*
X177669852Y-67917361D01*
X177615431Y-67700702D01*
X177526354Y-67495840D01*
X177405014Y-67308277D01*
X177254670Y-67143051D01*
X177250619Y-67139852D01*
X177250615Y-67139848D01*
X177083414Y-67007800D01*
X177083410Y-67007798D01*
X177079359Y-67004598D01*
X177038053Y-66981796D01*
X176988084Y-66931364D01*
X176973312Y-66861921D01*
X176998428Y-66795516D01*
X177025780Y-66768909D01*
X177069603Y-66737650D01*
X177204860Y-66641173D01*
X177363096Y-66483489D01*
X177377468Y-66463489D01*
X177490435Y-66306277D01*
X177493453Y-66302077D01*
X177500908Y-66286994D01*
X177590136Y-66106453D01*
X177590137Y-66106451D01*
X177592430Y-66101811D01*
X177657370Y-65888069D01*
X177686529Y-65666590D01*
X177688156Y-65600000D01*
X177669852Y-65377361D01*
X177615431Y-65160702D01*
X177526354Y-64955840D01*
X177405014Y-64768277D01*
X177254670Y-64603051D01*
X177250619Y-64599852D01*
X177250615Y-64599848D01*
X177083414Y-64467800D01*
X177083410Y-64467798D01*
X177079359Y-64464598D01*
X177038053Y-64441796D01*
X176988084Y-64391364D01*
X176973312Y-64321921D01*
X176998428Y-64255516D01*
X177025780Y-64228909D01*
X177069603Y-64197650D01*
X177204860Y-64101173D01*
X177363096Y-63943489D01*
X177377468Y-63923489D01*
X177490435Y-63766277D01*
X177493453Y-63762077D01*
X177498991Y-63750873D01*
X177590136Y-63566453D01*
X177590137Y-63566451D01*
X177592430Y-63561811D01*
X177657370Y-63348069D01*
X177686529Y-63126590D01*
X177688156Y-63060000D01*
X177669852Y-62837361D01*
X177615431Y-62620702D01*
X177526354Y-62415840D01*
X177405014Y-62228277D01*
X177254670Y-62063051D01*
X177250619Y-62059852D01*
X177250615Y-62059848D01*
X177083414Y-61927800D01*
X177083410Y-61927798D01*
X177079359Y-61924598D01*
X177037569Y-61901529D01*
X176987598Y-61851097D01*
X176972826Y-61781654D01*
X176997942Y-61715248D01*
X177025294Y-61688641D01*
X177200328Y-61563792D01*
X177208200Y-61557139D01*
X177359052Y-61406812D01*
X177365730Y-61398965D01*
X177490003Y-61226020D01*
X177495313Y-61217183D01*
X177589670Y-61026267D01*
X177593469Y-61016672D01*
X177655377Y-60812910D01*
X177657555Y-60802837D01*
X177658986Y-60791962D01*
X177656775Y-60777778D01*
X177643617Y-60774000D01*
X175008225Y-60774000D01*
X174994694Y-60777973D01*
X174993257Y-60787966D01*
X175023565Y-60922446D01*
X175026645Y-60932275D01*
X175106770Y-61129603D01*
X175111413Y-61138794D01*
X175222694Y-61320388D01*
X175228777Y-61328699D01*
X175368213Y-61489667D01*
X175375580Y-61496883D01*
X175539434Y-61632916D01*
X175547881Y-61638831D01*
X175616969Y-61679203D01*
X175665693Y-61730842D01*
X175678764Y-61800625D01*
X175652033Y-61866396D01*
X175611584Y-61899752D01*
X175598607Y-61906507D01*
X175594474Y-61909610D01*
X175594471Y-61909612D01*
X175424100Y-62037530D01*
X175419965Y-62040635D01*
X175316617Y-62148782D01*
X175255095Y-62184211D01*
X175184183Y-62180754D01*
X175136429Y-62150825D01*
X174836702Y-61851097D01*
X174456847Y-61471242D01*
X174449313Y-61462963D01*
X174445200Y-61456482D01*
X174395548Y-61409856D01*
X174392707Y-61407102D01*
X174372970Y-61387365D01*
X174369773Y-61384885D01*
X174360751Y-61377180D01*
X174334300Y-61352341D01*
X174328521Y-61346914D01*
X174321575Y-61343095D01*
X174321572Y-61343093D01*
X174310766Y-61337152D01*
X174294247Y-61326301D01*
X174293783Y-61325941D01*
X174278241Y-61313886D01*
X174270972Y-61310741D01*
X174270968Y-61310738D01*
X174237663Y-61296326D01*
X174227013Y-61291109D01*
X174188260Y-61269805D01*
X174168637Y-61264767D01*
X174149934Y-61258363D01*
X174138620Y-61253467D01*
X174138619Y-61253467D01*
X174131345Y-61250319D01*
X174123522Y-61249080D01*
X174123512Y-61249077D01*
X174087676Y-61243401D01*
X174076056Y-61240995D01*
X174040911Y-61231972D01*
X174040910Y-61231972D01*
X174033230Y-61230000D01*
X174012976Y-61230000D01*
X173993265Y-61228449D01*
X173981086Y-61226520D01*
X173973257Y-61225280D01*
X173965365Y-61226026D01*
X173929239Y-61229441D01*
X173917381Y-61230000D01*
X172809500Y-61230000D01*
X172741379Y-61209998D01*
X172694886Y-61156342D01*
X172683500Y-61104000D01*
X172683500Y-60254183D01*
X174989389Y-60254183D01*
X174990912Y-60262607D01*
X175003292Y-60266000D01*
X176052885Y-60266000D01*
X176068124Y-60261525D01*
X176069329Y-60260135D01*
X176071000Y-60252452D01*
X176071000Y-60247885D01*
X176579000Y-60247885D01*
X176583475Y-60263124D01*
X176584865Y-60264329D01*
X176592548Y-60266000D01*
X177643344Y-60266000D01*
X177656875Y-60262027D01*
X177658180Y-60252947D01*
X177616214Y-60085875D01*
X177612894Y-60076124D01*
X177527972Y-59880814D01*
X177523105Y-59871739D01*
X177407426Y-59692926D01*
X177401136Y-59684757D01*
X177257806Y-59527240D01*
X177250273Y-59520215D01*
X177083139Y-59388222D01*
X177074552Y-59382517D01*
X176888117Y-59279599D01*
X176878705Y-59275369D01*
X176677959Y-59204280D01*
X176667988Y-59201646D01*
X176596837Y-59188972D01*
X176583540Y-59190432D01*
X176579000Y-59204989D01*
X176579000Y-60247885D01*
X176071000Y-60247885D01*
X176071000Y-59203102D01*
X176067082Y-59189758D01*
X176052806Y-59187771D01*
X176014324Y-59193660D01*
X176004288Y-59196051D01*
X175801868Y-59262212D01*
X175792359Y-59266209D01*
X175603463Y-59364542D01*
X175594738Y-59370036D01*
X175424433Y-59497905D01*
X175416726Y-59504748D01*
X175269590Y-59658717D01*
X175263104Y-59666727D01*
X175143098Y-59842649D01*
X175138000Y-59851623D01*
X175048338Y-60044783D01*
X175044775Y-60054470D01*
X174989389Y-60254183D01*
X172683500Y-60254183D01*
X172683500Y-59621866D01*
X172676745Y-59559684D01*
X172625615Y-59423295D01*
X172538261Y-59306739D01*
X172421705Y-59219385D01*
X172285316Y-59168255D01*
X172223134Y-59161500D01*
X170426866Y-59161500D01*
X170364684Y-59168255D01*
X170228295Y-59219385D01*
X170111739Y-59306739D01*
X170024385Y-59423295D01*
X169973255Y-59559684D01*
X169966500Y-59621866D01*
X169966500Y-61104000D01*
X169946498Y-61172121D01*
X169892842Y-61218614D01*
X169840500Y-61230000D01*
X168384500Y-61230000D01*
X168316379Y-61209998D01*
X168269886Y-61156342D01*
X168258500Y-61104000D01*
X168258500Y-59601866D01*
X168251745Y-59539684D01*
X168200615Y-59403295D01*
X168113261Y-59286739D01*
X167996705Y-59199385D01*
X167860316Y-59148255D01*
X167798134Y-59141500D01*
X166001866Y-59141500D01*
X165939684Y-59148255D01*
X165803295Y-59199385D01*
X165686739Y-59286739D01*
X165599385Y-59403295D01*
X165596233Y-59411703D01*
X165596232Y-59411705D01*
X165554722Y-59522433D01*
X165512081Y-59579198D01*
X165445519Y-59603898D01*
X165376170Y-59588691D01*
X165343546Y-59563004D01*
X165292799Y-59507234D01*
X165285273Y-59500215D01*
X165118139Y-59368222D01*
X165109552Y-59362517D01*
X164923117Y-59259599D01*
X164913705Y-59255369D01*
X164712959Y-59184280D01*
X164702988Y-59181646D01*
X164631837Y-59168972D01*
X164618540Y-59170432D01*
X164614000Y-59184989D01*
X164614000Y-60628000D01*
X164593998Y-60696121D01*
X164540342Y-60742614D01*
X164488000Y-60754000D01*
X163043225Y-60754000D01*
X163029694Y-60757973D01*
X163028257Y-60767966D01*
X163058565Y-60902446D01*
X163061645Y-60912275D01*
X163141770Y-61109603D01*
X163146413Y-61118794D01*
X163257694Y-61300388D01*
X163263777Y-61308699D01*
X163403213Y-61469667D01*
X163410580Y-61476883D01*
X163574434Y-61612916D01*
X163582881Y-61618831D01*
X163651969Y-61659203D01*
X163700693Y-61710842D01*
X163713764Y-61780625D01*
X163687033Y-61846396D01*
X163646584Y-61879752D01*
X163633607Y-61886507D01*
X163629474Y-61889610D01*
X163629471Y-61889612D01*
X163459100Y-62017530D01*
X163454965Y-62020635D01*
X163300629Y-62182138D01*
X163297715Y-62186410D01*
X163297714Y-62186411D01*
X163255401Y-62248440D01*
X163174743Y-62366680D01*
X163080688Y-62569305D01*
X163020989Y-62784570D01*
X162997251Y-63006695D01*
X162997548Y-63011848D01*
X162997548Y-63011851D01*
X163003011Y-63106590D01*
X163010110Y-63229715D01*
X163011247Y-63234761D01*
X163011248Y-63234767D01*
X163031119Y-63322939D01*
X163059222Y-63447639D01*
X163105582Y-63561811D01*
X163123021Y-63604757D01*
X163143266Y-63654616D01*
X163183380Y-63720077D01*
X163257291Y-63840688D01*
X163259987Y-63845088D01*
X163406250Y-64013938D01*
X163578126Y-64156632D01*
X163612352Y-64176632D01*
X163651445Y-64199476D01*
X163700169Y-64251114D01*
X163713240Y-64320897D01*
X163686509Y-64386669D01*
X163646055Y-64420027D01*
X163633607Y-64426507D01*
X163629474Y-64429610D01*
X163629471Y-64429612D01*
X163459100Y-64557530D01*
X163454965Y-64560635D01*
X163300629Y-64722138D01*
X163297720Y-64726403D01*
X163297714Y-64726411D01*
X163212556Y-64851249D01*
X163174743Y-64906680D01*
X163080688Y-65109305D01*
X163020989Y-65324570D01*
X162997251Y-65546695D01*
X162997548Y-65551848D01*
X162997548Y-65551851D01*
X163003011Y-65646590D01*
X163010110Y-65769715D01*
X163011247Y-65774761D01*
X163011248Y-65774767D01*
X163031119Y-65862939D01*
X163059222Y-65987639D01*
X163143266Y-66194616D01*
X163194019Y-66277438D01*
X163257291Y-66380688D01*
X163259987Y-66385088D01*
X163406250Y-66553938D01*
X163578126Y-66696632D01*
X163612352Y-66716632D01*
X163651445Y-66739476D01*
X163700169Y-66791114D01*
X163713240Y-66860897D01*
X163686509Y-66926669D01*
X163646055Y-66960027D01*
X163633607Y-66966507D01*
X163629474Y-66969610D01*
X163629471Y-66969612D01*
X163459100Y-67097530D01*
X163454965Y-67100635D01*
X163300629Y-67262138D01*
X163297720Y-67266403D01*
X163297714Y-67266411D01*
X163212556Y-67391249D01*
X163174743Y-67446680D01*
X163080688Y-67649305D01*
X163020989Y-67864570D01*
X162997251Y-68086695D01*
X162997548Y-68091848D01*
X162997548Y-68091851D01*
X163003011Y-68186590D01*
X163010110Y-68309715D01*
X163011247Y-68314761D01*
X163011248Y-68314767D01*
X163031119Y-68402939D01*
X163059222Y-68527639D01*
X163143266Y-68734616D01*
X163194019Y-68817438D01*
X163257291Y-68920688D01*
X163259987Y-68925088D01*
X163406250Y-69093938D01*
X163578126Y-69236632D01*
X163612352Y-69256632D01*
X163651445Y-69279476D01*
X163700169Y-69331114D01*
X163713240Y-69400897D01*
X163686509Y-69466669D01*
X163646055Y-69500027D01*
X163633607Y-69506507D01*
X163629474Y-69509610D01*
X163629471Y-69509612D01*
X163459100Y-69637530D01*
X163454965Y-69640635D01*
X163300629Y-69802138D01*
X163297720Y-69806403D01*
X163297714Y-69806411D01*
X163212556Y-69931249D01*
X163174743Y-69986680D01*
X163080688Y-70189305D01*
X163020989Y-70404570D01*
X162997251Y-70626695D01*
X162997548Y-70631848D01*
X162997548Y-70631851D01*
X163003011Y-70726590D01*
X163010110Y-70849715D01*
X163011247Y-70854761D01*
X163011248Y-70854767D01*
X163031119Y-70942939D01*
X163059222Y-71067639D01*
X163143266Y-71274616D01*
X163194019Y-71357438D01*
X163257291Y-71460688D01*
X163259987Y-71465088D01*
X163406250Y-71633938D01*
X163578126Y-71776632D01*
X163612352Y-71796632D01*
X163651445Y-71819476D01*
X163700169Y-71871114D01*
X163713240Y-71940897D01*
X163686509Y-72006669D01*
X163646055Y-72040027D01*
X163633607Y-72046507D01*
X163629474Y-72049610D01*
X163629471Y-72049612D01*
X163459100Y-72177530D01*
X163454965Y-72180635D01*
X163300629Y-72342138D01*
X163297720Y-72346403D01*
X163297714Y-72346411D01*
X163212556Y-72471249D01*
X163174743Y-72526680D01*
X163080688Y-72729305D01*
X163020989Y-72944570D01*
X162997251Y-73166695D01*
X162997548Y-73171848D01*
X162997548Y-73171851D01*
X163003011Y-73266590D01*
X163010110Y-73389715D01*
X163011247Y-73394761D01*
X163011248Y-73394767D01*
X163031119Y-73482939D01*
X163059222Y-73607639D01*
X163143266Y-73814616D01*
X163194019Y-73897438D01*
X163257291Y-74000688D01*
X163259987Y-74005088D01*
X163406250Y-74173938D01*
X163578126Y-74316632D01*
X163612352Y-74336632D01*
X163651445Y-74359476D01*
X163700169Y-74411114D01*
X163713240Y-74480897D01*
X163686509Y-74546669D01*
X163646055Y-74580027D01*
X163633607Y-74586507D01*
X163629474Y-74589610D01*
X163629471Y-74589612D01*
X163459100Y-74717530D01*
X163454965Y-74720635D01*
X163300629Y-74882138D01*
X163297720Y-74886403D01*
X163297714Y-74886411D01*
X163212556Y-75011249D01*
X163174743Y-75066680D01*
X163080688Y-75269305D01*
X163020989Y-75484570D01*
X162997251Y-75706695D01*
X162997548Y-75711848D01*
X162997548Y-75711851D01*
X163003011Y-75806590D01*
X163010110Y-75929715D01*
X163011247Y-75934761D01*
X163011248Y-75934767D01*
X163031119Y-76022939D01*
X163059222Y-76147639D01*
X163143266Y-76354616D01*
X163194019Y-76437438D01*
X163257291Y-76540688D01*
X163259987Y-76545088D01*
X163406250Y-76713938D01*
X163578126Y-76856632D01*
X163612352Y-76876632D01*
X163651445Y-76899476D01*
X163700169Y-76951114D01*
X163713240Y-77020897D01*
X163686509Y-77086669D01*
X163646055Y-77120027D01*
X163633607Y-77126507D01*
X163629474Y-77129610D01*
X163629471Y-77129612D01*
X163459100Y-77257530D01*
X163454965Y-77260635D01*
X163300629Y-77422138D01*
X163297720Y-77426403D01*
X163297714Y-77426411D01*
X163212556Y-77551249D01*
X163174743Y-77606680D01*
X163080688Y-77809305D01*
X163020989Y-78024570D01*
X162997251Y-78246695D01*
X162997548Y-78251848D01*
X162997548Y-78251851D01*
X163003011Y-78346590D01*
X163010110Y-78469715D01*
X163011247Y-78474761D01*
X163011248Y-78474767D01*
X163031119Y-78562939D01*
X163059222Y-78687639D01*
X163143266Y-78894616D01*
X163194019Y-78977438D01*
X163257291Y-79080688D01*
X163259987Y-79085088D01*
X163406250Y-79253938D01*
X163578126Y-79396632D01*
X163612352Y-79416632D01*
X163651445Y-79439476D01*
X163700169Y-79491114D01*
X163713240Y-79560897D01*
X163686509Y-79626669D01*
X163646055Y-79660027D01*
X163633607Y-79666507D01*
X163629474Y-79669610D01*
X163629471Y-79669612D01*
X163459100Y-79797530D01*
X163454965Y-79800635D01*
X163300629Y-79962138D01*
X163297720Y-79966403D01*
X163297714Y-79966411D01*
X163212556Y-80091249D01*
X163174743Y-80146680D01*
X163080688Y-80349305D01*
X163020989Y-80564570D01*
X162997251Y-80786695D01*
X162997548Y-80791848D01*
X162997548Y-80791851D01*
X163003011Y-80886590D01*
X163010110Y-81009715D01*
X163011247Y-81014761D01*
X163011248Y-81014767D01*
X163031119Y-81102939D01*
X163059222Y-81227639D01*
X163143266Y-81434616D01*
X163194019Y-81517438D01*
X163257291Y-81620688D01*
X163259987Y-81625088D01*
X163406250Y-81793938D01*
X163578126Y-81936632D01*
X163612352Y-81956632D01*
X163651445Y-81979476D01*
X163700169Y-82031114D01*
X163713240Y-82100897D01*
X163686509Y-82166669D01*
X163646055Y-82200027D01*
X163633607Y-82206507D01*
X163629474Y-82209610D01*
X163629471Y-82209612D01*
X163459100Y-82337530D01*
X163454965Y-82340635D01*
X163300629Y-82502138D01*
X163297720Y-82506403D01*
X163297714Y-82506411D01*
X163212556Y-82631249D01*
X163174743Y-82686680D01*
X163080688Y-82889305D01*
X163020989Y-83104570D01*
X162997251Y-83326695D01*
X162997548Y-83331848D01*
X162997548Y-83331851D01*
X163003011Y-83426590D01*
X163010110Y-83549715D01*
X163011247Y-83554761D01*
X163011248Y-83554767D01*
X163031119Y-83642939D01*
X163059222Y-83767639D01*
X163143266Y-83974616D01*
X163194019Y-84057438D01*
X163257291Y-84160688D01*
X163259987Y-84165088D01*
X163406250Y-84333938D01*
X163578126Y-84476632D01*
X163612352Y-84496632D01*
X163651445Y-84519476D01*
X163700169Y-84571114D01*
X163713240Y-84640897D01*
X163686509Y-84706669D01*
X163646055Y-84740027D01*
X163633607Y-84746507D01*
X163629474Y-84749610D01*
X163629471Y-84749612D01*
X163459100Y-84877530D01*
X163454965Y-84880635D01*
X163300629Y-85042138D01*
X163297720Y-85046403D01*
X163297714Y-85046411D01*
X163212556Y-85171249D01*
X163174743Y-85226680D01*
X163080688Y-85429305D01*
X163020989Y-85644570D01*
X162997251Y-85866695D01*
X162997548Y-85871848D01*
X162997548Y-85871851D01*
X163003011Y-85966590D01*
X163010110Y-86089715D01*
X163011247Y-86094761D01*
X163011248Y-86094767D01*
X163031119Y-86182939D01*
X163059222Y-86307639D01*
X163143266Y-86514616D01*
X163194019Y-86597438D01*
X163257291Y-86700688D01*
X163259987Y-86705088D01*
X163406250Y-86873938D01*
X163578126Y-87016632D01*
X163612352Y-87036632D01*
X163651445Y-87059476D01*
X163700169Y-87111114D01*
X163713240Y-87180897D01*
X163686509Y-87246669D01*
X163646055Y-87280027D01*
X163633607Y-87286507D01*
X163629474Y-87289610D01*
X163629471Y-87289612D01*
X163459100Y-87417530D01*
X163454965Y-87420635D01*
X163300629Y-87582138D01*
X163297720Y-87586403D01*
X163297714Y-87586411D01*
X163212556Y-87711249D01*
X163174743Y-87766680D01*
X163080688Y-87969305D01*
X163020989Y-88184570D01*
X162997251Y-88406695D01*
X162997548Y-88411848D01*
X162997548Y-88411851D01*
X163003011Y-88506590D01*
X163010110Y-88629715D01*
X163011247Y-88634761D01*
X163011248Y-88634767D01*
X163031119Y-88722939D01*
X163059222Y-88847639D01*
X163143266Y-89054616D01*
X163194019Y-89137438D01*
X163257291Y-89240688D01*
X163259987Y-89245088D01*
X163406250Y-89413938D01*
X163578126Y-89556632D01*
X163612352Y-89576632D01*
X163651445Y-89599476D01*
X163700169Y-89651114D01*
X163713240Y-89720897D01*
X163686509Y-89786669D01*
X163646055Y-89820027D01*
X163633607Y-89826507D01*
X163629474Y-89829610D01*
X163629471Y-89829612D01*
X163459100Y-89957530D01*
X163454965Y-89960635D01*
X163300629Y-90122138D01*
X163297720Y-90126403D01*
X163297714Y-90126411D01*
X163212556Y-90251249D01*
X163174743Y-90306680D01*
X163080688Y-90509305D01*
X163020989Y-90724570D01*
X162997251Y-90946695D01*
X162997548Y-90951848D01*
X162997548Y-90951851D01*
X163003011Y-91046590D01*
X163010110Y-91169715D01*
X163011247Y-91174761D01*
X163011248Y-91174767D01*
X163031119Y-91262939D01*
X163059222Y-91387639D01*
X163143266Y-91594616D01*
X163194019Y-91677438D01*
X163257291Y-91780688D01*
X163259987Y-91785088D01*
X163406250Y-91953938D01*
X163578126Y-92096632D01*
X163612352Y-92116632D01*
X163651445Y-92139476D01*
X163700169Y-92191114D01*
X163713240Y-92260897D01*
X163686509Y-92326669D01*
X163646055Y-92360027D01*
X163633607Y-92366507D01*
X163629474Y-92369610D01*
X163629471Y-92369612D01*
X163459100Y-92497530D01*
X163454965Y-92500635D01*
X163300629Y-92662138D01*
X163297720Y-92666403D01*
X163297714Y-92666411D01*
X163212556Y-92791249D01*
X163174743Y-92846680D01*
X163080688Y-93049305D01*
X163020989Y-93264570D01*
X162997251Y-93486695D01*
X162997548Y-93491848D01*
X162997548Y-93491851D01*
X163003011Y-93586590D01*
X163010110Y-93709715D01*
X163011247Y-93714761D01*
X163011248Y-93714767D01*
X163031119Y-93802939D01*
X163059222Y-93927639D01*
X163143266Y-94134616D01*
X163194019Y-94217438D01*
X163257291Y-94320688D01*
X163259987Y-94325088D01*
X163406250Y-94493938D01*
X163578126Y-94636632D01*
X163612352Y-94656632D01*
X163651445Y-94679476D01*
X163700169Y-94731114D01*
X163713240Y-94800897D01*
X163686509Y-94866669D01*
X163646055Y-94900027D01*
X163633607Y-94906507D01*
X163629474Y-94909610D01*
X163629471Y-94909612D01*
X163459100Y-95037530D01*
X163454965Y-95040635D01*
X163300629Y-95202138D01*
X163297720Y-95206403D01*
X163297714Y-95206411D01*
X163212556Y-95331249D01*
X163174743Y-95386680D01*
X163080688Y-95589305D01*
X163020989Y-95804570D01*
X162997251Y-96026695D01*
X162997548Y-96031848D01*
X162997548Y-96031851D01*
X163003011Y-96126590D01*
X163010110Y-96249715D01*
X163011247Y-96254761D01*
X163011248Y-96254767D01*
X163031119Y-96342939D01*
X163059222Y-96467639D01*
X163143266Y-96674616D01*
X163194019Y-96757438D01*
X163257291Y-96860688D01*
X163259987Y-96865088D01*
X163406250Y-97033938D01*
X163578126Y-97176632D01*
X163612352Y-97196632D01*
X163651445Y-97219476D01*
X163700169Y-97271114D01*
X163713240Y-97340897D01*
X163686509Y-97406669D01*
X163646055Y-97440027D01*
X163633607Y-97446507D01*
X163629474Y-97449610D01*
X163629471Y-97449612D01*
X163459100Y-97577530D01*
X163454965Y-97580635D01*
X163300629Y-97742138D01*
X163297720Y-97746403D01*
X163297714Y-97746411D01*
X163212556Y-97871249D01*
X163174743Y-97926680D01*
X163080688Y-98129305D01*
X163020989Y-98344570D01*
X162997251Y-98566695D01*
X162997548Y-98571848D01*
X162997548Y-98571851D01*
X163003011Y-98666590D01*
X163010110Y-98789715D01*
X163011247Y-98794761D01*
X163011248Y-98794767D01*
X163031119Y-98882939D01*
X163059222Y-99007639D01*
X163143266Y-99214616D01*
X163194019Y-99297438D01*
X163257291Y-99400688D01*
X163259987Y-99405088D01*
X163406250Y-99573938D01*
X163578126Y-99716632D01*
X163612352Y-99736632D01*
X163651445Y-99759476D01*
X163700169Y-99811114D01*
X163713240Y-99880897D01*
X163686509Y-99946669D01*
X163646055Y-99980027D01*
X163633607Y-99986507D01*
X163629474Y-99989610D01*
X163629471Y-99989612D01*
X163459100Y-100117530D01*
X163454965Y-100120635D01*
X163300629Y-100282138D01*
X163297720Y-100286403D01*
X163297714Y-100286411D01*
X163212556Y-100411249D01*
X163174743Y-100466680D01*
X163080688Y-100669305D01*
X163020989Y-100884570D01*
X162997251Y-101106695D01*
X161921242Y-101106695D01*
X161980737Y-60234183D01*
X163024389Y-60234183D01*
X163025912Y-60242607D01*
X163038292Y-60246000D01*
X164087885Y-60246000D01*
X164103124Y-60241525D01*
X164104329Y-60240135D01*
X164106000Y-60232452D01*
X164106000Y-59183102D01*
X164102082Y-59169758D01*
X164087806Y-59167771D01*
X164049324Y-59173660D01*
X164039288Y-59176051D01*
X163836868Y-59242212D01*
X163827359Y-59246209D01*
X163638463Y-59344542D01*
X163629738Y-59350036D01*
X163459433Y-59477905D01*
X163451726Y-59484748D01*
X163304590Y-59638717D01*
X163298104Y-59646727D01*
X163178098Y-59822649D01*
X163173000Y-59831623D01*
X163083338Y-60024783D01*
X163079775Y-60034470D01*
X163024389Y-60234183D01*
X161980737Y-60234183D01*
X161992675Y-52032703D01*
X171690743Y-52032703D01*
X171728268Y-52317734D01*
X171804129Y-52595036D01*
X171916923Y-52859476D01*
X172064561Y-53106161D01*
X172244313Y-53330528D01*
X172452851Y-53528423D01*
X172686317Y-53696186D01*
X172690112Y-53698195D01*
X172690113Y-53698196D01*
X172711869Y-53709715D01*
X172940392Y-53830712D01*
X173210373Y-53929511D01*
X173491264Y-53990755D01*
X173519841Y-53993004D01*
X173714282Y-54008307D01*
X173714291Y-54008307D01*
X173716739Y-54008500D01*
X173872271Y-54008500D01*
X173874407Y-54008354D01*
X173874418Y-54008354D01*
X174082548Y-53994165D01*
X174082554Y-53994164D01*
X174086825Y-53993873D01*
X174091020Y-53993004D01*
X174091022Y-53993004D01*
X174227583Y-53964724D01*
X174368342Y-53935574D01*
X174639343Y-53839607D01*
X174894812Y-53707750D01*
X174898313Y-53705289D01*
X174898317Y-53705287D01*
X175012418Y-53625095D01*
X175130023Y-53542441D01*
X175340622Y-53346740D01*
X175522713Y-53124268D01*
X175672927Y-52879142D01*
X175788483Y-52615898D01*
X175867244Y-52339406D01*
X175907751Y-52054784D01*
X175907845Y-52036951D01*
X175909235Y-51771583D01*
X175909235Y-51771576D01*
X175909257Y-51767297D01*
X175871732Y-51482266D01*
X175795871Y-51204964D01*
X175683077Y-50940524D01*
X175535439Y-50693839D01*
X175355687Y-50469472D01*
X175147149Y-50271577D01*
X174913683Y-50103814D01*
X174891843Y-50092250D01*
X174868654Y-50079972D01*
X174659608Y-49969288D01*
X174389627Y-49870489D01*
X174108736Y-49809245D01*
X174077685Y-49806801D01*
X173885718Y-49791693D01*
X173885709Y-49791693D01*
X173883261Y-49791500D01*
X173727729Y-49791500D01*
X173725593Y-49791646D01*
X173725582Y-49791646D01*
X173517452Y-49805835D01*
X173517446Y-49805836D01*
X173513175Y-49806127D01*
X173508980Y-49806996D01*
X173508978Y-49806996D01*
X173372416Y-49835277D01*
X173231658Y-49864426D01*
X172960657Y-49960393D01*
X172705188Y-50092250D01*
X172701687Y-50094711D01*
X172701683Y-50094713D01*
X172691594Y-50101804D01*
X172469977Y-50257559D01*
X172259378Y-50453260D01*
X172077287Y-50675732D01*
X171927073Y-50920858D01*
X171811517Y-51184102D01*
X171732756Y-51460594D01*
X171692249Y-51745216D01*
X171692227Y-51749505D01*
X171692226Y-51749512D01*
X171690765Y-52028417D01*
X171690743Y-52032703D01*
X161992675Y-52032703D01*
X161999805Y-47134317D01*
X162019906Y-47066225D01*
X162073630Y-47019810D01*
X162125805Y-47008500D01*
X177973804Y-47008500D01*
X178041925Y-47028502D01*
G37*
%TD.AperFunction*%
%TD*%
M02*
