M48
; DRILL file {KiCad (6.0.6)} date Tue Oct 25 09:25:16 2022
; FORMAT={-:-/ absolute / inch / decimal}
; #@! TF.CreationDate,2022-10-25T09:25:16-05:00
; #@! TF.GenerationSoftware,Kicad,Pcbnew,(6.0.6)
; #@! TF.FileFunction,Plated,1,2,PTH
FMAT,2
INCH
; #@! TA.AperFunction,Plated,PTH,ComponentDrill
T1C0.0394
%
G90
G05
T1
X6.4709Y-2.3819
X6.4709Y-2.4819
X6.4709Y-2.5819
X6.4709Y-2.6819
X6.4709Y-2.7819
X6.4709Y-2.8819
X6.4709Y-2.9819
X6.4709Y-3.0819
X6.4709Y-3.1819
X6.4709Y-3.2819
X6.4709Y-3.3819
X6.4709Y-3.4819
X6.4709Y-3.5819
X6.4709Y-3.6819
X6.4709Y-3.7819
X6.4709Y-3.8819
X6.4709Y-3.9819
X6.4709Y-4.0819
X6.5709Y-2.3819
X6.5709Y-2.4819
X6.5709Y-2.5819
X6.5709Y-2.6819
X6.5709Y-2.7819
X6.5709Y-2.8819
X6.5709Y-2.9819
X6.5709Y-3.0819
X6.5709Y-3.1819
X6.5709Y-3.2819
X6.5709Y-3.3819
X6.5709Y-3.4819
X6.5709Y-3.5819
X6.5709Y-3.6819
X6.5709Y-3.7819
X6.5709Y-3.8819
X6.5709Y-3.9819
X6.5709Y-4.0819
X6.7451Y-2.3827
X6.7451Y-2.4827
X6.7451Y-2.5827
X6.7451Y-2.6827
X6.7451Y-2.7827
X6.7451Y-2.8827
X6.7451Y-2.9827
X6.7451Y-3.0827
X6.7451Y-3.1827
X6.7451Y-3.2827
X6.7451Y-3.3827
X6.7451Y-3.4827
X6.7451Y-3.5827
X6.7451Y-3.6827
X6.7451Y-3.7827
X6.7451Y-3.8827
X6.7451Y-3.9827
X6.7451Y-4.0827
X6.9419Y-2.3827
X6.9419Y-2.4827
X6.9419Y-2.5827
X6.9419Y-2.6827
X6.9419Y-2.7827
X6.9419Y-2.8827
X6.9419Y-2.9827
X6.9419Y-3.0827
X6.9419Y-3.1827
X6.9419Y-3.2827
X6.9419Y-3.3827
X6.9419Y-3.4827
X6.9419Y-3.5827
X6.9419Y-3.6827
X6.9419Y-3.7827
X6.9419Y-3.8827
X6.9419Y-3.9827
X6.9419Y-4.0827
T0
M30
