%TF.GenerationSoftware,KiCad,Pcbnew,(6.0.6)*%
%TF.CreationDate,2022-10-14T22:33:39-05:00*%
%TF.ProjectId,unicorn,756e6963-6f72-46e2-9e6b-696361645f70,rev?*%
%TF.SameCoordinates,Original*%
%TF.FileFunction,Copper,L2,Bot*%
%TF.FilePolarity,Positive*%
%FSLAX46Y46*%
G04 Gerber Fmt 4.6, Leading zero omitted, Abs format (unit mm)*
G04 Created by KiCad (PCBNEW (6.0.6)) date 2022-10-14 22:33:39*
%MOMM*%
%LPD*%
G01*
G04 APERTURE LIST*
%TA.AperFunction,ComponentPad*%
%ADD10R,1.700000X1.700000*%
%TD*%
%TA.AperFunction,ComponentPad*%
%ADD11O,1.700000X1.700000*%
%TD*%
%TA.AperFunction,ViaPad*%
%ADD12C,0.800000*%
%TD*%
%TA.AperFunction,Conductor*%
%ADD13C,0.250000*%
%TD*%
%TA.AperFunction,Conductor*%
%ADD14C,1.000000*%
%TD*%
G04 APERTURE END LIST*
D10*
%TO.P,U4,1,HV4*%
%TO.N,GRMCLK*%
X100600000Y-79500000D03*
D11*
%TO.P,U4,2,HV3*%
%TO.N,unconnected-(U4-Pad2)*%
X100600000Y-82040000D03*
%TO.P,U4,3,GND*%
%TO.N,GND*%
X100600000Y-84580000D03*
%TO.P,U4,4,HV*%
%TO.N,+5V*%
X100600000Y-87120000D03*
%TO.P,U4,5,HV2*%
%TO.N,unconnected-(U4-Pad5)*%
X100600000Y-89660000D03*
%TO.P,U4,6,HV1*%
%TO.N,unconnected-(U4-Pad6)*%
X100600000Y-92200000D03*
%TO.P,U4,7,LV1*%
%TO.N,unconnected-(U4-Pad7)*%
X113300000Y-92200000D03*
%TO.P,U4,8,LV2*%
%TO.N,unconnected-(U4-Pad8)*%
X113300000Y-89660000D03*
%TO.P,U4,9,LV*%
%TO.N,+3.3V*%
X113300000Y-87120000D03*
%TO.P,U4,10,GND*%
%TO.N,GND*%
X113300000Y-84580000D03*
%TO.P,U4,11,LV3*%
%TO.N,unconnected-(U4-Pad11)*%
X113300000Y-82040000D03*
%TO.P,U4,12,LV4*%
%TO.N,LV_GRMCLK*%
X113300000Y-79500000D03*
%TD*%
D10*
%TO.P,U2,1,HV4*%
%TO.N,D4*%
X166750000Y-80087500D03*
D11*
%TO.P,U2,2,HV3*%
%TO.N,D5*%
X166750000Y-82627500D03*
%TO.P,U2,3,GND*%
%TO.N,GND*%
X166750000Y-85167500D03*
%TO.P,U2,4,HV*%
%TO.N,+5V*%
X166750000Y-87707500D03*
%TO.P,U2,5,HV2*%
%TO.N,D6*%
X166750000Y-90247500D03*
%TO.P,U2,6,HV1*%
%TO.N,D7*%
X166750000Y-92787500D03*
%TO.P,U2,7,LV1*%
%TO.N,LV_D7*%
X179450000Y-92787500D03*
%TO.P,U2,8,LV2*%
%TO.N,LV_D6*%
X179450000Y-90247500D03*
%TO.P,U2,9,LV*%
%TO.N,+3.3V*%
X179450000Y-87707500D03*
%TO.P,U2,10,GND*%
%TO.N,GND*%
X179450000Y-85167500D03*
%TO.P,U2,11,LV3*%
%TO.N,LV_D5*%
X179450000Y-82627500D03*
%TO.P,U2,12,LV4*%
%TO.N,LV_D4*%
X179450000Y-80087500D03*
%TD*%
D10*
%TO.P,U5,1,RESET*%
%TO.N,unconnected-(U5-Pad1)*%
X126450000Y-56875000D03*
D11*
%TO.P,U5,2,GPIO36*%
%TO.N,unconnected-(U5-Pad2)*%
X126450000Y-59415000D03*
%TO.P,U5,3,GPIO39*%
%TO.N,LV_DBIN*%
X126450000Y-61955000D03*
%TO.P,U5,4,GPIO34*%
%TO.N,LV_A14*%
X126450000Y-64495000D03*
%TO.P,U5,5,GPIO35*%
%TO.N,~{LV_GS}*%
X126450000Y-67035000D03*
%TO.P,U5,6,GPIO32*%
%TO.N,LV_GRMCLK*%
X126450000Y-69575000D03*
%TO.P,U5,7,GPIO33*%
%TO.N,unconnected-(U5-Pad7)*%
X126450000Y-72115000D03*
%TO.P,U5,8,GPIO25*%
%TO.N,LV_D4*%
X126450000Y-74655000D03*
%TO.P,U5,9,GPIO26*%
%TO.N,LV_D7*%
X126450000Y-77195000D03*
%TO.P,U5,10,GPIO27*%
%TO.N,LV_GREADY*%
X126450000Y-79735000D03*
%TO.P,U5,11,GPIO14*%
%TO.N,LV_D5*%
X126450000Y-82275000D03*
%TO.P,U5,12,GPIO12*%
%TO.N,unconnected-(U5-Pad12)*%
X126450000Y-84815000D03*
%TO.P,U5,13,GPIO13*%
%TO.N,LV_D6*%
X126450000Y-87355000D03*
%TO.P,U5,14,GND*%
%TO.N,GND*%
X126450000Y-89895000D03*
%TO.P,U5,15,VIN*%
%TO.N,+5V*%
X126450000Y-92435000D03*
%TO.P,U5,16,3.3V*%
%TO.N,+3.3V*%
X154390000Y-92435000D03*
%TO.P,U5,17,GND*%
%TO.N,GND*%
X154390000Y-89895000D03*
%TO.P,U5,18,GPIO13*%
%TO.N,unconnected-(U5-Pad18)*%
X154390000Y-87355000D03*
%TO.P,U5,19,GPIO2*%
%TO.N,unconnected-(U5-Pad19)*%
X154390000Y-84815000D03*
%TO.P,U5,20,GPIO4*%
%TO.N,unconnected-(U5-Pad20)*%
X154390000Y-82275000D03*
%TO.P,U5,21,GPIO16*%
%TO.N,LV_D3*%
X154390000Y-79735000D03*
%TO.P,U5,22,GPIO17*%
%TO.N,LV_D2*%
X154390000Y-77195000D03*
%TO.P,U5,23,GPIO5*%
%TO.N,unconnected-(U5-Pad23)*%
X154390000Y-74655000D03*
%TO.P,U5,24,GPIO18*%
%TO.N,LV_D1*%
X154390000Y-72115000D03*
%TO.P,U5,25,GPIO19*%
%TO.N,LV_D0*%
X154390000Y-69575000D03*
%TO.P,U5,26,GPIO21*%
%TO.N,unconnected-(U5-Pad26)*%
X154390000Y-67035000D03*
%TO.P,U5,27,GPIO3*%
%TO.N,unconnected-(U5-Pad27)*%
X154390000Y-64495000D03*
%TO.P,U5,28,GPIO1*%
%TO.N,unconnected-(U5-Pad28)*%
X154390000Y-61955000D03*
%TO.P,U5,29,GPIO22*%
%TO.N,unconnected-(U5-Pad29)*%
X154390000Y-59415000D03*
%TO.P,U5,30,GPIO23*%
%TO.N,unconnected-(U5-Pad30)*%
X154390000Y-56875000D03*
%TD*%
D10*
%TO.P,U1,1,HV4*%
%TO.N,D0*%
X166950000Y-56787500D03*
D11*
%TO.P,U1,2,HV3*%
%TO.N,D1*%
X166950000Y-59327500D03*
%TO.P,U1,3,GND*%
%TO.N,GND*%
X166950000Y-61867500D03*
%TO.P,U1,4,HV*%
%TO.N,+5V*%
X166950000Y-64407500D03*
%TO.P,U1,5,HV2*%
%TO.N,D2*%
X166950000Y-66947500D03*
%TO.P,U1,6,HV1*%
%TO.N,D3*%
X166950000Y-69487500D03*
%TO.P,U1,7,LV1*%
%TO.N,LV_D3*%
X179650000Y-69487500D03*
%TO.P,U1,8,LV2*%
%TO.N,LV_D2*%
X179650000Y-66947500D03*
%TO.P,U1,9,LV*%
%TO.N,+3.3V*%
X179650000Y-64407500D03*
%TO.P,U1,10,GND*%
%TO.N,GND*%
X179650000Y-61867500D03*
%TO.P,U1,11,LV3*%
%TO.N,LV_D1*%
X179650000Y-59327500D03*
%TO.P,U1,12,LV4*%
%TO.N,LV_D0*%
X179650000Y-56787500D03*
%TD*%
D10*
%TO.P,J1,1,Pin_1*%
%TO.N,D0*%
X159380000Y-47500000D03*
D11*
%TO.P,J1,2,Pin_2*%
%TO.N,D1*%
X156840000Y-47500000D03*
%TO.P,J1,3,Pin_3*%
%TO.N,D2*%
X154300000Y-47500000D03*
%TO.P,J1,4,Pin_4*%
%TO.N,D3*%
X151760000Y-47500000D03*
%TO.P,J1,5,Pin_5*%
%TO.N,D4*%
X149220000Y-47500000D03*
%TO.P,J1,6,Pin_6*%
%TO.N,D5*%
X146680000Y-47500000D03*
%TO.P,J1,7,Pin_7*%
%TO.N,D6*%
X144140000Y-47500000D03*
%TO.P,J1,8,Pin_8*%
%TO.N,D7*%
X141600000Y-47500000D03*
%TO.P,J1,9,Pin_9*%
%TO.N,GREADY*%
X139060000Y-47500000D03*
%TO.P,J1,10,Pin_10*%
%TO.N,DBIN*%
X136520000Y-47500000D03*
%TO.P,J1,11,Pin_11*%
%TO.N,IO_A14*%
X133980000Y-47500000D03*
%TO.P,J1,12,Pin_12*%
%TO.N,GRMCLK*%
X131440000Y-47500000D03*
%TO.P,J1,13,Pin_13*%
%TO.N,~{GS}*%
X128900000Y-47500000D03*
%TO.P,J1,14,Pin_14*%
%TO.N,+5V*%
X126360000Y-47500000D03*
%TO.P,J1,15,Pin_15*%
%TO.N,GND*%
X123820000Y-47500000D03*
%TD*%
D10*
%TO.P,U3,1,HV4*%
%TO.N,GREADY*%
X100450000Y-58187500D03*
D11*
%TO.P,U3,2,HV3*%
%TO.N,DBIN*%
X100450000Y-60727500D03*
%TO.P,U3,3,GND*%
%TO.N,GND*%
X100450000Y-63267500D03*
%TO.P,U3,4,HV*%
%TO.N,+5V*%
X100450000Y-65807500D03*
%TO.P,U3,5,HV2*%
%TO.N,IO_A14*%
X100450000Y-68347500D03*
%TO.P,U3,6,HV1*%
%TO.N,~{GS}*%
X100450000Y-70887500D03*
%TO.P,U3,7,LV1*%
%TO.N,~{LV_GS}*%
X113150000Y-70887500D03*
%TO.P,U3,8,LV2*%
%TO.N,LV_A14*%
X113150000Y-68347500D03*
%TO.P,U3,9,LV*%
%TO.N,+3.3V*%
X113150000Y-65807500D03*
%TO.P,U3,10,GND*%
%TO.N,GND*%
X113150000Y-63267500D03*
%TO.P,U3,11,LV3*%
%TO.N,LV_DBIN*%
X113150000Y-60727500D03*
%TO.P,U3,12,LV4*%
%TO.N,LV_GREADY*%
X113150000Y-58187500D03*
%TD*%
D12*
%TO.N,LV_D7*%
X165093700Y-91612100D03*
%TO.N,LV_D4*%
X162190300Y-79926100D03*
%TD*%
D13*
%TO.N,LV_D7*%
X137725000Y-88470000D02*
X137725000Y-88625000D01*
X126450000Y-77195000D02*
X137725000Y-88470000D01*
X137725000Y-88625000D02*
X162106600Y-88625000D01*
%TO.N,LV_D4*%
X126450000Y-74655000D02*
X137555000Y-74655000D01*
X137555000Y-74655000D02*
X148958200Y-86058200D01*
X162190300Y-79926100D02*
X156058200Y-86058200D01*
X148958200Y-86058200D02*
X156058200Y-86058200D01*
%TO.N,D0*%
X166316900Y-55612200D02*
X166950000Y-55612200D01*
X166950000Y-56787500D02*
X166950000Y-55612200D01*
X159380000Y-48675300D02*
X166316900Y-55612200D01*
X159380000Y-47500000D02*
X159380000Y-48675300D01*
%TO.N,D1*%
X166142000Y-58152200D02*
X166950000Y-58152200D01*
X166950000Y-59327500D02*
X166950000Y-58152200D01*
X156840000Y-47500000D02*
X156840000Y-48850200D01*
X156840000Y-48850200D02*
X166142000Y-58152200D01*
%TO.N,D2*%
X154300000Y-48675300D02*
X165774700Y-60150000D01*
X165774700Y-64898200D02*
X166648700Y-65772200D01*
X166648700Y-65772200D02*
X166950000Y-65772200D01*
X165774700Y-60150000D02*
X165774700Y-64898200D01*
X166950000Y-66947500D02*
X166950000Y-65772200D01*
X154300000Y-47500000D02*
X154300000Y-48675300D01*
%TO.N,D3*%
X166950000Y-69487500D02*
X166950000Y-68312200D01*
X165099200Y-66762700D02*
X166648700Y-68312200D01*
X165099200Y-62014500D02*
X165099200Y-66762700D01*
X151760000Y-47500000D02*
X151760000Y-48675300D01*
X151760000Y-48675300D02*
X165099200Y-62014500D01*
X166648700Y-68312200D02*
X166950000Y-68312200D01*
%TO.N,D4*%
X166750000Y-80087500D02*
X166750000Y-78912200D01*
X149220000Y-47500000D02*
X149220000Y-48675300D01*
X162796900Y-62252200D02*
X162796900Y-65941100D01*
X165774700Y-68918900D02*
X165774700Y-77936900D01*
X149220000Y-48675300D02*
X162796900Y-62252200D01*
X162796900Y-65941100D02*
X165774700Y-68918900D01*
X165774700Y-77936900D02*
X166750000Y-78912200D01*
%TO.N,D5*%
X146680000Y-48675300D02*
X147855300Y-48675300D01*
X165942000Y-81452200D02*
X166750000Y-81452200D01*
X164952500Y-68733600D02*
X164952500Y-80462700D01*
X166750000Y-82627500D02*
X166750000Y-81452200D01*
X147855300Y-48675300D02*
X161016200Y-61836200D01*
X146680000Y-47500000D02*
X146680000Y-48675300D01*
X161016200Y-61836200D02*
X161016200Y-64797300D01*
X161016200Y-64797300D02*
X164952500Y-68733600D01*
X164952500Y-80462700D02*
X165942000Y-81452200D01*
%TO.N,D6*%
X164448900Y-69503700D02*
X164448900Y-87138400D01*
X155843100Y-60897900D02*
X164448900Y-69503700D01*
X153701500Y-58236800D02*
X154889400Y-58236800D01*
X154889400Y-58236800D02*
X155843100Y-59190500D01*
X144140000Y-47500000D02*
X144140000Y-48675300D01*
X166382700Y-89072200D02*
X166750000Y-89072200D01*
X155843100Y-59190500D02*
X155843100Y-60897900D01*
X164448900Y-87138400D02*
X166382700Y-89072200D01*
X144140000Y-48675300D02*
X153701500Y-58236800D01*
X166750000Y-90247500D02*
X166750000Y-89072200D01*
%TO.N,D7*%
X153997600Y-63225000D02*
X154879500Y-63225000D01*
X154879500Y-63225000D02*
X162963700Y-71309200D01*
X166750000Y-92787500D02*
X166750000Y-91612200D01*
X141600000Y-47500000D02*
X141600000Y-50827400D01*
X162963700Y-71309200D02*
X162963700Y-88131700D01*
X162963700Y-88131700D02*
X166444200Y-91612200D01*
X141600000Y-50827400D02*
X153997600Y-63225000D01*
X166444200Y-91612200D02*
X166750000Y-91612200D01*
%TO.N,GRMCLK*%
X131440000Y-47500000D02*
X130264700Y-47500000D01*
X118257700Y-44616400D02*
X127748400Y-44616400D01*
X100600000Y-78324700D02*
X98784000Y-76508700D01*
X130264700Y-47132700D02*
X130264700Y-47500000D01*
X100600000Y-79500000D02*
X100600000Y-78324700D01*
X100876600Y-61997500D02*
X118257700Y-44616400D01*
X127748400Y-44616400D02*
X130264700Y-47132700D01*
X98784000Y-63265200D02*
X100051700Y-61997500D01*
X98784000Y-76508700D02*
X98784000Y-63265200D01*
X100051700Y-61997500D02*
X100876600Y-61997500D01*
%TO.N,~{GS}*%
X128900000Y-47500000D02*
X127724700Y-47500000D01*
X99274700Y-65318600D02*
X100055800Y-64537500D01*
X125693200Y-45101200D02*
X127724700Y-47132700D01*
X100926900Y-64537500D02*
X120363200Y-45101200D01*
X127724700Y-47132700D02*
X127724700Y-47500000D01*
X100450000Y-69712200D02*
X100082600Y-69712200D01*
X100450000Y-70887500D02*
X100450000Y-69712200D01*
X100055800Y-64537500D02*
X100926900Y-64537500D01*
X120363200Y-45101200D02*
X125693200Y-45101200D01*
X99274700Y-68904300D02*
X99274700Y-65318600D01*
X100082600Y-69712200D02*
X99274700Y-68904300D01*
D14*
%TO.N,+5V*%
X166950000Y-64407500D02*
X168506000Y-65963500D01*
X168506000Y-85951500D02*
X166750000Y-87707500D01*
X122040400Y-45938100D02*
X124798100Y-45938100D01*
X100600000Y-87120000D02*
X102171000Y-85549000D01*
X102171000Y-65807500D02*
X100450000Y-65807500D01*
X124798100Y-45938100D02*
X126360000Y-47500000D01*
X102171000Y-65807500D02*
X122040400Y-45938100D01*
X168506000Y-65963500D02*
X168506000Y-85951500D01*
X102171000Y-85549000D02*
X102171000Y-65807500D01*
%TO.N,GND*%
X181232400Y-83385100D02*
X181232400Y-63449900D01*
X179650000Y-61867500D02*
X168500300Y-61867500D01*
X123820000Y-52597500D02*
X113150000Y-63267500D01*
X179450000Y-85167500D02*
X181232400Y-83385100D01*
X181232400Y-63449900D02*
X179650000Y-61867500D01*
X123820000Y-47500000D02*
X123820000Y-52597500D01*
X166950000Y-61867500D02*
X168500300Y-61867500D01*
%TO.N,+3.3V*%
X111554800Y-85374800D02*
X113300000Y-87120000D01*
X177426500Y-66631000D02*
X177426500Y-87234300D01*
X155165200Y-92435000D02*
X155940300Y-92435000D01*
X170315100Y-94345700D02*
X157851000Y-94345700D01*
X154390000Y-92435000D02*
X155165200Y-92435000D01*
X111554800Y-67402700D02*
X111554800Y-85374800D01*
X153586400Y-94013800D02*
X121744100Y-94013800D01*
X179450000Y-87707500D02*
X177899700Y-87707500D01*
X179650000Y-64407500D02*
X177426500Y-66631000D01*
X177426500Y-87234300D02*
X170315100Y-94345700D01*
X155165200Y-92435000D02*
X153586400Y-94013800D01*
X157851000Y-94345700D02*
X155940300Y-92435000D01*
X113300000Y-87120000D02*
X114850300Y-87120000D01*
X177426500Y-87234300D02*
X177899700Y-87707500D01*
X121744100Y-94013800D02*
X114850300Y-87120000D01*
X113150000Y-65807500D02*
X111554800Y-67402700D01*
D13*
%TO.N,LV_D7*%
X162106600Y-88625000D02*
X165093700Y-91612100D01*
%TD*%
%TA.AperFunction,Conductor*%
%TO.N,GND*%
G36*
X190433621Y-41528502D02*
G01*
X190480114Y-41582158D01*
X190491500Y-41634500D01*
X190491500Y-100365500D01*
X190471498Y-100433621D01*
X190417842Y-100480114D01*
X190365500Y-100491500D01*
X91634500Y-100491500D01*
X91566379Y-100471498D01*
X91519886Y-100417842D01*
X91508500Y-100365500D01*
X91508500Y-79189577D01*
X91508502Y-79188938D01*
X91589298Y-63245143D01*
X98145780Y-63245143D01*
X98146526Y-63253035D01*
X98149941Y-63289161D01*
X98150500Y-63301019D01*
X98150500Y-76429933D01*
X98149973Y-76441116D01*
X98148298Y-76448609D01*
X98148547Y-76456535D01*
X98148547Y-76456536D01*
X98150438Y-76516686D01*
X98150500Y-76520645D01*
X98150500Y-76548556D01*
X98150997Y-76552490D01*
X98150997Y-76552491D01*
X98151005Y-76552556D01*
X98151938Y-76564393D01*
X98153327Y-76608589D01*
X98158978Y-76628039D01*
X98162987Y-76647400D01*
X98165526Y-76667497D01*
X98168445Y-76674868D01*
X98168445Y-76674870D01*
X98181804Y-76708612D01*
X98185649Y-76719842D01*
X98197982Y-76762293D01*
X98202015Y-76769112D01*
X98202017Y-76769117D01*
X98208293Y-76779728D01*
X98216988Y-76797476D01*
X98224448Y-76816317D01*
X98229110Y-76822733D01*
X98229110Y-76822734D01*
X98250436Y-76852087D01*
X98256952Y-76862007D01*
X98279458Y-76900062D01*
X98293779Y-76914383D01*
X98306619Y-76929416D01*
X98318528Y-76945807D01*
X98324634Y-76950858D01*
X98352605Y-76973998D01*
X98361384Y-76981988D01*
X99443679Y-78064284D01*
X99477705Y-78126596D01*
X99472640Y-78197412D01*
X99430149Y-78254205D01*
X99386739Y-78286739D01*
X99299385Y-78403295D01*
X99248255Y-78539684D01*
X99241500Y-78601866D01*
X99241500Y-80398134D01*
X99248255Y-80460316D01*
X99299385Y-80596705D01*
X99386739Y-80713261D01*
X99503295Y-80800615D01*
X99511704Y-80803767D01*
X99511705Y-80803768D01*
X99620451Y-80844535D01*
X99677216Y-80887176D01*
X99701916Y-80953738D01*
X99686709Y-81023087D01*
X99667316Y-81049568D01*
X99583665Y-81137104D01*
X99540629Y-81182138D01*
X99537715Y-81186410D01*
X99537714Y-81186411D01*
X99475202Y-81278051D01*
X99414743Y-81366680D01*
X99367932Y-81467527D01*
X99323058Y-81564200D01*
X99320688Y-81569305D01*
X99260989Y-81784570D01*
X99237251Y-82006695D01*
X99237548Y-82011848D01*
X99237548Y-82011851D01*
X99243011Y-82106590D01*
X99250110Y-82229715D01*
X99251247Y-82234761D01*
X99251248Y-82234767D01*
X99261074Y-82278365D01*
X99299222Y-82447639D01*
X99358732Y-82594195D01*
X99370894Y-82624146D01*
X99383266Y-82654616D01*
X99403371Y-82687425D01*
X99479740Y-82812047D01*
X99499987Y-82845088D01*
X99646250Y-83013938D01*
X99818126Y-83156632D01*
X99827547Y-83162137D01*
X99891955Y-83199774D01*
X99940679Y-83251412D01*
X99953750Y-83321195D01*
X99927019Y-83386967D01*
X99886562Y-83420327D01*
X99878457Y-83424546D01*
X99869738Y-83430036D01*
X99699433Y-83557905D01*
X99691726Y-83564748D01*
X99544590Y-83718717D01*
X99538104Y-83726727D01*
X99418098Y-83902649D01*
X99413000Y-83911623D01*
X99323338Y-84104783D01*
X99319775Y-84114470D01*
X99264389Y-84314183D01*
X99265912Y-84322607D01*
X99278292Y-84326000D01*
X100728000Y-84326000D01*
X100796121Y-84346002D01*
X100842614Y-84399658D01*
X100854000Y-84452000D01*
X100854000Y-84708000D01*
X100833998Y-84776121D01*
X100780342Y-84822614D01*
X100728000Y-84834000D01*
X99283225Y-84834000D01*
X99269694Y-84837973D01*
X99268257Y-84847966D01*
X99298565Y-84982446D01*
X99301645Y-84992275D01*
X99381770Y-85189603D01*
X99386413Y-85198794D01*
X99497694Y-85380388D01*
X99503777Y-85388699D01*
X99643213Y-85549667D01*
X99650580Y-85556883D01*
X99814434Y-85692916D01*
X99822881Y-85698831D01*
X99891969Y-85739203D01*
X99940693Y-85790842D01*
X99953764Y-85860625D01*
X99927033Y-85926396D01*
X99886584Y-85959752D01*
X99873607Y-85966507D01*
X99869474Y-85969610D01*
X99869471Y-85969612D01*
X99710645Y-86088862D01*
X99694965Y-86100635D01*
X99636347Y-86161975D01*
X99558255Y-86243694D01*
X99540629Y-86262138D01*
X99537715Y-86266410D01*
X99537714Y-86266411D01*
X99467231Y-86369735D01*
X99414743Y-86446680D01*
X99376842Y-86528331D01*
X99323058Y-86644200D01*
X99320688Y-86649305D01*
X99260989Y-86864570D01*
X99237251Y-87086695D01*
X99237548Y-87091848D01*
X99237548Y-87091851D01*
X99245992Y-87238289D01*
X99250110Y-87309715D01*
X99251247Y-87314761D01*
X99251248Y-87314767D01*
X99261074Y-87358365D01*
X99299222Y-87527639D01*
X99360673Y-87678976D01*
X99370894Y-87704146D01*
X99383266Y-87734616D01*
X99403371Y-87767425D01*
X99495547Y-87917842D01*
X99499987Y-87925088D01*
X99646250Y-88093938D01*
X99818126Y-88236632D01*
X99827547Y-88242137D01*
X99891445Y-88279476D01*
X99940169Y-88331114D01*
X99953240Y-88400897D01*
X99926509Y-88466669D01*
X99886055Y-88500027D01*
X99873607Y-88506507D01*
X99869474Y-88509610D01*
X99869471Y-88509612D01*
X99699100Y-88637530D01*
X99694965Y-88640635D01*
X99540629Y-88802138D01*
X99537715Y-88806410D01*
X99537714Y-88806411D01*
X99477136Y-88895215D01*
X99414743Y-88986680D01*
X99320688Y-89189305D01*
X99260989Y-89404570D01*
X99237251Y-89626695D01*
X99237548Y-89631848D01*
X99237548Y-89631851D01*
X99243011Y-89726590D01*
X99250110Y-89849715D01*
X99251247Y-89854761D01*
X99251248Y-89854767D01*
X99271119Y-89942939D01*
X99299222Y-90067639D01*
X99358732Y-90214195D01*
X99370894Y-90244146D01*
X99383266Y-90274616D01*
X99405403Y-90310740D01*
X99479740Y-90432047D01*
X99499987Y-90465088D01*
X99646250Y-90633938D01*
X99818126Y-90776632D01*
X99826991Y-90781812D01*
X99891445Y-90819476D01*
X99940169Y-90871114D01*
X99953240Y-90940897D01*
X99926509Y-91006669D01*
X99886055Y-91040027D01*
X99873607Y-91046507D01*
X99869474Y-91049610D01*
X99869471Y-91049612D01*
X99699100Y-91177530D01*
X99694965Y-91180635D01*
X99540629Y-91342138D01*
X99537715Y-91346410D01*
X99537714Y-91346411D01*
X99475202Y-91438051D01*
X99414743Y-91526680D01*
X99375093Y-91612100D01*
X99338688Y-91690528D01*
X99320688Y-91729305D01*
X99260989Y-91944570D01*
X99237251Y-92166695D01*
X99237548Y-92171848D01*
X99237548Y-92171851D01*
X99243011Y-92266590D01*
X99250110Y-92389715D01*
X99251247Y-92394761D01*
X99251248Y-92394767D01*
X99271119Y-92482939D01*
X99299222Y-92607639D01*
X99358732Y-92754195D01*
X99370894Y-92784146D01*
X99383266Y-92814616D01*
X99400458Y-92842671D01*
X99487860Y-92985298D01*
X99499987Y-93005088D01*
X99646250Y-93173938D01*
X99818126Y-93316632D01*
X100011000Y-93429338D01*
X100219692Y-93509030D01*
X100224760Y-93510061D01*
X100224763Y-93510062D01*
X100316638Y-93528754D01*
X100438597Y-93553567D01*
X100443772Y-93553757D01*
X100443774Y-93553757D01*
X100656673Y-93561564D01*
X100656677Y-93561564D01*
X100661837Y-93561753D01*
X100666957Y-93561097D01*
X100666959Y-93561097D01*
X100878288Y-93534025D01*
X100878289Y-93534025D01*
X100883416Y-93533368D01*
X100898795Y-93528754D01*
X101092429Y-93470661D01*
X101092434Y-93470659D01*
X101097384Y-93469174D01*
X101297994Y-93370896D01*
X101479860Y-93241173D01*
X101521253Y-93199925D01*
X101634435Y-93087137D01*
X101638096Y-93083489D01*
X101697594Y-93000689D01*
X101765435Y-92906277D01*
X101768453Y-92902077D01*
X101841541Y-92754195D01*
X101865136Y-92706453D01*
X101865137Y-92706451D01*
X101867430Y-92701811D01*
X101917441Y-92537207D01*
X101930865Y-92493023D01*
X101930865Y-92493021D01*
X101932370Y-92488069D01*
X101961529Y-92266590D01*
X101963156Y-92200000D01*
X101944852Y-91977361D01*
X101890431Y-91760702D01*
X101801354Y-91555840D01*
X101738456Y-91458614D01*
X101682822Y-91372617D01*
X101682820Y-91372614D01*
X101680014Y-91368277D01*
X101529670Y-91203051D01*
X101525619Y-91199852D01*
X101525615Y-91199848D01*
X101358414Y-91067800D01*
X101358410Y-91067798D01*
X101354359Y-91064598D01*
X101313053Y-91041796D01*
X101263084Y-90991364D01*
X101248312Y-90921921D01*
X101273428Y-90855516D01*
X101300780Y-90828909D01*
X101344603Y-90797650D01*
X101479860Y-90701173D01*
X101521253Y-90659925D01*
X101580364Y-90601020D01*
X101638096Y-90543489D01*
X101697594Y-90460689D01*
X101765435Y-90366277D01*
X101768453Y-90362077D01*
X101800396Y-90297446D01*
X101865136Y-90166453D01*
X101865137Y-90166451D01*
X101867430Y-90161811D01*
X101917441Y-89997207D01*
X101930865Y-89953023D01*
X101930865Y-89953021D01*
X101932370Y-89948069D01*
X101961529Y-89726590D01*
X101963156Y-89660000D01*
X101944852Y-89437361D01*
X101890431Y-89220702D01*
X101801354Y-89015840D01*
X101738456Y-88918614D01*
X101682822Y-88832617D01*
X101682820Y-88832614D01*
X101680014Y-88828277D01*
X101529670Y-88663051D01*
X101525619Y-88659852D01*
X101525615Y-88659848D01*
X101358414Y-88527800D01*
X101358410Y-88527798D01*
X101354359Y-88524598D01*
X101313053Y-88501796D01*
X101263084Y-88451364D01*
X101248312Y-88381921D01*
X101273428Y-88315516D01*
X101300780Y-88288909D01*
X101366352Y-88242137D01*
X101479860Y-88161173D01*
X101492576Y-88148502D01*
X101634435Y-88007137D01*
X101638096Y-88003489D01*
X101647826Y-87989949D01*
X101765435Y-87826277D01*
X101768453Y-87822077D01*
X101770911Y-87817105D01*
X101865136Y-87626453D01*
X101865137Y-87626451D01*
X101867430Y-87621811D01*
X101918891Y-87452434D01*
X101930865Y-87413023D01*
X101930865Y-87413021D01*
X101932370Y-87408069D01*
X101956232Y-87226824D01*
X101984955Y-87161897D01*
X101992059Y-87154176D01*
X102840384Y-86305851D01*
X102850527Y-86296749D01*
X102875218Y-86276897D01*
X102880025Y-86273032D01*
X102912315Y-86234550D01*
X102915467Y-86230938D01*
X102917123Y-86229112D01*
X102919310Y-86226925D01*
X102921272Y-86224537D01*
X102946576Y-86193732D01*
X102947418Y-86192717D01*
X103007154Y-86121526D01*
X103009723Y-86116853D01*
X103013103Y-86112738D01*
X103016070Y-86107206D01*
X103057028Y-86030820D01*
X103057657Y-86029662D01*
X103099465Y-85953612D01*
X103099465Y-85953611D01*
X103102433Y-85948213D01*
X103104044Y-85943135D01*
X103106563Y-85938437D01*
X103133753Y-85849502D01*
X103134136Y-85848272D01*
X103135420Y-85844226D01*
X103162235Y-85759694D01*
X103162828Y-85754403D01*
X103164388Y-85749302D01*
X103173795Y-85656689D01*
X103173915Y-85655569D01*
X103179500Y-85605773D01*
X103179500Y-85602244D01*
X103179555Y-85601261D01*
X103180004Y-85595556D01*
X103183752Y-85558664D01*
X103183752Y-85558661D01*
X103184374Y-85552537D01*
X103180059Y-85506888D01*
X103179500Y-85495031D01*
X103179500Y-66277425D01*
X103199502Y-66209304D01*
X103216405Y-66188330D01*
X107409235Y-61995500D01*
X111602414Y-57802320D01*
X111664725Y-57768295D01*
X111735540Y-57773360D01*
X111792376Y-57815907D01*
X111817187Y-57882427D01*
X111813236Y-57921993D01*
X111813339Y-57922013D01*
X111813118Y-57923171D01*
X111812927Y-57925081D01*
X111810989Y-57932070D01*
X111787251Y-58154195D01*
X111787548Y-58159348D01*
X111787548Y-58159351D01*
X111795948Y-58305030D01*
X111800110Y-58377215D01*
X111801247Y-58382261D01*
X111801248Y-58382267D01*
X111820939Y-58469638D01*
X111849222Y-58595139D01*
X111933266Y-58802116D01*
X111978828Y-58876466D01*
X112036730Y-58970954D01*
X112049987Y-58992588D01*
X112196250Y-59161438D01*
X112368126Y-59304132D01*
X112402376Y-59324146D01*
X112441445Y-59346976D01*
X112490169Y-59398614D01*
X112503240Y-59468397D01*
X112476509Y-59534169D01*
X112436055Y-59567527D01*
X112423607Y-59574007D01*
X112419474Y-59577110D01*
X112419471Y-59577112D01*
X112251712Y-59703069D01*
X112244965Y-59708135D01*
X112241393Y-59711873D01*
X112133901Y-59824357D01*
X112090629Y-59869638D01*
X111964743Y-60054180D01*
X111937701Y-60112438D01*
X111890262Y-60214637D01*
X111870688Y-60256805D01*
X111810989Y-60472070D01*
X111787251Y-60694195D01*
X111787548Y-60699348D01*
X111787548Y-60699351D01*
X111796364Y-60852248D01*
X111800110Y-60917215D01*
X111801247Y-60922261D01*
X111801248Y-60922267D01*
X111820168Y-61006217D01*
X111849222Y-61135139D01*
X111933266Y-61342116D01*
X111983214Y-61423624D01*
X112036730Y-61510954D01*
X112049987Y-61532588D01*
X112196250Y-61701438D01*
X112368126Y-61844132D01*
X112387113Y-61855227D01*
X112441955Y-61887274D01*
X112490679Y-61938912D01*
X112503750Y-62008695D01*
X112477019Y-62074467D01*
X112436562Y-62107827D01*
X112428457Y-62112046D01*
X112419738Y-62117536D01*
X112249433Y-62245405D01*
X112241726Y-62252248D01*
X112094590Y-62406217D01*
X112088104Y-62414227D01*
X111968098Y-62590149D01*
X111963000Y-62599123D01*
X111873338Y-62792283D01*
X111869775Y-62801970D01*
X111814389Y-63001683D01*
X111815912Y-63010107D01*
X111828292Y-63013500D01*
X114468344Y-63013500D01*
X114481875Y-63009527D01*
X114483180Y-63000447D01*
X114441214Y-62833375D01*
X114437894Y-62823624D01*
X114352972Y-62628314D01*
X114348105Y-62619239D01*
X114232426Y-62440426D01*
X114226136Y-62432257D01*
X114082806Y-62274740D01*
X114075273Y-62267715D01*
X113908139Y-62135722D01*
X113899556Y-62130020D01*
X113862602Y-62109620D01*
X113812631Y-62059187D01*
X113797859Y-61989745D01*
X113822975Y-61923339D01*
X113850327Y-61896732D01*
X113873797Y-61879991D01*
X114029860Y-61768673D01*
X114037973Y-61760589D01*
X114184435Y-61614637D01*
X114188096Y-61610989D01*
X114247594Y-61528189D01*
X114315435Y-61433777D01*
X114318453Y-61429577D01*
X114386438Y-61292020D01*
X114415136Y-61233953D01*
X114415137Y-61233951D01*
X114417430Y-61229311D01*
X114482370Y-61015569D01*
X114511529Y-60794090D01*
X114513156Y-60727500D01*
X114494852Y-60504861D01*
X114440431Y-60288202D01*
X114351354Y-60083340D01*
X114230014Y-59895777D01*
X114079670Y-59730551D01*
X114075619Y-59727352D01*
X114075615Y-59727348D01*
X113908414Y-59595300D01*
X113908410Y-59595298D01*
X113904359Y-59592098D01*
X113863053Y-59569296D01*
X113813084Y-59518864D01*
X113798312Y-59449421D01*
X113823428Y-59383016D01*
X113850780Y-59356409D01*
X113896011Y-59324146D01*
X114029860Y-59228673D01*
X114078142Y-59180560D01*
X114159142Y-59099842D01*
X114188096Y-59070989D01*
X114247594Y-58988189D01*
X114315435Y-58893777D01*
X114318453Y-58889577D01*
X114321762Y-58882883D01*
X114415136Y-58693953D01*
X114415137Y-58693951D01*
X114417430Y-58689311D01*
X114482370Y-58475569D01*
X114511529Y-58254090D01*
X114512394Y-58218706D01*
X114513074Y-58190865D01*
X114513074Y-58190861D01*
X114513156Y-58187500D01*
X114494852Y-57964861D01*
X114440431Y-57748202D01*
X114351354Y-57543340D01*
X114230014Y-57355777D01*
X114079670Y-57190551D01*
X114075619Y-57187352D01*
X114075615Y-57187348D01*
X113908414Y-57055300D01*
X113908410Y-57055298D01*
X113904359Y-57052098D01*
X113708789Y-56944138D01*
X113703920Y-56942414D01*
X113703916Y-56942412D01*
X113503087Y-56871295D01*
X113503083Y-56871294D01*
X113498212Y-56869569D01*
X113493119Y-56868662D01*
X113493116Y-56868661D01*
X113283373Y-56831300D01*
X113283367Y-56831299D01*
X113278284Y-56830394D01*
X113204452Y-56829492D01*
X113060081Y-56827728D01*
X113060079Y-56827728D01*
X113054911Y-56827665D01*
X112870676Y-56855857D01*
X112800315Y-56846389D01*
X112746241Y-56800384D01*
X112725623Y-56732447D01*
X112745008Y-56664148D01*
X112762523Y-56642212D01*
X121636768Y-47767966D01*
X122488257Y-47767966D01*
X122518565Y-47902446D01*
X122521645Y-47912275D01*
X122601770Y-48109603D01*
X122606413Y-48118794D01*
X122717694Y-48300388D01*
X122723777Y-48308699D01*
X122863213Y-48469667D01*
X122870580Y-48476883D01*
X123034434Y-48612916D01*
X123042881Y-48618831D01*
X123226756Y-48726279D01*
X123236042Y-48730729D01*
X123435001Y-48806703D01*
X123444899Y-48809579D01*
X123548250Y-48830606D01*
X123562299Y-48829410D01*
X123566000Y-48819065D01*
X123566000Y-47772115D01*
X123561525Y-47756876D01*
X123560135Y-47755671D01*
X123552452Y-47754000D01*
X122503225Y-47754000D01*
X122489694Y-47757973D01*
X122488257Y-47767966D01*
X121636768Y-47767966D01*
X122268171Y-47136563D01*
X122330483Y-47102537D01*
X122401298Y-47107602D01*
X122458134Y-47150149D01*
X122482945Y-47216669D01*
X122482523Y-47223869D01*
X122485912Y-47242607D01*
X122498292Y-47246000D01*
X123948000Y-47246000D01*
X124016121Y-47266002D01*
X124062614Y-47319658D01*
X124074000Y-47372000D01*
X124074000Y-48818517D01*
X124078064Y-48832359D01*
X124091478Y-48834393D01*
X124098184Y-48833534D01*
X124108262Y-48831392D01*
X124312255Y-48770191D01*
X124321842Y-48766433D01*
X124513095Y-48672739D01*
X124521945Y-48667464D01*
X124695328Y-48543792D01*
X124703200Y-48537139D01*
X124854052Y-48386812D01*
X124860730Y-48378965D01*
X124988022Y-48201819D01*
X124989279Y-48202722D01*
X125036373Y-48159362D01*
X125106311Y-48147145D01*
X125171751Y-48174678D01*
X125199579Y-48206511D01*
X125259987Y-48305088D01*
X125406250Y-48473938D01*
X125578126Y-48616632D01*
X125771000Y-48729338D01*
X125775825Y-48731180D01*
X125775826Y-48731181D01*
X125814096Y-48745795D01*
X125979692Y-48809030D01*
X125984760Y-48810061D01*
X125984763Y-48810062D01*
X126079862Y-48829410D01*
X126198597Y-48853567D01*
X126203772Y-48853757D01*
X126203774Y-48853757D01*
X126416673Y-48861564D01*
X126416677Y-48861564D01*
X126421837Y-48861753D01*
X126426957Y-48861097D01*
X126426959Y-48861097D01*
X126638288Y-48834025D01*
X126638289Y-48834025D01*
X126643416Y-48833368D01*
X126648366Y-48831883D01*
X126852429Y-48770661D01*
X126852434Y-48770659D01*
X126857384Y-48769174D01*
X127057994Y-48670896D01*
X127239860Y-48541173D01*
X127398096Y-48383489D01*
X127528453Y-48202077D01*
X127529776Y-48203028D01*
X127576645Y-48159857D01*
X127646580Y-48147625D01*
X127712026Y-48175144D01*
X127739875Y-48206994D01*
X127799987Y-48305088D01*
X127946250Y-48473938D01*
X128118126Y-48616632D01*
X128311000Y-48729338D01*
X128315825Y-48731180D01*
X128315826Y-48731181D01*
X128354096Y-48745795D01*
X128519692Y-48809030D01*
X128524760Y-48810061D01*
X128524763Y-48810062D01*
X128619862Y-48829410D01*
X128738597Y-48853567D01*
X128743772Y-48853757D01*
X128743774Y-48853757D01*
X128956673Y-48861564D01*
X128956677Y-48861564D01*
X128961837Y-48861753D01*
X128966957Y-48861097D01*
X128966959Y-48861097D01*
X129178288Y-48834025D01*
X129178289Y-48834025D01*
X129183416Y-48833368D01*
X129188366Y-48831883D01*
X129392429Y-48770661D01*
X129392434Y-48770659D01*
X129397384Y-48769174D01*
X129597994Y-48670896D01*
X129779860Y-48541173D01*
X129938096Y-48383489D01*
X130068453Y-48202077D01*
X130069776Y-48203028D01*
X130116645Y-48159857D01*
X130186580Y-48147625D01*
X130252026Y-48175144D01*
X130279875Y-48206994D01*
X130339987Y-48305088D01*
X130486250Y-48473938D01*
X130658126Y-48616632D01*
X130851000Y-48729338D01*
X130855825Y-48731180D01*
X130855826Y-48731181D01*
X130894096Y-48745795D01*
X131059692Y-48809030D01*
X131064760Y-48810061D01*
X131064763Y-48810062D01*
X131159862Y-48829410D01*
X131278597Y-48853567D01*
X131283772Y-48853757D01*
X131283774Y-48853757D01*
X131496673Y-48861564D01*
X131496677Y-48861564D01*
X131501837Y-48861753D01*
X131506957Y-48861097D01*
X131506959Y-48861097D01*
X131718288Y-48834025D01*
X131718289Y-48834025D01*
X131723416Y-48833368D01*
X131728366Y-48831883D01*
X131932429Y-48770661D01*
X131932434Y-48770659D01*
X131937384Y-48769174D01*
X132137994Y-48670896D01*
X132319860Y-48541173D01*
X132478096Y-48383489D01*
X132608453Y-48202077D01*
X132609776Y-48203028D01*
X132656645Y-48159857D01*
X132726580Y-48147625D01*
X132792026Y-48175144D01*
X132819875Y-48206994D01*
X132879987Y-48305088D01*
X133026250Y-48473938D01*
X133198126Y-48616632D01*
X133391000Y-48729338D01*
X133395825Y-48731180D01*
X133395826Y-48731181D01*
X133434096Y-48745795D01*
X133599692Y-48809030D01*
X133604760Y-48810061D01*
X133604763Y-48810062D01*
X133699862Y-48829410D01*
X133818597Y-48853567D01*
X133823772Y-48853757D01*
X133823774Y-48853757D01*
X134036673Y-48861564D01*
X134036677Y-48861564D01*
X134041837Y-48861753D01*
X134046957Y-48861097D01*
X134046959Y-48861097D01*
X134258288Y-48834025D01*
X134258289Y-48834025D01*
X134263416Y-48833368D01*
X134268366Y-48831883D01*
X134472429Y-48770661D01*
X134472434Y-48770659D01*
X134477384Y-48769174D01*
X134677994Y-48670896D01*
X134859860Y-48541173D01*
X135018096Y-48383489D01*
X135148453Y-48202077D01*
X135149776Y-48203028D01*
X135196645Y-48159857D01*
X135266580Y-48147625D01*
X135332026Y-48175144D01*
X135359875Y-48206994D01*
X135419987Y-48305088D01*
X135566250Y-48473938D01*
X135738126Y-48616632D01*
X135931000Y-48729338D01*
X135935825Y-48731180D01*
X135935826Y-48731181D01*
X135974096Y-48745795D01*
X136139692Y-48809030D01*
X136144760Y-48810061D01*
X136144763Y-48810062D01*
X136239862Y-48829410D01*
X136358597Y-48853567D01*
X136363772Y-48853757D01*
X136363774Y-48853757D01*
X136576673Y-48861564D01*
X136576677Y-48861564D01*
X136581837Y-48861753D01*
X136586957Y-48861097D01*
X136586959Y-48861097D01*
X136798288Y-48834025D01*
X136798289Y-48834025D01*
X136803416Y-48833368D01*
X136808366Y-48831883D01*
X137012429Y-48770661D01*
X137012434Y-48770659D01*
X137017384Y-48769174D01*
X137217994Y-48670896D01*
X137399860Y-48541173D01*
X137558096Y-48383489D01*
X137688453Y-48202077D01*
X137689776Y-48203028D01*
X137736645Y-48159857D01*
X137806580Y-48147625D01*
X137872026Y-48175144D01*
X137899875Y-48206994D01*
X137959987Y-48305088D01*
X138106250Y-48473938D01*
X138278126Y-48616632D01*
X138471000Y-48729338D01*
X138475825Y-48731180D01*
X138475826Y-48731181D01*
X138514096Y-48745795D01*
X138679692Y-48809030D01*
X138684760Y-48810061D01*
X138684763Y-48810062D01*
X138779862Y-48829410D01*
X138898597Y-48853567D01*
X138903772Y-48853757D01*
X138903774Y-48853757D01*
X139116673Y-48861564D01*
X139116677Y-48861564D01*
X139121837Y-48861753D01*
X139126957Y-48861097D01*
X139126959Y-48861097D01*
X139338288Y-48834025D01*
X139338289Y-48834025D01*
X139343416Y-48833368D01*
X139348366Y-48831883D01*
X139552429Y-48770661D01*
X139552434Y-48770659D01*
X139557384Y-48769174D01*
X139757994Y-48670896D01*
X139939860Y-48541173D01*
X140098096Y-48383489D01*
X140228453Y-48202077D01*
X140229776Y-48203028D01*
X140276645Y-48159857D01*
X140346580Y-48147625D01*
X140412026Y-48175144D01*
X140439875Y-48206994D01*
X140499987Y-48305088D01*
X140646250Y-48473938D01*
X140818126Y-48616632D01*
X140904070Y-48666853D01*
X140952794Y-48718491D01*
X140966500Y-48775641D01*
X140966500Y-50748633D01*
X140965973Y-50759816D01*
X140964298Y-50767309D01*
X140964547Y-50775235D01*
X140964547Y-50775236D01*
X140966438Y-50835386D01*
X140966500Y-50839345D01*
X140966500Y-50867256D01*
X140966997Y-50871190D01*
X140966997Y-50871191D01*
X140967005Y-50871256D01*
X140967938Y-50883093D01*
X140969327Y-50927289D01*
X140974978Y-50946739D01*
X140978987Y-50966100D01*
X140981526Y-50986197D01*
X140984445Y-50993568D01*
X140984445Y-50993570D01*
X140997804Y-51027312D01*
X141001649Y-51038542D01*
X141013982Y-51080993D01*
X141018015Y-51087812D01*
X141018017Y-51087817D01*
X141024293Y-51098428D01*
X141032988Y-51116176D01*
X141040448Y-51135017D01*
X141045110Y-51141433D01*
X141045110Y-51141434D01*
X141066436Y-51170787D01*
X141072952Y-51180707D01*
X141095458Y-51218762D01*
X141109779Y-51233083D01*
X141122619Y-51248116D01*
X141134528Y-51264507D01*
X141140634Y-51269558D01*
X141168605Y-51292698D01*
X141177384Y-51300688D01*
X153333056Y-63456361D01*
X153367082Y-63518673D01*
X153362017Y-63589488D01*
X153337163Y-63629141D01*
X153337457Y-63629379D01*
X153335498Y-63631798D01*
X153335052Y-63632509D01*
X153330629Y-63637138D01*
X153204743Y-63821680D01*
X153165951Y-63905251D01*
X153134262Y-63973520D01*
X153110688Y-64024305D01*
X153050989Y-64239570D01*
X153027251Y-64461695D01*
X153027548Y-64466848D01*
X153027548Y-64466851D01*
X153039567Y-64675300D01*
X153040110Y-64684715D01*
X153041247Y-64689761D01*
X153041248Y-64689767D01*
X153053562Y-64744405D01*
X153089222Y-64902639D01*
X153173266Y-65109616D01*
X153175965Y-65114020D01*
X153286647Y-65294637D01*
X153289987Y-65300088D01*
X153436250Y-65468938D01*
X153608126Y-65611632D01*
X153678595Y-65652811D01*
X153681445Y-65654476D01*
X153730169Y-65706114D01*
X153743240Y-65775897D01*
X153716509Y-65841669D01*
X153676055Y-65875027D01*
X153663607Y-65881507D01*
X153659474Y-65884610D01*
X153659471Y-65884612D01*
X153490159Y-66011735D01*
X153484965Y-66015635D01*
X153481393Y-66019373D01*
X153356329Y-66150245D01*
X153330629Y-66177138D01*
X153327715Y-66181410D01*
X153327714Y-66181411D01*
X153285806Y-66242846D01*
X153204743Y-66361680D01*
X153110688Y-66564305D01*
X153050989Y-66779570D01*
X153027251Y-67001695D01*
X153027548Y-67006848D01*
X153027548Y-67006851D01*
X153039567Y-67215300D01*
X153040110Y-67224715D01*
X153041247Y-67229761D01*
X153041248Y-67229767D01*
X153055924Y-67294887D01*
X153089222Y-67442639D01*
X153173266Y-67649616D01*
X153175965Y-67654020D01*
X153286647Y-67834637D01*
X153289987Y-67840088D01*
X153436250Y-68008938D01*
X153608126Y-68151632D01*
X153651261Y-68176838D01*
X153681445Y-68194476D01*
X153730169Y-68246114D01*
X153743240Y-68315897D01*
X153716509Y-68381669D01*
X153676055Y-68415027D01*
X153663607Y-68421507D01*
X153659474Y-68424610D01*
X153659471Y-68424612D01*
X153566562Y-68494370D01*
X153484965Y-68555635D01*
X153330629Y-68717138D01*
X153204743Y-68901680D01*
X153110688Y-69104305D01*
X153050989Y-69319570D01*
X153027251Y-69541695D01*
X153027548Y-69546848D01*
X153027548Y-69546851D01*
X153039567Y-69755300D01*
X153040110Y-69764715D01*
X153041247Y-69769761D01*
X153041248Y-69769767D01*
X153046149Y-69791512D01*
X153089222Y-69982639D01*
X153173266Y-70189616D01*
X153175965Y-70194020D01*
X153286647Y-70374637D01*
X153289987Y-70380088D01*
X153436250Y-70548938D01*
X153608126Y-70691632D01*
X153646800Y-70714231D01*
X153681445Y-70734476D01*
X153730169Y-70786114D01*
X153743240Y-70855897D01*
X153716509Y-70921669D01*
X153676055Y-70955027D01*
X153663607Y-70961507D01*
X153659474Y-70964610D01*
X153659471Y-70964612D01*
X153489100Y-71092530D01*
X153484965Y-71095635D01*
X153481393Y-71099373D01*
X153376335Y-71209310D01*
X153330629Y-71257138D01*
X153327715Y-71261410D01*
X153327714Y-71261411D01*
X153254123Y-71369291D01*
X153204743Y-71441680D01*
X153189003Y-71475590D01*
X153144435Y-71571604D01*
X153110688Y-71644305D01*
X153050989Y-71859570D01*
X153027251Y-72081695D01*
X153027548Y-72086848D01*
X153027548Y-72086851D01*
X153036440Y-72241067D01*
X153040110Y-72304715D01*
X153041247Y-72309761D01*
X153041248Y-72309767D01*
X153061119Y-72397939D01*
X153089222Y-72522639D01*
X153173266Y-72729616D01*
X153289987Y-72920088D01*
X153436250Y-73088938D01*
X153608126Y-73231632D01*
X153678595Y-73272811D01*
X153681445Y-73274476D01*
X153730169Y-73326114D01*
X153743240Y-73395897D01*
X153716509Y-73461669D01*
X153676055Y-73495027D01*
X153663607Y-73501507D01*
X153659474Y-73504610D01*
X153659471Y-73504612D01*
X153635247Y-73522800D01*
X153484965Y-73635635D01*
X153330629Y-73797138D01*
X153204743Y-73981680D01*
X153166011Y-74065121D01*
X153129471Y-74143841D01*
X153110688Y-74184305D01*
X153050989Y-74399570D01*
X153027251Y-74621695D01*
X153027548Y-74626848D01*
X153027548Y-74626851D01*
X153033011Y-74721590D01*
X153040110Y-74844715D01*
X153041247Y-74849761D01*
X153041248Y-74849767D01*
X153061119Y-74937939D01*
X153089222Y-75062639D01*
X153173266Y-75269616D01*
X153289987Y-75460088D01*
X153436250Y-75628938D01*
X153608126Y-75771632D01*
X153678595Y-75812811D01*
X153681445Y-75814476D01*
X153730169Y-75866114D01*
X153743240Y-75935897D01*
X153716509Y-76001669D01*
X153676055Y-76035027D01*
X153663607Y-76041507D01*
X153659474Y-76044610D01*
X153659471Y-76044612D01*
X153635247Y-76062800D01*
X153484965Y-76175635D01*
X153330629Y-76337138D01*
X153204743Y-76521680D01*
X153184914Y-76564399D01*
X153115411Y-76714131D01*
X153110688Y-76724305D01*
X153050989Y-76939570D01*
X153027251Y-77161695D01*
X153027548Y-77166848D01*
X153027548Y-77166851D01*
X153033011Y-77261590D01*
X153040110Y-77384715D01*
X153041247Y-77389761D01*
X153041248Y-77389767D01*
X153061119Y-77477939D01*
X153089222Y-77602639D01*
X153173266Y-77809616D01*
X153289987Y-78000088D01*
X153436250Y-78168938D01*
X153608126Y-78311632D01*
X153667808Y-78346507D01*
X153681445Y-78354476D01*
X153730169Y-78406114D01*
X153743240Y-78475897D01*
X153716509Y-78541669D01*
X153676055Y-78575027D01*
X153663607Y-78581507D01*
X153659474Y-78584610D01*
X153659471Y-78584612D01*
X153496769Y-78706772D01*
X153484965Y-78715635D01*
X153434292Y-78768661D01*
X153362165Y-78844138D01*
X153330629Y-78877138D01*
X153327715Y-78881410D01*
X153327714Y-78881411D01*
X153274734Y-78959077D01*
X153204743Y-79061680D01*
X153168916Y-79138863D01*
X153114647Y-79255777D01*
X153110688Y-79264305D01*
X153050989Y-79479570D01*
X153027251Y-79701695D01*
X153027548Y-79706848D01*
X153027548Y-79706851D01*
X153036659Y-79864861D01*
X153040110Y-79924715D01*
X153041247Y-79929761D01*
X153041248Y-79929767D01*
X153058531Y-80006453D01*
X153089222Y-80142639D01*
X153173266Y-80349616D01*
X153289987Y-80540088D01*
X153436250Y-80708938D01*
X153608126Y-80851632D01*
X153667808Y-80886507D01*
X153681445Y-80894476D01*
X153730169Y-80946114D01*
X153743240Y-81015897D01*
X153716509Y-81081669D01*
X153676055Y-81115027D01*
X153663607Y-81121507D01*
X153659474Y-81124610D01*
X153659471Y-81124612D01*
X153489100Y-81252530D01*
X153484965Y-81255635D01*
X153481393Y-81259373D01*
X153362165Y-81384138D01*
X153330629Y-81417138D01*
X153327715Y-81421410D01*
X153327714Y-81421411D01*
X153274734Y-81499077D01*
X153204743Y-81601680D01*
X153160279Y-81697470D01*
X153114647Y-81795777D01*
X153110688Y-81804305D01*
X153050989Y-82019570D01*
X153027251Y-82241695D01*
X153027548Y-82246848D01*
X153027548Y-82246851D01*
X153036659Y-82404861D01*
X153040110Y-82464715D01*
X153041247Y-82469761D01*
X153041248Y-82469767D01*
X153058531Y-82546453D01*
X153089222Y-82682639D01*
X153173266Y-82889616D01*
X153289987Y-83080088D01*
X153436250Y-83248938D01*
X153608126Y-83391632D01*
X153625446Y-83401753D01*
X153681445Y-83434476D01*
X153730169Y-83486114D01*
X153743240Y-83555897D01*
X153716509Y-83621669D01*
X153676055Y-83655027D01*
X153663607Y-83661507D01*
X153659474Y-83664610D01*
X153659471Y-83664612D01*
X153489100Y-83792530D01*
X153484965Y-83795635D01*
X153426478Y-83856838D01*
X153346229Y-83940814D01*
X153330629Y-83957138D01*
X153204743Y-84141680D01*
X153189397Y-84174740D01*
X153113900Y-84337386D01*
X153110688Y-84344305D01*
X153050989Y-84559570D01*
X153027251Y-84781695D01*
X153027548Y-84786848D01*
X153027548Y-84786851D01*
X153034655Y-84910107D01*
X153040110Y-85004715D01*
X153041247Y-85009761D01*
X153041248Y-85009767D01*
X153047949Y-85039500D01*
X153089222Y-85222639D01*
X153091165Y-85227425D01*
X153091167Y-85227430D01*
X153100858Y-85251297D01*
X153107954Y-85321938D01*
X153075731Y-85385201D01*
X153014421Y-85421001D01*
X152984115Y-85424700D01*
X149272794Y-85424700D01*
X149204673Y-85404698D01*
X149183699Y-85387795D01*
X138058652Y-74262747D01*
X138051112Y-74254461D01*
X138047000Y-74247982D01*
X137997348Y-74201356D01*
X137994507Y-74198602D01*
X137974770Y-74178865D01*
X137971573Y-74176385D01*
X137962551Y-74168680D01*
X137936100Y-74143841D01*
X137930321Y-74138414D01*
X137923375Y-74134595D01*
X137923372Y-74134593D01*
X137912566Y-74128652D01*
X137896047Y-74117801D01*
X137895583Y-74117441D01*
X137880041Y-74105386D01*
X137872772Y-74102241D01*
X137872768Y-74102238D01*
X137839463Y-74087826D01*
X137828813Y-74082609D01*
X137790060Y-74061305D01*
X137770437Y-74056267D01*
X137751734Y-74049863D01*
X137740420Y-74044967D01*
X137740419Y-74044967D01*
X137733145Y-74041819D01*
X137725322Y-74040580D01*
X137725312Y-74040577D01*
X137689476Y-74034901D01*
X137677856Y-74032495D01*
X137642711Y-74023472D01*
X137642710Y-74023472D01*
X137635030Y-74021500D01*
X137614776Y-74021500D01*
X137595065Y-74019949D01*
X137582886Y-74018020D01*
X137575057Y-74016780D01*
X137567165Y-74017526D01*
X137531039Y-74020941D01*
X137519181Y-74021500D01*
X127726805Y-74021500D01*
X127658684Y-74001498D01*
X127621013Y-73963940D01*
X127532822Y-73827617D01*
X127532820Y-73827614D01*
X127530014Y-73823277D01*
X127379670Y-73658051D01*
X127375619Y-73654852D01*
X127375615Y-73654848D01*
X127208414Y-73522800D01*
X127208410Y-73522798D01*
X127204359Y-73519598D01*
X127163053Y-73496796D01*
X127113084Y-73446364D01*
X127098312Y-73376921D01*
X127123428Y-73310516D01*
X127150780Y-73283909D01*
X127194603Y-73252650D01*
X127329860Y-73156173D01*
X127488096Y-72998489D01*
X127547594Y-72915689D01*
X127615435Y-72821277D01*
X127618453Y-72817077D01*
X127717430Y-72616811D01*
X127782370Y-72403069D01*
X127811529Y-72181590D01*
X127811666Y-72175988D01*
X127813074Y-72118365D01*
X127813074Y-72118361D01*
X127813156Y-72115000D01*
X127794852Y-71892361D01*
X127740431Y-71675702D01*
X127651354Y-71470840D01*
X127585659Y-71369291D01*
X127532822Y-71287617D01*
X127532820Y-71287614D01*
X127530014Y-71283277D01*
X127379670Y-71118051D01*
X127375619Y-71114852D01*
X127375615Y-71114848D01*
X127208414Y-70982800D01*
X127208410Y-70982798D01*
X127204359Y-70979598D01*
X127163053Y-70956796D01*
X127113084Y-70906364D01*
X127098312Y-70836921D01*
X127123428Y-70770516D01*
X127150780Y-70743909D01*
X127194603Y-70712650D01*
X127329860Y-70616173D01*
X127488096Y-70458489D01*
X127547594Y-70375689D01*
X127615435Y-70281277D01*
X127618453Y-70277077D01*
X127717430Y-70076811D01*
X127774020Y-69890551D01*
X127780865Y-69868023D01*
X127780865Y-69868021D01*
X127782370Y-69863069D01*
X127811529Y-69641590D01*
X127813156Y-69575000D01*
X127794852Y-69352361D01*
X127740431Y-69135702D01*
X127651354Y-68930840D01*
X127530014Y-68743277D01*
X127379670Y-68578051D01*
X127375619Y-68574852D01*
X127375615Y-68574848D01*
X127208414Y-68442800D01*
X127208410Y-68442798D01*
X127204359Y-68439598D01*
X127163053Y-68416796D01*
X127113084Y-68366364D01*
X127098312Y-68296921D01*
X127123428Y-68230516D01*
X127150780Y-68203909D01*
X127214281Y-68158614D01*
X127329860Y-68076173D01*
X127488096Y-67918489D01*
X127547594Y-67835689D01*
X127615435Y-67741277D01*
X127618453Y-67737077D01*
X127717430Y-67536811D01*
X127774054Y-67350439D01*
X127780865Y-67328023D01*
X127780865Y-67328021D01*
X127782370Y-67323069D01*
X127811529Y-67101590D01*
X127813156Y-67035000D01*
X127794852Y-66812361D01*
X127740431Y-66595702D01*
X127651354Y-66390840D01*
X127558595Y-66247456D01*
X127532822Y-66207617D01*
X127532820Y-66207614D01*
X127530014Y-66203277D01*
X127379670Y-66038051D01*
X127375619Y-66034852D01*
X127375615Y-66034848D01*
X127208414Y-65902800D01*
X127208410Y-65902798D01*
X127204359Y-65899598D01*
X127163053Y-65876796D01*
X127113084Y-65826364D01*
X127098312Y-65756921D01*
X127123428Y-65690516D01*
X127150780Y-65663909D01*
X127203218Y-65626505D01*
X127329860Y-65536173D01*
X127488096Y-65378489D01*
X127522498Y-65330614D01*
X127615435Y-65201277D01*
X127618453Y-65197077D01*
X127649539Y-65134180D01*
X127715136Y-65001453D01*
X127715137Y-65001451D01*
X127717430Y-64996811D01*
X127774020Y-64810551D01*
X127780865Y-64788023D01*
X127780865Y-64788021D01*
X127782370Y-64783069D01*
X127811529Y-64561590D01*
X127813156Y-64495000D01*
X127794852Y-64272361D01*
X127740431Y-64055702D01*
X127651354Y-63850840D01*
X127540687Y-63679775D01*
X127532822Y-63667617D01*
X127532820Y-63667614D01*
X127530014Y-63663277D01*
X127379670Y-63498051D01*
X127375619Y-63494852D01*
X127375615Y-63494848D01*
X127208414Y-63362800D01*
X127208410Y-63362798D01*
X127204359Y-63359598D01*
X127163053Y-63336796D01*
X127113084Y-63286364D01*
X127098312Y-63216921D01*
X127123428Y-63150516D01*
X127150780Y-63123909D01*
X127210298Y-63081455D01*
X127329860Y-62996173D01*
X127339737Y-62986331D01*
X127451778Y-62874680D01*
X127488096Y-62838489D01*
X127514338Y-62801970D01*
X127615435Y-62661277D01*
X127618453Y-62657077D01*
X127631960Y-62629749D01*
X127715136Y-62461453D01*
X127715137Y-62461451D01*
X127717430Y-62456811D01*
X127782370Y-62243069D01*
X127811529Y-62021590D01*
X127811965Y-62003744D01*
X127813074Y-61958365D01*
X127813074Y-61958361D01*
X127813156Y-61955000D01*
X127794852Y-61732361D01*
X127740431Y-61515702D01*
X127651354Y-61310840D01*
X127579081Y-61199123D01*
X127532822Y-61127617D01*
X127532820Y-61127614D01*
X127530014Y-61123277D01*
X127379670Y-60958051D01*
X127375619Y-60954852D01*
X127375615Y-60954848D01*
X127208414Y-60822800D01*
X127208410Y-60822798D01*
X127204359Y-60819598D01*
X127163053Y-60796796D01*
X127113084Y-60746364D01*
X127098312Y-60676921D01*
X127123428Y-60610516D01*
X127150780Y-60583909D01*
X127194603Y-60552650D01*
X127329860Y-60456173D01*
X127488096Y-60298489D01*
X127547594Y-60215689D01*
X127615435Y-60121277D01*
X127618453Y-60117077D01*
X127630532Y-60092638D01*
X127715136Y-59921453D01*
X127715137Y-59921451D01*
X127717430Y-59916811D01*
X127774159Y-59730096D01*
X127780865Y-59708023D01*
X127780865Y-59708021D01*
X127782370Y-59703069D01*
X127811529Y-59481590D01*
X127811791Y-59470857D01*
X127813074Y-59418365D01*
X127813074Y-59418361D01*
X127813156Y-59415000D01*
X127794852Y-59192361D01*
X127740431Y-58975702D01*
X127651354Y-58770840D01*
X127563120Y-58634451D01*
X127532822Y-58587617D01*
X127532820Y-58587614D01*
X127530014Y-58583277D01*
X127526532Y-58579450D01*
X127382798Y-58421488D01*
X127351746Y-58357642D01*
X127360141Y-58287143D01*
X127405317Y-58232375D01*
X127431761Y-58218706D01*
X127538297Y-58178767D01*
X127546705Y-58175615D01*
X127663261Y-58088261D01*
X127750615Y-57971705D01*
X127801745Y-57835316D01*
X127808500Y-57773134D01*
X127808500Y-55976866D01*
X127801745Y-55914684D01*
X127750615Y-55778295D01*
X127663261Y-55661739D01*
X127546705Y-55574385D01*
X127410316Y-55523255D01*
X127348134Y-55516500D01*
X125551866Y-55516500D01*
X125489684Y-55523255D01*
X125353295Y-55574385D01*
X125236739Y-55661739D01*
X125149385Y-55778295D01*
X125098255Y-55914684D01*
X125091500Y-55976866D01*
X125091500Y-57773134D01*
X125098255Y-57835316D01*
X125149385Y-57971705D01*
X125236739Y-58088261D01*
X125353295Y-58175615D01*
X125361704Y-58178767D01*
X125361705Y-58178768D01*
X125470451Y-58219535D01*
X125527216Y-58262176D01*
X125551916Y-58328738D01*
X125536709Y-58398087D01*
X125517316Y-58424568D01*
X125390629Y-58557138D01*
X125387715Y-58561410D01*
X125387714Y-58561411D01*
X125364706Y-58595139D01*
X125264743Y-58741680D01*
X125220404Y-58837201D01*
X125182216Y-58919471D01*
X125170688Y-58944305D01*
X125110989Y-59159570D01*
X125087251Y-59381695D01*
X125087548Y-59386848D01*
X125087548Y-59386851D01*
X125099567Y-59595300D01*
X125100110Y-59604715D01*
X125101247Y-59609761D01*
X125101248Y-59609767D01*
X125108341Y-59641238D01*
X125149222Y-59822639D01*
X125233266Y-60029616D01*
X125235965Y-60034020D01*
X125346647Y-60214637D01*
X125349987Y-60220088D01*
X125496250Y-60388938D01*
X125668126Y-60531632D01*
X125711261Y-60556838D01*
X125741445Y-60574476D01*
X125790169Y-60626114D01*
X125803240Y-60695897D01*
X125776509Y-60761669D01*
X125736055Y-60795027D01*
X125723607Y-60801507D01*
X125719474Y-60804610D01*
X125719471Y-60804612D01*
X125559759Y-60924527D01*
X125544965Y-60935635D01*
X125390629Y-61097138D01*
X125387715Y-61101410D01*
X125387714Y-61101411D01*
X125364706Y-61135139D01*
X125264743Y-61281680D01*
X125226085Y-61364962D01*
X125184042Y-61455537D01*
X125170688Y-61484305D01*
X125110989Y-61699570D01*
X125087251Y-61921695D01*
X125087548Y-61926848D01*
X125087548Y-61926851D01*
X125099263Y-62130020D01*
X125100110Y-62144715D01*
X125101247Y-62149761D01*
X125101248Y-62149767D01*
X125114464Y-62208409D01*
X125149222Y-62362639D01*
X125233266Y-62569616D01*
X125349987Y-62760088D01*
X125496250Y-62928938D01*
X125571484Y-62991398D01*
X125653352Y-63059366D01*
X125668126Y-63071632D01*
X125698822Y-63089569D01*
X125741445Y-63114476D01*
X125790169Y-63166114D01*
X125803240Y-63235897D01*
X125776509Y-63301669D01*
X125736055Y-63335027D01*
X125723607Y-63341507D01*
X125719474Y-63344610D01*
X125719471Y-63344612D01*
X125549100Y-63472530D01*
X125544965Y-63475635D01*
X125390629Y-63637138D01*
X125264743Y-63821680D01*
X125225951Y-63905251D01*
X125194262Y-63973520D01*
X125170688Y-64024305D01*
X125110989Y-64239570D01*
X125087251Y-64461695D01*
X125087548Y-64466848D01*
X125087548Y-64466851D01*
X125099567Y-64675300D01*
X125100110Y-64684715D01*
X125101247Y-64689761D01*
X125101248Y-64689767D01*
X125113562Y-64744405D01*
X125149222Y-64902639D01*
X125233266Y-65109616D01*
X125235965Y-65114020D01*
X125346647Y-65294637D01*
X125349987Y-65300088D01*
X125496250Y-65468938D01*
X125668126Y-65611632D01*
X125738595Y-65652811D01*
X125741445Y-65654476D01*
X125790169Y-65706114D01*
X125803240Y-65775897D01*
X125776509Y-65841669D01*
X125736055Y-65875027D01*
X125723607Y-65881507D01*
X125719474Y-65884610D01*
X125719471Y-65884612D01*
X125550159Y-66011735D01*
X125544965Y-66015635D01*
X125541393Y-66019373D01*
X125416329Y-66150245D01*
X125390629Y-66177138D01*
X125387715Y-66181410D01*
X125387714Y-66181411D01*
X125345806Y-66242846D01*
X125264743Y-66361680D01*
X125170688Y-66564305D01*
X125110989Y-66779570D01*
X125087251Y-67001695D01*
X125087548Y-67006848D01*
X125087548Y-67006851D01*
X125099567Y-67215300D01*
X125100110Y-67224715D01*
X125101247Y-67229761D01*
X125101248Y-67229767D01*
X125115924Y-67294887D01*
X125149222Y-67442639D01*
X125233266Y-67649616D01*
X125235965Y-67654020D01*
X125346647Y-67834637D01*
X125349987Y-67840088D01*
X125496250Y-68008938D01*
X125668126Y-68151632D01*
X125711261Y-68176838D01*
X125741445Y-68194476D01*
X125790169Y-68246114D01*
X125803240Y-68315897D01*
X125776509Y-68381669D01*
X125736055Y-68415027D01*
X125723607Y-68421507D01*
X125719474Y-68424610D01*
X125719471Y-68424612D01*
X125626562Y-68494370D01*
X125544965Y-68555635D01*
X125390629Y-68717138D01*
X125264743Y-68901680D01*
X125170688Y-69104305D01*
X125110989Y-69319570D01*
X125087251Y-69541695D01*
X125087548Y-69546848D01*
X125087548Y-69546851D01*
X125099567Y-69755300D01*
X125100110Y-69764715D01*
X125101247Y-69769761D01*
X125101248Y-69769767D01*
X125106149Y-69791512D01*
X125149222Y-69982639D01*
X125233266Y-70189616D01*
X125235965Y-70194020D01*
X125346647Y-70374637D01*
X125349987Y-70380088D01*
X125496250Y-70548938D01*
X125668126Y-70691632D01*
X125706800Y-70714231D01*
X125741445Y-70734476D01*
X125790169Y-70786114D01*
X125803240Y-70855897D01*
X125776509Y-70921669D01*
X125736055Y-70955027D01*
X125723607Y-70961507D01*
X125719474Y-70964610D01*
X125719471Y-70964612D01*
X125549100Y-71092530D01*
X125544965Y-71095635D01*
X125541393Y-71099373D01*
X125436335Y-71209310D01*
X125390629Y-71257138D01*
X125387715Y-71261410D01*
X125387714Y-71261411D01*
X125314123Y-71369291D01*
X125264743Y-71441680D01*
X125249003Y-71475590D01*
X125204435Y-71571604D01*
X125170688Y-71644305D01*
X125110989Y-71859570D01*
X125087251Y-72081695D01*
X125087548Y-72086848D01*
X125087548Y-72086851D01*
X125096440Y-72241067D01*
X125100110Y-72304715D01*
X125101247Y-72309761D01*
X125101248Y-72309767D01*
X125121119Y-72397939D01*
X125149222Y-72522639D01*
X125233266Y-72729616D01*
X125349987Y-72920088D01*
X125496250Y-73088938D01*
X125668126Y-73231632D01*
X125738595Y-73272811D01*
X125741445Y-73274476D01*
X125790169Y-73326114D01*
X125803240Y-73395897D01*
X125776509Y-73461669D01*
X125736055Y-73495027D01*
X125723607Y-73501507D01*
X125719474Y-73504610D01*
X125719471Y-73504612D01*
X125695247Y-73522800D01*
X125544965Y-73635635D01*
X125390629Y-73797138D01*
X125264743Y-73981680D01*
X125226011Y-74065121D01*
X125189471Y-74143841D01*
X125170688Y-74184305D01*
X125110989Y-74399570D01*
X125087251Y-74621695D01*
X125087548Y-74626848D01*
X125087548Y-74626851D01*
X125093011Y-74721590D01*
X125100110Y-74844715D01*
X125101247Y-74849761D01*
X125101248Y-74849767D01*
X125121119Y-74937939D01*
X125149222Y-75062639D01*
X125233266Y-75269616D01*
X125349987Y-75460088D01*
X125496250Y-75628938D01*
X125668126Y-75771632D01*
X125738595Y-75812811D01*
X125741445Y-75814476D01*
X125790169Y-75866114D01*
X125803240Y-75935897D01*
X125776509Y-76001669D01*
X125736055Y-76035027D01*
X125723607Y-76041507D01*
X125719474Y-76044610D01*
X125719471Y-76044612D01*
X125695247Y-76062800D01*
X125544965Y-76175635D01*
X125390629Y-76337138D01*
X125264743Y-76521680D01*
X125244914Y-76564399D01*
X125175411Y-76714131D01*
X125170688Y-76724305D01*
X125110989Y-76939570D01*
X125087251Y-77161695D01*
X125087548Y-77166848D01*
X125087548Y-77166851D01*
X125093011Y-77261590D01*
X125100110Y-77384715D01*
X125101247Y-77389761D01*
X125101248Y-77389767D01*
X125121119Y-77477939D01*
X125149222Y-77602639D01*
X125233266Y-77809616D01*
X125349987Y-78000088D01*
X125496250Y-78168938D01*
X125668126Y-78311632D01*
X125727808Y-78346507D01*
X125741445Y-78354476D01*
X125790169Y-78406114D01*
X125803240Y-78475897D01*
X125776509Y-78541669D01*
X125736055Y-78575027D01*
X125723607Y-78581507D01*
X125719474Y-78584610D01*
X125719471Y-78584612D01*
X125556769Y-78706772D01*
X125544965Y-78715635D01*
X125494292Y-78768661D01*
X125422165Y-78844138D01*
X125390629Y-78877138D01*
X125387715Y-78881410D01*
X125387714Y-78881411D01*
X125334734Y-78959077D01*
X125264743Y-79061680D01*
X125228916Y-79138863D01*
X125174647Y-79255777D01*
X125170688Y-79264305D01*
X125110989Y-79479570D01*
X125087251Y-79701695D01*
X125087548Y-79706848D01*
X125087548Y-79706851D01*
X125096659Y-79864861D01*
X125100110Y-79924715D01*
X125101247Y-79929761D01*
X125101248Y-79929767D01*
X125118531Y-80006453D01*
X125149222Y-80142639D01*
X125233266Y-80349616D01*
X125349987Y-80540088D01*
X125496250Y-80708938D01*
X125668126Y-80851632D01*
X125727808Y-80886507D01*
X125741445Y-80894476D01*
X125790169Y-80946114D01*
X125803240Y-81015897D01*
X125776509Y-81081669D01*
X125736055Y-81115027D01*
X125723607Y-81121507D01*
X125719474Y-81124610D01*
X125719471Y-81124612D01*
X125549100Y-81252530D01*
X125544965Y-81255635D01*
X125541393Y-81259373D01*
X125422165Y-81384138D01*
X125390629Y-81417138D01*
X125387715Y-81421410D01*
X125387714Y-81421411D01*
X125334734Y-81499077D01*
X125264743Y-81601680D01*
X125220279Y-81697470D01*
X125174647Y-81795777D01*
X125170688Y-81804305D01*
X125110989Y-82019570D01*
X125087251Y-82241695D01*
X125087548Y-82246848D01*
X125087548Y-82246851D01*
X125096659Y-82404861D01*
X125100110Y-82464715D01*
X125101247Y-82469761D01*
X125101248Y-82469767D01*
X125118531Y-82546453D01*
X125149222Y-82682639D01*
X125233266Y-82889616D01*
X125349987Y-83080088D01*
X125496250Y-83248938D01*
X125668126Y-83391632D01*
X125685446Y-83401753D01*
X125741445Y-83434476D01*
X125790169Y-83486114D01*
X125803240Y-83555897D01*
X125776509Y-83621669D01*
X125736055Y-83655027D01*
X125723607Y-83661507D01*
X125719474Y-83664610D01*
X125719471Y-83664612D01*
X125549100Y-83792530D01*
X125544965Y-83795635D01*
X125486478Y-83856838D01*
X125406229Y-83940814D01*
X125390629Y-83957138D01*
X125264743Y-84141680D01*
X125249397Y-84174740D01*
X125173900Y-84337386D01*
X125170688Y-84344305D01*
X125110989Y-84559570D01*
X125087251Y-84781695D01*
X125087548Y-84786848D01*
X125087548Y-84786851D01*
X125094655Y-84910107D01*
X125100110Y-85004715D01*
X125101247Y-85009761D01*
X125101248Y-85009767D01*
X125107949Y-85039500D01*
X125149222Y-85222639D01*
X125185896Y-85312957D01*
X125231217Y-85424569D01*
X125233266Y-85429616D01*
X125256765Y-85467963D01*
X125320157Y-85571409D01*
X125349987Y-85620088D01*
X125496250Y-85788938D01*
X125634214Y-85903478D01*
X125660685Y-85925454D01*
X125668126Y-85931632D01*
X125719289Y-85961529D01*
X125741445Y-85974476D01*
X125790169Y-86026114D01*
X125803240Y-86095897D01*
X125776509Y-86161669D01*
X125736055Y-86195027D01*
X125723607Y-86201507D01*
X125719474Y-86204610D01*
X125719471Y-86204612D01*
X125556861Y-86326703D01*
X125544965Y-86335635D01*
X125501178Y-86381455D01*
X125402203Y-86485027D01*
X125390629Y-86497138D01*
X125387715Y-86501410D01*
X125387714Y-86501411D01*
X125315131Y-86607814D01*
X125264743Y-86681680D01*
X125249569Y-86714370D01*
X125174647Y-86875777D01*
X125170688Y-86884305D01*
X125110989Y-87099570D01*
X125087251Y-87321695D01*
X125087548Y-87326848D01*
X125087548Y-87326851D01*
X125096482Y-87481787D01*
X125100110Y-87544715D01*
X125101247Y-87549761D01*
X125101248Y-87549767D01*
X125118531Y-87626453D01*
X125149222Y-87762639D01*
X125187461Y-87856811D01*
X125227167Y-87954595D01*
X125233266Y-87969616D01*
X125269266Y-88028363D01*
X125331286Y-88129570D01*
X125349987Y-88160088D01*
X125496250Y-88328938D01*
X125668126Y-88471632D01*
X125723719Y-88504118D01*
X125741955Y-88514774D01*
X125790679Y-88566412D01*
X125803750Y-88636195D01*
X125777019Y-88701967D01*
X125736562Y-88735327D01*
X125728457Y-88739546D01*
X125719738Y-88745036D01*
X125549433Y-88872905D01*
X125541726Y-88879748D01*
X125394590Y-89033717D01*
X125388104Y-89041727D01*
X125268098Y-89217649D01*
X125263000Y-89226623D01*
X125173338Y-89419783D01*
X125169775Y-89429470D01*
X125114389Y-89629183D01*
X125115912Y-89637607D01*
X125128292Y-89641000D01*
X127768344Y-89641000D01*
X127781875Y-89637027D01*
X127783180Y-89627947D01*
X127741214Y-89460875D01*
X127737894Y-89451124D01*
X127652972Y-89255814D01*
X127648105Y-89246739D01*
X127532426Y-89067926D01*
X127526136Y-89059757D01*
X127382806Y-88902240D01*
X127375273Y-88895215D01*
X127208139Y-88763222D01*
X127199556Y-88757520D01*
X127162602Y-88737120D01*
X127112631Y-88686687D01*
X127097859Y-88617245D01*
X127122975Y-88550839D01*
X127150327Y-88524232D01*
X127184261Y-88500027D01*
X127329860Y-88396173D01*
X127334252Y-88391797D01*
X127411209Y-88315107D01*
X127488096Y-88238489D01*
X127509063Y-88209311D01*
X127615435Y-88061277D01*
X127618453Y-88057077D01*
X127632645Y-88028363D01*
X127715136Y-87861453D01*
X127715137Y-87861451D01*
X127717430Y-87856811D01*
X127782370Y-87643069D01*
X127811529Y-87421590D01*
X127811826Y-87409428D01*
X127813074Y-87358365D01*
X127813074Y-87358361D01*
X127813156Y-87355000D01*
X127794852Y-87132361D01*
X127740431Y-86915702D01*
X127651354Y-86710840D01*
X127586740Y-86610962D01*
X127532822Y-86527617D01*
X127532820Y-86527614D01*
X127530014Y-86523277D01*
X127379670Y-86358051D01*
X127375619Y-86354852D01*
X127375615Y-86354848D01*
X127208414Y-86222800D01*
X127208410Y-86222798D01*
X127204359Y-86219598D01*
X127163053Y-86196796D01*
X127113084Y-86146364D01*
X127098312Y-86076921D01*
X127123428Y-86010516D01*
X127150780Y-85983909D01*
X127219090Y-85935184D01*
X127329860Y-85856173D01*
X127488096Y-85698489D01*
X127505861Y-85673767D01*
X127615435Y-85521277D01*
X127618453Y-85517077D01*
X127642403Y-85468619D01*
X127715136Y-85321453D01*
X127715137Y-85321451D01*
X127717430Y-85316811D01*
X127782370Y-85103069D01*
X127811529Y-84881590D01*
X127812595Y-84837973D01*
X127813074Y-84818365D01*
X127813074Y-84818361D01*
X127813156Y-84815000D01*
X127794852Y-84592361D01*
X127740431Y-84375702D01*
X127651354Y-84170840D01*
X127563942Y-84035722D01*
X127532822Y-83987617D01*
X127532820Y-83987614D01*
X127530014Y-83983277D01*
X127379670Y-83818051D01*
X127375619Y-83814852D01*
X127375615Y-83814848D01*
X127208414Y-83682800D01*
X127208410Y-83682798D01*
X127204359Y-83679598D01*
X127163053Y-83656796D01*
X127113084Y-83606364D01*
X127098312Y-83536921D01*
X127123428Y-83470516D01*
X127150780Y-83443909D01*
X127194603Y-83412650D01*
X127329860Y-83316173D01*
X127488096Y-83158489D01*
X127509063Y-83129311D01*
X127615435Y-82981277D01*
X127618453Y-82977077D01*
X127651388Y-82910439D01*
X127715136Y-82781453D01*
X127715137Y-82781451D01*
X127717430Y-82776811D01*
X127782370Y-82563069D01*
X127811529Y-82341590D01*
X127811738Y-82333023D01*
X127813074Y-82278365D01*
X127813074Y-82278361D01*
X127813156Y-82275000D01*
X127794852Y-82052361D01*
X127740431Y-81835702D01*
X127651354Y-81630840D01*
X127561598Y-81492098D01*
X127532822Y-81447617D01*
X127532820Y-81447614D01*
X127530014Y-81443277D01*
X127379670Y-81278051D01*
X127375619Y-81274852D01*
X127375615Y-81274848D01*
X127208414Y-81142800D01*
X127208410Y-81142798D01*
X127204359Y-81139598D01*
X127163053Y-81116796D01*
X127113084Y-81066364D01*
X127098312Y-80996921D01*
X127123428Y-80930516D01*
X127150780Y-80903909D01*
X127214441Y-80858500D01*
X127329860Y-80776173D01*
X127334252Y-80771797D01*
X127411209Y-80695107D01*
X127488096Y-80618489D01*
X127509063Y-80589311D01*
X127615435Y-80441277D01*
X127618453Y-80437077D01*
X127639389Y-80394717D01*
X127715136Y-80241453D01*
X127715137Y-80241451D01*
X127717430Y-80236811D01*
X127782370Y-80023069D01*
X127811529Y-79801590D01*
X127811738Y-79793023D01*
X127812676Y-79754654D01*
X127834336Y-79687042D01*
X127889111Y-79641874D01*
X127959611Y-79633490D01*
X128027733Y-79668637D01*
X132665312Y-84306217D01*
X137070968Y-88711873D01*
X137103914Y-88769632D01*
X137105533Y-88775936D01*
X137106526Y-88783797D01*
X137109444Y-88791167D01*
X137127199Y-88836011D01*
X137129871Y-88843430D01*
X137147236Y-88896875D01*
X137151486Y-88903571D01*
X137151486Y-88903572D01*
X137151650Y-88903831D01*
X137162415Y-88924958D01*
X137162529Y-88925246D01*
X137162532Y-88925251D01*
X137165448Y-88932617D01*
X137170104Y-88939025D01*
X137170107Y-88939031D01*
X137198458Y-88978052D01*
X137202901Y-88984589D01*
X137233000Y-89032018D01*
X137238778Y-89037444D01*
X137238779Y-89037445D01*
X137239007Y-89037659D01*
X137254688Y-89055446D01*
X137259528Y-89062107D01*
X137265637Y-89067161D01*
X137265638Y-89067162D01*
X137302796Y-89097903D01*
X137308730Y-89103134D01*
X137343898Y-89136158D01*
X137343901Y-89136160D01*
X137349679Y-89141586D01*
X137356903Y-89145558D01*
X137376506Y-89158881D01*
X137376746Y-89159080D01*
X137376753Y-89159084D01*
X137382856Y-89164133D01*
X137422400Y-89182741D01*
X137433676Y-89188047D01*
X137440708Y-89191629D01*
X137489940Y-89218695D01*
X137497615Y-89220665D01*
X137497621Y-89220668D01*
X137497919Y-89220744D01*
X137520228Y-89228776D01*
X137520503Y-89228906D01*
X137520511Y-89228909D01*
X137527682Y-89232283D01*
X137582849Y-89242806D01*
X137590558Y-89244529D01*
X137624551Y-89253257D01*
X137637293Y-89256529D01*
X137637294Y-89256529D01*
X137644970Y-89258500D01*
X137653207Y-89258500D01*
X137676816Y-89260732D01*
X137677119Y-89260790D01*
X137677123Y-89260790D01*
X137684906Y-89262275D01*
X137740951Y-89258749D01*
X137748862Y-89258500D01*
X152992062Y-89258500D01*
X153060183Y-89278502D01*
X153106676Y-89332158D01*
X153116780Y-89402432D01*
X153110313Y-89428005D01*
X153109776Y-89429464D01*
X153054389Y-89629183D01*
X153055912Y-89637607D01*
X153068292Y-89641000D01*
X155708344Y-89641000D01*
X155721875Y-89637027D01*
X155723180Y-89627947D01*
X155681214Y-89460875D01*
X155677894Y-89451123D01*
X155670772Y-89434744D01*
X155661951Y-89364297D01*
X155692617Y-89300265D01*
X155753033Y-89262977D01*
X155786321Y-89258500D01*
X161792006Y-89258500D01*
X161860127Y-89278502D01*
X161881101Y-89295405D01*
X164146578Y-91560882D01*
X164180604Y-91623194D01*
X164182792Y-91636803D01*
X164185089Y-91658652D01*
X164196989Y-91771873D01*
X164200158Y-91802028D01*
X164259173Y-91983656D01*
X164262476Y-91989378D01*
X164262477Y-91989379D01*
X164266128Y-91995702D01*
X164354660Y-92149044D01*
X164482447Y-92290966D01*
X164636948Y-92403218D01*
X164642976Y-92405902D01*
X164642978Y-92405903D01*
X164805381Y-92478209D01*
X164811412Y-92480894D01*
X164893018Y-92498240D01*
X164991756Y-92519228D01*
X164991761Y-92519228D01*
X164998213Y-92520600D01*
X165189187Y-92520600D01*
X165195642Y-92519228D01*
X165195651Y-92519227D01*
X165247451Y-92508216D01*
X165318242Y-92513617D01*
X165374875Y-92556433D01*
X165399369Y-92623071D01*
X165398936Y-92644851D01*
X165387251Y-92754195D01*
X165387548Y-92759348D01*
X165387548Y-92759351D01*
X165393011Y-92854090D01*
X165400110Y-92977215D01*
X165401247Y-92982261D01*
X165401248Y-92982267D01*
X165446599Y-93183499D01*
X165442063Y-93254350D01*
X165399941Y-93311502D01*
X165333608Y-93336808D01*
X165323682Y-93337200D01*
X158320925Y-93337200D01*
X158252804Y-93317198D01*
X158231830Y-93300295D01*
X156697155Y-91765621D01*
X156688053Y-91755478D01*
X156668197Y-91730782D01*
X156664332Y-91725975D01*
X156625878Y-91693708D01*
X156622231Y-91690528D01*
X156620419Y-91688885D01*
X156618225Y-91686691D01*
X156584951Y-91659358D01*
X156584153Y-91658696D01*
X156512826Y-91598846D01*
X156508156Y-91596278D01*
X156504039Y-91592897D01*
X156443786Y-91560590D01*
X156422214Y-91549023D01*
X156421055Y-91548394D01*
X156344919Y-91506538D01*
X156344911Y-91506535D01*
X156339513Y-91503567D01*
X156334431Y-91501955D01*
X156329737Y-91499438D01*
X156240769Y-91472238D01*
X156239741Y-91471918D01*
X156150994Y-91443765D01*
X156145698Y-91443171D01*
X156140602Y-91441613D01*
X156048043Y-91432210D01*
X156046907Y-91432089D01*
X156013292Y-91428319D01*
X156000570Y-91426892D01*
X156000566Y-91426892D01*
X155997073Y-91426500D01*
X155993546Y-91426500D01*
X155992561Y-91426445D01*
X155986881Y-91425998D01*
X155957475Y-91423011D01*
X155949963Y-91422248D01*
X155949961Y-91422248D01*
X155943838Y-91421626D01*
X155901559Y-91425623D01*
X155898191Y-91425941D01*
X155886333Y-91426500D01*
X155348799Y-91426500D01*
X155280678Y-91406498D01*
X155270707Y-91399382D01*
X155148414Y-91302800D01*
X155148410Y-91302798D01*
X155144359Y-91299598D01*
X155102569Y-91276529D01*
X155052598Y-91226097D01*
X155037826Y-91156654D01*
X155062942Y-91090248D01*
X155090294Y-91063641D01*
X155265328Y-90938792D01*
X155273200Y-90932139D01*
X155424052Y-90781812D01*
X155430730Y-90773965D01*
X155555003Y-90601020D01*
X155560313Y-90592183D01*
X155654670Y-90401267D01*
X155658469Y-90391672D01*
X155720377Y-90187910D01*
X155722555Y-90177837D01*
X155723986Y-90166962D01*
X155721775Y-90152778D01*
X155708617Y-90149000D01*
X153073225Y-90149000D01*
X153059694Y-90152973D01*
X153058257Y-90162966D01*
X153088565Y-90297446D01*
X153091645Y-90307275D01*
X153171770Y-90504603D01*
X153176413Y-90513794D01*
X153287694Y-90695388D01*
X153293777Y-90703699D01*
X153433213Y-90864667D01*
X153440580Y-90871883D01*
X153604434Y-91007916D01*
X153612881Y-91013831D01*
X153681969Y-91054203D01*
X153730693Y-91105842D01*
X153743764Y-91175625D01*
X153717033Y-91241396D01*
X153676584Y-91274752D01*
X153663607Y-91281507D01*
X153659474Y-91284610D01*
X153659471Y-91284612D01*
X153489100Y-91412530D01*
X153484965Y-91415635D01*
X153475116Y-91425941D01*
X153346164Y-91560882D01*
X153330629Y-91577138D01*
X153327715Y-91581410D01*
X153327714Y-91581411D01*
X153257231Y-91684735D01*
X153204743Y-91761680D01*
X153189569Y-91794370D01*
X153114647Y-91955777D01*
X153110688Y-91964305D01*
X153050989Y-92179570D01*
X153027251Y-92401695D01*
X153027548Y-92406848D01*
X153027548Y-92406851D01*
X153036659Y-92564861D01*
X153040110Y-92624715D01*
X153041247Y-92629761D01*
X153041248Y-92629767D01*
X153083899Y-92819020D01*
X153089222Y-92842639D01*
X153089372Y-92843009D01*
X153090632Y-92912605D01*
X153053335Y-92973016D01*
X152989299Y-93003673D01*
X152969113Y-93005300D01*
X127866590Y-93005300D01*
X127798469Y-92985298D01*
X127751976Y-92931642D01*
X127741872Y-92861368D01*
X127746032Y-92842671D01*
X127780865Y-92728023D01*
X127780865Y-92728021D01*
X127782370Y-92723069D01*
X127811529Y-92501590D01*
X127811738Y-92493023D01*
X127813074Y-92438365D01*
X127813074Y-92438361D01*
X127813156Y-92435000D01*
X127794852Y-92212361D01*
X127740431Y-91995702D01*
X127651354Y-91790840D01*
X127582712Y-91684735D01*
X127532822Y-91607617D01*
X127532820Y-91607614D01*
X127530014Y-91603277D01*
X127379670Y-91438051D01*
X127375619Y-91434852D01*
X127375615Y-91434848D01*
X127208414Y-91302800D01*
X127208410Y-91302798D01*
X127204359Y-91299598D01*
X127162569Y-91276529D01*
X127112598Y-91226097D01*
X127097826Y-91156654D01*
X127122942Y-91090248D01*
X127150294Y-91063641D01*
X127325328Y-90938792D01*
X127333200Y-90932139D01*
X127484052Y-90781812D01*
X127490730Y-90773965D01*
X127615003Y-90601020D01*
X127620313Y-90592183D01*
X127714670Y-90401267D01*
X127718469Y-90391672D01*
X127780377Y-90187910D01*
X127782555Y-90177837D01*
X127783986Y-90166962D01*
X127781775Y-90152778D01*
X127768617Y-90149000D01*
X125133225Y-90149000D01*
X125119694Y-90152973D01*
X125118257Y-90162966D01*
X125148565Y-90297446D01*
X125151645Y-90307275D01*
X125231770Y-90504603D01*
X125236413Y-90513794D01*
X125347694Y-90695388D01*
X125353777Y-90703699D01*
X125493213Y-90864667D01*
X125500580Y-90871883D01*
X125664434Y-91007916D01*
X125672881Y-91013831D01*
X125741969Y-91054203D01*
X125790693Y-91105842D01*
X125803764Y-91175625D01*
X125777033Y-91241396D01*
X125736584Y-91274752D01*
X125723607Y-91281507D01*
X125719474Y-91284610D01*
X125719471Y-91284612D01*
X125549100Y-91412530D01*
X125544965Y-91415635D01*
X125535116Y-91425941D01*
X125406164Y-91560882D01*
X125390629Y-91577138D01*
X125387715Y-91581410D01*
X125387714Y-91581411D01*
X125317231Y-91684735D01*
X125264743Y-91761680D01*
X125249569Y-91794370D01*
X125174647Y-91955777D01*
X125170688Y-91964305D01*
X125110989Y-92179570D01*
X125087251Y-92401695D01*
X125087548Y-92406848D01*
X125087548Y-92406851D01*
X125096659Y-92564861D01*
X125100110Y-92624715D01*
X125101247Y-92629761D01*
X125101248Y-92629767D01*
X125143899Y-92819020D01*
X125149222Y-92842639D01*
X125149372Y-92843009D01*
X125150632Y-92912605D01*
X125113335Y-92973016D01*
X125049299Y-93003673D01*
X125029113Y-93005300D01*
X122214024Y-93005300D01*
X122145903Y-92985298D01*
X122124929Y-92968395D01*
X115607155Y-86450621D01*
X115598053Y-86440478D01*
X115578197Y-86415782D01*
X115574332Y-86410975D01*
X115535878Y-86378708D01*
X115532231Y-86375528D01*
X115530419Y-86373885D01*
X115528225Y-86371691D01*
X115494951Y-86344358D01*
X115494153Y-86343696D01*
X115422826Y-86283846D01*
X115418156Y-86281278D01*
X115414039Y-86277897D01*
X115350250Y-86243694D01*
X115332214Y-86234023D01*
X115331055Y-86233394D01*
X115254919Y-86191538D01*
X115254911Y-86191535D01*
X115249513Y-86188567D01*
X115244431Y-86186955D01*
X115239737Y-86184438D01*
X115150769Y-86157238D01*
X115149741Y-86156918D01*
X115060994Y-86128765D01*
X115055698Y-86128171D01*
X115050602Y-86126613D01*
X114958043Y-86117210D01*
X114956907Y-86117089D01*
X114923292Y-86113319D01*
X114910570Y-86111892D01*
X114910566Y-86111892D01*
X114907073Y-86111500D01*
X114903546Y-86111500D01*
X114902561Y-86111445D01*
X114896881Y-86110998D01*
X114867475Y-86108011D01*
X114859963Y-86107248D01*
X114859961Y-86107248D01*
X114853838Y-86106626D01*
X114811559Y-86110623D01*
X114808191Y-86110941D01*
X114796333Y-86111500D01*
X114258799Y-86111500D01*
X114190678Y-86091498D01*
X114180707Y-86084382D01*
X114058414Y-85987800D01*
X114058410Y-85987798D01*
X114054359Y-85984598D01*
X114012569Y-85961529D01*
X113962598Y-85911097D01*
X113947826Y-85841654D01*
X113972942Y-85775248D01*
X114000294Y-85748641D01*
X114175328Y-85623792D01*
X114183200Y-85617139D01*
X114334052Y-85466812D01*
X114340730Y-85458965D01*
X114465003Y-85286020D01*
X114470313Y-85277183D01*
X114564670Y-85086267D01*
X114568469Y-85076672D01*
X114630377Y-84872910D01*
X114632555Y-84862837D01*
X114633986Y-84851962D01*
X114631775Y-84837778D01*
X114618617Y-84834000D01*
X113172000Y-84834000D01*
X113103879Y-84813998D01*
X113057386Y-84760342D01*
X113046000Y-84708000D01*
X113046000Y-84452000D01*
X113066002Y-84383879D01*
X113119658Y-84337386D01*
X113172000Y-84326000D01*
X114618344Y-84326000D01*
X114631875Y-84322027D01*
X114633180Y-84312947D01*
X114591214Y-84145875D01*
X114587894Y-84136124D01*
X114502972Y-83940814D01*
X114498105Y-83931739D01*
X114382426Y-83752926D01*
X114376136Y-83744757D01*
X114232806Y-83587240D01*
X114225273Y-83580215D01*
X114058139Y-83448222D01*
X114049556Y-83442520D01*
X114012602Y-83422120D01*
X113962631Y-83371687D01*
X113947859Y-83302245D01*
X113972975Y-83235839D01*
X114000327Y-83209232D01*
X114066352Y-83162137D01*
X114179860Y-83081173D01*
X114221253Y-83039925D01*
X114334435Y-82927137D01*
X114338096Y-82923489D01*
X114397594Y-82840689D01*
X114465435Y-82746277D01*
X114468453Y-82742077D01*
X114500322Y-82677596D01*
X114565136Y-82546453D01*
X114565137Y-82546451D01*
X114567430Y-82541811D01*
X114617441Y-82377207D01*
X114630865Y-82333023D01*
X114630865Y-82333021D01*
X114632370Y-82328069D01*
X114661529Y-82106590D01*
X114663156Y-82040000D01*
X114644852Y-81817361D01*
X114590431Y-81600702D01*
X114501354Y-81395840D01*
X114428365Y-81283016D01*
X114382822Y-81212617D01*
X114382820Y-81212614D01*
X114380014Y-81208277D01*
X114229670Y-81043051D01*
X114225619Y-81039852D01*
X114225615Y-81039848D01*
X114058414Y-80907800D01*
X114058410Y-80907798D01*
X114054359Y-80904598D01*
X114013053Y-80881796D01*
X113963084Y-80831364D01*
X113948312Y-80761921D01*
X113973428Y-80695516D01*
X114000780Y-80668909D01*
X114091932Y-80603891D01*
X114179860Y-80541173D01*
X114338096Y-80383489D01*
X114468453Y-80202077D01*
X114500322Y-80137596D01*
X114565136Y-80006453D01*
X114565137Y-80006451D01*
X114567430Y-80001811D01*
X114632370Y-79788069D01*
X114661529Y-79566590D01*
X114663156Y-79500000D01*
X114644852Y-79277361D01*
X114590431Y-79060702D01*
X114501354Y-78855840D01*
X114439788Y-78760673D01*
X114382822Y-78672617D01*
X114382820Y-78672614D01*
X114380014Y-78668277D01*
X114229670Y-78503051D01*
X114225619Y-78499852D01*
X114225615Y-78499848D01*
X114058414Y-78367800D01*
X114058410Y-78367798D01*
X114054359Y-78364598D01*
X114035607Y-78354246D01*
X113952424Y-78308327D01*
X113858789Y-78256638D01*
X113853920Y-78254914D01*
X113853916Y-78254912D01*
X113653087Y-78183795D01*
X113653083Y-78183794D01*
X113648212Y-78182069D01*
X113643119Y-78181162D01*
X113643116Y-78181161D01*
X113433373Y-78143800D01*
X113433367Y-78143799D01*
X113428284Y-78142894D01*
X113354452Y-78141992D01*
X113210081Y-78140228D01*
X113210079Y-78140228D01*
X113204911Y-78140165D01*
X112984091Y-78173955D01*
X112771756Y-78243357D01*
X112750918Y-78254205D01*
X112747479Y-78255995D01*
X112677819Y-78269707D01*
X112611805Y-78243581D01*
X112570394Y-78185912D01*
X112563300Y-78144231D01*
X112563300Y-72300706D01*
X112583302Y-72232585D01*
X112636958Y-72186092D01*
X112707232Y-72175988D01*
X112734248Y-72182996D01*
X112764856Y-72194684D01*
X112764864Y-72194686D01*
X112769692Y-72196530D01*
X112774760Y-72197561D01*
X112774763Y-72197562D01*
X112858297Y-72214557D01*
X112988597Y-72241067D01*
X112993772Y-72241257D01*
X112993774Y-72241257D01*
X113206673Y-72249064D01*
X113206677Y-72249064D01*
X113211837Y-72249253D01*
X113216957Y-72248597D01*
X113216959Y-72248597D01*
X113428288Y-72221525D01*
X113428289Y-72221525D01*
X113433416Y-72220868D01*
X113438366Y-72219383D01*
X113642429Y-72158161D01*
X113642434Y-72158159D01*
X113647384Y-72156674D01*
X113847994Y-72058396D01*
X114029860Y-71928673D01*
X114188096Y-71770989D01*
X114252961Y-71680720D01*
X114315435Y-71593777D01*
X114318453Y-71589577D01*
X114389228Y-71446375D01*
X114415136Y-71393953D01*
X114415137Y-71393951D01*
X114417430Y-71389311D01*
X114482370Y-71175569D01*
X114511529Y-70954090D01*
X114513156Y-70887500D01*
X114494852Y-70664861D01*
X114440431Y-70448202D01*
X114351354Y-70243340D01*
X114230014Y-70055777D01*
X114079670Y-69890551D01*
X114075619Y-69887352D01*
X114075615Y-69887348D01*
X113908414Y-69755300D01*
X113908410Y-69755298D01*
X113904359Y-69752098D01*
X113863053Y-69729296D01*
X113813084Y-69678864D01*
X113798312Y-69609421D01*
X113823428Y-69543016D01*
X113850780Y-69516409D01*
X113896011Y-69484146D01*
X114029860Y-69388673D01*
X114188096Y-69230989D01*
X114252961Y-69140720D01*
X114315435Y-69053777D01*
X114318453Y-69049577D01*
X114389228Y-68906375D01*
X114415136Y-68853953D01*
X114415137Y-68853951D01*
X114417430Y-68849311D01*
X114482370Y-68635569D01*
X114511529Y-68414090D01*
X114512695Y-68366364D01*
X114513074Y-68350865D01*
X114513074Y-68350861D01*
X114513156Y-68347500D01*
X114494852Y-68124861D01*
X114440431Y-67908202D01*
X114351354Y-67703340D01*
X114230014Y-67515777D01*
X114079670Y-67350551D01*
X114075619Y-67347352D01*
X114075615Y-67347348D01*
X113908414Y-67215300D01*
X113908410Y-67215298D01*
X113904359Y-67212098D01*
X113863053Y-67189296D01*
X113813084Y-67138864D01*
X113798312Y-67069421D01*
X113823428Y-67003016D01*
X113850780Y-66976409D01*
X113927136Y-66921945D01*
X114029860Y-66848673D01*
X114039418Y-66839149D01*
X114159142Y-66719842D01*
X114188096Y-66690989D01*
X114196950Y-66678668D01*
X114315435Y-66513777D01*
X114318453Y-66509577D01*
X114356830Y-66431928D01*
X114415136Y-66313953D01*
X114415137Y-66313951D01*
X114417430Y-66309311D01*
X114482370Y-66095569D01*
X114511529Y-65874090D01*
X114512695Y-65826364D01*
X114513074Y-65810865D01*
X114513074Y-65810861D01*
X114513156Y-65807500D01*
X114494852Y-65584861D01*
X114440431Y-65368202D01*
X114351354Y-65163340D01*
X114277122Y-65048595D01*
X114232822Y-64980117D01*
X114232820Y-64980114D01*
X114230014Y-64975777D01*
X114079670Y-64810551D01*
X114075619Y-64807352D01*
X114075615Y-64807348D01*
X113908414Y-64675300D01*
X113908410Y-64675298D01*
X113904359Y-64672098D01*
X113862569Y-64649029D01*
X113812598Y-64598597D01*
X113797826Y-64529154D01*
X113822942Y-64462748D01*
X113850294Y-64436141D01*
X114025328Y-64311292D01*
X114033200Y-64304639D01*
X114184052Y-64154312D01*
X114190730Y-64146465D01*
X114315003Y-63973520D01*
X114320313Y-63964683D01*
X114414670Y-63773767D01*
X114418469Y-63764172D01*
X114480377Y-63560410D01*
X114482555Y-63550337D01*
X114483986Y-63539462D01*
X114481775Y-63525278D01*
X114468617Y-63521500D01*
X111833225Y-63521500D01*
X111819694Y-63525473D01*
X111818257Y-63535466D01*
X111848565Y-63669946D01*
X111851645Y-63679775D01*
X111931770Y-63877103D01*
X111936413Y-63886294D01*
X112047694Y-64067888D01*
X112053777Y-64076199D01*
X112193213Y-64237167D01*
X112200580Y-64244383D01*
X112364434Y-64380416D01*
X112372881Y-64386331D01*
X112441969Y-64426703D01*
X112490693Y-64478342D01*
X112503764Y-64548125D01*
X112477033Y-64613896D01*
X112436584Y-64647252D01*
X112423607Y-64654007D01*
X112419474Y-64657110D01*
X112419471Y-64657112D01*
X112251712Y-64783069D01*
X112244965Y-64788135D01*
X112241393Y-64791873D01*
X112133901Y-64904357D01*
X112090629Y-64949638D01*
X111964743Y-65134180D01*
X111924808Y-65220213D01*
X111873562Y-65330614D01*
X111870688Y-65336805D01*
X111810989Y-65552070D01*
X111810440Y-65557207D01*
X111795590Y-65696162D01*
X111768462Y-65761772D01*
X111759398Y-65771868D01*
X110885421Y-66645845D01*
X110875278Y-66654947D01*
X110845775Y-66678668D01*
X110825686Y-66702609D01*
X110813509Y-66717121D01*
X110810328Y-66720769D01*
X110808685Y-66722581D01*
X110806491Y-66724775D01*
X110779158Y-66758049D01*
X110778496Y-66758847D01*
X110718646Y-66830174D01*
X110716078Y-66834844D01*
X110712697Y-66838961D01*
X110707490Y-66848673D01*
X110668823Y-66920786D01*
X110668194Y-66921945D01*
X110626338Y-66998081D01*
X110626335Y-66998089D01*
X110623367Y-67003487D01*
X110621755Y-67008569D01*
X110619238Y-67013263D01*
X110592038Y-67102231D01*
X110591718Y-67103259D01*
X110563565Y-67192006D01*
X110562971Y-67197302D01*
X110561413Y-67202398D01*
X110558044Y-67235569D01*
X110552018Y-67294887D01*
X110551889Y-67296093D01*
X110546300Y-67345927D01*
X110546300Y-67349454D01*
X110546245Y-67350439D01*
X110545798Y-67356119D01*
X110541426Y-67399162D01*
X110542006Y-67405293D01*
X110545741Y-67444809D01*
X110546300Y-67456667D01*
X110546300Y-85312957D01*
X110545563Y-85326564D01*
X110543176Y-85348543D01*
X110541476Y-85364188D01*
X110542013Y-85370323D01*
X110545850Y-85414188D01*
X110546179Y-85419014D01*
X110546300Y-85421486D01*
X110546300Y-85424569D01*
X110546601Y-85427637D01*
X110550490Y-85467306D01*
X110550612Y-85468619D01*
X110558713Y-85561213D01*
X110560200Y-85566332D01*
X110560720Y-85571633D01*
X110587591Y-85660634D01*
X110587926Y-85661767D01*
X110598695Y-85698831D01*
X110613891Y-85751136D01*
X110616344Y-85755868D01*
X110617884Y-85760969D01*
X110620778Y-85766412D01*
X110661531Y-85843060D01*
X110662143Y-85844226D01*
X110702071Y-85921253D01*
X110704908Y-85926726D01*
X110708231Y-85930889D01*
X110710734Y-85935596D01*
X110769555Y-86007718D01*
X110770246Y-86008574D01*
X110801538Y-86047773D01*
X110804042Y-86050277D01*
X110804684Y-86050995D01*
X110808385Y-86055328D01*
X110835735Y-86088862D01*
X110840482Y-86092789D01*
X110840484Y-86092791D01*
X110864596Y-86112738D01*
X110870012Y-86117218D01*
X110871062Y-86118087D01*
X110879842Y-86126077D01*
X111909239Y-87155474D01*
X111943265Y-87217786D01*
X111945935Y-87237315D01*
X111949388Y-87297197D01*
X111950110Y-87309715D01*
X111951247Y-87314761D01*
X111951248Y-87314767D01*
X111961074Y-87358365D01*
X111999222Y-87527639D01*
X112060673Y-87678976D01*
X112070894Y-87704146D01*
X112083266Y-87734616D01*
X112103371Y-87767425D01*
X112195547Y-87917842D01*
X112199987Y-87925088D01*
X112346250Y-88093938D01*
X112518126Y-88236632D01*
X112527547Y-88242137D01*
X112591445Y-88279476D01*
X112640169Y-88331114D01*
X112653240Y-88400897D01*
X112626509Y-88466669D01*
X112586055Y-88500027D01*
X112573607Y-88506507D01*
X112569474Y-88509610D01*
X112569471Y-88509612D01*
X112399100Y-88637530D01*
X112394965Y-88640635D01*
X112240629Y-88802138D01*
X112237715Y-88806410D01*
X112237714Y-88806411D01*
X112177136Y-88895215D01*
X112114743Y-88986680D01*
X112020688Y-89189305D01*
X111960989Y-89404570D01*
X111937251Y-89626695D01*
X111937548Y-89631848D01*
X111937548Y-89631851D01*
X111943011Y-89726590D01*
X111950110Y-89849715D01*
X111951247Y-89854761D01*
X111951248Y-89854767D01*
X111971119Y-89942939D01*
X111999222Y-90067639D01*
X112058732Y-90214195D01*
X112070894Y-90244146D01*
X112083266Y-90274616D01*
X112105403Y-90310740D01*
X112179740Y-90432047D01*
X112199987Y-90465088D01*
X112346250Y-90633938D01*
X112518126Y-90776632D01*
X112526991Y-90781812D01*
X112591445Y-90819476D01*
X112640169Y-90871114D01*
X112653240Y-90940897D01*
X112626509Y-91006669D01*
X112586055Y-91040027D01*
X112573607Y-91046507D01*
X112569474Y-91049610D01*
X112569471Y-91049612D01*
X112399100Y-91177530D01*
X112394965Y-91180635D01*
X112240629Y-91342138D01*
X112237715Y-91346410D01*
X112237714Y-91346411D01*
X112175202Y-91438051D01*
X112114743Y-91526680D01*
X112075093Y-91612100D01*
X112038688Y-91690528D01*
X112020688Y-91729305D01*
X111960989Y-91944570D01*
X111937251Y-92166695D01*
X111937548Y-92171848D01*
X111937548Y-92171851D01*
X111943011Y-92266590D01*
X111950110Y-92389715D01*
X111951247Y-92394761D01*
X111951248Y-92394767D01*
X111971119Y-92482939D01*
X111999222Y-92607639D01*
X112058732Y-92754195D01*
X112070894Y-92784146D01*
X112083266Y-92814616D01*
X112100458Y-92842671D01*
X112187860Y-92985298D01*
X112199987Y-93005088D01*
X112346250Y-93173938D01*
X112518126Y-93316632D01*
X112711000Y-93429338D01*
X112919692Y-93509030D01*
X112924760Y-93510061D01*
X112924763Y-93510062D01*
X113016638Y-93528754D01*
X113138597Y-93553567D01*
X113143772Y-93553757D01*
X113143774Y-93553757D01*
X113356673Y-93561564D01*
X113356677Y-93561564D01*
X113361837Y-93561753D01*
X113366957Y-93561097D01*
X113366959Y-93561097D01*
X113578288Y-93534025D01*
X113578289Y-93534025D01*
X113583416Y-93533368D01*
X113598795Y-93528754D01*
X113792429Y-93470661D01*
X113792434Y-93470659D01*
X113797384Y-93469174D01*
X113997994Y-93370896D01*
X114179860Y-93241173D01*
X114221253Y-93199925D01*
X114334435Y-93087137D01*
X114338096Y-93083489D01*
X114397594Y-93000689D01*
X114465435Y-92906277D01*
X114468453Y-92902077D01*
X114541541Y-92754195D01*
X114565136Y-92706453D01*
X114565137Y-92706451D01*
X114567430Y-92701811D01*
X114617441Y-92537207D01*
X114630865Y-92493023D01*
X114630865Y-92493021D01*
X114632370Y-92488069D01*
X114661529Y-92266590D01*
X114663156Y-92200000D01*
X114644852Y-91977361D01*
X114590431Y-91760702D01*
X114501354Y-91555840D01*
X114438456Y-91458614D01*
X114382822Y-91372617D01*
X114382820Y-91372614D01*
X114380014Y-91368277D01*
X114229670Y-91203051D01*
X114225619Y-91199852D01*
X114225615Y-91199848D01*
X114058414Y-91067800D01*
X114058410Y-91067798D01*
X114054359Y-91064598D01*
X114013053Y-91041796D01*
X113963084Y-90991364D01*
X113948312Y-90921921D01*
X113973428Y-90855516D01*
X114000780Y-90828909D01*
X114044603Y-90797650D01*
X114179860Y-90701173D01*
X114221253Y-90659925D01*
X114280364Y-90601020D01*
X114338096Y-90543489D01*
X114397594Y-90460689D01*
X114465435Y-90366277D01*
X114468453Y-90362077D01*
X114500396Y-90297446D01*
X114565136Y-90166453D01*
X114565137Y-90166451D01*
X114567430Y-90161811D01*
X114617441Y-89997207D01*
X114630865Y-89953023D01*
X114630865Y-89953021D01*
X114632370Y-89948069D01*
X114661529Y-89726590D01*
X114663156Y-89660000D01*
X114644852Y-89437361D01*
X114590431Y-89220702D01*
X114501354Y-89015840D01*
X114438456Y-88918614D01*
X114382822Y-88832617D01*
X114382820Y-88832614D01*
X114380014Y-88828277D01*
X114229670Y-88663051D01*
X114225619Y-88659852D01*
X114225615Y-88659848D01*
X114058414Y-88527800D01*
X114058410Y-88527798D01*
X114054359Y-88524598D01*
X114013053Y-88501796D01*
X113963084Y-88451364D01*
X113948312Y-88381921D01*
X113973428Y-88315516D01*
X114000780Y-88288909D01*
X114175651Y-88164175D01*
X114179860Y-88161173D01*
X114182886Y-88158157D01*
X114247588Y-88129570D01*
X114263976Y-88128500D01*
X114380375Y-88128500D01*
X114448496Y-88148502D01*
X114469470Y-88165405D01*
X120987249Y-94683184D01*
X120996351Y-94693327D01*
X121020068Y-94722825D01*
X121058546Y-94755112D01*
X121062162Y-94758267D01*
X121063988Y-94759923D01*
X121066174Y-94762109D01*
X121068554Y-94764064D01*
X121068564Y-94764073D01*
X121099368Y-94789376D01*
X121100383Y-94790218D01*
X121171574Y-94849954D01*
X121176248Y-94852523D01*
X121180361Y-94855902D01*
X121185798Y-94858817D01*
X121185799Y-94858818D01*
X121262147Y-94899755D01*
X121263277Y-94900368D01*
X121344887Y-94945233D01*
X121349969Y-94946845D01*
X121354663Y-94949362D01*
X121443631Y-94976562D01*
X121444659Y-94976882D01*
X121533406Y-95005035D01*
X121538702Y-95005629D01*
X121543798Y-95007187D01*
X121636322Y-95016585D01*
X121637442Y-95016705D01*
X121670764Y-95020442D01*
X121683830Y-95021908D01*
X121683834Y-95021908D01*
X121687327Y-95022300D01*
X121690854Y-95022300D01*
X121691857Y-95022356D01*
X121697541Y-95022803D01*
X121722957Y-95025385D01*
X121734436Y-95026551D01*
X121734438Y-95026551D01*
X121740562Y-95027173D01*
X121786201Y-95022859D01*
X121798057Y-95022300D01*
X153524557Y-95022300D01*
X153538164Y-95023037D01*
X153569662Y-95026459D01*
X153569667Y-95026459D01*
X153575788Y-95027124D01*
X153602038Y-95024827D01*
X153625788Y-95022750D01*
X153630614Y-95022421D01*
X153633086Y-95022300D01*
X153636169Y-95022300D01*
X153648138Y-95021126D01*
X153678906Y-95018110D01*
X153680219Y-95017988D01*
X153724484Y-95014115D01*
X153772813Y-95009887D01*
X153777932Y-95008400D01*
X153783233Y-95007880D01*
X153872234Y-94981009D01*
X153873367Y-94980674D01*
X153956814Y-94956430D01*
X153956818Y-94956428D01*
X153962736Y-94954709D01*
X153967468Y-94952256D01*
X153972569Y-94950716D01*
X153979573Y-94946992D01*
X154054660Y-94907069D01*
X154055826Y-94906457D01*
X154132853Y-94866529D01*
X154138326Y-94863692D01*
X154142489Y-94860369D01*
X154147196Y-94857866D01*
X154219318Y-94799045D01*
X154220174Y-94798354D01*
X154259373Y-94767062D01*
X154261877Y-94764558D01*
X154262595Y-94763916D01*
X154266928Y-94760215D01*
X154300462Y-94732865D01*
X154329688Y-94697537D01*
X154337677Y-94688758D01*
X155463655Y-93562780D01*
X155525967Y-93528754D01*
X155596782Y-93533819D01*
X155641845Y-93562780D01*
X157094145Y-95015079D01*
X157103247Y-95025222D01*
X157126968Y-95054725D01*
X157131696Y-95058692D01*
X157165421Y-95086991D01*
X157169069Y-95090172D01*
X157170881Y-95091815D01*
X157173075Y-95094009D01*
X157206349Y-95121342D01*
X157207147Y-95122004D01*
X157278474Y-95181854D01*
X157283144Y-95184422D01*
X157287261Y-95187803D01*
X157307079Y-95198429D01*
X157369086Y-95231677D01*
X157370245Y-95232306D01*
X157446381Y-95274162D01*
X157446389Y-95274165D01*
X157451787Y-95277133D01*
X157456869Y-95278745D01*
X157461563Y-95281262D01*
X157534771Y-95303645D01*
X157550477Y-95308447D01*
X157551735Y-95308839D01*
X157640306Y-95336935D01*
X157645597Y-95337529D01*
X157650698Y-95339088D01*
X157743263Y-95348490D01*
X157744450Y-95348616D01*
X157773838Y-95351913D01*
X157790730Y-95353808D01*
X157790735Y-95353808D01*
X157794227Y-95354200D01*
X157797752Y-95354200D01*
X157798737Y-95354255D01*
X157804432Y-95354703D01*
X157816342Y-95355913D01*
X157841334Y-95358452D01*
X157841339Y-95358452D01*
X157847462Y-95359074D01*
X157893108Y-95354759D01*
X157904967Y-95354200D01*
X170253257Y-95354200D01*
X170266864Y-95354937D01*
X170298362Y-95358359D01*
X170298367Y-95358359D01*
X170304488Y-95359024D01*
X170330738Y-95356727D01*
X170354488Y-95354650D01*
X170359314Y-95354321D01*
X170361786Y-95354200D01*
X170364869Y-95354200D01*
X170376838Y-95353026D01*
X170407606Y-95350010D01*
X170408919Y-95349888D01*
X170453184Y-95346015D01*
X170501513Y-95341787D01*
X170506632Y-95340300D01*
X170511933Y-95339780D01*
X170600934Y-95312909D01*
X170602067Y-95312574D01*
X170685514Y-95288330D01*
X170685518Y-95288328D01*
X170691436Y-95286609D01*
X170696168Y-95284156D01*
X170701269Y-95282616D01*
X170708267Y-95278895D01*
X170783360Y-95238969D01*
X170784526Y-95238357D01*
X170861553Y-95198429D01*
X170867026Y-95195592D01*
X170871189Y-95192269D01*
X170875896Y-95189766D01*
X170948018Y-95130945D01*
X170948874Y-95130254D01*
X170988073Y-95098962D01*
X170990577Y-95096458D01*
X170991295Y-95095816D01*
X170995628Y-95092115D01*
X171029162Y-95064765D01*
X171058388Y-95029437D01*
X171066377Y-95020658D01*
X177405959Y-88681075D01*
X177468271Y-88647049D01*
X177531894Y-88649676D01*
X177599177Y-88670247D01*
X177600435Y-88670639D01*
X177689006Y-88698735D01*
X177694297Y-88699329D01*
X177699398Y-88700888D01*
X177791963Y-88710290D01*
X177793150Y-88710416D01*
X177822538Y-88713713D01*
X177839430Y-88715608D01*
X177839435Y-88715608D01*
X177842927Y-88716000D01*
X177846452Y-88716000D01*
X177847437Y-88716055D01*
X177853132Y-88716503D01*
X177865042Y-88717713D01*
X177890034Y-88720252D01*
X177890039Y-88720252D01*
X177896162Y-88720874D01*
X177941808Y-88716559D01*
X177953667Y-88716000D01*
X178492393Y-88716000D01*
X178560514Y-88736002D01*
X178572877Y-88745055D01*
X178668126Y-88824132D01*
X178688455Y-88836011D01*
X178741445Y-88866976D01*
X178790169Y-88918614D01*
X178803240Y-88988397D01*
X178776509Y-89054169D01*
X178736055Y-89087527D01*
X178723607Y-89094007D01*
X178719474Y-89097110D01*
X178719471Y-89097112D01*
X178550865Y-89223705D01*
X178544965Y-89228135D01*
X178390629Y-89389638D01*
X178387715Y-89393910D01*
X178387714Y-89393911D01*
X178354554Y-89442522D01*
X178264743Y-89574180D01*
X178239785Y-89627947D01*
X178181474Y-89753569D01*
X178170688Y-89776805D01*
X178110989Y-89992070D01*
X178087251Y-90214195D01*
X178087548Y-90219348D01*
X178087548Y-90219351D01*
X178093011Y-90314090D01*
X178100110Y-90437215D01*
X178101247Y-90442261D01*
X178101248Y-90442267D01*
X178107271Y-90468990D01*
X178149222Y-90655139D01*
X178233266Y-90862116D01*
X178274341Y-90929144D01*
X178346261Y-91046507D01*
X178349987Y-91052588D01*
X178496250Y-91221438D01*
X178668126Y-91364132D01*
X178728449Y-91399382D01*
X178741445Y-91406976D01*
X178790169Y-91458614D01*
X178803240Y-91528397D01*
X178776509Y-91594169D01*
X178736055Y-91627527D01*
X178723607Y-91634007D01*
X178719474Y-91637110D01*
X178719471Y-91637112D01*
X178553562Y-91761680D01*
X178544965Y-91768135D01*
X178390629Y-91929638D01*
X178387715Y-91933910D01*
X178387714Y-91933911D01*
X178358068Y-91977371D01*
X178264743Y-92114180D01*
X178237973Y-92171851D01*
X178180880Y-92294849D01*
X178170688Y-92316805D01*
X178110989Y-92532070D01*
X178087251Y-92754195D01*
X178087548Y-92759348D01*
X178087548Y-92759351D01*
X178093011Y-92854090D01*
X178100110Y-92977215D01*
X178101247Y-92982261D01*
X178101248Y-92982267D01*
X178106439Y-93005300D01*
X178149222Y-93195139D01*
X178187461Y-93289311D01*
X178221514Y-93373173D01*
X178233266Y-93402116D01*
X178274359Y-93469174D01*
X178331721Y-93562780D01*
X178349987Y-93592588D01*
X178496250Y-93761438D01*
X178668126Y-93904132D01*
X178861000Y-94016838D01*
X179069692Y-94096530D01*
X179074760Y-94097561D01*
X179074763Y-94097562D01*
X179182017Y-94119383D01*
X179288597Y-94141067D01*
X179293772Y-94141257D01*
X179293774Y-94141257D01*
X179506673Y-94149064D01*
X179506677Y-94149064D01*
X179511837Y-94149253D01*
X179516957Y-94148597D01*
X179516959Y-94148597D01*
X179728288Y-94121525D01*
X179728289Y-94121525D01*
X179733416Y-94120868D01*
X179738366Y-94119383D01*
X179942429Y-94058161D01*
X179942434Y-94058159D01*
X179947384Y-94056674D01*
X180147994Y-93958396D01*
X180329860Y-93828673D01*
X180488096Y-93670989D01*
X180547594Y-93588189D01*
X180615435Y-93493777D01*
X180618453Y-93489577D01*
X180626308Y-93473685D01*
X180715136Y-93293953D01*
X180715137Y-93293951D01*
X180717430Y-93289311D01*
X180751480Y-93177240D01*
X180780865Y-93080523D01*
X180780867Y-93080515D01*
X180782370Y-93075569D01*
X180811529Y-92854090D01*
X180812386Y-92819020D01*
X180813074Y-92790865D01*
X180813074Y-92790861D01*
X180813156Y-92787500D01*
X180794852Y-92564861D01*
X180740431Y-92348202D01*
X180651354Y-92143340D01*
X180543984Y-91977371D01*
X180532822Y-91960117D01*
X180532820Y-91960114D01*
X180530014Y-91955777D01*
X180379670Y-91790551D01*
X180375619Y-91787352D01*
X180375615Y-91787348D01*
X180208414Y-91655300D01*
X180208410Y-91655298D01*
X180204359Y-91652098D01*
X180163053Y-91629296D01*
X180113084Y-91578864D01*
X180098312Y-91509421D01*
X180123428Y-91443016D01*
X180150780Y-91416409D01*
X180212174Y-91372617D01*
X180329860Y-91288673D01*
X180339443Y-91279124D01*
X180484435Y-91134637D01*
X180488096Y-91130989D01*
X180498099Y-91117069D01*
X180615435Y-90953777D01*
X180618453Y-90949577D01*
X180623784Y-90938792D01*
X180715136Y-90753953D01*
X180715137Y-90753951D01*
X180717430Y-90749311D01*
X180782370Y-90535569D01*
X180811529Y-90314090D01*
X180812386Y-90279020D01*
X180813074Y-90250865D01*
X180813074Y-90250861D01*
X180813156Y-90247500D01*
X180794852Y-90024861D01*
X180740431Y-89808202D01*
X180651354Y-89603340D01*
X180552881Y-89451124D01*
X180532822Y-89420117D01*
X180532820Y-89420114D01*
X180530014Y-89415777D01*
X180379670Y-89250551D01*
X180375619Y-89247352D01*
X180375615Y-89247348D01*
X180208414Y-89115300D01*
X180208410Y-89115298D01*
X180204359Y-89112098D01*
X180163053Y-89089296D01*
X180113084Y-89038864D01*
X180098312Y-88969421D01*
X180123428Y-88903016D01*
X180150780Y-88876409D01*
X180212174Y-88832617D01*
X180329860Y-88748673D01*
X180340291Y-88738279D01*
X180418996Y-88659848D01*
X180488096Y-88590989D01*
X180536066Y-88524232D01*
X180615435Y-88413777D01*
X180618453Y-88409577D01*
X180627241Y-88391797D01*
X180715136Y-88213953D01*
X180715137Y-88213951D01*
X180717430Y-88209311D01*
X180772406Y-88028363D01*
X180780865Y-88000523D01*
X180780865Y-88000521D01*
X180782370Y-87995569D01*
X180811529Y-87774090D01*
X180811932Y-87757596D01*
X180813074Y-87710865D01*
X180813074Y-87710861D01*
X180813156Y-87707500D01*
X180794852Y-87484861D01*
X180740431Y-87268202D01*
X180651354Y-87063340D01*
X180552771Y-86910954D01*
X180532822Y-86880117D01*
X180532820Y-86880114D01*
X180530014Y-86875777D01*
X180379670Y-86710551D01*
X180375619Y-86707352D01*
X180375615Y-86707348D01*
X180208414Y-86575300D01*
X180208410Y-86575298D01*
X180204359Y-86572098D01*
X180199398Y-86569359D01*
X180162569Y-86549029D01*
X180112598Y-86498597D01*
X180097826Y-86429154D01*
X180122942Y-86362748D01*
X180150294Y-86336141D01*
X180325328Y-86211292D01*
X180333200Y-86204639D01*
X180484052Y-86054312D01*
X180490730Y-86046465D01*
X180615003Y-85873520D01*
X180620313Y-85864683D01*
X180714670Y-85673767D01*
X180718469Y-85664172D01*
X180780377Y-85460410D01*
X180782555Y-85450337D01*
X180783986Y-85439462D01*
X180781775Y-85425278D01*
X180768617Y-85421500D01*
X179322000Y-85421500D01*
X179253879Y-85401498D01*
X179207386Y-85347842D01*
X179196000Y-85295500D01*
X179196000Y-85039500D01*
X179216002Y-84971379D01*
X179269658Y-84924886D01*
X179322000Y-84913500D01*
X180768344Y-84913500D01*
X180781875Y-84909527D01*
X180783180Y-84900447D01*
X180741214Y-84733375D01*
X180737894Y-84723624D01*
X180652972Y-84528314D01*
X180648105Y-84519239D01*
X180532426Y-84340426D01*
X180526136Y-84332257D01*
X180382806Y-84174740D01*
X180375273Y-84167715D01*
X180208139Y-84035722D01*
X180199556Y-84030020D01*
X180162602Y-84009620D01*
X180112631Y-83959187D01*
X180097859Y-83889745D01*
X180122975Y-83823339D01*
X180150327Y-83796732D01*
X180211741Y-83752926D01*
X180329860Y-83668673D01*
X180339449Y-83659118D01*
X180484435Y-83514637D01*
X180488096Y-83510989D01*
X180505971Y-83486114D01*
X180615435Y-83333777D01*
X180618453Y-83329577D01*
X180631962Y-83302245D01*
X180715136Y-83133953D01*
X180715137Y-83133951D01*
X180717430Y-83129311D01*
X180782370Y-82915569D01*
X180811529Y-82694090D01*
X180812386Y-82659020D01*
X180813074Y-82630865D01*
X180813074Y-82630861D01*
X180813156Y-82627500D01*
X180794852Y-82404861D01*
X180740431Y-82188202D01*
X180651354Y-81983340D01*
X180571056Y-81859218D01*
X180532822Y-81800117D01*
X180532820Y-81800114D01*
X180530014Y-81795777D01*
X180379670Y-81630551D01*
X180375619Y-81627352D01*
X180375615Y-81627348D01*
X180208414Y-81495300D01*
X180208410Y-81495298D01*
X180204359Y-81492098D01*
X180163053Y-81469296D01*
X180113084Y-81418864D01*
X180098312Y-81349421D01*
X180123428Y-81283016D01*
X180150780Y-81256409D01*
X180214670Y-81210837D01*
X180329860Y-81128673D01*
X180339449Y-81119118D01*
X180484435Y-80974637D01*
X180488096Y-80970989D01*
X180505971Y-80946114D01*
X180615435Y-80793777D01*
X180618453Y-80789577D01*
X180627241Y-80771797D01*
X180715136Y-80593953D01*
X180715137Y-80593951D01*
X180717430Y-80589311D01*
X180782370Y-80375569D01*
X180811529Y-80154090D01*
X180813156Y-80087500D01*
X180794852Y-79864861D01*
X180740431Y-79648202D01*
X180651354Y-79443340D01*
X180547316Y-79282522D01*
X180532822Y-79260117D01*
X180532820Y-79260114D01*
X180530014Y-79255777D01*
X180379670Y-79090551D01*
X180375619Y-79087352D01*
X180375615Y-79087348D01*
X180208414Y-78955300D01*
X180208410Y-78955298D01*
X180204359Y-78952098D01*
X180008789Y-78844138D01*
X180003920Y-78842414D01*
X180003916Y-78842412D01*
X179803087Y-78771295D01*
X179803083Y-78771294D01*
X179798212Y-78769569D01*
X179793119Y-78768662D01*
X179793116Y-78768661D01*
X179583373Y-78731300D01*
X179583367Y-78731299D01*
X179578284Y-78730394D01*
X179504452Y-78729492D01*
X179360081Y-78727728D01*
X179360079Y-78727728D01*
X179354911Y-78727665D01*
X179134091Y-78761455D01*
X178921756Y-78830857D01*
X178723607Y-78934007D01*
X178719474Y-78937110D01*
X178719471Y-78937112D01*
X178636653Y-78999294D01*
X178570168Y-79024200D01*
X178500773Y-79009208D01*
X178450499Y-78959077D01*
X178435000Y-78898534D01*
X178435000Y-70497744D01*
X178455002Y-70429623D01*
X178508658Y-70383130D01*
X178578932Y-70373026D01*
X178643512Y-70402520D01*
X178656237Y-70415246D01*
X178692865Y-70457531D01*
X178692869Y-70457535D01*
X178696250Y-70461438D01*
X178868126Y-70604132D01*
X179061000Y-70716838D01*
X179269692Y-70796530D01*
X179274760Y-70797561D01*
X179274763Y-70797562D01*
X179382008Y-70819381D01*
X179488597Y-70841067D01*
X179493772Y-70841257D01*
X179493774Y-70841257D01*
X179706673Y-70849064D01*
X179706677Y-70849064D01*
X179711837Y-70849253D01*
X179716957Y-70848597D01*
X179716959Y-70848597D01*
X179928288Y-70821525D01*
X179928289Y-70821525D01*
X179933416Y-70820868D01*
X179938366Y-70819383D01*
X180142429Y-70758161D01*
X180142434Y-70758159D01*
X180147384Y-70756674D01*
X180347994Y-70658396D01*
X180529860Y-70528673D01*
X180688096Y-70370989D01*
X180818453Y-70189577D01*
X180876634Y-70071857D01*
X180915136Y-69993953D01*
X180915137Y-69993951D01*
X180917430Y-69989311D01*
X180982370Y-69775569D01*
X181011529Y-69554090D01*
X181013156Y-69487500D01*
X180994852Y-69264861D01*
X180940431Y-69048202D01*
X180851354Y-68843340D01*
X180730014Y-68655777D01*
X180579670Y-68490551D01*
X180575619Y-68487352D01*
X180575615Y-68487348D01*
X180408414Y-68355300D01*
X180408410Y-68355298D01*
X180404359Y-68352098D01*
X180363053Y-68329296D01*
X180313084Y-68278864D01*
X180298312Y-68209421D01*
X180323428Y-68143016D01*
X180350780Y-68116409D01*
X180407189Y-68076173D01*
X180529860Y-67988673D01*
X180688096Y-67830989D01*
X180818453Y-67649577D01*
X180876634Y-67531857D01*
X180915136Y-67453953D01*
X180915137Y-67453951D01*
X180917430Y-67449311D01*
X180963949Y-67296199D01*
X180980865Y-67240523D01*
X180980865Y-67240521D01*
X180982370Y-67235569D01*
X181011529Y-67014090D01*
X181011706Y-67006851D01*
X181013074Y-66950865D01*
X181013074Y-66950861D01*
X181013156Y-66947500D01*
X180994852Y-66724861D01*
X180940431Y-66508202D01*
X180851354Y-66303340D01*
X180805064Y-66231787D01*
X180732822Y-66120117D01*
X180732820Y-66120114D01*
X180730014Y-66115777D01*
X180579670Y-65950551D01*
X180575619Y-65947352D01*
X180575615Y-65947348D01*
X180408414Y-65815300D01*
X180408410Y-65815298D01*
X180404359Y-65812098D01*
X180363053Y-65789296D01*
X180313084Y-65738864D01*
X180298312Y-65669421D01*
X180323428Y-65603016D01*
X180350780Y-65576409D01*
X180407189Y-65536173D01*
X180529860Y-65448673D01*
X180565814Y-65412845D01*
X180678965Y-65300088D01*
X180688096Y-65290989D01*
X180738954Y-65220213D01*
X180815435Y-65113777D01*
X180818453Y-65109577D01*
X180876634Y-64991857D01*
X180915136Y-64913953D01*
X180915137Y-64913951D01*
X180917430Y-64909311D01*
X180957344Y-64777939D01*
X180980865Y-64700523D01*
X180980865Y-64700521D01*
X180982370Y-64695569D01*
X181011529Y-64474090D01*
X181013156Y-64407500D01*
X180994852Y-64184861D01*
X180940431Y-63968202D01*
X180851354Y-63763340D01*
X180730014Y-63575777D01*
X180579670Y-63410551D01*
X180575619Y-63407352D01*
X180575615Y-63407348D01*
X180408414Y-63275300D01*
X180408410Y-63275298D01*
X180404359Y-63272098D01*
X180362569Y-63249029D01*
X180312598Y-63198597D01*
X180297826Y-63129154D01*
X180322942Y-63062748D01*
X180350294Y-63036141D01*
X180525328Y-62911292D01*
X180533200Y-62904639D01*
X180684052Y-62754312D01*
X180690730Y-62746465D01*
X180815003Y-62573520D01*
X180820313Y-62564683D01*
X180914670Y-62373767D01*
X180918469Y-62364172D01*
X180980377Y-62160410D01*
X180982555Y-62150337D01*
X180983986Y-62139462D01*
X180981775Y-62125278D01*
X180968617Y-62121500D01*
X178333225Y-62121500D01*
X178319694Y-62125473D01*
X178318257Y-62135466D01*
X178348565Y-62269946D01*
X178351645Y-62279775D01*
X178431770Y-62477103D01*
X178436413Y-62486294D01*
X178547694Y-62667888D01*
X178553777Y-62676199D01*
X178693213Y-62837167D01*
X178700580Y-62844383D01*
X178864434Y-62980416D01*
X178872881Y-62986331D01*
X178941969Y-63026703D01*
X178990693Y-63078342D01*
X179003764Y-63148125D01*
X178977033Y-63213896D01*
X178936584Y-63247252D01*
X178923607Y-63254007D01*
X178919474Y-63257110D01*
X178919471Y-63257112D01*
X178778708Y-63362800D01*
X178744965Y-63388135D01*
X178590629Y-63549638D01*
X178587715Y-63553910D01*
X178587714Y-63553911D01*
X178533490Y-63633401D01*
X178464743Y-63734180D01*
X178426113Y-63817401D01*
X178378941Y-63919026D01*
X178370688Y-63936805D01*
X178310989Y-64152070D01*
X178310440Y-64157207D01*
X178295590Y-64296161D01*
X178268462Y-64361771D01*
X178259398Y-64371867D01*
X176757121Y-65874145D01*
X176746978Y-65883247D01*
X176717475Y-65906968D01*
X176713508Y-65911696D01*
X176685209Y-65945421D01*
X176682028Y-65949069D01*
X176680385Y-65950881D01*
X176678191Y-65953075D01*
X176650858Y-65986349D01*
X176650196Y-65987147D01*
X176590346Y-66058474D01*
X176587778Y-66063144D01*
X176584397Y-66067261D01*
X176558383Y-66115777D01*
X176540523Y-66149086D01*
X176539894Y-66150245D01*
X176498038Y-66226381D01*
X176498035Y-66226389D01*
X176495067Y-66231787D01*
X176493455Y-66236869D01*
X176490938Y-66241563D01*
X176463738Y-66330531D01*
X176463418Y-66331559D01*
X176435265Y-66420306D01*
X176434671Y-66425602D01*
X176433113Y-66430698D01*
X176425101Y-66509577D01*
X176423718Y-66523187D01*
X176423589Y-66524393D01*
X176418000Y-66574227D01*
X176418000Y-66577754D01*
X176417945Y-66578739D01*
X176417498Y-66584419D01*
X176413126Y-66627462D01*
X176415724Y-66654947D01*
X176417441Y-66673109D01*
X176418000Y-66684967D01*
X176418000Y-86764375D01*
X176397998Y-86832496D01*
X176381095Y-86853470D01*
X169934271Y-93300295D01*
X169871959Y-93334321D01*
X169845176Y-93337200D01*
X168172849Y-93337200D01*
X168104728Y-93317198D01*
X168058235Y-93263542D01*
X168048131Y-93193268D01*
X168052290Y-93174572D01*
X168079964Y-93083489D01*
X168082370Y-93075569D01*
X168111529Y-92854090D01*
X168112386Y-92819020D01*
X168113074Y-92790865D01*
X168113074Y-92790861D01*
X168113156Y-92787500D01*
X168094852Y-92564861D01*
X168040431Y-92348202D01*
X167951354Y-92143340D01*
X167843984Y-91977371D01*
X167832822Y-91960117D01*
X167832820Y-91960114D01*
X167830014Y-91955777D01*
X167679670Y-91790551D01*
X167675619Y-91787352D01*
X167675615Y-91787348D01*
X167508414Y-91655300D01*
X167508410Y-91655298D01*
X167504359Y-91652098D01*
X167463053Y-91629296D01*
X167413084Y-91578864D01*
X167398312Y-91509421D01*
X167423428Y-91443016D01*
X167450780Y-91416409D01*
X167512174Y-91372617D01*
X167629860Y-91288673D01*
X167639443Y-91279124D01*
X167784435Y-91134637D01*
X167788096Y-91130989D01*
X167798099Y-91117069D01*
X167915435Y-90953777D01*
X167918453Y-90949577D01*
X167923784Y-90938792D01*
X168015136Y-90753953D01*
X168015137Y-90753951D01*
X168017430Y-90749311D01*
X168082370Y-90535569D01*
X168111529Y-90314090D01*
X168112386Y-90279020D01*
X168113074Y-90250865D01*
X168113074Y-90250861D01*
X168113156Y-90247500D01*
X168094852Y-90024861D01*
X168040431Y-89808202D01*
X167951354Y-89603340D01*
X167852881Y-89451124D01*
X167832822Y-89420117D01*
X167832820Y-89420114D01*
X167830014Y-89415777D01*
X167679670Y-89250551D01*
X167675619Y-89247352D01*
X167675615Y-89247348D01*
X167508414Y-89115300D01*
X167508410Y-89115298D01*
X167504359Y-89112098D01*
X167463053Y-89089296D01*
X167413084Y-89038864D01*
X167398312Y-88969421D01*
X167423428Y-88903016D01*
X167450780Y-88876409D01*
X167512174Y-88832617D01*
X167629860Y-88748673D01*
X167640291Y-88738279D01*
X167718996Y-88659848D01*
X167788096Y-88590989D01*
X167836066Y-88524232D01*
X167915435Y-88413777D01*
X167918453Y-88409577D01*
X167927241Y-88391797D01*
X168015136Y-88213953D01*
X168015137Y-88213951D01*
X168017430Y-88209311D01*
X168072406Y-88028363D01*
X168080865Y-88000523D01*
X168080865Y-88000521D01*
X168082370Y-87995569D01*
X168106232Y-87814323D01*
X168134955Y-87749396D01*
X168142059Y-87741675D01*
X169175379Y-86708355D01*
X169185522Y-86699253D01*
X169210218Y-86679397D01*
X169215025Y-86675532D01*
X169247292Y-86637078D01*
X169250472Y-86633431D01*
X169252115Y-86631619D01*
X169254309Y-86629425D01*
X169281642Y-86596151D01*
X169282348Y-86595300D01*
X169288245Y-86588273D01*
X169342154Y-86524026D01*
X169344722Y-86519356D01*
X169348103Y-86515239D01*
X169391977Y-86433414D01*
X169392606Y-86432255D01*
X169434462Y-86356119D01*
X169434465Y-86356111D01*
X169437433Y-86350713D01*
X169439045Y-86345631D01*
X169441562Y-86340937D01*
X169468762Y-86251969D01*
X169469108Y-86250858D01*
X169474268Y-86234594D01*
X169497235Y-86162194D01*
X169497829Y-86156898D01*
X169499387Y-86151802D01*
X169508790Y-86059243D01*
X169508911Y-86058107D01*
X169514500Y-86008273D01*
X169514500Y-86004746D01*
X169514555Y-86003761D01*
X169515002Y-85998081D01*
X169519374Y-85955038D01*
X169515059Y-85909391D01*
X169514500Y-85897533D01*
X169514500Y-66025342D01*
X169515237Y-66011735D01*
X169518659Y-65980237D01*
X169518659Y-65980232D01*
X169519324Y-65974111D01*
X169514950Y-65924109D01*
X169514621Y-65919284D01*
X169514500Y-65916813D01*
X169514500Y-65913731D01*
X169510309Y-65870989D01*
X169510187Y-65869674D01*
X169505042Y-65810865D01*
X169502087Y-65777087D01*
X169500600Y-65771968D01*
X169500080Y-65766667D01*
X169473218Y-65677694D01*
X169472862Y-65676494D01*
X169454776Y-65614242D01*
X169446909Y-65587163D01*
X169444455Y-65582429D01*
X169442916Y-65577331D01*
X169432216Y-65557207D01*
X169399316Y-65495331D01*
X169398702Y-65494163D01*
X169358726Y-65417041D01*
X169358725Y-65417040D01*
X169355892Y-65411574D01*
X169352569Y-65407411D01*
X169350066Y-65402704D01*
X169346172Y-65397929D01*
X169346167Y-65397922D01*
X169291272Y-65330614D01*
X169290488Y-65329643D01*
X169259262Y-65290527D01*
X169256758Y-65288023D01*
X169256116Y-65287305D01*
X169252415Y-65282972D01*
X169225065Y-65249438D01*
X169189737Y-65220212D01*
X169180958Y-65212223D01*
X168340199Y-64371464D01*
X168306173Y-64309152D01*
X168303718Y-64292694D01*
X168295276Y-64190021D01*
X168294852Y-64184861D01*
X168240431Y-63968202D01*
X168151354Y-63763340D01*
X168030014Y-63575777D01*
X167879670Y-63410551D01*
X167875619Y-63407352D01*
X167875615Y-63407348D01*
X167708414Y-63275300D01*
X167708410Y-63275298D01*
X167704359Y-63272098D01*
X167662569Y-63249029D01*
X167612598Y-63198597D01*
X167597826Y-63129154D01*
X167622942Y-63062748D01*
X167650294Y-63036141D01*
X167825328Y-62911292D01*
X167833200Y-62904639D01*
X167984052Y-62754312D01*
X167990730Y-62746465D01*
X168115003Y-62573520D01*
X168120313Y-62564683D01*
X168214670Y-62373767D01*
X168218469Y-62364172D01*
X168280377Y-62160410D01*
X168282555Y-62150337D01*
X168283986Y-62139462D01*
X168281775Y-62125278D01*
X168268617Y-62121500D01*
X166822000Y-62121500D01*
X166753879Y-62101498D01*
X166707386Y-62047842D01*
X166696000Y-61995500D01*
X166696000Y-61739500D01*
X166716002Y-61671379D01*
X166769658Y-61624886D01*
X166822000Y-61613500D01*
X168268344Y-61613500D01*
X168281875Y-61609527D01*
X168283180Y-61600447D01*
X168241214Y-61433375D01*
X168237894Y-61423624D01*
X168152972Y-61228314D01*
X168148105Y-61219239D01*
X168032426Y-61040426D01*
X168026136Y-61032257D01*
X167882806Y-60874740D01*
X167875273Y-60867715D01*
X167708139Y-60735722D01*
X167699556Y-60730020D01*
X167662602Y-60709620D01*
X167612631Y-60659187D01*
X167597859Y-60589745D01*
X167622975Y-60523339D01*
X167650327Y-60496732D01*
X167707189Y-60456173D01*
X167829860Y-60368673D01*
X167988096Y-60210989D01*
X168047594Y-60128189D01*
X168115435Y-60033777D01*
X168118453Y-60029577D01*
X168176634Y-59911857D01*
X168215136Y-59833953D01*
X168215137Y-59833951D01*
X168217430Y-59829311D01*
X168282370Y-59615569D01*
X168311529Y-59394090D01*
X168313156Y-59327500D01*
X168310418Y-59294195D01*
X178287251Y-59294195D01*
X178287548Y-59299348D01*
X178287548Y-59299351D01*
X178297295Y-59468397D01*
X178300110Y-59517215D01*
X178301247Y-59522261D01*
X178301248Y-59522267D01*
X178318686Y-59599643D01*
X178349222Y-59735139D01*
X178433266Y-59942116D01*
X178435965Y-59946520D01*
X178543056Y-60121277D01*
X178549987Y-60132588D01*
X178696250Y-60301438D01*
X178868126Y-60444132D01*
X178924727Y-60477207D01*
X178941955Y-60487274D01*
X178990679Y-60538912D01*
X179003750Y-60608695D01*
X178977019Y-60674467D01*
X178936562Y-60707827D01*
X178928457Y-60712046D01*
X178919738Y-60717536D01*
X178749433Y-60845405D01*
X178741726Y-60852248D01*
X178594590Y-61006217D01*
X178588104Y-61014227D01*
X178468098Y-61190149D01*
X178463000Y-61199123D01*
X178373338Y-61392283D01*
X178369775Y-61401970D01*
X178314389Y-61601683D01*
X178315912Y-61610107D01*
X178328292Y-61613500D01*
X180968344Y-61613500D01*
X180981875Y-61609527D01*
X180983180Y-61600447D01*
X180941214Y-61433375D01*
X180937894Y-61423624D01*
X180852972Y-61228314D01*
X180848105Y-61219239D01*
X180732426Y-61040426D01*
X180726136Y-61032257D01*
X180582806Y-60874740D01*
X180575273Y-60867715D01*
X180408139Y-60735722D01*
X180399556Y-60730020D01*
X180362602Y-60709620D01*
X180312631Y-60659187D01*
X180297859Y-60589745D01*
X180322975Y-60523339D01*
X180350327Y-60496732D01*
X180407189Y-60456173D01*
X180529860Y-60368673D01*
X180688096Y-60210989D01*
X180747594Y-60128189D01*
X180815435Y-60033777D01*
X180818453Y-60029577D01*
X180876634Y-59911857D01*
X180915136Y-59833953D01*
X180915137Y-59833951D01*
X180917430Y-59829311D01*
X180982370Y-59615569D01*
X181011529Y-59394090D01*
X181013156Y-59327500D01*
X180994852Y-59104861D01*
X180940431Y-58888202D01*
X180851354Y-58683340D01*
X180767293Y-58553401D01*
X180732822Y-58500117D01*
X180732820Y-58500114D01*
X180730014Y-58495777D01*
X180579670Y-58330551D01*
X180575619Y-58327352D01*
X180575615Y-58327348D01*
X180408414Y-58195300D01*
X180408410Y-58195298D01*
X180404359Y-58192098D01*
X180363053Y-58169296D01*
X180313084Y-58118864D01*
X180298312Y-58049421D01*
X180323428Y-57983016D01*
X180350780Y-57956409D01*
X180399029Y-57921993D01*
X180529860Y-57828673D01*
X180585594Y-57773134D01*
X180673400Y-57685634D01*
X180688096Y-57670989D01*
X180747594Y-57588189D01*
X180815435Y-57493777D01*
X180818453Y-57489577D01*
X180823304Y-57479763D01*
X180915136Y-57293953D01*
X180915137Y-57293951D01*
X180917430Y-57289311D01*
X180954246Y-57168135D01*
X180980865Y-57080523D01*
X180980865Y-57080521D01*
X180982370Y-57075569D01*
X181011529Y-56854090D01*
X181013156Y-56787500D01*
X180994852Y-56564861D01*
X180940431Y-56348202D01*
X180851354Y-56143340D01*
X180743657Y-55976866D01*
X180732822Y-55960117D01*
X180732820Y-55960114D01*
X180730014Y-55955777D01*
X180579670Y-55790551D01*
X180575619Y-55787352D01*
X180575615Y-55787348D01*
X180408414Y-55655300D01*
X180408410Y-55655298D01*
X180404359Y-55652098D01*
X180208789Y-55544138D01*
X180203920Y-55542414D01*
X180203916Y-55542412D01*
X180003087Y-55471295D01*
X180003083Y-55471294D01*
X179998212Y-55469569D01*
X179993119Y-55468662D01*
X179993116Y-55468661D01*
X179783373Y-55431300D01*
X179783367Y-55431299D01*
X179778284Y-55430394D01*
X179704452Y-55429492D01*
X179560081Y-55427728D01*
X179560079Y-55427728D01*
X179554911Y-55427665D01*
X179334091Y-55461455D01*
X179121756Y-55530857D01*
X178923607Y-55634007D01*
X178919474Y-55637110D01*
X178919471Y-55637112D01*
X178749100Y-55765030D01*
X178744965Y-55768135D01*
X178590629Y-55929638D01*
X178587715Y-55933910D01*
X178587714Y-55933911D01*
X178558412Y-55976866D01*
X178464743Y-56114180D01*
X178370688Y-56316805D01*
X178310989Y-56532070D01*
X178287251Y-56754195D01*
X178287548Y-56759348D01*
X178287548Y-56759351D01*
X178293011Y-56854090D01*
X178300110Y-56977215D01*
X178301247Y-56982261D01*
X178301248Y-56982267D01*
X178312909Y-57034007D01*
X178349222Y-57195139D01*
X178433266Y-57402116D01*
X178435965Y-57406520D01*
X178543056Y-57581277D01*
X178549987Y-57592588D01*
X178696250Y-57761438D01*
X178868126Y-57904132D01*
X178924727Y-57937207D01*
X178941445Y-57946976D01*
X178990169Y-57998614D01*
X179003240Y-58068397D01*
X178976509Y-58134169D01*
X178936055Y-58167527D01*
X178923607Y-58174007D01*
X178919474Y-58177110D01*
X178919471Y-58177112D01*
X178749100Y-58305030D01*
X178744965Y-58308135D01*
X178590629Y-58469638D01*
X178464743Y-58654180D01*
X178370688Y-58856805D01*
X178310989Y-59072070D01*
X178287251Y-59294195D01*
X168310418Y-59294195D01*
X168294852Y-59104861D01*
X168240431Y-58888202D01*
X168151354Y-58683340D01*
X168067293Y-58553401D01*
X168032822Y-58500117D01*
X168032820Y-58500114D01*
X168030014Y-58495777D01*
X168011626Y-58475569D01*
X167882798Y-58333988D01*
X167851746Y-58270142D01*
X167860141Y-58199643D01*
X167905317Y-58144875D01*
X167931761Y-58131206D01*
X168038297Y-58091267D01*
X168046705Y-58088115D01*
X168163261Y-58000761D01*
X168250615Y-57884205D01*
X168301745Y-57747816D01*
X168308500Y-57685634D01*
X168308500Y-55889366D01*
X168301745Y-55827184D01*
X168250615Y-55690795D01*
X168163261Y-55574239D01*
X168046705Y-55486885D01*
X167910316Y-55435755D01*
X167848134Y-55429000D01*
X167648120Y-55429000D01*
X167579999Y-55408998D01*
X167533506Y-55355342D01*
X167532425Y-55352565D01*
X167530215Y-55347868D01*
X167527764Y-55340325D01*
X167523514Y-55333628D01*
X167523350Y-55333369D01*
X167512585Y-55312242D01*
X167512471Y-55311954D01*
X167512468Y-55311949D01*
X167509552Y-55304583D01*
X167504896Y-55298175D01*
X167504893Y-55298169D01*
X167476542Y-55259148D01*
X167472092Y-55252601D01*
X167442000Y-55205182D01*
X167435993Y-55199541D01*
X167420312Y-55181754D01*
X167420134Y-55181509D01*
X167420132Y-55181507D01*
X167415472Y-55175093D01*
X167409362Y-55170038D01*
X167372204Y-55139297D01*
X167366270Y-55134066D01*
X167331102Y-55101042D01*
X167331099Y-55101040D01*
X167325321Y-55095614D01*
X167318097Y-55091642D01*
X167298494Y-55078319D01*
X167298254Y-55078120D01*
X167298247Y-55078116D01*
X167292144Y-55073067D01*
X167241324Y-55049153D01*
X167234292Y-55045571D01*
X167185060Y-55018505D01*
X167177385Y-55016535D01*
X167177379Y-55016532D01*
X167177081Y-55016456D01*
X167154772Y-55008424D01*
X167154497Y-55008294D01*
X167154489Y-55008291D01*
X167147318Y-55004917D01*
X167092151Y-54994394D01*
X167084442Y-54992671D01*
X167050449Y-54983943D01*
X167037707Y-54980671D01*
X167037706Y-54980671D01*
X167030030Y-54978700D01*
X167021793Y-54978700D01*
X166998184Y-54976468D01*
X166997881Y-54976410D01*
X166997877Y-54976410D01*
X166990094Y-54974925D01*
X166934049Y-54978451D01*
X166926138Y-54978700D01*
X166631494Y-54978700D01*
X166563373Y-54958698D01*
X166542399Y-54941795D01*
X160536321Y-48935716D01*
X160502295Y-48873404D01*
X160507360Y-48802589D01*
X160549851Y-48745795D01*
X160569350Y-48731181D01*
X160593261Y-48713261D01*
X160680615Y-48596705D01*
X160731745Y-48460316D01*
X160738500Y-48398134D01*
X160738500Y-46601866D01*
X160731745Y-46539684D01*
X160680615Y-46403295D01*
X160593261Y-46286739D01*
X160476705Y-46199385D01*
X160340316Y-46148255D01*
X160278134Y-46141500D01*
X158481866Y-46141500D01*
X158419684Y-46148255D01*
X158283295Y-46199385D01*
X158166739Y-46286739D01*
X158079385Y-46403295D01*
X158076233Y-46411703D01*
X158034919Y-46521907D01*
X157992277Y-46578671D01*
X157925716Y-46603371D01*
X157856367Y-46588163D01*
X157823743Y-46562476D01*
X157773151Y-46506875D01*
X157773142Y-46506866D01*
X157769670Y-46503051D01*
X157765619Y-46499852D01*
X157765615Y-46499848D01*
X157598414Y-46367800D01*
X157598410Y-46367798D01*
X157594359Y-46364598D01*
X157398789Y-46256638D01*
X157393920Y-46254914D01*
X157393916Y-46254912D01*
X157193087Y-46183795D01*
X157193083Y-46183794D01*
X157188212Y-46182069D01*
X157183119Y-46181162D01*
X157183116Y-46181161D01*
X156973373Y-46143800D01*
X156973367Y-46143799D01*
X156968284Y-46142894D01*
X156894452Y-46141992D01*
X156750081Y-46140228D01*
X156750079Y-46140228D01*
X156744911Y-46140165D01*
X156524091Y-46173955D01*
X156311756Y-46243357D01*
X156113607Y-46346507D01*
X156109474Y-46349610D01*
X156109471Y-46349612D01*
X155974134Y-46451226D01*
X155934965Y-46480635D01*
X155895525Y-46521907D01*
X155841280Y-46578671D01*
X155780629Y-46642138D01*
X155673201Y-46799621D01*
X155618293Y-46844621D01*
X155547768Y-46852792D01*
X155484021Y-46821538D01*
X155463324Y-46797054D01*
X155382822Y-46672617D01*
X155382820Y-46672614D01*
X155380014Y-46668277D01*
X155229670Y-46503051D01*
X155225619Y-46499852D01*
X155225615Y-46499848D01*
X155058414Y-46367800D01*
X155058410Y-46367798D01*
X155054359Y-46364598D01*
X154858789Y-46256638D01*
X154853920Y-46254914D01*
X154853916Y-46254912D01*
X154653087Y-46183795D01*
X154653083Y-46183794D01*
X154648212Y-46182069D01*
X154643119Y-46181162D01*
X154643116Y-46181161D01*
X154433373Y-46143800D01*
X154433367Y-46143799D01*
X154428284Y-46142894D01*
X154354452Y-46141992D01*
X154210081Y-46140228D01*
X154210079Y-46140228D01*
X154204911Y-46140165D01*
X153984091Y-46173955D01*
X153771756Y-46243357D01*
X153573607Y-46346507D01*
X153569474Y-46349610D01*
X153569471Y-46349612D01*
X153434134Y-46451226D01*
X153394965Y-46480635D01*
X153355525Y-46521907D01*
X153301280Y-46578671D01*
X153240629Y-46642138D01*
X153133201Y-46799621D01*
X153078293Y-46844621D01*
X153007768Y-46852792D01*
X152944021Y-46821538D01*
X152923324Y-46797054D01*
X152842822Y-46672617D01*
X152842820Y-46672614D01*
X152840014Y-46668277D01*
X152689670Y-46503051D01*
X152685619Y-46499852D01*
X152685615Y-46499848D01*
X152518414Y-46367800D01*
X152518410Y-46367798D01*
X152514359Y-46364598D01*
X152318789Y-46256638D01*
X152313920Y-46254914D01*
X152313916Y-46254912D01*
X152113087Y-46183795D01*
X152113083Y-46183794D01*
X152108212Y-46182069D01*
X152103119Y-46181162D01*
X152103116Y-46181161D01*
X151893373Y-46143800D01*
X151893367Y-46143799D01*
X151888284Y-46142894D01*
X151814452Y-46141992D01*
X151670081Y-46140228D01*
X151670079Y-46140228D01*
X151664911Y-46140165D01*
X151444091Y-46173955D01*
X151231756Y-46243357D01*
X151033607Y-46346507D01*
X151029474Y-46349610D01*
X151029471Y-46349612D01*
X150894134Y-46451226D01*
X150854965Y-46480635D01*
X150815525Y-46521907D01*
X150761280Y-46578671D01*
X150700629Y-46642138D01*
X150593201Y-46799621D01*
X150538293Y-46844621D01*
X150467768Y-46852792D01*
X150404021Y-46821538D01*
X150383324Y-46797054D01*
X150302822Y-46672617D01*
X150302820Y-46672614D01*
X150300014Y-46668277D01*
X150149670Y-46503051D01*
X150145619Y-46499852D01*
X150145615Y-46499848D01*
X149978414Y-46367800D01*
X149978410Y-46367798D01*
X149974359Y-46364598D01*
X149778789Y-46256638D01*
X149773920Y-46254914D01*
X149773916Y-46254912D01*
X149573087Y-46183795D01*
X149573083Y-46183794D01*
X149568212Y-46182069D01*
X149563119Y-46181162D01*
X149563116Y-46181161D01*
X149353373Y-46143800D01*
X149353367Y-46143799D01*
X149348284Y-46142894D01*
X149274452Y-46141992D01*
X149130081Y-46140228D01*
X149130079Y-46140228D01*
X149124911Y-46140165D01*
X148904091Y-46173955D01*
X148691756Y-46243357D01*
X148493607Y-46346507D01*
X148489474Y-46349610D01*
X148489471Y-46349612D01*
X148354134Y-46451226D01*
X148314965Y-46480635D01*
X148275525Y-46521907D01*
X148221280Y-46578671D01*
X148160629Y-46642138D01*
X148053201Y-46799621D01*
X147998293Y-46844621D01*
X147927768Y-46852792D01*
X147864021Y-46821538D01*
X147843324Y-46797054D01*
X147762822Y-46672617D01*
X147762820Y-46672614D01*
X147760014Y-46668277D01*
X147609670Y-46503051D01*
X147605619Y-46499852D01*
X147605615Y-46499848D01*
X147438414Y-46367800D01*
X147438410Y-46367798D01*
X147434359Y-46364598D01*
X147238789Y-46256638D01*
X147233920Y-46254914D01*
X147233916Y-46254912D01*
X147033087Y-46183795D01*
X147033083Y-46183794D01*
X147028212Y-46182069D01*
X147023119Y-46181162D01*
X147023116Y-46181161D01*
X146813373Y-46143800D01*
X146813367Y-46143799D01*
X146808284Y-46142894D01*
X146734452Y-46141992D01*
X146590081Y-46140228D01*
X146590079Y-46140228D01*
X146584911Y-46140165D01*
X146364091Y-46173955D01*
X146151756Y-46243357D01*
X145953607Y-46346507D01*
X145949474Y-46349610D01*
X145949471Y-46349612D01*
X145814134Y-46451226D01*
X145774965Y-46480635D01*
X145735525Y-46521907D01*
X145681280Y-46578671D01*
X145620629Y-46642138D01*
X145513201Y-46799621D01*
X145458293Y-46844621D01*
X145387768Y-46852792D01*
X145324021Y-46821538D01*
X145303324Y-46797054D01*
X145222822Y-46672617D01*
X145222820Y-46672614D01*
X145220014Y-46668277D01*
X145069670Y-46503051D01*
X145065619Y-46499852D01*
X145065615Y-46499848D01*
X144898414Y-46367800D01*
X144898410Y-46367798D01*
X144894359Y-46364598D01*
X144698789Y-46256638D01*
X144693920Y-46254914D01*
X144693916Y-46254912D01*
X144493087Y-46183795D01*
X144493083Y-46183794D01*
X144488212Y-46182069D01*
X144483119Y-46181162D01*
X144483116Y-46181161D01*
X144273373Y-46143800D01*
X144273367Y-46143799D01*
X144268284Y-46142894D01*
X144194452Y-46141992D01*
X144050081Y-46140228D01*
X144050079Y-46140228D01*
X144044911Y-46140165D01*
X143824091Y-46173955D01*
X143611756Y-46243357D01*
X143413607Y-46346507D01*
X143409474Y-46349610D01*
X143409471Y-46349612D01*
X143274134Y-46451226D01*
X143234965Y-46480635D01*
X143195525Y-46521907D01*
X143141280Y-46578671D01*
X143080629Y-46642138D01*
X142973201Y-46799621D01*
X142918293Y-46844621D01*
X142847768Y-46852792D01*
X142784021Y-46821538D01*
X142763324Y-46797054D01*
X142682822Y-46672617D01*
X142682820Y-46672614D01*
X142680014Y-46668277D01*
X142529670Y-46503051D01*
X142525619Y-46499852D01*
X142525615Y-46499848D01*
X142358414Y-46367800D01*
X142358410Y-46367798D01*
X142354359Y-46364598D01*
X142158789Y-46256638D01*
X142153920Y-46254914D01*
X142153916Y-46254912D01*
X141953087Y-46183795D01*
X141953083Y-46183794D01*
X141948212Y-46182069D01*
X141943119Y-46181162D01*
X141943116Y-46181161D01*
X141733373Y-46143800D01*
X141733367Y-46143799D01*
X141728284Y-46142894D01*
X141654452Y-46141992D01*
X141510081Y-46140228D01*
X141510079Y-46140228D01*
X141504911Y-46140165D01*
X141284091Y-46173955D01*
X141071756Y-46243357D01*
X140873607Y-46346507D01*
X140869474Y-46349610D01*
X140869471Y-46349612D01*
X140734134Y-46451226D01*
X140694965Y-46480635D01*
X140655525Y-46521907D01*
X140601280Y-46578671D01*
X140540629Y-46642138D01*
X140433201Y-46799621D01*
X140378293Y-46844621D01*
X140307768Y-46852792D01*
X140244021Y-46821538D01*
X140223324Y-46797054D01*
X140142822Y-46672617D01*
X140142820Y-46672614D01*
X140140014Y-46668277D01*
X139989670Y-46503051D01*
X139985619Y-46499852D01*
X139985615Y-46499848D01*
X139818414Y-46367800D01*
X139818410Y-46367798D01*
X139814359Y-46364598D01*
X139618789Y-46256638D01*
X139613920Y-46254914D01*
X139613916Y-46254912D01*
X139413087Y-46183795D01*
X139413083Y-46183794D01*
X139408212Y-46182069D01*
X139403119Y-46181162D01*
X139403116Y-46181161D01*
X139193373Y-46143800D01*
X139193367Y-46143799D01*
X139188284Y-46142894D01*
X139114452Y-46141992D01*
X138970081Y-46140228D01*
X138970079Y-46140228D01*
X138964911Y-46140165D01*
X138744091Y-46173955D01*
X138531756Y-46243357D01*
X138333607Y-46346507D01*
X138329474Y-46349610D01*
X138329471Y-46349612D01*
X138194134Y-46451226D01*
X138154965Y-46480635D01*
X138115525Y-46521907D01*
X138061280Y-46578671D01*
X138000629Y-46642138D01*
X137893201Y-46799621D01*
X137838293Y-46844621D01*
X137767768Y-46852792D01*
X137704021Y-46821538D01*
X137683324Y-46797054D01*
X137602822Y-46672617D01*
X137602820Y-46672614D01*
X137600014Y-46668277D01*
X137449670Y-46503051D01*
X137445619Y-46499852D01*
X137445615Y-46499848D01*
X137278414Y-46367800D01*
X137278410Y-46367798D01*
X137274359Y-46364598D01*
X137078789Y-46256638D01*
X137073920Y-46254914D01*
X137073916Y-46254912D01*
X136873087Y-46183795D01*
X136873083Y-46183794D01*
X136868212Y-46182069D01*
X136863119Y-46181162D01*
X136863116Y-46181161D01*
X136653373Y-46143800D01*
X136653367Y-46143799D01*
X136648284Y-46142894D01*
X136574452Y-46141992D01*
X136430081Y-46140228D01*
X136430079Y-46140228D01*
X136424911Y-46140165D01*
X136204091Y-46173955D01*
X135991756Y-46243357D01*
X135793607Y-46346507D01*
X135789474Y-46349610D01*
X135789471Y-46349612D01*
X135654134Y-46451226D01*
X135614965Y-46480635D01*
X135575525Y-46521907D01*
X135521280Y-46578671D01*
X135460629Y-46642138D01*
X135353201Y-46799621D01*
X135298293Y-46844621D01*
X135227768Y-46852792D01*
X135164021Y-46821538D01*
X135143324Y-46797054D01*
X135062822Y-46672617D01*
X135062820Y-46672614D01*
X135060014Y-46668277D01*
X134909670Y-46503051D01*
X134905619Y-46499852D01*
X134905615Y-46499848D01*
X134738414Y-46367800D01*
X134738410Y-46367798D01*
X134734359Y-46364598D01*
X134538789Y-46256638D01*
X134533920Y-46254914D01*
X134533916Y-46254912D01*
X134333087Y-46183795D01*
X134333083Y-46183794D01*
X134328212Y-46182069D01*
X134323119Y-46181162D01*
X134323116Y-46181161D01*
X134113373Y-46143800D01*
X134113367Y-46143799D01*
X134108284Y-46142894D01*
X134034452Y-46141992D01*
X133890081Y-46140228D01*
X133890079Y-46140228D01*
X133884911Y-46140165D01*
X133664091Y-46173955D01*
X133451756Y-46243357D01*
X133253607Y-46346507D01*
X133249474Y-46349610D01*
X133249471Y-46349612D01*
X133114134Y-46451226D01*
X133074965Y-46480635D01*
X133035525Y-46521907D01*
X132981280Y-46578671D01*
X132920629Y-46642138D01*
X132813201Y-46799621D01*
X132758293Y-46844621D01*
X132687768Y-46852792D01*
X132624021Y-46821538D01*
X132603324Y-46797054D01*
X132522822Y-46672617D01*
X132522820Y-46672614D01*
X132520014Y-46668277D01*
X132369670Y-46503051D01*
X132365619Y-46499852D01*
X132365615Y-46499848D01*
X132198414Y-46367800D01*
X132198410Y-46367798D01*
X132194359Y-46364598D01*
X131998789Y-46256638D01*
X131993920Y-46254914D01*
X131993916Y-46254912D01*
X131793087Y-46183795D01*
X131793083Y-46183794D01*
X131788212Y-46182069D01*
X131783119Y-46181162D01*
X131783116Y-46181161D01*
X131573373Y-46143800D01*
X131573367Y-46143799D01*
X131568284Y-46142894D01*
X131494452Y-46141992D01*
X131350081Y-46140228D01*
X131350079Y-46140228D01*
X131344911Y-46140165D01*
X131124091Y-46173955D01*
X130911756Y-46243357D01*
X130713607Y-46346507D01*
X130709474Y-46349610D01*
X130709471Y-46349612D01*
X130689512Y-46364598D01*
X130607305Y-46426321D01*
X130540823Y-46451226D01*
X130471427Y-46436234D01*
X130442559Y-46414655D01*
X129359772Y-45331867D01*
X128252052Y-44224147D01*
X128244512Y-44215861D01*
X128240400Y-44209382D01*
X128190748Y-44162756D01*
X128187907Y-44160002D01*
X128168170Y-44140265D01*
X128164973Y-44137785D01*
X128155951Y-44130080D01*
X128142516Y-44117464D01*
X128123721Y-44099814D01*
X128116775Y-44095995D01*
X128116772Y-44095993D01*
X128105966Y-44090052D01*
X128089447Y-44079201D01*
X128088983Y-44078841D01*
X128073441Y-44066786D01*
X128066172Y-44063641D01*
X128066168Y-44063638D01*
X128032863Y-44049226D01*
X128022213Y-44044009D01*
X127983460Y-44022705D01*
X127963837Y-44017667D01*
X127945134Y-44011263D01*
X127933820Y-44006367D01*
X127933819Y-44006367D01*
X127926545Y-44003219D01*
X127918722Y-44001980D01*
X127918712Y-44001977D01*
X127882876Y-43996301D01*
X127871256Y-43993895D01*
X127836111Y-43984872D01*
X127836110Y-43984872D01*
X127828430Y-43982900D01*
X127808176Y-43982900D01*
X127788465Y-43981349D01*
X127785934Y-43980948D01*
X127768457Y-43978180D01*
X127760565Y-43978926D01*
X127724439Y-43982341D01*
X127712581Y-43982900D01*
X118336463Y-43982900D01*
X118325279Y-43982373D01*
X118317791Y-43980699D01*
X118309868Y-43980948D01*
X118249733Y-43982838D01*
X118245775Y-43982900D01*
X118217844Y-43982900D01*
X118213929Y-43983395D01*
X118213925Y-43983395D01*
X118213867Y-43983403D01*
X118213838Y-43983406D01*
X118201996Y-43984339D01*
X118157810Y-43985727D01*
X118140444Y-43990772D01*
X118138358Y-43991378D01*
X118119006Y-43995386D01*
X118111935Y-43996280D01*
X118098903Y-43997926D01*
X118091534Y-44000843D01*
X118091532Y-44000844D01*
X118057797Y-44014200D01*
X118046569Y-44018045D01*
X118004107Y-44030382D01*
X117997285Y-44034416D01*
X117997279Y-44034419D01*
X117986668Y-44040694D01*
X117968918Y-44049390D01*
X117957456Y-44053928D01*
X117957451Y-44053931D01*
X117950083Y-44056848D01*
X117932670Y-44069499D01*
X117914325Y-44082827D01*
X117904407Y-44089343D01*
X117893163Y-44095993D01*
X117866337Y-44111858D01*
X117852013Y-44126182D01*
X117836981Y-44139021D01*
X117820593Y-44150928D01*
X117792412Y-44184993D01*
X117784422Y-44193773D01*
X101856000Y-60122195D01*
X101793688Y-60156221D01*
X101722873Y-60151156D01*
X101662067Y-60102992D01*
X101662065Y-60102989D01*
X101655858Y-60092638D01*
X101653419Y-60088090D01*
X101651354Y-60083340D01*
X101530014Y-59895777D01*
X101526532Y-59891950D01*
X101382798Y-59733988D01*
X101351746Y-59670142D01*
X101360141Y-59599643D01*
X101405317Y-59544875D01*
X101431761Y-59531206D01*
X101538297Y-59491267D01*
X101546705Y-59488115D01*
X101663261Y-59400761D01*
X101750615Y-59284205D01*
X101801745Y-59147816D01*
X101808500Y-59085634D01*
X101808500Y-57289366D01*
X101801745Y-57227184D01*
X101750615Y-57090795D01*
X101663261Y-56974239D01*
X101546705Y-56886885D01*
X101410316Y-56835755D01*
X101348134Y-56829000D01*
X99551866Y-56829000D01*
X99489684Y-56835755D01*
X99353295Y-56886885D01*
X99236739Y-56974239D01*
X99149385Y-57090795D01*
X99098255Y-57227184D01*
X99091500Y-57289366D01*
X99091500Y-59085634D01*
X99098255Y-59147816D01*
X99149385Y-59284205D01*
X99236739Y-59400761D01*
X99353295Y-59488115D01*
X99361704Y-59491267D01*
X99361705Y-59491268D01*
X99470451Y-59532035D01*
X99527216Y-59574676D01*
X99551916Y-59641238D01*
X99536709Y-59710587D01*
X99517316Y-59737068D01*
X99433901Y-59824357D01*
X99390629Y-59869638D01*
X99264743Y-60054180D01*
X99237701Y-60112438D01*
X99190262Y-60214637D01*
X99170688Y-60256805D01*
X99110989Y-60472070D01*
X99087251Y-60694195D01*
X99087548Y-60699348D01*
X99087548Y-60699351D01*
X99096364Y-60852248D01*
X99100110Y-60917215D01*
X99101247Y-60922261D01*
X99101248Y-60922267D01*
X99120168Y-61006217D01*
X99149222Y-61135139D01*
X99233266Y-61342116D01*
X99283214Y-61423624D01*
X99336730Y-61510954D01*
X99349987Y-61532588D01*
X99353365Y-61536488D01*
X99353366Y-61536489D01*
X99398850Y-61588997D01*
X99428332Y-61653582D01*
X99418217Y-61723855D01*
X99392707Y-61760589D01*
X98885580Y-62267715D01*
X98391747Y-62761548D01*
X98383461Y-62769088D01*
X98376982Y-62773200D01*
X98371557Y-62778977D01*
X98330357Y-62822851D01*
X98327602Y-62825693D01*
X98307865Y-62845430D01*
X98305385Y-62848627D01*
X98297682Y-62857647D01*
X98267414Y-62889879D01*
X98263595Y-62896825D01*
X98263593Y-62896828D01*
X98257652Y-62907634D01*
X98246801Y-62924153D01*
X98234386Y-62940159D01*
X98231241Y-62947428D01*
X98231238Y-62947432D01*
X98216826Y-62980737D01*
X98211609Y-62991387D01*
X98190305Y-63030140D01*
X98188334Y-63037815D01*
X98188334Y-63037816D01*
X98185267Y-63049762D01*
X98178863Y-63068466D01*
X98170819Y-63087055D01*
X98169580Y-63094878D01*
X98169577Y-63094888D01*
X98163901Y-63130724D01*
X98161495Y-63142344D01*
X98152472Y-63177489D01*
X98150500Y-63185170D01*
X98150500Y-63205424D01*
X98148949Y-63225134D01*
X98145780Y-63245143D01*
X91589298Y-63245143D01*
X91698815Y-41633861D01*
X91719162Y-41565843D01*
X91773052Y-41519623D01*
X91824813Y-41508500D01*
X190365500Y-41508500D01*
X190433621Y-41528502D01*
G37*
%TD.AperFunction*%
%TA.AperFunction,Conductor*%
G36*
X165290912Y-81697470D02*
G01*
X165297495Y-81703599D01*
X165438343Y-81844447D01*
X165445887Y-81852737D01*
X165450000Y-81859218D01*
X165494243Y-81900764D01*
X165530208Y-81961975D01*
X165527371Y-82032915D01*
X165522283Y-82045654D01*
X165470688Y-82156805D01*
X165410989Y-82372070D01*
X165387251Y-82594195D01*
X165387548Y-82599348D01*
X165387548Y-82599351D01*
X165393011Y-82694090D01*
X165400110Y-82817215D01*
X165401247Y-82822261D01*
X165401248Y-82822267D01*
X165417419Y-82894020D01*
X165449222Y-83035139D01*
X165533266Y-83242116D01*
X165535965Y-83246520D01*
X165626489Y-83394242D01*
X165649987Y-83432588D01*
X165796250Y-83601438D01*
X165968126Y-83744132D01*
X166000559Y-83763084D01*
X166041955Y-83787274D01*
X166090679Y-83838912D01*
X166103750Y-83908695D01*
X166077019Y-83974467D01*
X166036562Y-84007827D01*
X166028457Y-84012046D01*
X166019738Y-84017536D01*
X165849433Y-84145405D01*
X165841726Y-84152248D01*
X165694590Y-84306217D01*
X165688104Y-84314227D01*
X165568098Y-84490149D01*
X165563000Y-84499123D01*
X165473338Y-84692283D01*
X165469775Y-84701970D01*
X165414389Y-84901683D01*
X165415912Y-84910107D01*
X165428292Y-84913500D01*
X166878000Y-84913500D01*
X166946121Y-84933502D01*
X166992614Y-84987158D01*
X167004000Y-85039500D01*
X167004000Y-85295500D01*
X166983998Y-85363621D01*
X166930342Y-85410114D01*
X166878000Y-85421500D01*
X165433225Y-85421500D01*
X165419694Y-85425473D01*
X165418257Y-85435466D01*
X165448565Y-85569946D01*
X165451645Y-85579775D01*
X165531770Y-85777103D01*
X165536413Y-85786294D01*
X165647694Y-85967888D01*
X165653777Y-85976199D01*
X165793213Y-86137167D01*
X165800580Y-86144383D01*
X165964434Y-86280416D01*
X165972881Y-86286331D01*
X166041969Y-86326703D01*
X166090693Y-86378342D01*
X166103764Y-86448125D01*
X166077033Y-86513896D01*
X166036584Y-86547252D01*
X166023607Y-86554007D01*
X166019474Y-86557110D01*
X166019471Y-86557112D01*
X165849100Y-86685030D01*
X165844965Y-86688135D01*
X165841393Y-86691873D01*
X165715316Y-86823805D01*
X165690629Y-86849638D01*
X165687715Y-86853910D01*
X165687714Y-86853911D01*
X165680443Y-86864570D01*
X165564743Y-87034180D01*
X165562565Y-87038873D01*
X165562560Y-87038881D01*
X165537880Y-87092049D01*
X165491056Y-87145416D01*
X165422812Y-87164996D01*
X165354817Y-87144572D01*
X165334498Y-87128093D01*
X165119305Y-86912900D01*
X165085279Y-86850588D01*
X165082400Y-86823805D01*
X165082400Y-81792694D01*
X165102402Y-81724573D01*
X165156058Y-81678080D01*
X165226332Y-81667976D01*
X165290912Y-81697470D01*
G37*
%TD.AperFunction*%
%TD*%
M02*
