M48
; DRILL file {KiCad (6.0.6)} date Sun Nov 13 22:02:18 2022
; FORMAT={-:-/ absolute / inch / decimal}
; #@! TF.CreationDate,2022-11-13T22:02:18-06:00
; #@! TF.GenerationSoftware,Kicad,Pcbnew,(6.0.6)
; #@! TF.FileFunction,Plated,1,2,PTH
FMAT,2
INCH
; #@! TA.AperFunction,Plated,PTH,ViaDrill
T1C0.0157
; #@! TA.AperFunction,Plated,PTH,ComponentDrill
T2C0.0394
%
G90
G05
T1
X4.5276Y-3.7992
X4.5354Y-3.5866
X4.7776Y-2.0335
X4.815Y-2.2441
X4.815Y-3.5748
X6.3854Y-3.1467
X6.4998Y-3.6068
X6.8399Y-3.3531
T2
X3.9567Y-2.2869
X3.9567Y-2.3869
X3.9567Y-2.4869
X3.9567Y-2.5869
X3.9567Y-2.6869
X3.9567Y-2.7869
X3.9606Y-3.1294
X3.9606Y-3.2294
X3.9606Y-3.3294
X3.9606Y-3.4294
X3.9606Y-3.5294
X3.9606Y-3.6294
X4.3583Y-2.2885
X4.3583Y-2.3885
X4.3583Y-2.4885
X4.3583Y-2.5885
X4.3583Y-2.6885
X4.3583Y-2.7869
X4.3622Y-3.131
X4.3622Y-3.231
X4.3622Y-3.331
X4.3622Y-3.431
X4.3622Y-3.531
X4.3622Y-3.6294
X4.7776Y-1.878
X4.8776Y-1.878
X4.9776Y-1.878
X4.9803Y-2.2421
X4.9803Y-2.3421
X4.9803Y-2.4421
X4.9803Y-2.5421
X4.9803Y-2.6421
X4.9803Y-2.7421
X4.9803Y-2.8421
X4.9803Y-2.9421
X4.9803Y-3.0421
X4.9803Y-3.1421
X4.9803Y-3.2421
X4.9803Y-3.3421
X4.9803Y-3.4421
X4.9803Y-3.5421
X4.9803Y-3.6421
X5.0776Y-1.878
X5.1776Y-1.878
X5.2776Y-1.878
X5.3776Y-1.878
X5.4776Y-1.878
X5.5776Y-1.878
X5.6776Y-1.878
X5.7776Y-1.878
X5.8776Y-1.878
X5.9776Y-1.878
X5.9819Y-2.2421
X5.9819Y-2.3421
X5.9819Y-2.4421
X5.9819Y-2.5421
X5.9819Y-2.6421
X5.9819Y-2.7421
X5.9819Y-2.8421
X5.9819Y-2.9421
X5.9819Y-3.0421
X5.9819Y-3.1421
X5.9819Y-3.2421
X5.9819Y-3.3421
X5.9819Y-3.4421
X5.9819Y-3.5421
X5.9819Y-3.6421
X6.0776Y-1.878
X6.1776Y-1.878
X6.2776Y-1.878
X6.6457Y-3.1531
X6.6457Y-3.2531
X6.6457Y-3.3531
X6.6457Y-3.4531
X6.6457Y-3.5531
X6.6457Y-3.6531
X6.6614Y-2.2357
X6.6614Y-2.3357
X6.6614Y-2.4357
X6.6614Y-2.5357
X6.6614Y-2.6357
X6.6614Y-2.7357
X7.0472Y-3.1546
X7.0472Y-3.2546
X7.0472Y-3.3546
X7.0472Y-3.4546
X7.0472Y-3.5546
X7.0472Y-3.6531
X7.063Y-2.2373
X7.063Y-2.3373
X7.063Y-2.4373
X7.063Y-2.5373
X7.063Y-2.6373
X7.063Y-2.7357
T0
M30
