%TF.GenerationSoftware,KiCad,Pcbnew,(6.0.6)*%
%TF.CreationDate,2022-10-14T22:33:39-05:00*%
%TF.ProjectId,unicorn,756e6963-6f72-46e2-9e6b-696361645f70,rev?*%
%TF.SameCoordinates,Original*%
%TF.FileFunction,Legend,Top*%
%TF.FilePolarity,Positive*%
%FSLAX46Y46*%
G04 Gerber Fmt 4.6, Leading zero omitted, Abs format (unit mm)*
G04 Created by KiCad (PCBNEW (6.0.6)) date 2022-10-14 22:33:39*
%MOMM*%
%LPD*%
G01*
G04 APERTURE LIST*
%ADD10C,0.300000*%
%ADD11C,0.150000*%
%ADD12C,0.120000*%
G04 APERTURE END LIST*
D10*
X97050000Y-43756071D02*
X97050000Y-44970357D01*
X97121428Y-45113214D01*
X97192857Y-45184642D01*
X97335714Y-45256071D01*
X97621428Y-45256071D01*
X97764285Y-45184642D01*
X97835714Y-45113214D01*
X97907142Y-44970357D01*
X97907142Y-43756071D01*
X98621428Y-44256071D02*
X98621428Y-45256071D01*
X98621428Y-44398928D02*
X98692857Y-44327500D01*
X98835714Y-44256071D01*
X99050000Y-44256071D01*
X99192857Y-44327500D01*
X99264285Y-44470357D01*
X99264285Y-45256071D01*
X99978571Y-45256071D02*
X99978571Y-44256071D01*
X99978571Y-43756071D02*
X99907142Y-43827500D01*
X99978571Y-43898928D01*
X100050000Y-43827500D01*
X99978571Y-43756071D01*
X99978571Y-43898928D01*
X101335714Y-45184642D02*
X101192857Y-45256071D01*
X100907142Y-45256071D01*
X100764285Y-45184642D01*
X100692857Y-45113214D01*
X100621428Y-44970357D01*
X100621428Y-44541785D01*
X100692857Y-44398928D01*
X100764285Y-44327500D01*
X100907142Y-44256071D01*
X101192857Y-44256071D01*
X101335714Y-44327500D01*
X102192857Y-45256071D02*
X102050000Y-45184642D01*
X101978571Y-45113214D01*
X101907142Y-44970357D01*
X101907142Y-44541785D01*
X101978571Y-44398928D01*
X102050000Y-44327500D01*
X102192857Y-44256071D01*
X102407142Y-44256071D01*
X102550000Y-44327500D01*
X102621428Y-44398928D01*
X102692857Y-44541785D01*
X102692857Y-44970357D01*
X102621428Y-45113214D01*
X102550000Y-45184642D01*
X102407142Y-45256071D01*
X102192857Y-45256071D01*
X103335714Y-45256071D02*
X103335714Y-44256071D01*
X103335714Y-44541785D02*
X103407142Y-44398928D01*
X103478571Y-44327500D01*
X103621428Y-44256071D01*
X103764285Y-44256071D01*
X104264285Y-44256071D02*
X104264285Y-45256071D01*
X104264285Y-44398928D02*
X104335714Y-44327500D01*
X104478571Y-44256071D01*
X104692857Y-44256071D01*
X104835714Y-44327500D01*
X104907142Y-44470357D01*
X104907142Y-45256071D01*
X107264285Y-44470357D02*
X107478571Y-44541785D01*
X107550000Y-44613214D01*
X107621428Y-44756071D01*
X107621428Y-44970357D01*
X107550000Y-45113214D01*
X107478571Y-45184642D01*
X107335714Y-45256071D01*
X106764285Y-45256071D01*
X106764285Y-43756071D01*
X107264285Y-43756071D01*
X107407142Y-43827500D01*
X107478571Y-43898928D01*
X107550000Y-44041785D01*
X107550000Y-44184642D01*
X107478571Y-44327500D01*
X107407142Y-44398928D01*
X107264285Y-44470357D01*
X106764285Y-44470357D01*
X108478571Y-45256071D02*
X108335714Y-45184642D01*
X108264285Y-45113214D01*
X108192857Y-44970357D01*
X108192857Y-44541785D01*
X108264285Y-44398928D01*
X108335714Y-44327500D01*
X108478571Y-44256071D01*
X108692857Y-44256071D01*
X108835714Y-44327500D01*
X108907142Y-44398928D01*
X108978571Y-44541785D01*
X108978571Y-44970357D01*
X108907142Y-45113214D01*
X108835714Y-45184642D01*
X108692857Y-45256071D01*
X108478571Y-45256071D01*
X110264285Y-45256071D02*
X110264285Y-44470357D01*
X110192857Y-44327500D01*
X110050000Y-44256071D01*
X109764285Y-44256071D01*
X109621428Y-44327500D01*
X110264285Y-45184642D02*
X110121428Y-45256071D01*
X109764285Y-45256071D01*
X109621428Y-45184642D01*
X109550000Y-45041785D01*
X109550000Y-44898928D01*
X109621428Y-44756071D01*
X109764285Y-44684642D01*
X110121428Y-44684642D01*
X110264285Y-44613214D01*
X110978571Y-45256071D02*
X110978571Y-44256071D01*
X110978571Y-44541785D02*
X111050000Y-44398928D01*
X111121428Y-44327500D01*
X111264285Y-44256071D01*
X111407142Y-44256071D01*
X112550000Y-45256071D02*
X112550000Y-43756071D01*
X112550000Y-45184642D02*
X112407142Y-45256071D01*
X112121428Y-45256071D01*
X111978571Y-45184642D01*
X111907142Y-45113214D01*
X111835714Y-44970357D01*
X111835714Y-44541785D01*
X111907142Y-44398928D01*
X111978571Y-44327500D01*
X112121428Y-44256071D01*
X112407142Y-44256071D01*
X112550000Y-44327500D01*
X95050000Y-46242500D02*
X94907142Y-46171071D01*
X94692857Y-46171071D01*
X94478571Y-46242500D01*
X94335714Y-46385357D01*
X94264285Y-46528214D01*
X94192857Y-46813928D01*
X94192857Y-47028214D01*
X94264285Y-47313928D01*
X94335714Y-47456785D01*
X94478571Y-47599642D01*
X94692857Y-47671071D01*
X94835714Y-47671071D01*
X95050000Y-47599642D01*
X95121428Y-47528214D01*
X95121428Y-47028214D01*
X94835714Y-47028214D01*
X96621428Y-47671071D02*
X96121428Y-46956785D01*
X95764285Y-47671071D02*
X95764285Y-46171071D01*
X96335714Y-46171071D01*
X96478571Y-46242500D01*
X96550000Y-46313928D01*
X96621428Y-46456785D01*
X96621428Y-46671071D01*
X96550000Y-46813928D01*
X96478571Y-46885357D01*
X96335714Y-46956785D01*
X95764285Y-46956785D01*
X97550000Y-46171071D02*
X97835714Y-46171071D01*
X97978571Y-46242500D01*
X98121428Y-46385357D01*
X98192857Y-46671071D01*
X98192857Y-47171071D01*
X98121428Y-47456785D01*
X97978571Y-47599642D01*
X97835714Y-47671071D01*
X97550000Y-47671071D01*
X97407142Y-47599642D01*
X97264285Y-47456785D01*
X97192857Y-47171071D01*
X97192857Y-46671071D01*
X97264285Y-46385357D01*
X97407142Y-46242500D01*
X97550000Y-46171071D01*
X98835714Y-47671071D02*
X98835714Y-46171071D01*
X99335714Y-47242500D01*
X99835714Y-46171071D01*
X99835714Y-47671071D01*
X102550000Y-47671071D02*
X102050000Y-46956785D01*
X101692857Y-47671071D02*
X101692857Y-46171071D01*
X102264285Y-46171071D01*
X102407142Y-46242500D01*
X102478571Y-46313928D01*
X102550000Y-46456785D01*
X102550000Y-46671071D01*
X102478571Y-46813928D01*
X102407142Y-46885357D01*
X102264285Y-46956785D01*
X101692857Y-46956785D01*
X103764285Y-47599642D02*
X103621428Y-47671071D01*
X103335714Y-47671071D01*
X103192857Y-47599642D01*
X103121428Y-47456785D01*
X103121428Y-46885357D01*
X103192857Y-46742500D01*
X103335714Y-46671071D01*
X103621428Y-46671071D01*
X103764285Y-46742500D01*
X103835714Y-46885357D01*
X103835714Y-47028214D01*
X103121428Y-47171071D01*
X104478571Y-46671071D02*
X104478571Y-48171071D01*
X104478571Y-46742500D02*
X104621428Y-46671071D01*
X104907142Y-46671071D01*
X105050000Y-46742500D01*
X105121428Y-46813928D01*
X105192857Y-46956785D01*
X105192857Y-47385357D01*
X105121428Y-47528214D01*
X105050000Y-47599642D01*
X104907142Y-47671071D01*
X104621428Y-47671071D01*
X104478571Y-47599642D01*
X106049999Y-47671071D02*
X105907142Y-47599642D01*
X105835714Y-47456785D01*
X105835714Y-46171071D01*
X107264285Y-47671071D02*
X107264285Y-46885357D01*
X107192857Y-46742500D01*
X107049999Y-46671071D01*
X106764285Y-46671071D01*
X106621428Y-46742500D01*
X107264285Y-47599642D02*
X107121428Y-47671071D01*
X106764285Y-47671071D01*
X106621428Y-47599642D01*
X106549999Y-47456785D01*
X106549999Y-47313928D01*
X106621428Y-47171071D01*
X106764285Y-47099642D01*
X107121428Y-47099642D01*
X107264285Y-47028214D01*
X108621428Y-47599642D02*
X108478571Y-47671071D01*
X108192857Y-47671071D01*
X108049999Y-47599642D01*
X107978571Y-47528214D01*
X107907142Y-47385357D01*
X107907142Y-46956785D01*
X107978571Y-46813928D01*
X108049999Y-46742500D01*
X108192857Y-46671071D01*
X108478571Y-46671071D01*
X108621428Y-46742500D01*
X109835714Y-47599642D02*
X109692857Y-47671071D01*
X109407142Y-47671071D01*
X109264285Y-47599642D01*
X109192857Y-47456785D01*
X109192857Y-46885357D01*
X109264285Y-46742500D01*
X109407142Y-46671071D01*
X109692857Y-46671071D01*
X109835714Y-46742500D01*
X109907142Y-46885357D01*
X109907142Y-47028214D01*
X109192857Y-47171071D01*
X110549999Y-47671071D02*
X110549999Y-46671071D01*
X110549999Y-46813928D02*
X110621428Y-46742500D01*
X110764285Y-46671071D01*
X110978571Y-46671071D01*
X111121428Y-46742500D01*
X111192857Y-46885357D01*
X111192857Y-47671071D01*
X111192857Y-46885357D02*
X111264285Y-46742500D01*
X111407142Y-46671071D01*
X111621428Y-46671071D01*
X111764285Y-46742500D01*
X111835714Y-46885357D01*
X111835714Y-47671071D01*
X113121428Y-47599642D02*
X112978571Y-47671071D01*
X112692857Y-47671071D01*
X112550000Y-47599642D01*
X112478571Y-47456785D01*
X112478571Y-46885357D01*
X112550000Y-46742500D01*
X112692857Y-46671071D01*
X112978571Y-46671071D01*
X113121428Y-46742500D01*
X113192857Y-46885357D01*
X113192857Y-47028214D01*
X112478571Y-47171071D01*
X113835714Y-46671071D02*
X113835714Y-47671071D01*
X113835714Y-46813928D02*
X113907142Y-46742500D01*
X114050000Y-46671071D01*
X114264285Y-46671071D01*
X114407142Y-46742500D01*
X114478571Y-46885357D01*
X114478571Y-47671071D01*
X114978571Y-46671071D02*
X115550000Y-46671071D01*
X115192857Y-46171071D02*
X115192857Y-47456785D01*
X115264285Y-47599642D01*
X115407142Y-47671071D01*
X115550000Y-47671071D01*
X98728571Y-50086071D02*
X98728571Y-48586071D01*
X99085714Y-48586071D01*
X99300000Y-48657500D01*
X99442857Y-48800357D01*
X99514285Y-48943214D01*
X99585714Y-49228928D01*
X99585714Y-49443214D01*
X99514285Y-49728928D01*
X99442857Y-49871785D01*
X99300000Y-50014642D01*
X99085714Y-50086071D01*
X98728571Y-50086071D01*
X100871428Y-50086071D02*
X100871428Y-49300357D01*
X100800000Y-49157500D01*
X100657142Y-49086071D01*
X100371428Y-49086071D01*
X100228571Y-49157500D01*
X100871428Y-50014642D02*
X100728571Y-50086071D01*
X100371428Y-50086071D01*
X100228571Y-50014642D01*
X100157142Y-49871785D01*
X100157142Y-49728928D01*
X100228571Y-49586071D01*
X100371428Y-49514642D01*
X100728571Y-49514642D01*
X100871428Y-49443214D01*
X101585714Y-49086071D02*
X101585714Y-50086071D01*
X101585714Y-49228928D02*
X101657142Y-49157500D01*
X101800000Y-49086071D01*
X102014285Y-49086071D01*
X102157142Y-49157500D01*
X102228571Y-49300357D01*
X102228571Y-50086071D01*
X103942857Y-48586071D02*
X104300000Y-50086071D01*
X104585714Y-49014642D01*
X104871428Y-50086071D01*
X105228571Y-48586071D01*
X106371428Y-50014642D02*
X106228571Y-50086071D01*
X105942857Y-50086071D01*
X105800000Y-50014642D01*
X105728571Y-49871785D01*
X105728571Y-49300357D01*
X105800000Y-49157500D01*
X105942857Y-49086071D01*
X106228571Y-49086071D01*
X106371428Y-49157500D01*
X106442857Y-49300357D01*
X106442857Y-49443214D01*
X105728571Y-49586071D01*
X107085714Y-50086071D02*
X107085714Y-49086071D01*
X107085714Y-49371785D02*
X107157142Y-49228928D01*
X107228571Y-49157500D01*
X107371428Y-49086071D01*
X107514285Y-49086071D01*
X108014285Y-49086071D02*
X108014285Y-50086071D01*
X108014285Y-49228928D02*
X108085714Y-49157500D01*
X108228571Y-49086071D01*
X108442857Y-49086071D01*
X108585714Y-49157500D01*
X108657142Y-49300357D01*
X108657142Y-50086071D01*
X109942857Y-50014642D02*
X109800000Y-50086071D01*
X109514285Y-50086071D01*
X109371428Y-50014642D01*
X109300000Y-49871785D01*
X109300000Y-49300357D01*
X109371428Y-49157500D01*
X109514285Y-49086071D01*
X109800000Y-49086071D01*
X109942857Y-49157500D01*
X110014285Y-49300357D01*
X110014285Y-49443214D01*
X109300000Y-49586071D01*
X110657142Y-50086071D02*
X110657142Y-49086071D01*
X110657142Y-49371785D02*
X110728571Y-49228928D01*
X110800000Y-49157500D01*
X110942857Y-49086071D01*
X111085714Y-49086071D01*
X97085714Y-52501071D02*
X96228571Y-52501071D01*
X96657142Y-52501071D02*
X96657142Y-51001071D01*
X96514285Y-51215357D01*
X96371428Y-51358214D01*
X96228571Y-51429642D01*
X98014285Y-51001071D02*
X98157142Y-51001071D01*
X98299999Y-51072500D01*
X98371428Y-51143928D01*
X98442857Y-51286785D01*
X98514285Y-51572500D01*
X98514285Y-51929642D01*
X98442857Y-52215357D01*
X98371428Y-52358214D01*
X98299999Y-52429642D01*
X98157142Y-52501071D01*
X98014285Y-52501071D01*
X97871428Y-52429642D01*
X97799999Y-52358214D01*
X97728571Y-52215357D01*
X97657142Y-51929642D01*
X97657142Y-51572500D01*
X97728571Y-51286785D01*
X97799999Y-51143928D01*
X97871428Y-51072500D01*
X98014285Y-51001071D01*
X100228571Y-50929642D02*
X98942857Y-52858214D01*
X101514285Y-52501071D02*
X100657142Y-52501071D01*
X101085714Y-52501071D02*
X101085714Y-51001071D01*
X100942857Y-51215357D01*
X100799999Y-51358214D01*
X100657142Y-51429642D01*
X102799999Y-51501071D02*
X102799999Y-52501071D01*
X102442857Y-50929642D02*
X102085714Y-52001071D01*
X103014285Y-52001071D01*
X104657142Y-50929642D02*
X103371428Y-52858214D01*
X105085714Y-51143928D02*
X105157142Y-51072500D01*
X105299999Y-51001071D01*
X105657142Y-51001071D01*
X105799999Y-51072500D01*
X105871428Y-51143928D01*
X105942857Y-51286785D01*
X105942857Y-51429642D01*
X105871428Y-51643928D01*
X105014285Y-52501071D01*
X105942857Y-52501071D01*
X106514285Y-51143928D02*
X106585714Y-51072500D01*
X106728571Y-51001071D01*
X107085714Y-51001071D01*
X107228571Y-51072500D01*
X107299999Y-51143928D01*
X107371428Y-51286785D01*
X107371428Y-51429642D01*
X107299999Y-51643928D01*
X106442857Y-52501071D01*
X107371428Y-52501071D01*
X108942857Y-51001071D02*
X109442857Y-52501071D01*
X109942857Y-51001071D01*
X110728571Y-51001071D02*
X110871428Y-51001071D01*
X111014285Y-51072500D01*
X111085714Y-51143928D01*
X111157142Y-51286785D01*
X111228571Y-51572500D01*
X111228571Y-51929642D01*
X111157142Y-52215357D01*
X111085714Y-52358214D01*
X111014285Y-52429642D01*
X110871428Y-52501071D01*
X110728571Y-52501071D01*
X110585714Y-52429642D01*
X110514285Y-52358214D01*
X110442857Y-52215357D01*
X110371428Y-51929642D01*
X110371428Y-51572500D01*
X110442857Y-51286785D01*
X110514285Y-51143928D01*
X110585714Y-51072500D01*
X110728571Y-51001071D01*
X111871428Y-52358214D02*
X111942857Y-52429642D01*
X111871428Y-52501071D01*
X111800000Y-52429642D01*
X111871428Y-52358214D01*
X111871428Y-52501071D01*
X113300000Y-51001071D02*
X112585714Y-51001071D01*
X112514285Y-51715357D01*
X112585714Y-51643928D01*
X112728571Y-51572500D01*
X113085714Y-51572500D01*
X113228571Y-51643928D01*
X113300000Y-51715357D01*
X113371428Y-51858214D01*
X113371428Y-52215357D01*
X113300000Y-52358214D01*
X113228571Y-52429642D01*
X113085714Y-52501071D01*
X112728571Y-52501071D01*
X112585714Y-52429642D01*
X112514285Y-52358214D01*
D11*
%TO.C,U4*%
X105038095Y-74652380D02*
X105038095Y-75461904D01*
X105085714Y-75557142D01*
X105133333Y-75604761D01*
X105228571Y-75652380D01*
X105419047Y-75652380D01*
X105514285Y-75604761D01*
X105561904Y-75557142D01*
X105609523Y-75461904D01*
X105609523Y-74652380D01*
X106514285Y-74985714D02*
X106514285Y-75652380D01*
X106276190Y-74604761D02*
X106038095Y-75319047D01*
X106657142Y-75319047D01*
X103633333Y-77152380D02*
X103633333Y-76152380D01*
X103633333Y-76628571D02*
X104204761Y-76628571D01*
X104204761Y-77152380D02*
X104204761Y-76152380D01*
X104538095Y-76152380D02*
X104871428Y-77152380D01*
X105204761Y-76152380D01*
X105538095Y-76771428D02*
X106300000Y-76771428D01*
X107252380Y-77152380D02*
X106776190Y-77152380D01*
X106776190Y-76152380D01*
X107442857Y-76152380D02*
X107776190Y-77152380D01*
X108109523Y-76152380D01*
%TO.C,U2*%
X171188095Y-75239880D02*
X171188095Y-76049404D01*
X171235714Y-76144642D01*
X171283333Y-76192261D01*
X171378571Y-76239880D01*
X171569047Y-76239880D01*
X171664285Y-76192261D01*
X171711904Y-76144642D01*
X171759523Y-76049404D01*
X171759523Y-75239880D01*
X172188095Y-75335119D02*
X172235714Y-75287500D01*
X172330952Y-75239880D01*
X172569047Y-75239880D01*
X172664285Y-75287500D01*
X172711904Y-75335119D01*
X172759523Y-75430357D01*
X172759523Y-75525595D01*
X172711904Y-75668452D01*
X172140476Y-76239880D01*
X172759523Y-76239880D01*
X169783333Y-77739880D02*
X169783333Y-76739880D01*
X169783333Y-77216071D02*
X170354761Y-77216071D01*
X170354761Y-77739880D02*
X170354761Y-76739880D01*
X170688095Y-76739880D02*
X171021428Y-77739880D01*
X171354761Y-76739880D01*
X171688095Y-77358928D02*
X172450000Y-77358928D01*
X173402380Y-77739880D02*
X172926190Y-77739880D01*
X172926190Y-76739880D01*
X173592857Y-76739880D02*
X173926190Y-77739880D01*
X174259523Y-76739880D01*
%TO.C,U5*%
X137988095Y-52177380D02*
X137988095Y-52986904D01*
X138035714Y-53082142D01*
X138083333Y-53129761D01*
X138178571Y-53177380D01*
X138369047Y-53177380D01*
X138464285Y-53129761D01*
X138511904Y-53082142D01*
X138559523Y-52986904D01*
X138559523Y-52177380D01*
X139511904Y-52177380D02*
X139035714Y-52177380D01*
X138988095Y-52653571D01*
X139035714Y-52605952D01*
X139130952Y-52558333D01*
X139369047Y-52558333D01*
X139464285Y-52605952D01*
X139511904Y-52653571D01*
X139559523Y-52748809D01*
X139559523Y-52986904D01*
X139511904Y-53082142D01*
X139464285Y-53129761D01*
X139369047Y-53177380D01*
X139130952Y-53177380D01*
X139035714Y-53129761D01*
X138988095Y-53082142D01*
X133250000Y-54153571D02*
X133583333Y-54153571D01*
X133726190Y-54677380D02*
X133250000Y-54677380D01*
X133250000Y-53677380D01*
X133726190Y-53677380D01*
X134107142Y-54629761D02*
X134250000Y-54677380D01*
X134488095Y-54677380D01*
X134583333Y-54629761D01*
X134630952Y-54582142D01*
X134678571Y-54486904D01*
X134678571Y-54391666D01*
X134630952Y-54296428D01*
X134583333Y-54248809D01*
X134488095Y-54201190D01*
X134297619Y-54153571D01*
X134202380Y-54105952D01*
X134154761Y-54058333D01*
X134107142Y-53963095D01*
X134107142Y-53867857D01*
X134154761Y-53772619D01*
X134202380Y-53725000D01*
X134297619Y-53677380D01*
X134535714Y-53677380D01*
X134678571Y-53725000D01*
X135107142Y-54677380D02*
X135107142Y-53677380D01*
X135488095Y-53677380D01*
X135583333Y-53725000D01*
X135630952Y-53772619D01*
X135678571Y-53867857D01*
X135678571Y-54010714D01*
X135630952Y-54105952D01*
X135583333Y-54153571D01*
X135488095Y-54201190D01*
X135107142Y-54201190D01*
X136011904Y-53677380D02*
X136630952Y-53677380D01*
X136297619Y-54058333D01*
X136440476Y-54058333D01*
X136535714Y-54105952D01*
X136583333Y-54153571D01*
X136630952Y-54248809D01*
X136630952Y-54486904D01*
X136583333Y-54582142D01*
X136535714Y-54629761D01*
X136440476Y-54677380D01*
X136154761Y-54677380D01*
X136059523Y-54629761D01*
X136011904Y-54582142D01*
X137011904Y-53772619D02*
X137059523Y-53725000D01*
X137154761Y-53677380D01*
X137392857Y-53677380D01*
X137488095Y-53725000D01*
X137535714Y-53772619D01*
X137583333Y-53867857D01*
X137583333Y-53963095D01*
X137535714Y-54105952D01*
X136964285Y-54677380D01*
X137583333Y-54677380D01*
X137773809Y-54772619D02*
X138535714Y-54772619D01*
X138773809Y-54677380D02*
X138773809Y-53677380D01*
X139107142Y-54391666D01*
X139440476Y-53677380D01*
X139440476Y-54677380D01*
X140107142Y-53677380D02*
X140297619Y-53677380D01*
X140392857Y-53725000D01*
X140488095Y-53820238D01*
X140535714Y-54010714D01*
X140535714Y-54344047D01*
X140488095Y-54534523D01*
X140392857Y-54629761D01*
X140297619Y-54677380D01*
X140107142Y-54677380D01*
X140011904Y-54629761D01*
X139916666Y-54534523D01*
X139869047Y-54344047D01*
X139869047Y-54010714D01*
X139916666Y-53820238D01*
X140011904Y-53725000D01*
X140107142Y-53677380D01*
X140964285Y-54677380D02*
X140964285Y-53677380D01*
X141202380Y-53677380D01*
X141345238Y-53725000D01*
X141440476Y-53820238D01*
X141488095Y-53915476D01*
X141535714Y-54105952D01*
X141535714Y-54248809D01*
X141488095Y-54439285D01*
X141440476Y-54534523D01*
X141345238Y-54629761D01*
X141202380Y-54677380D01*
X140964285Y-54677380D01*
X141964285Y-53677380D02*
X141964285Y-54486904D01*
X142011904Y-54582142D01*
X142059523Y-54629761D01*
X142154761Y-54677380D01*
X142345238Y-54677380D01*
X142440476Y-54629761D01*
X142488095Y-54582142D01*
X142535714Y-54486904D01*
X142535714Y-53677380D01*
X143488095Y-54677380D02*
X143011904Y-54677380D01*
X143011904Y-53677380D01*
X143821428Y-54153571D02*
X144154761Y-54153571D01*
X144297619Y-54677380D02*
X143821428Y-54677380D01*
X143821428Y-53677380D01*
X144297619Y-53677380D01*
%TO.C,U1*%
X171388095Y-51939880D02*
X171388095Y-52749404D01*
X171435714Y-52844642D01*
X171483333Y-52892261D01*
X171578571Y-52939880D01*
X171769047Y-52939880D01*
X171864285Y-52892261D01*
X171911904Y-52844642D01*
X171959523Y-52749404D01*
X171959523Y-51939880D01*
X172959523Y-52939880D02*
X172388095Y-52939880D01*
X172673809Y-52939880D02*
X172673809Y-51939880D01*
X172578571Y-52082738D01*
X172483333Y-52177976D01*
X172388095Y-52225595D01*
X169983333Y-54439880D02*
X169983333Y-53439880D01*
X169983333Y-53916071D02*
X170554761Y-53916071D01*
X170554761Y-54439880D02*
X170554761Y-53439880D01*
X170888095Y-53439880D02*
X171221428Y-54439880D01*
X171554761Y-53439880D01*
X171888095Y-54058928D02*
X172650000Y-54058928D01*
X173602380Y-54439880D02*
X173126190Y-54439880D01*
X173126190Y-53439880D01*
X173792857Y-53439880D02*
X174126190Y-54439880D01*
X174459523Y-53439880D01*
%TO.C,J1*%
X161162380Y-47833333D02*
X161876666Y-47833333D01*
X162019523Y-47880952D01*
X162114761Y-47976190D01*
X162162380Y-48119047D01*
X162162380Y-48214285D01*
X162162380Y-46833333D02*
X162162380Y-47404761D01*
X162162380Y-47119047D02*
X161162380Y-47119047D01*
X161305238Y-47214285D01*
X161400476Y-47309523D01*
X161448095Y-47404761D01*
X135219047Y-43752380D02*
X135219047Y-44561904D01*
X135266666Y-44657142D01*
X135314285Y-44704761D01*
X135409523Y-44752380D01*
X135600000Y-44752380D01*
X135695238Y-44704761D01*
X135742857Y-44657142D01*
X135790476Y-44561904D01*
X135790476Y-43752380D01*
X136266666Y-44752380D02*
X136266666Y-43752380D01*
X136838095Y-44752380D01*
X136838095Y-43752380D01*
X137314285Y-44752380D02*
X137314285Y-43752380D01*
X138361904Y-44657142D02*
X138314285Y-44704761D01*
X138171428Y-44752380D01*
X138076190Y-44752380D01*
X137933333Y-44704761D01*
X137838095Y-44609523D01*
X137790476Y-44514285D01*
X137742857Y-44323809D01*
X137742857Y-44180952D01*
X137790476Y-43990476D01*
X137838095Y-43895238D01*
X137933333Y-43800000D01*
X138076190Y-43752380D01*
X138171428Y-43752380D01*
X138314285Y-43800000D01*
X138361904Y-43847619D01*
X138980952Y-43752380D02*
X139171428Y-43752380D01*
X139266666Y-43800000D01*
X139361904Y-43895238D01*
X139409523Y-44085714D01*
X139409523Y-44419047D01*
X139361904Y-44609523D01*
X139266666Y-44704761D01*
X139171428Y-44752380D01*
X138980952Y-44752380D01*
X138885714Y-44704761D01*
X138790476Y-44609523D01*
X138742857Y-44419047D01*
X138742857Y-44085714D01*
X138790476Y-43895238D01*
X138885714Y-43800000D01*
X138980952Y-43752380D01*
X140409523Y-44752380D02*
X140076190Y-44276190D01*
X139838095Y-44752380D02*
X139838095Y-43752380D01*
X140219047Y-43752380D01*
X140314285Y-43800000D01*
X140361904Y-43847619D01*
X140409523Y-43942857D01*
X140409523Y-44085714D01*
X140361904Y-44180952D01*
X140314285Y-44228571D01*
X140219047Y-44276190D01*
X139838095Y-44276190D01*
X140838095Y-44752380D02*
X140838095Y-43752380D01*
X141409523Y-44752380D01*
X141409523Y-43752380D01*
X142647619Y-44752380D02*
X142647619Y-43752380D01*
X143028571Y-43752380D01*
X143123809Y-43800000D01*
X143171428Y-43847619D01*
X143219047Y-43942857D01*
X143219047Y-44085714D01*
X143171428Y-44180952D01*
X143123809Y-44228571D01*
X143028571Y-44276190D01*
X142647619Y-44276190D01*
X143838095Y-43752380D02*
X144028571Y-43752380D01*
X144123809Y-43800000D01*
X144219047Y-43895238D01*
X144266666Y-44085714D01*
X144266666Y-44419047D01*
X144219047Y-44609523D01*
X144123809Y-44704761D01*
X144028571Y-44752380D01*
X143838095Y-44752380D01*
X143742857Y-44704761D01*
X143647619Y-44609523D01*
X143600000Y-44419047D01*
X143600000Y-44085714D01*
X143647619Y-43895238D01*
X143742857Y-43800000D01*
X143838095Y-43752380D01*
X145266666Y-44752380D02*
X144933333Y-44276190D01*
X144695238Y-44752380D02*
X144695238Y-43752380D01*
X145076190Y-43752380D01*
X145171428Y-43800000D01*
X145219047Y-43847619D01*
X145266666Y-43942857D01*
X145266666Y-44085714D01*
X145219047Y-44180952D01*
X145171428Y-44228571D01*
X145076190Y-44276190D01*
X144695238Y-44276190D01*
X145552380Y-43752380D02*
X146123809Y-43752380D01*
X145838095Y-44752380D02*
X145838095Y-43752380D01*
%TO.C,U3*%
X104888095Y-53339880D02*
X104888095Y-54149404D01*
X104935714Y-54244642D01*
X104983333Y-54292261D01*
X105078571Y-54339880D01*
X105269047Y-54339880D01*
X105364285Y-54292261D01*
X105411904Y-54244642D01*
X105459523Y-54149404D01*
X105459523Y-53339880D01*
X105840476Y-53339880D02*
X106459523Y-53339880D01*
X106126190Y-53720833D01*
X106269047Y-53720833D01*
X106364285Y-53768452D01*
X106411904Y-53816071D01*
X106459523Y-53911309D01*
X106459523Y-54149404D01*
X106411904Y-54244642D01*
X106364285Y-54292261D01*
X106269047Y-54339880D01*
X105983333Y-54339880D01*
X105888095Y-54292261D01*
X105840476Y-54244642D01*
X103483333Y-55839880D02*
X103483333Y-54839880D01*
X103483333Y-55316071D02*
X104054761Y-55316071D01*
X104054761Y-55839880D02*
X104054761Y-54839880D01*
X104388095Y-54839880D02*
X104721428Y-55839880D01*
X105054761Y-54839880D01*
X105388095Y-55458928D02*
X106150000Y-55458928D01*
X107102380Y-55839880D02*
X106626190Y-55839880D01*
X106626190Y-54839880D01*
X107292857Y-54839880D02*
X107626190Y-55839880D01*
X107959523Y-54839880D01*
D12*
%TO.C,U4*%
X99270000Y-79500000D02*
X99270000Y-78170000D01*
X99270000Y-78170000D02*
X100600000Y-78170000D01*
X114800000Y-80770000D02*
X114800000Y-93450000D01*
X99270000Y-80770000D02*
X99270000Y-93450000D01*
X99270000Y-80770000D02*
X114800000Y-80770000D01*
X99270000Y-93450000D02*
X114800000Y-93450000D01*
%TO.C,U2*%
X165420000Y-81357500D02*
X165420000Y-94037500D01*
X165420000Y-78757500D02*
X166750000Y-78757500D01*
X165420000Y-94037500D02*
X180950000Y-94037500D01*
X180950000Y-81357500D02*
X180950000Y-94037500D01*
X165420000Y-80087500D02*
X165420000Y-78757500D01*
X165420000Y-81357500D02*
X180950000Y-81357500D01*
%TO.C,U5*%
X125120000Y-58145000D02*
X155750000Y-58145000D01*
X125120000Y-56875000D02*
X125120000Y-55545000D01*
X125120000Y-55545000D02*
X126450000Y-55545000D01*
X125120000Y-58145000D02*
X125120000Y-93765000D01*
X155750000Y-58145000D02*
X155750000Y-93765000D01*
X125120000Y-93765000D02*
X155750000Y-93765000D01*
%TO.C,U1*%
X181150000Y-58057500D02*
X181150000Y-70737500D01*
X165620000Y-56787500D02*
X165620000Y-55457500D01*
X165620000Y-70737500D02*
X181150000Y-70737500D01*
X165620000Y-58057500D02*
X181150000Y-58057500D01*
X165620000Y-58057500D02*
X165620000Y-70737500D01*
X165620000Y-55457500D02*
X166950000Y-55457500D01*
%TO.C,J1*%
X159380000Y-46170000D02*
X160710000Y-46170000D01*
X158110000Y-46170000D02*
X122490000Y-46170000D01*
X160710000Y-46170000D02*
X160710000Y-47500000D01*
X158110000Y-48830000D02*
X122490000Y-48830000D01*
X122490000Y-46170000D02*
X122490000Y-48830000D01*
X158110000Y-46170000D02*
X158110000Y-48830000D01*
%TO.C,U3*%
X99120000Y-58187500D02*
X99120000Y-56857500D01*
X114650000Y-59457500D02*
X114650000Y-72137500D01*
X99120000Y-59457500D02*
X114650000Y-59457500D01*
X99120000Y-72137500D02*
X114650000Y-72137500D01*
X99120000Y-56857500D02*
X100450000Y-56857500D01*
X99120000Y-59457500D02*
X99120000Y-72137500D01*
%TD*%
M02*
