%TF.GenerationSoftware,KiCad,Pcbnew,(6.0.6)*%
%TF.CreationDate,2022-11-13T22:02:21-06:00*%
%TF.ProjectId,unicorn,756e6963-6f72-46e2-9e6b-696361645f70,rev?*%
%TF.SameCoordinates,Original*%
%TF.FileFunction,Soldermask,Bot*%
%TF.FilePolarity,Negative*%
%FSLAX46Y46*%
G04 Gerber Fmt 4.6, Leading zero omitted, Abs format (unit mm)*
G04 Created by KiCad (PCBNEW (6.0.6)) date 2022-11-13 22:02:21*
%MOMM*%
%LPD*%
G01*
G04 APERTURE LIST*
%ADD10R,1.700000X1.700000*%
%ADD11O,1.700000X1.700000*%
%ADD12C,3.200000*%
G04 APERTURE END LIST*
D10*
%TO.C,U5*%
X126500000Y-56950000D03*
D11*
X126500000Y-59490000D03*
X126500000Y-62030000D03*
X126500000Y-64570000D03*
X126500000Y-67110000D03*
X126500000Y-69650000D03*
X126500000Y-72190000D03*
X126500000Y-74730000D03*
X126500000Y-77270000D03*
X126500000Y-79810000D03*
X126500000Y-82350000D03*
X126500000Y-84890000D03*
X126500000Y-87430000D03*
X126500000Y-89970000D03*
X126500000Y-92510000D03*
X151940000Y-92510000D03*
X151940000Y-89970000D03*
X151940000Y-87430000D03*
X151940000Y-84890000D03*
X151940000Y-82350000D03*
X151940000Y-79810000D03*
X151940000Y-77270000D03*
X151940000Y-74730000D03*
X151940000Y-72190000D03*
X151940000Y-69650000D03*
X151940000Y-67110000D03*
X151940000Y-64570000D03*
X151940000Y-62030000D03*
X151940000Y-59490000D03*
X151940000Y-56950000D03*
%TD*%
D10*
%TO.C,U1*%
X169200000Y-56787500D03*
D11*
X169200000Y-59327500D03*
X169200000Y-61867500D03*
X169200000Y-64407500D03*
X169200000Y-66947500D03*
X169200000Y-69487500D03*
X179400000Y-69487500D03*
X179400000Y-66987500D03*
X179400000Y-64447500D03*
X179400000Y-61907500D03*
X179400000Y-59367500D03*
X179400000Y-56827500D03*
%TD*%
D12*
%TO.C,H3*%
X95500000Y-46000000D03*
%TD*%
D10*
%TO.C,J1*%
X159450000Y-47700000D03*
D11*
X156910000Y-47700000D03*
X154370000Y-47700000D03*
X151830000Y-47700000D03*
X149290000Y-47700000D03*
X146750000Y-47700000D03*
X144210000Y-47700000D03*
X141670000Y-47700000D03*
X139130000Y-47700000D03*
X136590000Y-47700000D03*
X134050000Y-47700000D03*
X131510000Y-47700000D03*
X128970000Y-47700000D03*
X126430000Y-47700000D03*
X123890000Y-47700000D03*
X121350000Y-47700000D03*
%TD*%
D10*
%TO.C,U3*%
X100500000Y-58087500D03*
D11*
X100500000Y-60627500D03*
X100500000Y-63167500D03*
X100500000Y-65707500D03*
X100500000Y-68247500D03*
X100500000Y-70787500D03*
X110700000Y-70787500D03*
X110700000Y-68287500D03*
X110700000Y-65747500D03*
X110700000Y-63207500D03*
X110700000Y-60667500D03*
X110700000Y-58127500D03*
%TD*%
D12*
%TO.C,H1*%
X95500000Y-96000000D03*
%TD*%
D10*
%TO.C,U2*%
X168800000Y-80087500D03*
D11*
X168800000Y-82627500D03*
X168800000Y-85167500D03*
X168800000Y-87707500D03*
X168800000Y-90247500D03*
X168800000Y-92787500D03*
X179000000Y-92787500D03*
X179000000Y-90287500D03*
X179000000Y-87747500D03*
X179000000Y-85207500D03*
X179000000Y-82667500D03*
X179000000Y-80127500D03*
%TD*%
D12*
%TO.C,H4*%
X186000000Y-46000000D03*
%TD*%
D10*
%TO.C,U4*%
X100600000Y-79487500D03*
D11*
X100600000Y-82027500D03*
X100600000Y-84567500D03*
X100600000Y-87107500D03*
X100600000Y-89647500D03*
X100600000Y-92187500D03*
X110800000Y-92187500D03*
X110800000Y-89687500D03*
X110800000Y-87147500D03*
X110800000Y-84607500D03*
X110800000Y-82067500D03*
X110800000Y-79527500D03*
%TD*%
D12*
%TO.C,H2*%
X186000000Y-96000000D03*
%TD*%
M02*
