M48
; DRILL file {KiCad (6.0.6)} date Sun Oct 16 13:52:32 2022
; FORMAT={-:-/ absolute / inch / decimal}
; #@! TF.CreationDate,2022-10-16T13:52:32-05:00
; #@! TF.GenerationSoftware,Kicad,Pcbnew,(6.0.6)
; #@! TF.FileFunction,Plated,1,2,PTH
FMAT,2
INCH
; #@! TA.AperFunction,Plated,PTH,ViaDrill
T1C0.0157
; #@! TA.AperFunction,Plated,PTH,ComponentDrill
T2C0.0394
%
G90
G05
T1
X4.7776Y-2.0335
X4.9803Y-2.0354
X6.3854Y-3.1467
X6.4998Y-3.6068
T2
X3.9547Y-2.2908
X3.9547Y-2.3908
X3.9547Y-2.4908
X3.9547Y-2.5908
X3.9547Y-2.6908
X3.9547Y-2.7908
X3.9606Y-3.1299
X3.9606Y-3.2299
X3.9606Y-3.3299
X3.9606Y-3.4299
X3.9606Y-3.5299
X3.9606Y-3.6299
X4.4547Y-2.2908
X4.4547Y-2.3908
X4.4547Y-2.4908
X4.4547Y-2.5908
X4.4547Y-2.6908
X4.4547Y-2.7908
X4.4606Y-3.1299
X4.4606Y-3.2299
X4.4606Y-3.3299
X4.4606Y-3.4299
X4.4606Y-3.5299
X4.4606Y-3.6299
X4.7776Y-1.878
X4.8776Y-1.878
X4.9776Y-1.878
X4.9783Y-2.2392
X4.9783Y-2.3392
X4.9783Y-2.4392
X4.9783Y-2.5392
X4.9783Y-2.6392
X4.9783Y-2.7392
X4.9783Y-2.8392
X4.9783Y-2.9392
X4.9783Y-3.0392
X4.9783Y-3.1392
X4.9783Y-3.2392
X4.9783Y-3.3392
X4.9783Y-3.4392
X4.9783Y-3.5392
X4.9783Y-3.6392
X5.0776Y-1.878
X5.1776Y-1.878
X5.2776Y-1.878
X5.3776Y-1.878
X5.4776Y-1.878
X5.5776Y-1.878
X5.6776Y-1.878
X5.7776Y-1.878
X5.8776Y-1.878
X5.9776Y-1.878
X6.0776Y-1.878
X6.0783Y-2.2392
X6.0783Y-2.3392
X6.0783Y-2.4392
X6.0783Y-2.5392
X6.0783Y-2.6392
X6.0783Y-2.7392
X6.0783Y-2.8392
X6.0783Y-2.9392
X6.0783Y-3.0392
X6.0783Y-3.1392
X6.0783Y-3.2392
X6.0783Y-3.3392
X6.0783Y-3.4392
X6.0783Y-3.5392
X6.0783Y-3.6392
X6.1776Y-1.878
X6.2776Y-1.878
X6.565Y-3.1531
X6.565Y-3.2531
X6.565Y-3.3531
X6.565Y-3.4531
X6.565Y-3.5531
X6.565Y-3.6531
X6.5728Y-2.2357
X6.5728Y-2.3357
X6.5728Y-2.4357
X6.5728Y-2.5357
X6.5728Y-2.6357
X6.5728Y-2.7357
X7.065Y-3.1531
X7.065Y-3.2531
X7.065Y-3.3531
X7.065Y-3.4531
X7.065Y-3.5531
X7.065Y-3.6531
X7.0728Y-2.2357
X7.0728Y-2.3357
X7.0728Y-2.4357
X7.0728Y-2.5357
X7.0728Y-2.6357
X7.0728Y-2.7357
T0
M30
