M48
; DRILL file {KiCad (6.0.6)} date Fri Oct 14 22:33:36 2022
; FORMAT={-:-/ absolute / inch / decimal}
; #@! TF.CreationDate,2022-10-14T22:33:36-05:00
; #@! TF.GenerationSoftware,Kicad,Pcbnew,(6.0.6)
; #@! TF.FileFunction,Plated,1,2,PTH
FMAT,2
INCH
; #@! TA.AperFunction,Plated,PTH,ViaDrill
T1C0.0157
; #@! TA.AperFunction,Plated,PTH,ComponentDrill
T2C0.0394
%
G90
G05
T1
X6.3854Y-3.1467
X6.4998Y-3.6068
T2
X3.9547Y-2.2908
X3.9547Y-2.3908
X3.9547Y-2.4908
X3.9547Y-2.5908
X3.9547Y-2.6908
X3.9547Y-2.7908
X3.9606Y-3.1299
X3.9606Y-3.2299
X3.9606Y-3.3299
X3.9606Y-3.4299
X3.9606Y-3.5299
X3.9606Y-3.6299
X4.4547Y-2.2908
X4.4547Y-2.3908
X4.4547Y-2.4908
X4.4547Y-2.5908
X4.4547Y-2.6908
X4.4547Y-2.7908
X4.4606Y-3.1299
X4.4606Y-3.2299
X4.4606Y-3.3299
X4.4606Y-3.4299
X4.4606Y-3.5299
X4.4606Y-3.6299
X4.8748Y-1.8701
X4.9748Y-1.8701
X4.9783Y-2.2392
X4.9783Y-2.3392
X4.9783Y-2.4392
X4.9783Y-2.5392
X4.9783Y-2.6392
X4.9783Y-2.7392
X4.9783Y-2.8392
X4.9783Y-2.9392
X4.9783Y-3.0392
X4.9783Y-3.1392
X4.9783Y-3.2392
X4.9783Y-3.3392
X4.9783Y-3.4392
X4.9783Y-3.5392
X4.9783Y-3.6392
X5.0748Y-1.8701
X5.1748Y-1.8701
X5.2748Y-1.8701
X5.3748Y-1.8701
X5.4748Y-1.8701
X5.5748Y-1.8701
X5.6748Y-1.8701
X5.7748Y-1.8701
X5.8748Y-1.8701
X5.9748Y-1.8701
X6.0748Y-1.8701
X6.0783Y-2.2392
X6.0783Y-2.3392
X6.0783Y-2.4392
X6.0783Y-2.5392
X6.0783Y-2.6392
X6.0783Y-2.7392
X6.0783Y-2.8392
X6.0783Y-2.9392
X6.0783Y-3.0392
X6.0783Y-3.1392
X6.0783Y-3.2392
X6.0783Y-3.3392
X6.0783Y-3.4392
X6.0783Y-3.5392
X6.0783Y-3.6392
X6.1748Y-1.8701
X6.2748Y-1.8701
X6.565Y-3.1531
X6.565Y-3.2531
X6.565Y-3.3531
X6.565Y-3.4531
X6.565Y-3.5531
X6.565Y-3.6531
X6.5728Y-2.2357
X6.5728Y-2.3357
X6.5728Y-2.4357
X6.5728Y-2.5357
X6.5728Y-2.6357
X6.5728Y-2.7357
X7.065Y-3.1531
X7.065Y-3.2531
X7.065Y-3.3531
X7.065Y-3.4531
X7.065Y-3.5531
X7.065Y-3.6531
X7.0728Y-2.2357
X7.0728Y-2.3357
X7.0728Y-2.4357
X7.0728Y-2.5357
X7.0728Y-2.6357
X7.0728Y-2.7357
T0
M30
