%TF.GenerationSoftware,KiCad,Pcbnew,6.0.1-79c1e3a40b~116~ubuntu21.04.1*%
%TF.CreationDate,2022-06-30T07:35:43-05:00*%
%TF.ProjectId,Console,436f6e73-6f6c-4652-9e6b-696361645f70,rev?*%
%TF.SameCoordinates,Original*%
%TF.FileFunction,Soldermask,Bot*%
%TF.FilePolarity,Negative*%
%FSLAX46Y46*%
G04 Gerber Fmt 4.6, Leading zero omitted, Abs format (unit mm)*
G04 Created by KiCad (PCBNEW 6.0.1-79c1e3a40b~116~ubuntu21.04.1) date 2022-06-30 07:35:43*
%MOMM*%
%LPD*%
G01*
G04 APERTURE LIST*
G04 Aperture macros list*
%AMRoundRect*
0 Rectangle with rounded corners*
0 $1 Rounding radius*
0 $2 $3 $4 $5 $6 $7 $8 $9 X,Y pos of 4 corners*
0 Add a 4 corners polygon primitive as box body*
4,1,4,$2,$3,$4,$5,$6,$7,$8,$9,$2,$3,0*
0 Add four circle primitives for the rounded corners*
1,1,$1+$1,$2,$3*
1,1,$1+$1,$4,$5*
1,1,$1+$1,$6,$7*
1,1,$1+$1,$8,$9*
0 Add four rect primitives between the rounded corners*
20,1,$1+$1,$2,$3,$4,$5,0*
20,1,$1+$1,$4,$5,$6,$7,0*
20,1,$1+$1,$6,$7,$8,$9,0*
20,1,$1+$1,$8,$9,$2,$3,0*%
G04 Aperture macros list end*
%ADD10R,2.400000X1.600000*%
%ADD11O,2.400000X1.600000*%
%ADD12C,1.600000*%
%ADD13O,1.600000X1.600000*%
%ADD14C,3.200000*%
%ADD15R,1.600000X1.600000*%
%ADD16R,1.800000X1.800000*%
%ADD17O,1.800000X1.800000*%
%ADD18C,4.000000*%
%ADD19C,1.500000*%
%ADD20R,1.700000X1.700000*%
%ADD21O,1.700000X1.700000*%
%ADD22R,1.100000X1.800000*%
%ADD23RoundRect,0.275000X-0.275000X-0.625000X0.275000X-0.625000X0.275000X0.625000X-0.275000X0.625000X0*%
%ADD24R,1.905000X2.000000*%
%ADD25O,1.905000X2.000000*%
%ADD26RoundRect,0.250001X-1.099999X-1.399999X1.099999X-1.399999X1.099999X1.399999X-1.099999X1.399999X0*%
%ADD27O,2.700000X3.300000*%
%ADD28C,1.800000*%
G04 APERTURE END LIST*
D10*
%TO.C,U7*%
X276870000Y-196265000D03*
D11*
X276870000Y-198805000D03*
X276870000Y-201345000D03*
X276870000Y-203885000D03*
X276870000Y-206425000D03*
X276870000Y-208965000D03*
X276870000Y-211505000D03*
X284490000Y-211505000D03*
X284490000Y-208965000D03*
X284490000Y-206425000D03*
X284490000Y-203885000D03*
X284490000Y-201345000D03*
X284490000Y-198805000D03*
X284490000Y-196265000D03*
%TD*%
D12*
%TO.C,R15*%
X192405000Y-203200000D03*
D13*
X200025000Y-203200000D03*
%TD*%
D12*
%TO.C,R14*%
X192405000Y-198755000D03*
D13*
X200025000Y-198755000D03*
%TD*%
D10*
%TO.C,U17*%
X226382500Y-47620000D03*
D11*
X226382500Y-50160000D03*
X226382500Y-52700000D03*
X226382500Y-55240000D03*
X226382500Y-57780000D03*
X226382500Y-60320000D03*
X226382500Y-62860000D03*
X226382500Y-65400000D03*
X234002500Y-65400000D03*
X234002500Y-62860000D03*
X234002500Y-60320000D03*
X234002500Y-57780000D03*
X234002500Y-55240000D03*
X234002500Y-52700000D03*
X234002500Y-50160000D03*
X234002500Y-47620000D03*
%TD*%
D12*
%TO.C,C85*%
X97790000Y-46355000D03*
X102790000Y-46355000D03*
%TD*%
%TO.C,R96*%
X391160000Y-158750000D03*
D13*
X398780000Y-158750000D03*
%TD*%
D10*
%TO.C,U11*%
X192566300Y-47620000D03*
D11*
X192566300Y-50160000D03*
X192566300Y-52700000D03*
X192566300Y-55240000D03*
X192566300Y-57780000D03*
X192566300Y-60320000D03*
X192566300Y-62860000D03*
X192566300Y-65400000D03*
X192566300Y-67940000D03*
X192566300Y-70480000D03*
X200186300Y-70480000D03*
X200186300Y-67940000D03*
X200186300Y-65400000D03*
X200186300Y-62860000D03*
X200186300Y-60320000D03*
X200186300Y-57780000D03*
X200186300Y-55240000D03*
X200186300Y-52700000D03*
X200186300Y-50160000D03*
X200186300Y-47620000D03*
%TD*%
D12*
%TO.C,R9*%
X231140000Y-86360000D03*
D13*
X223520000Y-86360000D03*
%TD*%
D12*
%TO.C,C37*%
X308650000Y-90805000D03*
X313650000Y-90805000D03*
%TD*%
D14*
%TO.C,H10*%
X389890000Y-43180000D03*
%TD*%
D12*
%TO.C,R21*%
X49530000Y-182245000D03*
D13*
X57150000Y-182245000D03*
%TD*%
D15*
%TO.C,C5*%
X171558600Y-131445000D03*
D12*
X174058600Y-131445000D03*
%TD*%
D10*
%TO.C,U44*%
X372120000Y-106685000D03*
D11*
X372120000Y-109225000D03*
X372120000Y-111765000D03*
X372120000Y-114305000D03*
X372120000Y-116845000D03*
X372120000Y-119385000D03*
X372120000Y-121925000D03*
X372120000Y-124465000D03*
X372120000Y-127005000D03*
X372120000Y-129545000D03*
X379740000Y-129545000D03*
X379740000Y-127005000D03*
X379740000Y-124465000D03*
X379740000Y-121925000D03*
X379740000Y-119385000D03*
X379740000Y-116845000D03*
X379740000Y-114305000D03*
X379740000Y-111765000D03*
X379740000Y-109225000D03*
X379740000Y-106685000D03*
%TD*%
D12*
%TO.C,C27*%
X50205000Y-67310000D03*
X55205000Y-67310000D03*
%TD*%
%TO.C,R19*%
X259715000Y-184785000D03*
D13*
X267335000Y-184785000D03*
%TD*%
D12*
%TO.C,C47*%
X139105000Y-180975000D03*
X144105000Y-180975000D03*
%TD*%
D14*
%TO.C,H6*%
X31750000Y-216535000D03*
%TD*%
D12*
%TO.C,L19*%
X67310000Y-111125000D03*
D13*
X59690000Y-111125000D03*
%TD*%
D12*
%TO.C,C64*%
X91520000Y-99695000D03*
X96520000Y-99695000D03*
%TD*%
D10*
%TO.C,U8*%
X243830000Y-196265000D03*
D11*
X243830000Y-198805000D03*
X243830000Y-201345000D03*
X243830000Y-203885000D03*
X243830000Y-206425000D03*
X243830000Y-208965000D03*
X243830000Y-211505000D03*
X243830000Y-214045000D03*
X251450000Y-214045000D03*
X251450000Y-211505000D03*
X251450000Y-208965000D03*
X251450000Y-206425000D03*
X251450000Y-203885000D03*
X251450000Y-201345000D03*
X251450000Y-198805000D03*
X251450000Y-196265000D03*
%TD*%
D12*
%TO.C,C23*%
X160060000Y-42545000D03*
X165060000Y-42545000D03*
%TD*%
D16*
%TO.C,CR1*%
X49530000Y-177165000D03*
D17*
X57150000Y-177165000D03*
%TD*%
D10*
%TO.C,U38*%
X331480000Y-107320000D03*
D11*
X331480000Y-109860000D03*
X331480000Y-112400000D03*
X331480000Y-114940000D03*
X331480000Y-117480000D03*
X331480000Y-120020000D03*
X331480000Y-122560000D03*
X331480000Y-125100000D03*
X331480000Y-127640000D03*
X331480000Y-130180000D03*
X339100000Y-130180000D03*
X339100000Y-127640000D03*
X339100000Y-125100000D03*
X339100000Y-122560000D03*
X339100000Y-120020000D03*
X339100000Y-117480000D03*
X339100000Y-114940000D03*
X339100000Y-112400000D03*
X339100000Y-109860000D03*
X339100000Y-107320000D03*
%TD*%
D18*
%TO.C,J10*%
X31400300Y-88455000D03*
X31400300Y-113455000D03*
D15*
X40600300Y-95415000D03*
D12*
X40600300Y-98185000D03*
X40600300Y-100955000D03*
X40600300Y-103725000D03*
X40600300Y-106495000D03*
X37760300Y-96800000D03*
X37760300Y-99570000D03*
X37760300Y-102340000D03*
X37760300Y-105110000D03*
%TD*%
%TO.C,C4*%
X170220000Y-99060000D03*
X175220000Y-99060000D03*
%TD*%
%TO.C,C6*%
X170220000Y-142240000D03*
X175220000Y-142240000D03*
%TD*%
%TO.C,C19*%
X245150000Y-42545000D03*
X250150000Y-42545000D03*
%TD*%
%TO.C,R84*%
X138430000Y-48895000D03*
D13*
X146050000Y-48895000D03*
%TD*%
D19*
%TO.C,Y2*%
X311240000Y-181610000D03*
X316120000Y-181610000D03*
%TD*%
D20*
%TO.C,J8*%
X70485000Y-33020000D03*
D21*
X73025000Y-33020000D03*
%TD*%
D12*
%TO.C,R6*%
X190500000Y-127000000D03*
D13*
X182880000Y-127000000D03*
%TD*%
D12*
%TO.C,R67*%
X123190000Y-108585000D03*
D13*
X130810000Y-108585000D03*
%TD*%
D10*
%TO.C,U18*%
X294015000Y-47620000D03*
D11*
X294015000Y-50160000D03*
X294015000Y-52700000D03*
X294015000Y-55240000D03*
X294015000Y-57780000D03*
X294015000Y-60320000D03*
X294015000Y-62860000D03*
X301635000Y-62860000D03*
X301635000Y-60320000D03*
X301635000Y-57780000D03*
X301635000Y-55240000D03*
X301635000Y-52700000D03*
X301635000Y-50160000D03*
X301635000Y-47620000D03*
%TD*%
D14*
%TO.C,H5*%
X406400000Y-36195000D03*
%TD*%
D12*
%TO.C,R66*%
X123190000Y-113030000D03*
D13*
X130810000Y-113030000D03*
%TD*%
D12*
%TO.C,C34*%
X212130000Y-191135000D03*
X217130000Y-191135000D03*
%TD*%
%TO.C,R27*%
X272415000Y-184785000D03*
D13*
X280035000Y-184785000D03*
%TD*%
D12*
%TO.C,R62*%
X160655000Y-135255000D03*
D13*
X160655000Y-127635000D03*
%TD*%
D12*
%TO.C,R58*%
X90805000Y-41910000D03*
D13*
X83185000Y-41910000D03*
%TD*%
D10*
%TO.C,U14*%
X277106900Y-47620000D03*
D11*
X277106900Y-50160000D03*
X277106900Y-52700000D03*
X277106900Y-55240000D03*
X277106900Y-57780000D03*
X277106900Y-60320000D03*
X277106900Y-62860000D03*
X284726900Y-62860000D03*
X284726900Y-60320000D03*
X284726900Y-57780000D03*
X284726900Y-55240000D03*
X284726900Y-52700000D03*
X284726900Y-50160000D03*
X284726900Y-47620000D03*
%TD*%
D12*
%TO.C,C43*%
X306110000Y-189230000D03*
X311110000Y-189230000D03*
%TD*%
%TO.C,C52*%
X38140000Y-58420000D03*
X43140000Y-58420000D03*
%TD*%
%TO.C,R101*%
X391160000Y-149860000D03*
D13*
X398780000Y-149860000D03*
%TD*%
D12*
%TO.C,C26*%
X255905000Y-178435000D03*
X260905000Y-178435000D03*
%TD*%
%TO.C,C54*%
X43140000Y-62865000D03*
X38140000Y-62865000D03*
%TD*%
%TO.C,R80*%
X138430000Y-40005000D03*
D13*
X146050000Y-40005000D03*
%TD*%
D12*
%TO.C,R17*%
X227965000Y-184785000D03*
D13*
X235585000Y-184785000D03*
%TD*%
D12*
%TO.C,R89*%
X371475000Y-135890000D03*
D13*
X379095000Y-135890000D03*
%TD*%
D16*
%TO.C,CR4*%
X160655000Y-120015000D03*
D17*
X160655000Y-112395000D03*
%TD*%
D10*
%TO.C,SW1*%
X177170000Y-196855000D03*
D11*
X177170000Y-199395000D03*
X177170000Y-201935000D03*
X177170000Y-204475000D03*
X177170000Y-207015000D03*
X187330000Y-207015000D03*
X187330000Y-204475000D03*
X187330000Y-201935000D03*
X187330000Y-199395000D03*
X187330000Y-196855000D03*
%TD*%
D12*
%TO.C,R60*%
X90805000Y-50800000D03*
D13*
X83185000Y-50800000D03*
%TD*%
D12*
%TO.C,C11*%
X184190000Y-170180000D03*
X189190000Y-170180000D03*
%TD*%
%TO.C,R88*%
X59055000Y-144780000D03*
D13*
X66675000Y-144780000D03*
%TD*%
D12*
%TO.C,R31*%
X125730000Y-165100000D03*
D13*
X133350000Y-165100000D03*
%TD*%
D14*
%TO.C,H3*%
X31115000Y-35560000D03*
%TD*%
D12*
%TO.C,R51*%
X113030000Y-146685000D03*
D13*
X120650000Y-146685000D03*
%TD*%
D12*
%TO.C,C78*%
X105410000Y-154940000D03*
X100410000Y-154940000D03*
%TD*%
%TO.C,C28*%
X373420000Y-101600000D03*
X378420000Y-101600000D03*
%TD*%
%TO.C,C63*%
X104180000Y-111125000D03*
X109180000Y-111125000D03*
%TD*%
%TO.C,C2*%
X170220000Y-93980000D03*
X175220000Y-93980000D03*
%TD*%
%TO.C,R102*%
X391160000Y-179070000D03*
D13*
X398780000Y-179070000D03*
%TD*%
D12*
%TO.C,L5*%
X57150000Y-189865000D03*
D13*
X49530000Y-189865000D03*
%TD*%
D12*
%TO.C,R13*%
X294005000Y-198120000D03*
D13*
X301625000Y-198120000D03*
%TD*%
D12*
%TO.C,L14*%
X109855000Y-52705000D03*
D13*
X117475000Y-52705000D03*
%TD*%
D12*
%TO.C,R40*%
X90210000Y-111125000D03*
D13*
X97830000Y-111125000D03*
%TD*%
D12*
%TO.C,C15*%
X50840000Y-172085000D03*
X55840000Y-172085000D03*
%TD*%
D20*
%TO.C,J2*%
X173990000Y-33020000D03*
D21*
X176530000Y-33020000D03*
%TD*%
D12*
%TO.C,C1*%
X175220000Y-149860000D03*
X170220000Y-149860000D03*
%TD*%
%TO.C,C82*%
X97790000Y-50800000D03*
X102790000Y-50800000D03*
%TD*%
%TO.C,R82*%
X138430000Y-44450000D03*
D13*
X146050000Y-44450000D03*
%TD*%
D10*
%TO.C,U6*%
X260350000Y-196265000D03*
D11*
X260350000Y-198805000D03*
X260350000Y-201345000D03*
X260350000Y-203885000D03*
X260350000Y-206425000D03*
X260350000Y-208965000D03*
X260350000Y-211505000D03*
X267970000Y-211505000D03*
X267970000Y-208965000D03*
X267970000Y-206425000D03*
X267970000Y-203885000D03*
X267970000Y-201345000D03*
X267970000Y-198805000D03*
X267970000Y-196265000D03*
%TD*%
D12*
%TO.C,L16*%
X109855000Y-40005000D03*
D13*
X117475000Y-40005000D03*
%TD*%
D12*
%TO.C,C38*%
X311785000Y-119380000D03*
X316785000Y-119380000D03*
%TD*%
%TO.C,C86*%
X97790000Y-55880000D03*
X102790000Y-55880000D03*
%TD*%
D10*
%TO.C,U40*%
X123200000Y-89545000D03*
D11*
X123200000Y-92085000D03*
X123200000Y-94625000D03*
X123200000Y-97165000D03*
X130820000Y-97165000D03*
X130820000Y-94625000D03*
X130820000Y-92085000D03*
X130820000Y-89545000D03*
%TD*%
D10*
%TO.C,U16*%
X243290600Y-47620000D03*
D11*
X243290600Y-50160000D03*
X243290600Y-52700000D03*
X243290600Y-55240000D03*
X243290600Y-57780000D03*
X243290600Y-60320000D03*
X243290600Y-62860000D03*
X250910600Y-62860000D03*
X250910600Y-60320000D03*
X250910600Y-57780000D03*
X250910600Y-55240000D03*
X250910600Y-52700000D03*
X250910600Y-50160000D03*
X250910600Y-47620000D03*
%TD*%
D12*
%TO.C,C7*%
X184190000Y-177800000D03*
X189190000Y-177800000D03*
%TD*%
%TO.C,R49*%
X113030000Y-137795000D03*
D13*
X120650000Y-137795000D03*
%TD*%
D10*
%TO.C,U32*%
X274315000Y-94600000D03*
D11*
X274315000Y-97140000D03*
X274315000Y-99680000D03*
X274315000Y-102220000D03*
X274315000Y-104760000D03*
X274315000Y-107300000D03*
X274315000Y-109840000D03*
X274315000Y-112380000D03*
X274315000Y-114920000D03*
X274315000Y-117460000D03*
X274315000Y-120000000D03*
X274315000Y-122540000D03*
X274315000Y-125080000D03*
X274315000Y-127620000D03*
X289555000Y-127620000D03*
X289555000Y-125080000D03*
X289555000Y-122540000D03*
X289555000Y-120000000D03*
X289555000Y-117460000D03*
X289555000Y-114920000D03*
X289555000Y-112380000D03*
X289555000Y-109840000D03*
X289555000Y-107300000D03*
X289555000Y-104760000D03*
X289555000Y-102220000D03*
X289555000Y-99680000D03*
X289555000Y-97140000D03*
X289555000Y-94600000D03*
%TD*%
D12*
%TO.C,R98*%
X372745000Y-196215000D03*
D13*
X380365000Y-196215000D03*
%TD*%
D12*
%TO.C,C41*%
X233085000Y-114300000D03*
X238085000Y-114300000D03*
%TD*%
%TO.C,R47*%
X113030000Y-128905000D03*
D13*
X120650000Y-128905000D03*
%TD*%
D12*
%TO.C,R54*%
X123190000Y-82550000D03*
D13*
X130810000Y-82550000D03*
%TD*%
D12*
%TO.C,C36*%
X280075000Y-178435000D03*
X285075000Y-178435000D03*
%TD*%
%TO.C,R16*%
X192405000Y-207645000D03*
D13*
X200025000Y-207645000D03*
%TD*%
D12*
%TO.C,R53*%
X113030000Y-156210000D03*
D13*
X120650000Y-156210000D03*
%TD*%
D12*
%TO.C,R45*%
X113030000Y-120015000D03*
D13*
X120650000Y-120015000D03*
%TD*%
D12*
%TO.C,R90*%
X379095000Y-140335000D03*
D13*
X371475000Y-140335000D03*
%TD*%
D12*
%TO.C,C13*%
X295315000Y-42545000D03*
X300315000Y-42545000D03*
%TD*%
D10*
%TO.C,U1*%
X182890000Y-95255000D03*
D11*
X182890000Y-97795000D03*
X182890000Y-100335000D03*
X182890000Y-102875000D03*
X182890000Y-105415000D03*
X182890000Y-107955000D03*
X182890000Y-110495000D03*
X182890000Y-113035000D03*
X182890000Y-115575000D03*
X182890000Y-118115000D03*
X190510000Y-118115000D03*
X190510000Y-115575000D03*
X190510000Y-113035000D03*
X190510000Y-110495000D03*
X190510000Y-107955000D03*
X190510000Y-105415000D03*
X190510000Y-102875000D03*
X190510000Y-100335000D03*
X190510000Y-97795000D03*
X190510000Y-95255000D03*
%TD*%
D12*
%TO.C,R2*%
X204470000Y-86360000D03*
D13*
X196850000Y-86360000D03*
%TD*%
D10*
%TO.C,U22*%
X344805000Y-194310000D03*
D11*
X344805000Y-196850000D03*
X344805000Y-199390000D03*
X344805000Y-201930000D03*
X344805000Y-204470000D03*
X344805000Y-207010000D03*
X344805000Y-209550000D03*
X344805000Y-212090000D03*
X352425000Y-212090000D03*
X352425000Y-209550000D03*
X352425000Y-207010000D03*
X352425000Y-204470000D03*
X352425000Y-201930000D03*
X352425000Y-199390000D03*
X352425000Y-196850000D03*
X352425000Y-194310000D03*
%TD*%
D12*
%TO.C,L12*%
X327025000Y-136525000D03*
D13*
X334645000Y-136525000D03*
%TD*%
D12*
%TO.C,R30*%
X125730000Y-170180000D03*
D13*
X133350000Y-170180000D03*
%TD*%
D12*
%TO.C,R76*%
X74295000Y-154305000D03*
D13*
X81915000Y-154305000D03*
%TD*%
D12*
%TO.C,R4*%
X182880000Y-134620000D03*
D13*
X190500000Y-134620000D03*
%TD*%
D12*
%TO.C,R72*%
X59055000Y-158115000D03*
D13*
X66675000Y-158115000D03*
%TD*%
D12*
%TO.C,R65*%
X109220000Y-88900000D03*
D13*
X116840000Y-88900000D03*
%TD*%
D14*
%TO.C,H1*%
X406400000Y-217170000D03*
%TD*%
D12*
%TO.C,C61*%
X328970000Y-83820000D03*
X333970000Y-83820000D03*
%TD*%
D14*
%TO.C,H7*%
X328930000Y-43180000D03*
%TD*%
D12*
%TO.C,R75*%
X69215000Y-55880000D03*
D13*
X76835000Y-55880000D03*
%TD*%
D10*
%TO.C,U9*%
X227310000Y-196265000D03*
D11*
X227310000Y-198805000D03*
X227310000Y-201345000D03*
X227310000Y-203885000D03*
X227310000Y-206425000D03*
X227310000Y-208965000D03*
X227310000Y-211505000D03*
X234930000Y-211505000D03*
X234930000Y-208965000D03*
X234930000Y-206425000D03*
X234930000Y-203885000D03*
X234930000Y-201345000D03*
X234930000Y-198805000D03*
X234930000Y-196265000D03*
%TD*%
D12*
%TO.C,C79*%
X61000000Y-116205000D03*
X66000000Y-116205000D03*
%TD*%
D22*
%TO.C,Q9*%
X73660000Y-101365000D03*
D23*
X74930000Y-99295000D03*
X76200000Y-101365000D03*
%TD*%
D24*
%TO.C,U19*%
X35560000Y-197485000D03*
D25*
X38100000Y-197485000D03*
X40640000Y-197485000D03*
%TD*%
D12*
%TO.C,R64*%
X59690000Y-125095000D03*
D13*
X67310000Y-125095000D03*
%TD*%
D20*
%TO.C,J12*%
X146045000Y-33020000D03*
D21*
X143505000Y-33020000D03*
X140965000Y-33020000D03*
X138425000Y-33020000D03*
X135885000Y-33020000D03*
X133345000Y-33020000D03*
X130805000Y-33020000D03*
X128265000Y-33020000D03*
X125725000Y-33020000D03*
X123185000Y-33020000D03*
X120645000Y-33020000D03*
X118105000Y-33020000D03*
X115565000Y-33020000D03*
X113025000Y-33020000D03*
X110485000Y-33020000D03*
%TD*%
D12*
%TO.C,R50*%
X113030000Y-142240000D03*
D13*
X120650000Y-142240000D03*
%TD*%
D12*
%TO.C,C84*%
X97790000Y-37465000D03*
X102790000Y-37465000D03*
%TD*%
%TO.C,L2*%
X182880000Y-149860000D03*
D13*
X190500000Y-149860000D03*
%TD*%
D12*
%TO.C,R61*%
X90805000Y-55880000D03*
D13*
X83185000Y-55880000D03*
%TD*%
D10*
%TO.C,U35*%
X330845000Y-149865000D03*
D11*
X330845000Y-152405000D03*
X330845000Y-154945000D03*
X330845000Y-157485000D03*
X330845000Y-160025000D03*
X330845000Y-162565000D03*
X330845000Y-165105000D03*
X330845000Y-167645000D03*
X330845000Y-170185000D03*
X330845000Y-172725000D03*
X338465000Y-172725000D03*
X338465000Y-170185000D03*
X338465000Y-167645000D03*
X338465000Y-165105000D03*
X338465000Y-162565000D03*
X338465000Y-160025000D03*
X338465000Y-157485000D03*
X338465000Y-154945000D03*
X338465000Y-152405000D03*
X338465000Y-149865000D03*
%TD*%
D12*
%TO.C,C65*%
X150495000Y-173355000D03*
X145495000Y-173355000D03*
%TD*%
D20*
%TO.C,J13*%
X394340000Y-128275000D03*
D21*
X391800000Y-128275000D03*
X394340000Y-125735000D03*
X391800000Y-125735000D03*
X394340000Y-123195000D03*
X391800000Y-123195000D03*
X394340000Y-120655000D03*
X391800000Y-120655000D03*
X394340000Y-118115000D03*
X391800000Y-118115000D03*
X394340000Y-115575000D03*
X391800000Y-115575000D03*
X394340000Y-113035000D03*
X391800000Y-113035000D03*
X394340000Y-110495000D03*
X391800000Y-110495000D03*
X394340000Y-107955000D03*
X391800000Y-107955000D03*
X394340000Y-105415000D03*
X391800000Y-105415000D03*
X394340000Y-102875000D03*
X391800000Y-102875000D03*
X394340000Y-100335000D03*
X391800000Y-100335000D03*
X394340000Y-97795000D03*
X391800000Y-97795000D03*
X394340000Y-95255000D03*
X391800000Y-95255000D03*
X394340000Y-92715000D03*
X391800000Y-92715000D03*
X394340000Y-90175000D03*
X391800000Y-90175000D03*
X394340000Y-87635000D03*
X391800000Y-87635000D03*
X394340000Y-85095000D03*
X391800000Y-85095000D03*
X394340000Y-82555000D03*
X391800000Y-82555000D03*
X394340000Y-80015000D03*
X391800000Y-80015000D03*
X394340000Y-77475000D03*
X391800000Y-77475000D03*
X394340000Y-74935000D03*
X391800000Y-74935000D03*
%TD*%
D12*
%TO.C,C71*%
X105490000Y-133350000D03*
X100490000Y-133350000D03*
%TD*%
%TO.C,L13*%
X132080000Y-40005000D03*
D13*
X124460000Y-40005000D03*
%TD*%
D12*
%TO.C,R63*%
X109220000Y-97790000D03*
D13*
X116840000Y-97790000D03*
%TD*%
D15*
%TO.C,C58*%
X316973600Y-48260000D03*
D12*
X319473600Y-48260000D03*
%TD*%
%TO.C,L4*%
X182880000Y-142240000D03*
D13*
X190500000Y-142240000D03*
%TD*%
D10*
%TO.C,U2*%
X199390000Y-93980000D03*
D11*
X199390000Y-96520000D03*
X199390000Y-99060000D03*
X199390000Y-101600000D03*
X199390000Y-104140000D03*
X199390000Y-106680000D03*
X199390000Y-109220000D03*
X199390000Y-111760000D03*
X199390000Y-114300000D03*
X199390000Y-116840000D03*
X199390000Y-119380000D03*
X199390000Y-121920000D03*
X199390000Y-124460000D03*
X199390000Y-127000000D03*
X199390000Y-129540000D03*
X199390000Y-132080000D03*
X199390000Y-134620000D03*
X199390000Y-137160000D03*
X199390000Y-139700000D03*
X199390000Y-142240000D03*
X199390000Y-144780000D03*
X199390000Y-147320000D03*
X199390000Y-149860000D03*
X199390000Y-152400000D03*
X199390000Y-154940000D03*
X199390000Y-157480000D03*
X199390000Y-160020000D03*
X199390000Y-162560000D03*
X199390000Y-165100000D03*
X199390000Y-167640000D03*
X199390000Y-170180000D03*
X199390000Y-172720000D03*
X222250000Y-172720000D03*
X222250000Y-170180000D03*
X222250000Y-167640000D03*
X222250000Y-165100000D03*
X222250000Y-162560000D03*
X222250000Y-160020000D03*
X222250000Y-157480000D03*
X222250000Y-154940000D03*
X222250000Y-152400000D03*
X222250000Y-149860000D03*
X222250000Y-147320000D03*
X222250000Y-144780000D03*
X222250000Y-142240000D03*
X222250000Y-139700000D03*
X222250000Y-137160000D03*
X222250000Y-134620000D03*
X222250000Y-132080000D03*
X222250000Y-129540000D03*
X222250000Y-127000000D03*
X222250000Y-124460000D03*
X222250000Y-121920000D03*
X222250000Y-119380000D03*
X222250000Y-116840000D03*
X222250000Y-114300000D03*
X222250000Y-111760000D03*
X222250000Y-109220000D03*
X222250000Y-106680000D03*
X222250000Y-104140000D03*
X222250000Y-101600000D03*
X222250000Y-99060000D03*
X222250000Y-96520000D03*
X222250000Y-93980000D03*
%TD*%
D10*
%TO.C,U10*%
X209474400Y-47620000D03*
D11*
X209474400Y-50160000D03*
X209474400Y-52700000D03*
X209474400Y-55240000D03*
X209474400Y-57780000D03*
X209474400Y-60320000D03*
X209474400Y-62860000D03*
X217094400Y-62860000D03*
X217094400Y-60320000D03*
X217094400Y-57780000D03*
X217094400Y-55240000D03*
X217094400Y-52700000D03*
X217094400Y-50160000D03*
X217094400Y-47620000D03*
%TD*%
D12*
%TO.C,R32*%
X47625000Y-38735000D03*
D13*
X40005000Y-38735000D03*
%TD*%
D12*
%TO.C,L1*%
X176530000Y-86360000D03*
D13*
X168910000Y-86360000D03*
%TD*%
D12*
%TO.C,R35*%
X316230000Y-83820000D03*
D13*
X323850000Y-83820000D03*
%TD*%
D22*
%TO.C,Q1*%
X234315000Y-159670000D03*
D23*
X235585000Y-157600000D03*
X236855000Y-159670000D03*
%TD*%
D12*
%TO.C,C48*%
X121325000Y-215265000D03*
X126325000Y-215265000D03*
%TD*%
D22*
%TO.C,Q2*%
X306705000Y-82835000D03*
D23*
X307975000Y-80765000D03*
X309245000Y-82835000D03*
%TD*%
D14*
%TO.C,H2*%
X246380000Y-72390000D03*
%TD*%
D12*
%TO.C,R104*%
X391160000Y-163830000D03*
D13*
X398780000Y-163830000D03*
%TD*%
D12*
%TO.C,C29*%
X210860000Y-42545000D03*
X215860000Y-42545000D03*
%TD*%
%TO.C,R23*%
X231775000Y-166370000D03*
D13*
X239395000Y-166370000D03*
%TD*%
D12*
%TO.C,C91*%
X61000000Y-120650000D03*
X66000000Y-120650000D03*
%TD*%
D14*
%TO.C,H8*%
X405765000Y-64770000D03*
%TD*%
D20*
%TO.C,J14*%
X408875000Y-127635000D03*
D21*
X403875000Y-127635000D03*
X408875000Y-125095000D03*
X403875000Y-125095000D03*
X408875000Y-122555000D03*
X403875000Y-122555000D03*
X408875000Y-120015000D03*
X403875000Y-120015000D03*
X408875000Y-117475000D03*
X403875000Y-117475000D03*
X408875000Y-114935000D03*
X403875000Y-114935000D03*
X408875000Y-112395000D03*
X403875000Y-112395000D03*
X408875000Y-109855000D03*
X403875000Y-109855000D03*
X408875000Y-107315000D03*
X403875000Y-107315000D03*
X408875000Y-104775000D03*
X403875000Y-104775000D03*
X408875000Y-102235000D03*
X403875000Y-102235000D03*
X408875000Y-99695000D03*
X403875000Y-99695000D03*
X408875000Y-97155000D03*
X403875000Y-97155000D03*
X408875000Y-94615000D03*
X403875000Y-94615000D03*
X408875000Y-92075000D03*
X403875000Y-92075000D03*
X408875000Y-89535000D03*
X403875000Y-89535000D03*
X408875000Y-86995000D03*
X403875000Y-86995000D03*
X408875000Y-84455000D03*
X403875000Y-84455000D03*
X408795000Y-81915000D03*
X403795000Y-81915000D03*
X408795000Y-79375000D03*
X403795000Y-79375000D03*
X408795000Y-76835000D03*
X403795000Y-76835000D03*
X408795000Y-74295000D03*
X403795000Y-74295000D03*
%TD*%
D12*
%TO.C,C32*%
X354370000Y-133985000D03*
X359370000Y-133985000D03*
%TD*%
%TO.C,R79*%
X59690000Y-76835000D03*
D13*
X67310000Y-76835000D03*
%TD*%
D12*
%TO.C,R68*%
X59055000Y-149225000D03*
D13*
X66675000Y-149225000D03*
%TD*%
D12*
%TO.C,C55*%
X332780000Y-181610000D03*
X337780000Y-181610000D03*
%TD*%
%TO.C,R3*%
X182880000Y-157480000D03*
D13*
X190500000Y-157480000D03*
%TD*%
D12*
%TO.C,C69*%
X110530000Y-82550000D03*
X115530000Y-82550000D03*
%TD*%
%TO.C,R99*%
X344170000Y-73660000D03*
D13*
X351790000Y-73660000D03*
%TD*%
D12*
%TO.C,C46*%
X122555000Y-180975000D03*
X127555000Y-180975000D03*
%TD*%
%TO.C,C53*%
X50840000Y-38735000D03*
X55840000Y-38735000D03*
%TD*%
D10*
%TO.C,U15*%
X260198800Y-47620000D03*
D11*
X260198800Y-50160000D03*
X260198800Y-52700000D03*
X260198800Y-55240000D03*
X260198800Y-57780000D03*
X260198800Y-60320000D03*
X260198800Y-62860000D03*
X267818800Y-62860000D03*
X267818800Y-60320000D03*
X267818800Y-57780000D03*
X267818800Y-55240000D03*
X267818800Y-52700000D03*
X267818800Y-50160000D03*
X267818800Y-47620000D03*
%TD*%
D19*
%TO.C,Y1*%
X184150000Y-86360000D03*
X189030000Y-86360000D03*
%TD*%
D12*
%TO.C,R55*%
X123190000Y-78105000D03*
D13*
X130810000Y-78105000D03*
%TD*%
D12*
%TO.C,R41*%
X103545000Y-104775000D03*
D13*
X111165000Y-104775000D03*
%TD*%
D12*
%TO.C,C83*%
X124500000Y-104140000D03*
X129500000Y-104140000D03*
%TD*%
%TO.C,L3*%
X168910000Y-119380000D03*
D13*
X176530000Y-119380000D03*
%TD*%
D12*
%TO.C,C16*%
X355005000Y-99695000D03*
X360005000Y-99695000D03*
%TD*%
D22*
%TO.C,Q4*%
X127000000Y-152050000D03*
D23*
X128270000Y-149980000D03*
X129540000Y-152050000D03*
%TD*%
D12*
%TO.C,R83*%
X74930000Y-140335000D03*
D13*
X82550000Y-140335000D03*
%TD*%
D12*
%TO.C,R7*%
X168910000Y-111760000D03*
D13*
X176530000Y-111760000D03*
%TD*%
D12*
%TO.C,R93*%
X372745000Y-186055000D03*
D13*
X380365000Y-186055000D03*
%TD*%
D20*
%TO.C,J6*%
X255905000Y-88900000D03*
D21*
X258445000Y-88900000D03*
X260985000Y-88900000D03*
%TD*%
D12*
%TO.C,R74*%
X59055000Y-162560000D03*
D13*
X66675000Y-162560000D03*
%TD*%
D12*
%TO.C,R69*%
X74295000Y-163830000D03*
D13*
X81915000Y-163830000D03*
%TD*%
D20*
%TO.C,J9*%
X302255000Y-33655000D03*
D21*
X304795000Y-33655000D03*
%TD*%
D12*
%TO.C,C88*%
X74335000Y-111125000D03*
X79335000Y-111125000D03*
%TD*%
D10*
%TO.C,U30*%
X250820000Y-94600000D03*
D11*
X250820000Y-97140000D03*
X250820000Y-99680000D03*
X250820000Y-102220000D03*
X250820000Y-104760000D03*
X250820000Y-107300000D03*
X250820000Y-109840000D03*
X250820000Y-112380000D03*
X250820000Y-114920000D03*
X250820000Y-117460000D03*
X250820000Y-120000000D03*
X250820000Y-122540000D03*
X250820000Y-125080000D03*
X250820000Y-127620000D03*
X266060000Y-127620000D03*
X266060000Y-125080000D03*
X266060000Y-122540000D03*
X266060000Y-120000000D03*
X266060000Y-117460000D03*
X266060000Y-114920000D03*
X266060000Y-112380000D03*
X266060000Y-109840000D03*
X266060000Y-107300000D03*
X266060000Y-104760000D03*
X266060000Y-102220000D03*
X266060000Y-99680000D03*
X266060000Y-97140000D03*
X266060000Y-94600000D03*
%TD*%
D12*
%TO.C,L7*%
X49530000Y-197485000D03*
D13*
X57150000Y-197485000D03*
%TD*%
D12*
%TO.C,C39*%
X245150000Y-191135000D03*
X250150000Y-191135000D03*
%TD*%
%TO.C,L9*%
X294005000Y-180975000D03*
D13*
X301625000Y-180975000D03*
%TD*%
D12*
%TO.C,C94*%
X74335000Y-120650000D03*
X79335000Y-120650000D03*
%TD*%
%TO.C,R11*%
X200025000Y-212725000D03*
D13*
X192405000Y-212725000D03*
%TD*%
D12*
%TO.C,R36*%
X316230000Y-74295000D03*
D13*
X323850000Y-74295000D03*
%TD*%
D12*
%TO.C,C35*%
X261025000Y-191135000D03*
X266025000Y-191135000D03*
%TD*%
%TO.C,C30*%
X279440000Y-132715000D03*
X284440000Y-132715000D03*
%TD*%
%TO.C,C14*%
X283170000Y-42545000D03*
X278170000Y-42545000D03*
%TD*%
D22*
%TO.C,Q8*%
X80645000Y-101250000D03*
D23*
X81915000Y-99180000D03*
X83185000Y-101250000D03*
%TD*%
D12*
%TO.C,C25*%
X184190000Y-185420000D03*
X189190000Y-185420000D03*
%TD*%
%TO.C,C31*%
X229235000Y-191135000D03*
X234235000Y-191135000D03*
%TD*%
D10*
%TO.C,U34*%
X306705000Y-125095000D03*
D11*
X306705000Y-127635000D03*
X306705000Y-130175000D03*
X306705000Y-132715000D03*
X306705000Y-135255000D03*
X306705000Y-137795000D03*
X306705000Y-140335000D03*
X306705000Y-142875000D03*
X306705000Y-145415000D03*
X306705000Y-147955000D03*
X306705000Y-150495000D03*
X306705000Y-153035000D03*
X306705000Y-155575000D03*
X306705000Y-158115000D03*
X306705000Y-160655000D03*
X306705000Y-163195000D03*
X306705000Y-165735000D03*
X306705000Y-168275000D03*
X306705000Y-170815000D03*
X306705000Y-173355000D03*
X321945000Y-173355000D03*
X321945000Y-170815000D03*
X321945000Y-168275000D03*
X321945000Y-165735000D03*
X321945000Y-163195000D03*
X321945000Y-160655000D03*
X321945000Y-158115000D03*
X321945000Y-155575000D03*
X321945000Y-153035000D03*
X321945000Y-150495000D03*
X321945000Y-147955000D03*
X321945000Y-145415000D03*
X321945000Y-142875000D03*
X321945000Y-140335000D03*
X321945000Y-137795000D03*
X321945000Y-135255000D03*
X321945000Y-132715000D03*
X321945000Y-130175000D03*
X321945000Y-127635000D03*
X321945000Y-125095000D03*
%TD*%
D12*
%TO.C,L10*%
X353695000Y-181610000D03*
D13*
X361315000Y-181610000D03*
%TD*%
D10*
%TO.C,U4*%
X231150000Y-121915000D03*
D11*
X231150000Y-124455000D03*
X231150000Y-126995000D03*
X231150000Y-129535000D03*
X231150000Y-132075000D03*
X231150000Y-134615000D03*
X231150000Y-137155000D03*
X238770000Y-137155000D03*
X238770000Y-134615000D03*
X238770000Y-132075000D03*
X238770000Y-129535000D03*
X238770000Y-126995000D03*
X238770000Y-124455000D03*
X238770000Y-121915000D03*
%TD*%
D12*
%TO.C,C24*%
X193715000Y-42545000D03*
X198715000Y-42545000D03*
%TD*%
%TO.C,R81*%
X82550000Y-135255000D03*
D13*
X74930000Y-135255000D03*
%TD*%
D12*
%TO.C,C68*%
X110530000Y-93345000D03*
X115530000Y-93345000D03*
%TD*%
%TO.C,R29*%
X125730000Y-160020000D03*
D13*
X133350000Y-160020000D03*
%TD*%
D14*
%TO.C,H9*%
X405765000Y-135890000D03*
%TD*%
D22*
%TO.C,Q6*%
X127635000Y-141890000D03*
D23*
X128905000Y-139820000D03*
X130175000Y-141890000D03*
%TD*%
D10*
%TO.C,U21*%
X307350000Y-97150000D03*
D11*
X307350000Y-99690000D03*
X307350000Y-102230000D03*
X307350000Y-104770000D03*
X307350000Y-107310000D03*
X307350000Y-109850000D03*
X307350000Y-112390000D03*
X314970000Y-112390000D03*
X314970000Y-109850000D03*
X314970000Y-107310000D03*
X314970000Y-104770000D03*
X314970000Y-102230000D03*
X314970000Y-99690000D03*
X314970000Y-97150000D03*
%TD*%
D10*
%TO.C,U33*%
X49540000Y-45075000D03*
D11*
X49540000Y-47615000D03*
X49540000Y-50155000D03*
X49540000Y-52695000D03*
X49540000Y-55235000D03*
X49540000Y-57775000D03*
X49540000Y-60315000D03*
X49540000Y-62855000D03*
X57160000Y-62855000D03*
X57160000Y-60315000D03*
X57160000Y-57775000D03*
X57160000Y-55235000D03*
X57160000Y-52695000D03*
X57160000Y-50155000D03*
X57160000Y-47615000D03*
X57160000Y-45075000D03*
%TD*%
D12*
%TO.C,C33*%
X233045000Y-142240000D03*
X238045000Y-142240000D03*
%TD*%
%TO.C,C21*%
X278805000Y-191135000D03*
X283805000Y-191135000D03*
%TD*%
%TO.C,C66*%
X76240000Y-130810000D03*
X81240000Y-130810000D03*
%TD*%
%TO.C,R33*%
X321945000Y-181610000D03*
D13*
X329565000Y-181610000D03*
%TD*%
D20*
%TO.C,J7*%
X280035000Y-88900000D03*
D21*
X282575000Y-88900000D03*
X285115000Y-88900000D03*
%TD*%
D10*
%TO.C,U20*%
X360055000Y-187955000D03*
D11*
X360055000Y-190495000D03*
X360055000Y-193035000D03*
X360055000Y-195575000D03*
X360055000Y-198115000D03*
X360055000Y-200655000D03*
X360055000Y-203195000D03*
X367675000Y-203195000D03*
X367675000Y-200655000D03*
X367675000Y-198115000D03*
X367675000Y-195575000D03*
X367675000Y-193035000D03*
X367675000Y-190495000D03*
X367675000Y-187955000D03*
%TD*%
D12*
%TO.C,R39*%
X161290000Y-93980000D03*
D13*
X161290000Y-101600000D03*
%TD*%
D12*
%TO.C,R86*%
X37465000Y-80010000D03*
D13*
X45085000Y-80010000D03*
%TD*%
D12*
%TO.C,R59*%
X90805000Y-46355000D03*
D13*
X83185000Y-46355000D03*
%TD*%
D12*
%TO.C,C56*%
X323255000Y-186690000D03*
X328255000Y-186690000D03*
%TD*%
%TO.C,R70*%
X59055000Y-153670000D03*
D13*
X66675000Y-153670000D03*
%TD*%
D12*
%TO.C,R26*%
X168910000Y-189865000D03*
D13*
X176530000Y-189865000D03*
%TD*%
D12*
%TO.C,R92*%
X371475000Y-149860000D03*
D13*
X379095000Y-149860000D03*
%TD*%
D12*
%TO.C,R34*%
X316230000Y-79375000D03*
D13*
X323850000Y-79375000D03*
%TD*%
D12*
%TO.C,R56*%
X90805000Y-33020000D03*
D13*
X83185000Y-33020000D03*
%TD*%
D12*
%TO.C,C12*%
X245110000Y-184150000D03*
X250110000Y-184150000D03*
%TD*%
D15*
%TO.C,C59*%
X339833600Y-139700000D03*
D12*
X342333600Y-139700000D03*
%TD*%
%TO.C,C45*%
X146090000Y-215265000D03*
X151090000Y-215265000D03*
%TD*%
D10*
%TO.C,U13*%
X175658100Y-47620000D03*
D11*
X175658100Y-50160000D03*
X175658100Y-52700000D03*
X175658100Y-55240000D03*
X175658100Y-57780000D03*
X175658100Y-60320000D03*
X175658100Y-62860000D03*
X175658100Y-65400000D03*
X175658100Y-67940000D03*
X175658100Y-70480000D03*
X183278100Y-70480000D03*
X183278100Y-67940000D03*
X183278100Y-65400000D03*
X183278100Y-62860000D03*
X183278100Y-60320000D03*
X183278100Y-57780000D03*
X183278100Y-55240000D03*
X183278100Y-52700000D03*
X183278100Y-50160000D03*
X183278100Y-47620000D03*
%TD*%
D10*
%TO.C,U5*%
X210790000Y-196265000D03*
D11*
X210790000Y-198805000D03*
X210790000Y-201345000D03*
X210790000Y-203885000D03*
X210790000Y-206425000D03*
X210790000Y-208965000D03*
X210790000Y-211505000D03*
X210790000Y-214045000D03*
X218410000Y-214045000D03*
X218410000Y-211505000D03*
X218410000Y-208965000D03*
X218410000Y-206425000D03*
X218410000Y-203885000D03*
X218410000Y-201345000D03*
X218410000Y-198805000D03*
X218410000Y-196265000D03*
%TD*%
D12*
%TO.C,R42*%
X142875000Y-83185000D03*
D13*
X150495000Y-83185000D03*
%TD*%
D12*
%TO.C,R94*%
X391160000Y-154305000D03*
D13*
X398780000Y-154305000D03*
%TD*%
D12*
%TO.C,L6*%
X67310000Y-197485000D03*
D13*
X74930000Y-197485000D03*
%TD*%
D15*
%TO.C,C60*%
X309353600Y-58420000D03*
D12*
X311853600Y-58420000D03*
%TD*%
D10*
%TO.C,U41*%
X144185000Y-150495000D03*
D11*
X144185000Y-153035000D03*
X144185000Y-155575000D03*
X144185000Y-158115000D03*
X144185000Y-160655000D03*
X144185000Y-163195000D03*
X144185000Y-165735000D03*
X144185000Y-168275000D03*
X151805000Y-168275000D03*
X151805000Y-165735000D03*
X151805000Y-163195000D03*
X151805000Y-160655000D03*
X151805000Y-158115000D03*
X151805000Y-155575000D03*
X151805000Y-153035000D03*
X151805000Y-150495000D03*
%TD*%
D12*
%TO.C,C72*%
X105490000Y-142240000D03*
X100490000Y-142240000D03*
%TD*%
D10*
%TO.C,U45*%
X371485000Y-155565000D03*
D11*
X371485000Y-158105000D03*
X371485000Y-160645000D03*
X371485000Y-163185000D03*
X371485000Y-165725000D03*
X371485000Y-168265000D03*
X371485000Y-170805000D03*
X371485000Y-173345000D03*
X379105000Y-173345000D03*
X379105000Y-170805000D03*
X379105000Y-168265000D03*
X379105000Y-165725000D03*
X379105000Y-163185000D03*
X379105000Y-160645000D03*
X379105000Y-158105000D03*
X379105000Y-155565000D03*
%TD*%
D12*
%TO.C,C92*%
X48300000Y-73660000D03*
X53300000Y-73660000D03*
%TD*%
%TO.C,R43*%
X90210000Y-104775000D03*
D13*
X97830000Y-104775000D03*
%TD*%
D10*
%TO.C,U43*%
X59700000Y-83175000D03*
D11*
X59700000Y-85715000D03*
X59700000Y-88255000D03*
X67320000Y-88255000D03*
X67320000Y-85715000D03*
X67320000Y-83175000D03*
%TD*%
D12*
%TO.C,C18*%
X374055000Y-73025000D03*
X379055000Y-73025000D03*
%TD*%
%TO.C,R24*%
X231775000Y-150495000D03*
D13*
X239395000Y-150495000D03*
%TD*%
D12*
%TO.C,C22*%
X255945000Y-132715000D03*
X260945000Y-132715000D03*
%TD*%
D22*
%TO.C,Q7*%
X62230000Y-135020000D03*
D23*
X63500000Y-132950000D03*
X64770000Y-135020000D03*
%TD*%
D20*
%TO.C,J3*%
X163830000Y-33020000D03*
D21*
X166370000Y-33020000D03*
%TD*%
D12*
%TO.C,C90*%
X75605000Y-144780000D03*
X80605000Y-144780000D03*
%TD*%
%TO.C,R5*%
X168910000Y-104140000D03*
D13*
X176530000Y-104140000D03*
%TD*%
D26*
%TO.C,J4*%
X42932500Y-209937500D03*
D27*
X47132500Y-209937500D03*
X51332500Y-209937500D03*
X55532500Y-209937500D03*
X59732500Y-209937500D03*
X63932500Y-209937500D03*
X68132500Y-209937500D03*
X72332500Y-209937500D03*
X76532500Y-209937500D03*
X80732500Y-209937500D03*
X42932500Y-215437500D03*
X47132500Y-215437500D03*
X51332500Y-215437500D03*
X55532500Y-215437500D03*
X59732500Y-215437500D03*
X63932500Y-215437500D03*
X68132500Y-215437500D03*
X72332500Y-215437500D03*
X76532500Y-215437500D03*
X80732500Y-215437500D03*
%TD*%
D12*
%TO.C,C50*%
X129580000Y-215265000D03*
X134580000Y-215265000D03*
%TD*%
%TO.C,R71*%
X120650000Y-161290000D03*
D13*
X113030000Y-161290000D03*
%TD*%
D20*
%TO.C,J15*%
X338317500Y-45020000D03*
D21*
X338317500Y-40020000D03*
X340857500Y-45020000D03*
X340857500Y-40020000D03*
X343397500Y-45020000D03*
X343397500Y-40020000D03*
X345937500Y-45020000D03*
X345937500Y-40020000D03*
X348477500Y-45020000D03*
X348477500Y-40020000D03*
X351017500Y-45020000D03*
X351017500Y-40020000D03*
X353557500Y-45020000D03*
X353557500Y-40020000D03*
X356097500Y-45020000D03*
X356097500Y-40020000D03*
X358637500Y-45020000D03*
X358637500Y-40020000D03*
X361177500Y-45020000D03*
X361177500Y-40020000D03*
X363717500Y-45020000D03*
X363717500Y-40020000D03*
X366257500Y-45020000D03*
X366257500Y-40020000D03*
X368797500Y-45020000D03*
X368797500Y-40020000D03*
X371337500Y-45020000D03*
X371337500Y-40020000D03*
X373877500Y-45020000D03*
X373877500Y-40020000D03*
X376417500Y-45020000D03*
X376417500Y-40020000D03*
X378957500Y-45020000D03*
X378957500Y-40020000D03*
X381497500Y-45020000D03*
X381497500Y-40020000D03*
%TD*%
D10*
%TO.C,U42*%
X73035000Y-83175000D03*
D11*
X73035000Y-85715000D03*
X73035000Y-88255000D03*
X80655000Y-88255000D03*
X80655000Y-85715000D03*
X80655000Y-83175000D03*
%TD*%
D16*
%TO.C,D1*%
X35560000Y-184785000D03*
D28*
X38100000Y-184785000D03*
%TD*%
D20*
%TO.C,J16*%
X338470000Y-62870000D03*
D21*
X338470000Y-60330000D03*
X341010000Y-62870000D03*
X341010000Y-60330000D03*
X343550000Y-62870000D03*
X343550000Y-60330000D03*
X346090000Y-62870000D03*
X346090000Y-60330000D03*
X348630000Y-62870000D03*
X348630000Y-60330000D03*
X351170000Y-62870000D03*
X351170000Y-60330000D03*
X353710000Y-62870000D03*
X353710000Y-60330000D03*
X356250000Y-62870000D03*
X356250000Y-60330000D03*
X358790000Y-62870000D03*
X358790000Y-60330000D03*
X361330000Y-62870000D03*
X361330000Y-60330000D03*
X363870000Y-62870000D03*
X363870000Y-60330000D03*
X366410000Y-62870000D03*
X366410000Y-60330000D03*
X368950000Y-62870000D03*
X368950000Y-60330000D03*
X371490000Y-62870000D03*
X371490000Y-60330000D03*
X374030000Y-62870000D03*
X374030000Y-60330000D03*
X376570000Y-62870000D03*
X376570000Y-60330000D03*
X379110000Y-62870000D03*
X379110000Y-60330000D03*
X381650000Y-62870000D03*
X381650000Y-60330000D03*
%TD*%
D12*
%TO.C,C75*%
X105490000Y-128905000D03*
X100490000Y-128905000D03*
%TD*%
D15*
%TO.C,R22*%
X149860000Y-186695000D03*
D13*
X149860000Y-189235000D03*
X149860000Y-191775000D03*
X149860000Y-194315000D03*
X149860000Y-196855000D03*
X149860000Y-199395000D03*
X149860000Y-201935000D03*
X149860000Y-204475000D03*
X149860000Y-207015000D03*
X149860000Y-209555000D03*
%TD*%
D12*
%TO.C,R95*%
X372745000Y-191135000D03*
D13*
X380365000Y-191135000D03*
%TD*%
D12*
%TO.C,C76*%
X105490000Y-137795000D03*
X100490000Y-137795000D03*
%TD*%
D14*
%TO.C,H4*%
X144780000Y-72390000D03*
%TD*%
D12*
%TO.C,R48*%
X113030000Y-133350000D03*
D13*
X120650000Y-133350000D03*
%TD*%
D12*
%TO.C,C81*%
X97790000Y-41910000D03*
X102790000Y-41910000D03*
%TD*%
%TO.C,R28*%
X125730000Y-175260000D03*
D13*
X133350000Y-175260000D03*
%TD*%
D12*
%TO.C,C49*%
X147320000Y-180975000D03*
X152320000Y-180975000D03*
%TD*%
D15*
%TO.C,A1*%
X113030000Y-212725000D03*
D12*
X113030000Y-210185000D03*
X113030000Y-207645000D03*
X113030000Y-205105000D03*
X113030000Y-202565000D03*
X113030000Y-200025000D03*
X113030000Y-197485000D03*
X113030000Y-194945000D03*
X113030000Y-192405000D03*
X113030000Y-189865000D03*
X113030000Y-187325000D03*
X113030000Y-184785000D03*
X113030000Y-182245000D03*
X113030000Y-179705000D03*
X113030000Y-177165000D03*
X113030000Y-174625000D03*
X92710000Y-174625000D03*
X92710000Y-177165000D03*
X92710000Y-179705000D03*
X92710000Y-182245000D03*
X92710000Y-184785000D03*
X92710000Y-187325000D03*
X92710000Y-189865000D03*
X92710000Y-192405000D03*
X92710000Y-194945000D03*
X92710000Y-197485000D03*
X92710000Y-200025000D03*
X92710000Y-202565000D03*
%TD*%
%TO.C,L11*%
X313690000Y-66675000D03*
D13*
X323850000Y-66675000D03*
%TD*%
D15*
%TO.C,C3*%
X158858600Y-154940000D03*
D12*
X161358600Y-154940000D03*
%TD*%
%TO.C,R38*%
X302260000Y-74295000D03*
D13*
X309880000Y-74295000D03*
%TD*%
D12*
%TO.C,R18*%
X294005000Y-191135000D03*
D13*
X301625000Y-191135000D03*
%TD*%
D12*
%TO.C,C42*%
X261660000Y-42545000D03*
X266660000Y-42545000D03*
%TD*%
D10*
%TO.C,U37*%
X349245000Y-140320000D03*
D11*
X349245000Y-142860000D03*
X349245000Y-145400000D03*
X349245000Y-147940000D03*
X349245000Y-150480000D03*
X349245000Y-153020000D03*
X349245000Y-155560000D03*
X349245000Y-158100000D03*
X349245000Y-160640000D03*
X349245000Y-163180000D03*
X349245000Y-165720000D03*
X349245000Y-168260000D03*
X349245000Y-170800000D03*
X349245000Y-173340000D03*
X364485000Y-173340000D03*
X364485000Y-170800000D03*
X364485000Y-168260000D03*
X364485000Y-165720000D03*
X364485000Y-163180000D03*
X364485000Y-160640000D03*
X364485000Y-158100000D03*
X364485000Y-155560000D03*
X364485000Y-153020000D03*
X364485000Y-150480000D03*
X364485000Y-147940000D03*
X364485000Y-145400000D03*
X364485000Y-142860000D03*
X364485000Y-140320000D03*
%TD*%
D12*
%TO.C,C73*%
X105490000Y-150495000D03*
X100490000Y-150495000D03*
%TD*%
D15*
%TO.C,C10*%
X197593600Y-181610000D03*
D12*
X200093600Y-181610000D03*
%TD*%
%TO.C,C74*%
X105490000Y-120650000D03*
X100490000Y-120650000D03*
%TD*%
%TO.C,R25*%
X168910000Y-185420000D03*
D13*
X176530000Y-185420000D03*
%TD*%
D12*
%TO.C,R97*%
X391160000Y-168910000D03*
D13*
X398780000Y-168910000D03*
%TD*%
D12*
%TO.C,R85*%
X59055000Y-140335000D03*
D13*
X66675000Y-140335000D03*
%TD*%
D12*
%TO.C,C70*%
X105490000Y-124460000D03*
X100490000Y-124460000D03*
%TD*%
%TO.C,R103*%
X391160000Y-144780000D03*
D13*
X398780000Y-144780000D03*
%TD*%
D12*
%TO.C,C57*%
X328335000Y-142875000D03*
X333335000Y-142875000D03*
%TD*%
%TO.C,L22*%
X59690000Y-95885000D03*
D13*
X67310000Y-95885000D03*
%TD*%
D12*
%TO.C,R12*%
X192405000Y-193675000D03*
D13*
X200025000Y-193675000D03*
%TD*%
D12*
%TO.C,R87*%
X138430000Y-53340000D03*
D13*
X146050000Y-53340000D03*
%TD*%
D12*
%TO.C,C80*%
X97790000Y-33020000D03*
X102790000Y-33020000D03*
%TD*%
%TO.C,C9*%
X175220000Y-157480000D03*
X170220000Y-157480000D03*
%TD*%
D10*
%TO.C,U46*%
X372120000Y-77460000D03*
D11*
X372120000Y-80000000D03*
X372120000Y-82540000D03*
X372120000Y-85080000D03*
X372120000Y-87620000D03*
X372120000Y-90160000D03*
X372120000Y-92700000D03*
X372120000Y-95240000D03*
X379740000Y-95240000D03*
X379740000Y-92700000D03*
X379740000Y-90160000D03*
X379740000Y-87620000D03*
X379740000Y-85080000D03*
X379740000Y-82540000D03*
X379740000Y-80000000D03*
X379740000Y-77460000D03*
%TD*%
D12*
%TO.C,R37*%
X341630000Y-181610000D03*
D13*
X349250000Y-181610000D03*
%TD*%
D12*
%TO.C,L15*%
X124460000Y-52705000D03*
D13*
X132080000Y-52705000D03*
%TD*%
D12*
%TO.C,C17*%
X332780000Y-100965000D03*
X337780000Y-100965000D03*
%TD*%
%TO.C,C95*%
X74295000Y-106680000D03*
X79295000Y-106680000D03*
%TD*%
%TO.C,R20*%
X33020000Y-177165000D03*
D13*
X40640000Y-177165000D03*
%TD*%
D18*
%TO.C,J11*%
X32035300Y-128460000D03*
X32035300Y-153460000D03*
D15*
X41235300Y-135420000D03*
D12*
X41235300Y-138190000D03*
X41235300Y-140960000D03*
X41235300Y-143730000D03*
X41235300Y-146500000D03*
X38395300Y-136805000D03*
X38395300Y-139575000D03*
X38395300Y-142345000D03*
X38395300Y-145115000D03*
%TD*%
D10*
%TO.C,U36*%
X353705000Y-106050000D03*
D11*
X353705000Y-108590000D03*
X353705000Y-111130000D03*
X353705000Y-113670000D03*
X353705000Y-116210000D03*
X353705000Y-118750000D03*
X353705000Y-121290000D03*
X353705000Y-123830000D03*
X353705000Y-126370000D03*
X353705000Y-128910000D03*
X361325000Y-128910000D03*
X361325000Y-126370000D03*
X361325000Y-123830000D03*
X361325000Y-121290000D03*
X361325000Y-118750000D03*
X361325000Y-116210000D03*
X361325000Y-113670000D03*
X361325000Y-111130000D03*
X361325000Y-108590000D03*
X361325000Y-106050000D03*
%TD*%
D10*
%TO.C,U31*%
X274320000Y-140335000D03*
D11*
X274320000Y-142875000D03*
X274320000Y-145415000D03*
X274320000Y-147955000D03*
X274320000Y-150495000D03*
X274320000Y-153035000D03*
X274320000Y-155575000D03*
X274320000Y-158115000D03*
X274320000Y-160655000D03*
X274320000Y-163195000D03*
X274320000Y-165735000D03*
X274320000Y-168275000D03*
X274320000Y-170815000D03*
X274320000Y-173355000D03*
X289560000Y-173355000D03*
X289560000Y-170815000D03*
X289560000Y-168275000D03*
X289560000Y-165735000D03*
X289560000Y-163195000D03*
X289560000Y-160655000D03*
X289560000Y-158115000D03*
X289560000Y-155575000D03*
X289560000Y-153035000D03*
X289560000Y-150495000D03*
X289560000Y-147955000D03*
X289560000Y-145415000D03*
X289560000Y-142875000D03*
X289560000Y-140335000D03*
%TD*%
D12*
%TO.C,C67*%
X124500000Y-73660000D03*
X129500000Y-73660000D03*
%TD*%
%TO.C,R100*%
X391160000Y-173990000D03*
D13*
X398780000Y-173990000D03*
%TD*%
D12*
%TO.C,C40*%
X177165000Y-42545000D03*
X182165000Y-42545000D03*
%TD*%
%TO.C,C89*%
X60365000Y-167005000D03*
X65365000Y-167005000D03*
%TD*%
D10*
%TO.C,U29*%
X250820000Y-140320000D03*
D11*
X250820000Y-142860000D03*
X250820000Y-145400000D03*
X250820000Y-147940000D03*
X250820000Y-150480000D03*
X250820000Y-153020000D03*
X250820000Y-155560000D03*
X250820000Y-158100000D03*
X250820000Y-160640000D03*
X250820000Y-163180000D03*
X250820000Y-165720000D03*
X250820000Y-168260000D03*
X250820000Y-170800000D03*
X250820000Y-173340000D03*
X266060000Y-173340000D03*
X266060000Y-170800000D03*
X266060000Y-168260000D03*
X266060000Y-165720000D03*
X266060000Y-163180000D03*
X266060000Y-160640000D03*
X266060000Y-158100000D03*
X266060000Y-155560000D03*
X266060000Y-153020000D03*
X266060000Y-150480000D03*
X266060000Y-147940000D03*
X266060000Y-145400000D03*
X266060000Y-142860000D03*
X266060000Y-140320000D03*
%TD*%
D12*
%TO.C,C77*%
X105490000Y-146050000D03*
X100490000Y-146050000D03*
%TD*%
D22*
%TO.C,Q3*%
X127635000Y-122205000D03*
D23*
X128905000Y-120135000D03*
X130175000Y-122205000D03*
%TD*%
D12*
%TO.C,R57*%
X90805000Y-37465000D03*
D13*
X83185000Y-37465000D03*
%TD*%
D12*
%TO.C,C51*%
X137835000Y-215265000D03*
X142835000Y-215265000D03*
%TD*%
D20*
%TO.C,J5*%
X161925000Y-175900000D03*
D21*
X161925000Y-178440000D03*
X161925000Y-180980000D03*
X161925000Y-183520000D03*
X161925000Y-186060000D03*
X161925000Y-188600000D03*
X161925000Y-191140000D03*
X161925000Y-193680000D03*
X161925000Y-196220000D03*
X161925000Y-198760000D03*
X161925000Y-201300000D03*
X161925000Y-203840000D03*
X161925000Y-206380000D03*
X161925000Y-208920000D03*
X161925000Y-211460000D03*
%TD*%
D12*
%TO.C,L20*%
X67310000Y-106045000D03*
D13*
X59690000Y-106045000D03*
%TD*%
D10*
%TO.C,U23*%
X327025000Y-194310000D03*
D11*
X327025000Y-196850000D03*
X327025000Y-199390000D03*
X327025000Y-201930000D03*
X327025000Y-204470000D03*
X327025000Y-207010000D03*
X327025000Y-209550000D03*
X327025000Y-212090000D03*
X334645000Y-212090000D03*
X334645000Y-209550000D03*
X334645000Y-207010000D03*
X334645000Y-204470000D03*
X334645000Y-201930000D03*
X334645000Y-199390000D03*
X334645000Y-196850000D03*
X334645000Y-194310000D03*
%TD*%
D12*
%TO.C,C87*%
X74335000Y-116205000D03*
X79335000Y-116205000D03*
%TD*%
D20*
%TO.C,J1*%
X186690000Y-33020000D03*
D21*
X184150000Y-33020000D03*
%TD*%
D12*
%TO.C,L18*%
X132080000Y-46355000D03*
D13*
X124460000Y-46355000D03*
%TD*%
D10*
%TO.C,U39*%
X139065000Y-94615000D03*
D11*
X139065000Y-97155000D03*
X139065000Y-99695000D03*
X139065000Y-102235000D03*
X139065000Y-104775000D03*
X139065000Y-107315000D03*
X139065000Y-109855000D03*
X139065000Y-112395000D03*
X139065000Y-114935000D03*
X139065000Y-117475000D03*
X139065000Y-120015000D03*
X139065000Y-122555000D03*
X139065000Y-125095000D03*
X139065000Y-127635000D03*
X139065000Y-130175000D03*
X139065000Y-132715000D03*
X139065000Y-135255000D03*
X139065000Y-137795000D03*
X139065000Y-140335000D03*
X139065000Y-142875000D03*
X154305000Y-142875000D03*
X154305000Y-140335000D03*
X154305000Y-137795000D03*
X154305000Y-135255000D03*
X154305000Y-132715000D03*
X154305000Y-130175000D03*
X154305000Y-127635000D03*
X154305000Y-125095000D03*
X154305000Y-122555000D03*
X154305000Y-120015000D03*
X154305000Y-117475000D03*
X154305000Y-114935000D03*
X154305000Y-112395000D03*
X154305000Y-109855000D03*
X154305000Y-107315000D03*
X154305000Y-104775000D03*
X154305000Y-102235000D03*
X154305000Y-99695000D03*
X154305000Y-97155000D03*
X154305000Y-94615000D03*
%TD*%
D12*
%TO.C,L17*%
X109855000Y-46355000D03*
D13*
X117475000Y-46355000D03*
%TD*%
D12*
%TO.C,C62*%
X149185000Y-87630000D03*
X144185000Y-87630000D03*
%TD*%
%TO.C,C20*%
X228005000Y-42545000D03*
X233005000Y-42545000D03*
%TD*%
%TO.C,L8*%
X44450000Y-67310000D03*
D13*
X36830000Y-67310000D03*
%TD*%
D10*
%TO.C,U12*%
X158750000Y-47620000D03*
D11*
X158750000Y-50160000D03*
X158750000Y-52700000D03*
X158750000Y-55240000D03*
X158750000Y-57780000D03*
X158750000Y-60320000D03*
X158750000Y-62860000D03*
X158750000Y-65400000D03*
X158750000Y-67940000D03*
X158750000Y-70480000D03*
X166370000Y-70480000D03*
X166370000Y-67940000D03*
X166370000Y-65400000D03*
X166370000Y-62860000D03*
X166370000Y-60320000D03*
X166370000Y-57780000D03*
X166370000Y-55240000D03*
X166370000Y-52700000D03*
X166370000Y-50160000D03*
X166370000Y-47620000D03*
%TD*%
D22*
%TO.C,Q5*%
X127635000Y-131845000D03*
D23*
X128905000Y-129775000D03*
X130175000Y-131845000D03*
%TD*%
D12*
%TO.C,R91*%
X371475000Y-144780000D03*
D13*
X379095000Y-144780000D03*
%TD*%
D12*
%TO.C,R77*%
X74295000Y-149225000D03*
D13*
X81915000Y-149225000D03*
%TD*%
D12*
%TO.C,C93*%
X48260000Y-80010000D03*
X53260000Y-80010000D03*
%TD*%
%TO.C,R1*%
X168910000Y-170180000D03*
D13*
X176530000Y-170180000D03*
%TD*%
D12*
%TO.C,R73*%
X74295000Y-158750000D03*
D13*
X81915000Y-158750000D03*
%TD*%
D12*
%TO.C,C96*%
X85130000Y-116205000D03*
X90130000Y-116205000D03*
%TD*%
%TO.C,C8*%
X201930000Y-78740000D03*
X196930000Y-78740000D03*
%TD*%
%TO.C,R8*%
X182880000Y-165100000D03*
D13*
X190500000Y-165100000D03*
%TD*%
D12*
%TO.C,C44*%
X130850000Y-180975000D03*
X135850000Y-180975000D03*
%TD*%
%TO.C,R78*%
X73025000Y-76835000D03*
D13*
X80645000Y-76835000D03*
%TD*%
D16*
%TO.C,CR3*%
X168910000Y-179070000D03*
D17*
X176530000Y-179070000D03*
%TD*%
D10*
%TO.C,U3*%
X231150000Y-93975000D03*
D11*
X231150000Y-96515000D03*
X231150000Y-99055000D03*
X231150000Y-101595000D03*
X231150000Y-104135000D03*
X231150000Y-106675000D03*
X231150000Y-109215000D03*
X238770000Y-109215000D03*
X238770000Y-106675000D03*
X238770000Y-104135000D03*
X238770000Y-101595000D03*
X238770000Y-99055000D03*
X238770000Y-96515000D03*
X238770000Y-93975000D03*
%TD*%
D16*
%TO.C,CR2*%
X231775000Y-173990000D03*
D17*
X239395000Y-173990000D03*
%TD*%
D12*
%TO.C,R44*%
X109220000Y-78105000D03*
D13*
X116840000Y-78105000D03*
%TD*%
D12*
%TO.C,R52*%
X113030000Y-151130000D03*
D13*
X120650000Y-151130000D03*
%TD*%
D12*
%TO.C,R10*%
X210820000Y-86360000D03*
D13*
X218440000Y-86360000D03*
%TD*%
D10*
%TO.C,U24*%
X309880000Y-194945000D03*
D11*
X309880000Y-197485000D03*
X309880000Y-200025000D03*
X309880000Y-202565000D03*
X309880000Y-205105000D03*
X309880000Y-207645000D03*
X309880000Y-210185000D03*
X309880000Y-212725000D03*
X317500000Y-212725000D03*
X317500000Y-210185000D03*
X317500000Y-207645000D03*
X317500000Y-205105000D03*
X317500000Y-202565000D03*
X317500000Y-200025000D03*
X317500000Y-197485000D03*
X317500000Y-194945000D03*
%TD*%
D12*
%TO.C,R46*%
X113030000Y-124460000D03*
D13*
X120650000Y-124460000D03*
%TD*%
D12*
%TO.C,L21*%
X67310000Y-100965000D03*
D13*
X59690000Y-100965000D03*
%TD*%
M02*
