%TF.GenerationSoftware,KiCad,Pcbnew,(6.0.6)*%
%TF.CreationDate,2022-12-13T17:17:02-06:00*%
%TF.ProjectId,Console,436f6e73-6f6c-4652-9e6b-696361645f70,V0.90*%
%TF.SameCoordinates,Original*%
%TF.FileFunction,Soldermask,Bot*%
%TF.FilePolarity,Negative*%
%FSLAX46Y46*%
G04 Gerber Fmt 4.6, Leading zero omitted, Abs format (unit mm)*
G04 Created by KiCad (PCBNEW (6.0.6)) date 2022-12-13 17:17:02*
%MOMM*%
%LPD*%
G01*
G04 APERTURE LIST*
G04 Aperture macros list*
%AMRoundRect*
0 Rectangle with rounded corners*
0 $1 Rounding radius*
0 $2 $3 $4 $5 $6 $7 $8 $9 X,Y pos of 4 corners*
0 Add a 4 corners polygon primitive as box body*
4,1,4,$2,$3,$4,$5,$6,$7,$8,$9,$2,$3,0*
0 Add four circle primitives for the rounded corners*
1,1,$1+$1,$2,$3*
1,1,$1+$1,$4,$5*
1,1,$1+$1,$6,$7*
1,1,$1+$1,$8,$9*
0 Add four rect primitives between the rounded corners*
20,1,$1+$1,$2,$3,$4,$5,0*
20,1,$1+$1,$4,$5,$6,$7,0*
20,1,$1+$1,$6,$7,$8,$9,0*
20,1,$1+$1,$8,$9,$2,$3,0*%
G04 Aperture macros list end*
%ADD10C,1.600000*%
%ADD11O,1.600000X1.600000*%
%ADD12R,2.400000X1.600000*%
%ADD13O,2.400000X1.600000*%
%ADD14C,3.200000*%
%ADD15R,1.600000X1.600000*%
%ADD16R,1.800000X1.800000*%
%ADD17O,1.800000X1.800000*%
%ADD18C,4.000000*%
%ADD19C,1.500000*%
%ADD20R,1.700000X1.700000*%
%ADD21O,1.700000X1.700000*%
%ADD22R,1.100000X1.800000*%
%ADD23RoundRect,0.275000X-0.275000X-0.625000X0.275000X-0.625000X0.275000X0.625000X-0.275000X0.625000X0*%
%ADD24R,1.905000X2.000000*%
%ADD25O,1.905000X2.000000*%
%ADD26R,1.780000X7.620000*%
%ADD27R,2.500000X2.500000*%
%ADD28C,2.500000*%
%ADD29C,1.800000*%
G04 APERTURE END LIST*
D10*
%TO.C,R15*%
X150680000Y-207075000D03*
D11*
X158300000Y-207075000D03*
%TD*%
D10*
%TO.C,R14*%
X150680000Y-202630000D03*
D11*
X158300000Y-202630000D03*
%TD*%
D12*
%TO.C,U17*%
X225200000Y-59600000D03*
D13*
X225200000Y-62140000D03*
X225200000Y-64680000D03*
X225200000Y-67220000D03*
X225200000Y-69760000D03*
X225200000Y-72300000D03*
X225200000Y-74840000D03*
X225200000Y-77380000D03*
X232820000Y-77380000D03*
X232820000Y-74840000D03*
X232820000Y-72300000D03*
X232820000Y-69760000D03*
X232820000Y-67220000D03*
X232820000Y-64680000D03*
X232820000Y-62140000D03*
X232820000Y-59600000D03*
%TD*%
D10*
%TO.C,C86*%
X97790000Y-46355000D03*
X102790000Y-46355000D03*
%TD*%
%TO.C,R91*%
X352390000Y-197400000D03*
D11*
X360010000Y-197400000D03*
%TD*%
D12*
%TO.C,U11*%
X192566300Y-47620000D03*
D13*
X192566300Y-50160000D03*
X192566300Y-52700000D03*
X192566300Y-55240000D03*
X192566300Y-57780000D03*
X192566300Y-60320000D03*
X192566300Y-62860000D03*
X192566300Y-65400000D03*
X192566300Y-67940000D03*
X192566300Y-70480000D03*
X200186300Y-70480000D03*
X200186300Y-67940000D03*
X200186300Y-65400000D03*
X200186300Y-62860000D03*
X200186300Y-60320000D03*
X200186300Y-57780000D03*
X200186300Y-55240000D03*
X200186300Y-52700000D03*
X200186300Y-50160000D03*
X200186300Y-47620000D03*
%TD*%
D10*
%TO.C,R9*%
X231140000Y-86360000D03*
D11*
X223520000Y-86360000D03*
%TD*%
D10*
%TO.C,C43*%
X308650000Y-90805000D03*
X313650000Y-90805000D03*
%TD*%
D14*
%TO.C,H7*%
X370300000Y-54600000D03*
%TD*%
D10*
%TO.C,R20*%
X49530000Y-182245000D03*
D11*
X57150000Y-182245000D03*
%TD*%
D15*
%TO.C,C5*%
X171558600Y-131445000D03*
D10*
X174058600Y-131445000D03*
%TD*%
D12*
%TO.C,U40*%
X357000000Y-70475000D03*
D13*
X357000000Y-73015000D03*
X357000000Y-75555000D03*
X357000000Y-78095000D03*
X357000000Y-80635000D03*
X357000000Y-83175000D03*
X357000000Y-85715000D03*
X357000000Y-88255000D03*
X357000000Y-90795000D03*
X357000000Y-93335000D03*
X364620000Y-93335000D03*
X364620000Y-90795000D03*
X364620000Y-88255000D03*
X364620000Y-85715000D03*
X364620000Y-83175000D03*
X364620000Y-80635000D03*
X364620000Y-78095000D03*
X364620000Y-75555000D03*
X364620000Y-73015000D03*
X364620000Y-70475000D03*
%TD*%
D10*
%TO.C,C33*%
X50205000Y-67310000D03*
X55205000Y-67310000D03*
%TD*%
%TO.C,R18*%
X220085000Y-188650000D03*
D11*
X227705000Y-188650000D03*
%TD*%
D14*
%TO.C,H5*%
X31750000Y-216535000D03*
%TD*%
D10*
%TO.C,L18*%
X67310000Y-111125000D03*
D11*
X59690000Y-111125000D03*
%TD*%
D10*
%TO.C,C64*%
X91520000Y-99695000D03*
X96520000Y-99695000D03*
%TD*%
D12*
%TO.C,U8*%
X204200000Y-200130000D03*
D13*
X204200000Y-202670000D03*
X204200000Y-205210000D03*
X204200000Y-207750000D03*
X204200000Y-210290000D03*
X204200000Y-212830000D03*
X204200000Y-215370000D03*
X204200000Y-217910000D03*
X211820000Y-217910000D03*
X211820000Y-215370000D03*
X211820000Y-212830000D03*
X211820000Y-210290000D03*
X211820000Y-207750000D03*
X211820000Y-205210000D03*
X211820000Y-202670000D03*
X211820000Y-200130000D03*
%TD*%
D10*
%TO.C,C29*%
X160060000Y-42545000D03*
X165060000Y-42545000D03*
%TD*%
D16*
%TO.C,CR1*%
X49530000Y-177165000D03*
D17*
X57150000Y-177165000D03*
%TD*%
D12*
%TO.C,U35*%
X331480000Y-107320000D03*
D13*
X331480000Y-109860000D03*
X331480000Y-112400000D03*
X331480000Y-114940000D03*
X331480000Y-117480000D03*
X331480000Y-120020000D03*
X331480000Y-122560000D03*
X331480000Y-125100000D03*
X331480000Y-127640000D03*
X331480000Y-130180000D03*
X339100000Y-130180000D03*
X339100000Y-127640000D03*
X339100000Y-125100000D03*
X339100000Y-122560000D03*
X339100000Y-120020000D03*
X339100000Y-117480000D03*
X339100000Y-114940000D03*
X339100000Y-112400000D03*
X339100000Y-109860000D03*
X339100000Y-107320000D03*
%TD*%
D18*
%TO.C,J9*%
X32200000Y-77460000D03*
X32200000Y-102460000D03*
D15*
X32500000Y-95500000D03*
D10*
X32500000Y-92730000D03*
X32500000Y-89960000D03*
X32500000Y-87190000D03*
X32500000Y-84420000D03*
X29660000Y-94115000D03*
X29660000Y-91345000D03*
X29660000Y-88575000D03*
X29660000Y-85805000D03*
%TD*%
%TO.C,C4*%
X170220000Y-99060000D03*
X175220000Y-99060000D03*
%TD*%
%TO.C,C6*%
X170220000Y-142240000D03*
X175220000Y-142240000D03*
%TD*%
%TO.C,C25*%
X245150000Y-42545000D03*
X250150000Y-42545000D03*
%TD*%
%TO.C,R79*%
X138430000Y-48895000D03*
D11*
X146050000Y-48895000D03*
%TD*%
D19*
%TO.C,Y2*%
X311240000Y-181610000D03*
X316120000Y-181610000D03*
%TD*%
D20*
%TO.C,J7*%
X70485000Y-33020000D03*
D21*
X73025000Y-33020000D03*
%TD*%
D10*
%TO.C,R6*%
X190500000Y-127000000D03*
D11*
X182880000Y-127000000D03*
%TD*%
D10*
%TO.C,R62*%
X123190000Y-108585000D03*
D11*
X130810000Y-108585000D03*
%TD*%
D12*
%TO.C,U18*%
X294455000Y-54875000D03*
D13*
X294455000Y-57415000D03*
X294455000Y-59955000D03*
X294455000Y-62495000D03*
X294455000Y-65035000D03*
X294455000Y-67575000D03*
X294455000Y-70115000D03*
X302075000Y-70115000D03*
X302075000Y-67575000D03*
X302075000Y-65035000D03*
X302075000Y-62495000D03*
X302075000Y-59955000D03*
X302075000Y-57415000D03*
X302075000Y-54875000D03*
%TD*%
D10*
%TO.C,R61*%
X123190000Y-113030000D03*
D11*
X130810000Y-113030000D03*
%TD*%
D10*
%TO.C,C40*%
X172500000Y-195000000D03*
X177500000Y-195000000D03*
%TD*%
D12*
%TO.C,U23*%
X295500000Y-199520000D03*
D13*
X295500000Y-202060000D03*
X295500000Y-204600000D03*
X295500000Y-207140000D03*
X295500000Y-209680000D03*
X295500000Y-212220000D03*
X295500000Y-214760000D03*
X295500000Y-217300000D03*
X303120000Y-217300000D03*
X303120000Y-214760000D03*
X303120000Y-212220000D03*
X303120000Y-209680000D03*
X303120000Y-207140000D03*
X303120000Y-204600000D03*
X303120000Y-202060000D03*
X303120000Y-199520000D03*
%TD*%
D10*
%TO.C,R26*%
X232785000Y-188650000D03*
D11*
X240405000Y-188650000D03*
%TD*%
D10*
%TO.C,R57*%
X160655000Y-135255000D03*
D11*
X160655000Y-127635000D03*
%TD*%
D10*
%TO.C,R53*%
X90805000Y-41910000D03*
D11*
X83185000Y-41910000D03*
%TD*%
D12*
%TO.C,U14*%
X277546900Y-54875000D03*
D13*
X277546900Y-57415000D03*
X277546900Y-59955000D03*
X277546900Y-62495000D03*
X277546900Y-65035000D03*
X277546900Y-67575000D03*
X277546900Y-70115000D03*
X285166900Y-70115000D03*
X285166900Y-67575000D03*
X285166900Y-65035000D03*
X285166900Y-62495000D03*
X285166900Y-59955000D03*
X285166900Y-57415000D03*
X285166900Y-54875000D03*
%TD*%
D10*
%TO.C,C51*%
X273000000Y-192500000D03*
X278000000Y-192500000D03*
%TD*%
D15*
%TO.C,C52*%
X36944900Y-53400000D03*
D10*
X38944900Y-53400000D03*
%TD*%
%TO.C,R96*%
X352390000Y-188510000D03*
D11*
X360010000Y-188510000D03*
%TD*%
D10*
%TO.C,C32*%
X255905000Y-178435000D03*
X260905000Y-178435000D03*
%TD*%
%TO.C,C54*%
X43140000Y-62865000D03*
X38140000Y-62865000D03*
%TD*%
%TO.C,R75*%
X138430000Y-40005000D03*
D11*
X146050000Y-40005000D03*
%TD*%
D10*
%TO.C,R17*%
X188335000Y-188650000D03*
D11*
X195955000Y-188650000D03*
%TD*%
D10*
%TO.C,R84*%
X333980000Y-202755000D03*
D11*
X341600000Y-202755000D03*
%TD*%
D15*
%TO.C,C20*%
X256008600Y-213465000D03*
D10*
X258508600Y-213465000D03*
%TD*%
D16*
%TO.C,CR4*%
X160655000Y-120015000D03*
D17*
X160655000Y-112395000D03*
%TD*%
D20*
%TO.C,J11*%
X155375000Y-33000000D03*
D21*
X152835000Y-33000000D03*
X150295000Y-33000000D03*
X147755000Y-33000000D03*
X145215000Y-33000000D03*
X142675000Y-33000000D03*
X140135000Y-33000000D03*
X137595000Y-33000000D03*
X135055000Y-33000000D03*
X132515000Y-33000000D03*
X129975000Y-33000000D03*
X127435000Y-33000000D03*
X124895000Y-33000000D03*
X122355000Y-33000000D03*
X119815000Y-33000000D03*
X117275000Y-33000000D03*
X114735000Y-33000000D03*
X112195000Y-33000000D03*
%TD*%
D12*
%TO.C,SW1*%
X135445000Y-200730000D03*
D13*
X135445000Y-203270000D03*
X135445000Y-205810000D03*
X135445000Y-208350000D03*
X135445000Y-210890000D03*
X143065000Y-210890000D03*
X143065000Y-208350000D03*
X143065000Y-205810000D03*
X143065000Y-203270000D03*
X143065000Y-200730000D03*
%TD*%
D10*
%TO.C,R55*%
X90805000Y-50800000D03*
D11*
X83185000Y-50800000D03*
%TD*%
D10*
%TO.C,C11*%
X184190000Y-170180000D03*
X189190000Y-170180000D03*
%TD*%
D12*
%TO.C,U7*%
X237370000Y-200265000D03*
D13*
X237370000Y-202805000D03*
X237370000Y-205345000D03*
X237370000Y-207885000D03*
X237370000Y-210425000D03*
X237370000Y-212965000D03*
X237370000Y-215505000D03*
X244990000Y-215505000D03*
X244990000Y-212965000D03*
X244990000Y-210425000D03*
X244990000Y-207885000D03*
X244990000Y-205345000D03*
X244990000Y-202805000D03*
X244990000Y-200265000D03*
%TD*%
D10*
%TO.C,R83*%
X59055000Y-144780000D03*
D11*
X66675000Y-144780000D03*
%TD*%
D14*
%TO.C,H3*%
X31115000Y-35560000D03*
%TD*%
D10*
%TO.C,R46*%
X113030000Y-146685000D03*
D11*
X120650000Y-146685000D03*
%TD*%
D10*
%TO.C,C72*%
X105410000Y-154940000D03*
X100410000Y-154940000D03*
%TD*%
%TO.C,C34*%
X369400000Y-82700000D03*
X369400000Y-77700000D03*
%TD*%
%TO.C,C63*%
X104180000Y-111125000D03*
X109180000Y-111125000D03*
%TD*%
%TO.C,C2*%
X170220000Y-93980000D03*
X175220000Y-93980000D03*
%TD*%
%TO.C,R97*%
X334200000Y-196940000D03*
D11*
X341820000Y-196940000D03*
%TD*%
D10*
%TO.C,L5*%
X57150000Y-189865000D03*
D11*
X49530000Y-189865000D03*
%TD*%
D10*
%TO.C,R13*%
X254375000Y-201985000D03*
D11*
X261995000Y-201985000D03*
%TD*%
D10*
%TO.C,L13*%
X109855000Y-52705000D03*
D11*
X117475000Y-52705000D03*
%TD*%
D10*
%TO.C,R35*%
X90210000Y-111125000D03*
D11*
X97830000Y-111125000D03*
%TD*%
D10*
%TO.C,C19*%
X50840000Y-172085000D03*
X55840000Y-172085000D03*
%TD*%
D20*
%TO.C,SW2*%
X104225000Y-188000000D03*
D21*
X104225000Y-190540000D03*
%TD*%
D10*
%TO.C,C1*%
X175220000Y-149860000D03*
X170220000Y-149860000D03*
%TD*%
%TO.C,C82*%
X97790000Y-50800000D03*
X102790000Y-50800000D03*
%TD*%
%TO.C,R77*%
X138430000Y-44450000D03*
D11*
X146050000Y-44450000D03*
%TD*%
D12*
%TO.C,U6*%
X220720000Y-200130000D03*
D13*
X220720000Y-202670000D03*
X220720000Y-205210000D03*
X220720000Y-207750000D03*
X220720000Y-210290000D03*
X220720000Y-212830000D03*
X220720000Y-215370000D03*
X228340000Y-215370000D03*
X228340000Y-212830000D03*
X228340000Y-210290000D03*
X228340000Y-207750000D03*
X228340000Y-205210000D03*
X228340000Y-202670000D03*
X228340000Y-200130000D03*
%TD*%
D10*
%TO.C,L15*%
X109855000Y-40005000D03*
D11*
X117475000Y-40005000D03*
%TD*%
D12*
%TO.C,U21*%
X123200000Y-89500000D03*
D13*
X123200000Y-92040000D03*
X123200000Y-94580000D03*
X123200000Y-97120000D03*
X130820000Y-97120000D03*
X130820000Y-94580000D03*
X130820000Y-92040000D03*
X130820000Y-89500000D03*
%TD*%
D10*
%TO.C,C44*%
X311785000Y-119380000D03*
X316785000Y-119380000D03*
%TD*%
%TO.C,C87*%
X97790000Y-55880000D03*
X102790000Y-55880000D03*
%TD*%
D12*
%TO.C,U16*%
X243290600Y-47620000D03*
D13*
X243290600Y-50160000D03*
X243290600Y-52700000D03*
X243290600Y-55240000D03*
X243290600Y-57780000D03*
X243290600Y-60320000D03*
X243290600Y-62860000D03*
X250910600Y-62860000D03*
X250910600Y-60320000D03*
X250910600Y-57780000D03*
X250910600Y-55240000D03*
X250910600Y-52700000D03*
X250910600Y-50160000D03*
X250910600Y-47620000D03*
%TD*%
D10*
%TO.C,C7*%
X132070000Y-184935000D03*
X137070000Y-184935000D03*
%TD*%
%TO.C,R44*%
X113030000Y-137795000D03*
D11*
X120650000Y-137795000D03*
%TD*%
D12*
%TO.C,U29*%
X274315000Y-94600000D03*
D13*
X274315000Y-97140000D03*
X274315000Y-99680000D03*
X274315000Y-102220000D03*
X274315000Y-104760000D03*
X274315000Y-107300000D03*
X274315000Y-109840000D03*
X274315000Y-112380000D03*
X274315000Y-114920000D03*
X274315000Y-117460000D03*
X274315000Y-120000000D03*
X274315000Y-122540000D03*
X274315000Y-125080000D03*
X274315000Y-127620000D03*
X289555000Y-127620000D03*
X289555000Y-125080000D03*
X289555000Y-122540000D03*
X289555000Y-120000000D03*
X289555000Y-117460000D03*
X289555000Y-114920000D03*
X289555000Y-112380000D03*
X289555000Y-109840000D03*
X289555000Y-107300000D03*
X289555000Y-104760000D03*
X289555000Y-102220000D03*
X289555000Y-99680000D03*
X289555000Y-97140000D03*
X289555000Y-94600000D03*
%TD*%
D10*
%TO.C,R93*%
X266790000Y-187300000D03*
D11*
X274410000Y-187300000D03*
%TD*%
D10*
%TO.C,C47*%
X233085000Y-114300000D03*
X238085000Y-114300000D03*
%TD*%
%TO.C,R42*%
X113030000Y-128905000D03*
D11*
X120650000Y-128905000D03*
%TD*%
D15*
%TO.C,C18*%
X241138600Y-84200000D03*
D10*
X243638600Y-84200000D03*
%TD*%
%TO.C,R49*%
X123190000Y-82550000D03*
D11*
X130810000Y-82550000D03*
%TD*%
D10*
%TO.C,C42*%
X280075000Y-178435000D03*
X285075000Y-178435000D03*
%TD*%
%TO.C,R16*%
X150680000Y-211520000D03*
D11*
X158300000Y-211520000D03*
%TD*%
D12*
%TO.C,U24*%
X283000000Y-199520000D03*
D13*
X283000000Y-202060000D03*
X283000000Y-204600000D03*
X283000000Y-207140000D03*
X283000000Y-209680000D03*
X283000000Y-212220000D03*
X283000000Y-214760000D03*
X283000000Y-217300000D03*
X290620000Y-217300000D03*
X290620000Y-214760000D03*
X290620000Y-212220000D03*
X290620000Y-209680000D03*
X290620000Y-207140000D03*
X290620000Y-204600000D03*
X290620000Y-202060000D03*
X290620000Y-199520000D03*
%TD*%
D10*
%TO.C,R48*%
X113030000Y-156210000D03*
D11*
X120650000Y-156210000D03*
%TD*%
D10*
%TO.C,R40*%
X113030000Y-120015000D03*
D11*
X120650000Y-120015000D03*
%TD*%
D10*
%TO.C,R85*%
X341600000Y-207200000D03*
D11*
X333980000Y-207200000D03*
%TD*%
D10*
%TO.C,C13*%
X295755000Y-49800000D03*
X300755000Y-49800000D03*
%TD*%
D12*
%TO.C,U1*%
X182890000Y-95255000D03*
D13*
X182890000Y-97795000D03*
X182890000Y-100335000D03*
X182890000Y-102875000D03*
X182890000Y-105415000D03*
X182890000Y-107955000D03*
X182890000Y-110495000D03*
X182890000Y-113035000D03*
X182890000Y-115575000D03*
X182890000Y-118115000D03*
X190510000Y-118115000D03*
X190510000Y-115575000D03*
X190510000Y-113035000D03*
X190510000Y-110495000D03*
X190510000Y-107955000D03*
X190510000Y-105415000D03*
X190510000Y-102875000D03*
X190510000Y-100335000D03*
X190510000Y-97795000D03*
X190510000Y-95255000D03*
%TD*%
D10*
%TO.C,R2*%
X204470000Y-86360000D03*
D11*
X196850000Y-86360000D03*
%TD*%
D10*
%TO.C,L11*%
X327025000Y-136525000D03*
D11*
X334645000Y-136525000D03*
%TD*%
D10*
%TO.C,R71*%
X74295000Y-154305000D03*
D11*
X81915000Y-154305000D03*
%TD*%
D10*
%TO.C,R4*%
X182880000Y-134620000D03*
D11*
X190500000Y-134620000D03*
%TD*%
D10*
%TO.C,R67*%
X59055000Y-158115000D03*
D11*
X66675000Y-158115000D03*
%TD*%
D10*
%TO.C,R60*%
X109220000Y-88900000D03*
D11*
X116840000Y-88900000D03*
%TD*%
D14*
%TO.C,H1*%
X370000000Y-217170000D03*
%TD*%
D10*
%TO.C,C61*%
X296000000Y-95500000D03*
X301000000Y-95500000D03*
%TD*%
D14*
%TO.C,H6*%
X311126400Y-54610000D03*
%TD*%
D10*
%TO.C,R70*%
X69215000Y-55880000D03*
D11*
X76835000Y-55880000D03*
%TD*%
D12*
%TO.C,U9*%
X187680000Y-200130000D03*
D13*
X187680000Y-202670000D03*
X187680000Y-205210000D03*
X187680000Y-207750000D03*
X187680000Y-210290000D03*
X187680000Y-212830000D03*
X187680000Y-215370000D03*
X195300000Y-215370000D03*
X195300000Y-212830000D03*
X195300000Y-210290000D03*
X195300000Y-207750000D03*
X195300000Y-205210000D03*
X195300000Y-202670000D03*
X195300000Y-200130000D03*
%TD*%
D10*
%TO.C,C79*%
X61000000Y-116205000D03*
X66000000Y-116205000D03*
%TD*%
D22*
%TO.C,Q9*%
X73660000Y-101365000D03*
D23*
X74930000Y-99295000D03*
X76200000Y-101365000D03*
%TD*%
D24*
%TO.C,U19*%
X35560000Y-197485000D03*
D25*
X38100000Y-197485000D03*
X40640000Y-197485000D03*
%TD*%
D10*
%TO.C,R59*%
X59690000Y-125095000D03*
D11*
X67310000Y-125095000D03*
%TD*%
D10*
%TO.C,R45*%
X113030000Y-142240000D03*
D11*
X120650000Y-142240000D03*
%TD*%
D10*
%TO.C,C85*%
X97790000Y-37465000D03*
X102790000Y-37465000D03*
%TD*%
%TO.C,L2*%
X182880000Y-149860000D03*
D11*
X190500000Y-149860000D03*
%TD*%
D10*
%TO.C,R56*%
X90805000Y-55880000D03*
D11*
X83185000Y-55880000D03*
%TD*%
D12*
%TO.C,U32*%
X330845000Y-149865000D03*
D13*
X330845000Y-152405000D03*
X330845000Y-154945000D03*
X330845000Y-157485000D03*
X330845000Y-160025000D03*
X330845000Y-162565000D03*
X330845000Y-165105000D03*
X330845000Y-167645000D03*
X330845000Y-170185000D03*
X330845000Y-172725000D03*
X338465000Y-172725000D03*
X338465000Y-170185000D03*
X338465000Y-167645000D03*
X338465000Y-165105000D03*
X338465000Y-162565000D03*
X338465000Y-160025000D03*
X338465000Y-157485000D03*
X338465000Y-154945000D03*
X338465000Y-152405000D03*
X338465000Y-149865000D03*
%TD*%
D10*
%TO.C,C65*%
X150495000Y-173355000D03*
X145495000Y-173355000D03*
%TD*%
D20*
%TO.C,J12*%
X222125000Y-36375000D03*
D21*
X222125000Y-33835000D03*
X224665000Y-36375000D03*
X224665000Y-33835000D03*
X227205000Y-36375000D03*
X227205000Y-33835000D03*
X229745000Y-36375000D03*
X229745000Y-33835000D03*
X232285000Y-36375000D03*
X232285000Y-33835000D03*
X234825000Y-36375000D03*
X234825000Y-33835000D03*
X237365000Y-36375000D03*
X237365000Y-33835000D03*
X239905000Y-36375000D03*
X239905000Y-33835000D03*
X242445000Y-36375000D03*
X242445000Y-33835000D03*
X244985000Y-36375000D03*
X244985000Y-33835000D03*
X247525000Y-36375000D03*
X247525000Y-33835000D03*
X250065000Y-36375000D03*
X250065000Y-33835000D03*
X252605000Y-36375000D03*
X252605000Y-33835000D03*
X255145000Y-36375000D03*
X255145000Y-33835000D03*
X257685000Y-36375000D03*
X257685000Y-33835000D03*
X260225000Y-36375000D03*
X260225000Y-33835000D03*
X262765000Y-36375000D03*
X262765000Y-33835000D03*
X265305000Y-36375000D03*
X265305000Y-33835000D03*
X267845000Y-36375000D03*
X267845000Y-33835000D03*
X270385000Y-36375000D03*
X270385000Y-33835000D03*
X272925000Y-36375000D03*
X272925000Y-33835000D03*
X275465000Y-36375000D03*
X275465000Y-33835000D03*
%TD*%
D10*
%TO.C,C71*%
X105490000Y-133350000D03*
X100490000Y-133350000D03*
%TD*%
%TO.C,L12*%
X132080000Y-40005000D03*
D11*
X124460000Y-40005000D03*
%TD*%
D10*
%TO.C,R58*%
X109220000Y-97790000D03*
D11*
X116840000Y-97790000D03*
%TD*%
D15*
%TO.C,C58*%
X290000000Y-44400000D03*
D10*
X292500000Y-44400000D03*
%TD*%
%TO.C,L4*%
X182880000Y-142240000D03*
D11*
X190500000Y-142240000D03*
%TD*%
D12*
%TO.C,U44*%
X63600000Y-176800000D03*
D13*
X63600000Y-179340000D03*
X63600000Y-181880000D03*
X63600000Y-184420000D03*
X63600000Y-186960000D03*
X63600000Y-189500000D03*
X63600000Y-192040000D03*
X63600000Y-194580000D03*
X63600000Y-197120000D03*
X63600000Y-199660000D03*
X63600000Y-202200000D03*
X63600000Y-204740000D03*
X63600000Y-207280000D03*
X63600000Y-209820000D03*
X63600000Y-212360000D03*
X63600000Y-214900000D03*
X78840000Y-214900000D03*
X78840000Y-212360000D03*
X78840000Y-209820000D03*
X78840000Y-207280000D03*
X78840000Y-204740000D03*
X78840000Y-202200000D03*
X78840000Y-199660000D03*
X78840000Y-197120000D03*
X78840000Y-194580000D03*
X78840000Y-192040000D03*
X78840000Y-189500000D03*
X78840000Y-186960000D03*
X78840000Y-184420000D03*
X78840000Y-181880000D03*
X78840000Y-179340000D03*
X78840000Y-176800000D03*
%TD*%
D12*
%TO.C,U2*%
X199390000Y-93980000D03*
D13*
X199390000Y-96520000D03*
X199390000Y-99060000D03*
X199390000Y-101600000D03*
X199390000Y-104140000D03*
X199390000Y-106680000D03*
X199390000Y-109220000D03*
X199390000Y-111760000D03*
X199390000Y-114300000D03*
X199390000Y-116840000D03*
X199390000Y-119380000D03*
X199390000Y-121920000D03*
X199390000Y-124460000D03*
X199390000Y-127000000D03*
X199390000Y-129540000D03*
X199390000Y-132080000D03*
X199390000Y-134620000D03*
X199390000Y-137160000D03*
X199390000Y-139700000D03*
X199390000Y-142240000D03*
X199390000Y-144780000D03*
X199390000Y-147320000D03*
X199390000Y-149860000D03*
X199390000Y-152400000D03*
X199390000Y-154940000D03*
X199390000Y-157480000D03*
X199390000Y-160020000D03*
X199390000Y-162560000D03*
X199390000Y-165100000D03*
X199390000Y-167640000D03*
X199390000Y-170180000D03*
X199390000Y-172720000D03*
X222250000Y-172720000D03*
X222250000Y-170180000D03*
X222250000Y-167640000D03*
X222250000Y-165100000D03*
X222250000Y-162560000D03*
X222250000Y-160020000D03*
X222250000Y-157480000D03*
X222250000Y-154940000D03*
X222250000Y-152400000D03*
X222250000Y-149860000D03*
X222250000Y-147320000D03*
X222250000Y-144780000D03*
X222250000Y-142240000D03*
X222250000Y-139700000D03*
X222250000Y-137160000D03*
X222250000Y-134620000D03*
X222250000Y-132080000D03*
X222250000Y-129540000D03*
X222250000Y-127000000D03*
X222250000Y-124460000D03*
X222250000Y-121920000D03*
X222250000Y-119380000D03*
X222250000Y-116840000D03*
X222250000Y-114300000D03*
X222250000Y-111760000D03*
X222250000Y-109220000D03*
X222250000Y-106680000D03*
X222250000Y-104140000D03*
X222250000Y-101600000D03*
X222250000Y-99060000D03*
X222250000Y-96520000D03*
X222250000Y-93980000D03*
%TD*%
D12*
%TO.C,U10*%
X208291900Y-59600000D03*
D13*
X208291900Y-62140000D03*
X208291900Y-64680000D03*
X208291900Y-67220000D03*
X208291900Y-69760000D03*
X208291900Y-72300000D03*
X208291900Y-74840000D03*
X215911900Y-74840000D03*
X215911900Y-72300000D03*
X215911900Y-69760000D03*
X215911900Y-67220000D03*
X215911900Y-64680000D03*
X215911900Y-62140000D03*
X215911900Y-59600000D03*
%TD*%
D10*
%TO.C,R27*%
X47625000Y-38735000D03*
D11*
X40005000Y-38735000D03*
%TD*%
D10*
%TO.C,L1*%
X176530000Y-86360000D03*
D11*
X168910000Y-86360000D03*
%TD*%
D10*
%TO.C,R30*%
X306290000Y-85400000D03*
D11*
X313910000Y-85400000D03*
%TD*%
D22*
%TO.C,Q1*%
X234315000Y-159670000D03*
D23*
X235585000Y-157600000D03*
X236855000Y-159670000D03*
%TD*%
D22*
%TO.C,Q2*%
X292800000Y-79300000D03*
D23*
X294070000Y-77230000D03*
X295340000Y-79300000D03*
%TD*%
D14*
%TO.C,H2*%
X246380000Y-72390000D03*
%TD*%
D10*
%TO.C,R99*%
X334200000Y-181700000D03*
D11*
X341820000Y-181700000D03*
%TD*%
D10*
%TO.C,C35*%
X209677500Y-54525000D03*
X214677500Y-54525000D03*
%TD*%
%TO.C,R22*%
X231775000Y-166370000D03*
D11*
X239395000Y-166370000D03*
%TD*%
D10*
%TO.C,C91*%
X61000000Y-120650000D03*
X66000000Y-120650000D03*
%TD*%
D26*
%TO.C,J13*%
X369540000Y-33347500D03*
X367000000Y-33347500D03*
X364460000Y-33347500D03*
X361920000Y-33347500D03*
X359380000Y-33347500D03*
X356840000Y-33347500D03*
X354300000Y-33347500D03*
X351760000Y-33347500D03*
X349220000Y-33347500D03*
X346680000Y-33347500D03*
X344140000Y-33347500D03*
X341600000Y-33347500D03*
X339060000Y-33347500D03*
X336520000Y-33347500D03*
X333980000Y-33347500D03*
X331440000Y-33347500D03*
X328900000Y-33347500D03*
X326360000Y-33347500D03*
X323820000Y-33347500D03*
X321280000Y-33347500D03*
X318740000Y-33347500D03*
X316200000Y-33347500D03*
%TD*%
D10*
%TO.C,C38*%
X354370000Y-133985000D03*
X359370000Y-133985000D03*
%TD*%
%TO.C,R74*%
X59690000Y-76835000D03*
D11*
X67310000Y-76835000D03*
%TD*%
D10*
%TO.C,R63*%
X59055000Y-149225000D03*
D11*
X66675000Y-149225000D03*
%TD*%
D10*
%TO.C,C55*%
X300035000Y-182400000D03*
X305035000Y-182400000D03*
%TD*%
%TO.C,R3*%
X182880000Y-157480000D03*
D11*
X190500000Y-157480000D03*
%TD*%
D10*
%TO.C,C69*%
X110530000Y-82550000D03*
X115530000Y-82550000D03*
%TD*%
%TO.C,R94*%
X293400000Y-34400000D03*
D11*
X301020000Y-34400000D03*
%TD*%
D10*
%TO.C,C53*%
X50840000Y-38735000D03*
X55840000Y-38735000D03*
%TD*%
D12*
%TO.C,U15*%
X260638800Y-54875000D03*
D13*
X260638800Y-57415000D03*
X260638800Y-59955000D03*
X260638800Y-62495000D03*
X260638800Y-65035000D03*
X260638800Y-67575000D03*
X260638800Y-70115000D03*
X268258800Y-70115000D03*
X268258800Y-67575000D03*
X268258800Y-65035000D03*
X268258800Y-62495000D03*
X268258800Y-59955000D03*
X268258800Y-57415000D03*
X268258800Y-54875000D03*
%TD*%
D19*
%TO.C,Y1*%
X184150000Y-86360000D03*
X189030000Y-86360000D03*
%TD*%
D10*
%TO.C,R50*%
X123190000Y-78105000D03*
D11*
X130810000Y-78105000D03*
%TD*%
D10*
%TO.C,R36*%
X103545000Y-104775000D03*
D11*
X111165000Y-104775000D03*
%TD*%
D10*
%TO.C,C83*%
X124500000Y-104140000D03*
X129500000Y-104140000D03*
%TD*%
D20*
%TO.C,J16*%
X87750000Y-175450000D03*
D21*
X87750000Y-177990000D03*
X87750000Y-180530000D03*
%TD*%
D10*
%TO.C,L3*%
X168910000Y-119380000D03*
D11*
X176530000Y-119380000D03*
%TD*%
D10*
%TO.C,C22*%
X355005000Y-99695000D03*
X360005000Y-99695000D03*
%TD*%
D22*
%TO.C,Q4*%
X127000000Y-152050000D03*
D23*
X128270000Y-149980000D03*
X129540000Y-152050000D03*
%TD*%
D10*
%TO.C,R78*%
X74930000Y-140335000D03*
D11*
X82550000Y-140335000D03*
%TD*%
D10*
%TO.C,R7*%
X168910000Y-111760000D03*
D11*
X176530000Y-111760000D03*
%TD*%
D10*
%TO.C,R88*%
X300690000Y-189300000D03*
D11*
X308310000Y-189300000D03*
%TD*%
D20*
%TO.C,J5*%
X255905000Y-88900000D03*
D21*
X258445000Y-88900000D03*
X260985000Y-88900000D03*
%TD*%
D10*
%TO.C,R69*%
X59055000Y-162560000D03*
D11*
X66675000Y-162560000D03*
%TD*%
D20*
%TO.C,J4*%
X126650000Y-217600000D03*
D21*
X124110000Y-217600000D03*
X121570000Y-217600000D03*
X119030000Y-217600000D03*
X116490000Y-217600000D03*
X113950000Y-217600000D03*
X111410000Y-217600000D03*
X108870000Y-217600000D03*
X106330000Y-217600000D03*
X103790000Y-217600000D03*
X101250000Y-217600000D03*
X98710000Y-217600000D03*
X96170000Y-217600000D03*
X93630000Y-217600000D03*
X91090000Y-217600000D03*
X88550000Y-217600000D03*
%TD*%
D10*
%TO.C,R64*%
X74295000Y-163830000D03*
D11*
X81915000Y-163830000D03*
%TD*%
D20*
%TO.C,J8*%
X285000000Y-34600000D03*
D21*
X287540000Y-34600000D03*
%TD*%
D10*
%TO.C,C88*%
X74335000Y-111125000D03*
X79335000Y-111125000D03*
%TD*%
D12*
%TO.C,U27*%
X250820000Y-94600000D03*
D13*
X250820000Y-97140000D03*
X250820000Y-99680000D03*
X250820000Y-102220000D03*
X250820000Y-104760000D03*
X250820000Y-107300000D03*
X250820000Y-109840000D03*
X250820000Y-112380000D03*
X250820000Y-114920000D03*
X250820000Y-117460000D03*
X250820000Y-120000000D03*
X250820000Y-122540000D03*
X250820000Y-125080000D03*
X250820000Y-127620000D03*
X266060000Y-127620000D03*
X266060000Y-125080000D03*
X266060000Y-122540000D03*
X266060000Y-120000000D03*
X266060000Y-117460000D03*
X266060000Y-114920000D03*
X266060000Y-112380000D03*
X266060000Y-109840000D03*
X266060000Y-107300000D03*
X266060000Y-104760000D03*
X266060000Y-102220000D03*
X266060000Y-99680000D03*
X266060000Y-97140000D03*
X266060000Y-94600000D03*
%TD*%
D10*
%TO.C,C45*%
X205520000Y-195000000D03*
X210520000Y-195000000D03*
%TD*%
%TO.C,L8*%
X254375000Y-184840000D03*
D11*
X261995000Y-184840000D03*
%TD*%
D10*
%TO.C,C94*%
X74335000Y-120650000D03*
X79335000Y-120650000D03*
%TD*%
%TO.C,R11*%
X158300000Y-216600000D03*
D11*
X150680000Y-216600000D03*
%TD*%
D10*
%TO.C,R31*%
X301590000Y-76400000D03*
D11*
X309210000Y-76400000D03*
%TD*%
D10*
%TO.C,C41*%
X221395000Y-195000000D03*
X226395000Y-195000000D03*
%TD*%
%TO.C,C36*%
X279440000Y-132715000D03*
X284440000Y-132715000D03*
%TD*%
%TO.C,C14*%
X283610000Y-49800000D03*
X278610000Y-49800000D03*
%TD*%
D22*
%TO.C,Q8*%
X80645000Y-101250000D03*
D23*
X81915000Y-99180000D03*
X83185000Y-101250000D03*
%TD*%
D10*
%TO.C,C31*%
X132070000Y-192555000D03*
X137070000Y-192555000D03*
%TD*%
%TO.C,C37*%
X189605000Y-195000000D03*
X194605000Y-195000000D03*
%TD*%
D12*
%TO.C,U31*%
X306705000Y-125095000D03*
D13*
X306705000Y-127635000D03*
X306705000Y-130175000D03*
X306705000Y-132715000D03*
X306705000Y-135255000D03*
X306705000Y-137795000D03*
X306705000Y-140335000D03*
X306705000Y-142875000D03*
X306705000Y-145415000D03*
X306705000Y-147955000D03*
X306705000Y-150495000D03*
X306705000Y-153035000D03*
X306705000Y-155575000D03*
X306705000Y-158115000D03*
X306705000Y-160655000D03*
X306705000Y-163195000D03*
X306705000Y-165735000D03*
X306705000Y-168275000D03*
X306705000Y-170815000D03*
X306705000Y-173355000D03*
X321945000Y-173355000D03*
X321945000Y-170815000D03*
X321945000Y-168275000D03*
X321945000Y-165735000D03*
X321945000Y-163195000D03*
X321945000Y-160655000D03*
X321945000Y-158115000D03*
X321945000Y-155575000D03*
X321945000Y-153035000D03*
X321945000Y-150495000D03*
X321945000Y-147955000D03*
X321945000Y-145415000D03*
X321945000Y-142875000D03*
X321945000Y-140335000D03*
X321945000Y-137795000D03*
X321945000Y-135255000D03*
X321945000Y-132715000D03*
X321945000Y-130175000D03*
X321945000Y-127635000D03*
X321945000Y-125095000D03*
%TD*%
D10*
%TO.C,L9*%
X298500000Y-163010000D03*
D11*
X298500000Y-155390000D03*
%TD*%
D12*
%TO.C,U4*%
X231150000Y-121915000D03*
D13*
X231150000Y-124455000D03*
X231150000Y-126995000D03*
X231150000Y-129535000D03*
X231150000Y-132075000D03*
X231150000Y-134615000D03*
X231150000Y-137155000D03*
X238770000Y-137155000D03*
X238770000Y-134615000D03*
X238770000Y-132075000D03*
X238770000Y-129535000D03*
X238770000Y-126995000D03*
X238770000Y-124455000D03*
X238770000Y-121915000D03*
%TD*%
D10*
%TO.C,C30*%
X193715000Y-42545000D03*
X198715000Y-42545000D03*
%TD*%
%TO.C,R76*%
X82550000Y-135255000D03*
D11*
X74930000Y-135255000D03*
%TD*%
D10*
%TO.C,C68*%
X110530000Y-93345000D03*
X115530000Y-93345000D03*
%TD*%
D22*
%TO.C,Q6*%
X127635000Y-141890000D03*
D23*
X128905000Y-139820000D03*
X130175000Y-141890000D03*
%TD*%
D12*
%TO.C,U22*%
X307350000Y-97150000D03*
D13*
X307350000Y-99690000D03*
X307350000Y-102230000D03*
X307350000Y-104770000D03*
X307350000Y-107310000D03*
X307350000Y-109850000D03*
X307350000Y-112390000D03*
X314970000Y-112390000D03*
X314970000Y-109850000D03*
X314970000Y-107310000D03*
X314970000Y-104770000D03*
X314970000Y-102230000D03*
X314970000Y-99690000D03*
X314970000Y-97150000D03*
%TD*%
D10*
%TO.C,C50*%
X91525000Y-179575000D03*
X96525000Y-179575000D03*
%TD*%
D12*
%TO.C,U30*%
X49540000Y-45075000D03*
D13*
X49540000Y-47615000D03*
X49540000Y-50155000D03*
X49540000Y-52695000D03*
X49540000Y-55235000D03*
X49540000Y-57775000D03*
X49540000Y-60315000D03*
X49540000Y-62855000D03*
X57160000Y-62855000D03*
X57160000Y-60315000D03*
X57160000Y-57775000D03*
X57160000Y-55235000D03*
X57160000Y-52695000D03*
X57160000Y-50155000D03*
X57160000Y-47615000D03*
X57160000Y-45075000D03*
%TD*%
D10*
%TO.C,C39*%
X233045000Y-142240000D03*
X238045000Y-142240000D03*
%TD*%
D15*
%TO.C,C21*%
X95038600Y-167100000D03*
D10*
X97538600Y-167100000D03*
%TD*%
%TO.C,C27*%
X239175000Y-195000000D03*
X244175000Y-195000000D03*
%TD*%
%TO.C,C66*%
X76240000Y-130810000D03*
X81240000Y-130810000D03*
%TD*%
%TO.C,R28*%
X289200000Y-182400000D03*
D11*
X296820000Y-182400000D03*
%TD*%
D20*
%TO.C,J6*%
X280035000Y-88900000D03*
D21*
X282575000Y-88900000D03*
X285115000Y-88900000D03*
%TD*%
D12*
%TO.C,U20*%
X320300000Y-199475000D03*
D13*
X320300000Y-202015000D03*
X320300000Y-204555000D03*
X320300000Y-207095000D03*
X320300000Y-209635000D03*
X320300000Y-212175000D03*
X320300000Y-214715000D03*
X327920000Y-214715000D03*
X327920000Y-212175000D03*
X327920000Y-209635000D03*
X327920000Y-207095000D03*
X327920000Y-204555000D03*
X327920000Y-202015000D03*
X327920000Y-199475000D03*
%TD*%
D10*
%TO.C,R34*%
X161290000Y-93980000D03*
D11*
X161290000Y-101600000D03*
%TD*%
D10*
%TO.C,R81*%
X37465000Y-80010000D03*
D11*
X45085000Y-80010000D03*
%TD*%
D27*
%TO.C,J3*%
X40200000Y-212300000D03*
D28*
X45200000Y-212300000D03*
X50200000Y-212300000D03*
X55200000Y-212300000D03*
%TD*%
D10*
%TO.C,R54*%
X90805000Y-46355000D03*
D11*
X83185000Y-46355000D03*
%TD*%
D10*
%TO.C,C56*%
X290510000Y-187480000D03*
X295510000Y-187480000D03*
%TD*%
%TO.C,R65*%
X59055000Y-153670000D03*
D11*
X66675000Y-153670000D03*
%TD*%
D10*
%TO.C,R25*%
X116790000Y-197000000D03*
D11*
X124410000Y-197000000D03*
%TD*%
D12*
%TO.C,U25*%
X270200000Y-199360000D03*
D13*
X270200000Y-201900000D03*
X270200000Y-204440000D03*
X270200000Y-206980000D03*
X270200000Y-209520000D03*
X270200000Y-212060000D03*
X270200000Y-214600000D03*
X270200000Y-217140000D03*
X277820000Y-217140000D03*
X277820000Y-214600000D03*
X277820000Y-212060000D03*
X277820000Y-209520000D03*
X277820000Y-206980000D03*
X277820000Y-204440000D03*
X277820000Y-201900000D03*
X277820000Y-199360000D03*
%TD*%
D10*
%TO.C,R87*%
X352090000Y-202800000D03*
D11*
X359710000Y-202800000D03*
%TD*%
D10*
%TO.C,R29*%
X322000000Y-109510000D03*
D11*
X322000000Y-101890000D03*
%TD*%
D10*
%TO.C,R51*%
X90805000Y-33020000D03*
D11*
X83185000Y-33020000D03*
%TD*%
D10*
%TO.C,C12*%
X205480000Y-188015000D03*
X210480000Y-188015000D03*
%TD*%
D15*
%TO.C,C59*%
X297538600Y-124600000D03*
D10*
X300038600Y-124600000D03*
%TD*%
D12*
%TO.C,U13*%
X175658100Y-47620000D03*
D13*
X175658100Y-50160000D03*
X175658100Y-52700000D03*
X175658100Y-55240000D03*
X175658100Y-57780000D03*
X175658100Y-60320000D03*
X175658100Y-62860000D03*
X175658100Y-65400000D03*
X175658100Y-67940000D03*
X175658100Y-70480000D03*
X183278100Y-70480000D03*
X183278100Y-67940000D03*
X183278100Y-65400000D03*
X183278100Y-62860000D03*
X183278100Y-60320000D03*
X183278100Y-57780000D03*
X183278100Y-55240000D03*
X183278100Y-52700000D03*
X183278100Y-50160000D03*
X183278100Y-47620000D03*
%TD*%
D12*
%TO.C,U5*%
X171160000Y-200130000D03*
D13*
X171160000Y-202670000D03*
X171160000Y-205210000D03*
X171160000Y-207750000D03*
X171160000Y-210290000D03*
X171160000Y-212830000D03*
X171160000Y-215370000D03*
X171160000Y-217910000D03*
X178780000Y-217910000D03*
X178780000Y-215370000D03*
X178780000Y-212830000D03*
X178780000Y-210290000D03*
X178780000Y-207750000D03*
X178780000Y-205210000D03*
X178780000Y-202670000D03*
X178780000Y-200130000D03*
%TD*%
D10*
%TO.C,R37*%
X142875000Y-83185000D03*
D11*
X150495000Y-83185000D03*
%TD*%
D10*
%TO.C,R89*%
X352390000Y-192955000D03*
D11*
X360010000Y-192955000D03*
%TD*%
D10*
%TO.C,L6*%
X56400000Y-197700000D03*
D11*
X48780000Y-197700000D03*
%TD*%
D10*
%TO.C,R100*%
X114890000Y-172100000D03*
D11*
X122510000Y-172100000D03*
%TD*%
D15*
%TO.C,C60*%
X269638600Y-79500000D03*
D10*
X272138600Y-79500000D03*
%TD*%
D12*
%TO.C,U37*%
X144185000Y-150495000D03*
D13*
X144185000Y-153035000D03*
X144185000Y-155575000D03*
X144185000Y-158115000D03*
X144185000Y-160655000D03*
X144185000Y-163195000D03*
X144185000Y-165735000D03*
X144185000Y-168275000D03*
X151805000Y-168275000D03*
X151805000Y-165735000D03*
X151805000Y-163195000D03*
X151805000Y-160655000D03*
X151805000Y-158115000D03*
X151805000Y-155575000D03*
X151805000Y-153035000D03*
X151805000Y-150495000D03*
%TD*%
D10*
%TO.C,C77*%
X105490000Y-142240000D03*
X100490000Y-142240000D03*
%TD*%
D15*
%TO.C,C15*%
X71238600Y-66600000D03*
D10*
X73738600Y-66600000D03*
%TD*%
D12*
%TO.C,U41*%
X307900000Y-199400000D03*
D13*
X307900000Y-201940000D03*
X307900000Y-204480000D03*
X307900000Y-207020000D03*
X307900000Y-209560000D03*
X307900000Y-212100000D03*
X307900000Y-214640000D03*
X307900000Y-217180000D03*
X315520000Y-217180000D03*
X315520000Y-214640000D03*
X315520000Y-212100000D03*
X315520000Y-209560000D03*
X315520000Y-207020000D03*
X315520000Y-204480000D03*
X315520000Y-201940000D03*
X315520000Y-199400000D03*
%TD*%
D10*
%TO.C,C92*%
X48300000Y-73660000D03*
X53300000Y-73660000D03*
%TD*%
D12*
%TO.C,U43*%
X89625000Y-187375000D03*
D13*
X89625000Y-189915000D03*
X89625000Y-192455000D03*
X89625000Y-194995000D03*
X89625000Y-197535000D03*
X89625000Y-200075000D03*
X89625000Y-202615000D03*
X89625000Y-205155000D03*
X97245000Y-205155000D03*
X97245000Y-202615000D03*
X97245000Y-200075000D03*
X97245000Y-197535000D03*
X97245000Y-194995000D03*
X97245000Y-192455000D03*
X97245000Y-189915000D03*
X97245000Y-187375000D03*
%TD*%
D10*
%TO.C,R38*%
X90210000Y-104775000D03*
D11*
X97830000Y-104775000D03*
%TD*%
D12*
%TO.C,U39*%
X59700000Y-83175000D03*
D13*
X59700000Y-85715000D03*
X59700000Y-88255000D03*
X67320000Y-88255000D03*
X67320000Y-85715000D03*
X67320000Y-83175000D03*
%TD*%
D10*
%TO.C,C24*%
X332000000Y-95000000D03*
X337000000Y-95000000D03*
%TD*%
%TO.C,R23*%
X231775000Y-150495000D03*
D11*
X239395000Y-150495000D03*
%TD*%
D10*
%TO.C,C28*%
X255945000Y-132715000D03*
X260945000Y-132715000D03*
%TD*%
D22*
%TO.C,Q7*%
X62230000Y-135020000D03*
D23*
X63500000Y-132950000D03*
X64770000Y-135020000D03*
%TD*%
D20*
%TO.C,J2*%
X163830000Y-33020000D03*
D21*
X166370000Y-33020000D03*
%TD*%
D10*
%TO.C,C90*%
X75605000Y-144780000D03*
X80605000Y-144780000D03*
%TD*%
%TO.C,R5*%
X168910000Y-104140000D03*
D11*
X176530000Y-104140000D03*
%TD*%
D10*
%TO.C,R66*%
X120650000Y-161290000D03*
D11*
X113030000Y-161290000D03*
%TD*%
D20*
%TO.C,J14*%
X319546400Y-56810000D03*
D21*
X319546400Y-51810000D03*
X322086400Y-56810000D03*
X322086400Y-51810000D03*
X324626400Y-56810000D03*
X324626400Y-51810000D03*
X327166400Y-56810000D03*
X327166400Y-51810000D03*
X329706400Y-56810000D03*
X329706400Y-51810000D03*
X332246400Y-56810000D03*
X332246400Y-51810000D03*
X334786400Y-56810000D03*
X334786400Y-51810000D03*
X337326400Y-56810000D03*
X337326400Y-51810000D03*
X339866400Y-56810000D03*
X339866400Y-51810000D03*
X342406400Y-56810000D03*
X342406400Y-51810000D03*
X344946400Y-56810000D03*
X344946400Y-51810000D03*
X347486400Y-56810000D03*
X347486400Y-51810000D03*
X350026400Y-56810000D03*
X350026400Y-51810000D03*
X352566400Y-56810000D03*
X352566400Y-51810000D03*
X355106400Y-56810000D03*
X355106400Y-51810000D03*
X357646400Y-56810000D03*
X357646400Y-51810000D03*
X360186400Y-56810000D03*
X360186400Y-51810000D03*
X362726400Y-56810000D03*
X362726400Y-51810000D03*
%TD*%
D12*
%TO.C,U38*%
X73035000Y-83175000D03*
D13*
X73035000Y-85715000D03*
X73035000Y-88255000D03*
X80655000Y-88255000D03*
X80655000Y-85715000D03*
X80655000Y-83175000D03*
%TD*%
D16*
%TO.C,D1*%
X35560000Y-184785000D03*
D29*
X38100000Y-184785000D03*
%TD*%
D20*
%TO.C,J15*%
X319525000Y-65300000D03*
D21*
X319525000Y-62760000D03*
X322065000Y-65300000D03*
X322065000Y-62760000D03*
X324605000Y-65300000D03*
X324605000Y-62760000D03*
X327145000Y-65300000D03*
X327145000Y-62760000D03*
X329685000Y-65300000D03*
X329685000Y-62760000D03*
X332225000Y-65300000D03*
X332225000Y-62760000D03*
X334765000Y-65300000D03*
X334765000Y-62760000D03*
X337305000Y-65300000D03*
X337305000Y-62760000D03*
X339845000Y-65300000D03*
X339845000Y-62760000D03*
X342385000Y-65300000D03*
X342385000Y-62760000D03*
X344925000Y-65300000D03*
X344925000Y-62760000D03*
X347465000Y-65300000D03*
X347465000Y-62760000D03*
X350005000Y-65300000D03*
X350005000Y-62760000D03*
X352545000Y-65300000D03*
X352545000Y-62760000D03*
X355085000Y-65300000D03*
X355085000Y-62760000D03*
X357625000Y-65300000D03*
X357625000Y-62760000D03*
X360165000Y-65300000D03*
X360165000Y-62760000D03*
X362705000Y-65300000D03*
X362705000Y-62760000D03*
%TD*%
D10*
%TO.C,C75*%
X105490000Y-128905000D03*
X100490000Y-128905000D03*
%TD*%
D15*
%TO.C,R21*%
X129000000Y-211100000D03*
D11*
X126460000Y-211100000D03*
X123920000Y-211100000D03*
X121380000Y-211100000D03*
X118840000Y-211100000D03*
X116300000Y-211100000D03*
X113760000Y-211100000D03*
X111220000Y-211100000D03*
X108680000Y-211100000D03*
X106140000Y-211100000D03*
%TD*%
D10*
%TO.C,R90*%
X266790000Y-182220000D03*
D11*
X274410000Y-182220000D03*
%TD*%
D10*
%TO.C,C76*%
X105490000Y-137795000D03*
X100490000Y-137795000D03*
%TD*%
D14*
%TO.C,H4*%
X144780000Y-72390000D03*
%TD*%
D10*
%TO.C,R43*%
X113030000Y-133350000D03*
D11*
X120650000Y-133350000D03*
%TD*%
D15*
%TO.C,C16*%
X171538600Y-179500000D03*
D10*
X174038600Y-179500000D03*
%TD*%
%TO.C,C81*%
X97790000Y-41910000D03*
X102790000Y-41910000D03*
%TD*%
%TO.C,L10*%
X301480000Y-87500000D03*
D11*
X291320000Y-87500000D03*
%TD*%
D15*
%TO.C,C3*%
X158858600Y-154940000D03*
D10*
X161358600Y-154940000D03*
%TD*%
%TO.C,C48*%
X111600000Y-172100000D03*
X106600000Y-172100000D03*
%TD*%
%TO.C,R33*%
X287810000Y-79100000D03*
D11*
X280190000Y-79100000D03*
%TD*%
D10*
%TO.C,C49*%
X262100000Y-49800000D03*
X267100000Y-49800000D03*
%TD*%
D12*
%TO.C,U34*%
X349245000Y-140320000D03*
D13*
X349245000Y-142860000D03*
X349245000Y-145400000D03*
X349245000Y-147940000D03*
X349245000Y-150480000D03*
X349245000Y-153020000D03*
X349245000Y-155560000D03*
X349245000Y-158100000D03*
X349245000Y-160640000D03*
X349245000Y-163180000D03*
X349245000Y-165720000D03*
X349245000Y-168260000D03*
X349245000Y-170800000D03*
X349245000Y-173340000D03*
X364485000Y-173340000D03*
X364485000Y-170800000D03*
X364485000Y-168260000D03*
X364485000Y-165720000D03*
X364485000Y-163180000D03*
X364485000Y-160640000D03*
X364485000Y-158100000D03*
X364485000Y-155560000D03*
X364485000Y-153020000D03*
X364485000Y-150480000D03*
X364485000Y-147940000D03*
X364485000Y-145400000D03*
X364485000Y-142860000D03*
X364485000Y-140320000D03*
%TD*%
D10*
%TO.C,C73*%
X105490000Y-150495000D03*
X100490000Y-150495000D03*
%TD*%
D15*
%TO.C,C10*%
X145473600Y-188745000D03*
D10*
X147973600Y-188745000D03*
%TD*%
%TO.C,C74*%
X105490000Y-120650000D03*
X100490000Y-120650000D03*
%TD*%
%TO.C,R24*%
X116790000Y-192555000D03*
D11*
X124410000Y-192555000D03*
%TD*%
D10*
%TO.C,R92*%
X334200000Y-186780000D03*
D11*
X341820000Y-186780000D03*
%TD*%
D10*
%TO.C,R80*%
X59055000Y-140335000D03*
D11*
X66675000Y-140335000D03*
%TD*%
D10*
%TO.C,C70*%
X105490000Y-124460000D03*
X100490000Y-124460000D03*
%TD*%
%TO.C,R98*%
X352390000Y-183430000D03*
D11*
X360010000Y-183430000D03*
%TD*%
D15*
%TO.C,C17*%
X323600000Y-189000000D03*
D10*
X326100000Y-189000000D03*
%TD*%
%TO.C,C57*%
X328335000Y-142875000D03*
X333335000Y-142875000D03*
%TD*%
%TO.C,L21*%
X59690000Y-95885000D03*
D11*
X67310000Y-95885000D03*
%TD*%
D10*
%TO.C,R12*%
X150680000Y-197550000D03*
D11*
X158300000Y-197550000D03*
%TD*%
D10*
%TO.C,R82*%
X138430000Y-53340000D03*
D11*
X146050000Y-53340000D03*
%TD*%
D10*
%TO.C,C80*%
X97790000Y-33020000D03*
X102790000Y-33020000D03*
%TD*%
%TO.C,C9*%
X175220000Y-157480000D03*
X170220000Y-157480000D03*
%TD*%
D12*
%TO.C,U42*%
X330600000Y-70600000D03*
D13*
X330600000Y-73140000D03*
X330600000Y-75680000D03*
X330600000Y-78220000D03*
X330600000Y-80760000D03*
X330600000Y-83300000D03*
X330600000Y-85840000D03*
X330600000Y-88380000D03*
X338220000Y-88380000D03*
X338220000Y-85840000D03*
X338220000Y-83300000D03*
X338220000Y-80760000D03*
X338220000Y-78220000D03*
X338220000Y-75680000D03*
X338220000Y-73140000D03*
X338220000Y-70600000D03*
%TD*%
D10*
%TO.C,R32*%
X298600000Y-140390000D03*
D11*
X298600000Y-148010000D03*
%TD*%
D10*
%TO.C,L14*%
X124460000Y-52705000D03*
D11*
X132080000Y-52705000D03*
%TD*%
D10*
%TO.C,C23*%
X332780000Y-100965000D03*
X337780000Y-100965000D03*
%TD*%
%TO.C,C95*%
X74295000Y-106680000D03*
X79295000Y-106680000D03*
%TD*%
%TO.C,R19*%
X33020000Y-177165000D03*
D11*
X40640000Y-177165000D03*
%TD*%
D18*
%TO.C,J10*%
X32300000Y-165160000D03*
X32300000Y-140160000D03*
D15*
X32600000Y-158200000D03*
D10*
X32600000Y-155430000D03*
X32600000Y-152660000D03*
X32600000Y-149890000D03*
X32600000Y-147120000D03*
X29760000Y-156815000D03*
X29760000Y-154045000D03*
X29760000Y-151275000D03*
X29760000Y-148505000D03*
%TD*%
D12*
%TO.C,U33*%
X353705000Y-106050000D03*
D13*
X353705000Y-108590000D03*
X353705000Y-111130000D03*
X353705000Y-113670000D03*
X353705000Y-116210000D03*
X353705000Y-118750000D03*
X353705000Y-121290000D03*
X353705000Y-123830000D03*
X353705000Y-126370000D03*
X353705000Y-128910000D03*
X361325000Y-128910000D03*
X361325000Y-126370000D03*
X361325000Y-123830000D03*
X361325000Y-121290000D03*
X361325000Y-118750000D03*
X361325000Y-116210000D03*
X361325000Y-113670000D03*
X361325000Y-111130000D03*
X361325000Y-108590000D03*
X361325000Y-106050000D03*
%TD*%
D12*
%TO.C,U28*%
X274320000Y-140335000D03*
D13*
X274320000Y-142875000D03*
X274320000Y-145415000D03*
X274320000Y-147955000D03*
X274320000Y-150495000D03*
X274320000Y-153035000D03*
X274320000Y-155575000D03*
X274320000Y-158115000D03*
X274320000Y-160655000D03*
X274320000Y-163195000D03*
X274320000Y-165735000D03*
X274320000Y-168275000D03*
X274320000Y-170815000D03*
X274320000Y-173355000D03*
X289560000Y-173355000D03*
X289560000Y-170815000D03*
X289560000Y-168275000D03*
X289560000Y-165735000D03*
X289560000Y-163195000D03*
X289560000Y-160655000D03*
X289560000Y-158115000D03*
X289560000Y-155575000D03*
X289560000Y-153035000D03*
X289560000Y-150495000D03*
X289560000Y-147955000D03*
X289560000Y-145415000D03*
X289560000Y-142875000D03*
X289560000Y-140335000D03*
%TD*%
D10*
%TO.C,C67*%
X124500000Y-73660000D03*
X129500000Y-73660000D03*
%TD*%
%TO.C,R95*%
X334200000Y-191860000D03*
D11*
X341820000Y-191860000D03*
%TD*%
D10*
%TO.C,C46*%
X177165000Y-42545000D03*
X182165000Y-42545000D03*
%TD*%
%TO.C,C89*%
X60365000Y-167005000D03*
X65365000Y-167005000D03*
%TD*%
D12*
%TO.C,U26*%
X250820000Y-140320000D03*
D13*
X250820000Y-142860000D03*
X250820000Y-145400000D03*
X250820000Y-147940000D03*
X250820000Y-150480000D03*
X250820000Y-153020000D03*
X250820000Y-155560000D03*
X250820000Y-158100000D03*
X250820000Y-160640000D03*
X250820000Y-163180000D03*
X250820000Y-165720000D03*
X250820000Y-168260000D03*
X250820000Y-170800000D03*
X250820000Y-173340000D03*
X266060000Y-173340000D03*
X266060000Y-170800000D03*
X266060000Y-168260000D03*
X266060000Y-165720000D03*
X266060000Y-163180000D03*
X266060000Y-160640000D03*
X266060000Y-158100000D03*
X266060000Y-155560000D03*
X266060000Y-153020000D03*
X266060000Y-150480000D03*
X266060000Y-147940000D03*
X266060000Y-145400000D03*
X266060000Y-142860000D03*
X266060000Y-140320000D03*
%TD*%
D10*
%TO.C,C78*%
X105490000Y-146050000D03*
X100490000Y-146050000D03*
%TD*%
D22*
%TO.C,Q3*%
X127635000Y-122205000D03*
D23*
X128905000Y-120135000D03*
X130175000Y-122205000D03*
%TD*%
D10*
%TO.C,R52*%
X90805000Y-37465000D03*
D11*
X83185000Y-37465000D03*
%TD*%
D10*
%TO.C,L19*%
X67310000Y-106045000D03*
D11*
X59690000Y-106045000D03*
%TD*%
D10*
%TO.C,C84*%
X74335000Y-116205000D03*
X79335000Y-116205000D03*
%TD*%
D20*
%TO.C,J1*%
X186690000Y-33020000D03*
D21*
X184150000Y-33020000D03*
%TD*%
D10*
%TO.C,L17*%
X132080000Y-46355000D03*
D11*
X124460000Y-46355000D03*
%TD*%
D12*
%TO.C,U36*%
X139065000Y-94615000D03*
D13*
X139065000Y-97155000D03*
X139065000Y-99695000D03*
X139065000Y-102235000D03*
X139065000Y-104775000D03*
X139065000Y-107315000D03*
X139065000Y-109855000D03*
X139065000Y-112395000D03*
X139065000Y-114935000D03*
X139065000Y-117475000D03*
X139065000Y-120015000D03*
X139065000Y-122555000D03*
X139065000Y-125095000D03*
X139065000Y-127635000D03*
X139065000Y-130175000D03*
X139065000Y-132715000D03*
X139065000Y-135255000D03*
X139065000Y-137795000D03*
X139065000Y-140335000D03*
X139065000Y-142875000D03*
X154305000Y-142875000D03*
X154305000Y-140335000D03*
X154305000Y-137795000D03*
X154305000Y-135255000D03*
X154305000Y-132715000D03*
X154305000Y-130175000D03*
X154305000Y-127635000D03*
X154305000Y-125095000D03*
X154305000Y-122555000D03*
X154305000Y-120015000D03*
X154305000Y-117475000D03*
X154305000Y-114935000D03*
X154305000Y-112395000D03*
X154305000Y-109855000D03*
X154305000Y-107315000D03*
X154305000Y-104775000D03*
X154305000Y-102235000D03*
X154305000Y-99695000D03*
X154305000Y-97155000D03*
X154305000Y-94615000D03*
%TD*%
D10*
%TO.C,L16*%
X109855000Y-46355000D03*
D11*
X117475000Y-46355000D03*
%TD*%
D10*
%TO.C,C62*%
X149185000Y-87630000D03*
X144185000Y-87630000D03*
%TD*%
%TO.C,C26*%
X226822500Y-54525000D03*
X231822500Y-54525000D03*
%TD*%
%TO.C,L7*%
X44450000Y-67310000D03*
D11*
X36830000Y-67310000D03*
%TD*%
D12*
%TO.C,U12*%
X158750000Y-47620000D03*
D13*
X158750000Y-50160000D03*
X158750000Y-52700000D03*
X158750000Y-55240000D03*
X158750000Y-57780000D03*
X158750000Y-60320000D03*
X158750000Y-62860000D03*
X158750000Y-65400000D03*
X158750000Y-67940000D03*
X158750000Y-70480000D03*
X166370000Y-70480000D03*
X166370000Y-67940000D03*
X166370000Y-65400000D03*
X166370000Y-62860000D03*
X166370000Y-60320000D03*
X166370000Y-57780000D03*
X166370000Y-55240000D03*
X166370000Y-52700000D03*
X166370000Y-50160000D03*
X166370000Y-47620000D03*
%TD*%
D22*
%TO.C,Q5*%
X127635000Y-131845000D03*
D23*
X128905000Y-129775000D03*
X130175000Y-131845000D03*
%TD*%
D10*
%TO.C,R86*%
X333980000Y-211645000D03*
D11*
X341600000Y-211645000D03*
%TD*%
D10*
%TO.C,R72*%
X74295000Y-149225000D03*
D11*
X81915000Y-149225000D03*
%TD*%
D10*
%TO.C,C93*%
X48260000Y-80010000D03*
X53260000Y-80010000D03*
%TD*%
D20*
%TO.C,J17*%
X104825000Y-196675000D03*
D21*
X104825000Y-199215000D03*
X104825000Y-201755000D03*
%TD*%
D10*
%TO.C,R1*%
X127590000Y-160700000D03*
D11*
X135210000Y-160700000D03*
%TD*%
D10*
%TO.C,R68*%
X74295000Y-158750000D03*
D11*
X81915000Y-158750000D03*
%TD*%
D10*
%TO.C,C96*%
X85130000Y-116205000D03*
X90130000Y-116205000D03*
%TD*%
%TO.C,C8*%
X201930000Y-78740000D03*
X196930000Y-78740000D03*
%TD*%
%TO.C,R8*%
X182880000Y-165100000D03*
D11*
X190500000Y-165100000D03*
%TD*%
D10*
%TO.C,R73*%
X73025000Y-76835000D03*
D11*
X80645000Y-76835000D03*
%TD*%
D16*
%TO.C,CR3*%
X116790000Y-186205000D03*
D17*
X124410000Y-186205000D03*
%TD*%
D12*
%TO.C,U3*%
X231150000Y-93975000D03*
D13*
X231150000Y-96515000D03*
X231150000Y-99055000D03*
X231150000Y-101595000D03*
X231150000Y-104135000D03*
X231150000Y-106675000D03*
X231150000Y-109215000D03*
X238770000Y-109215000D03*
X238770000Y-106675000D03*
X238770000Y-104135000D03*
X238770000Y-101595000D03*
X238770000Y-99055000D03*
X238770000Y-96515000D03*
X238770000Y-93975000D03*
%TD*%
D16*
%TO.C,CR2*%
X231775000Y-173990000D03*
D17*
X239395000Y-173990000D03*
%TD*%
D10*
%TO.C,R39*%
X109220000Y-78105000D03*
D11*
X116840000Y-78105000D03*
%TD*%
D10*
%TO.C,R47*%
X113030000Y-151130000D03*
D11*
X120650000Y-151130000D03*
%TD*%
D10*
%TO.C,R10*%
X210820000Y-86360000D03*
D11*
X218440000Y-86360000D03*
%TD*%
D10*
%TO.C,R41*%
X113030000Y-124460000D03*
D11*
X120650000Y-124460000D03*
%TD*%
D10*
%TO.C,L20*%
X67310000Y-100965000D03*
D11*
X59690000Y-100965000D03*
%TD*%
M02*
