M48
; DRILL file {KiCad (6.0.6)} date Sun Nov 20 10:04:04 2022
; FORMAT={-:-/ absolute / inch / decimal}
; #@! TF.CreationDate,2022-11-20T10:04:04-06:00
; #@! TF.GenerationSoftware,Kicad,Pcbnew,(6.0.6)
; #@! TF.FileFunction,Plated,1,2,PTH
FMAT,2
INCH
; #@! TA.AperFunction,Plated,PTH,ViaDrill
T1C0.0157
; #@! TA.AperFunction,Plated,PTH,ComponentDrill
T2C0.0295
; #@! TA.AperFunction,Plated,PTH,ComponentDrill
T3C0.0315
; #@! TA.AperFunction,Plated,PTH,ComponentDrill
T4C0.0354
; #@! TA.AperFunction,Plated,PTH,ComponentDrill
T5C0.0394
; #@! TA.AperFunction,Plated,PTH,ComponentDrill
T6C0.0433
; #@! TA.AperFunction,Plated,PTH,ComponentDrill
T7C0.0512
; #@! TA.AperFunction,Plated,PTH,ComponentDrill
T8C0.1260
%
G90
G05
T1
X1.0507Y-3.3207
X1.06Y-6.6966
X1.3612Y-6.9616
X1.5454Y-3.2734
X1.6071Y-2.8351
X1.7237Y-6.8718
X2.1393Y-2.3038
X2.1504Y-3.3461
X2.2113Y-3.2853
X2.372Y-5.4223
X2.4155Y-5.0311
X2.4368Y-5.4323
X2.4595Y-2.9027
X2.5927Y-6.7717
X2.5934Y-6.7017
X2.5943Y-6.6575
X2.6819Y-2.2524
X2.7526Y-2.9765
X2.7925Y-2.3813
X2.8972Y-4.4758
X2.9295Y-8.6069
X3.0519Y-8.5837
X3.1058Y-8.564
X3.1069Y-2.9455
X3.1196Y-3.0563
X3.2067Y-7.281
X3.2797Y-3.0871
X3.3394Y-7.5069
X3.3457Y-2.3503
X3.3791Y-5.7272
X3.4515Y-2.7697
X3.4966Y-2.9216
X3.5794Y-8.0213
X3.6467Y-2.9225
X3.6618Y-7.9222
X3.7168Y-6.78
X3.8045Y-4.0388
X3.8169Y-2.6869
X3.8169Y-3.6907
X3.8669Y-2.6223
X3.8678Y-3.9381
X3.8766Y-2.6872
X3.889Y-8.4101
X3.9036Y-3.7765
X3.9357Y-3.8893
X4.008Y-7.75
X4.1424Y-8.262
X4.252Y-8.7009
X4.368Y-2.7408
X4.4544Y-6.6131
X4.4935Y-6.0896
X4.5134Y-8.7284
X4.5752Y-3.9593
X4.6191Y-8.2288
X4.6245Y-2.5103
X4.6651Y-6.2959
X4.6833Y-7.6257
X4.7457Y-6.4205
X4.8498Y-4.7713
X4.8545Y-4.682
X4.9482Y-7.8589
X4.9907Y-2.2745
X5.0311Y-2.236
X5.0636Y-4.4967
X5.0658Y-3.405
X5.1078Y-4.0289
X5.1569Y-4.6329
X5.1946Y-4.544
X5.1972Y-5.0321
X5.3448Y-3.6442
X5.3944Y-3.5789
X5.4144Y-1.6612
X5.4204Y-6.8299
X5.4364Y-2.2668
X5.4419Y-1.6317
X5.4455Y-7.69
X5.4904Y-6.8986
X5.5052Y-8.2289
X5.5666Y-1.8437
X5.5934Y-7.49
X5.6483Y-4.5032
X5.6949Y-1.9492
X5.7214Y-5.475
X5.7273Y-4.4234
X5.7435Y-8.1736
X5.7735Y-6.7773
X5.7996Y-6.6389
X5.8036Y-6.425
X5.8514Y-6.125
X5.861Y-8.6136
X5.8725Y-2.74
X5.8946Y-7.5487
X5.9466Y-4.7972
X5.9782Y-4.9037
X6.0237Y-2.2804
X6.1534Y-2.326
X6.1534Y-2.7699
X6.1536Y-2.4869
X6.1576Y-5.2758
X6.1642Y-2.843
X6.2167Y-4.9781
X6.2239Y-4.6521
X6.2474Y-4.8846
X6.2869Y-4.3187
X6.3054Y-5.1694
X6.3886Y-2.69
X6.4827Y-5.7563
X6.5621Y-5.9356
X6.6056Y-4.7444
X6.6425Y-8.4062
X6.6842Y-6.0631
X6.7294Y-6.7391
X6.7557Y-1.7959
X6.7816Y-6.8984
X6.8163Y-1.7789
X6.8216Y-5.8696
X6.8251Y-6.797
X6.8369Y-6.8618
X6.8576Y-8.5291
X6.8587Y-4.1774
X6.8641Y-4.6169
X6.9234Y-3.7854
X7.0009Y-4.0104
X7.1032Y-6.4304
X7.1957Y-6.729
X7.2Y-6.0853
X7.2085Y-8.2318
X7.2165Y-2.974
X7.2262Y-6.3441
X7.2743Y-6.226
X7.2793Y-4.6988
X7.3156Y-4.1974
X7.3337Y-6.2355
X7.3567Y-7.2857
X7.3628Y-2.4489
X7.3772Y-6.5575
X7.3795Y-4.9986
X7.4004Y-4.7117
X7.4214Y-8.5588
X7.4307Y-4.7476
X7.4323Y-4.4035
X7.4409Y-6.5346
X7.4615Y-6.3869
X7.4831Y-8.6316
X7.499Y-6.3208
X7.5034Y-6.361
X7.5238Y-4.778
X7.5686Y-8.5176
X7.5866Y-3.6132
X7.5882Y-8.0017
X7.5923Y-6.4994
X7.5941Y-6.4546
X7.5996Y-7.748
X7.6074Y-7.5112
X7.6123Y-4.6196
X7.6282Y-3.6288
X7.6591Y-3.5554
X7.6943Y-6.3121
X7.7055Y-2.5032
X7.741Y-3.7245
X7.7462Y-7.5866
X7.7604Y-2.659
X7.793Y-7.5311
X7.7979Y-8.562
X7.8185Y-7.4022
X7.833Y-2.4289
X7.8625Y-7.8348
X7.8779Y-8.1295
X7.8936Y-3.0887
X7.8961Y-6.9782
X7.9156Y-8.4337
X7.9271Y-3.2866
X7.9504Y-7.5105
X7.9597Y-2.0973
X7.9624Y-5.2458
X7.9659Y-2.1377
X7.9833Y-5.6864
X7.9846Y-1.9234
X8.003Y-5.3354
X8.0041Y-1.8555
X8.0149Y-7.6867
X8.0224Y-4.5921
X8.0568Y-5.5134
X8.0892Y-5.929
X8.1112Y-5.9901
X8.1151Y-4.7129
X8.1357Y-5.872
X8.1406Y-7.7698
X8.1456Y-5.4328
X8.1559Y-6.0487
X8.1622Y-8.3795
X8.1646Y-3.1156
X8.1696Y-2.1687
X8.1697Y-7.7344
X8.2003Y-3.7462
X8.2083Y-6.9858
X8.2146Y-5.5746
X8.2217Y-4.3098
X8.2448Y-7.9627
X8.2523Y-3.5208
X8.2643Y-2.8908
X8.2771Y-7.8143
X8.2821Y-3.4669
X8.2942Y-2.0568
X8.3022Y-3.6113
X8.3227Y-3.5329
X8.33Y-7.2359
X8.3433Y-4.5886
X8.3575Y-2.8479
X8.3954Y-7.3038
X8.3962Y-3.1002
X8.3984Y-5.724
X8.4161Y-5.5
X8.4177Y-5.8
X8.4216Y-7.6806
X8.4443Y-4.5166
X8.4446Y-8.2244
X8.4646Y-3.1557
X8.4692Y-4.3212
X8.5434Y-2.208
X8.5434Y-8.0815
X8.548Y-4.0048
X8.5556Y-7.2775
X8.5884Y-5.2984
X8.589Y-4.7309
X8.614Y-6.02
X8.6155Y-2.4682
X8.6254Y-4.6381
X8.6263Y-2.3337
X8.6414Y-2.272
X8.6572Y-8.6847
X8.6601Y-5.1277
X8.6616Y-5.6864
X8.6677Y-5.5784
X8.6694Y-4.0485
X8.6831Y-2.3338
X8.7265Y-7.7858
X8.7763Y-7.3506
X8.78Y-7.8155
X8.8372Y-4.6684
X8.8408Y-5.4269
X8.853Y-8.3146
X8.8627Y-5.7015
X8.8675Y-4.6099
X8.8807Y-4.1365
X8.8894Y-2.2472
X8.8971Y-5.3034
X8.9182Y-3.179
X8.9287Y-6.8577
X8.93Y-3.2586
X8.9785Y-3.453
X8.9799Y-4.4927
X8.9825Y-5.7604
X8.9841Y-1.9928
X9.0067Y-4.9555
X9.011Y-4.7543
X9.0136Y-5.0392
X9.0231Y-1.8176
X9.0536Y-7.727
X9.0797Y-8.2244
X9.0891Y-8.3601
X9.0894Y-6.2557
X9.141Y-1.7878
X9.1843Y-8.428
X9.1997Y-5.8093
X9.1999Y-3.3571
X9.2002Y-4.9255
X9.2113Y-3.7184
X9.23Y-2.2961
X9.2356Y-4.7855
X9.2381Y-2.734
X9.2434Y-2.4715
X9.2512Y-2.6743
X9.2559Y-8.3667
X9.2749Y-7.7427
X9.2807Y-3.2586
X9.283Y-4.7
X9.293Y-7.6725
X9.3114Y-5.7479
X9.3141Y-5.3892
X9.3181Y-6.5727
X9.3335Y-7.701
X9.3553Y-5.93
X9.3831Y-3.6286
X9.4027Y-2.5284
X9.4091Y-2.6224
X9.4095Y-3.3286
X9.4195Y-1.8748
X9.4386Y-2.4566
X9.4409Y-8.1844
X9.4494Y-8.5616
X9.4524Y-5.6001
X9.4524Y-6.2733
X9.4911Y-5.2593
X9.4974Y-3.4582
X9.5263Y-3.6828
X9.5299Y-5.2353
X9.5434Y-5.1594
X9.5487Y-2.5925
X9.5609Y-6.3833
X9.5871Y-1.221
X9.5945Y-5.8389
X9.6088Y-1.5833
X9.6197Y-3.4673
X9.6234Y-6.6164
X9.6236Y-2.4256
X9.6367Y-3.0465
X9.6392Y-3.8649
X9.6548Y-5.7058
X9.6557Y-3.4315
X9.6715Y-6.571
X9.6874Y-6.6509
X9.6965Y-7.5147
X9.7016Y-3.9084
X9.7094Y-1.8298
X9.7597Y-5.1444
X9.7676Y-5.4089
X9.775Y-4.2327
X9.7752Y-6.115
X9.7817Y-1.5322
X9.7926Y-3.2383
X9.8028Y-4.0379
X9.8067Y-8.4343
X9.8213Y-1.5084
X9.8317Y-3.5504
X9.8639Y-3.1071
X9.8821Y-1.4784
X9.93Y-4.9709
X9.9384Y-1.7254
X9.9409Y-2.9878
X9.9509Y-6.1988
X9.9591Y-3.0705
X9.9598Y-6.1594
X9.9619Y-6.7488
X9.9638Y-2.8564
X9.9649Y-4.1768
X9.9667Y-6.6985
X9.9685Y-5.3306
X9.9747Y-1.6203
X9.9889Y-8.5975
X9.9951Y-6.3965
X10.003Y-3.5705
X10.0093Y-5.6383
X10.0103Y-7.1495
X10.0314Y-4.0399
X10.0343Y-5.5818
X10.0411Y-8.2564
X10.0429Y-3.1401
X10.0741Y-2.075
X10.0913Y-5.105
X10.0956Y-1.6918
X10.1089Y-2.0383
X10.1123Y-5.6639
X10.1123Y-6.6004
X10.1134Y-3.7244
X10.1187Y-4.1452
X10.1345Y-8.0391
X10.1562Y-3.3449
X10.1737Y-5.9244
X10.1766Y-1.6739
X10.1823Y-3.1798
X10.1862Y-4.4971
X10.1901Y-3.0333
X10.1953Y-4.6244
X10.1997Y-5.157
X10.2209Y-5.4566
X10.2231Y-8.3707
X10.2362Y-5.6123
X10.2395Y-1.8752
X10.2403Y-1.7472
X10.2544Y-3.0465
X10.2744Y-5.9895
X10.2934Y-7.1146
X10.2968Y-6.7191
X10.2986Y-8.5638
X10.3025Y-8.3722
X10.3066Y-4.0249
X10.3074Y-4.3236
X10.3085Y-4.769
X10.3088Y-5.814
X10.3245Y-8.2955
X10.3282Y-8.1274
X10.3363Y-6.3521
X10.3454Y-5.9991
X10.3461Y-1.4903
X10.3489Y-2.9961
X10.3763Y-6.3728
X10.3797Y-3.2176
X10.382Y-4.9112
X10.3836Y-5.6963
X10.3858Y-4.4244
X10.4011Y-4.6714
X10.4021Y-5.5764
X10.4033Y-8.2024
X10.4195Y-2.9969
X10.4362Y-3.5882
X10.4447Y-3.2442
X10.4791Y-3.403
X10.4888Y-2.91
X10.4989Y-1.7056
X10.5393Y-3.3568
X10.5406Y-5.3305
X10.5493Y-3.139
X10.5547Y-1.6134
X10.5698Y-1.514
X10.5757Y-4.6494
X10.5784Y-7.5837
X10.6062Y-5.3796
X10.6456Y-1.7785
X10.6534Y-5.0024
X10.6712Y-4.9244
X10.6762Y-6.4789
X10.6973Y-4.832
X10.7063Y-1.8112
X10.7065Y-3.9244
X10.723Y-7.4678
X10.7332Y-2.034
X10.7358Y-3.6689
X10.7421Y-2.7247
X10.7496Y-2.9719
X10.7583Y-2.1691
X10.7642Y-1.8112
X10.7936Y-2.9734
X10.7984Y-3.0456
X10.8365Y-2.9738
X10.8381Y-1.7935
X10.8533Y-1.5828
X10.8564Y-6.9518
X10.8838Y-2.0074
X10.8895Y-7.7362
X10.9646Y-1.4253
X10.9653Y-3.3943
X11.0267Y-3.6757
X11.0717Y-1.4901
X11.0837Y-2.5771
X11.0855Y-5.9706
X11.0933Y-6.8332
X11.1622Y-1.4442
X11.2737Y-4.6565
X11.277Y-3.5539
X11.3349Y-7.9879
X11.3463Y-2.8602
X11.3513Y-2.0152
X11.3598Y-2.1007
X11.3609Y-3.4449
X11.3715Y-2.7724
X11.3813Y-5.3701
X11.3901Y-5.1306
X11.3935Y-3.0466
X11.5089Y-2.2476
X11.5143Y-8.7059
X11.5501Y-1.6134
X11.5717Y-1.6741
X11.5738Y-4.3859
X11.6085Y-1.6541
X11.651Y-7.3258
X11.6576Y-1.703
X11.6842Y-3.5253
X11.6978Y-1.7426
X11.7295Y-8.4701
X11.7349Y-1.2978
X11.7495Y-1.7963
X11.755Y-3.1952
X11.7565Y-7.5787
X11.7624Y-1.9079
X11.763Y-6.3241
X11.7635Y-1.3273
X11.7662Y-1.6294
X11.7919Y-6.1802
X11.8039Y-7.7104
X11.8216Y-2.7686
X11.8442Y-3.2644
X11.8601Y-7.0066
X11.8604Y-7.6058
X11.8659Y-3.8865
X11.8724Y-6.2954
X11.8753Y-7.6569
X11.9102Y-5.1939
X11.9264Y-2.8974
X11.9428Y-3.6092
X11.9482Y-7.7429
X11.9618Y-2.0544
X11.9956Y-3.4158
X11.998Y-1.9566
X12.0011Y-3.0821
X12.0039Y-8.2255
X12.0058Y-4.0964
X12.0293Y-1.8104
X12.0547Y-7.3774
X12.0763Y-2.0092
X12.097Y-7.3072
X12.1032Y-2.1136
X12.1132Y-1.8517
X12.1423Y-2.1568
X12.1516Y-3.6999
X12.1529Y-1.839
X12.1643Y-2.069
X12.1661Y-5.555
X12.1661Y-2.3924
X12.1829Y-3.1469
X12.1905Y-4.9235
X12.1961Y-3.7693
X12.2048Y-2.0698
X12.2118Y-2.4186
X12.2148Y-4.4711
X12.218Y-5.025
X12.2298Y-4.5384
X12.2646Y-1.807
X12.2647Y-2.0411
X12.2699Y-4.7982
X12.27Y-2.5211
X12.2804Y-1.7676
X12.2808Y-4.4073
X12.2809Y-5.0305
X12.2814Y-4.0559
X12.3042Y-3.3951
X12.3179Y-1.9986
X12.3302Y-8.689
X12.3595Y-2.209
X12.363Y-2.0904
X12.3932Y-2.5904
X12.3967Y-5.6988
X12.4025Y-3.5424
X12.4518Y-5.3798
X12.4527Y-5.7898
X12.4527Y-5.8582
X12.4738Y-3.2917
X12.4821Y-2.1799
X12.4838Y-5.8974
X12.4998Y-1.5274
X12.5026Y-8.116
X12.5049Y-2.0066
X12.508Y-5.4431
X12.516Y-6.4933
X12.5162Y-8.3139
X12.5223Y-2.2724
X12.5267Y-7.1644
X12.5486Y-1.9459
X12.5507Y-3.293
X12.5662Y-6.227
X12.5737Y-6.5222
X12.5875Y-7.312
X12.6021Y-6.0094
X12.6031Y-5.8044
X12.6389Y-1.5529
X12.6436Y-7.0598
X12.6584Y-3.7292
X12.6701Y-1.5217
X12.6756Y-2.5278
X12.6763Y-1.7342
X12.7016Y-7.0285
X12.7428Y-1.9931
X12.7449Y-6.9693
X12.7488Y-1.505
X12.7748Y-6.1373
X12.7828Y-6.6298
X12.8034Y-1.7538
X12.8191Y-1.5054
X12.8455Y-1.561
X12.8695Y-5.1693
X12.8777Y-1.4907
X12.9053Y-2.8245
X12.9122Y-5.4586
X12.9127Y-2.9851
X12.9139Y-6.3325
X12.9154Y-7.4934
X12.9333Y-5.2681
X12.9459Y-2.4247
X12.9489Y-1.5201
X12.9569Y-2.6122
X12.9769Y-5.23
X12.9989Y-2.431
X13.0003Y-5.3981
X13.0266Y-5.2284
X13.0418Y-1.7294
X13.059Y-1.5536
X13.0937Y-2.4532
X13.1405Y-5.7069
X13.1619Y-1.6068
X13.1624Y-5.2549
X13.1717Y-5.4608
X13.2013Y-1.612
X13.2052Y-2.9562
X13.209Y-5.6022
X13.2096Y-1.7032
X13.2189Y-2.6337
X13.2261Y-3.2556
X13.227Y-3.07
X13.2281Y-1.6659
X13.2288Y-6.2294
X13.2465Y-4.7297
X13.2489Y-1.627
X13.2588Y-5.645
X13.2603Y-4.4752
X13.2604Y-4.5752
X13.2642Y-1.911
X13.2812Y-8.2826
X13.2873Y-7.6169
X13.3227Y-1.7716
X13.3358Y-8.059
X13.34Y-2.4841
X13.3477Y-2.6383
X13.3489Y-2.5872
X13.3499Y-1.7431
X13.3516Y-2.3316
X13.3549Y-3.6175
X13.358Y-7.356
X13.3935Y-2.4966
X13.3997Y-5.7979
X13.409Y-5.9118
X13.4195Y-2.4318
X13.4241Y-6.4244
X13.4241Y-6.5164
X13.4269Y-2.2967
X13.4274Y-6.6058
X13.4274Y-6.6792
X13.4287Y-6.3494
X13.4397Y-5.1284
X13.4435Y-4.6308
X13.4544Y-2.9636
X13.4598Y-5.2103
X13.4625Y-2.704
X13.4633Y-2.4624
X13.4661Y-5.0002
X13.4682Y-3.1158
X13.4692Y-5.0752
X13.4781Y-2.6491
X13.5077Y-3.545
X13.54Y-2.0886
X13.5558Y-2.6073
X13.5593Y-4.3886
X13.5813Y-6.9037
X13.5856Y-2.6737
X13.5888Y-2.3123
X13.6369Y-1.5045
X13.6437Y-1.9922
X13.6468Y-1.5447
X13.648Y-4.6955
X13.6622Y-3.3273
X13.6708Y-3.7252
X13.6811Y-6.4879
X13.684Y-1.6628
X13.6859Y-6.9693
X13.687Y-7.1271
X13.7161Y-1.5852
X13.7658Y-7.9689
X13.7673Y-4.8231
X13.7825Y-3.0008
X13.7838Y-3.2137
X13.7843Y-3.2808
X13.8169Y-5.7857
X13.823Y-3.3734
X13.8236Y-1.882
X13.8257Y-5.6739
X13.8346Y-6.7708
X13.8394Y-1.5276
X13.8412Y-4.5252
X13.8666Y-1.8654
X13.8866Y-1.589
X13.9017Y-2.4821
X13.9195Y-5.5459
X13.9329Y-1.8885
X13.9464Y-2.4067
X13.979Y-1.6325
X13.9884Y-4.9067
X13.9987Y-5.5304
X14.0191Y-1.4893
X14.0824Y-4.5532
X14.09Y-1.7927
X14.0905Y-1.8561
X14.0999Y-5.3594
X14.1037Y-5.3157
X14.1396Y-2.5186
X14.1627Y-5.5496
X14.1761Y-1.6653
X14.1782Y-2.6835
X14.183Y-2.5228
X14.1854Y-3.0746
X14.2023Y-1.6949
X14.2029Y-1.6364
X14.2181Y-1.7825
X14.2255Y-2.4229
X14.2282Y-1.5057
X14.2309Y-1.9815
X14.2654Y-2.3465
X14.266Y-3.6706
X14.2701Y-3.3517
X14.2714Y-1.9794
X14.2752Y-2.7174
X14.2947Y-1.7421
X14.3192Y-4.9241
X14.3649Y-2.5622
X14.369Y-7.5068
X14.428Y-1.4965
X14.4378Y-2.4958
X14.4684Y-2.602
X14.4726Y-6.8024
X14.5048Y-2.958
X14.5114Y-3.9908
X14.516Y-2.915
X14.5404Y-7.258
X14.5543Y-2.0099
X14.5687Y-3.4246
X14.5813Y-3.1313
X14.5983Y-1.5251
X14.6431Y-2.7782
X14.6831Y-2.7729
T2
X2.45Y-5.3
X2.5Y-5.25
X2.55Y-5.3
X2.9Y-3.975
X2.95Y-3.925
X3.0Y-3.975
X3.175Y-3.9705
X3.225Y-3.9205
X3.275Y-3.9705
X5.0Y-5.9705
X5.025Y-4.7955
X5.025Y-5.175
X5.025Y-5.5705
X5.05Y-5.9205
X5.075Y-4.7455
X5.075Y-5.125
X5.075Y-5.5205
X5.1Y-5.9705
X5.125Y-4.7955
X5.125Y-5.175
X5.125Y-5.5705
X9.225Y-6.2705
X9.275Y-6.2205
X9.325Y-6.2705
X11.5276Y-3.1063
X11.5776Y-3.0563
X11.6276Y-3.1063
T3
X1.3Y-6.975
X1.45Y-2.65
X1.4545Y-2.1024
X1.475Y-3.15
X1.5016Y-2.475
X1.5333Y-2.1024
X1.575Y-1.525
X1.6Y-6.975
X1.6984Y-2.475
X1.75Y-2.65
X1.775Y-3.15
X1.875Y-1.525
X1.9Y-3.15
X1.9016Y-2.9
X1.9205Y-7.7835
X1.95Y-7.175
X1.95Y-7.475
X1.9504Y-1.7746
X1.9504Y-1.8746
X1.9504Y-1.9746
X1.9504Y-2.0746
X1.9504Y-2.1746
X1.9504Y-2.2746
X1.9504Y-2.3746
X1.9504Y-2.4746
X1.9766Y-2.65
X2.0016Y-1.525
X2.0016Y-6.775
X2.0969Y-3.15
X2.0984Y-2.9
X2.1734Y-2.65
X2.1984Y-1.525
X2.1984Y-6.775
X2.2205Y-7.7835
X2.25Y-7.175
X2.25Y-7.475
X2.2504Y-1.7746
X2.2504Y-1.8746
X2.2504Y-1.9746
X2.2504Y-2.0746
X2.2504Y-2.1746
X2.2504Y-2.2746
X2.2504Y-2.3746
X2.2504Y-2.4746
X2.325Y-5.525
X2.325Y-5.7
X2.325Y-5.875
X2.325Y-6.05
X2.325Y-6.225
X2.325Y-6.4
X2.35Y-3.025
X2.35Y-3.775
X2.35Y-3.975
X2.35Y-4.175
X2.35Y-4.375
X2.35Y-4.925
X2.3504Y-3.2746
X2.3504Y-3.3746
X2.3504Y-3.4746
X2.3766Y-6.575
X2.4016Y-4.575
X2.4016Y-4.75
X2.5039Y-6.9606
X2.5039Y-7.0606
X2.5039Y-7.1606
X2.5039Y-7.2606
X2.5039Y-7.3606
X2.5039Y-7.4606
X2.5039Y-7.5606
X2.5039Y-7.6606
X2.5039Y-7.7606
X2.5039Y-7.8606
X2.5039Y-7.9606
X2.5039Y-8.0606
X2.5039Y-8.1606
X2.5039Y-8.2606
X2.5039Y-8.3606
X2.5039Y-8.4606
X2.5734Y-6.575
X2.5984Y-4.575
X2.5984Y-4.75
X2.625Y-5.525
X2.625Y-5.7
X2.625Y-5.875
X2.625Y-6.05
X2.625Y-6.225
X2.625Y-6.4
X2.65Y-3.025
X2.65Y-3.775
X2.65Y-3.975
X2.65Y-4.175
X2.65Y-4.375
X2.65Y-4.925
X2.6504Y-3.2746
X2.6504Y-3.3746
X2.6504Y-3.4746
X2.725Y-2.2
X2.8047Y-2.622
X2.875Y-3.025
X2.8754Y-3.2746
X2.8754Y-3.3746
X2.8754Y-3.4746
X2.9031Y-2.622
X2.925Y-4.2
X2.925Y-5.875
X2.925Y-6.075
X2.925Y-6.25
X2.925Y-6.45
X2.9266Y-4.375
X2.9266Y-4.575
X2.9266Y-4.75
X2.95Y-5.325
X2.95Y-5.525
X2.9766Y-5.7
X3.0016Y-5.15
X3.025Y-2.2
X3.1039Y-6.9606
X3.1039Y-7.0606
X3.1039Y-7.1606
X3.1039Y-7.2606
X3.1039Y-7.3606
X3.1039Y-7.4606
X3.1039Y-7.5606
X3.1039Y-7.6606
X3.1039Y-7.7606
X3.1039Y-7.8606
X3.1039Y-7.9606
X3.1039Y-8.0606
X3.1039Y-8.1606
X3.1039Y-8.2606
X3.1039Y-8.3606
X3.1039Y-8.4606
X3.1219Y-4.2
X3.1234Y-4.375
X3.1234Y-4.575
X3.1234Y-4.75
X3.1734Y-5.7
X3.175Y-3.025
X3.1754Y-3.2746
X3.1754Y-3.3746
X3.1754Y-3.4746
X3.1984Y-5.15
X3.225Y-5.875
X3.225Y-6.075
X3.225Y-6.25
X3.225Y-6.45
X3.25Y-5.325
X3.25Y-5.525
X3.275Y-1.3
X3.275Y-1.475
X3.275Y-1.65
X3.275Y-1.825
X3.275Y-2.0
X3.275Y-2.2
X3.3516Y-4.575
X3.5285Y-7.377
X3.5285Y-7.477
X3.5285Y-7.577
X3.5285Y-7.677
X3.5285Y-7.777
X3.5285Y-7.877
X3.5285Y-7.977
X3.5285Y-8.077
X3.5484Y-4.575
X3.5516Y-4.125
X3.5516Y-4.375
X3.575Y-1.3
X3.575Y-1.475
X3.575Y-1.65
X3.575Y-1.825
X3.575Y-2.0
X3.575Y-2.2
X3.6031Y-3.925
X3.6033Y-7.0699
X3.7417Y-6.5787
X3.8Y-3.925
X3.8002Y-7.0699
X3.8285Y-7.377
X3.8285Y-7.477
X3.8285Y-7.577
X3.8285Y-7.677
X3.8285Y-7.777
X3.8285Y-7.877
X3.8285Y-7.977
X3.8285Y-8.077
X3.8401Y-6.5787
X3.85Y-1.3
X3.85Y-1.475
X3.85Y-1.65
X3.85Y-1.825
X3.85Y-2.0
X3.85Y-2.2
X3.8516Y-4.125
X3.8516Y-4.375
X3.9531Y-6.1
X3.9563Y-4.75
X3.9563Y-4.9
X3.9563Y-5.075
X3.9563Y-5.25
X3.9563Y-5.425
X3.9563Y-5.6
X3.9563Y-5.75
X3.9563Y-5.925
X4.0469Y-1.3
X4.0469Y-1.475
X4.0469Y-1.65
X4.0469Y-1.825
X4.0469Y-2.0
X4.0469Y-2.2
X4.0766Y-4.125
X4.1016Y-4.375
X4.15Y-6.1
X4.1531Y-4.75
X4.1531Y-4.9
X4.1531Y-5.075
X4.1531Y-5.25
X4.1531Y-5.425
X4.1531Y-5.6
X4.1531Y-5.75
X4.1531Y-5.925
X4.1787Y-8.311
X4.1969Y-6.7756
X4.2787Y-8.311
X4.2984Y-4.375
X4.3Y-3.075
X4.3Y-3.5
X4.3Y-3.85
X4.325Y-1.575
X4.325Y-1.825
X4.325Y-2.075
X4.3516Y-3.25
X4.3516Y-3.675
X4.3766Y-4.125
X4.3787Y-8.311
X4.3937Y-6.7756
X4.45Y-4.725
X4.45Y-4.9
X4.45Y-5.075
X4.45Y-5.25
X4.45Y-5.425
X4.45Y-5.6
X4.45Y-5.775
X4.45Y-5.95
X4.45Y-6.15
X4.45Y-6.35
X4.4787Y-8.311
X4.5232Y-6.7756
X4.5484Y-3.25
X4.5484Y-3.675
X4.5787Y-8.311
X4.598Y-7.5809
X4.598Y-7.7559
X4.6Y-3.075
X4.6Y-3.5
X4.6Y-3.85
X4.625Y-1.575
X4.625Y-1.825
X4.625Y-2.075
X4.6787Y-8.311
X4.75Y-4.725
X4.75Y-4.9
X4.75Y-5.075
X4.75Y-5.25
X4.75Y-5.425
X4.75Y-5.6
X4.75Y-5.775
X4.75Y-5.95
X4.75Y-6.15
X4.75Y-6.35
X4.7787Y-8.311
X4.8232Y-6.7756
X4.85Y-3.075
X4.85Y-3.25
X4.85Y-4.275
X4.85Y-4.45
X4.8504Y-3.5254
X4.8504Y-3.6254
X4.8504Y-3.7254
X4.8504Y-3.8254
X4.8787Y-8.311
X4.898Y-7.5809
X4.898Y-7.7559
X4.9Y-1.575
X4.9Y-1.825
X4.9Y-2.075
X4.9016Y-2.9
X4.9016Y-4.1
X4.9787Y-8.311
X5.0232Y-6.3268
X5.0787Y-8.311
X5.0984Y-2.9
X5.0984Y-4.1
X5.15Y-3.075
X5.15Y-3.25
X5.15Y-4.275
X5.15Y-4.45
X5.1504Y-3.5254
X5.1504Y-3.6254
X5.1504Y-3.7254
X5.1504Y-3.8254
X5.1996Y-7.2809
X5.1996Y-7.5809
X5.2Y-1.575
X5.2Y-1.825
X5.2Y-2.075
X5.3232Y-6.3268
X5.3325Y-7.9028
X5.3325Y-8.0028
X5.3325Y-8.1028
X5.3325Y-8.2028
X5.3325Y-8.3028
X5.3965Y-7.2809
X5.3965Y-7.5809
X5.45Y-1.575
X5.45Y-1.75
X5.45Y-1.925
X5.45Y-2.1
X5.475Y-3.725
X5.475Y-3.825
X5.475Y-3.925
X5.475Y-4.025
X5.475Y-4.125
X5.475Y-4.225
X5.475Y-4.325
X5.475Y-4.425
X5.475Y-4.525
X5.475Y-4.625
X5.475Y-4.725
X5.475Y-4.825
X5.475Y-4.925
X5.475Y-5.025
X5.475Y-5.125
X5.475Y-5.225
X5.475Y-5.325
X5.475Y-5.425
X5.475Y-5.525
X5.475Y-5.625
X5.625Y-3.275
X5.6325Y-7.9028
X5.6325Y-8.0028
X5.6325Y-8.1028
X5.6325Y-8.2028
X5.6325Y-8.3028
X5.6766Y-3.45
X5.6766Y-5.925
X5.6766Y-6.025
X5.6766Y-6.125
X5.6766Y-6.225
X5.6766Y-6.325
X5.6766Y-6.425
X5.6766Y-6.525
X5.6766Y-6.625
X5.7273Y-7.4309
X5.7281Y-6.825
X5.75Y-1.575
X5.75Y-1.75
X5.75Y-1.925
X5.75Y-2.1
X5.8257Y-7.4309
X5.8734Y-3.45
X5.925Y-3.275
X5.925Y-6.825
X5.9323Y-7.7776
X5.9323Y-7.9776
X5.9323Y-8.1526
X5.9323Y-8.3276
X5.9323Y-8.5276
X5.9766Y-5.925
X5.9766Y-6.025
X5.9766Y-6.125
X5.9766Y-6.225
X5.9766Y-6.325
X5.9766Y-6.425
X5.9766Y-6.525
X5.9766Y-6.625
X6.075Y-3.725
X6.075Y-3.825
X6.075Y-3.925
X6.075Y-4.025
X6.075Y-4.125
X6.075Y-4.225
X6.075Y-4.325
X6.075Y-4.425
X6.075Y-4.525
X6.075Y-4.625
X6.075Y-4.725
X6.075Y-4.825
X6.075Y-4.925
X6.075Y-5.025
X6.075Y-5.125
X6.075Y-5.225
X6.075Y-5.325
X6.075Y-5.425
X6.075Y-5.525
X6.075Y-5.625
X6.2323Y-7.7776
X6.2323Y-7.9776
X6.2323Y-8.1526
X6.2323Y-8.3276
X6.2323Y-8.5276
X6.25Y-1.8748
X6.25Y-1.9748
X6.25Y-2.0748
X6.25Y-2.1748
X6.25Y-2.2748
X6.25Y-2.3748
X6.25Y-2.4748
X6.25Y-2.5748
X6.25Y-2.6748
X6.25Y-2.7748
X6.2543Y-6.1
X6.3016Y-1.675
X6.325Y-5.025
X6.325Y-5.325
X6.35Y-3.7
X6.35Y-4.0
X6.3527Y-6.1
X6.4984Y-1.675
X6.55Y-1.8748
X6.55Y-1.9748
X6.55Y-2.0748
X6.55Y-2.1748
X6.55Y-2.2748
X6.55Y-2.3748
X6.55Y-2.4748
X6.55Y-2.5748
X6.55Y-2.6748
X6.55Y-2.7748
X6.65Y-3.4
X6.65Y-4.1
X6.65Y-4.4
X6.65Y-4.7
X6.7016Y-3.7
X6.7016Y-3.9
X6.7016Y-5.6
X6.7016Y-5.9
X6.7016Y-6.2
X6.7386Y-7.8791
X6.7386Y-7.9791
X6.7386Y-8.0791
X6.7386Y-8.1791
X6.7386Y-8.2791
X6.7386Y-8.3791
X6.7386Y-8.4791
X6.7386Y-8.5791
X6.7535Y-7.0669
X6.7543Y-5.175
X6.7913Y-7.6772
X6.8519Y-7.0669
X6.8527Y-5.175
X6.8984Y-3.7
X6.8984Y-3.9
X6.8984Y-5.6
X6.8984Y-5.9
X6.8984Y-6.2
X6.9157Y-1.8748
X6.9157Y-1.9748
X6.9157Y-2.0748
X6.9157Y-2.1748
X6.9157Y-2.2748
X6.9157Y-2.3748
X6.9157Y-2.4748
X6.9157Y-2.5748
X6.9157Y-2.6748
X6.9157Y-2.7748
X6.95Y-3.4
X6.95Y-4.1
X6.95Y-4.4
X6.95Y-4.7
X6.975Y-1.675
X6.9882Y-7.6772
X7.0386Y-7.8791
X7.0386Y-7.9791
X7.0386Y-8.0791
X7.0386Y-8.1791
X7.0386Y-8.2791
X7.0386Y-8.3791
X7.0386Y-8.4791
X7.0386Y-8.5791
X7.1719Y-1.675
X7.2Y-5.0
X7.2Y-5.3
X7.2Y-5.6
X7.2Y-5.9
X7.2Y-6.2
X7.2Y-6.5
X7.2004Y-3.7502
X7.2004Y-3.8502
X7.2004Y-3.9502
X7.2004Y-4.0502
X7.2004Y-4.1502
X7.2004Y-4.2502
X7.2004Y-4.3502
X7.2004Y-4.4502
X7.2004Y-4.5502
X7.2004Y-4.6502
X7.2157Y-1.8748
X7.2157Y-1.9748
X7.2157Y-2.0748
X7.2157Y-2.1748
X7.2157Y-2.2748
X7.2157Y-2.3748
X7.2157Y-2.4748
X7.2157Y-2.5748
X7.2157Y-2.6748
X7.2157Y-2.7748
X7.25Y-3.4
X7.2516Y-6.7
X7.389Y-7.8791
X7.389Y-7.9791
X7.389Y-8.0791
X7.389Y-8.1791
X7.389Y-8.2791
X7.389Y-8.3791
X7.389Y-8.4791
X7.4148Y-7.4272
X7.4421Y-3.4
X7.4484Y-6.7
X7.4648Y-7.6772
X7.5Y-5.0
X7.5Y-5.3
X7.5Y-5.6
X7.5Y-5.9
X7.5Y-6.2
X7.5Y-6.5
X7.5004Y-3.7502
X7.5004Y-3.8502
X7.5004Y-3.9502
X7.5004Y-4.0502
X7.5004Y-4.1502
X7.5004Y-4.2502
X7.5004Y-4.3502
X7.5004Y-4.4502
X7.5004Y-4.5502
X7.5004Y-4.6502
X7.5814Y-1.8748
X7.5814Y-1.9748
X7.5814Y-2.0748
X7.5814Y-2.1748
X7.5814Y-2.2748
X7.5814Y-2.3748
X7.5814Y-2.4748
X7.5814Y-2.5748
X7.5814Y-2.6748
X7.5814Y-2.7748
X7.6266Y-1.675
X7.6616Y-7.6772
X7.689Y-7.8791
X7.689Y-7.9791
X7.689Y-8.0791
X7.689Y-8.1791
X7.689Y-8.2791
X7.689Y-8.3791
X7.689Y-8.4791
X7.7148Y-7.4272
X7.75Y-3.4
X7.7531Y-3.1
X7.8234Y-1.675
X7.85Y-3.7
X7.85Y-3.8
X7.85Y-3.9
X7.85Y-4.0
X7.85Y-4.1
X7.85Y-4.2
X7.85Y-4.3
X7.85Y-4.4
X7.85Y-4.5
X7.85Y-4.6
X7.85Y-4.7
X7.85Y-4.8
X7.85Y-4.9
X7.85Y-5.0
X7.85Y-5.1
X7.85Y-5.2
X7.85Y-5.3
X7.85Y-5.4
X7.85Y-5.5
X7.85Y-5.6
X7.85Y-5.7
X7.85Y-5.8
X7.85Y-5.9
X7.85Y-6.0
X7.85Y-6.1
X7.85Y-6.2
X7.85Y-6.3
X7.85Y-6.4
X7.85Y-6.5
X7.85Y-6.6
X7.85Y-6.7
X7.85Y-6.8
X7.8814Y-1.8748
X7.8814Y-1.9748
X7.8814Y-2.0748
X7.8814Y-2.1748
X7.8814Y-2.2748
X7.8814Y-2.3748
X7.8814Y-2.4748
X7.8814Y-2.5748
X7.8814Y-2.6748
X7.8814Y-2.7748
X7.95Y-3.1
X8.0394Y-7.8791
X8.0394Y-7.9791
X8.0394Y-8.0791
X8.0394Y-8.1791
X8.0394Y-8.2791
X8.0394Y-8.3791
X8.0394Y-8.4791
X8.0394Y-8.5791
X8.05Y-3.4
X8.0898Y-7.4022
X8.0913Y-7.6772
X8.2005Y-2.3465
X8.2005Y-2.4465
X8.2005Y-2.5465
X8.2005Y-2.6465
X8.2005Y-2.7465
X8.2005Y-2.8465
X8.2005Y-2.9465
X8.255Y-2.1467
X8.2866Y-7.4022
X8.2882Y-7.6772
X8.3Y-3.4
X8.3394Y-7.8791
X8.3394Y-7.9791
X8.3394Y-8.0791
X8.3394Y-8.1791
X8.3394Y-8.2791
X8.3394Y-8.3791
X8.3394Y-8.4791
X8.3394Y-8.5791
X8.4519Y-2.1467
X8.5005Y-2.3465
X8.5005Y-2.4465
X8.5005Y-2.5465
X8.5005Y-2.6465
X8.5005Y-2.7465
X8.5005Y-2.8465
X8.5005Y-2.9465
X8.6Y-3.4
X8.6648Y-7.4272
X8.6898Y-7.8791
X8.6898Y-7.9791
X8.6898Y-8.0791
X8.6898Y-8.1791
X8.6898Y-8.2791
X8.6898Y-8.3791
X8.6898Y-8.4791
X8.7163Y-7.6772
X8.75Y-3.7
X8.75Y-3.8
X8.75Y-3.9
X8.75Y-4.0
X8.75Y-4.1
X8.75Y-4.2
X8.75Y-4.3
X8.75Y-4.4
X8.75Y-4.5
X8.75Y-4.6
X8.75Y-4.7
X8.75Y-4.8
X8.75Y-4.9
X8.75Y-5.0
X8.75Y-5.1
X8.75Y-5.2
X8.75Y-5.3
X8.75Y-5.4
X8.75Y-5.5
X8.75Y-5.6
X8.75Y-5.7
X8.75Y-5.8
X8.75Y-5.9
X8.75Y-6.0
X8.75Y-6.1
X8.75Y-6.2
X8.75Y-6.3
X8.75Y-6.4
X8.75Y-6.5
X8.75Y-6.6
X8.75Y-6.7
X8.75Y-6.8
X8.8Y-3.4
X8.8661Y-2.3465
X8.8661Y-2.4465
X8.8661Y-2.5465
X8.8661Y-2.6465
X8.8661Y-2.7465
X8.8661Y-2.8465
X8.8661Y-2.9465
X8.8661Y-3.0465
X8.9132Y-7.6772
X8.93Y-2.1467
X8.9648Y-7.4272
X8.9898Y-7.8791
X8.9898Y-7.9791
X8.9898Y-8.0791
X8.9898Y-8.1791
X8.9898Y-8.2791
X8.9898Y-8.3791
X8.9898Y-8.4791
X9.1Y-3.4
X9.1004Y-3.6998
X9.1004Y-3.7998
X9.1004Y-3.8998
X9.1004Y-3.9998
X9.1004Y-4.0998
X9.1004Y-4.1998
X9.1004Y-4.2998
X9.1004Y-4.7998
X9.1004Y-4.8998
X9.1004Y-4.9998
X9.1004Y-5.0998
X9.1004Y-5.1998
X9.1004Y-5.2998
X9.1004Y-5.3998
X9.125Y-5.925
X9.125Y-6.55
X9.1269Y-2.1467
X9.1648Y-7.4272
X9.1661Y-2.3465
X9.1661Y-2.4465
X9.1661Y-2.5465
X9.1661Y-2.6465
X9.1661Y-2.7465
X9.1661Y-2.8465
X9.1661Y-2.9465
X9.1661Y-3.0465
X9.175Y-5.6
X9.1766Y-4.5
X9.3453Y-7.8844
X9.3453Y-7.9844
X9.3453Y-8.0844
X9.3453Y-8.1844
X9.3453Y-8.2844
X9.3453Y-8.3844
X9.3453Y-8.4844
X9.3719Y-5.6
X9.3734Y-4.5
X9.4004Y-3.6998
X9.4004Y-3.7998
X9.4004Y-3.8998
X9.4004Y-3.9998
X9.4004Y-4.0998
X9.4004Y-4.1998
X9.4004Y-4.2998
X9.4004Y-4.7998
X9.4004Y-4.8998
X9.4004Y-4.9998
X9.4004Y-5.0998
X9.4004Y-5.1998
X9.4004Y-5.2998
X9.4004Y-5.3998
X9.4163Y-7.6772
X9.425Y-5.925
X9.425Y-6.55
X9.4648Y-7.4272
X9.4936Y-3.315
X9.5784Y-1.8748
X9.5784Y-1.9748
X9.5784Y-2.0748
X9.5784Y-2.1748
X9.5784Y-2.2748
X9.5784Y-2.3748
X9.5784Y-2.4748
X9.5921Y-3.315
X9.6132Y-7.6772
X9.6453Y-7.8844
X9.6453Y-7.9844
X9.6453Y-8.0844
X9.6453Y-8.1844
X9.6453Y-8.2844
X9.6453Y-8.3844
X9.6453Y-8.4844
X9.6516Y-1.675
X9.8484Y-1.675
X9.8748Y-3.7244
X9.8748Y-3.8244
X9.8748Y-3.9244
X9.8748Y-4.0244
X9.8748Y-4.1244
X9.8748Y-4.2244
X9.8748Y-4.3244
X9.8748Y-4.4244
X9.8748Y-4.5244
X9.8748Y-4.6244
X9.8748Y-4.7244
X9.8748Y-4.8244
X9.8748Y-4.9244
X9.8748Y-5.0244
X9.8748Y-5.5244
X9.8748Y-5.6244
X9.8748Y-5.7244
X9.8748Y-5.8244
X9.8748Y-5.9244
X9.8748Y-6.0244
X9.8748Y-6.1244
X9.8748Y-6.2244
X9.8748Y-6.3244
X9.8748Y-6.4244
X9.8748Y-6.5244
X9.8748Y-6.6244
X9.8748Y-6.7244
X9.8748Y-6.8244
X9.8784Y-1.8748
X9.8784Y-1.9748
X9.8784Y-2.0748
X9.8784Y-2.1748
X9.8784Y-2.2748
X9.8784Y-2.3748
X9.8784Y-2.4748
X10.0148Y-7.2772
X10.0148Y-7.9522
X10.075Y-7.025
X10.0766Y-5.225
X10.0791Y-8.4041
X10.1775Y-8.4041
X10.2614Y-2.1604
X10.2614Y-2.2604
X10.2614Y-2.3604
X10.2614Y-2.4604
X10.2614Y-2.5604
X10.2614Y-2.6604
X10.2614Y-2.7604
X10.2719Y-7.025
X10.2734Y-5.225
X10.3148Y-7.2772
X10.3148Y-7.9522
X10.3189Y-1.9606
X10.4748Y-3.7244
X10.4748Y-3.8244
X10.4748Y-3.9244
X10.4748Y-4.0244
X10.4748Y-4.1244
X10.4748Y-4.2244
X10.4748Y-4.3244
X10.4748Y-4.4244
X10.4748Y-4.5244
X10.4748Y-4.6244
X10.4748Y-4.7244
X10.4748Y-4.8244
X10.4748Y-4.9244
X10.4748Y-5.0244
X10.4748Y-5.5244
X10.4748Y-5.6244
X10.4748Y-5.7244
X10.4748Y-5.8244
X10.4748Y-5.9244
X10.4748Y-6.0244
X10.4748Y-6.1244
X10.4748Y-6.2244
X10.4748Y-6.3244
X10.4748Y-6.4244
X10.4748Y-6.5244
X10.4748Y-6.6244
X10.4748Y-6.7244
X10.4748Y-6.8244
X10.5035Y-7.174
X10.5035Y-7.374
X10.5157Y-1.9606
X10.5614Y-2.1604
X10.5614Y-2.2604
X10.5614Y-2.3604
X10.5614Y-2.4604
X10.5614Y-2.5604
X10.5614Y-2.6604
X10.5614Y-2.7604
X10.6157Y-3.1299
X10.6388Y-7.8476
X10.6388Y-7.9476
X10.6388Y-8.0476
X10.6388Y-8.1476
X10.6388Y-8.2476
X10.6388Y-8.3476
X10.6388Y-8.4476
X10.6388Y-8.5476
X10.7141Y-3.1299
X10.748Y-7.5787
X10.7998Y-3.7244
X10.7998Y-3.8244
X10.7998Y-3.9244
X10.7998Y-4.0244
X10.7998Y-4.1244
X10.7998Y-4.2244
X10.7998Y-4.3244
X10.7998Y-4.4244
X10.7998Y-4.5244
X10.7998Y-4.6244
X10.7998Y-4.7244
X10.7998Y-4.8244
X10.7998Y-4.9244
X10.7998Y-5.0244
X10.8Y-5.525
X10.8Y-5.625
X10.8Y-5.725
X10.8Y-5.825
X10.8Y-5.925
X10.8Y-6.025
X10.8Y-6.125
X10.8Y-6.225
X10.8Y-6.325
X10.8Y-6.425
X10.8Y-6.525
X10.8Y-6.625
X10.8Y-6.725
X10.8Y-6.825
X10.8035Y-7.174
X10.8035Y-7.374
X10.927Y-2.1604
X10.927Y-2.2604
X10.927Y-2.3604
X10.927Y-2.4604
X10.927Y-2.5604
X10.927Y-2.6604
X10.927Y-2.7604
X10.9388Y-7.8476
X10.9388Y-7.9476
X10.9388Y-8.0476
X10.9388Y-8.1476
X10.9388Y-8.2476
X10.9388Y-8.3476
X10.9388Y-8.4476
X10.9388Y-8.5476
X10.9449Y-7.5787
X10.9689Y-1.9606
X11.0016Y-5.225
X11.0266Y-7.025
X11.0311Y-3.1142
X11.1457Y-7.8504
X11.1457Y-7.9504
X11.1457Y-8.0504
X11.1457Y-8.1504
X11.1457Y-8.2504
X11.1457Y-8.3504
X11.1457Y-8.4504
X11.1457Y-8.5504
X11.1657Y-1.9606
X11.1984Y-5.225
X11.2234Y-7.025
X11.227Y-2.1604
X11.227Y-2.2604
X11.227Y-2.3604
X11.227Y-2.4604
X11.227Y-2.5604
X11.227Y-2.6604
X11.227Y-2.7604
X11.3311Y-3.1142
X11.3858Y-7.1811
X11.3998Y-3.7244
X11.3998Y-3.8244
X11.3998Y-3.9244
X11.3998Y-4.0244
X11.3998Y-4.1244
X11.3998Y-4.2244
X11.3998Y-4.3244
X11.3998Y-4.4244
X11.3998Y-4.5244
X11.3998Y-4.6244
X11.3998Y-4.7244
X11.3998Y-4.8244
X11.3998Y-4.9244
X11.3998Y-5.0244
X11.4Y-5.525
X11.4Y-5.625
X11.4Y-5.725
X11.4Y-5.825
X11.4Y-5.925
X11.4Y-6.025
X11.4Y-6.125
X11.4Y-6.225
X11.4Y-6.325
X11.4Y-6.425
X11.4Y-6.525
X11.4Y-6.625
X11.4Y-6.725
X11.4Y-6.825
X11.4173Y-1.748
X11.4374Y-7.3811
X11.4457Y-7.8504
X11.4457Y-7.9504
X11.4457Y-8.0504
X11.4457Y-8.1504
X11.4457Y-8.2504
X11.4457Y-8.3504
X11.4457Y-8.4504
X11.4457Y-8.5504
X11.4693Y-3.4449
X11.5157Y-1.748
X11.5512Y-1.3543
X11.5927Y-2.1604
X11.5927Y-2.2604
X11.5927Y-2.3604
X11.5927Y-2.4604
X11.5927Y-2.5604
X11.5927Y-2.6604
X11.5927Y-2.7604
X11.6299Y-7.8543
X11.6299Y-7.9543
X11.6299Y-8.0543
X11.6299Y-8.1543
X11.6299Y-8.2543
X11.6299Y-8.3543
X11.6299Y-8.4543
X11.6299Y-8.5543
X11.6343Y-7.3811
X11.6439Y-1.9606
X11.6535Y-3.7598
X11.6858Y-7.1811
X11.7141Y-4.9055
X11.752Y-6.1177
X11.752Y-6.4177
X11.7559Y-5.5272
X11.7559Y-5.8272
X11.8124Y-7.1811
X11.8125Y-4.9055
X11.8382Y-7.4528
X11.8407Y-1.9606
X11.8504Y-3.7598
X11.8512Y-1.3543
X11.8693Y-3.4449
X11.8736Y-3.0079
X11.8927Y-2.1604
X11.8927Y-2.2604
X11.8927Y-2.3604
X11.8927Y-2.4604
X11.8927Y-2.5604
X11.8927Y-2.6604
X11.8927Y-2.7604
X11.9299Y-7.8543
X11.9299Y-7.9543
X11.9299Y-8.0543
X11.9299Y-8.1543
X11.9299Y-8.2543
X11.9299Y-8.3543
X11.9299Y-8.4543
X11.9299Y-8.5543
X12.0093Y-7.1811
X12.0587Y-3.3622
X12.075Y-4.925
X12.075Y-5.025
X12.075Y-5.125
X12.075Y-5.225
X12.075Y-5.325
X12.075Y-5.425
X12.075Y-5.525
X12.075Y-5.625
X12.075Y-5.725
X12.075Y-5.825
X12.075Y-5.925
X12.075Y-6.025
X12.075Y-6.125
X12.075Y-6.225
X12.075Y-6.325
X12.075Y-6.425
X12.075Y-6.525
X12.075Y-6.625
X12.075Y-6.725
X12.075Y-6.825
X12.1004Y-3.8248
X12.1004Y-3.9248
X12.1004Y-4.0248
X12.1004Y-4.1248
X12.1004Y-4.2248
X12.1004Y-4.3248
X12.1004Y-4.4248
X12.122Y-7.8504
X12.122Y-7.9504
X12.122Y-8.0504
X12.122Y-8.1504
X12.122Y-8.2504
X12.122Y-8.3504
X12.122Y-8.4504
X12.122Y-8.5504
X12.1382Y-7.4528
X12.1516Y-3.575
X12.1736Y-3.0079
X12.2535Y-7.15
X12.275Y-4.7
X12.3484Y-3.575
X12.3587Y-3.3622
X12.4004Y-3.8248
X12.4004Y-3.9248
X12.4004Y-4.0248
X12.4004Y-4.1248
X12.4004Y-4.2248
X12.4004Y-4.3248
X12.4004Y-4.4248
X12.422Y-7.8504
X12.422Y-7.9504
X12.422Y-8.0504
X12.422Y-8.1504
X12.422Y-8.2504
X12.422Y-8.3504
X12.422Y-8.4504
X12.422Y-8.5504
X12.4457Y-7.15
X12.4719Y-4.7
X12.6102Y-7.8533
X12.6102Y-7.9533
X12.6102Y-8.0533
X12.6102Y-8.1533
X12.6102Y-8.2533
X12.6102Y-8.3533
X12.6102Y-8.4533
X12.675Y-4.925
X12.675Y-5.025
X12.675Y-5.125
X12.675Y-5.225
X12.675Y-5.325
X12.675Y-5.425
X12.675Y-5.525
X12.675Y-5.625
X12.675Y-5.725
X12.675Y-5.825
X12.675Y-5.925
X12.675Y-6.025
X12.675Y-6.125
X12.675Y-6.225
X12.675Y-6.325
X12.675Y-6.425
X12.675Y-6.525
X12.675Y-6.625
X12.675Y-6.725
X12.675Y-6.825
X12.6772Y-4.0114
X12.6772Y-4.3114
X12.7402Y-7.4409
X12.8386Y-7.4409
X12.875Y-5.375
X12.9102Y-7.8533
X12.9102Y-7.9533
X12.9102Y-8.0533
X12.9102Y-8.1533
X12.9102Y-8.2533
X12.9102Y-8.3533
X12.9102Y-8.4533
X12.9266Y-5.625
X13.0157Y-2.7795
X13.0157Y-2.8795
X13.0157Y-2.9795
X13.0157Y-3.0795
X13.0157Y-3.1795
X13.0157Y-3.2795
X13.0157Y-3.3795
X13.0157Y-3.4795
X13.0254Y-5.9002
X13.0254Y-6.0002
X13.0254Y-6.1002
X13.0254Y-6.2002
X13.0254Y-6.3002
X13.0254Y-6.4002
X13.0254Y-6.5002
X13.0254Y-6.6002
X13.0254Y-6.7002
X13.0254Y-6.8002
X13.0504Y-4.2252
X13.0504Y-4.3252
X13.0504Y-4.4252
X13.0504Y-4.5252
X13.0504Y-4.6252
X13.0504Y-4.7252
X13.0504Y-4.8252
X13.0504Y-4.9252
X13.0504Y-5.0252
X13.0504Y-5.1252
X13.0709Y-3.7402
X13.1016Y-3.975
X13.1234Y-5.625
X13.1488Y-7.9825
X13.1488Y-8.1575
X13.1488Y-8.3325
X13.1575Y-7.1535
X13.1575Y-7.3535
X13.1575Y-7.5535
X13.1575Y-7.7535
X13.175Y-5.375
X13.2677Y-3.7402
X13.2984Y-3.975
X13.3157Y-2.7795
X13.3157Y-2.8795
X13.3157Y-2.9795
X13.3157Y-3.0795
X13.3157Y-3.1795
X13.3157Y-3.2795
X13.3157Y-3.3795
X13.3157Y-3.4795
X13.3254Y-5.9002
X13.3254Y-6.0002
X13.3254Y-6.1002
X13.3254Y-6.2002
X13.3254Y-6.3002
X13.3254Y-6.4002
X13.3254Y-6.5002
X13.3254Y-6.6002
X13.3254Y-6.7002
X13.3254Y-6.8002
X13.3504Y-4.2252
X13.3504Y-4.3252
X13.3504Y-4.4252
X13.3504Y-4.5252
X13.3504Y-4.6252
X13.3504Y-4.7252
X13.3504Y-4.8252
X13.3504Y-4.9252
X13.3504Y-5.0252
X13.3504Y-5.1252
X13.4488Y-7.9825
X13.4488Y-8.1575
X13.4488Y-8.3325
X13.4575Y-7.1535
X13.4575Y-7.3535
X13.4575Y-7.5535
X13.4575Y-7.7535
X13.7498Y-5.5244
X13.7498Y-5.6244
X13.7498Y-5.7244
X13.7498Y-5.8244
X13.7498Y-5.9244
X13.7498Y-6.0244
X13.7498Y-6.1244
X13.7498Y-6.2244
X13.7498Y-6.3244
X13.7498Y-6.4244
X13.7498Y-6.5244
X13.7498Y-6.6244
X13.7498Y-6.7244
X13.7498Y-6.8244
X13.8618Y-7.9843
X13.8736Y-7.2217
X13.8736Y-7.4217
X13.8736Y-7.5967
X13.8736Y-7.7717
X13.9254Y-4.1752
X13.9254Y-4.2752
X13.9254Y-4.3752
X13.9254Y-4.4752
X13.9254Y-4.5752
X13.9254Y-4.6752
X13.9254Y-4.7752
X13.9254Y-4.8752
X13.9254Y-4.9752
X13.9254Y-5.0752
X13.9516Y-5.275
X13.9766Y-3.925
X14.0551Y-2.7746
X14.0551Y-2.8746
X14.0551Y-2.9746
X14.0551Y-3.0746
X14.0551Y-3.1746
X14.0551Y-3.2746
X14.0551Y-3.3746
X14.0551Y-3.4746
X14.0551Y-3.5746
X14.0551Y-3.6746
X14.1484Y-5.275
X14.1618Y-7.9843
X14.1734Y-3.925
X14.1736Y-7.2217
X14.1736Y-7.4217
X14.1736Y-7.5967
X14.1736Y-7.7717
X14.2254Y-4.1752
X14.2254Y-4.2752
X14.2254Y-4.3752
X14.2254Y-4.4752
X14.2254Y-4.5752
X14.2254Y-4.6752
X14.2254Y-4.7752
X14.2254Y-4.8752
X14.2254Y-4.9752
X14.2254Y-5.0752
X14.3498Y-5.5244
X14.3498Y-5.6244
X14.3498Y-5.7244
X14.3498Y-5.8244
X14.3498Y-5.9244
X14.3498Y-6.0244
X14.3498Y-6.1244
X14.3498Y-6.2244
X14.3498Y-6.3244
X14.3498Y-6.4244
X14.3498Y-6.5244
X14.3498Y-6.6244
X14.3498Y-6.7244
X14.3498Y-6.8244
X14.3551Y-2.7746
X14.3551Y-2.8746
X14.3551Y-2.9746
X14.3551Y-3.0746
X14.3551Y-3.1746
X14.3551Y-3.2746
X14.3551Y-3.3746
X14.3551Y-3.4746
X14.3551Y-3.5746
X14.3551Y-3.6746
X14.5433Y-3.0591
X14.5433Y-3.2559
T4
X1.4Y-7.275
X1.5Y-7.275
X1.95Y-6.975
X2.25Y-6.975
X4.598Y-7.3309
X4.898Y-7.3309
X6.325Y-4.425
X6.325Y-4.725
X9.125Y-6.85
X9.425Y-6.85
T5
X1.1677Y-3.3781
X1.1677Y-3.4872
X1.1677Y-3.5963
X1.1677Y-3.7053
X1.1717Y-5.8467
X1.1717Y-5.9557
X1.1717Y-6.0648
X1.1717Y-6.1738
X1.2795Y-3.3236
X1.2795Y-3.4327
X1.2795Y-3.5417
X1.2795Y-3.6508
X1.2795Y-3.7598
X1.2835Y-5.7921
X1.2835Y-5.9012
X1.2835Y-6.0102
X1.2835Y-6.1193
X1.2835Y-6.2283
X2.775Y-1.3
X2.875Y-1.3
X3.4547Y-6.9075
X3.4547Y-7.0075
X3.4547Y-7.1075
X3.4862Y-8.5669
X3.5862Y-8.5669
X3.6862Y-8.5669
X3.7862Y-8.5669
X3.8862Y-8.5669
X3.9862Y-8.5669
X4.0862Y-8.5669
X4.1033Y-7.4016
X4.1033Y-7.5016
X4.127Y-7.7431
X4.127Y-7.8431
X4.127Y-7.9431
X4.1862Y-8.5669
X4.2862Y-8.5669
X4.3862Y-8.5669
X4.4171Y-1.2992
X4.4862Y-8.5669
X4.5171Y-1.2992
X4.5862Y-8.5669
X4.6171Y-1.2992
X4.6862Y-8.5669
X4.7171Y-1.2992
X4.7862Y-8.5669
X4.8171Y-1.2992
X4.8862Y-8.5669
X4.9171Y-1.2992
X4.9862Y-8.5669
X5.0171Y-1.2992
X5.1171Y-1.2992
X5.2171Y-1.2992
X5.3171Y-1.2992
X5.4171Y-1.2992
X5.5171Y-1.2992
X5.6171Y-1.2992
X5.7171Y-1.2992
X5.8171Y-1.2992
X5.9171Y-1.2992
X6.0171Y-1.2992
X6.1171Y-1.2992
X6.45Y-1.3
X6.55Y-1.3
X7.25Y-1.3
X7.35Y-1.3
X8.7451Y-1.3321
X8.7451Y-1.4321
X8.8451Y-1.3321
X8.8451Y-1.4321
X8.9451Y-1.3321
X8.9451Y-1.4321
X9.0451Y-1.3321
X9.0451Y-1.4321
X9.1451Y-1.3321
X9.1451Y-1.4321
X9.2451Y-1.3321
X9.2451Y-1.4321
X9.3451Y-1.3321
X9.3451Y-1.4321
X9.4451Y-1.3321
X9.4451Y-1.4321
X9.5451Y-1.3321
X9.5451Y-1.4321
X9.6451Y-1.3321
X9.6451Y-1.4321
X9.7451Y-1.3321
X9.7451Y-1.4321
X9.8451Y-1.3321
X9.8451Y-1.4321
X9.9451Y-1.3321
X9.9451Y-1.4321
X10.0451Y-1.3321
X10.0451Y-1.4321
X10.075Y-3.5
X10.1451Y-1.3321
X10.1451Y-1.4321
X10.175Y-3.5
X10.2451Y-1.3321
X10.2451Y-1.4321
X10.275Y-3.5
X10.3451Y-1.3321
X10.3451Y-1.4321
X10.4451Y-1.3321
X10.4451Y-1.4321
X10.5451Y-1.3321
X10.5451Y-1.4321
X10.6451Y-1.3321
X10.6451Y-1.4321
X10.7451Y-1.3321
X10.7451Y-1.4321
X10.8451Y-1.3321
X10.8451Y-1.4321
X11.025Y-3.5
X11.125Y-3.5
X11.2205Y-1.3622
X11.225Y-3.5
X11.3205Y-1.3622
X12.5797Y-2.1352
X12.5797Y-2.2352
X12.5806Y-2.0398
X12.5806Y-2.2366
X12.6797Y-2.1352
X12.6797Y-2.2352
X12.6806Y-2.0398
X12.6806Y-2.2366
X12.7797Y-2.1352
X12.7797Y-2.2352
X12.7806Y-2.0398
X12.7806Y-2.2366
X12.8797Y-2.1352
X12.8797Y-2.2352
X12.8806Y-2.0398
X12.8806Y-2.2366
X12.9797Y-2.1352
X12.9797Y-2.2352
X12.9806Y-2.0398
X12.9806Y-2.2366
X13.0797Y-2.1352
X13.0797Y-2.2352
X13.0806Y-2.0398
X13.0806Y-2.2366
X13.1797Y-2.1352
X13.1797Y-2.2352
X13.1806Y-2.0398
X13.1806Y-2.2366
X13.2797Y-2.1352
X13.2797Y-2.2352
X13.2806Y-2.0398
X13.2806Y-2.2366
X13.3797Y-2.1352
X13.3797Y-2.2352
X13.3806Y-2.0398
X13.3806Y-2.2366
X13.4797Y-2.1352
X13.4797Y-2.2352
X13.4806Y-2.0398
X13.4806Y-2.2366
X13.5797Y-2.1352
X13.5797Y-2.2352
X13.5806Y-2.0398
X13.5806Y-2.2366
X13.6797Y-2.1352
X13.6797Y-2.2352
X13.6806Y-2.0398
X13.6806Y-2.2366
X13.7797Y-2.1352
X13.7797Y-2.2352
X13.7806Y-2.0398
X13.7806Y-2.2366
X13.8797Y-2.1352
X13.8797Y-2.2352
X13.8806Y-2.0398
X13.8806Y-2.2366
X13.9797Y-2.1352
X13.9797Y-2.2352
X13.9806Y-2.0398
X13.9806Y-2.2366
X14.0797Y-2.1352
X14.0797Y-2.2352
X14.0806Y-2.0398
X14.0806Y-2.2366
X14.1797Y-2.1352
X14.1797Y-2.2352
X14.1806Y-2.0398
X14.1806Y-2.2366
X14.2797Y-2.1352
X14.2797Y-2.2352
X14.2806Y-2.0398
X14.2806Y-2.2366
T6
X1.4Y-7.775
X1.5Y-7.775
X1.6Y-7.775
T7
X1.5827Y-8.3583
X1.7795Y-8.3583
X1.9764Y-8.3583
X2.1732Y-8.3583
T8
X1.2677Y-3.0496
X1.2677Y-4.0339
X1.2717Y-5.5181
X1.2717Y-6.5024
T0
M30
