M48
; DRILL file {KiCad (6.0.6)} date Sun Dec 25 11:50:32 2022
; FORMAT={-:-/ absolute / inch / decimal}
; #@! TF.CreationDate,2022-12-25T11:50:32-06:00
; #@! TF.GenerationSoftware,Kicad,Pcbnew,(6.0.6)
; #@! TF.FileFunction,Plated,1,2,PTH
FMAT,2
INCH
; #@! TA.AperFunction,Plated,PTH,ViaDrill
T1C0.0157
; #@! TA.AperFunction,Plated,PTH,ComponentDrill
T2C0.0295
; #@! TA.AperFunction,Plated,PTH,ComponentDrill
T3C0.0315
; #@! TA.AperFunction,Plated,PTH,ComponentDrill
T4C0.0354
; #@! TA.AperFunction,Plated,PTH,ComponentDrill
T5C0.0394
; #@! TA.AperFunction,Plated,PTH,ComponentDrill
T6C0.0433
; #@! TA.AperFunction,Plated,PTH,ComponentDrill
T7C0.0512
; #@! TA.AperFunction,Plated,PTH,ComponentDrill
T8C0.1260
%
G90
G05
T1
X1.0944Y-3.2668
X2.2005Y-7.275
X2.3986Y-3.6886
X2.4018Y-2.2758
X2.433Y-6.8514
X2.4461Y-3.2689
X2.4802Y-2.8314
X2.5622Y-6.7303
X2.5639Y-2.5969
X2.6039Y-6.7502
X2.7285Y-2.3697
X2.8619Y-2.413
X2.9038Y-2.4133
X2.9886Y-4.529
X3.0333Y-6.4097
X3.0881Y-3.1258
X3.1288Y-3.9965
X3.1615Y-8.111
X3.2541Y-7.4484
X3.2739Y-2.7712
X3.2809Y-2.3964
X3.2816Y-2.3373
X3.3194Y-3.1987
X3.3509Y-7.5562
X3.6103Y-5.4236
X3.7021Y-6.7134
X3.7032Y-6.7646
X3.75Y-8.6273
X3.9377Y-7.7202
X3.9505Y-3.3659
X3.954Y-1.2839
X3.9935Y-8.6589
X4.021Y-6.2202
X4.0444Y-3.226
X4.1137Y-8.1381
X4.1448Y-3.9191
X4.2153Y-3.1262
X4.2279Y-8.2626
X4.2796Y-6.7954
X4.3003Y-1.4187
X4.3368Y-6.5411
X4.4974Y-4.3012
X4.5932Y-8.2269
X4.6325Y-7.6909
X4.7525Y-6.4888
X4.8448Y-6.5693
X4.9429Y-5.0884
X4.9569Y-5.1449
X4.9894Y-3.5874
X4.9965Y-4.9166
X4.9973Y-4.8704
X5.0158Y-8.0644
X5.0181Y-4.7303
X5.0369Y-3.7906
X5.0604Y-3.4921
X5.0739Y-3.7669
X5.0787Y-8.1311
X5.1149Y-4.6457
X5.1402Y-5.824
X5.1909Y-3.343
X5.2815Y-6.2417
X5.3159Y-7.8421
X5.4732Y-7.629
X5.5494Y-2.2029
X5.6725Y-7.5711
X5.7071Y-6.742
X5.7215Y-3.0855
X5.81Y-8.5148
X5.8527Y-4.5625
X5.8552Y-6.8355
X5.9367Y-3.9109
X6.0352Y-5.7281
X6.0623Y-5.8012
X6.0835Y-5.9468
X6.1304Y-2.6707
X6.1584Y-2.4228
X6.1601Y-2.5883
X6.1978Y-2.4327
X6.2197Y-1.5364
X6.2402Y-4.48
X6.2674Y-5.075
X6.2835Y-4.1837
X6.2874Y-7.614
X6.3023Y-3.9423
X6.307Y-8.4539
X6.3126Y-4.4841
X6.3764Y-6.8259
X6.3869Y-5.0375
X6.4192Y-7.6984
X6.5397Y-5.9959
X6.5465Y-5.7591
X6.5502Y-3.8706
X6.5735Y-5.9576
X6.5853Y-5.7988
X6.597Y-5.1575
X6.6043Y-4.4339
X6.6799Y-6.5635
X6.6924Y-6.0907
X6.7092Y-7.6592
X6.7384Y-3.6336
X6.7776Y-2.0036
X6.7782Y-3.653
X6.8424Y-8.4003
X6.8562Y-4.0826
X6.9046Y-3.8352
X6.9676Y-3.8571
X7.1465Y-2.5198
X7.2008Y-5.5984
X7.2591Y-5.9
X7.3165Y-1.8123
X7.3403Y-6.3483
X7.3887Y-4.7202
X7.4139Y-4.7608
X7.4213Y-6.5276
X7.5472Y-4.7558
X7.5502Y-6.2859
X7.5774Y-7.8788
X7.5787Y-3.5313
X7.5796Y-6.1809
X7.5892Y-6.4548
X7.6178Y-3.1972
X7.6425Y-4.5805
X7.6558Y-3.1796
X7.6558Y-3.24
X7.6558Y-3.3464
X7.6644Y-2.8306
X7.6687Y-6.1765
X7.67Y-3.0608
X7.6785Y-2.0566
X7.706Y-7.7875
X7.7138Y-6.1699
X7.75Y-3.773
X7.7526Y-2.9434
X7.7527Y-2.7482
X7.766Y-2.6519
X7.796Y-2.536
X7.9229Y-5.1057
X7.9362Y-3.6051
X7.9362Y-4.5649
X7.9442Y-2.8061
X7.9573Y-7.8113
X7.9668Y-4.6675
X7.9677Y-2.7367
X7.968Y-8.0291
X7.9749Y-2.2204
X7.9956Y-5.8058
X7.9968Y-7.7987
X8.0118Y-3.0317
X8.0164Y-7.3945
X8.0424Y-4.5636
X8.0572Y-2.7546
X8.0642Y-5.9148
X8.0703Y-4.6939
X8.0975Y-5.9742
X8.1336Y-7.1918
X8.1449Y-5.7937
X8.1498Y-8.1323
X8.1509Y-4.4055
X8.1918Y-3.2059
X8.2032Y-3.0158
X8.207Y-4.0676
X8.2114Y-5.5699
X8.2181Y-3.3231
X8.2655Y-3.5218
X8.2702Y-3.3049
X8.3327Y-7.5988
X8.3342Y-2.1858
X8.3638Y-3.465
X8.3697Y-3.5249
X8.3838Y-5.7
X8.4022Y-4.3212
X8.4063Y-3.6906
X8.4417Y-3.7735
X8.4595Y-3.8222
X8.4627Y-3.9594
X8.5388Y-3.5074
X8.5792Y-6.0
X8.5812Y-3.3408
X8.598Y-7.9036
X8.6045Y-4.4668
X8.6243Y-2.5977
X8.6348Y-4.6796
X8.6419Y-5.8862
X8.6434Y-3.8653
X8.6867Y-5.7358
X8.7412Y-2.8312
X8.7772Y-2.5661
X8.821Y-5.5
X8.8245Y-4.065
X8.8471Y-7.0128
X8.8723Y-4.2617
X8.8772Y-8.2823
X8.8801Y-6.972
X8.8921Y-5.5797
X8.8945Y-5.3154
X8.8981Y-5.488
X8.919Y-5.8112
X8.9241Y-4.8499
X8.93Y-1.877
X8.9338Y-3.3601
X9.022Y-4.9713
X9.0313Y-7.197
X9.071Y-6.1943
X9.1278Y-7.5554
X9.1323Y-8.3035
X9.1422Y-7.4872
X9.1598Y-7.6888
X9.1861Y-7.6522
X9.21Y-4.7268
X9.2172Y-2.2936
X9.2211Y-2.2168
X9.2264Y-5.8721
X9.2311Y-3.5386
X9.2395Y-7.8162
X9.2597Y-2.5948
X9.26Y-5.5431
X9.2612Y-3.2623
X9.2621Y-3.3017
X9.2738Y-6.6633
X9.2796Y-6.3103
X9.2897Y-2.68
X9.3088Y-2.813
X9.3115Y-3.1982
X9.3495Y-2.7575
X9.3712Y-2.6247
X9.3743Y-2.8077
X9.3889Y-2.7675
X9.4551Y-3.6207
X9.469Y-2.2552
X9.4699Y-3.7739
X9.4699Y-3.9587
X9.4852Y-3.2467
X9.4927Y-7.8769
X9.4956Y-5.2677
X9.5046Y-3.9888
X9.5132Y-4.9965
X9.5137Y-3.7507
X9.5175Y-7.624
X9.5443Y-3.5553
X9.5517Y-5.3435
X9.5607Y-2.9917
X9.5768Y-4.8737
X9.6291Y-2.6054
X9.6379Y-3.4248
X9.6502Y-6.4605
X9.6559Y-6.7469
X9.6623Y-7.7683
X9.6828Y-4.0926
X9.7023Y-8.6552
X9.7042Y-6.4873
X9.7078Y-6.5266
X9.7164Y-3.8941
X9.7177Y-6.566
X9.7235Y-3.5887
X9.738Y-2.4939
X9.7415Y-6.4187
X9.7419Y-5.3979
X9.7688Y-8.6302
X9.7919Y-1.675
X9.7955Y-3.4415
X9.8345Y-1.247
X9.8451Y-3.4203
X9.8771Y-3.6115
X9.9256Y-5.3582
X9.9422Y-3.588
X9.9424Y-4.0864
X9.9639Y-6.1182
X9.9781Y-3.5533
X9.98Y-1.2365
X9.9834Y-5.9801
X9.9838Y-5.7184
X10.0013Y-4.3763
X10.0013Y-5.6244
X10.0063Y-7.6908
X10.013Y-5.7744
X10.0303Y-5.5184
X10.0348Y-5.5588
X10.0356Y-7.3335
X10.0511Y-4.2454
X10.0801Y-4.1735
X10.0805Y-4.5687
X10.0892Y-4.8209
X10.0899Y-3.1731
X10.1029Y-6.5535
X10.1118Y-4.6471
X10.1198Y-8.5971
X10.1201Y-5.792
X10.1294Y-6.7225
X10.1432Y-4.2351
X10.1512Y-4.6514
X10.1512Y-4.9244
X10.1512Y-5.0245
X10.1647Y-5.4238
X10.2Y-4.4185
X10.2003Y-3.7182
X10.2227Y-7.2299
X10.229Y-4.5464
X10.2406Y-6.6244
X10.2618Y-1.5091
X10.2859Y-6.4244
X10.2894Y-5.4561
X10.2936Y-6.795
X10.2952Y-6.1035
X10.2982Y-4.3274
X10.31Y-6.6689
X10.3327Y-6.0268
X10.335Y-3.8667
X10.3415Y-4.1443
X10.3832Y-4.4269
X10.3996Y-3.571
X10.4237Y-2.8893
X10.4492Y-5.0983
X10.4632Y-2.8875
X10.4746Y-1.7617
X10.5037Y-2.8893
X10.5061Y-6.9236
X10.5725Y-1.7443
X10.5809Y-1.8435
X10.5849Y-5.4857
X10.6041Y-4.3191
X10.6086Y-2.0243
X10.6211Y-1.8387
X10.6552Y-6.3388
X10.6558Y-1.7623
X10.6757Y-4.8706
X10.6779Y-4.7799
X10.7025Y-2.0778
X10.7081Y-7.4164
X10.7084Y-6.9335
X10.7098Y-1.8491
X10.7117Y-1.9725
X10.7639Y-2.888
X10.7838Y-2.1708
X10.8196Y-1.5118
X10.8582Y-2.6103
X10.8743Y-5.9727
X10.9061Y-5.0055
X10.937Y-7.101
X10.9827Y-2.897
X11.0852Y-4.0354
X11.1063Y-1.4825
X11.109Y-1.5697
X11.1248Y-7.6769
X11.1289Y-7.4879
X11.1619Y-7.0791
X11.2318Y-7.8906
X11.3016Y-7.5082
X11.318Y-1.6835
X11.3397Y-4.0789
X11.3566Y-1.538
X11.4754Y-4.9436
X11.4856Y-1.2188
X11.4977Y-7.3301
X11.5013Y-7.4554
X11.5101Y-2.0565
X11.5215Y-2.4676
X11.523Y-3.4952
X11.5503Y-7.8106
X11.555Y-4.2366
X11.5564Y-1.2015
X11.5851Y-4.2744
X11.5875Y-7.6759
X11.5915Y-4.6499
X11.6066Y-1.4758
X11.631Y-2.8169
X11.6452Y-3.8508
X11.6596Y-7.7819
X11.6785Y-1.5042
X11.6937Y-2.5394
X11.7002Y-1.6472
X11.728Y-2.6935
X11.7452Y-1.6558
X11.7599Y-7.5809
X11.7687Y-2.613
X11.7833Y-7.6856
X11.7944Y-5.225
X11.8212Y-1.5874
X11.8679Y-3.1589
X11.8928Y-3.8934
X11.9301Y-1.6802
X11.9373Y-1.9143
X11.9459Y-5.1187
X11.9702Y-2.6808
X11.9702Y-2.8752
X11.9798Y-5.2172
X12.0075Y-7.799
X12.0289Y-8.2143
X12.0417Y-2.9421
X12.0455Y-3.1525
X12.0543Y-1.8948
X12.0584Y-7.7503
X12.0586Y-2.1105
X12.0806Y-3.0404
X12.0833Y-2.9268
X12.097Y-1.8308
X12.1573Y-7.3011
X12.1673Y-5.1034
X12.1788Y-3.7925
X12.1804Y-1.8215
X12.1813Y-2.8979
X12.187Y-6.5208
X12.1925Y-6.3419
X12.2218Y-1.8404
X12.2316Y-5.3727
X12.2406Y-2.6224
X12.2736Y-2.9356
X12.2768Y-2.6812
X12.2838Y-2.7383
X12.29Y-2.8771
X12.2927Y-3.4553
X12.3183Y-2.3323
X12.3231Y-2.7276
X12.3714Y-1.4895
X12.3777Y-1.3801
X12.3928Y-2.0327
X12.3965Y-3.6305
X12.4174Y-2.1745
X12.4176Y-1.5379
X12.4259Y-5.5936
X12.4295Y-6.5402
X12.4368Y-6.5996
X12.439Y-2.0321
X12.4585Y-3.5276
X12.4688Y-6.3786
X12.4719Y-3.9784
X12.4725Y-2.3391
X12.4775Y-2.183
X12.4809Y-2.0313
X12.4881Y-4.0709
X12.5098Y-4.1316
X12.5189Y-6.6217
X12.549Y-5.4705
X12.5497Y-5.9983
X12.5613Y-5.7695
X12.5673Y-6.1402
X12.5686Y-5.8977
X12.5816Y-1.5166
X12.5947Y-2.3553
X12.6086Y-3.2541
X12.623Y-3.9618
X12.6286Y-2.4108
X12.6338Y-1.5088
X12.6515Y-2.1228
X12.6665Y-3.4314
X12.6789Y-2.7157
X12.6944Y-2.3833
X12.6982Y-1.5001
X12.7027Y-3.7555
X12.7086Y-2.6874
X12.726Y-4.7803
X12.7399Y-5.5549
X12.7563Y-7.9625
X12.7571Y-8.3202
X12.7586Y-1.5344
X12.7651Y-2.7192
X12.7661Y-3.1037
X12.7743Y-7.6144
X12.7767Y-6.1009
X12.7801Y-3.616
X12.7828Y-1.5024
X12.7834Y-8.2489
X12.7918Y-5.1551
X12.7988Y-2.6325
X12.8168Y-6.5863
X12.82Y-3.0498
X12.8256Y-8.0607
X12.8511Y-1.5399
X12.8569Y-4.98
X12.9066Y-1.5124
X12.9088Y-2.184
X12.9118Y-4.6507
X12.9132Y-5.2558
X12.9356Y-4.9572
X12.9569Y-5.8564
X12.9769Y-1.7007
X13.0647Y-1.6142
X13.0668Y-3.6121
X13.0693Y-7.9359
X13.1033Y-6.6382
X13.1406Y-2.7758
X13.1696Y-1.5009
X13.1785Y-6.6049
X13.1959Y-1.7392
X13.199Y-2.9345
X13.2129Y-5.8609
X13.2232Y-5.5252
X13.2259Y-2.1842
X13.2345Y-6.9703
X13.2369Y-7.155
X13.2416Y-6.9161
X13.2517Y-3.8887
X13.26Y-1.5028
X13.2601Y-4.4752
X13.2794Y-1.8666
X13.3739Y-5.5987
X13.3746Y-3.4223
X13.3804Y-5.8339
X13.3884Y-6.3642
X13.391Y-1.7997
X13.402Y-8.2296
X13.4156Y-5.8677
X13.418Y-5.9281
X13.4227Y-4.5772
X13.4253Y-6.5502
X13.4322Y-6.2338
X13.4367Y-4.6596
X13.4373Y-1.5901
X13.4384Y-1.9065
X13.4481Y-6.6484
X13.4542Y-6.5839
X13.4558Y-2.9547
X13.4812Y-5.8109
X13.4925Y-5.725
X13.4956Y-1.5319
X13.4985Y-3.9407
X13.5362Y-2.6606
X13.5379Y-1.883
X13.5578Y-2.3166
X13.578Y-3.5246
X13.5812Y-7.7798
X13.6058Y-5.0415
X13.6161Y-1.7682
X13.6165Y-3.1309
X13.6258Y-5.3307
X13.645Y-1.5086
X13.6574Y-6.8988
X13.679Y-6.6484
X13.6915Y-3.7996
X13.6978Y-5.8685
X13.7459Y-1.8312
X13.7485Y-3.6759
X13.7533Y-4.0584
X13.7625Y-6.882
X13.7701Y-2.3728
X13.771Y-5.2347
X13.7719Y-4.8703
X13.7888Y-8.4415
X13.8135Y-1.6437
X13.8963Y-1.4845
X13.9046Y-6.2251
X13.9102Y-2.8432
X13.9112Y-3.4405
X13.9298Y-1.6577
X13.9546Y-7.5922
X14.0212Y-1.9643
X14.0658Y-4.9198
X14.0776Y-5.3374
X14.0781Y-2.1774
X14.1029Y-7.6635
X14.1188Y-1.7814
X14.126Y-2.7045
X14.1345Y-2.4246
X14.1405Y-3.258
X14.1632Y-1.8082
X14.1692Y-4.0265
X14.1772Y-2.1774
X14.1983Y-3.6276
X14.2017Y-1.5577
X14.206Y-1.5133
X14.2739Y-7.9771
X14.3179Y-1.6839
X14.3328Y-1.7411
X14.3409Y-2.3431
X14.3698Y-1.4967
X14.3732Y-1.7477
X14.3953Y-5.4292
X14.4135Y-2.1584
X14.4233Y-2.6801
X14.4487Y-2.2454
X14.4596Y-7.4786
X14.4711Y-4.1041
X14.485Y-3.0353
X14.4918Y-1.9433
X14.5058Y-2.2518
X14.613Y-2.2366
X14.625Y-2.3036
X14.6288Y-4.3958
X14.6294Y-4.4936
X14.6361Y-7.3516
X14.6645Y-1.9492
X14.7031Y-1.8865
X14.7031Y-2.5379
T2
X2.45Y-5.3
X2.5Y-5.25
X2.55Y-5.3
X2.9Y-3.975
X2.95Y-3.925
X3.0Y-3.975
X3.175Y-3.9705
X3.225Y-3.9205
X3.275Y-3.9705
X5.0Y-5.9705
X5.025Y-4.7955
X5.025Y-5.175
X5.025Y-5.5705
X5.05Y-5.9205
X5.075Y-4.7455
X5.075Y-5.125
X5.075Y-5.5205
X5.1Y-5.9705
X5.125Y-4.7955
X5.125Y-5.175
X5.125Y-5.5705
X9.225Y-6.2705
X9.275Y-6.2205
X9.325Y-6.2705
X11.5276Y-3.1063
X11.5776Y-3.0563
X11.6276Y-3.1063
T3
X1.3Y-6.975
X1.45Y-2.65
X1.4545Y-2.1024
X1.475Y-3.15
X1.5016Y-2.475
X1.5333Y-2.1024
X1.575Y-1.525
X1.6Y-6.975
X1.6984Y-2.475
X1.75Y-2.65
X1.775Y-3.15
X1.875Y-1.525
X1.9Y-3.15
X1.9016Y-2.9
X1.9205Y-7.7835
X1.95Y-7.175
X1.95Y-7.475
X1.9504Y-1.7746
X1.9504Y-1.8746
X1.9504Y-1.9746
X1.9504Y-2.0746
X1.9504Y-2.1746
X1.9504Y-2.2746
X1.9504Y-2.3746
X1.9504Y-2.4746
X1.9766Y-2.65
X2.0016Y-1.525
X2.0016Y-6.775
X2.0969Y-3.15
X2.0984Y-2.9
X2.1734Y-2.65
X2.1984Y-1.525
X2.1984Y-6.775
X2.2205Y-7.7835
X2.25Y-7.175
X2.25Y-7.475
X2.2504Y-1.7746
X2.2504Y-1.8746
X2.2504Y-1.9746
X2.2504Y-2.0746
X2.2504Y-2.1746
X2.2504Y-2.2746
X2.2504Y-2.3746
X2.2504Y-2.4746
X2.325Y-5.525
X2.325Y-5.7
X2.325Y-5.875
X2.325Y-6.05
X2.325Y-6.225
X2.325Y-6.4
X2.35Y-3.025
X2.35Y-3.775
X2.35Y-3.975
X2.35Y-4.175
X2.35Y-4.375
X2.35Y-4.925
X2.3504Y-3.2746
X2.3504Y-3.3746
X2.3504Y-3.4746
X2.3766Y-6.575
X2.4016Y-4.575
X2.4016Y-4.75
X2.5039Y-6.9606
X2.5039Y-7.0606
X2.5039Y-7.1606
X2.5039Y-7.2606
X2.5039Y-7.3606
X2.5039Y-7.4606
X2.5039Y-7.5606
X2.5039Y-7.6606
X2.5039Y-7.7606
X2.5039Y-7.8606
X2.5039Y-7.9606
X2.5039Y-8.0606
X2.5039Y-8.1606
X2.5039Y-8.2606
X2.5039Y-8.3606
X2.5039Y-8.4606
X2.5734Y-6.575
X2.5984Y-4.575
X2.5984Y-4.75
X2.625Y-5.525
X2.625Y-5.7
X2.625Y-5.875
X2.625Y-6.05
X2.625Y-6.225
X2.625Y-6.4
X2.65Y-3.025
X2.65Y-3.775
X2.65Y-3.975
X2.65Y-4.175
X2.65Y-4.375
X2.65Y-4.925
X2.6504Y-3.2746
X2.6504Y-3.3746
X2.6504Y-3.4746
X2.725Y-2.2
X2.8047Y-2.622
X2.875Y-3.025
X2.8754Y-3.2746
X2.8754Y-3.3746
X2.8754Y-3.4746
X2.9031Y-2.622
X2.925Y-4.2
X2.925Y-5.875
X2.925Y-6.075
X2.925Y-6.25
X2.925Y-6.45
X2.9266Y-4.375
X2.9266Y-4.575
X2.9266Y-4.75
X2.95Y-5.325
X2.95Y-5.525
X2.9766Y-5.7
X3.0016Y-5.15
X3.025Y-2.2
X3.1039Y-6.9606
X3.1039Y-7.0606
X3.1039Y-7.1606
X3.1039Y-7.2606
X3.1039Y-7.3606
X3.1039Y-7.4606
X3.1039Y-7.5606
X3.1039Y-7.6606
X3.1039Y-7.7606
X3.1039Y-7.8606
X3.1039Y-7.9606
X3.1039Y-8.0606
X3.1039Y-8.1606
X3.1039Y-8.2606
X3.1039Y-8.3606
X3.1039Y-8.4606
X3.1219Y-4.2
X3.1234Y-4.375
X3.1234Y-4.575
X3.1234Y-4.75
X3.1734Y-5.7
X3.175Y-3.025
X3.1754Y-3.2746
X3.1754Y-3.3746
X3.1754Y-3.4746
X3.1984Y-5.15
X3.225Y-5.875
X3.225Y-6.075
X3.225Y-6.25
X3.225Y-6.45
X3.25Y-5.325
X3.25Y-5.525
X3.275Y-1.3
X3.275Y-1.475
X3.275Y-1.65
X3.275Y-1.825
X3.275Y-2.0
X3.275Y-2.2
X3.3516Y-4.575
X3.5285Y-7.377
X3.5285Y-7.477
X3.5285Y-7.577
X3.5285Y-7.677
X3.5285Y-7.777
X3.5285Y-7.877
X3.5285Y-7.977
X3.5285Y-8.077
X3.5484Y-4.575
X3.5516Y-4.125
X3.5516Y-4.375
X3.575Y-1.3
X3.575Y-1.475
X3.575Y-1.65
X3.575Y-1.825
X3.575Y-2.0
X3.575Y-2.2
X3.6031Y-3.925
X3.6033Y-7.0699
X3.7417Y-6.5787
X3.8Y-3.925
X3.8002Y-7.0699
X3.8285Y-7.377
X3.8285Y-7.477
X3.8285Y-7.577
X3.8285Y-7.677
X3.8285Y-7.777
X3.8285Y-7.877
X3.8285Y-7.977
X3.8285Y-8.077
X3.8401Y-6.5787
X3.85Y-1.3
X3.85Y-1.475
X3.85Y-1.65
X3.85Y-1.825
X3.85Y-2.0
X3.85Y-2.2
X3.8516Y-4.125
X3.8516Y-4.375
X3.9531Y-6.1
X3.9563Y-4.75
X3.9563Y-4.9
X3.9563Y-5.075
X3.9563Y-5.25
X3.9563Y-5.425
X3.9563Y-5.6
X3.9563Y-5.75
X3.9563Y-5.925
X4.0469Y-1.3
X4.0469Y-1.475
X4.0469Y-1.65
X4.0469Y-1.825
X4.0469Y-2.0
X4.0469Y-2.2
X4.0766Y-4.125
X4.1016Y-4.375
X4.15Y-6.1
X4.1531Y-4.75
X4.1531Y-4.9
X4.1531Y-5.075
X4.1531Y-5.25
X4.1531Y-5.425
X4.1531Y-5.6
X4.1531Y-5.75
X4.1531Y-5.925
X4.1787Y-8.311
X4.1969Y-6.7756
X4.2787Y-8.311
X4.2984Y-4.375
X4.3Y-3.075
X4.3Y-3.5
X4.3Y-3.85
X4.325Y-1.575
X4.325Y-1.825
X4.325Y-2.075
X4.3516Y-3.25
X4.3516Y-3.675
X4.3766Y-4.125
X4.3787Y-8.311
X4.3937Y-6.7756
X4.45Y-4.725
X4.45Y-4.9
X4.45Y-5.075
X4.45Y-5.25
X4.45Y-5.425
X4.45Y-5.6
X4.45Y-5.775
X4.45Y-5.95
X4.45Y-6.15
X4.45Y-6.35
X4.4787Y-8.311
X4.5232Y-6.7756
X4.5484Y-3.25
X4.5484Y-3.675
X4.5787Y-8.311
X4.598Y-7.5809
X4.598Y-7.7559
X4.6Y-3.075
X4.6Y-3.5
X4.6Y-3.85
X4.625Y-1.575
X4.625Y-1.825
X4.625Y-2.075
X4.6787Y-8.311
X4.75Y-4.725
X4.75Y-4.9
X4.75Y-5.075
X4.75Y-5.25
X4.75Y-5.425
X4.75Y-5.6
X4.75Y-5.775
X4.75Y-5.95
X4.75Y-6.15
X4.75Y-6.35
X4.7787Y-8.311
X4.8232Y-6.7756
X4.85Y-3.075
X4.85Y-3.25
X4.85Y-4.275
X4.85Y-4.45
X4.8504Y-3.5236
X4.8504Y-3.6236
X4.8504Y-3.7236
X4.8504Y-3.8236
X4.8787Y-8.311
X4.898Y-7.5809
X4.898Y-7.7559
X4.9Y-1.575
X4.9Y-1.825
X4.9Y-2.075
X4.9016Y-2.9
X4.9016Y-4.1
X4.9787Y-8.311
X5.0232Y-6.3268
X5.0787Y-8.311
X5.0984Y-2.9
X5.0984Y-4.1
X5.15Y-3.075
X5.15Y-3.25
X5.15Y-4.275
X5.15Y-4.45
X5.1504Y-3.5236
X5.1504Y-3.6236
X5.1504Y-3.7236
X5.1504Y-3.8236
X5.1996Y-7.2809
X5.1996Y-7.5809
X5.2Y-1.575
X5.2Y-1.825
X5.2Y-2.075
X5.3232Y-6.3268
X5.3325Y-7.9028
X5.3325Y-8.0028
X5.3325Y-8.1028
X5.3325Y-8.2028
X5.3325Y-8.3028
X5.3965Y-7.2809
X5.3965Y-7.5809
X5.45Y-1.575
X5.45Y-1.75
X5.45Y-1.925
X5.45Y-2.1
X5.475Y-3.725
X5.475Y-3.825
X5.475Y-3.925
X5.475Y-4.025
X5.475Y-4.125
X5.475Y-4.225
X5.475Y-4.325
X5.475Y-4.425
X5.475Y-4.525
X5.475Y-4.625
X5.475Y-4.725
X5.475Y-4.825
X5.475Y-4.925
X5.475Y-5.025
X5.475Y-5.125
X5.475Y-5.225
X5.475Y-5.325
X5.475Y-5.425
X5.475Y-5.525
X5.475Y-5.625
X5.625Y-3.275
X5.6325Y-7.9028
X5.6325Y-8.0028
X5.6325Y-8.1028
X5.6325Y-8.2028
X5.6325Y-8.3028
X5.6766Y-3.45
X5.6766Y-5.925
X5.6766Y-6.025
X5.6766Y-6.125
X5.6766Y-6.225
X5.6766Y-6.325
X5.6766Y-6.425
X5.6766Y-6.525
X5.6766Y-6.625
X5.7273Y-7.4309
X5.7281Y-6.825
X5.75Y-1.575
X5.75Y-1.75
X5.75Y-1.925
X5.75Y-2.1
X5.8257Y-7.4309
X5.8734Y-3.45
X5.925Y-3.275
X5.925Y-6.825
X5.9323Y-7.7776
X5.9323Y-7.9776
X5.9323Y-8.1526
X5.9323Y-8.3276
X5.9323Y-8.5276
X5.9766Y-5.925
X5.9766Y-6.025
X5.9766Y-6.125
X5.9766Y-6.225
X5.9766Y-6.325
X5.9766Y-6.425
X5.9766Y-6.525
X5.9766Y-6.625
X6.075Y-3.725
X6.075Y-3.825
X6.075Y-3.925
X6.075Y-4.025
X6.075Y-4.125
X6.075Y-4.225
X6.075Y-4.325
X6.075Y-4.425
X6.075Y-4.525
X6.075Y-4.625
X6.075Y-4.725
X6.075Y-4.825
X6.075Y-4.925
X6.075Y-5.025
X6.075Y-5.125
X6.075Y-5.225
X6.075Y-5.325
X6.075Y-5.425
X6.075Y-5.525
X6.075Y-5.625
X6.2323Y-7.7776
X6.2323Y-7.9776
X6.2323Y-8.1526
X6.2323Y-8.3276
X6.2323Y-8.5276
X6.25Y-1.8748
X6.25Y-1.9748
X6.25Y-2.0748
X6.25Y-2.1748
X6.25Y-2.2748
X6.25Y-2.3748
X6.25Y-2.4748
X6.25Y-2.5748
X6.25Y-2.6748
X6.25Y-2.7748
X6.2543Y-6.1
X6.3016Y-1.675
X6.325Y-5.025
X6.325Y-5.325
X6.35Y-3.7
X6.35Y-4.0
X6.3527Y-6.1
X6.4984Y-1.675
X6.55Y-1.8748
X6.55Y-1.9748
X6.55Y-2.0748
X6.55Y-2.1748
X6.55Y-2.2748
X6.55Y-2.3748
X6.55Y-2.4748
X6.55Y-2.5748
X6.55Y-2.6748
X6.55Y-2.7748
X6.65Y-3.4
X6.65Y-4.1
X6.65Y-4.4
X6.65Y-4.7
X6.7016Y-3.7
X6.7016Y-3.9
X6.7016Y-5.6
X6.7016Y-5.9
X6.7016Y-6.2
X6.7386Y-7.8791
X6.7386Y-7.9791
X6.7386Y-8.0791
X6.7386Y-8.1791
X6.7386Y-8.2791
X6.7386Y-8.3791
X6.7386Y-8.4791
X6.7386Y-8.5791
X6.7535Y-7.0669
X6.7543Y-5.175
X6.7913Y-7.6772
X6.8519Y-7.0669
X6.8527Y-5.175
X6.8984Y-3.7
X6.8984Y-3.9
X6.8984Y-5.6
X6.8984Y-5.9
X6.8984Y-6.2
X6.9157Y-1.8748
X6.9157Y-1.9748
X6.9157Y-2.0748
X6.9157Y-2.1748
X6.9157Y-2.2748
X6.9157Y-2.3748
X6.9157Y-2.4748
X6.9157Y-2.5748
X6.9157Y-2.6748
X6.9157Y-2.7748
X6.95Y-3.4
X6.95Y-4.1
X6.95Y-4.4
X6.95Y-4.7
X6.975Y-1.675
X6.9882Y-7.6772
X7.0386Y-7.8791
X7.0386Y-7.9791
X7.0386Y-8.0791
X7.0386Y-8.1791
X7.0386Y-8.2791
X7.0386Y-8.3791
X7.0386Y-8.4791
X7.0386Y-8.5791
X7.1719Y-1.675
X7.2Y-5.0
X7.2Y-5.3
X7.2Y-5.9
X7.2Y-6.2
X7.2Y-6.5
X7.2004Y-3.7502
X7.2004Y-3.8502
X7.2004Y-3.9502
X7.2004Y-4.0502
X7.2004Y-4.1502
X7.2004Y-4.2502
X7.2004Y-4.3502
X7.2004Y-4.4502
X7.2004Y-4.5502
X7.2004Y-4.6502
X7.2157Y-1.8748
X7.2157Y-1.9748
X7.2157Y-2.0748
X7.2157Y-2.1748
X7.2157Y-2.2748
X7.2157Y-2.3748
X7.2157Y-2.4748
X7.2157Y-2.5748
X7.2157Y-2.6748
X7.2157Y-2.7748
X7.25Y-3.4
X7.2516Y-6.7
X7.389Y-7.8791
X7.389Y-7.9791
X7.389Y-8.0791
X7.389Y-8.1791
X7.389Y-8.2791
X7.389Y-8.3791
X7.389Y-8.4791
X7.4148Y-7.4272
X7.4421Y-3.4
X7.4484Y-6.7
X7.4648Y-7.6772
X7.5Y-5.0
X7.5Y-5.3
X7.5Y-5.9
X7.5Y-6.2
X7.5Y-6.5
X7.5004Y-3.7502
X7.5004Y-3.8502
X7.5004Y-3.9502
X7.5004Y-4.0502
X7.5004Y-4.1502
X7.5004Y-4.2502
X7.5004Y-4.3502
X7.5004Y-4.4502
X7.5004Y-4.5502
X7.5004Y-4.6502
X7.5814Y-1.8748
X7.5814Y-1.9748
X7.5814Y-2.0748
X7.5814Y-2.1748
X7.5814Y-2.2748
X7.5814Y-2.3748
X7.5814Y-2.4748
X7.5814Y-2.5748
X7.5814Y-2.6748
X7.5814Y-2.7748
X7.6266Y-1.675
X7.6616Y-7.6772
X7.689Y-7.8791
X7.689Y-7.9791
X7.689Y-8.0791
X7.689Y-8.1791
X7.689Y-8.2791
X7.689Y-8.3791
X7.689Y-8.4791
X7.7148Y-7.4272
X7.75Y-3.4
X7.7531Y-3.1
X7.8234Y-1.675
X7.85Y-3.7
X7.85Y-3.8
X7.85Y-3.9
X7.85Y-4.0
X7.85Y-4.1
X7.85Y-4.2
X7.85Y-4.3
X7.85Y-4.4
X7.85Y-4.5
X7.85Y-4.6
X7.85Y-4.7
X7.85Y-4.8
X7.85Y-4.9
X7.85Y-5.0
X7.85Y-5.1
X7.85Y-5.2
X7.85Y-5.3
X7.85Y-5.4
X7.85Y-5.5
X7.85Y-5.6
X7.85Y-5.7
X7.85Y-5.8
X7.85Y-5.9
X7.85Y-6.0
X7.85Y-6.1
X7.85Y-6.2
X7.85Y-6.3
X7.85Y-6.4
X7.85Y-6.5
X7.85Y-6.6
X7.85Y-6.7
X7.85Y-6.8
X7.8814Y-1.8748
X7.8814Y-1.9748
X7.8814Y-2.0748
X7.8814Y-2.1748
X7.8814Y-2.2748
X7.8814Y-2.3748
X7.8814Y-2.4748
X7.8814Y-2.5748
X7.8814Y-2.6748
X7.8814Y-2.7748
X7.95Y-3.1
X8.0394Y-7.8791
X8.0394Y-7.9791
X8.0394Y-8.0791
X8.0394Y-8.1791
X8.0394Y-8.2791
X8.0394Y-8.3791
X8.0394Y-8.4791
X8.0394Y-8.5791
X8.05Y-3.4
X8.0898Y-7.4022
X8.0913Y-7.6772
X8.2005Y-2.3465
X8.2005Y-2.4465
X8.2005Y-2.5465
X8.2005Y-2.6465
X8.2005Y-2.7465
X8.2005Y-2.8465
X8.2005Y-2.9465
X8.255Y-2.1467
X8.2866Y-7.4022
X8.2882Y-7.6772
X8.3Y-3.4
X8.3394Y-7.8791
X8.3394Y-7.9791
X8.3394Y-8.0791
X8.3394Y-8.1791
X8.3394Y-8.2791
X8.3394Y-8.3791
X8.3394Y-8.4791
X8.3394Y-8.5791
X8.4519Y-2.1467
X8.5005Y-2.3465
X8.5005Y-2.4465
X8.5005Y-2.5465
X8.5005Y-2.6465
X8.5005Y-2.7465
X8.5005Y-2.8465
X8.5005Y-2.9465
X8.6Y-3.4
X8.6648Y-7.4272
X8.6898Y-7.8791
X8.6898Y-7.9791
X8.6898Y-8.0791
X8.6898Y-8.1791
X8.6898Y-8.2791
X8.6898Y-8.3791
X8.6898Y-8.4791
X8.7163Y-7.6772
X8.75Y-3.7
X8.75Y-3.8
X8.75Y-3.9
X8.75Y-4.0
X8.75Y-4.1
X8.75Y-4.2
X8.75Y-4.3
X8.75Y-4.4
X8.75Y-4.5
X8.75Y-4.6
X8.75Y-4.7
X8.75Y-4.8
X8.75Y-4.9
X8.75Y-5.0
X8.75Y-5.1
X8.75Y-5.2
X8.75Y-5.3
X8.75Y-5.4
X8.75Y-5.5
X8.75Y-5.6
X8.75Y-5.7
X8.75Y-5.8
X8.75Y-5.9
X8.75Y-6.0
X8.75Y-6.1
X8.75Y-6.2
X8.75Y-6.3
X8.75Y-6.4
X8.75Y-6.5
X8.75Y-6.6
X8.75Y-6.7
X8.75Y-6.8
X8.8Y-3.4
X8.8661Y-2.3465
X8.8661Y-2.4465
X8.8661Y-2.5465
X8.8661Y-2.6465
X8.8661Y-2.7465
X8.8661Y-2.8465
X8.8661Y-2.9465
X8.8661Y-3.0465
X8.9132Y-7.6772
X8.93Y-2.1467
X8.9648Y-7.4272
X8.9898Y-7.8791
X8.9898Y-7.9791
X8.9898Y-8.0791
X8.9898Y-8.1791
X8.9898Y-8.2791
X8.9898Y-8.3791
X8.9898Y-8.4791
X9.1Y-3.4
X9.1004Y-3.6998
X9.1004Y-3.7998
X9.1004Y-3.8998
X9.1004Y-3.9998
X9.1004Y-4.0998
X9.1004Y-4.1998
X9.1004Y-4.2998
X9.1004Y-4.7998
X9.1004Y-4.8998
X9.1004Y-4.9998
X9.1004Y-5.0998
X9.1004Y-5.1998
X9.1004Y-5.2998
X9.1004Y-5.3998
X9.125Y-5.925
X9.125Y-6.55
X9.1269Y-2.1467
X9.1648Y-7.4272
X9.1661Y-2.3465
X9.1661Y-2.4465
X9.1661Y-2.5465
X9.1661Y-2.6465
X9.1661Y-2.7465
X9.1661Y-2.8465
X9.1661Y-2.9465
X9.1661Y-3.0465
X9.175Y-5.6
X9.1766Y-4.5
X9.3453Y-7.8844
X9.3453Y-7.9844
X9.3453Y-8.0844
X9.3453Y-8.1844
X9.3453Y-8.2844
X9.3453Y-8.3844
X9.3453Y-8.4844
X9.3719Y-5.6
X9.3734Y-4.5
X9.4004Y-3.6998
X9.4004Y-3.7998
X9.4004Y-3.8998
X9.4004Y-3.9998
X9.4004Y-4.0998
X9.4004Y-4.1998
X9.4004Y-4.2998
X9.4004Y-4.7998
X9.4004Y-4.8998
X9.4004Y-4.9998
X9.4004Y-5.0998
X9.4004Y-5.1998
X9.4004Y-5.2998
X9.4004Y-5.3998
X9.4163Y-7.6772
X9.425Y-5.925
X9.425Y-6.55
X9.4648Y-7.4272
X9.4936Y-3.315
X9.5784Y-1.8748
X9.5784Y-1.9748
X9.5784Y-2.0748
X9.5784Y-2.1748
X9.5784Y-2.2748
X9.5784Y-2.3748
X9.5784Y-2.4748
X9.5921Y-3.315
X9.6132Y-7.6772
X9.6453Y-7.8844
X9.6453Y-7.9844
X9.6453Y-8.0844
X9.6453Y-8.1844
X9.6453Y-8.2844
X9.6453Y-8.3844
X9.6453Y-8.4844
X9.6516Y-1.675
X9.8484Y-1.675
X9.8748Y-3.7244
X9.8748Y-3.8244
X9.8748Y-3.9244
X9.8748Y-4.0244
X9.8748Y-4.1244
X9.8748Y-4.2244
X9.8748Y-4.3244
X9.8748Y-4.4244
X9.8748Y-4.5244
X9.8748Y-4.6244
X9.8748Y-4.7244
X9.8748Y-4.8244
X9.8748Y-4.9244
X9.8748Y-5.0244
X9.8748Y-5.5244
X9.8748Y-5.6244
X9.8748Y-5.7244
X9.8748Y-5.8244
X9.8748Y-5.9244
X9.8748Y-6.0244
X9.8748Y-6.1244
X9.8748Y-6.2244
X9.8748Y-6.3244
X9.8748Y-6.4244
X9.8748Y-6.5244
X9.8748Y-6.6244
X9.8748Y-6.7244
X9.8748Y-6.8244
X9.8784Y-1.8748
X9.8784Y-1.9748
X9.8784Y-2.0748
X9.8784Y-2.1748
X9.8784Y-2.2748
X9.8784Y-2.3748
X9.8784Y-2.4748
X10.0148Y-7.2772
X10.0148Y-7.9522
X10.075Y-7.025
X10.0766Y-5.225
X10.0791Y-8.4041
X10.1775Y-8.4041
X10.2614Y-2.1604
X10.2614Y-2.2604
X10.2614Y-2.3604
X10.2614Y-2.4604
X10.2614Y-2.5604
X10.2614Y-2.6604
X10.2614Y-2.7604
X10.2719Y-7.025
X10.2734Y-5.225
X10.3148Y-7.2772
X10.3148Y-7.9522
X10.3189Y-1.9606
X10.4748Y-3.7244
X10.4748Y-3.8244
X10.4748Y-3.9244
X10.4748Y-4.0244
X10.4748Y-4.1244
X10.4748Y-4.2244
X10.4748Y-4.3244
X10.4748Y-4.4244
X10.4748Y-4.5244
X10.4748Y-4.6244
X10.4748Y-4.7244
X10.4748Y-4.8244
X10.4748Y-4.9244
X10.4748Y-5.0244
X10.4748Y-5.5244
X10.4748Y-5.6244
X10.4748Y-5.7244
X10.4748Y-5.8244
X10.4748Y-5.9244
X10.4748Y-6.0244
X10.4748Y-6.1244
X10.4748Y-6.2244
X10.4748Y-6.3244
X10.4748Y-6.4244
X10.4748Y-6.5244
X10.4748Y-6.6244
X10.4748Y-6.7244
X10.4748Y-6.8244
X10.5035Y-7.174
X10.5035Y-7.374
X10.5157Y-1.9606
X10.5614Y-2.1604
X10.5614Y-2.2604
X10.5614Y-2.3604
X10.5614Y-2.4604
X10.5614Y-2.5604
X10.5614Y-2.6604
X10.5614Y-2.7604
X10.6157Y-3.1299
X10.6378Y-7.8488
X10.6378Y-7.9488
X10.6378Y-8.0488
X10.6378Y-8.1488
X10.6378Y-8.2488
X10.6378Y-8.3488
X10.6378Y-8.4488
X10.6378Y-8.5488
X10.7141Y-3.1299
X10.748Y-7.5787
X10.7998Y-3.7244
X10.7998Y-3.8244
X10.7998Y-3.9244
X10.7998Y-4.0244
X10.7998Y-4.1244
X10.7998Y-4.2244
X10.7998Y-4.3244
X10.7998Y-4.4244
X10.7998Y-4.5244
X10.7998Y-4.6244
X10.7998Y-4.7244
X10.7998Y-4.8244
X10.7998Y-4.9244
X10.7998Y-5.0244
X10.8Y-5.525
X10.8Y-5.625
X10.8Y-5.725
X10.8Y-5.825
X10.8Y-5.925
X10.8Y-6.025
X10.8Y-6.125
X10.8Y-6.225
X10.8Y-6.325
X10.8Y-6.425
X10.8Y-6.525
X10.8Y-6.625
X10.8Y-6.725
X10.8Y-6.825
X10.8035Y-7.174
X10.8035Y-7.374
X10.927Y-2.1604
X10.927Y-2.2604
X10.927Y-2.3604
X10.927Y-2.4604
X10.927Y-2.5604
X10.927Y-2.6604
X10.927Y-2.7604
X10.9378Y-7.8488
X10.9378Y-7.9488
X10.9378Y-8.0488
X10.9378Y-8.1488
X10.9378Y-8.2488
X10.9378Y-8.3488
X10.9378Y-8.4488
X10.9378Y-8.5488
X10.9449Y-7.5787
X10.9689Y-1.9606
X11.0016Y-5.225
X11.0266Y-7.025
X11.0311Y-3.1142
X11.1417Y-7.8551
X11.1417Y-7.9551
X11.1417Y-8.0551
X11.1417Y-8.1551
X11.1417Y-8.2551
X11.1417Y-8.3551
X11.1417Y-8.4551
X11.1417Y-8.5551
X11.1657Y-1.9606
X11.1984Y-5.225
X11.2234Y-7.025
X11.227Y-2.1604
X11.227Y-2.2604
X11.227Y-2.3604
X11.227Y-2.4604
X11.227Y-2.5604
X11.227Y-2.6604
X11.227Y-2.7604
X11.3311Y-3.1142
X11.3858Y-7.1811
X11.3998Y-3.7244
X11.3998Y-3.8244
X11.3998Y-3.9244
X11.3998Y-4.0244
X11.3998Y-4.1244
X11.3998Y-4.2244
X11.3998Y-4.3244
X11.3998Y-4.4244
X11.3998Y-4.5244
X11.3998Y-4.6244
X11.3998Y-4.7244
X11.3998Y-4.8244
X11.3998Y-4.9244
X11.3998Y-5.0244
X11.4Y-5.525
X11.4Y-5.625
X11.4Y-5.725
X11.4Y-5.825
X11.4Y-5.925
X11.4Y-6.025
X11.4Y-6.125
X11.4Y-6.225
X11.4Y-6.325
X11.4Y-6.425
X11.4Y-6.525
X11.4Y-6.625
X11.4Y-6.725
X11.4Y-6.825
X11.4173Y-1.748
X11.4374Y-7.3811
X11.4417Y-7.8551
X11.4417Y-7.9551
X11.4417Y-8.0551
X11.4417Y-8.1551
X11.4417Y-8.2551
X11.4417Y-8.3551
X11.4417Y-8.4551
X11.4417Y-8.5551
X11.4693Y-3.4449
X11.5157Y-1.748
X11.5512Y-1.3543
X11.5927Y-2.1604
X11.5927Y-2.2604
X11.5927Y-2.3604
X11.5927Y-2.4604
X11.5927Y-2.5604
X11.5927Y-2.6604
X11.5927Y-2.7604
X11.6339Y-7.8551
X11.6339Y-7.9551
X11.6339Y-8.0551
X11.6339Y-8.1551
X11.6339Y-8.2551
X11.6339Y-8.3551
X11.6339Y-8.4551
X11.6339Y-8.5551
X11.6343Y-7.3811
X11.6439Y-1.9606
X11.6535Y-3.7598
X11.6858Y-7.1811
X11.7141Y-4.9055
X11.752Y-6.1177
X11.752Y-6.4177
X11.7559Y-5.5272
X11.7559Y-5.8272
X11.8124Y-7.1811
X11.8125Y-4.9055
X11.8382Y-7.4528
X11.8407Y-1.9606
X11.8504Y-3.7598
X11.8512Y-1.3543
X11.8693Y-3.4449
X11.8736Y-3.0079
X11.8927Y-2.1604
X11.8927Y-2.2604
X11.8927Y-2.3604
X11.8927Y-2.4604
X11.8927Y-2.5604
X11.8927Y-2.6604
X11.8927Y-2.7604
X11.9339Y-7.8551
X11.9339Y-7.9551
X11.9339Y-8.0551
X11.9339Y-8.1551
X11.9339Y-8.2551
X11.9339Y-8.3551
X11.9339Y-8.4551
X11.9339Y-8.5551
X12.0093Y-7.1811
X12.0587Y-3.3622
X12.075Y-4.925
X12.075Y-5.025
X12.075Y-5.125
X12.075Y-5.225
X12.075Y-5.325
X12.075Y-5.425
X12.075Y-5.525
X12.075Y-5.625
X12.075Y-5.725
X12.075Y-5.825
X12.075Y-5.925
X12.075Y-6.025
X12.075Y-6.125
X12.075Y-6.225
X12.075Y-6.325
X12.075Y-6.425
X12.075Y-6.525
X12.075Y-6.625
X12.075Y-6.725
X12.075Y-6.825
X12.1004Y-3.8248
X12.1004Y-3.9248
X12.1004Y-4.0248
X12.1004Y-4.1248
X12.1004Y-4.2248
X12.1004Y-4.3248
X12.1004Y-4.4248
X12.122Y-7.8504
X12.122Y-7.9504
X12.122Y-8.0504
X12.122Y-8.1504
X12.122Y-8.2504
X12.122Y-8.3504
X12.122Y-8.4504
X12.122Y-8.5504
X12.1382Y-7.4528
X12.1516Y-3.575
X12.1736Y-3.0079
X12.2535Y-7.15
X12.275Y-4.7
X12.3484Y-3.575
X12.3587Y-3.3622
X12.4004Y-3.8248
X12.4004Y-3.9248
X12.4004Y-4.0248
X12.4004Y-4.1248
X12.4004Y-4.2248
X12.4004Y-4.3248
X12.4004Y-4.4248
X12.422Y-7.8504
X12.422Y-7.9504
X12.422Y-8.0504
X12.422Y-8.1504
X12.422Y-8.2504
X12.422Y-8.3504
X12.422Y-8.4504
X12.422Y-8.5504
X12.4457Y-7.15
X12.4719Y-4.7
X12.6102Y-7.8533
X12.6102Y-7.9533
X12.6102Y-8.0533
X12.6102Y-8.1533
X12.6102Y-8.2533
X12.6102Y-8.3533
X12.6102Y-8.4533
X12.675Y-4.925
X12.675Y-5.025
X12.675Y-5.125
X12.675Y-5.225
X12.675Y-5.325
X12.675Y-5.425
X12.675Y-5.525
X12.675Y-5.625
X12.675Y-5.725
X12.675Y-5.825
X12.675Y-5.925
X12.675Y-6.025
X12.675Y-6.125
X12.675Y-6.225
X12.675Y-6.325
X12.675Y-6.425
X12.675Y-6.525
X12.675Y-6.625
X12.675Y-6.725
X12.675Y-6.825
X12.6772Y-4.0114
X12.6772Y-4.3114
X12.7402Y-7.4409
X12.8386Y-7.4409
X12.875Y-5.375
X12.9102Y-7.8533
X12.9102Y-7.9533
X12.9102Y-8.0533
X12.9102Y-8.1533
X12.9102Y-8.2533
X12.9102Y-8.3533
X12.9102Y-8.4533
X12.9266Y-5.625
X13.0157Y-2.7795
X13.0157Y-2.8795
X13.0157Y-2.9795
X13.0157Y-3.0795
X13.0157Y-3.1795
X13.0157Y-3.2795
X13.0157Y-3.3795
X13.0157Y-3.4795
X13.0254Y-5.9002
X13.0254Y-6.0002
X13.0254Y-6.1002
X13.0254Y-6.2002
X13.0254Y-6.3002
X13.0254Y-6.4002
X13.0254Y-6.5002
X13.0254Y-6.6002
X13.0254Y-6.7002
X13.0254Y-6.8002
X13.0504Y-4.2252
X13.0504Y-4.3252
X13.0504Y-4.4252
X13.0504Y-4.5252
X13.0504Y-4.6252
X13.0504Y-4.7252
X13.0504Y-4.8252
X13.0504Y-4.9252
X13.0504Y-5.0252
X13.0504Y-5.1252
X13.0709Y-3.7402
X13.1016Y-3.975
X13.1234Y-5.625
X13.1488Y-7.9825
X13.1488Y-8.1575
X13.1488Y-8.3325
X13.1575Y-7.1535
X13.1575Y-7.3535
X13.1575Y-7.5535
X13.1575Y-7.7535
X13.175Y-5.375
X13.2677Y-3.7402
X13.2984Y-3.975
X13.3157Y-2.7795
X13.3157Y-2.8795
X13.3157Y-2.9795
X13.3157Y-3.0795
X13.3157Y-3.1795
X13.3157Y-3.2795
X13.3157Y-3.3795
X13.3157Y-3.4795
X13.3254Y-5.9002
X13.3254Y-6.0002
X13.3254Y-6.1002
X13.3254Y-6.2002
X13.3254Y-6.3002
X13.3254Y-6.4002
X13.3254Y-6.5002
X13.3254Y-6.6002
X13.3254Y-6.7002
X13.3254Y-6.8002
X13.3504Y-4.2252
X13.3504Y-4.3252
X13.3504Y-4.4252
X13.3504Y-4.5252
X13.3504Y-4.6252
X13.3504Y-4.7252
X13.3504Y-4.8252
X13.3504Y-4.9252
X13.3504Y-5.0252
X13.3504Y-5.1252
X13.4488Y-7.9825
X13.4488Y-8.1575
X13.4488Y-8.3325
X13.4575Y-7.1535
X13.4575Y-7.3535
X13.4575Y-7.5535
X13.4575Y-7.7535
X13.7498Y-5.5244
X13.7498Y-5.6244
X13.7498Y-5.7244
X13.7498Y-5.8244
X13.7498Y-5.9244
X13.7498Y-6.0244
X13.7498Y-6.1244
X13.7498Y-6.2244
X13.7498Y-6.3244
X13.7498Y-6.4244
X13.7498Y-6.5244
X13.7498Y-6.6244
X13.7498Y-6.7244
X13.7498Y-6.8244
X13.8618Y-7.9843
X13.8736Y-7.2217
X13.8736Y-7.4217
X13.8736Y-7.5967
X13.8736Y-7.7717
X13.9254Y-4.1752
X13.9254Y-4.2752
X13.9254Y-4.3752
X13.9254Y-4.4752
X13.9254Y-4.5752
X13.9254Y-4.6752
X13.9254Y-4.7752
X13.9254Y-4.8752
X13.9254Y-4.9752
X13.9254Y-5.0752
X13.9516Y-5.275
X13.9766Y-3.925
X14.0551Y-2.7746
X14.0551Y-2.8746
X14.0551Y-2.9746
X14.0551Y-3.0746
X14.0551Y-3.1746
X14.0551Y-3.2746
X14.0551Y-3.3746
X14.0551Y-3.4746
X14.0551Y-3.5746
X14.0551Y-3.6746
X14.1484Y-5.275
X14.1618Y-7.9843
X14.1734Y-3.925
X14.1736Y-7.2217
X14.1736Y-7.4217
X14.1736Y-7.5967
X14.1736Y-7.7717
X14.2254Y-4.1752
X14.2254Y-4.2752
X14.2254Y-4.3752
X14.2254Y-4.4752
X14.2254Y-4.5752
X14.2254Y-4.6752
X14.2254Y-4.7752
X14.2254Y-4.8752
X14.2254Y-4.9752
X14.2254Y-5.0752
X14.3498Y-5.5244
X14.3498Y-5.6244
X14.3498Y-5.7244
X14.3498Y-5.8244
X14.3498Y-5.9244
X14.3498Y-6.0244
X14.3498Y-6.1244
X14.3498Y-6.2244
X14.3498Y-6.3244
X14.3498Y-6.4244
X14.3498Y-6.5244
X14.3498Y-6.6244
X14.3498Y-6.7244
X14.3498Y-6.8244
X14.3551Y-2.7746
X14.3551Y-2.8746
X14.3551Y-2.9746
X14.3551Y-3.0746
X14.3551Y-3.1746
X14.3551Y-3.2746
X14.3551Y-3.3746
X14.3551Y-3.4746
X14.3551Y-3.5746
X14.3551Y-3.6746
X14.5433Y-3.0591
X14.5433Y-3.2559
T4
X1.4Y-7.275
X1.5Y-7.275
X1.95Y-6.975
X2.25Y-6.975
X4.598Y-7.3309
X4.898Y-7.3309
X6.325Y-4.425
X6.325Y-4.725
X9.125Y-6.85
X9.425Y-6.85
T5
X1.1677Y-3.3781
X1.1677Y-3.4872
X1.1677Y-3.5963
X1.1677Y-3.7053
X1.1717Y-5.8467
X1.1717Y-5.9557
X1.1717Y-6.0648
X1.1717Y-6.1738
X1.2795Y-3.3236
X1.2795Y-3.4327
X1.2795Y-3.5417
X1.2795Y-3.6508
X1.2795Y-3.7598
X1.2835Y-5.7921
X1.2835Y-5.9012
X1.2835Y-6.0102
X1.2835Y-6.1193
X1.2835Y-6.2283
X2.775Y-1.3
X2.875Y-1.3
X3.4547Y-6.9075
X3.4547Y-7.0075
X3.4547Y-7.1075
X3.4862Y-8.5669
X3.5862Y-8.5669
X3.6862Y-8.5669
X3.7862Y-8.5669
X3.8862Y-8.5669
X3.9862Y-8.5669
X4.0862Y-8.5669
X4.1033Y-7.4016
X4.1033Y-7.5016
X4.127Y-7.7431
X4.127Y-7.8431
X4.127Y-7.9431
X4.1862Y-8.5669
X4.2862Y-8.5669
X4.3862Y-8.5669
X4.4171Y-1.2992
X4.4862Y-8.5669
X4.5171Y-1.2992
X4.5862Y-8.5669
X4.6171Y-1.2992
X4.6862Y-8.5669
X4.7171Y-1.2992
X4.7862Y-8.5669
X4.8171Y-1.2992
X4.8862Y-8.5669
X4.9171Y-1.2992
X4.9862Y-8.5669
X5.0171Y-1.2992
X5.1171Y-1.2992
X5.2171Y-1.2992
X5.3171Y-1.2992
X5.4171Y-1.2992
X5.5171Y-1.2992
X5.6171Y-1.2992
X5.7171Y-1.2992
X5.8171Y-1.2992
X5.9171Y-1.2992
X6.0171Y-1.2992
X6.1171Y-1.2992
X6.45Y-1.3
X6.55Y-1.3
X7.25Y-1.3
X7.35Y-1.3
X8.7451Y-1.3321
X8.7451Y-1.4321
X8.8451Y-1.3321
X8.8451Y-1.4321
X8.9451Y-1.3321
X8.9451Y-1.4321
X9.0451Y-1.3321
X9.0451Y-1.4321
X9.1451Y-1.3321
X9.1451Y-1.4321
X9.2451Y-1.3321
X9.2451Y-1.4321
X9.3451Y-1.3321
X9.3451Y-1.4321
X9.4451Y-1.3321
X9.4451Y-1.4321
X9.5451Y-1.3321
X9.5451Y-1.4321
X9.6451Y-1.3321
X9.6451Y-1.4321
X9.7451Y-1.3321
X9.7451Y-1.4321
X9.8451Y-1.3321
X9.8451Y-1.4321
X9.9451Y-1.3321
X9.9451Y-1.4321
X10.0451Y-1.3321
X10.0451Y-1.4321
X10.075Y-3.5
X10.1451Y-1.3321
X10.1451Y-1.4321
X10.175Y-3.5
X10.2451Y-1.3321
X10.2451Y-1.4321
X10.275Y-3.5
X10.3451Y-1.3321
X10.3451Y-1.4321
X10.4451Y-1.3321
X10.4451Y-1.4321
X10.5451Y-1.3321
X10.5451Y-1.4321
X10.6451Y-1.3321
X10.6451Y-1.4321
X10.7451Y-1.3321
X10.7451Y-1.4321
X10.8451Y-1.3321
X10.8451Y-1.4321
X11.025Y-3.5
X11.125Y-3.5
X11.2205Y-1.3622
X11.225Y-3.5
X11.3205Y-1.3622
X12.5797Y-2.4709
X12.5797Y-2.5709
X12.5806Y-2.0398
X12.5806Y-2.2366
X12.6797Y-2.4709
X12.6797Y-2.5709
X12.6806Y-2.0398
X12.6806Y-2.2366
X12.7797Y-2.4709
X12.7797Y-2.5709
X12.7806Y-2.0398
X12.7806Y-2.2366
X12.8797Y-2.4709
X12.8797Y-2.5709
X12.8806Y-2.0398
X12.8806Y-2.2366
X12.9797Y-2.4709
X12.9797Y-2.5709
X12.9806Y-2.0398
X12.9806Y-2.2366
X13.0797Y-2.4709
X13.0797Y-2.5709
X13.0806Y-2.0398
X13.0806Y-2.2366
X13.1797Y-2.4709
X13.1797Y-2.5709
X13.1806Y-2.0398
X13.1806Y-2.2366
X13.2797Y-2.4709
X13.2797Y-2.5709
X13.2806Y-2.0398
X13.2806Y-2.2366
X13.3797Y-2.4709
X13.3797Y-2.5709
X13.3806Y-2.0398
X13.3806Y-2.2366
X13.4797Y-2.4709
X13.4797Y-2.5709
X13.4806Y-2.0398
X13.4806Y-2.2366
X13.5797Y-2.4709
X13.5797Y-2.5709
X13.5806Y-2.0398
X13.5806Y-2.2366
X13.6797Y-2.4709
X13.6797Y-2.5709
X13.6806Y-2.0398
X13.6806Y-2.2366
X13.7797Y-2.4709
X13.7797Y-2.5709
X13.7806Y-2.0398
X13.7806Y-2.2366
X13.8797Y-2.4709
X13.8797Y-2.5709
X13.8806Y-2.0398
X13.8806Y-2.2366
X13.9797Y-2.4709
X13.9797Y-2.5709
X13.9806Y-2.0398
X13.9806Y-2.2366
X14.0797Y-2.4709
X14.0797Y-2.5709
X14.0806Y-2.0398
X14.0806Y-2.2366
X14.1797Y-2.4709
X14.1797Y-2.5709
X14.1806Y-2.0398
X14.1806Y-2.2366
X14.2797Y-2.4709
X14.2797Y-2.5709
X14.2806Y-2.0398
X14.2806Y-2.2366
T6
X1.4Y-7.775
X1.5Y-7.775
X1.6Y-7.775
T7
X1.5827Y-8.3583
X1.7795Y-8.3583
X1.9764Y-8.3583
X2.1732Y-8.3583
T8
X1.2677Y-3.0496
X1.2677Y-4.0339
X1.2717Y-5.5181
X1.2717Y-6.5024
T0
M30
