M48
; DRILL file {KiCad (6.0.6)} date Sat Jan 21 16:10:32 2023
; FORMAT={-:-/ absolute / inch / decimal}
; #@! TF.CreationDate,2023-01-21T16:10:32-06:00
; #@! TF.GenerationSoftware,Kicad,Pcbnew,(6.0.6)
; #@! TF.FileFunction,Plated,1,2,PTH
FMAT,2
INCH
; #@! TA.AperFunction,Plated,PTH,ViaDrill
T1C0.0157
; #@! TA.AperFunction,Plated,PTH,ComponentDrill
T2C0.0295
; #@! TA.AperFunction,Plated,PTH,ComponentDrill
T3C0.0315
; #@! TA.AperFunction,Plated,PTH,ComponentDrill
T4C0.0354
; #@! TA.AperFunction,Plated,PTH,ComponentDrill
T5C0.0394
; #@! TA.AperFunction,Plated,PTH,ComponentDrill
T6C0.0433
; #@! TA.AperFunction,Plated,PTH,ComponentDrill
T7C0.0512
; #@! TA.AperFunction,Plated,PTH,ComponentDrill
T8C0.1260
%
G90
G05
T1
X1.1929Y-6.2717
X1.4646Y-5.752
X1.4921Y-6.248
X1.5197Y-6.3583
X1.5236Y-5.7087
X1.5311Y-6.0035
X1.5325Y-6.1053
X1.6027Y-7.1769
X1.8543Y-5.815
X1.8903Y-2.3463
X1.9389Y-6.7677
X1.987Y-7.2776
X2.0127Y-4.1904
X2.1217Y-6.9421
X2.1634Y-7.6127
X2.2481Y-7.6288
X2.2721Y-2.9085
X2.2721Y-6.8394
X2.2764Y-7.0967
X2.3469Y-2.1303
X2.3982Y-2.1259
X2.4037Y-7.4865
X2.4096Y-7.6813
X2.423Y-7.5584
X2.466Y-6.0101
X2.4848Y-7.9189
X2.5675Y-7.6511
X2.6503Y-7.6254
X2.689Y-1.2598
X2.724Y-7.7156
X2.7388Y-3.7727
X2.7417Y-9.6371
X2.7623Y-3.1149
X2.7687Y-8.9878
X2.8071Y-6.9479
X2.8401Y-7.9579
X2.8456Y-3.1327
X2.8602Y-1.6476
X2.9033Y-4.0131
X2.9342Y-4.5945
X2.9359Y-7.8789
X3.0878Y-1.8177
X3.1039Y-6.9021
X3.1378Y-7.6774
X3.1456Y-2.9277
X3.2304Y-2.8969
X3.2339Y-6.766
X3.2589Y-1.7399
X3.2593Y-3.115
X3.296Y-7.6129
X3.3426Y-8.1896
X3.3461Y-9.1322
X3.3575Y-9.246
X3.3601Y-9.6668
X3.367Y-7.628
X3.3766Y-8.1512
X3.3799Y-9.5033
X3.3835Y-4.7803
X3.3875Y-8.6279
X3.4189Y-7.4409
X3.4279Y-7.224
X3.4361Y-7.2746
X3.4376Y-8.1181
X3.4662Y-8.1452
X3.5186Y-9.0882
X3.536Y-7.2233
X3.6119Y-5.3705
X3.6484Y-5.4074
X3.7647Y-5.1513
X3.893Y-4.9668
X3.9706Y-6.2786
X3.9808Y-6.2206
X3.9923Y-6.035
X4.0282Y-9.7739
X4.0984Y-1.2874
X4.1829Y-6.475
X4.2203Y-6.0839
X4.2758Y-5.9695
X4.2844Y-7.6787
X4.3207Y-9.0088
X4.3384Y-5.0595
X4.339Y-1.2656
X4.3556Y-7.2212
X4.3603Y-5.2241
X4.3861Y-8.5118
X4.3867Y-7.3746
X4.4595Y-3.1844
X4.4955Y-6.766
X4.5308Y-9.4545
X4.5746Y-6.9753
X4.5836Y-1.5528
X4.6171Y-6.9809
X4.6189Y-8.8741
X4.6242Y-1.9623
X4.6421Y-5.2079
X4.6902Y-1.7741
X4.6997Y-9.0077
X4.7176Y-1.7084
X4.7882Y-8.1145
X4.8112Y-2.1797
X4.8326Y-7.1539
X4.9074Y-1.89
X4.9087Y-2.7217
X4.91Y-1.7487
X4.9946Y-1.6963
X5.0825Y-6.7325
X5.1424Y-1.5439
X5.2361Y-8.8219
X5.2737Y-6.8435
X5.3548Y-2.3203
X5.3745Y-5.7441
X5.421Y-1.8569
X5.425Y-6.1729
X5.4497Y-5.527
X5.4713Y-6.2604
X5.4771Y-1.4332
X5.4828Y-4.5409
X5.4934Y-5.5285
X5.5275Y-1.4121
X5.5428Y-3.7023
X5.5468Y-6.0032
X5.5539Y-3.1241
X5.5581Y-6.6127
X5.5823Y-6.1965
X5.5937Y-5.9384
X5.6375Y-1.7226
X5.6438Y-4.3094
X5.6883Y-1.4154
X5.6998Y-8.5609
X5.7196Y-6.8191
X5.7413Y-1.8962
X5.8207Y-4.5859
X5.8282Y-5.1012
X5.8393Y-1.5616
X5.9132Y-8.1841
X5.9303Y-4.6511
X5.9768Y-8.7746
X6.0162Y-8.7569
X6.0253Y-5.0207
X6.084Y-1.5616
X6.092Y-8.1153
X6.1118Y-2.2062
X6.1297Y-1.4033
X6.1325Y-8.8877
X6.1946Y-9.3073
X6.2322Y-4.5474
X6.246Y-1.8465
X6.2669Y-3.9386
X6.3315Y-5.4136
X6.3519Y-8.7919
X6.3672Y-8.9496
X6.4203Y-7.1539
X6.5042Y-7.2763
X6.5624Y-4.7215
X6.5816Y-6.7762
X6.5841Y-5.3146
X6.6469Y-5.1585
X6.6554Y-3.7023
X6.6786Y-5.0625
X6.7357Y-4.4868
X6.8545Y-5.2618
X6.8567Y-9.0984
X6.8601Y-3.8481
X6.8699Y-9.2798
X6.878Y-4.8215
X6.8931Y-9.1347
X6.9334Y-1.9929
X6.9363Y-3.095
X7.0568Y-5.5283
X7.087Y-3.7907
X7.0923Y-3.0661
X7.1596Y-4.9713
X7.1733Y-6.8064
X7.1733Y-6.9577
X7.1819Y-5.1026
X7.2313Y-4.598
X7.2575Y-3.7131
X7.2584Y-6.093
X7.2664Y-5.8966
X7.2891Y-8.6152
X7.2964Y-5.6299
X7.5008Y-8.4036
X7.5269Y-6.8546
X7.5798Y-5.6796
X7.64Y-3.7567
X7.6785Y-3.8481
X7.6978Y-4.0723
X7.7237Y-5.577
X7.7287Y-6.2608
X7.8417Y-5.977
X7.9018Y-6.8187
X7.924Y-4.9347
X7.9288Y-8.43
X7.953Y-4.7713
X7.9583Y-9.6497
X8.0998Y-7.223
X8.1308Y-5.5764
X8.1439Y-8.1075
X8.1579Y-1.8314
X8.1591Y-3.6914
X8.1865Y-5.1662
X8.2213Y-5.187
X8.2368Y-5.0001
X8.2464Y-3.6658
X8.2565Y-5.1508
X8.2755Y-5.314
X8.3073Y-3.641
X8.3128Y-5.2785
X8.3308Y-4.6189
X8.3544Y-4.5597
X8.372Y-4.5051
X8.4023Y-5.1587
X8.45Y-4.9347
X8.4576Y-2.67
X8.4576Y-5.7267
X8.4599Y-5.6457
X8.474Y-3.6741
X8.4774Y-5.114
X8.5151Y-3.3687
X8.6204Y-5.6713
X8.6222Y-4.9213
X8.6261Y-5.7896
X8.7102Y-9.7066
X8.7151Y-5.94
X8.7152Y-1.8836
X8.7306Y-6.5648
X8.7306Y-6.6054
X8.7332Y-7.1345
X8.7525Y-3.6594
X8.7605Y-6.3023
X8.7961Y-3.3571
X8.8149Y-7.9994
X8.8251Y-9.3474
X8.8388Y-1.6972
X8.8442Y-7.1769
X8.8449Y-2.265
X8.8656Y-8.4585
X8.8731Y-7.2695
X8.9192Y-7.4484
X8.9386Y-7.524
X8.96Y-7.3213
X8.9665Y-7.6058
X8.9989Y-3.3824
X9.0278Y-5.2441
X9.0296Y-6.7213
X9.037Y-7.0913
X9.0563Y-1.5617
X9.0737Y-3.2604
X9.0749Y-5.3311
X9.0979Y-7.5089
X9.1045Y-1.4836
X9.1066Y-8.1115
X9.1106Y-7.9225
X9.1117Y-9.1194
X9.1129Y-4.7713
X9.1308Y-4.6957
X9.146Y-8.0565
X9.185Y-5.2261
X9.1905Y-1.9425
X9.1999Y-6.5611
X9.237Y-8.2528
X9.2386Y-3.1445
X9.2484Y-5.1237
X9.2562Y-6.397
X9.2734Y-3.3824
X9.2753Y-8.0241
X9.288Y-7.1244
X9.2925Y-8.5797
X9.3244Y-4.9096
X9.3428Y-3.6594
X9.3472Y-8.6985
X9.3634Y-8.5696
X9.3771Y-3.5374
X9.379Y-2.6824
X9.3837Y-3.4106
X9.3851Y-1.5977
X9.3979Y-2.897
X9.4138Y-1.7862
X9.4156Y-1.6282
X9.4216Y-2.2456
X9.4457Y-7.2538
X9.45Y-9.785
X9.4518Y-9.8256
X9.452Y-8.3769
X9.4543Y-5.4892
X9.4591Y-2.6517
X9.4709Y-5.9211
X9.4739Y-2.9337
X9.4751Y-6.2297
X9.4775Y-3.468
X9.4779Y-9.337
X9.4804Y-9.8529
X9.4808Y-8.4289
X9.484Y-6.101
X9.4874Y-6.5915
X9.4924Y-5.3945
X9.5019Y-2.7108
X9.5035Y-1.8261
X9.5072Y-5.1989
X9.5099Y-4.515
X9.5187Y-2.4679
X9.5254Y-2.3936
X9.5407Y-5.7467
X9.5565Y-8.1971
X9.5575Y-5.9654
X9.5662Y-6.4441
X9.5665Y-2.789
X9.5806Y-6.1467
X9.5951Y-1.9484
X9.5951Y-7.1061
X9.5951Y-7.5075
X9.5955Y-7.8278
X9.6052Y-8.148
X9.6256Y-8.399
X9.6305Y-2.6946
X9.6451Y-2.8255
X9.6474Y-9.5564
X9.6482Y-3.5501
X9.666Y-2.7907
X9.685Y-9.8523
X9.6867Y-7.1873
X9.7093Y-9.7695
X9.7195Y-9.7072
X9.7203Y-1.8546
X9.7267Y-9.8527
X9.7425Y-5.2069
X9.7543Y-2.0675
X9.7557Y-5.2477
X9.7791Y-6.1967
X9.7791Y-5.6949
X9.8001Y-5.3626
X9.8178Y-6.6757
X9.8233Y-7.2264
X9.8512Y-6.8321
X9.8676Y-2.0192
X9.8719Y-5.1237
X9.8873Y-3.7554
X9.8899Y-2.5156
X9.8929Y-5.1605
X9.905Y-4.3752
X9.9117Y-4.571
X9.9735Y-2.6806
X9.9763Y-6.9182
X9.9776Y-4.6454
X10.0479Y-2.7469
X10.1037Y-3.2096
X10.1058Y-5.5653
X10.1284Y-8.069
X10.1367Y-8.8695
X10.1368Y-7.8923
X10.1572Y-4.5378
X10.161Y-1.8159
X10.1659Y-7.5568
X10.1752Y-1.7523
X10.1807Y-4.4924
X10.1868Y-4.1488
X10.2006Y-6.9804
X10.2362Y-5.4298
X10.2557Y-5.1029
X10.2587Y-1.7868
X10.2763Y-7.9731
X10.2914Y-1.4684
X10.3019Y-2.092
X10.327Y-8.7871
X10.3566Y-6.9761
X10.3832Y-6.8484
X10.3847Y-8.4053
X10.388Y-3.9011
X10.398Y-3.4124
X10.4221Y-2.1604
X10.4293Y-7.1873
X10.4611Y-3.8247
X10.4838Y-5.6891
X10.4895Y-1.7227
X10.4915Y-7.3255
X10.492Y-1.5938
X10.496Y-6.1967
X10.5022Y-7.0676
X10.5183Y-8.407
X10.5325Y-8.0922
X10.5404Y-1.6066
X10.5723Y-9.2635
X10.6114Y-7.0302
X10.6157Y-3.9467
X10.6195Y-6.7994
X10.6321Y-1.8924
X10.6389Y-3.6773
X10.6553Y-1.557
X10.6562Y-2.0212
X10.722Y-4.4295
X10.7843Y-8.5123
X10.789Y-3.3526
X10.8017Y-2.1331
X10.8108Y-8.4829
X10.8504Y-8.4649
X10.8677Y-2.7956
X10.9035Y-1.9106
X10.9563Y-1.3113
X11.0035Y-1.2915
X11.022Y-4.7574
X11.0477Y-9.4026
X11.0537Y-3.2846
X11.0767Y-8.4884
X11.1029Y-3.0836
X11.1228Y-5.9187
X11.1311Y-5.7909
X11.1315Y-3.0477
X11.1485Y-5.6356
X11.1532Y-4.8893
X11.1646Y-5.6922
X11.1663Y-3.609
X11.167Y-1.7539
X11.1799Y-3.4091
X11.1801Y-6.649
X11.1824Y-1.4891
X11.205Y-4.3845
X11.2661Y-9.464
X11.2795Y-1.3203
X11.3415Y-5.0656
X11.3429Y-2.4698
X11.3434Y-6.775
X11.3571Y-3.1116
X11.3778Y-2.1132
X11.379Y-2.5734
X11.3933Y-8.7868
X11.4667Y-6.6693
X11.4967Y-6.6952
X11.5094Y-1.6568
X11.5111Y-7.1061
X11.5288Y-6.9323
X11.5328Y-6.5823
X11.6216Y-1.7152
X11.6684Y-1.6792
X11.6717Y-8.6318
X11.6732Y-8.6988
X11.6872Y-1.4187
X11.7197Y-4.7724
X11.7274Y-1.6051
X11.7559Y-8.902
X11.784Y-6.5013
X11.7977Y-4.6827
X11.848Y-8.3446
X11.8569Y-1.8649
X11.8766Y-3.3425
X11.8841Y-1.6227
X11.8934Y-3.6889
X11.8955Y-3.6338
X11.8965Y-1.8179
X11.9398Y-7.0278
X11.9407Y-4.0929
X11.9419Y-7.122
X11.9564Y-1.7716
X12.0928Y-7.742
X12.1428Y-3.9824
X12.1483Y-6.0665
X12.1527Y-1.7194
X12.1713Y-3.3664
X12.182Y-7.096
X12.2154Y-2.4378
X12.2232Y-3.9995
X12.2634Y-5.0449
X12.2711Y-2.2382
X12.3048Y-6.5481
X12.3067Y-3.3724
X12.3111Y-7.5826
X12.3154Y-3.5446
X12.3205Y-3.4991
X12.3286Y-3.9028
X12.3334Y-6.665
X12.3356Y-3.1045
X12.3361Y-5.9
X12.353Y-5.8414
X12.3776Y-2.3186
X12.3802Y-7.1041
X12.3905Y-6.7626
X12.3919Y-6.8932
X12.4055Y-2.1941
X12.4064Y-2.3812
X12.4177Y-1.5672
X12.4208Y-7.0213
X12.4396Y-6.0035
X12.4732Y-2.5038
X12.4975Y-7.1793
X12.4983Y-1.6176
X12.5004Y-1.5381
X12.5191Y-7.2156
X12.5206Y-1.9731
X12.5223Y-2.3527
X12.5652Y-7.3147
X12.5706Y-3.5549
X12.573Y-1.8386
X12.5812Y-5.0273
X12.583Y-7.248
X12.6164Y-2.114
X12.6204Y-6.1687
X12.6226Y-1.6856
X12.6288Y-6.2683
X12.6436Y-1.9001
X12.6661Y-3.5384
X12.6722Y-3.278
X12.6896Y-1.9349
X12.7275Y-1.497
X12.7582Y-1.6856
X12.7606Y-2.114
X12.7607Y-2.3911
X12.7733Y-6.486
X12.787Y-1.8386
X12.7998Y-1.5371
X12.803Y-6.7225
X12.8082Y-6.13
X12.8187Y-1.721
X12.8214Y-1.4925
X12.8593Y-1.687
X12.902Y-3.257
X12.9033Y-5.4743
X12.9241Y-2.6136
X12.9287Y-5.8711
X12.9578Y-2.3154
X12.9594Y-5.6121
X12.9619Y-2.9703
X12.965Y-1.8028
X13.0085Y-6.299
X13.0306Y-2.9316
X13.0605Y-6.1873
X13.1537Y-1.5726
X13.1666Y-2.5688
X13.171Y-1.9457
X13.1792Y-1.8694
X13.2106Y-6.3496
X13.2192Y-3.1923
X13.2762Y-1.7761
X13.3053Y-1.7188
X13.3168Y-9.0988
X13.3206Y-2.95
X13.3346Y-1.7491
X13.3411Y-6.501
X13.3786Y-9.1701
X13.398Y-2.7163
X13.3991Y-1.8047
X13.4185Y-6.4785
X13.4285Y-2.95
X13.4432Y-6.6022
X13.5359Y-1.8644
X13.5365Y-6.511
X13.5368Y-2.5633
X13.5394Y-2.8747
X13.5707Y-6.5389
X13.5765Y-7.2799
X13.6201Y-2.0538
X13.7296Y-2.0823
X13.7488Y-1.5169
X13.7637Y-3.4113
X13.8131Y-8.8107
X13.8267Y-2.7794
X13.8488Y-1.5168
X13.8541Y-2.6151
X13.8738Y-2.6511
X13.8988Y-1.9126
X13.8995Y-7.0873
X13.9505Y-8.1185
X13.9715Y-2.5358
X13.9945Y-8.2813
X14.0096Y-1.7482
X14.0169Y-2.8917
X14.0188Y-2.6511
X14.0574Y-2.4825
X14.0704Y-2.5219
X14.0798Y-5.6735
X14.0928Y-1.8797
X14.0989Y-3.2226
X14.1301Y-2.5444
X14.1598Y-2.8717
X14.173Y-2.4698
X14.1873Y-2.5358
X14.2068Y-2.8504
X14.2286Y-1.6243
X14.2594Y-1.7424
X14.2601Y-1.8332
X14.273Y-1.6663
X14.2736Y-6.5578
X14.2937Y-1.8933
X14.3296Y-5.6628
X14.3444Y-5.9259
X14.3661Y-2.7138
X14.3948Y-2.7408
X14.4378Y-2.785
X14.4392Y-1.8567
X14.4499Y-7.7754
X14.5203Y-1.8152
X14.5319Y-1.9338
X14.5597Y-2.9182
X14.677Y-1.7454
T2
X2.6075Y-1.8315
X2.6575Y-1.7815
X2.7075Y-1.8315
X2.887Y-1.8315
X2.937Y-1.7815
X2.987Y-1.8315
X5.2413Y-8.0559
X5.2913Y-8.0059
X5.3413Y-8.0559
X12.6508Y-3.7567
X12.7008Y-3.7067
X12.7508Y-3.7567
T3
X1.2161Y-8.2323
X1.3425Y-6.7598
X1.4406Y-3.6811
X1.4445Y-2.9646
X1.4449Y-3.9449
X1.4524Y-3.2205
X1.4545Y-2.1024
X1.5016Y-2.475
X1.5161Y-8.2323
X1.5333Y-2.1024
X1.5394Y-6.7598
X1.575Y-1.525
X1.6126Y-8.7598
X1.6165Y-9.0276
X1.6984Y-2.475
X1.7406Y-3.6811
X1.7445Y-2.9646
X1.7449Y-3.9449
X1.748Y-5.6053
X1.748Y-5.7053
X1.748Y-5.8053
X1.748Y-5.9053
X1.748Y-6.0053
X1.748Y-6.1053
X1.748Y-6.2053
X1.748Y-6.3053
X1.748Y-6.4053
X1.748Y-6.5053
X1.7524Y-3.2205
X1.8575Y-3.4803
X1.875Y-1.525
X1.8894Y-2.9646
X1.8898Y-3.685
X1.8898Y-3.785
X1.8898Y-3.885
X1.8898Y-3.985
X1.9016Y-3.2205
X1.95Y-7.175
X1.9646Y-1.7746
X1.9646Y-1.8746
X1.9646Y-1.9746
X1.9646Y-2.0746
X1.9646Y-2.1746
X1.9646Y-2.2746
X1.9646Y-2.3746
X1.9646Y-2.4746
X1.9724Y-2.6732
X2.0016Y-1.525
X2.0016Y-6.775
X2.0079Y-6.5709
X2.0783Y-5.315
X2.0787Y-5.5787
X2.0787Y-5.6787
X2.0787Y-5.7787
X2.0787Y-5.8787
X2.0984Y-3.2205
X2.1575Y-3.4803
X2.1693Y-2.6732
X2.1894Y-2.9646
X2.1898Y-3.685
X2.1898Y-3.785
X2.1898Y-3.885
X2.1898Y-3.985
X2.1984Y-1.525
X2.1984Y-6.775
X2.2047Y-6.5709
X2.2126Y-8.7598
X2.2165Y-9.0276
X2.2283Y-3.2244
X2.25Y-7.175
X2.2646Y-1.7746
X2.2646Y-1.8746
X2.2646Y-1.9746
X2.2646Y-2.0746
X2.2646Y-2.1746
X2.2646Y-2.2746
X2.2646Y-2.3746
X2.2646Y-2.4746
X2.3539Y-3.7795
X2.3539Y-4.2835
X2.3783Y-5.315
X2.3787Y-5.5787
X2.3787Y-5.6787
X2.3787Y-5.7787
X2.3787Y-5.8787
X2.4016Y-4.0197
X2.4094Y-3.5197
X2.4252Y-3.2244
X2.5276Y-2.1398
X2.5276Y-2.2398
X2.5276Y-2.3398
X2.563Y-3.2244
X2.5984Y-4.0197
X2.6063Y-3.5197
X2.626Y-2.7717
X2.6407Y-7.9429
X2.6407Y-8.0429
X2.6407Y-8.1429
X2.6407Y-8.2429
X2.6407Y-8.3429
X2.6407Y-8.4429
X2.6407Y-8.5429
X2.6407Y-8.6429
X2.6407Y-8.7429
X2.6407Y-8.8429
X2.6407Y-8.9429
X2.6407Y-9.0429
X2.6407Y-9.1429
X2.6407Y-9.2429
X2.6407Y-9.3429
X2.6407Y-9.4429
X2.6417Y-7.7283
X2.6539Y-3.7795
X2.6539Y-4.2835
X2.689Y-5.5817
X2.689Y-5.6817
X2.689Y-5.7817
X2.689Y-5.8817
X2.689Y-5.9817
X2.689Y-6.0817
X2.689Y-6.1817
X2.7244Y-2.7717
X2.7323Y-5.3268
X2.7441Y-6.5512
X2.7598Y-3.2244
X2.7713Y-3.5157
X2.8276Y-2.1398
X2.8276Y-2.2398
X2.8276Y-2.3398
X2.8307Y-3.7717
X2.8386Y-7.7283
X2.8425Y-6.5512
X2.8894Y-3.2283
X2.9291Y-5.3268
X2.9724Y-2.7874
X2.989Y-5.5817
X2.989Y-5.6817
X2.989Y-5.7817
X2.989Y-5.8817
X2.989Y-5.9817
X2.989Y-6.0817
X2.989Y-6.1817
X2.9957Y-7.5394
X3.0276Y-3.7717
X3.0315Y-2.1398
X3.0315Y-2.2398
X3.0315Y-2.3398
X3.0713Y-3.5157
X3.1693Y-2.7874
X3.1894Y-3.2283
X3.2407Y-7.9429
X3.2407Y-8.0429
X3.2407Y-8.1429
X3.2407Y-8.2429
X3.2407Y-8.3429
X3.2407Y-8.4429
X3.2407Y-8.5429
X3.2407Y-8.6429
X3.2407Y-8.7429
X3.2407Y-8.8429
X3.2407Y-8.9429
X3.2407Y-9.0429
X3.2407Y-9.1429
X3.2407Y-9.2429
X3.2407Y-9.3429
X3.2407Y-9.4429
X3.2957Y-7.5394
X3.3315Y-2.1398
X3.3315Y-2.2398
X3.3315Y-2.3398
X3.4606Y-8.7362
X3.4606Y-8.8362
X3.4606Y-8.9362
X3.4606Y-9.0362
X3.4606Y-9.1362
X3.4606Y-9.2362
X3.4606Y-9.3362
X3.4606Y-9.4362
X3.5417Y-1.748
X3.5417Y-2.0157
X3.5425Y-2.2756
X3.5496Y-3.0433
X3.5535Y-2.7874
X3.5535Y-3.2992
X3.5543Y-2.5315
X3.7606Y-8.7362
X3.7606Y-8.8362
X3.7606Y-8.9362
X3.7606Y-9.0362
X3.7606Y-9.1362
X3.7606Y-9.2362
X3.7606Y-9.3362
X3.7606Y-9.4362
X3.9843Y-6.1142
X3.9878Y-5.8543
X3.9882Y-4.8465
X3.9882Y-5.6024
X3.9921Y-4.5945
X3.9961Y-5.1142
X3.9961Y-5.3583
X4.1047Y-9.5433
X4.1417Y-1.748
X4.1417Y-2.0157
X4.1425Y-2.2756
X4.1496Y-3.0433
X4.1535Y-2.7874
X4.1535Y-3.2992
X4.1543Y-2.5315
X4.2047Y-9.5433
X4.2669Y-1.748
X4.2791Y-2.7874
X4.2831Y-3.0433
X4.2843Y-6.1142
X4.287Y-3.2992
X4.2878Y-5.8543
X4.2882Y-4.8465
X4.2882Y-5.6024
X4.2921Y-4.5945
X4.2961Y-5.1142
X4.2961Y-5.3583
X4.3047Y-9.5433
X4.4047Y-9.5433
X4.4094Y-7.7628
X4.4094Y-7.8628
X4.4094Y-7.9628
X4.4094Y-8.0628
X4.4094Y-8.1628
X4.4094Y-8.2628
X4.4094Y-8.3628
X4.4646Y-7.5276
X4.4839Y-6.126
X4.4874Y-6.3189
X4.4921Y-2.1768
X4.4921Y-2.4768
X4.4996Y-5.0079
X4.4996Y-5.1079
X4.4996Y-5.2079
X4.4996Y-5.3079
X4.4996Y-5.4079
X4.4996Y-5.5079
X4.4996Y-5.6079
X4.5047Y-9.5433
X4.5555Y-4.7638
X4.5669Y-1.748
X4.5705Y-8.9449
X4.5705Y-9.2362
X4.5791Y-2.7874
X4.5831Y-3.0433
X4.587Y-3.2992
X4.6047Y-9.5433
X4.6614Y-7.5276
X4.7047Y-9.5433
X4.7094Y-7.7628
X4.7094Y-7.8628
X4.7094Y-7.9628
X4.7094Y-8.0628
X4.7094Y-8.1628
X4.7094Y-8.2628
X4.7094Y-8.3628
X4.7402Y-1.8898
X4.7402Y-1.9898
X4.7402Y-2.0898
X4.7402Y-2.1898
X4.7402Y-2.2898
X4.7402Y-2.3898
X4.7402Y-2.4898
X4.7402Y-2.5898
X4.7524Y-4.7638
X4.7839Y-6.126
X4.7874Y-6.3189
X4.7917Y-2.7898
X4.7996Y-5.0079
X4.7996Y-5.1079
X4.7996Y-5.2079
X4.7996Y-5.3079
X4.7996Y-5.4079
X4.7996Y-5.5079
X4.7996Y-5.6079
X4.8047Y-9.5433
X4.8071Y-3.0669
X4.8071Y-3.2638
X4.8705Y-8.9449
X4.8705Y-9.2362
X4.9047Y-9.5433
X4.9886Y-2.7898
X5.0047Y-9.5433
X5.0402Y-1.8898
X5.0402Y-1.9898
X5.0402Y-2.0898
X5.0402Y-2.1898
X5.0402Y-2.2898
X5.0402Y-2.3898
X5.0402Y-2.4898
X5.0402Y-2.5898
X5.0508Y-7.4252
X5.097Y-1.6772
X5.1211Y-4.6305
X5.1211Y-4.7305
X5.1211Y-4.8305
X5.1211Y-4.9305
X5.1211Y-5.0305
X5.1211Y-5.1305
X5.1211Y-5.2305
X5.1211Y-5.3305
X5.1211Y-5.4305
X5.1211Y-5.5305
X5.1211Y-5.6305
X5.1211Y-5.7305
X5.1211Y-5.8305
X5.1211Y-5.9305
X5.1211Y-6.0305
X5.1211Y-6.1305
X5.1211Y-6.2305
X5.1211Y-6.3305
X5.1211Y-6.4305
X5.1211Y-6.5305
X5.197Y-1.6772
X5.2713Y-2.0787
X5.2713Y-2.3228
X5.2893Y-7.0
X5.297Y-1.6772
X5.3226Y-4.3555
X5.3508Y-7.4252
X5.3877Y-7.0
X5.3898Y-9.2018
X5.3898Y-9.3018
X5.3898Y-9.4018
X5.3898Y-9.5018
X5.3898Y-9.6018
X5.397Y-1.6772
X5.4563Y-8.4331
X5.497Y-1.6772
X5.5195Y-4.3555
X5.5713Y-2.0787
X5.5713Y-2.3228
X5.597Y-1.6772
X5.6898Y-9.2018
X5.6898Y-9.3018
X5.6898Y-9.4018
X5.6898Y-9.5018
X5.6898Y-9.6018
X5.6925Y-2.5591
X5.6965Y-2.3228
X5.697Y-1.6772
X5.7004Y-2.0827
X5.7211Y-4.6305
X5.7211Y-4.7305
X5.7211Y-4.8305
X5.7211Y-4.9305
X5.7211Y-5.0305
X5.7211Y-5.1305
X5.7211Y-5.2305
X5.7211Y-5.3305
X5.7211Y-5.4305
X5.7211Y-5.5305
X5.7211Y-5.6305
X5.7211Y-5.7305
X5.7211Y-5.8305
X5.7211Y-5.9305
X5.7211Y-6.0305
X5.7211Y-6.1305
X5.7211Y-6.2305
X5.7211Y-6.3305
X5.7211Y-6.4305
X5.7211Y-6.5305
X5.7563Y-8.4331
X5.797Y-1.6772
X5.811Y-1.8465
X5.897Y-1.6772
X5.952Y-9.0059
X5.952Y-9.2059
X5.952Y-9.3809
X5.952Y-9.5559
X5.952Y-9.7559
X5.9925Y-2.5591
X5.9965Y-2.3228
X5.997Y-1.6772
X6.0004Y-2.0827
X6.0079Y-1.8465
X6.032Y-5.698
X6.1305Y-5.698
X6.1488Y-3.9213
X6.1488Y-4.2213
X6.1488Y-4.5213
X6.2087Y-7.8927
X6.2087Y-7.9927
X6.2087Y-8.0927
X6.2087Y-8.1927
X6.2087Y-8.2927
X6.2087Y-8.3927
X6.2087Y-8.4927
X6.252Y-9.0059
X6.252Y-9.2059
X6.252Y-9.3809
X6.252Y-9.5559
X6.252Y-9.7559
X6.2677Y-7.6339
X6.4323Y-5.2575
X6.4488Y-4.6213
X6.4488Y-4.9213
X6.4646Y-7.6339
X6.5004Y-4.2213
X6.5004Y-4.4213
X6.5004Y-6.1213
X6.5004Y-6.4213
X6.5004Y-6.7213
X6.5087Y-7.8927
X6.5087Y-7.9927
X6.5087Y-8.0927
X6.5087Y-8.1927
X6.5087Y-8.2927
X6.5087Y-8.3927
X6.5087Y-8.4927
X6.5531Y-5.6963
X6.6515Y-5.6963
X6.6972Y-4.2213
X6.6972Y-4.4213
X6.6972Y-6.1213
X6.6972Y-6.4213
X6.6972Y-6.7213
X6.7323Y-5.2575
X6.7488Y-3.9213
X6.7488Y-4.6213
X6.7488Y-4.9213
X6.7677Y-9.0236
X6.7677Y-9.1236
X6.7677Y-9.2236
X6.7677Y-9.3236
X6.7677Y-9.4236
X6.7677Y-9.5236
X6.7677Y-9.6236
X6.7677Y-9.7236
X6.8386Y-8.7795
X6.9134Y-2.3455
X6.9134Y-2.4455
X6.9134Y-2.5455
X6.9134Y-2.6455
X6.9134Y-2.7455
X6.9134Y-2.8455
X6.9134Y-2.9455
X6.9528Y-3.1811
X6.9724Y-2.0787
X6.9988Y-5.3874
X6.9988Y-6.7213
X6.9988Y-7.0213
X6.9992Y-4.2715
X6.9992Y-4.3715
X6.9992Y-4.4715
X6.9992Y-4.5715
X6.9992Y-4.6715
X6.9992Y-4.7715
X6.9992Y-4.8715
X6.9992Y-4.9715
X6.9992Y-5.0715
X6.9992Y-5.1715
X7.0354Y-8.7795
X7.0423Y-3.6075
X7.0469Y-6.4661
X7.0488Y-3.9213
X7.0504Y-7.2213
X7.0677Y-9.0236
X7.0677Y-9.1236
X7.0677Y-9.2236
X7.0677Y-9.3236
X7.0677Y-9.4236
X7.0677Y-9.5236
X7.0677Y-9.6236
X7.0677Y-9.7236
X7.1496Y-3.1811
X7.1693Y-2.0787
X7.2134Y-2.3455
X7.2134Y-2.4455
X7.2134Y-2.5455
X7.2134Y-2.6455
X7.2134Y-2.7455
X7.2134Y-2.8455
X7.2134Y-2.9455
X7.2392Y-3.6075
X7.2409Y-3.9213
X7.2437Y-6.4661
X7.2472Y-7.2213
X7.2988Y-5.3874
X7.2988Y-6.7213
X7.2988Y-7.0213
X7.2992Y-4.2715
X7.2992Y-4.3715
X7.2992Y-4.4715
X7.2992Y-4.5715
X7.2992Y-4.6715
X7.2992Y-4.7715
X7.2992Y-4.8715
X7.2992Y-4.9715
X7.2992Y-5.0715
X7.2992Y-5.1715
X7.4488Y-9.2008
X7.4488Y-9.5008
X7.5488Y-3.9213
X7.6128Y-3.6154
X7.6374Y-7.5291
X7.6488Y-4.2213
X7.6488Y-4.3213
X7.6488Y-4.4213
X7.6488Y-4.5213
X7.6488Y-4.6213
X7.6488Y-4.7213
X7.6488Y-4.8213
X7.6488Y-4.9213
X7.6488Y-5.0213
X7.6488Y-5.1213
X7.6488Y-5.2213
X7.6488Y-5.3213
X7.6488Y-5.4213
X7.6488Y-5.5213
X7.6488Y-5.6213
X7.6488Y-5.7213
X7.6488Y-5.8213
X7.6488Y-5.9213
X7.6488Y-6.0213
X7.6488Y-6.1213
X7.6488Y-6.2213
X7.6488Y-6.3213
X7.6488Y-6.4213
X7.6488Y-6.5213
X7.6488Y-6.6213
X7.6488Y-6.7213
X7.6488Y-6.8213
X7.6488Y-6.9213
X7.6488Y-7.0213
X7.6488Y-7.1213
X7.6488Y-7.2213
X7.6488Y-7.3213
X7.752Y-2.3465
X7.752Y-2.4465
X7.752Y-2.5465
X7.752Y-2.6465
X7.752Y-2.7465
X7.752Y-2.8465
X7.752Y-2.9465
X7.752Y-3.0465
X7.7598Y-9.0197
X7.7598Y-9.1197
X7.7598Y-9.2197
X7.7598Y-9.3197
X7.7598Y-9.4197
X7.7598Y-9.5197
X7.7598Y-9.6197
X7.7598Y-9.7197
X7.8071Y-2.0787
X7.815Y-3.2677
X7.8189Y-8.748
X7.8343Y-7.5291
X7.8488Y-3.9213
X7.9128Y-3.6154
X8.0039Y-2.0787
X8.0118Y-3.2677
X8.0157Y-8.748
X8.052Y-2.3465
X8.052Y-2.4465
X8.052Y-2.5465
X8.052Y-2.6465
X8.052Y-2.7465
X8.052Y-2.8465
X8.052Y-2.9465
X8.052Y-3.0465
X8.0598Y-9.0197
X8.0598Y-9.1197
X8.0598Y-9.2197
X8.0598Y-9.3197
X8.0598Y-9.4197
X8.0598Y-9.5197
X8.0598Y-9.6197
X8.0598Y-9.7197
X8.0988Y-3.9213
X8.2531Y-7.6787
X8.3515Y-7.6787
X8.3858Y-8.8189
X8.3858Y-9.1189
X8.3898Y-9.3421
X8.3898Y-9.6421
X8.3988Y-3.9213
X8.5488Y-4.2213
X8.5488Y-4.3213
X8.5488Y-4.4213
X8.5488Y-4.5213
X8.5488Y-4.6213
X8.5488Y-4.7213
X8.5488Y-4.8213
X8.5488Y-4.9213
X8.5488Y-5.0213
X8.5488Y-5.1213
X8.5488Y-5.2213
X8.5488Y-5.3213
X8.5488Y-5.4213
X8.5488Y-5.5213
X8.5488Y-5.6213
X8.5488Y-5.7213
X8.5488Y-5.8213
X8.5488Y-5.9213
X8.5488Y-6.0213
X8.5488Y-6.1213
X8.5488Y-6.2213
X8.5488Y-6.3213
X8.5488Y-6.4213
X8.5488Y-6.5213
X8.5488Y-6.6213
X8.5488Y-6.7213
X8.5488Y-6.8213
X8.5488Y-6.9213
X8.5488Y-7.0213
X8.5488Y-7.1213
X8.5488Y-7.2213
X8.5488Y-7.3213
X8.5988Y-3.9213
X8.6654Y-2.3888
X8.6654Y-2.4888
X8.6654Y-2.5888
X8.6654Y-2.6888
X8.6654Y-2.7888
X8.6654Y-2.8888
X8.6654Y-2.9888
X8.685Y-3.2283
X8.7047Y-9.0305
X8.7047Y-9.1305
X8.7047Y-9.2305
X8.7047Y-9.3305
X8.7047Y-9.4305
X8.7047Y-9.5305
X8.7047Y-9.6305
X8.7126Y-2.126
X8.7201Y-1.7283
X8.7677Y-8.7598
X8.8819Y-3.2283
X8.8988Y-3.9213
X8.8992Y-4.2211
X8.8992Y-4.3211
X8.8992Y-4.4211
X8.8992Y-4.5211
X8.8992Y-4.6211
X8.8992Y-4.7211
X8.8992Y-4.8211
X8.8992Y-5.3211
X8.8992Y-5.4211
X8.8992Y-5.5211
X8.8992Y-5.6211
X8.8992Y-5.7211
X8.8992Y-5.8211
X8.8992Y-5.9211
X8.9094Y-2.126
X8.9646Y-8.7598
X8.9654Y-2.3888
X8.9654Y-2.4888
X8.9654Y-2.5888
X8.9654Y-2.6888
X8.9654Y-2.7888
X8.9654Y-2.8888
X8.9654Y-2.9888
X8.9738Y-6.1213
X8.9754Y-5.0213
X9.0047Y-9.0305
X9.0047Y-9.1305
X9.0047Y-9.2305
X9.0047Y-9.3305
X9.0047Y-9.4305
X9.0047Y-9.5305
X9.0047Y-9.6305
X9.0201Y-1.7283
X9.0433Y-7.4528
X9.0433Y-7.5528
X9.0433Y-7.6528
X9.0433Y-7.7528
X9.0433Y-7.8528
X9.0433Y-7.9528
X9.0433Y-8.0528
X9.0433Y-8.1528
X9.0433Y-8.2528
X9.0433Y-8.3528
X9.1707Y-6.1213
X9.1722Y-5.0213
X9.1992Y-4.2211
X9.1992Y-4.3211
X9.1992Y-4.4211
X9.1992Y-4.5211
X9.1992Y-4.6211
X9.1992Y-4.7211
X9.1992Y-4.8211
X9.1992Y-5.3211
X9.1992Y-5.4211
X9.1992Y-5.5211
X9.1992Y-5.6211
X9.1992Y-5.7211
X9.1992Y-5.8211
X9.1992Y-5.9211
X9.3224Y-1.7362
X9.3433Y-7.4528
X9.3433Y-7.5528
X9.3433Y-7.6528
X9.3433Y-7.7528
X9.3433Y-7.8528
X9.3433Y-7.9528
X9.3433Y-8.0528
X9.3433Y-8.1528
X9.3433Y-8.2528
X9.3433Y-8.3528
X9.4936Y-3.315
X9.5133Y-9.2087
X9.5921Y-3.315
X9.6118Y-9.2087
X9.6224Y-1.7362
X9.7053Y-3.7467
X9.7053Y-3.8467
X9.7053Y-3.9467
X9.7053Y-4.0467
X9.7053Y-4.1467
X9.7053Y-4.2467
X9.7053Y-4.3467
X9.7053Y-4.4467
X9.7053Y-4.5467
X9.7053Y-4.6467
X9.7053Y-4.7467
X9.7053Y-4.8467
X9.7053Y-4.9467
X9.7053Y-5.0467
X9.7053Y-5.5467
X9.7053Y-5.6467
X9.7053Y-5.7467
X9.7053Y-5.8467
X9.7053Y-5.9467
X9.7053Y-6.0467
X9.7053Y-6.1467
X9.7053Y-6.2467
X9.7053Y-6.3467
X9.7053Y-6.4467
X9.7053Y-6.5467
X9.7053Y-6.6467
X9.7053Y-6.7467
X9.7053Y-6.8467
X9.7362Y-7.4518
X9.7362Y-7.5518
X9.7362Y-7.6518
X9.7362Y-7.7518
X9.7362Y-7.8518
X9.7362Y-7.9518
X9.7362Y-8.0518
X9.7362Y-8.1518
X9.7362Y-8.2518
X9.7362Y-8.3518
X9.9055Y-7.0472
X9.9071Y-5.2472
X10.0362Y-7.4518
X10.0362Y-7.5518
X10.0362Y-7.6518
X10.0362Y-7.7518
X10.0362Y-7.8518
X10.0362Y-7.9518
X10.0362Y-8.0518
X10.0362Y-8.1518
X10.0362Y-8.2518
X10.0362Y-8.3518
X10.0665Y-3.0472
X10.1024Y-7.0472
X10.1039Y-5.2472
X10.1772Y-8.9512
X10.1772Y-9.0512
X10.1772Y-9.1512
X10.1772Y-9.2512
X10.1772Y-9.3512
X10.1772Y-9.4512
X10.1772Y-9.5512
X10.1772Y-9.6512
X10.2244Y-8.6063
X10.2614Y-2.1604
X10.2614Y-2.2604
X10.2614Y-2.3604
X10.2614Y-2.4604
X10.2614Y-2.5604
X10.2614Y-2.6604
X10.2614Y-2.7604
X10.3053Y-3.7467
X10.3053Y-3.8467
X10.3053Y-3.9467
X10.3053Y-4.0467
X10.3053Y-4.1467
X10.3053Y-4.2467
X10.3053Y-4.3467
X10.3053Y-4.4467
X10.3053Y-4.5467
X10.3053Y-4.6467
X10.3053Y-4.7467
X10.3053Y-4.8467
X10.3053Y-4.9467
X10.3053Y-5.0467
X10.3053Y-5.5467
X10.3053Y-5.6467
X10.3053Y-5.7467
X10.3053Y-5.8467
X10.3053Y-5.9467
X10.3053Y-6.0467
X10.3053Y-6.1467
X10.3053Y-6.2467
X10.3053Y-6.3467
X10.3053Y-6.4467
X10.3053Y-6.5467
X10.3053Y-6.6467
X10.3053Y-6.7467
X10.3053Y-6.8467
X10.311Y-1.685
X10.3189Y-1.9606
X10.3665Y-3.0472
X10.4213Y-8.6063
X10.4528Y-7.4518
X10.4528Y-7.5518
X10.4528Y-7.6518
X10.4528Y-7.7518
X10.4528Y-7.8518
X10.4528Y-7.9518
X10.4528Y-8.0518
X10.4528Y-8.1518
X10.4528Y-8.2518
X10.4528Y-8.3518
X10.4772Y-8.9512
X10.4772Y-9.0512
X10.4772Y-9.1512
X10.4772Y-9.2512
X10.4772Y-9.3512
X10.4772Y-9.4512
X10.4772Y-9.5512
X10.4772Y-9.6512
X10.5157Y-1.9606
X10.5614Y-2.1604
X10.5614Y-2.2604
X10.5614Y-2.3604
X10.5614Y-2.4604
X10.5614Y-2.5604
X10.5614Y-2.6604
X10.5614Y-2.7604
X10.602Y-8.6063
X10.611Y-1.685
X10.6157Y-3.1299
X10.6811Y-8.9575
X10.6811Y-9.0575
X10.6811Y-9.1575
X10.6811Y-9.2575
X10.6811Y-9.3575
X10.6811Y-9.4575
X10.6811Y-9.5575
X10.6811Y-9.6575
X10.7141Y-3.1299
X10.7528Y-7.4518
X10.7528Y-7.5518
X10.7528Y-7.6518
X10.7528Y-7.7518
X10.7528Y-7.8518
X10.7528Y-7.9518
X10.7528Y-8.0518
X10.7528Y-8.1518
X10.7528Y-8.2518
X10.7528Y-8.3518
X10.7998Y-3.7244
X10.7998Y-3.8244
X10.7998Y-3.9244
X10.7998Y-4.0244
X10.7998Y-4.1244
X10.7998Y-4.2244
X10.7998Y-4.3244
X10.7998Y-4.4244
X10.7998Y-4.5244
X10.7998Y-4.6244
X10.7998Y-4.7244
X10.7998Y-4.8244
X10.7998Y-4.9244
X10.7998Y-5.0244
X10.8Y-5.525
X10.8Y-5.625
X10.8Y-5.725
X10.8Y-5.825
X10.8Y-5.925
X10.8Y-6.025
X10.8Y-6.125
X10.8Y-6.225
X10.8Y-6.325
X10.8Y-6.425
X10.8Y-6.525
X10.8Y-6.625
X10.8Y-6.725
X10.8Y-6.825
X10.902Y-8.6063
X10.927Y-2.1604
X10.927Y-2.2604
X10.927Y-2.3604
X10.927Y-2.4604
X10.927Y-2.5604
X10.927Y-2.6604
X10.927Y-2.7604
X10.9689Y-1.9606
X10.9811Y-8.9575
X10.9811Y-9.0575
X10.9811Y-9.1575
X10.9811Y-9.2575
X10.9811Y-9.3575
X10.9811Y-9.4575
X10.9811Y-9.5575
X10.9811Y-9.6575
X11.0016Y-5.225
X11.0118Y-3.4764
X11.0266Y-7.025
X11.1657Y-1.9606
X11.1732Y-8.9575
X11.1732Y-9.0575
X11.1732Y-9.1575
X11.1732Y-9.2575
X11.1732Y-9.3575
X11.1732Y-9.4575
X11.1732Y-9.5575
X11.1732Y-9.6575
X11.1984Y-5.225
X11.2087Y-3.4764
X11.2234Y-7.025
X11.227Y-2.1604
X11.227Y-2.2604
X11.227Y-2.3604
X11.227Y-2.4604
X11.227Y-2.5604
X11.227Y-2.6604
X11.227Y-2.7604
X11.3998Y-3.7244
X11.3998Y-3.8244
X11.3998Y-3.9244
X11.3998Y-4.0244
X11.3998Y-4.1244
X11.3998Y-4.2244
X11.3998Y-4.3244
X11.3998Y-4.4244
X11.3998Y-4.5244
X11.3998Y-4.6244
X11.3998Y-4.7244
X11.3998Y-4.8244
X11.3998Y-4.9244
X11.3998Y-5.0244
X11.4Y-5.525
X11.4Y-5.625
X11.4Y-5.725
X11.4Y-5.825
X11.4Y-5.925
X11.4Y-6.025
X11.4Y-6.125
X11.4Y-6.225
X11.4Y-6.325
X11.4Y-6.425
X11.4Y-6.525
X11.4Y-6.625
X11.4Y-6.725
X11.4Y-6.825
X11.4014Y-7.9687
X11.4173Y-1.748
X11.4526Y-8.1687
X11.4732Y-8.9575
X11.4732Y-9.0575
X11.4732Y-9.1575
X11.4732Y-9.2575
X11.4732Y-9.3575
X11.4732Y-9.4575
X11.4732Y-9.5575
X11.4732Y-9.6575
X11.5157Y-1.748
X11.5512Y-1.3543
X11.5927Y-2.1604
X11.5927Y-2.2604
X11.5927Y-2.3604
X11.5927Y-2.4604
X11.5927Y-2.5604
X11.5927Y-2.6604
X11.5927Y-2.7604
X11.6439Y-1.9606
X11.6494Y-8.1687
X11.685Y-8.8303
X11.685Y-9.1303
X11.6929Y-9.2909
X11.6929Y-9.5909
X11.7014Y-7.9687
X11.7297Y-5.6931
X11.7675Y-6.6053
X11.7675Y-7.2053
X11.7715Y-6.0982
X11.7715Y-6.3982
X11.828Y-7.9687
X11.8281Y-5.6931
X11.8407Y-1.9606
X11.8512Y-1.3543
X11.8537Y-8.2404
X11.8927Y-2.1604
X11.8927Y-2.2604
X11.8927Y-2.3604
X11.8927Y-2.4604
X11.8927Y-2.5604
X11.8927Y-2.6604
X11.8927Y-2.7604
X12.0248Y-7.9687
X12.0823Y-3.5906
X12.0906Y-5.7126
X12.0906Y-5.8126
X12.0906Y-5.9126
X12.0906Y-6.0126
X12.0906Y-6.1126
X12.0906Y-6.2126
X12.0906Y-6.3126
X12.0906Y-6.4126
X12.0906Y-6.5126
X12.0906Y-6.6126
X12.0906Y-6.7126
X12.0906Y-6.8126
X12.0906Y-6.9126
X12.0906Y-7.0126
X12.0906Y-7.1126
X12.0906Y-7.2126
X12.0906Y-7.3126
X12.0906Y-7.4126
X12.0906Y-7.5126
X12.0906Y-7.6126
X12.098Y-3.8622
X12.098Y-4.0984
X12.1159Y-4.6124
X12.1159Y-4.7124
X12.1159Y-4.8124
X12.1159Y-4.9124
X12.1159Y-5.0124
X12.1159Y-5.1124
X12.1159Y-5.2124
X12.1496Y-4.4094
X12.1537Y-8.2404
X12.2691Y-7.9376
X12.2906Y-5.4876
X12.3465Y-4.4094
X12.3823Y-3.5906
X12.398Y-3.8622
X12.398Y-4.0984
X12.4159Y-4.6124
X12.4159Y-4.7124
X12.4159Y-4.8124
X12.4159Y-4.9124
X12.4159Y-5.0124
X12.4159Y-5.1124
X12.4159Y-5.2124
X12.4612Y-7.9376
X12.4874Y-5.4876
X12.6652Y-4.1301
X12.6652Y-4.4301
X12.6906Y-5.7126
X12.6906Y-5.8126
X12.6906Y-5.9126
X12.6906Y-6.0126
X12.6906Y-6.1126
X12.6906Y-6.2126
X12.6906Y-6.3126
X12.6906Y-6.4126
X12.6906Y-6.5126
X12.6906Y-6.6126
X12.6906Y-6.7126
X12.6906Y-6.8126
X12.6906Y-6.9126
X12.6906Y-7.0126
X12.6906Y-7.1126
X12.6906Y-7.2126
X12.6906Y-7.3126
X12.6906Y-7.4126
X12.6906Y-7.5126
X12.6906Y-7.6126
X12.8382Y-3.0079
X12.8421Y-3.2244
X12.8421Y-3.3858
X12.9421Y-6.4126
X12.9449Y-8.9488
X12.9449Y-9.0488
X12.9449Y-9.1488
X12.9449Y-9.2488
X12.9449Y-9.3488
X12.9449Y-9.4488
X12.9449Y-9.5488
X12.9449Y-9.6488
X12.9921Y-8.6811
X13.0039Y-3.8047
X13.0039Y-4.2047
X13.0409Y-6.6878
X13.0409Y-6.7878
X13.0409Y-6.8878
X13.0409Y-6.9878
X13.0409Y-7.0878
X13.0409Y-7.1878
X13.0409Y-7.2878
X13.0409Y-7.3878
X13.0409Y-7.4878
X13.0409Y-7.5878
X13.0659Y-5.0128
X13.0659Y-5.1128
X13.0659Y-5.2128
X13.0659Y-5.3128
X13.0659Y-5.4128
X13.0659Y-5.5128
X13.0659Y-5.6128
X13.0659Y-5.7128
X13.0659Y-5.8128
X13.0659Y-5.9128
X13.0864Y-4.5278
X13.1171Y-4.7626
X13.1382Y-3.0079
X13.139Y-6.4126
X13.1421Y-3.2244
X13.1421Y-3.3858
X13.1785Y-8.2325
X13.189Y-8.6811
X13.2449Y-8.9488
X13.2449Y-9.0488
X13.2449Y-9.1488
X13.2449Y-9.2488
X13.2449Y-9.3488
X13.2449Y-9.4488
X13.2449Y-9.5488
X13.2449Y-9.6488
X13.2769Y-8.2325
X13.2833Y-4.5278
X13.314Y-4.7626
X13.3346Y-3.0423
X13.3346Y-3.1423
X13.3346Y-3.2423
X13.3346Y-3.3423
X13.3346Y-3.4423
X13.3346Y-3.5423
X13.3346Y-3.6423
X13.3346Y-3.7423
X13.3346Y-3.8423
X13.3346Y-3.9423
X13.3409Y-6.6878
X13.3409Y-6.7878
X13.3409Y-6.8878
X13.3409Y-6.9878
X13.3409Y-7.0878
X13.3409Y-7.1878
X13.3409Y-7.2878
X13.3409Y-7.3878
X13.3409Y-7.4878
X13.3409Y-7.5878
X13.3659Y-5.0128
X13.3659Y-5.1128
X13.3659Y-5.2128
X13.3659Y-5.3128
X13.3659Y-5.4128
X13.3659Y-5.5128
X13.3659Y-5.6128
X13.3659Y-5.7128
X13.3659Y-5.8128
X13.3659Y-5.9128
X13.6346Y-3.0423
X13.6346Y-3.1423
X13.6346Y-3.2423
X13.6346Y-3.3423
X13.6346Y-3.4423
X13.6346Y-3.5423
X13.6346Y-3.6423
X13.6346Y-3.7423
X13.6346Y-3.8423
X13.6346Y-3.9423
X13.7654Y-6.312
X13.7654Y-6.412
X13.7654Y-6.512
X13.7654Y-6.612
X13.7654Y-6.712
X13.7654Y-6.812
X13.7654Y-6.912
X13.7654Y-7.012
X13.7654Y-7.112
X13.7654Y-7.212
X13.7654Y-7.312
X13.7654Y-7.412
X13.7654Y-7.512
X13.7654Y-7.612
X13.8858Y-8.9833
X13.8858Y-9.0833
X13.8858Y-9.1833
X13.8858Y-9.2833
X13.8858Y-9.3833
X13.8858Y-9.4833
X13.8858Y-9.5833
X13.9409Y-4.9628
X13.9409Y-5.0628
X13.9409Y-5.1628
X13.9409Y-5.2628
X13.9409Y-5.3628
X13.9409Y-5.4628
X13.9409Y-5.5628
X13.9409Y-5.6628
X13.9409Y-5.7628
X13.9409Y-5.8628
X13.9671Y-6.0626
X13.972Y-3.9606
X13.9921Y-3.0315
X13.9921Y-3.1315
X13.9921Y-3.2315
X13.9921Y-3.3315
X13.9921Y-3.4315
X13.9921Y-3.5315
X13.9921Y-3.6315
X13.9921Y-3.7315
X13.9921Y-4.7126
X14.164Y-6.0626
X14.1858Y-8.9833
X14.1858Y-9.0833
X14.1858Y-9.1833
X14.1858Y-9.2833
X14.1858Y-9.3833
X14.1858Y-9.4833
X14.1858Y-9.5833
X14.189Y-4.7126
X14.2409Y-4.9628
X14.2409Y-5.0628
X14.2409Y-5.1628
X14.2409Y-5.2628
X14.2409Y-5.3628
X14.2409Y-5.4628
X14.2409Y-5.5628
X14.2409Y-5.6628
X14.2409Y-5.7628
X14.2409Y-5.8628
X14.272Y-3.9606
X14.2921Y-3.0315
X14.2921Y-3.1315
X14.2921Y-3.2315
X14.2921Y-3.3315
X14.2921Y-3.4315
X14.2921Y-3.5315
X14.2921Y-3.6315
X14.2921Y-3.7315
X14.3654Y-6.312
X14.3654Y-6.412
X14.3654Y-6.512
X14.3654Y-6.612
X14.3654Y-6.712
X14.3654Y-6.812
X14.3654Y-6.912
X14.3654Y-7.012
X14.3654Y-7.112
X14.3654Y-7.212
X14.3654Y-7.312
X14.3654Y-7.412
X14.3654Y-7.512
X14.3654Y-7.612
X14.5197Y-3.0276
X14.5197Y-3.2244
T4
X1.2559Y-8.5315
X1.3559Y-8.5315
X1.8854Y-4.248
X1.9445Y-6.9724
X2.1854Y-4.248
X2.2445Y-6.9724
X4.0902Y-9.2362
X4.3902Y-9.2362
X5.0508Y-7.689
X5.3508Y-7.689
T5
X1.1719Y-5.84
X1.1719Y-5.949
X1.1719Y-6.0581
X1.1719Y-6.1671
X1.2837Y-5.7854
X1.2837Y-5.8945
X1.2837Y-6.0035
X1.2837Y-6.1126
X1.2837Y-6.2217
X1.5276Y-1.2756
X1.6276Y-1.2756
X2.7569Y-6.9896
X2.7569Y-7.0896
X2.8569Y-6.9896
X2.8569Y-7.0896
X2.9569Y-6.9896
X2.9569Y-7.0896
X2.9752Y-1.4608
X3.0297Y-1.349
X3.0569Y-6.9896
X3.0569Y-7.0896
X3.0843Y-1.4608
X3.1388Y-1.349
X3.1569Y-6.9896
X3.1569Y-7.0896
X3.1933Y-1.4608
X3.2478Y-1.349
X3.2569Y-6.9896
X3.2569Y-7.0896
X3.3024Y-1.4608
X3.3031Y-9.8465
X3.3569Y-1.349
X3.3569Y-6.9896
X3.3569Y-7.0896
X3.4031Y-9.8465
X3.4114Y-1.4608
X3.4569Y-6.9896
X3.4569Y-7.0896
X3.5031Y-9.8465
X3.5315Y-7.9026
X3.5315Y-8.0026
X3.5364Y-8.2549
X3.5364Y-8.3549
X3.5364Y-8.4549
X3.5569Y-6.9896
X3.5569Y-7.0896
X3.6031Y-9.8465
X3.6569Y-6.9896
X3.6569Y-7.0896
X3.7031Y-9.8465
X3.7569Y-6.9896
X3.7569Y-7.0896
X3.7884Y-8.2549
X3.7884Y-8.3549
X3.7884Y-8.4549
X3.8031Y-9.8465
X3.8569Y-6.9896
X3.8569Y-7.0896
X3.9031Y-9.8465
X3.9569Y-6.9896
X3.9569Y-7.0896
X4.0031Y-9.8465
X4.0569Y-6.9896
X4.0569Y-7.0896
X4.1031Y-9.8465
X4.1569Y-6.9896
X4.1569Y-7.0896
X4.2031Y-9.8465
X4.2569Y-6.9896
X4.2569Y-7.0896
X4.3031Y-9.8465
X4.3569Y-6.9896
X4.3569Y-7.0896
X4.4031Y-9.8465
X4.4171Y-1.2992
X4.4569Y-6.9896
X4.4569Y-7.0896
X4.5031Y-9.8465
X4.5171Y-1.2992
X4.6031Y-9.8465
X4.6171Y-1.2992
X4.7031Y-9.8465
X4.7171Y-1.2992
X4.8031Y-9.8465
X4.8171Y-1.2992
X4.9171Y-1.2992
X5.0171Y-1.2992
X5.1171Y-1.2992
X5.2171Y-1.2992
X5.3171Y-1.2992
X5.4171Y-1.2992
X5.5171Y-1.2992
X5.6171Y-1.2992
X5.7171Y-1.2992
X5.8171Y-1.2992
X5.9171Y-1.2992
X6.0171Y-1.2992
X6.1171Y-1.2992
X6.45Y-1.3
X6.55Y-1.3
X7.25Y-1.3
X7.35Y-1.3
X8.7451Y-1.3321
X8.7451Y-1.4321
X8.8451Y-1.3321
X8.8451Y-1.4321
X8.9451Y-1.3321
X8.9451Y-1.4321
X9.0451Y-1.3321
X9.0451Y-1.4321
X9.1451Y-1.3321
X9.1451Y-1.4321
X9.2451Y-1.3321
X9.2451Y-1.4321
X9.3451Y-1.3321
X9.3451Y-1.4321
X9.4451Y-1.3321
X9.4451Y-1.4321
X9.5451Y-1.3321
X9.5451Y-1.4321
X9.6451Y-1.3321
X9.6451Y-1.4321
X9.7451Y-1.3321
X9.7451Y-1.4321
X9.8451Y-1.3321
X9.8451Y-1.4321
X9.9451Y-1.3321
X9.9451Y-1.4321
X10.0451Y-1.3321
X10.0451Y-1.4321
X10.1451Y-1.3321
X10.1451Y-1.4321
X10.2451Y-1.3321
X10.2451Y-1.4321
X10.3451Y-1.3321
X10.3451Y-1.4321
X10.4451Y-1.3321
X10.4451Y-1.4321
X10.5451Y-1.3321
X10.5451Y-1.4321
X10.6451Y-1.3321
X10.6451Y-1.4321
X10.7451Y-1.3321
X10.7451Y-1.4321
X10.8451Y-1.3321
X10.8451Y-1.4321
X11.2205Y-1.3622
X11.3205Y-1.3622
X11.6211Y-3.7756
X11.6407Y-5.2008
X11.7211Y-3.7756
X11.7407Y-5.2008
X11.8211Y-3.7756
X11.8407Y-5.2008
X12.5215Y-2.2406
X12.5215Y-2.4374
X12.6215Y-2.2406
X12.6215Y-2.4374
X12.677Y-4.8624
X12.677Y-4.9624
X12.677Y-5.0624
X12.7215Y-2.2406
X12.7215Y-2.4374
X12.8215Y-2.2406
X12.8215Y-2.4374
X12.9215Y-2.2406
X12.9215Y-2.4374
X13.0215Y-2.2406
X13.0215Y-2.4374
X13.1215Y-2.2406
X13.1215Y-2.4374
X13.2215Y-2.2406
X13.2215Y-2.4374
X13.3215Y-2.2406
X13.3215Y-2.4374
X13.4215Y-2.2406
X13.4215Y-2.4374
X13.5215Y-2.2406
X13.5215Y-2.4374
X13.6215Y-2.2406
X13.6215Y-2.4374
X13.7215Y-2.2406
X13.7215Y-2.4374
X13.8215Y-2.2406
X13.8215Y-2.4374
X13.9215Y-2.2406
X13.9215Y-2.4374
X14.0215Y-2.2406
X14.0215Y-2.4374
X14.1215Y-2.2406
X14.1215Y-2.4374
X14.2215Y-2.2406
X14.2215Y-2.4374
T6
X1.2677Y-8.8866
X1.2677Y-8.9866
X1.2677Y-9.0866
T7
X1.6142Y-9.5394
X1.811Y-9.5394
X2.0079Y-9.5394
X2.2047Y-9.5394
T8
X1.2719Y-5.5114
X1.2719Y-6.4957
X2.7012Y-1.449
X3.6854Y-1.449
T0
M30
