M48
; DRILL file {KiCad (6.0.6)} date Thu Oct 20 09:33:45 2022
; FORMAT={-:-/ absolute / inch / decimal}
; #@! TF.CreationDate,2022-10-20T09:33:45-05:00
; #@! TF.GenerationSoftware,Kicad,Pcbnew,(6.0.6)
; #@! TF.FileFunction,Plated,1,2,PTH
FMAT,2
INCH
; #@! TA.AperFunction,Plated,PTH,ViaDrill
T1C0.0157
; #@! TA.AperFunction,Plated,PTH,ComponentDrill
T2C0.0295
; #@! TA.AperFunction,Plated,PTH,ComponentDrill
T3C0.0315
; #@! TA.AperFunction,Plated,PTH,ComponentDrill
T4C0.0354
; #@! TA.AperFunction,Plated,PTH,ComponentDrill
T5C0.0394
; #@! TA.AperFunction,Plated,PTH,ComponentDrill
T6C0.0433
; #@! TA.AperFunction,Plated,PTH,ComponentDrill
T7C0.0551
; #@! TA.AperFunction,Plated,PTH,ComponentDrill
T8C0.1260
%
G90
G05
T1
X1.2845Y-7.2785
X1.546Y-5.5469
X1.5915Y-5.0619
X1.702Y-2.2034
X1.7724Y-4.2782
X2.1945Y-3.0177
X2.3471Y-1.7691
X2.5896Y-2.7093
X2.6105Y-2.1412
X2.661Y-2.2492
X2.7103Y-6.6039
X3.1215Y-1.7406
X3.1827Y-3.1517
X3.1834Y-3.1124
X3.1907Y-2.8789
X3.4483Y-3.4029
X3.497Y-2.8244
X3.5353Y-2.5321
X3.6793Y-3.0682
X3.6837Y-3.7629
X4.0674Y-1.376
X4.1889Y-2.7618
X4.2812Y-3.7629
X4.3219Y-6.2489
X4.4677Y-4.2216
X4.7171Y-3.1012
X4.7507Y-3.1685
X4.7981Y-8.2046
X4.8538Y-3.9356
X4.8672Y-5.0113
X4.8828Y-8.5115
X4.9206Y-4.9927
X4.9719Y-4.9122
X5.0186Y-4.7062
X5.0199Y-4.9629
X5.0206Y-3.4817
X5.0707Y-4.6641
X5.2127Y-3.5754
X5.3046Y-3.6722
X5.3085Y-7.5161
X5.3457Y-2.2582
X5.3795Y-3.637
X5.3948Y-8.3134
X5.4404Y-6.2362
X5.4601Y-2.2759
X5.5223Y-2.2583
X5.5637Y-6.0593
X5.5957Y-6.1627
X5.6066Y-4.2435
X5.6761Y-4.1353
X5.697Y-3.6054
X5.7174Y-3.5625
X5.7657Y-5.5287
X5.7948Y-1.6359
X5.8921Y-4.5367
X5.927Y-3.9165
X5.9421Y-2.5161
X5.9669Y-4.8039
X6.0166Y-3.0238
X6.0171Y-4.886
X6.0962Y-7.8797
X6.1603Y-1.6494
X6.1605Y-3.105
X6.161Y-2.7248
X6.1769Y-2.4225
X6.1827Y-5.1742
X6.2262Y-4.97
X6.2469Y-1.6137
X6.3188Y-2.0248
X6.3622Y-2.3359
X6.3736Y-3.2433
X6.432Y-2.8596
X6.4326Y-4.5633
X6.434Y-4.7318
X6.4621Y-2.2026
X6.4954Y-4.5063
X6.6234Y-4.254
X6.6388Y-3.9783
X6.6466Y-5.4294
X6.7031Y-2.6009
X6.7773Y-2.6983
X6.7973Y-2.8075
X6.8065Y-5.7313
X6.833Y-5.0058
X6.8886Y-4.0829
X6.9243Y-7.9933
X6.9635Y-5.362
X7.0738Y-3.9829
X7.0973Y-7.2089
X7.1113Y-4.8623
X7.1191Y-6.6431
X7.152Y-5.2393
X7.1889Y-8.1727
X7.2597Y-5.8839
X7.3466Y-5.7023
X7.3666Y-4.7937
X7.3701Y-6.5174
X7.404Y-7.4322
X7.4216Y-6.2667
X7.4517Y-6.3869
X7.4551Y-6.3245
X7.4892Y-6.4262
X7.4963Y-2.4485
X7.5624Y-6.2912
X7.5859Y-4.9212
X7.6442Y-4.2258
X7.6446Y-4.7503
X7.6582Y-2.3026
X7.662Y-4.8451
X7.6629Y-4.2829
X7.6787Y-4.3388
X7.6997Y-7.1076
X7.7051Y-3.449
X7.7139Y-3.8244
X7.7181Y-3.6303
X7.7215Y-2.449
X7.724Y-3.9006
X7.76Y-3.6034
X7.7634Y-2.0447
X7.7769Y-2.1492
X7.8011Y-8.2964
X7.8251Y-2.8264
X7.8686Y-8.2964
X7.8735Y-8.2531
X7.9378Y-5.7732
X7.9618Y-2.1987
X7.9674Y-5.9828
X7.9678Y-5.9359
X7.9963Y-5.2543
X8.0905Y-5.6206
X8.1054Y-2.168
X8.1367Y-2.5786
X8.18Y-5.5872
X8.1846Y-5.4053
X8.1886Y-5.1806
X8.1942Y-5.8922
X8.1967Y-5.3199
X8.1968Y-4.5759
X8.2086Y-5.7773
X8.2542Y-5.0999
X8.2647Y-6.1147
X8.285Y-3.8975
X8.2876Y-2.2201
X8.2987Y-3.3183
X8.3353Y-3.6765
X8.3413Y-7.3189
X8.3438Y-5.1975
X8.347Y-3.8477
X8.3474Y-5.7131
X8.4056Y-3.2681
X8.4094Y-6.746
X8.4163Y-8.2495
X8.4234Y-3.7136
X8.4334Y-3.5624
X8.4526Y-7.3017
X8.4796Y-4.5002
X8.5027Y-4.9969
X8.5229Y-5.4234
X8.5339Y-5.8095
X8.5412Y-3.2672
X8.5643Y-5.6646
X8.5643Y-5.9996
X8.5722Y-4.8657
X8.5778Y-7.1896
X8.5838Y-3.8637
X8.594Y-6.9586
X8.5989Y-7.3528
X8.6022Y-2.2806
X8.6067Y-4.9
X8.6087Y-4.3412
X8.6223Y-4.8
X8.6258Y-4.4016
X8.6412Y-4.0206
X8.6435Y-4.3632
X8.6539Y-5.4859
X8.6572Y-5.7125
X8.6578Y-6.1741
X8.6605Y-4.8514
X8.721Y-6.8929
X8.7215Y-2.4019
X8.7707Y-2.7721
X8.8115Y-7.4181
X8.8297Y-7.4606
X8.8599Y-4.4386
X8.8644Y-6.35
X8.8741Y-3.6168
X8.8741Y-4.0166
X8.8746Y-4.2404
X8.8869Y-6.1264
X8.8973Y-4.0848
X8.905Y-4.1392
X8.9222Y-4.0407
X8.9464Y-5.6835
X8.9553Y-2.8728
X8.9621Y-5.0148
X8.9682Y-5.1422
X8.9707Y-4.5384
X8.9779Y-6.6941
X8.9793Y-6.0324
X8.9921Y-5.0441
X9.021Y-4.5185
X9.0325Y-4.2606
X9.0452Y-3.0018
X9.0455Y-7.6589
X9.0589Y-2.81
X9.0694Y-5.9335
X9.0695Y-3.2938
X9.0779Y-4.4372
X9.1031Y-4.7054
X9.1313Y-4.6769
X9.159Y-8.1381
X9.1689Y-7.8911
X9.2108Y-6.632
X9.2561Y-4.8714
X9.2606Y-6.3416
X9.3165Y-5.9086
X9.325Y-7.9839
X9.3277Y-5.1025
X9.3737Y-6.2751
X9.4245Y-2.3682
X9.425Y-6.0827
X9.445Y-1.4821
X9.4452Y-6.3244
X9.4535Y-2.2191
X9.4596Y-7.275
X9.4604Y-5.0649
X9.4612Y-7.3757
X9.4672Y-2.7722
X9.4763Y-6.1333
X9.5074Y-4.5062
X9.5396Y-7.1492
X9.5457Y-4.3741
X9.5632Y-1.7099
X9.5868Y-4.1758
X9.5886Y-5.257
X9.5989Y-5.4625
X9.6018Y-5.569
X9.6029Y-5.5296
X9.6046Y-3.6889
X9.6105Y-3.8465
X9.6137Y-5.404
X9.6178Y-5.3178
X9.6895Y-6.4134
X9.7113Y-3.7955
X9.7121Y-6.5446
X9.7285Y-4.3485
X9.7365Y-5.4848
X9.7444Y-6.5721
X9.7494Y-3.5448
X9.7494Y-3.7287
X9.7953Y-6.2698
X9.7966Y-2.5604
X9.8047Y-6.5948
X9.8173Y-1.5843
X9.9247Y-5.1456
X9.9903Y-6.2244
X9.9978Y-2.2191
X10.0049Y-8.2092
X10.0516Y-4.2245
X10.0519Y-5.4652
X10.0585Y-4.1744
X10.0783Y-3.2035
X10.0797Y-8.1223
X10.1417Y-4.3797
X10.1417Y-5.6257
X10.1489Y-8.2546
X10.1538Y-3.3091
X10.177Y-5.4692
X10.2039Y-6.7988
X10.209Y-4.1453
X10.2336Y-4.5411
X10.2401Y-1.2253
X10.2552Y-5.5713
X10.2734Y-4.3354
X10.3151Y-7.2057
X10.3584Y-8.2231
X10.3625Y-5.3794
X10.3659Y-8.127
X10.3663Y-4.4791
X10.3743Y-2.0967
X10.3804Y-7.5765
X10.3858Y-4.6313
X10.3881Y-5.6498
X10.4034Y-5.5244
X10.4293Y-2.9938
X10.4525Y-8.2803
X10.4584Y-5.2712
X10.492Y-8.2852
X10.5473Y-2.8933
X10.5592Y-4.1741
X10.5759Y-5.0308
X10.577Y-4.9149
X10.5866Y-3.0254
X10.6008Y-7.5346
X10.6216Y-2.62
X10.6283Y-7.5765
X10.6317Y-4.6715
X10.6461Y-4.8367
X10.6589Y-5.5968
X10.6716Y-6.2411
X10.6717Y-6.1768
X10.6847Y-3.8603
X10.6949Y-7.7871
X10.7338Y-4.4694
X10.7375Y-7.788
X10.7447Y-6.869
X10.7926Y-2.9653
X10.8073Y-2.3148
X10.8218Y-2.9072
X10.828Y-2.2789
X10.8374Y-1.7107
X10.8668Y-7.275
X10.8679Y-6.8981
X10.9042Y-4.6741
X10.9076Y-4.1494
X10.9319Y-8.4292
X11.0187Y-8.7055
X11.0256Y-6.5133
X11.0431Y-5.3167
X11.0438Y-7.8544
X11.0442Y-8.3507
X11.0729Y-2.353
X11.0831Y-2.1434
X11.1846Y-5.3458
X11.2044Y-4.9744
X11.2368Y-3.1268
X11.2408Y-7.4019
X11.2808Y-3.7762
X11.2929Y-3.6606
X11.2946Y-2.7318
X11.2994Y-8.5382
X11.3015Y-7.3608
X11.3073Y-3.3852
X11.3183Y-2.8601
X11.4695Y-8.0861
X11.4818Y-5.1672
X11.5084Y-6.775
X11.5442Y-4.1687
X11.5476Y-4.2104
X11.5652Y-5.2902
X11.5796Y-4.2633
X11.5879Y-3.2468
X11.7018Y-3.1709
X11.7155Y-4.579
X11.8095Y-7.9099
X11.8427Y-6.3826
X11.878Y-6.6693
X11.8786Y-7.8813
X11.8881Y-7.6903
X11.9465Y-6.2788
X11.9619Y-8.4341
X11.9752Y-8.1723
X12.1686Y-5.5176
X12.169Y-5.028
X12.1718Y-4.9655
X12.2022Y-6.325
X12.2046Y-5.7717
X12.2074Y-2.7777
X12.2168Y-6.225
X12.2245Y-4.0694
X12.2271Y-3.5492
X12.2344Y-4.9995
X12.2541Y-5.0862
X12.273Y-3.5017
X12.2958Y-4.4248
X12.3048Y-3.6952
X12.3196Y-5.9324
X12.3269Y-4.7699
X12.3309Y-6.1657
X12.4126Y-8.5382
X12.4375Y-3.6776
X12.4416Y-5.1236
X12.4851Y-5.9952
X12.4947Y-5.7305
X12.4995Y-4.9257
X12.5Y-4.8666
X12.5184Y-5.0683
X12.5477Y-5.9297
X12.5489Y-5.9864
X12.561Y-5.8699
X12.5667Y-6.325
X12.5857Y-5.6289
X12.6257Y-5.2702
X12.648Y-4.3281
X12.6486Y-4.7592
X12.687Y-1.902
X12.7107Y-3.0055
X12.752Y-5.4262
X12.7606Y-7.433
X12.7672Y-4.8324
X12.8186Y-3.245
X12.8552Y-6.2003
X12.8674Y-4.6075
X12.8876Y-5.9002
X12.9016Y-4.6445
X12.9106Y-2.4937
X12.9194Y-4.4868
X12.9219Y-4.9506
X12.9316Y-1.8641
X12.9341Y-4.7368
X12.9378Y-6.4164
X12.9427Y-4.6776
X12.9511Y-4.8024
X12.9526Y-5.7803
X12.9721Y-5.6578
X13.0355Y-5.7205
X13.046Y-2.5997
X13.0626Y-3.6214
X13.0918Y-5.7784
X13.1563Y-5.8199
X13.1573Y-6.0729
X13.1653Y-3.6421
X13.1727Y-6.9567
X13.1886Y-5.8498
X13.2211Y-1.6221
X13.2354Y-5.7561
X13.26Y-5.0447
X13.2927Y-3.0987
X13.2996Y-3.7798
X13.3184Y-2.3175
X13.381Y-3.2174
X13.3887Y-2.3306
X13.4092Y-7.1015
X13.4094Y-2.7497
X13.4404Y-5.7362
X13.4832Y-2.2387
X13.5255Y-2.559
X13.5267Y-2.6055
X13.5389Y-6.2461
X13.5733Y-2.1161
X13.5922Y-5.5717
X13.6031Y-6.1849
X13.6104Y-5.3367
X13.6352Y-4.4899
X13.6466Y-6.2151
X13.653Y-6.2552
X13.6597Y-2.5305
X13.6678Y-2.258
X13.6725Y-6.1471
X13.6736Y-7.6645
X13.6824Y-4.8191
X13.6992Y-2.6278
X13.7686Y-5.275
X13.7716Y-3.3063
X13.7716Y-7.5486
X13.8608Y-3.0691
X13.8895Y-1.9615
X13.9051Y-6.2167
X13.9331Y-7.5629
X13.9495Y-3.0987
X13.9964Y-3.006
X14.0173Y-7.5933
X14.023Y-2.8536
X14.0324Y-5.3609
X14.0377Y-2.9374
X14.0632Y-4.953
X14.1335Y-2.2973
X14.1361Y-4.6752
X14.1438Y-7.1361
X14.1696Y-2.2642
X14.1704Y-8.4679
X14.1887Y-3.0379
X14.2285Y-3.0799
X14.2497Y-7.3571
X14.2686Y-6.0969
X14.2723Y-7.4197
X14.2784Y-6.4744
X14.3257Y-2.2922
X14.334Y-4.8752
X14.3354Y-7.2883
X14.381Y-2.6885
X14.385Y-2.8296
X14.3914Y-2.3014
X14.3934Y-2.2578
X14.4047Y-4.5954
X14.4307Y-6.3719
X14.4372Y-4.524
X14.4677Y-4.5512
X14.4729Y-2.6577
X14.488Y-7.0128
X14.493Y-2.2527
X14.5169Y-4.7855
X14.5437Y-1.9428
X14.5777Y-5.9374
X14.601Y-2.583
X14.6148Y-2.6291
X14.6416Y-7.0042
X14.6719Y-2.6565
X14.6944Y-2.7295
X14.763Y-7.0591
X14.7655Y-2.5218
X14.7767Y-1.3659
X14.7922Y-2.5516
X14.8321Y-2.5626
X14.8357Y-2.9344
X14.8541Y-2.8742
X14.9278Y-7.5806
X14.955Y-2.1835
X14.9695Y-1.9555
X14.9765Y-2.0369
X15.0021Y-4.0599
X15.011Y-5.6388
X15.0696Y-2.4289
X15.0771Y-4.433
X15.1076Y-3.4122
X15.1081Y-5.1818
X15.1274Y-2.411
X15.1283Y-5.0821
X15.1422Y-3.5939
X15.1446Y-5.152
X15.1502Y-2.2689
X15.1553Y-6.2386
X15.159Y-2.6813
X15.1728Y-4.9249
X15.1776Y-3.8992
X15.2285Y-5.8196
X15.2318Y-4.9111
X15.2388Y-3.8366
X15.2578Y-3.9804
X15.2673Y-4.2723
X15.274Y-5.0694
X15.2796Y-3.8394
X15.2861Y-7.029
X15.3026Y-4.8517
X15.3312Y-4.6502
X15.3599Y-5.3955
X15.3669Y-4.3965
X15.378Y-6.3373
X15.3861Y-6.3795
X15.3881Y-4.1962
X15.3939Y-6.1856
X15.4749Y-6.433
X15.5525Y-2.2938
X15.5715Y-5.2062
X15.5858Y-2.4344
X15.588Y-4.7212
X15.6064Y-5.0017
X15.612Y-3.913
X15.6228Y-4.9329
X15.6312Y-4.2965
X15.6329Y-5.6079
X15.66Y-4.3487
X15.68Y-3.6881
X15.6907Y-4.2249
X15.7063Y-4.5916
X15.7084Y-5.2051
X15.7123Y-4.8689
X15.7179Y-4.7875
X15.7526Y-4.6867
X15.764Y-4.6202
X15.7646Y-4.79
X15.7706Y-4.0181
X15.9131Y-2.7507
X16.1336Y-3.875
X16.1626Y-5.9932
T2
X2.45Y-5.3
X2.5Y-5.25
X2.55Y-5.3
X2.9Y-3.975
X2.95Y-3.925
X3.0Y-3.975
X3.175Y-3.9705
X3.225Y-3.9205
X3.275Y-3.9705
X5.0Y-5.9705
X5.025Y-4.7955
X5.025Y-5.175
X5.025Y-5.5705
X5.05Y-5.9205
X5.075Y-4.7455
X5.075Y-5.125
X5.075Y-5.5205
X5.1Y-5.9705
X5.125Y-4.7955
X5.125Y-5.175
X5.125Y-5.5705
X9.225Y-6.2705
X9.275Y-6.2205
X9.325Y-6.2705
X12.075Y-3.2455
X12.125Y-3.1955
X12.175Y-3.2455
T3
X1.3Y-6.975
X1.45Y-2.65
X1.475Y-3.15
X1.5016Y-2.3
X1.5016Y-2.475
X1.575Y-1.525
X1.5803Y-2.3
X1.6Y-6.975
X1.6984Y-2.475
X1.75Y-2.65
X1.775Y-3.15
X1.875Y-1.525
X1.9Y-3.15
X1.9016Y-2.9
X1.95Y-7.175
X1.95Y-7.475
X1.9504Y-1.7746
X1.9504Y-1.8746
X1.9504Y-1.9746
X1.9504Y-2.0746
X1.9504Y-2.1746
X1.9504Y-2.2746
X1.9504Y-2.3746
X1.9504Y-2.4746
X1.9766Y-2.65
X2.0016Y-1.525
X2.0016Y-6.775
X2.0969Y-3.15
X2.0984Y-2.9
X2.1734Y-2.65
X2.1984Y-1.525
X2.1984Y-6.775
X2.25Y-7.175
X2.25Y-7.475
X2.2504Y-1.7746
X2.2504Y-1.8746
X2.2504Y-1.9746
X2.2504Y-2.0746
X2.2504Y-2.1746
X2.2504Y-2.2746
X2.2504Y-2.3746
X2.2504Y-2.4746
X2.325Y-5.525
X2.325Y-5.7
X2.325Y-5.875
X2.325Y-6.05
X2.325Y-6.225
X2.325Y-6.4
X2.35Y-3.025
X2.35Y-3.775
X2.35Y-3.975
X2.35Y-4.175
X2.35Y-4.375
X2.35Y-4.925
X2.3504Y-3.2746
X2.3504Y-3.3746
X2.3504Y-3.4746
X2.3766Y-6.575
X2.4016Y-4.575
X2.4016Y-4.75
X2.5734Y-6.575
X2.5984Y-4.575
X2.5984Y-4.75
X2.625Y-5.525
X2.625Y-5.7
X2.625Y-5.875
X2.625Y-6.05
X2.625Y-6.225
X2.625Y-6.4
X2.65Y-3.025
X2.65Y-3.775
X2.65Y-3.975
X2.65Y-4.175
X2.65Y-4.375
X2.65Y-4.925
X2.6504Y-3.2746
X2.6504Y-3.3746
X2.6504Y-3.4746
X2.725Y-2.2
X2.8047Y-2.622
X2.875Y-3.025
X2.8754Y-3.2746
X2.8754Y-3.3746
X2.8754Y-3.4746
X2.9031Y-2.622
X2.925Y-4.2
X2.925Y-5.875
X2.925Y-6.075
X2.925Y-6.25
X2.925Y-6.45
X2.9266Y-4.375
X2.9266Y-4.575
X2.9266Y-4.75
X2.95Y-5.325
X2.95Y-5.525
X2.9766Y-5.7
X3.0016Y-5.15
X3.025Y-2.2
X3.1219Y-4.2
X3.1234Y-4.375
X3.1234Y-4.575
X3.1234Y-4.75
X3.1734Y-5.7
X3.175Y-3.025
X3.1754Y-3.2746
X3.1754Y-3.3746
X3.1754Y-3.4746
X3.1984Y-5.15
X3.225Y-5.875
X3.225Y-6.075
X3.225Y-6.25
X3.225Y-6.45
X3.25Y-5.325
X3.25Y-5.525
X3.275Y-1.3
X3.275Y-1.475
X3.275Y-1.65
X3.275Y-1.825
X3.275Y-2.0
X3.275Y-2.2
X3.3516Y-4.575
X3.5484Y-4.575
X3.5516Y-4.125
X3.5516Y-4.375
X3.575Y-1.3
X3.575Y-1.475
X3.575Y-1.65
X3.575Y-1.825
X3.575Y-2.0
X3.575Y-2.2
X3.6031Y-3.925
X3.7417Y-6.5787
X3.8Y-3.925
X3.8401Y-6.5787
X3.85Y-1.3
X3.85Y-1.475
X3.85Y-1.65
X3.85Y-1.825
X3.85Y-2.0
X3.85Y-2.2
X3.8516Y-4.125
X3.8516Y-4.375
X3.9531Y-6.1
X3.9563Y-4.75
X3.9563Y-4.9
X3.9563Y-5.075
X3.9563Y-5.25
X3.9563Y-5.425
X3.9563Y-5.6
X3.9563Y-5.75
X3.9563Y-5.925
X4.0469Y-1.3
X4.0469Y-1.475
X4.0469Y-1.65
X4.0469Y-1.825
X4.0469Y-2.0
X4.0469Y-2.2
X4.0766Y-4.125
X4.1016Y-4.375
X4.15Y-6.1
X4.1531Y-4.75
X4.1531Y-4.9
X4.1531Y-5.075
X4.1531Y-5.25
X4.1531Y-5.425
X4.1531Y-5.6
X4.1531Y-5.75
X4.1531Y-5.925
X4.1969Y-6.7756
X4.2984Y-4.375
X4.3Y-3.075
X4.3Y-3.5
X4.3Y-3.85
X4.325Y-1.575
X4.325Y-1.825
X4.325Y-2.075
X4.3516Y-3.25
X4.3516Y-3.675
X4.374Y-7.0906
X4.374Y-7.1906
X4.374Y-7.2906
X4.374Y-7.3906
X4.374Y-7.4906
X4.374Y-7.5906
X4.374Y-7.6906
X4.374Y-7.7906
X4.374Y-7.8906
X4.374Y-7.9906
X4.374Y-8.0906
X4.374Y-8.1906
X4.374Y-8.2906
X4.374Y-8.3906
X4.374Y-8.4906
X4.374Y-8.5906
X4.3766Y-4.125
X4.3937Y-6.7756
X4.45Y-4.725
X4.45Y-4.9
X4.45Y-5.075
X4.45Y-5.25
X4.45Y-5.425
X4.45Y-5.6
X4.45Y-5.775
X4.45Y-5.95
X4.45Y-6.15
X4.45Y-6.35
X4.5232Y-6.7756
X4.5484Y-3.25
X4.5484Y-3.675
X4.6Y-3.075
X4.6Y-3.5
X4.6Y-3.85
X4.625Y-1.575
X4.625Y-1.825
X4.625Y-2.075
X4.75Y-4.725
X4.75Y-4.9
X4.75Y-5.075
X4.75Y-5.25
X4.75Y-5.425
X4.75Y-5.6
X4.75Y-5.775
X4.75Y-5.95
X4.75Y-6.15
X4.75Y-6.35
X4.8232Y-6.7756
X4.85Y-3.075
X4.85Y-3.25
X4.85Y-4.275
X4.85Y-4.45
X4.8504Y-3.5254
X4.8504Y-3.6254
X4.8504Y-3.7254
X4.8504Y-3.8254
X4.9Y-1.575
X4.9Y-1.825
X4.9Y-2.075
X4.9016Y-2.9
X4.9016Y-4.1
X4.974Y-7.0906
X4.974Y-7.1906
X4.974Y-7.2906
X4.974Y-7.3906
X4.974Y-7.4906
X4.974Y-7.5906
X4.974Y-7.6906
X4.974Y-7.7906
X4.974Y-7.8906
X4.974Y-7.9906
X4.974Y-8.0906
X4.974Y-8.1906
X4.974Y-8.2906
X4.974Y-8.3906
X4.974Y-8.4906
X4.974Y-8.5906
X5.0984Y-2.9
X5.0984Y-4.1
X5.15Y-3.075
X5.15Y-3.25
X5.15Y-4.275
X5.15Y-4.45
X5.1504Y-3.5254
X5.1504Y-3.6254
X5.1504Y-3.7254
X5.1504Y-3.8254
X5.2Y-1.575
X5.2Y-1.825
X5.2Y-2.075
X5.3898Y-7.3661
X5.3898Y-7.4661
X5.3898Y-7.5661
X5.3898Y-7.6661
X5.3898Y-7.7661
X5.3898Y-7.8661
X5.3898Y-7.9661
X5.3898Y-8.0661
X5.45Y-1.575
X5.45Y-1.75
X5.45Y-1.925
X5.45Y-2.1
X5.4646Y-7.0591
X5.475Y-3.725
X5.475Y-3.825
X5.475Y-3.925
X5.475Y-4.025
X5.475Y-4.125
X5.475Y-4.225
X5.475Y-4.325
X5.475Y-4.425
X5.475Y-4.525
X5.475Y-4.625
X5.475Y-4.725
X5.475Y-4.825
X5.475Y-4.925
X5.475Y-5.025
X5.475Y-5.125
X5.475Y-5.225
X5.475Y-5.325
X5.475Y-5.425
X5.475Y-5.525
X5.475Y-5.625
X5.625Y-3.275
X5.6614Y-7.0591
X5.6766Y-3.45
X5.6766Y-5.925
X5.6766Y-6.025
X5.6766Y-6.125
X5.6766Y-6.225
X5.6766Y-6.325
X5.6766Y-6.425
X5.6766Y-6.525
X5.6766Y-6.625
X5.6898Y-7.3661
X5.6898Y-7.4661
X5.6898Y-7.5661
X5.6898Y-7.6661
X5.6898Y-7.7661
X5.6898Y-7.8661
X5.6898Y-7.9661
X5.6898Y-8.0661
X5.7281Y-6.825
X5.75Y-1.575
X5.75Y-1.75
X5.75Y-1.925
X5.75Y-2.1
X5.8734Y-3.45
X5.925Y-3.275
X5.925Y-6.825
X5.9766Y-5.925
X5.9766Y-6.025
X5.9766Y-6.125
X5.9766Y-6.225
X5.9766Y-6.325
X5.9766Y-6.425
X5.9766Y-6.525
X5.9766Y-6.625
X6.075Y-3.725
X6.075Y-3.825
X6.075Y-3.925
X6.075Y-4.025
X6.075Y-4.125
X6.075Y-4.225
X6.075Y-4.325
X6.075Y-4.425
X6.075Y-4.525
X6.075Y-4.625
X6.075Y-4.725
X6.075Y-4.825
X6.075Y-4.925
X6.075Y-5.025
X6.075Y-5.125
X6.075Y-5.225
X6.075Y-5.325
X6.075Y-5.425
X6.075Y-5.525
X6.075Y-5.625
X6.25Y-1.8748
X6.25Y-1.9748
X6.25Y-2.0748
X6.25Y-2.1748
X6.25Y-2.2748
X6.25Y-2.3748
X6.25Y-2.4748
X6.25Y-2.5748
X6.25Y-2.6748
X6.25Y-2.7748
X6.2543Y-6.1
X6.3016Y-1.675
X6.325Y-5.025
X6.325Y-5.325
X6.35Y-3.7
X6.35Y-4.0
X6.3527Y-6.1
X6.4543Y-8.3504
X6.4984Y-1.675
X6.55Y-1.8748
X6.55Y-1.9748
X6.55Y-2.0748
X6.55Y-2.1748
X6.55Y-2.2748
X6.55Y-2.3748
X6.55Y-2.4748
X6.55Y-2.5748
X6.55Y-2.6748
X6.55Y-2.7748
X6.5543Y-8.3504
X6.65Y-3.4
X6.65Y-4.1
X6.65Y-4.4
X6.65Y-4.7
X6.65Y-6.7
X6.65Y-7.3
X6.65Y-7.475
X6.6543Y-8.3504
X6.7016Y-3.7
X6.7016Y-3.9
X6.7016Y-5.6
X6.7016Y-5.9
X6.7016Y-6.2
X6.7543Y-5.175
X6.7543Y-8.3504
X6.8527Y-5.175
X6.8543Y-8.3504
X6.8984Y-3.7
X6.8984Y-3.9
X6.8984Y-5.6
X6.8984Y-5.9
X6.8984Y-6.2
X6.9157Y-1.8748
X6.9157Y-1.9748
X6.9157Y-2.0748
X6.9157Y-2.1748
X6.9157Y-2.2748
X6.9157Y-2.3748
X6.9157Y-2.4748
X6.9157Y-2.5748
X6.9157Y-2.6748
X6.9157Y-2.7748
X6.95Y-3.4
X6.95Y-4.1
X6.95Y-4.4
X6.95Y-4.7
X6.95Y-6.7
X6.95Y-7.3
X6.95Y-7.475
X6.9543Y-8.3504
X6.975Y-1.675
X6.9752Y-7.7502
X6.9752Y-7.8502
X6.9752Y-7.9502
X6.9752Y-8.0502
X6.9752Y-8.1502
X7.0543Y-8.3504
X7.1543Y-8.3504
X7.1719Y-1.675
X7.2Y-5.0
X7.2Y-5.3
X7.2Y-5.6
X7.2Y-5.9
X7.2Y-6.2
X7.2Y-6.5
X7.2004Y-3.7502
X7.2004Y-3.8502
X7.2004Y-3.9502
X7.2004Y-4.0502
X7.2004Y-4.1502
X7.2004Y-4.2502
X7.2004Y-4.3502
X7.2004Y-4.4502
X7.2004Y-4.5502
X7.2004Y-4.6502
X7.2157Y-1.8748
X7.2157Y-1.9748
X7.2157Y-2.0748
X7.2157Y-2.1748
X7.2157Y-2.2748
X7.2157Y-2.3748
X7.2157Y-2.4748
X7.2157Y-2.5748
X7.2157Y-2.6748
X7.2157Y-2.7748
X7.25Y-3.4
X7.2516Y-6.7
X7.2516Y-7.0
X7.2516Y-7.3
X7.2543Y-8.3504
X7.3543Y-8.3504
X7.3752Y-7.7502
X7.3752Y-7.8502
X7.3752Y-7.9502
X7.3752Y-8.0502
X7.3752Y-8.1502
X7.4421Y-3.4
X7.4484Y-6.7
X7.4484Y-7.0
X7.4484Y-7.3
X7.5Y-5.0
X7.5Y-5.3
X7.5Y-5.6
X7.5Y-5.9
X7.5Y-6.2
X7.5Y-6.5
X7.5004Y-3.7502
X7.5004Y-3.8502
X7.5004Y-3.9502
X7.5004Y-4.0502
X7.5004Y-4.1502
X7.5004Y-4.2502
X7.5004Y-4.3502
X7.5004Y-4.4502
X7.5004Y-4.5502
X7.5004Y-4.6502
X7.575Y-7.625
X7.575Y-7.825
X7.575Y-8.0
X7.575Y-8.175
X7.575Y-8.375
X7.5814Y-1.8748
X7.5814Y-1.9748
X7.5814Y-2.0748
X7.5814Y-2.1748
X7.5814Y-2.2748
X7.5814Y-2.3748
X7.5814Y-2.4748
X7.5814Y-2.5748
X7.5814Y-2.6748
X7.5814Y-2.7748
X7.6266Y-1.675
X7.75Y-3.4
X7.7531Y-3.1
X7.7793Y-7.15
X7.8234Y-1.675
X7.85Y-3.7
X7.85Y-3.8
X7.85Y-3.9
X7.85Y-4.0
X7.85Y-4.1
X7.85Y-4.2
X7.85Y-4.3
X7.85Y-4.4
X7.85Y-4.5
X7.85Y-4.6
X7.85Y-4.7
X7.85Y-4.8
X7.85Y-4.9
X7.85Y-5.0
X7.85Y-5.1
X7.85Y-5.2
X7.85Y-5.3
X7.85Y-5.4
X7.85Y-5.5
X7.85Y-5.6
X7.85Y-5.7
X7.85Y-5.8
X7.85Y-5.9
X7.85Y-6.0
X7.85Y-6.1
X7.85Y-6.2
X7.85Y-6.3
X7.85Y-6.4
X7.85Y-6.5
X7.85Y-6.6
X7.85Y-6.7
X7.85Y-6.8
X7.875Y-7.625
X7.875Y-7.825
X7.875Y-8.0
X7.875Y-8.175
X7.875Y-8.375
X7.8777Y-7.15
X7.8814Y-1.8748
X7.8814Y-1.9748
X7.8814Y-2.0748
X7.8814Y-2.1748
X7.8814Y-2.2748
X7.8814Y-2.3748
X7.8814Y-2.4748
X7.8814Y-2.5748
X7.8814Y-2.6748
X7.8814Y-2.7748
X7.95Y-3.1
X8.05Y-3.4
X8.2005Y-2.3465
X8.2005Y-2.4465
X8.2005Y-2.5465
X8.2005Y-2.6465
X8.2005Y-2.7465
X8.2005Y-2.8465
X8.2005Y-2.9465
X8.255Y-2.1467
X8.2988Y-7.727
X8.2988Y-7.827
X8.2988Y-7.927
X8.2988Y-8.027
X8.2988Y-8.127
X8.2988Y-8.227
X8.2988Y-8.327
X8.2988Y-8.427
X8.3Y-3.4
X8.3516Y-7.525
X8.4519Y-2.1467
X8.5005Y-2.3465
X8.5005Y-2.4465
X8.5005Y-2.5465
X8.5005Y-2.6465
X8.5005Y-2.7465
X8.5005Y-2.8465
X8.5005Y-2.9465
X8.5484Y-7.525
X8.5988Y-7.727
X8.5988Y-7.827
X8.5988Y-7.927
X8.5988Y-8.027
X8.5988Y-8.127
X8.5988Y-8.227
X8.5988Y-8.327
X8.5988Y-8.427
X8.6Y-3.4
X8.75Y-3.7
X8.75Y-3.8
X8.75Y-3.9
X8.75Y-4.0
X8.75Y-4.1
X8.75Y-4.2
X8.75Y-4.3
X8.75Y-4.4
X8.75Y-4.5
X8.75Y-4.6
X8.75Y-4.7
X8.75Y-4.8
X8.75Y-4.9
X8.75Y-5.0
X8.75Y-5.1
X8.75Y-5.2
X8.75Y-5.3
X8.75Y-5.4
X8.75Y-5.5
X8.75Y-5.6
X8.75Y-5.7
X8.75Y-5.8
X8.75Y-5.9
X8.75Y-6.0
X8.75Y-6.1
X8.75Y-6.2
X8.75Y-6.3
X8.75Y-6.4
X8.75Y-6.5
X8.75Y-6.6
X8.75Y-6.7
X8.75Y-6.8
X8.8Y-3.4
X8.8661Y-2.3465
X8.8661Y-2.4465
X8.8661Y-2.5465
X8.8661Y-2.6465
X8.8661Y-2.7465
X8.8661Y-2.8465
X8.8661Y-2.9465
X8.8661Y-3.0465
X8.93Y-2.1467
X8.9492Y-7.727
X8.9492Y-7.827
X8.9492Y-7.927
X8.9492Y-8.027
X8.9492Y-8.127
X8.9492Y-8.227
X8.9492Y-8.327
X8.975Y-7.275
X9.025Y-7.525
X9.1Y-3.4
X9.1004Y-3.6998
X9.1004Y-3.7998
X9.1004Y-3.8998
X9.1004Y-3.9998
X9.1004Y-4.0998
X9.1004Y-4.1998
X9.1004Y-4.2998
X9.1004Y-4.7998
X9.1004Y-4.8998
X9.1004Y-4.9998
X9.1004Y-5.0998
X9.1004Y-5.1998
X9.1004Y-5.2998
X9.1004Y-5.3998
X9.125Y-5.925
X9.125Y-6.55
X9.1269Y-2.1467
X9.1661Y-2.3465
X9.1661Y-2.4465
X9.1661Y-2.5465
X9.1661Y-2.6465
X9.1661Y-2.7465
X9.1661Y-2.8465
X9.1661Y-2.9465
X9.1661Y-3.0465
X9.175Y-5.6
X9.1766Y-4.5
X9.2219Y-7.525
X9.2492Y-7.727
X9.2492Y-7.827
X9.2492Y-7.927
X9.2492Y-8.027
X9.2492Y-8.127
X9.2492Y-8.227
X9.2492Y-8.327
X9.275Y-7.275
X9.2791Y-1.3858
X9.3719Y-5.6
X9.3734Y-4.5
X9.4004Y-3.6998
X9.4004Y-3.7998
X9.4004Y-3.8998
X9.4004Y-3.9998
X9.4004Y-4.0998
X9.4004Y-4.1998
X9.4004Y-4.2998
X9.4004Y-4.7998
X9.4004Y-4.8998
X9.4004Y-4.9998
X9.4004Y-5.0998
X9.4004Y-5.1998
X9.4004Y-5.2998
X9.4004Y-5.3998
X9.425Y-5.925
X9.425Y-6.55
X9.4936Y-3.315
X9.5784Y-1.8748
X9.5784Y-1.9748
X9.5784Y-2.0748
X9.5784Y-2.1748
X9.5784Y-2.2748
X9.5784Y-2.3748
X9.5784Y-2.4748
X9.5791Y-1.3858
X9.5921Y-3.315
X9.5996Y-7.727
X9.5996Y-7.827
X9.5996Y-7.927
X9.5996Y-8.027
X9.5996Y-8.127
X9.5996Y-8.227
X9.5996Y-8.327
X9.5996Y-8.427
X9.65Y-7.25
X9.6516Y-1.675
X9.6516Y-7.525
X9.8469Y-7.25
X9.8484Y-1.675
X9.8484Y-7.525
X9.8748Y-3.7244
X9.8748Y-3.8244
X9.8748Y-3.9244
X9.8748Y-4.0244
X9.8748Y-4.1244
X9.8748Y-4.2244
X9.8748Y-4.3244
X9.8748Y-4.4244
X9.8748Y-4.5244
X9.8748Y-4.6244
X9.8748Y-4.7244
X9.8748Y-4.8244
X9.8748Y-4.9244
X9.8748Y-5.0244
X9.8748Y-5.5244
X9.8748Y-5.6244
X9.8748Y-5.7244
X9.8748Y-5.8244
X9.8748Y-5.9244
X9.8748Y-6.0244
X9.8748Y-6.1244
X9.8748Y-6.2244
X9.8748Y-6.3244
X9.8748Y-6.4244
X9.8748Y-6.5244
X9.8748Y-6.6244
X9.8748Y-6.7244
X9.8748Y-6.8244
X9.8784Y-1.8748
X9.8784Y-1.9748
X9.8784Y-2.0748
X9.8784Y-2.1748
X9.8784Y-2.2748
X9.8784Y-2.3748
X9.8784Y-2.4748
X9.8996Y-7.727
X9.8996Y-7.827
X9.8996Y-7.927
X9.8996Y-8.027
X9.8996Y-8.127
X9.8996Y-8.227
X9.8996Y-8.327
X9.8996Y-8.427
X10.075Y-7.025
X10.0766Y-5.225
X10.225Y-7.275
X10.25Y-7.727
X10.25Y-7.827
X10.25Y-7.927
X10.25Y-8.027
X10.25Y-8.127
X10.25Y-8.227
X10.25Y-8.327
X10.2614Y-2.1604
X10.2614Y-2.2604
X10.2614Y-2.3604
X10.2614Y-2.4604
X10.2614Y-2.5604
X10.2614Y-2.6604
X10.2614Y-2.7604
X10.2719Y-7.025
X10.2734Y-5.225
X10.2766Y-7.525
X10.3189Y-1.9606
X10.4734Y-7.525
X10.4748Y-3.7244
X10.4748Y-3.8244
X10.4748Y-3.9244
X10.4748Y-4.0244
X10.4748Y-4.1244
X10.4748Y-4.2244
X10.4748Y-4.3244
X10.4748Y-4.4244
X10.4748Y-4.5244
X10.4748Y-4.6244
X10.4748Y-4.7244
X10.4748Y-4.8244
X10.4748Y-4.9244
X10.4748Y-5.0244
X10.4748Y-5.5244
X10.4748Y-5.6244
X10.4748Y-5.7244
X10.4748Y-5.8244
X10.4748Y-5.9244
X10.4748Y-6.0244
X10.4748Y-6.1244
X10.4748Y-6.2244
X10.4748Y-6.3244
X10.4748Y-6.4244
X10.4748Y-6.5244
X10.4748Y-6.6244
X10.4748Y-6.7244
X10.4748Y-6.8244
X10.5157Y-1.9606
X10.525Y-7.275
X10.55Y-7.727
X10.55Y-7.827
X10.55Y-7.927
X10.55Y-8.027
X10.55Y-8.127
X10.55Y-8.227
X10.55Y-8.327
X10.5614Y-2.1604
X10.5614Y-2.2604
X10.5614Y-2.3604
X10.5614Y-2.4604
X10.5614Y-2.5604
X10.5614Y-2.6604
X10.5614Y-2.7604
X10.725Y-7.275
X10.7998Y-3.7244
X10.7998Y-3.8244
X10.7998Y-3.9244
X10.7998Y-4.0244
X10.7998Y-4.1244
X10.7998Y-4.2244
X10.7998Y-4.3244
X10.7998Y-4.4244
X10.7998Y-4.5244
X10.7998Y-4.6244
X10.7998Y-4.7244
X10.7998Y-4.8244
X10.7998Y-4.9244
X10.7998Y-5.0244
X10.8Y-5.525
X10.8Y-5.625
X10.8Y-5.725
X10.8Y-5.825
X10.8Y-5.925
X10.8Y-6.025
X10.8Y-6.125
X10.8Y-6.225
X10.8Y-6.325
X10.8Y-6.425
X10.8Y-6.525
X10.8Y-6.625
X10.8Y-6.725
X10.8Y-6.825
X10.9055Y-7.7323
X10.9055Y-7.8323
X10.9055Y-7.9323
X10.9055Y-8.0323
X10.9055Y-8.1323
X10.9055Y-8.2323
X10.9055Y-8.3323
X10.927Y-2.1604
X10.927Y-2.2604
X10.927Y-2.3604
X10.927Y-2.4604
X10.927Y-2.5604
X10.927Y-2.6604
X10.927Y-2.7604
X10.9689Y-1.9606
X10.9766Y-7.525
X11.0016Y-5.225
X11.025Y-7.275
X11.0266Y-7.025
X11.1657Y-1.9606
X11.1734Y-7.525
X11.1984Y-5.225
X11.2055Y-7.7323
X11.2055Y-7.8323
X11.2055Y-7.9323
X11.2055Y-8.0323
X11.2055Y-8.1323
X11.2055Y-8.2323
X11.2055Y-8.3323
X11.2234Y-7.025
X11.227Y-2.1604
X11.227Y-2.2604
X11.227Y-2.3604
X11.227Y-2.4604
X11.227Y-2.5604
X11.227Y-2.6604
X11.227Y-2.7604
X11.3998Y-3.7244
X11.3998Y-3.8244
X11.3998Y-3.9244
X11.3998Y-4.0244
X11.3998Y-4.1244
X11.3998Y-4.2244
X11.3998Y-4.3244
X11.3998Y-4.4244
X11.3998Y-4.5244
X11.3998Y-4.6244
X11.3998Y-4.7244
X11.3998Y-4.8244
X11.3998Y-4.9244
X11.3998Y-5.0244
X11.4Y-5.525
X11.4Y-5.625
X11.4Y-5.725
X11.4Y-5.825
X11.4Y-5.925
X11.4Y-6.025
X11.4Y-6.125
X11.4Y-6.225
X11.4Y-6.325
X11.4Y-6.425
X11.4Y-6.525
X11.4Y-6.625
X11.4Y-6.725
X11.4Y-6.825
X11.575Y-7.125
X11.575Y-7.525
X11.575Y-7.8
X11.5927Y-2.1604
X11.5927Y-2.2604
X11.5927Y-2.3604
X11.5927Y-2.4604
X11.5927Y-2.5604
X11.5927Y-2.6604
X11.5927Y-2.7604
X11.6236Y-3.3504
X11.6393Y-8.252
X11.6439Y-1.9606
X11.722Y-3.3504
X11.7377Y-8.252
X11.8407Y-1.9606
X11.875Y-7.125
X11.875Y-7.525
X11.875Y-7.8
X11.8927Y-2.1604
X11.8927Y-2.2604
X11.8927Y-2.3604
X11.8927Y-2.4604
X11.8927Y-2.5604
X11.8927Y-2.6604
X11.8927Y-2.7604
X11.9Y-2.925
X12.0516Y-7.45
X12.075Y-4.925
X12.075Y-5.025
X12.075Y-5.125
X12.075Y-5.225
X12.075Y-5.325
X12.075Y-5.425
X12.075Y-5.525
X12.075Y-5.625
X12.075Y-5.725
X12.075Y-5.825
X12.075Y-5.925
X12.075Y-6.025
X12.075Y-6.125
X12.075Y-6.225
X12.075Y-6.325
X12.075Y-6.425
X12.075Y-6.525
X12.075Y-6.625
X12.075Y-6.725
X12.075Y-6.825
X12.1004Y-3.8248
X12.1004Y-3.9248
X12.1004Y-4.0248
X12.1004Y-4.1248
X12.1004Y-4.2248
X12.1004Y-4.3248
X12.1004Y-4.4248
X12.1516Y-3.575
X12.1793Y-2.3
X12.2Y-2.925
X12.2Y-7.675
X12.2Y-7.775
X12.2Y-7.875
X12.2Y-7.975
X12.2Y-8.075
X12.2Y-8.175
X12.2Y-8.275
X12.2Y-8.375
X12.2484Y-7.45
X12.2535Y-7.15
X12.275Y-4.7
X12.2777Y-2.3
X12.3484Y-3.575
X12.35Y-2.625
X12.4004Y-3.8248
X12.4004Y-3.9248
X12.4004Y-4.0248
X12.4004Y-4.1248
X12.4004Y-4.2248
X12.4004Y-4.3248
X12.4004Y-4.4248
X12.4457Y-7.15
X12.45Y-2.925
X12.45Y-3.125
X12.45Y-3.3
X12.4719Y-4.7
X12.4793Y-1.9
X12.5Y-7.675
X12.5Y-7.775
X12.5Y-7.875
X12.5Y-7.975
X12.5Y-8.075
X12.5Y-8.175
X12.5Y-8.275
X12.5Y-8.375
X12.5777Y-1.9
X12.6256Y-2.2756
X12.675Y-4.925
X12.675Y-5.025
X12.675Y-5.125
X12.675Y-5.225
X12.675Y-5.325
X12.675Y-5.425
X12.675Y-5.525
X12.675Y-5.625
X12.675Y-5.725
X12.675Y-5.825
X12.675Y-5.925
X12.675Y-6.025
X12.675Y-6.125
X12.675Y-6.225
X12.675Y-6.325
X12.675Y-6.425
X12.675Y-6.525
X12.675Y-6.625
X12.675Y-6.725
X12.675Y-6.825
X12.675Y-7.15
X12.7266Y-7.35
X12.75Y-2.625
X12.75Y-2.925
X12.75Y-3.125
X12.75Y-3.3
X12.875Y-5.375
X12.875Y-7.65
X12.875Y-7.75
X12.875Y-7.85
X12.875Y-7.95
X12.875Y-8.05
X12.875Y-8.15
X12.875Y-8.25
X12.875Y-8.35
X12.9234Y-7.35
X12.9256Y-2.2756
X12.9266Y-5.625
X12.9516Y-3.3
X12.975Y-7.15
X13.0254Y-5.9002
X13.0254Y-6.0002
X13.0254Y-6.1002
X13.0254Y-6.2002
X13.0254Y-6.3002
X13.0254Y-6.4002
X13.0254Y-6.5002
X13.0254Y-6.6002
X13.0254Y-6.7002
X13.0254Y-6.8002
X13.0504Y-4.2252
X13.0504Y-4.3252
X13.0504Y-4.4252
X13.0504Y-4.5252
X13.0504Y-4.6252
X13.0504Y-4.7252
X13.0504Y-4.8252
X13.0504Y-4.9252
X13.0504Y-5.0252
X13.0504Y-5.1252
X13.1016Y-3.975
X13.1016Y-7.15
X13.1234Y-5.625
X13.1484Y-3.3
X13.175Y-5.375
X13.175Y-7.65
X13.175Y-7.75
X13.175Y-7.85
X13.175Y-7.95
X13.175Y-8.05
X13.175Y-8.15
X13.175Y-8.25
X13.175Y-8.35
X13.2984Y-3.975
X13.2984Y-7.15
X13.3254Y-5.9002
X13.3254Y-6.0002
X13.3254Y-6.1002
X13.3254Y-6.2002
X13.3254Y-6.3002
X13.3254Y-6.4002
X13.3254Y-6.5002
X13.3254Y-6.6002
X13.3254Y-6.7002
X13.3254Y-6.8002
X13.3504Y-4.2252
X13.3504Y-4.3252
X13.3504Y-4.4252
X13.3504Y-4.5252
X13.3504Y-4.6252
X13.3504Y-4.7252
X13.3504Y-4.8252
X13.3504Y-4.9252
X13.3504Y-5.0252
X13.3504Y-5.1252
X13.3793Y-5.5
X13.45Y-7.15
X13.4777Y-5.5
X13.55Y-2.9
X13.575Y-7.65
X13.575Y-7.75
X13.575Y-7.85
X13.575Y-7.95
X13.575Y-8.05
X13.575Y-8.15
X13.575Y-8.25
X13.575Y-8.35
X13.7498Y-5.5244
X13.7498Y-5.6244
X13.7498Y-5.7244
X13.7498Y-5.8244
X13.7498Y-5.9244
X13.7498Y-6.0244
X13.7498Y-6.1244
X13.7498Y-6.2244
X13.7498Y-6.3244
X13.7498Y-6.4244
X13.7498Y-6.5244
X13.7498Y-6.6244
X13.7498Y-6.7244
X13.7498Y-6.8244
X13.75Y-7.15
X13.85Y-2.9
X13.875Y-7.65
X13.875Y-7.75
X13.875Y-7.85
X13.875Y-7.95
X13.875Y-8.05
X13.875Y-8.15
X13.875Y-8.25
X13.875Y-8.35
X13.925Y-7.15
X13.9254Y-4.1752
X13.9254Y-4.2752
X13.9254Y-4.3752
X13.9254Y-4.4752
X13.9254Y-4.5752
X13.9254Y-4.6752
X13.9254Y-4.7752
X13.9254Y-4.8752
X13.9254Y-4.9752
X13.9254Y-5.0752
X13.9516Y-5.275
X13.9766Y-3.925
X14.037Y-3.3622
X14.1354Y-3.3622
X14.1484Y-5.275
X14.1734Y-3.925
X14.1754Y-7.3998
X14.1754Y-7.4998
X14.1754Y-7.5998
X14.1754Y-7.6998
X14.1754Y-7.7998
X14.1754Y-7.8998
X14.1754Y-7.9998
X14.225Y-7.15
X14.2254Y-4.1752
X14.2254Y-4.2752
X14.2254Y-4.3752
X14.2254Y-4.4752
X14.2254Y-4.5752
X14.2254Y-4.6752
X14.2254Y-4.7752
X14.2254Y-4.8752
X14.2254Y-4.9752
X14.2254Y-5.0752
X14.3498Y-5.5244
X14.3498Y-5.6244
X14.3498Y-5.7244
X14.3498Y-5.8244
X14.3498Y-5.9244
X14.3498Y-6.0244
X14.3498Y-6.1244
X14.3498Y-6.2244
X14.3498Y-6.3244
X14.3498Y-6.4244
X14.3498Y-6.5244
X14.3498Y-6.6244
X14.3498Y-6.7244
X14.3498Y-6.8244
X14.4754Y-7.3998
X14.4754Y-7.4998
X14.4754Y-7.5998
X14.4754Y-7.6998
X14.4754Y-7.7998
X14.4754Y-7.8998
X14.4754Y-7.9998
X14.625Y-5.35
X14.625Y-5.525
X14.625Y-5.7
X14.625Y-5.9
X14.6254Y-6.1246
X14.6254Y-6.2246
X14.6254Y-6.3246
X14.6254Y-6.4246
X14.6254Y-6.5246
X14.6254Y-6.6246
X14.6254Y-6.7246
X14.6254Y-6.8246
X14.6504Y-3.0496
X14.6504Y-3.1496
X14.6504Y-3.2496
X14.6504Y-3.3496
X14.6504Y-3.4496
X14.6504Y-3.5496
X14.6504Y-3.6496
X14.6504Y-3.7496
X14.6504Y-4.2002
X14.6504Y-4.3002
X14.6504Y-4.4002
X14.6504Y-4.5002
X14.6504Y-4.6002
X14.6504Y-4.7002
X14.6504Y-4.8002
X14.6504Y-4.9002
X14.6504Y-5.0002
X14.6504Y-5.1002
X14.675Y-7.325
X14.675Y-7.525
X14.675Y-7.725
X14.7016Y-4.0
X14.7266Y-2.875
X14.8984Y-4.0
X14.9234Y-2.875
X14.925Y-5.35
X14.925Y-5.525
X14.925Y-5.7
X14.925Y-5.9
X14.9254Y-6.1246
X14.9254Y-6.2246
X14.9254Y-6.3246
X14.9254Y-6.4246
X14.9254Y-6.5246
X14.9254Y-6.6246
X14.9254Y-6.7246
X14.9254Y-6.8246
X14.9504Y-3.0496
X14.9504Y-3.1496
X14.9504Y-3.2496
X14.9504Y-3.3496
X14.9504Y-3.4496
X14.9504Y-3.5496
X14.9504Y-3.6496
X14.9504Y-3.7496
X14.9504Y-4.2002
X14.9504Y-4.3002
X14.9504Y-4.4002
X14.9504Y-4.5002
X14.9504Y-4.6002
X14.9504Y-4.7002
X14.9504Y-4.8002
X14.9504Y-4.9002
X14.9504Y-5.0002
X14.9504Y-5.1002
X14.975Y-7.325
X14.975Y-7.525
X14.975Y-7.725
X15.4Y-5.7
X15.4Y-5.9
X15.4Y-6.075
X15.4Y-6.25
X15.4Y-6.45
X15.4Y-6.65
X15.4Y-6.85
X15.4Y-7.05
X15.7Y-5.7
X15.7Y-5.9
X15.7Y-6.075
X15.7Y-6.25
X15.7Y-6.45
X15.7Y-6.65
X15.7Y-6.85
X15.7Y-7.05
T4
X1.4Y-7.275
X1.5Y-7.275
X1.95Y-6.975
X2.25Y-6.975
X6.325Y-4.425
X6.325Y-4.725
X6.65Y-7.05
X6.95Y-7.05
X9.125Y-6.85
X9.425Y-6.85
T5
X1.4866Y-3.811
X1.4866Y-3.9201
X1.4866Y-4.0291
X1.4866Y-4.1382
X1.5116Y-5.386
X1.5116Y-5.4951
X1.5116Y-5.6041
X1.5116Y-5.7132
X1.5984Y-3.7565
X1.5984Y-3.8656
X1.5984Y-3.9746
X1.5984Y-4.0837
X1.5984Y-4.1927
X1.6234Y-5.3315
X1.6234Y-5.4406
X1.6234Y-5.5496
X1.6234Y-5.6587
X1.6234Y-5.7677
X2.775Y-1.3
X2.875Y-1.3
X4.4171Y-1.2992
X4.5171Y-1.2992
X4.6171Y-1.2992
X4.7171Y-1.2992
X4.8171Y-1.2992
X4.9171Y-1.2992
X5.0171Y-1.2992
X5.1171Y-1.2992
X5.2171Y-1.2992
X5.3159Y-6.8967
X5.3159Y-6.9967
X5.3159Y-7.0967
X5.3171Y-1.2992
X5.4171Y-1.2992
X5.5171Y-1.2992
X5.6171Y-1.2992
X5.7171Y-1.2992
X5.7618Y-8.6063
X5.8171Y-1.2992
X5.8618Y-8.6063
X5.9171Y-1.2992
X5.9618Y-8.6063
X5.9646Y-7.3907
X5.9646Y-7.4907
X5.9882Y-7.7323
X5.9882Y-7.8323
X5.9882Y-7.9323
X6.0171Y-1.2992
X6.0618Y-8.6063
X6.1171Y-1.2992
X6.1618Y-8.6063
X6.2618Y-8.6063
X6.3618Y-8.6063
X6.45Y-1.3
X6.4618Y-8.6063
X6.55Y-1.3
X6.5618Y-8.6063
X6.6618Y-8.6063
X6.7618Y-8.6063
X6.85Y-1.3
X6.8618Y-8.6063
X6.95Y-1.3
X6.9618Y-8.6063
X7.0618Y-8.6063
X7.1618Y-8.6063
X7.25Y-1.3
X7.2618Y-8.6063
X7.35Y-1.3
X10.075Y-3.5
X10.175Y-3.5
X10.275Y-3.5
X11.025Y-3.5
X11.125Y-3.5
X11.225Y-3.5
X12.4656Y-1.4961
X12.5656Y-1.4961
X13.3196Y-1.5756
X13.3196Y-1.7724
X13.3256Y-2.3752
X13.3256Y-2.4752
X13.4196Y-1.5756
X13.4196Y-1.7724
X13.4256Y-2.3752
X13.4256Y-2.4752
X13.5196Y-1.5756
X13.5196Y-1.7724
X13.5256Y-2.3752
X13.5256Y-2.4752
X13.6196Y-1.5756
X13.6196Y-1.7724
X13.6256Y-2.3752
X13.6256Y-2.4752
X13.7196Y-1.5756
X13.7196Y-1.7724
X13.7256Y-2.3752
X13.7256Y-2.4752
X13.8196Y-1.5756
X13.8196Y-1.7724
X13.8256Y-2.3752
X13.8256Y-2.4752
X13.9196Y-1.5756
X13.9196Y-1.7724
X13.9256Y-2.3752
X13.9256Y-2.4752
X14.0196Y-1.5756
X14.0196Y-1.7724
X14.0256Y-2.3752
X14.0256Y-2.4752
X14.1196Y-1.5756
X14.1196Y-1.7724
X14.1256Y-2.3752
X14.1256Y-2.4752
X14.2196Y-1.5756
X14.2196Y-1.7724
X14.2256Y-2.3752
X14.2256Y-2.4752
X14.3196Y-1.5756
X14.3196Y-1.7724
X14.3256Y-2.3752
X14.3256Y-2.4752
X14.4196Y-1.5756
X14.4196Y-1.7724
X14.4256Y-2.3752
X14.4256Y-2.4752
X14.5196Y-1.5756
X14.5196Y-1.7724
X14.5256Y-2.3752
X14.5256Y-2.4752
X14.6196Y-1.5756
X14.6196Y-1.7724
X14.6256Y-2.3752
X14.6256Y-2.4752
X14.7196Y-1.5756
X14.7196Y-1.7724
X14.7256Y-2.3752
X14.7256Y-2.4752
X14.8196Y-1.5756
X14.8196Y-1.7724
X14.8256Y-2.3752
X14.8256Y-2.4752
X14.9196Y-1.5756
X14.9196Y-1.7724
X14.9256Y-2.3752
X14.9256Y-2.4752
X15.0196Y-1.5756
X15.0196Y-1.7724
X15.0256Y-2.3752
X15.0256Y-2.4752
X15.4252Y-2.9502
X15.4252Y-3.0502
X15.4252Y-3.1502
X15.4252Y-3.2502
X15.4252Y-3.3502
X15.4252Y-3.4502
X15.4252Y-3.5502
X15.4252Y-3.6502
X15.4252Y-3.7502
X15.4252Y-3.8502
X15.4252Y-3.9502
X15.4252Y-4.0502
X15.4252Y-4.1502
X15.4252Y-4.2502
X15.4252Y-4.3502
X15.4252Y-4.4502
X15.4252Y-4.5502
X15.4252Y-4.6502
X15.4252Y-4.7502
X15.4252Y-4.8502
X15.4252Y-4.9502
X15.4252Y-5.0502
X15.5252Y-2.9502
X15.5252Y-3.0502
X15.5252Y-3.1502
X15.5252Y-3.2502
X15.5252Y-3.3502
X15.5252Y-3.4502
X15.5252Y-3.5502
X15.5252Y-3.6502
X15.5252Y-3.7502
X15.5252Y-3.8502
X15.5252Y-3.9502
X15.5252Y-4.0502
X15.5252Y-4.1502
X15.5252Y-4.2502
X15.5252Y-4.3502
X15.5252Y-4.4502
X15.5252Y-4.5502
X15.5252Y-4.6502
X15.5252Y-4.7502
X15.5252Y-4.8502
X15.5252Y-4.9502
X15.5252Y-5.0502
X15.8974Y-2.925
X15.8974Y-3.025
X15.8974Y-3.125
X15.8974Y-3.225
X15.9006Y-3.325
X15.9006Y-3.425
X15.9006Y-3.525
X15.9006Y-3.625
X15.9006Y-3.725
X15.9006Y-3.825
X15.9006Y-3.925
X15.9006Y-4.025
X15.9006Y-4.125
X15.9006Y-4.225
X15.9006Y-4.325
X15.9006Y-4.425
X15.9006Y-4.525
X15.9006Y-4.625
X15.9006Y-4.725
X15.9006Y-4.825
X15.9006Y-4.925
X15.9006Y-5.025
X16.0943Y-2.925
X16.0943Y-3.025
X16.0943Y-3.125
X16.0943Y-3.225
X16.0974Y-3.325
X16.0974Y-3.425
X16.0974Y-3.525
X16.0974Y-3.625
X16.0974Y-3.725
X16.0974Y-3.825
X16.0974Y-3.925
X16.0974Y-4.025
X16.0974Y-4.125
X16.0974Y-4.225
X16.0974Y-4.325
X16.0974Y-4.425
X16.0974Y-4.525
X16.0974Y-4.625
X16.0974Y-4.725
X16.0974Y-4.825
X16.0974Y-4.925
X16.0974Y-5.025
T6
X1.4Y-7.775
X1.5Y-7.775
X1.6Y-7.775
T7
X10.3403Y-1.3903
X10.3403Y-1.6068
X10.5056Y-1.3903
X10.5056Y-1.6068
X10.671Y-1.3903
X10.671Y-1.6068
X10.8363Y-1.3903
X10.8363Y-1.6068
X11.0017Y-1.3903
X11.0017Y-1.6068
X11.167Y-1.3903
X11.167Y-1.6068
X11.3324Y-1.3903
X11.3324Y-1.6068
X11.4977Y-1.3903
X11.4977Y-1.6068
X11.6631Y-1.3903
X11.6631Y-1.6068
X11.8284Y-1.3903
X11.8284Y-1.6068
T8
X1.2362Y-3.4825
X1.2362Y-4.4667
X1.2612Y-5.0575
X1.2612Y-6.0417
T0
M30
