G04 #@! TF.GenerationSoftware,KiCad,Pcbnew,(5.1.5)-3*
G04 #@! TF.CreationDate,2021-01-24T16:57:30-06:00*
G04 #@! TF.ProjectId,DragonKeyboard,44726167-6f6e-44b6-9579-626f6172642e,rev?*
G04 #@! TF.SameCoordinates,Original*
G04 #@! TF.FileFunction,Soldermask,Bot*
G04 #@! TF.FilePolarity,Negative*
%FSLAX46Y46*%
G04 Gerber Fmt 4.6, Leading zero omitted, Abs format (unit mm)*
G04 Created by KiCad (PCBNEW (5.1.5)-3) date 2021-01-24 16:57:30*
%MOMM*%
%LPD*%
G04 APERTURE LIST*
%ADD10C,2.100000*%
%ADD11C,4.400000*%
%ADD12C,2.600000*%
%ADD13O,2.100000X2.100000*%
%ADD14R,2.100000X2.100000*%
%ADD15C,6.800000*%
%ADD16C,2.686000*%
G04 APERTURE END LIST*
D10*
X367140000Y-181380000D03*
X356980000Y-181380000D03*
D11*
X362060000Y-181380000D03*
D12*
X358250000Y-178840000D03*
X364600000Y-176300000D03*
D13*
X157600000Y-91100000D03*
X155060000Y-91100000D03*
X152520000Y-91100000D03*
X149980000Y-91100000D03*
X147440000Y-91100000D03*
X144900000Y-91100000D03*
X142360000Y-91100000D03*
X139820000Y-91100000D03*
X137280000Y-91100000D03*
X134740000Y-91100000D03*
X132200000Y-91100000D03*
X129660000Y-91100000D03*
X127120000Y-91100000D03*
X124580000Y-91100000D03*
X122040000Y-91100000D03*
D14*
X119500000Y-91100000D03*
D13*
X93900000Y-91000000D03*
X91360000Y-91000000D03*
X88820000Y-91000000D03*
X86280000Y-91000000D03*
X83740000Y-91000000D03*
X81200000Y-91000000D03*
X78660000Y-91000000D03*
X76120000Y-91000000D03*
X73580000Y-91000000D03*
X71040000Y-91000000D03*
X68500000Y-91000000D03*
X65960000Y-91000000D03*
X63420000Y-91000000D03*
X60880000Y-91000000D03*
X58340000Y-91000000D03*
D14*
X55800000Y-91000000D03*
D10*
X65040000Y-162680000D03*
X54880000Y-162680000D03*
D11*
X59960000Y-162680000D03*
D12*
X56150000Y-160140000D03*
X62500000Y-157600000D03*
D15*
X176530000Y-93472000D03*
X252603000Y-102108000D03*
X41529000Y-203708000D03*
X311404000Y-203581000D03*
X41529000Y-93472000D03*
X243967000Y-203708000D03*
X385200000Y-203700000D03*
X385200000Y-116000000D03*
D16*
X283440000Y-119220000D03*
X277090000Y-121760000D03*
X245745000Y-119380000D03*
X239395000Y-121920000D03*
X74295000Y-119380000D03*
X67945000Y-121920000D03*
X93345000Y-119380000D03*
X86995000Y-121920000D03*
X112395000Y-119380000D03*
X106045000Y-121920000D03*
X131445000Y-119380000D03*
X125095000Y-121920000D03*
X150495000Y-119380000D03*
X144145000Y-121920000D03*
X169545000Y-119380000D03*
X163195000Y-121920000D03*
X188595000Y-119380000D03*
X182245000Y-121920000D03*
X207645000Y-119380000D03*
X201295000Y-121920000D03*
X226695000Y-119380000D03*
X220345000Y-121920000D03*
X383640000Y-176420000D03*
X377290000Y-178960000D03*
X264640000Y-119220000D03*
X258290000Y-121760000D03*
X274320000Y-138430000D03*
X267970000Y-140970000D03*
X260032000Y-157480000D03*
X253682000Y-160020000D03*
X279082000Y-157480000D03*
X272732000Y-160020000D03*
X231458000Y-176530000D03*
X225108000Y-179070000D03*
X250508000Y-176530000D03*
X244158000Y-179070000D03*
X269558000Y-176530000D03*
X263208000Y-179070000D03*
X88582500Y-157480000D03*
X82232500Y-160020000D03*
X174308000Y-176530000D03*
X167958000Y-179070000D03*
X136208000Y-176530000D03*
X129858000Y-179070000D03*
X126682000Y-157480000D03*
X120332000Y-160020000D03*
X121920000Y-138430000D03*
X115570000Y-140970000D03*
X145732000Y-157480000D03*
X139382000Y-160020000D03*
X164782000Y-157480000D03*
X158432000Y-160020000D03*
X183832000Y-157480000D03*
X177482000Y-160020000D03*
X217170000Y-138430000D03*
X210820000Y-140970000D03*
X202882000Y-157480000D03*
X196532000Y-160020000D03*
X221932000Y-157480000D03*
X215582000Y-160020000D03*
X240982000Y-157480000D03*
X234632000Y-160020000D03*
X212408000Y-176530000D03*
X206058000Y-179070000D03*
X193358000Y-176530000D03*
X187008000Y-179070000D03*
X236220000Y-138430000D03*
X229870000Y-140970000D03*
X255270000Y-138430000D03*
X248920000Y-140970000D03*
X83940000Y-138420000D03*
X77590000Y-140960000D03*
X140970000Y-138430000D03*
X134620000Y-140970000D03*
X107632000Y-157480000D03*
X101282000Y-160020000D03*
X160020000Y-138430000D03*
X153670000Y-140970000D03*
X198120000Y-138430000D03*
X191770000Y-140970000D03*
X155258000Y-176530000D03*
X148908000Y-179070000D03*
X102870000Y-138430000D03*
X96520000Y-140970000D03*
X117158000Y-176530000D03*
X110808000Y-179070000D03*
X179070000Y-138430000D03*
X172720000Y-140970000D03*
X98107500Y-176530000D03*
X91757500Y-179070000D03*
X67151200Y-176530000D03*
X60801200Y-179070000D03*
X309840000Y-157420000D03*
X303490000Y-159960000D03*
X176689000Y-195580000D03*
X170339000Y-198120000D03*
X345540000Y-176320000D03*
X339190000Y-178860000D03*
X364740000Y-157220000D03*
X358390000Y-159760000D03*
X304927000Y-176403000D03*
X298577000Y-178943000D03*
M02*
