M48
; DRILL file {KiCad (5.1.5)-3} date 1/24/2021 4:57:33 PM
; FORMAT={-:-/ absolute / inch / decimal}
; #@! TF.CreationDate,2021-01-24T16:57:33-06:00
; #@! TF.GenerationSoftware,Kicad,Pcbnew,(5.1.5)-3
; #@! TF.FileFunction,Plated,1,2,PTH
FMAT,2
INCH
T1C0.0157
T2C0.0394
T3C0.0590
T4C0.0591
T5C0.1260
%
G90
G05
T1
X2.363Y-3.8301
X3.4796Y-3.8049
X3.6376Y-5.7915
X3.6488Y-3.8378
X3.748Y-4.1299
X4.394Y-3.7038
X4.4978Y-5.4126
X4.5072Y-4.1267
X4.5072Y-4.7387
X4.5097Y-5.45
X4.671Y-4.8973
X4.7005Y-6.6563
X5.2337Y-3.6785
X5.5401Y-3.7427
X6.5424Y-4.8
X6.6118Y-4.7391
X6.7592Y-4.7314
X6.835Y-4.6223
X6.864Y-4.7728
X6.9858Y-5.3207
X7.0226Y-6.2408
X7.0411Y-6.8934
X7.0769Y-5.3378
X7.5707Y-6.3072
X7.5728Y-5.4386
X9.0667Y-6.1292
X12.9764Y-7.0197
T2
X4.7047Y-3.5866
X4.8047Y-3.5866
X4.9047Y-3.5866
X5.0047Y-3.5866
X5.1047Y-3.5866
X5.2047Y-3.5866
X5.3047Y-3.5866
X5.4047Y-3.5866
X5.5047Y-3.5866
X5.6047Y-3.5866
X5.7047Y-3.5866
X5.8047Y-3.5866
X5.9047Y-3.5866
X6.0047Y-3.5866
X6.1047Y-3.5866
X6.2047Y-3.5866
X2.1969Y-3.5827
X2.2969Y-3.5827
X2.3969Y-3.5827
X2.4969Y-3.5827
X2.5969Y-3.5827
X2.6969Y-3.5827
X2.7969Y-3.5827
X2.8969Y-3.5827
X2.9969Y-3.5827
X3.0969Y-3.5827
X3.1969Y-3.5827
X3.2969Y-3.5827
X3.3969Y-3.5827
X3.4969Y-3.5827
X3.5969Y-3.5827
X3.6969Y-3.5827
T3
X11.9484Y-6.2976
X12.1984Y-6.1976
X2.675Y-4.8
X2.925Y-4.7
X4.3625Y-7.05
X4.6125Y-6.95
X10.7375Y-6.3
X10.9875Y-6.2
X5.8625Y-7.05
X6.1125Y-6.95
X6.2375Y-6.3
X6.4875Y-6.2
X14.1098Y-6.2898
X14.3598Y-6.1898
X5.675Y-4.8
X5.925Y-4.7
X9.2375Y-6.3
X9.4875Y-6.2
X4.7375Y-6.3
X4.9875Y-6.2
X9.8Y-5.55
X10.05Y-5.45
X7.925Y-4.8
X8.175Y-4.7
X8.4875Y-6.3
X8.7375Y-6.2
X5.4875Y-6.3
X5.7375Y-6.2
X13.3539Y-7.0417
X13.6039Y-6.9417
X9.425Y-4.8
X9.675Y-4.7
X7.175Y-4.8
X7.425Y-4.7
X7.7375Y-6.3
X7.9875Y-6.2
X5.1125Y-7.05
X5.3625Y-6.95
X6.05Y-5.55
X6.3Y-5.45
X14.8539Y-7.0457
X15.1039Y-6.9457
X8.1125Y-7.05
X8.3625Y-6.95
X4.55Y-5.55
X4.8Y-5.45
X2.3937Y-7.05
X2.6437Y-6.95
X10.9091Y-4.7937
X11.1591Y-4.6937
X6.425Y-4.8
X6.675Y-4.7
X3.0547Y-5.5496
X3.3047Y-5.4496
X9.9875Y-6.3
X10.2375Y-6.2
X8.3Y-5.55
X8.55Y-5.45
X3.2375Y-6.3
X3.4875Y-6.2
X7.55Y-5.55
X7.8Y-5.45
X8.8625Y-7.05
X9.1125Y-6.95
X6.7063Y-7.8
X6.9563Y-7.7
X3.425Y-4.8
X3.675Y-4.7
X3.9875Y-6.3
X4.2375Y-6.2
X10.3625Y-7.05
X10.6125Y-6.95
X9.05Y-5.55
X9.3Y-5.45
X10.55Y-5.55
X10.8Y-5.45
X5.3Y-5.55
X5.55Y-5.45
X6.6125Y-7.05
X6.8625Y-6.95
X4.925Y-4.8
X5.175Y-4.7
X3.6125Y-7.05
X3.8625Y-6.95
X9.6125Y-7.05
X9.8625Y-6.95
X7.3625Y-7.05
X7.6125Y-6.95
X10.1689Y-4.7937
X10.4189Y-4.6937
X11.755Y-7.045
X12.005Y-6.945
X4.175Y-4.8
X4.425Y-4.7
X6.8Y-5.55
X7.05Y-5.45
X8.675Y-4.8
X8.925Y-4.7
X3.8Y-5.55
X4.05Y-5.45
X6.9875Y-6.3
X7.2375Y-6.2
T4
X2.2106Y-6.3047
X2.4606Y-6.2047
X14.1043Y-7.0409
X14.3543Y-6.9409
T5
X15.1654Y-4.5669
X12.26Y-8.015
X1.635Y-8.02
X9.605Y-8.02
X6.95Y-3.68
X15.1654Y-8.0197
X1.635Y-3.68
X9.945Y-4.02
T0
M30
