G04 #@! TF.GenerationSoftware,KiCad,Pcbnew,(5.1.5)-3*
G04 #@! TF.CreationDate,2021-01-24T16:57:30-06:00*
G04 #@! TF.ProjectId,DragonKeyboard,44726167-6f6e-44b6-9579-626f6172642e,rev?*
G04 #@! TF.SameCoordinates,Original*
G04 #@! TF.FileFunction,Copper,L2,Bot*
G04 #@! TF.FilePolarity,Positive*
%FSLAX46Y46*%
G04 Gerber Fmt 4.6, Leading zero omitted, Abs format (unit mm)*
G04 Created by KiCad (PCBNEW (5.1.5)-3) date 2021-01-24 16:57:30*
%MOMM*%
%LPD*%
G04 APERTURE LIST*
%ADD10C,2.200000*%
%ADD11O,1.700000X1.700000*%
%ADD12R,1.700000X1.700000*%
%ADD13C,6.400000*%
%ADD14C,2.286000*%
%ADD15C,0.600000*%
%ADD16C,0.375000*%
G04 APERTURE END LIST*
D10*
X358250000Y-178840000D03*
X364600000Y-176300000D03*
D11*
X157600000Y-91100000D03*
X155060000Y-91100000D03*
X152520000Y-91100000D03*
X149980000Y-91100000D03*
X147440000Y-91100000D03*
X144900000Y-91100000D03*
X142360000Y-91100000D03*
X139820000Y-91100000D03*
X137280000Y-91100000D03*
X134740000Y-91100000D03*
X132200000Y-91100000D03*
X129660000Y-91100000D03*
X127120000Y-91100000D03*
X124580000Y-91100000D03*
X122040000Y-91100000D03*
D12*
X119500000Y-91100000D03*
D11*
X93900000Y-91000000D03*
X91360000Y-91000000D03*
X88820000Y-91000000D03*
X86280000Y-91000000D03*
X83740000Y-91000000D03*
X81200000Y-91000000D03*
X78660000Y-91000000D03*
X76120000Y-91000000D03*
X73580000Y-91000000D03*
X71040000Y-91000000D03*
X68500000Y-91000000D03*
X65960000Y-91000000D03*
X63420000Y-91000000D03*
X60880000Y-91000000D03*
X58340000Y-91000000D03*
D12*
X55800000Y-91000000D03*
D10*
X56150000Y-160140000D03*
X62500000Y-157600000D03*
D13*
X176530000Y-93472000D03*
X252603000Y-102108000D03*
X41529000Y-203708000D03*
X311404000Y-203581000D03*
X41529000Y-93472000D03*
X243967000Y-203708000D03*
X385200000Y-203700000D03*
X385200000Y-116000000D03*
D14*
X283440000Y-119220000D03*
X277090000Y-121760000D03*
X245745000Y-119380000D03*
X239395000Y-121920000D03*
X74295000Y-119380000D03*
X67945000Y-121920000D03*
X93345000Y-119380000D03*
X86995000Y-121920000D03*
X112395000Y-119380000D03*
X106045000Y-121920000D03*
X131445000Y-119380000D03*
X125095000Y-121920000D03*
X150495000Y-119380000D03*
X144145000Y-121920000D03*
X169545000Y-119380000D03*
X163195000Y-121920000D03*
X188595000Y-119380000D03*
X182245000Y-121920000D03*
X207645000Y-119380000D03*
X201295000Y-121920000D03*
X226695000Y-119380000D03*
X220345000Y-121920000D03*
X383640000Y-176420000D03*
X377290000Y-178960000D03*
X264640000Y-119220000D03*
X258290000Y-121760000D03*
X274320000Y-138430000D03*
X267970000Y-140970000D03*
X260032000Y-157480000D03*
X253682000Y-160020000D03*
X279082000Y-157480000D03*
X272732000Y-160020000D03*
X231458000Y-176530000D03*
X225108000Y-179070000D03*
X250508000Y-176530000D03*
X244158000Y-179070000D03*
X269558000Y-176530000D03*
X263208000Y-179070000D03*
X88582500Y-157480000D03*
X82232500Y-160020000D03*
X174308000Y-176530000D03*
X167958000Y-179070000D03*
X136208000Y-176530000D03*
X129858000Y-179070000D03*
X126682000Y-157480000D03*
X120332000Y-160020000D03*
X121920000Y-138430000D03*
X115570000Y-140970000D03*
X145732000Y-157480000D03*
X139382000Y-160020000D03*
X164782000Y-157480000D03*
X158432000Y-160020000D03*
X183832000Y-157480000D03*
X177482000Y-160020000D03*
X217170000Y-138430000D03*
X210820000Y-140970000D03*
X202882000Y-157480000D03*
X196532000Y-160020000D03*
X221932000Y-157480000D03*
X215582000Y-160020000D03*
X240982000Y-157480000D03*
X234632000Y-160020000D03*
X212408000Y-176530000D03*
X206058000Y-179070000D03*
X193358000Y-176530000D03*
X187008000Y-179070000D03*
X236220000Y-138430000D03*
X229870000Y-140970000D03*
X255270000Y-138430000D03*
X248920000Y-140970000D03*
X83940000Y-138420000D03*
X77590000Y-140960000D03*
X140970000Y-138430000D03*
X134620000Y-140970000D03*
X107632000Y-157480000D03*
X101282000Y-160020000D03*
X160020000Y-138430000D03*
X153670000Y-140970000D03*
X198120000Y-138430000D03*
X191770000Y-140970000D03*
X155258000Y-176530000D03*
X148908000Y-179070000D03*
X102870000Y-138430000D03*
X96520000Y-140970000D03*
X117158000Y-176530000D03*
X110808000Y-179070000D03*
X179070000Y-138430000D03*
X172720000Y-140970000D03*
X98107500Y-176530000D03*
X91757500Y-179070000D03*
X67151200Y-176530000D03*
X60801200Y-179070000D03*
X309840000Y-157420000D03*
X303490000Y-159960000D03*
X176689000Y-195580000D03*
X170339000Y-198120000D03*
X345540000Y-176320000D03*
X339190000Y-178860000D03*
X364740000Y-157220000D03*
X358390000Y-159760000D03*
X304927000Y-176403000D03*
X298577000Y-178943000D03*
D15*
X192348700Y-138140200D03*
X166176600Y-121920000D03*
X174344900Y-121229500D03*
X329600000Y-178300000D03*
X114482700Y-120362600D03*
X167940400Y-120373100D03*
X95200000Y-104900000D03*
X114482700Y-104817300D03*
X92679900Y-97481100D03*
X140719300Y-95064000D03*
X230294200Y-155682200D03*
X111606600Y-94076900D03*
X92394500Y-147104700D03*
X88382500Y-96645300D03*
X178373500Y-158517400D03*
X132935900Y-93434300D03*
X119393900Y-169069100D03*
X171684700Y-120177600D03*
X192296100Y-160201900D03*
X173609000Y-117405700D03*
X60019200Y-97285000D03*
X178843400Y-175091500D03*
X114545300Y-138430000D03*
X118644500Y-124390900D03*
X177438700Y-135145600D03*
X179753800Y-135581200D03*
X114243600Y-137479200D03*
D16*
X93900000Y-92237800D02*
X97132600Y-95470400D01*
X97132600Y-95470400D02*
X97132600Y-140357400D01*
X97132600Y-140357400D02*
X96520000Y-140970000D01*
X96520000Y-140970000D02*
X96520000Y-177007600D01*
X96520000Y-177007600D02*
X92088700Y-181438900D01*
X92088700Y-181438900D02*
X92088700Y-181791400D01*
X92088700Y-181791400D02*
X91027600Y-182852500D01*
X91027600Y-182852500D02*
X72792200Y-182852500D01*
X72792200Y-182852500D02*
X69744500Y-179804800D01*
X69744500Y-179804800D02*
X67442300Y-179804800D01*
X67442300Y-179804800D02*
X66707500Y-179070000D01*
X66707500Y-179070000D02*
X60801200Y-179070000D01*
X157600000Y-91100000D02*
X157600000Y-92337800D01*
X182245000Y-121920000D02*
X182245000Y-116982800D01*
X182245000Y-116982800D02*
X157600000Y-92337800D01*
X192348700Y-138140200D02*
X182245000Y-128036500D01*
X182245000Y-128036500D02*
X182245000Y-121920000D01*
X158432000Y-160020000D02*
X164556300Y-153895700D01*
X164556300Y-153895700D02*
X164556300Y-123540300D01*
X164556300Y-123540300D02*
X166176600Y-121920000D01*
X170339000Y-198120000D02*
X170339000Y-190850000D01*
X170339000Y-190850000D02*
X158432000Y-178943000D01*
X158432000Y-178943000D02*
X158432000Y-160020000D01*
X229870000Y-140970000D02*
X229870000Y-143119500D01*
X229870000Y-143119500D02*
X263208000Y-176457500D01*
X263208000Y-176457500D02*
X263208000Y-179070000D01*
X93900000Y-91000000D02*
X93900000Y-92237800D01*
X155060000Y-91100000D02*
X155060000Y-92337800D01*
X155060000Y-92337800D02*
X174344900Y-111622700D01*
X174344900Y-111622700D02*
X174344900Y-121229500D01*
X139382000Y-160020000D02*
X155031300Y-144370700D01*
X155031300Y-144370700D02*
X155031300Y-142590300D01*
X155031300Y-142590300D02*
X157058300Y-140563300D01*
X157058300Y-140563300D02*
X157058300Y-131276400D01*
X157058300Y-131276400D02*
X163195000Y-125139700D01*
X163195000Y-125139700D02*
X163195000Y-121920000D01*
X148908000Y-179070000D02*
X139382000Y-169544000D01*
X139382000Y-169544000D02*
X139382000Y-160020000D01*
X329899999Y-178599999D02*
X329899999Y-180599999D01*
X329600000Y-178300000D02*
X329899999Y-178599999D01*
X329899999Y-180599999D02*
X333200000Y-183900000D01*
X333200000Y-183900000D02*
X370000000Y-183900000D01*
X374940000Y-178960000D02*
X377290000Y-178960000D01*
X370000000Y-183900000D02*
X374940000Y-178960000D01*
X115570000Y-140970000D02*
X113505500Y-138905500D01*
X113505500Y-138905500D02*
X113505500Y-121339800D01*
X113505500Y-121339800D02*
X114482700Y-120362600D01*
X258290000Y-120922700D02*
X258290000Y-121760000D01*
X295371300Y-117641300D02*
X261571400Y-117641300D01*
X261571400Y-117641300D02*
X258290000Y-120922700D01*
X258290000Y-120922700D02*
X255201900Y-117834600D01*
X255201900Y-117834600D02*
X214105400Y-117834600D01*
X214105400Y-117834600D02*
X211012700Y-120927300D01*
X211012700Y-120927300D02*
X204060700Y-120927300D01*
X204060700Y-120927300D02*
X203504800Y-120371400D01*
X203504800Y-120371400D02*
X200654100Y-120371400D01*
X200654100Y-120371400D02*
X194598100Y-126427400D01*
X194598100Y-126427400D02*
X194598100Y-138141900D01*
X194598100Y-138141900D02*
X191770000Y-140970000D01*
X152520000Y-92337800D02*
X172395600Y-112213400D01*
X172395600Y-112213400D02*
X172395600Y-120975200D01*
X172395600Y-120975200D02*
X168542500Y-120975200D01*
X168542500Y-120975200D02*
X167940400Y-120373100D01*
X191770000Y-140970000D02*
X172395600Y-121595600D01*
X172395600Y-121595600D02*
X172395600Y-120975200D01*
X191770000Y-140970000D02*
X191770000Y-159755300D01*
X191770000Y-159755300D02*
X191608300Y-159917000D01*
X191608300Y-159917000D02*
X191608300Y-164620300D01*
X191608300Y-164620300D02*
X206058000Y-179070000D01*
X152520000Y-91100000D02*
X152520000Y-92337800D01*
X114482700Y-120362600D02*
X114482700Y-104817300D01*
X88820000Y-92202081D02*
X95200000Y-98582081D01*
X88820000Y-91000000D02*
X88820000Y-92202081D01*
X95200000Y-98582081D02*
X95200000Y-104900000D01*
X95200000Y-104900000D02*
X95200000Y-104900000D01*
X114482700Y-104817300D02*
X114482700Y-104817300D01*
X339190000Y-161460000D02*
X295371300Y-117641300D01*
X339190000Y-178860000D02*
X339190000Y-161460000D01*
X86280000Y-91000000D02*
X86280000Y-92237800D01*
X92679900Y-97481100D02*
X87436600Y-92237800D01*
X87436600Y-92237800D02*
X86280000Y-92237800D01*
X134620000Y-121920000D02*
X125095000Y-121920000D01*
X153670000Y-140970000D02*
X134620000Y-121920000D01*
X140719300Y-95064000D02*
X134620000Y-101163300D01*
X134620000Y-101163300D02*
X134620000Y-121920000D01*
X120332000Y-160020000D02*
X116984500Y-156672500D01*
X116984500Y-156672500D02*
X116984500Y-142537100D01*
X116984500Y-142537100D02*
X118631400Y-140890200D01*
X118631400Y-140890200D02*
X118631400Y-127877000D01*
X118631400Y-127877000D02*
X124588400Y-121920000D01*
X124588400Y-121920000D02*
X125095000Y-121920000D01*
X234632000Y-160020000D02*
X230294200Y-155682200D01*
X225108000Y-179070000D02*
X234632000Y-169546000D01*
X234632000Y-169546000D02*
X234632000Y-160020000D01*
X106045000Y-121920000D02*
X106045000Y-99638500D01*
X106045000Y-99638500D02*
X111606600Y-94076900D01*
X109170700Y-160020000D02*
X109170700Y-144064500D01*
X109170700Y-144064500D02*
X106045000Y-140938800D01*
X106045000Y-140938800D02*
X106045000Y-121920000D01*
X129858000Y-179070000D02*
X129858000Y-178560400D01*
X129858000Y-178560400D02*
X111317600Y-160020000D01*
X111317600Y-160020000D02*
X109170700Y-160020000D01*
X109170700Y-160020000D02*
X101282000Y-160020000D01*
X92394500Y-147104700D02*
X92394500Y-178433000D01*
X92394500Y-178433000D02*
X91757500Y-179070000D01*
X86995000Y-121920000D02*
X86995000Y-141705200D01*
X86995000Y-141705200D02*
X92394500Y-147104700D01*
X88382500Y-96645300D02*
X86995000Y-98032800D01*
X86995000Y-98032800D02*
X86995000Y-121920000D01*
X81200000Y-92237800D02*
X86995000Y-98032800D01*
X91757500Y-179070000D02*
X67521200Y-179070000D01*
X67521200Y-179070000D02*
X56150000Y-167698800D01*
X56150000Y-167698800D02*
X56150000Y-160140000D01*
X81200000Y-91000000D02*
X81200000Y-92237800D01*
X167958000Y-179070000D02*
X173966100Y-179070000D01*
X173966100Y-179070000D02*
X175838900Y-177197200D01*
X175838900Y-177197200D02*
X175838900Y-167147600D01*
X175838900Y-167147600D02*
X174969300Y-166278000D01*
X174969300Y-166278000D02*
X174969300Y-160286900D01*
X174969300Y-160286900D02*
X176819900Y-158436300D01*
X176819900Y-158436300D02*
X178292400Y-158436300D01*
X178292400Y-158436300D02*
X178373500Y-158517400D01*
X138549900Y-92337800D02*
X134032400Y-92337800D01*
X134032400Y-92337800D02*
X132935900Y-93434300D01*
X172720000Y-140970000D02*
X170846200Y-139096200D01*
X170846200Y-139096200D02*
X170846200Y-124634100D01*
X170846200Y-124634100D02*
X141407100Y-95195000D01*
X141407100Y-95195000D02*
X141407100Y-94779000D01*
X141407100Y-94779000D02*
X138965900Y-92337800D01*
X138965900Y-92337800D02*
X138549900Y-92337800D01*
X142360000Y-91100000D02*
X141094000Y-89834000D01*
X141094000Y-89834000D02*
X139323600Y-89834000D01*
X139323600Y-89834000D02*
X138549900Y-90607700D01*
X138549900Y-90607700D02*
X138549900Y-92337800D01*
X78660000Y-91000000D02*
X77422200Y-91000000D01*
X77422200Y-91000000D02*
X77422200Y-91464200D01*
X77422200Y-91464200D02*
X76648500Y-92237900D01*
X76648500Y-92237900D02*
X70495700Y-92237900D01*
X70495700Y-92237900D02*
X69770000Y-91512200D01*
X69770000Y-91512200D02*
X69770000Y-90509600D01*
X69770000Y-90509600D02*
X68979700Y-89719300D01*
X68979700Y-89719300D02*
X67993100Y-89719300D01*
X67993100Y-89719300D02*
X67230000Y-90482400D01*
X67230000Y-90482400D02*
X67230000Y-100423300D01*
X67230000Y-100423300D02*
X75849600Y-109042900D01*
X75849600Y-109042900D02*
X75849600Y-119990700D01*
X75849600Y-119990700D02*
X73920300Y-121920000D01*
X73920300Y-121920000D02*
X67945000Y-121920000D01*
X77590000Y-140960000D02*
X67945000Y-131315000D01*
X67945000Y-131315000D02*
X67945000Y-121920000D01*
X77590000Y-140960000D02*
X77590000Y-155377500D01*
X77590000Y-155377500D02*
X82232500Y-160020000D01*
X210820000Y-140970000D02*
X210820000Y-130951400D01*
X210820000Y-130951400D02*
X219851400Y-121920000D01*
X219851400Y-121920000D02*
X220345000Y-121920000D01*
X201295000Y-121920000D02*
X218170500Y-121920000D01*
X218170500Y-121920000D02*
X219760000Y-120330500D01*
X219760000Y-120330500D02*
X224827100Y-120330500D01*
X224827100Y-120330500D02*
X226416600Y-121920000D01*
X226416600Y-121920000D02*
X239395000Y-121920000D01*
X119393900Y-169069100D02*
X110808000Y-177655000D01*
X110808000Y-177655000D02*
X110808000Y-179070000D01*
X139820000Y-91100000D02*
X141057800Y-91100000D01*
X171684700Y-120177600D02*
X171684700Y-119325500D01*
X171684700Y-119325500D02*
X144697000Y-92337800D01*
X144697000Y-92337800D02*
X141831300Y-92337800D01*
X141831300Y-92337800D02*
X141057800Y-91564300D01*
X141057800Y-91564300D02*
X141057800Y-91100000D01*
X192296100Y-160201900D02*
X193131300Y-159366700D01*
X193131300Y-159366700D02*
X193131300Y-142590300D01*
X193131300Y-142590300D02*
X196327900Y-139393700D01*
X196327900Y-139393700D02*
X196327900Y-130997000D01*
X196327900Y-130997000D02*
X201295000Y-126029900D01*
X201295000Y-126029900D02*
X201295000Y-121920000D01*
X248920000Y-140970000D02*
X239395000Y-131445000D01*
X239395000Y-131445000D02*
X239395000Y-121920000D01*
X303490000Y-159960000D02*
X284500000Y-140970000D01*
X284500000Y-140970000D02*
X267970000Y-140970000D01*
X137280000Y-91100000D02*
X137280000Y-90998400D01*
X137280000Y-90998400D02*
X139035800Y-89242600D01*
X139035800Y-89242600D02*
X152435600Y-89242600D01*
X152435600Y-89242600D02*
X153790000Y-90597000D01*
X153790000Y-90597000D02*
X153790000Y-92475200D01*
X153790000Y-92475200D02*
X173608900Y-112294100D01*
X173608900Y-112294100D02*
X173608900Y-117405700D01*
X173608900Y-117405700D02*
X173609000Y-117405700D01*
X60019200Y-97285000D02*
X60019200Y-155119200D01*
X60019200Y-155119200D02*
X62500000Y-157600000D01*
X67151200Y-176530000D02*
X62500000Y-171878800D01*
X62500000Y-171878800D02*
X62500000Y-157600000D01*
X309840000Y-157420000D02*
X309840000Y-145620000D01*
X309840000Y-145620000D02*
X283440000Y-119220000D01*
X304927000Y-176403000D02*
X309840000Y-171490000D01*
X309840000Y-171490000D02*
X309840000Y-157420000D01*
X128422200Y-91100000D02*
X128422200Y-90635800D01*
X128422200Y-90635800D02*
X127521800Y-89735400D01*
X97352300Y-89735400D02*
X97352300Y-89497000D01*
X97352300Y-89497000D02*
X97015400Y-89160100D01*
X97015400Y-89160100D02*
X96163600Y-89160100D01*
X96163600Y-89160100D02*
X95826700Y-89497000D01*
X95826700Y-89497000D02*
X95826700Y-89735400D01*
X95826700Y-89735400D02*
X91238500Y-89735400D01*
X91238500Y-89735400D02*
X91238500Y-89497000D01*
X91238500Y-89497000D02*
X90901600Y-89160100D01*
X90901600Y-89160100D02*
X90049800Y-89160100D01*
X90049800Y-89160100D02*
X89712900Y-89497000D01*
X89712900Y-89497000D02*
X89712900Y-89568700D01*
X89712900Y-89568700D02*
X89546200Y-89735400D01*
X89546200Y-89735400D02*
X87570400Y-89735400D01*
X178843400Y-175091500D02*
X178843400Y-161640200D01*
X178843400Y-161640200D02*
X179070000Y-161413600D01*
X179070000Y-161413600D02*
X179070000Y-138430000D01*
X176689000Y-195580000D02*
X178843400Y-193425600D01*
X178843400Y-193425600D02*
X178843400Y-175091500D01*
X93403100Y-89745000D02*
X94413800Y-89745000D01*
X87570400Y-89735400D02*
X73078200Y-89735400D01*
X73078200Y-89735400D02*
X72277800Y-90535800D01*
X72277800Y-90535800D02*
X72277800Y-91000000D01*
X129660000Y-91100000D02*
X128422200Y-91100000D01*
X71040000Y-91000000D02*
X72277800Y-91000000D01*
X117158000Y-176530000D02*
X142571500Y-201943500D01*
X142571500Y-201943500D02*
X169549400Y-201943500D01*
X169549400Y-201943500D02*
X171767300Y-199725600D01*
X171767300Y-199725600D02*
X171767300Y-199673300D01*
X171767300Y-199673300D02*
X175860600Y-195580000D01*
X175860600Y-195580000D02*
X176689000Y-195580000D01*
X364740000Y-157220000D02*
X364740000Y-176160000D01*
X364740000Y-176160000D02*
X364600000Y-176300000D01*
X98051600Y-142138500D02*
X98051600Y-89851600D01*
X98051600Y-89851600D02*
X98000000Y-89800000D01*
X98000000Y-89800000D02*
X97352300Y-89735400D01*
X127521800Y-89735400D02*
X98000000Y-89800000D01*
X97891200Y-176313700D02*
X97891200Y-142298900D01*
X98107500Y-176530000D02*
X97891200Y-176313700D01*
X97891200Y-142298900D02*
X98051600Y-142138500D01*
X114545300Y-138430000D02*
X114994600Y-137980700D01*
X114994600Y-137980700D02*
X114994600Y-129013600D01*
X114994600Y-129013600D02*
X127120000Y-116888200D01*
X127120000Y-116888200D02*
X127120000Y-91100000D01*
X68500000Y-91000000D02*
X68500000Y-92237800D01*
X83940000Y-138420000D02*
X83940000Y-107677800D01*
X83940000Y-107677800D02*
X68500000Y-92237800D01*
X107632000Y-157480000D02*
X102870000Y-152718000D01*
X102870000Y-152718000D02*
X102870000Y-138430000D01*
X155258000Y-176530000D02*
X155258000Y-151677600D01*
X155258000Y-151677600D02*
X160020000Y-146915600D01*
X160020000Y-146915600D02*
X160020000Y-138430000D01*
X183832000Y-157480000D02*
X183832000Y-138621800D01*
X183832000Y-138621800D02*
X180103500Y-134893300D01*
X180103500Y-134893300D02*
X177691000Y-134893300D01*
X177691000Y-134893300D02*
X177438700Y-135145600D01*
X183832000Y-157480000D02*
X183832000Y-167004000D01*
X183832000Y-167004000D02*
X193358000Y-176530000D01*
X118644500Y-124390900D02*
X122040000Y-120995400D01*
X122040000Y-120995400D02*
X122040000Y-91100000D01*
X220027000Y-157480000D02*
X220027000Y-158275100D01*
X220027000Y-158275100D02*
X216043800Y-162258300D01*
X216043800Y-162258300D02*
X216043800Y-172894200D01*
X216043800Y-172894200D02*
X212408000Y-176530000D01*
X217170000Y-138430000D02*
X217170000Y-154623000D01*
X217170000Y-154623000D02*
X220027000Y-157480000D01*
X221932000Y-157480000D02*
X220027000Y-157480000D01*
X119500000Y-91100000D02*
X119500000Y-92337800D01*
X119500000Y-92337800D02*
X117827400Y-94010400D01*
X117827400Y-94010400D02*
X117827400Y-124724300D01*
X117827400Y-124724300D02*
X114243600Y-128308100D01*
X114243600Y-128308100D02*
X114243600Y-137479200D01*
X179753800Y-135581200D02*
X176098600Y-139236400D01*
X176098600Y-139236400D02*
X176098600Y-140291500D01*
X176098600Y-140291500D02*
X174121000Y-142269100D01*
X174121000Y-142269100D02*
X174121000Y-148141000D01*
X174121000Y-148141000D02*
X164782000Y-157480000D01*
X164782000Y-157480000D02*
X174308000Y-167006000D01*
X174308000Y-167006000D02*
X174308000Y-176530000D01*
X126682000Y-157480000D02*
X136208000Y-167006000D01*
X136208000Y-167006000D02*
X136208000Y-176530000D01*
X121920000Y-138430000D02*
X121920000Y-152718000D01*
X121920000Y-152718000D02*
X126682000Y-157480000D01*
X135338200Y-91100000D02*
X133371700Y-89133500D01*
X133371700Y-89133500D02*
X97802500Y-89133500D01*
X97802500Y-89133500D02*
X97253800Y-88584800D01*
X97253800Y-88584800D02*
X95925200Y-88584800D01*
X95925200Y-88584800D02*
X95376500Y-89133500D01*
X95376500Y-89133500D02*
X91688700Y-89133500D01*
X91688700Y-89133500D02*
X91140000Y-88584800D01*
X91140000Y-88584800D02*
X89811400Y-88584800D01*
X89811400Y-88584800D02*
X89262700Y-89133500D01*
X89262700Y-89133500D02*
X60980100Y-89133500D01*
X60980100Y-89133500D02*
X59577800Y-90535800D01*
X59577800Y-90535800D02*
X59577800Y-91000000D01*
X58340000Y-91000000D02*
X59577800Y-91000000D01*
X135338200Y-91100000D02*
X135977800Y-91100000D01*
X134740000Y-91100000D02*
X135338200Y-91100000D01*
X207645000Y-119380000D02*
X176932300Y-88667300D01*
X176932300Y-88667300D02*
X137946300Y-88667300D01*
X137946300Y-88667300D02*
X135977800Y-90635800D01*
X135977800Y-90635800D02*
X135977800Y-91100000D01*
X260032000Y-157480000D02*
X264640000Y-152872000D01*
X264640000Y-152872000D02*
X264640000Y-119220000D01*
X269177200Y-166625100D02*
X260032000Y-157480000D01*
X269558000Y-176530000D02*
X269558000Y-167006000D01*
X269558000Y-167006000D02*
X269177200Y-166625100D01*
X279082000Y-157480000D02*
X278213500Y-157480000D01*
X278213500Y-157480000D02*
X272765200Y-162928300D01*
X272765200Y-162928300D02*
X272765200Y-163037100D01*
X272765200Y-163037100D02*
X269177200Y-166625100D01*
X74295000Y-119380000D02*
X74295000Y-110588000D01*
X74295000Y-110588000D02*
X55944800Y-92237800D01*
X55944800Y-92237800D02*
X55800000Y-92237800D01*
X55800000Y-91000000D02*
X55800000Y-92237800D01*
X131445000Y-119380000D02*
X132200000Y-118625000D01*
X132200000Y-118625000D02*
X132200000Y-91100000D01*
M02*
