M48
; DRILL file {KiCad 6.0.1-79c1e3a40b~116~ubuntu21.04.1} date Thu 30 Jun 2022 07:29:04 AM CDT
; FORMAT={-:-/ absolute / inch / decimal}
; #@! TF.CreationDate,2022-06-30T07:29:04-05:00
; #@! TF.GenerationSoftware,Kicad,Pcbnew,6.0.1-79c1e3a40b~116~ubuntu21.04.1
; #@! TF.FileFunction,Plated,1,2,PTH
FMAT,2
INCH
; #@! TA.AperFunction,Plated,PTH,ViaDrill
T1C0.0157
; #@! TA.AperFunction,Plated,PTH,ComponentDrill
T2C0.0394
; #@! TA.AperFunction,Plated,PTH,ComponentDrill
T3C0.0590
; #@! TA.AperFunction,Plated,PTH,ComponentDrill
T4C0.0591
; #@! TA.AperFunction,Plated,PTH,ComponentDrill
T5C0.1260
%
G90
G05
T1
X4.9055Y-5.7559
X5.3228Y-4.4252
X6.1024Y-7.5984
X7.4724Y-6.1496
X8.7375Y-6.575
X10.2677Y-6.5984
T2
X2.4827Y-4.252
X2.5827Y-4.252
X2.6827Y-4.252
X2.7827Y-4.252
X2.8827Y-4.252
X2.9827Y-4.252
X3.0827Y-4.252
X3.1827Y-4.252
X3.2827Y-4.252
X3.3827Y-4.252
X3.4827Y-4.252
X3.5827Y-4.252
X3.6827Y-4.252
X3.7827Y-4.252
X3.8827Y-4.252
T3
X2.3937Y-7.05
X2.6437Y-6.95
X2.675Y-4.8
X2.925Y-4.7
X3.0547Y-5.5496
X3.2375Y-6.3
X3.3047Y-5.4496
X3.425Y-4.8
X3.4875Y-6.2
X3.6125Y-7.05
X3.675Y-4.7
X3.8Y-5.55
X3.8625Y-6.95
X3.9875Y-6.3
X3.9917Y-7.8016
X4.05Y-5.45
X4.175Y-4.8
X4.2375Y-6.2
X4.2417Y-7.7016
X4.3625Y-7.05
X4.425Y-4.7
X4.55Y-5.55
X4.6125Y-6.95
X4.7375Y-6.3
X4.8Y-5.45
X4.925Y-4.8
X4.9875Y-6.2
X5.1125Y-7.05
X5.175Y-4.7
X5.3Y-5.55
X5.3625Y-6.95
X5.4875Y-6.3
X5.55Y-5.45
X5.675Y-4.8
X5.7375Y-6.2
X5.8625Y-7.05
X5.925Y-4.7
X6.05Y-5.55
X6.1125Y-6.95
X6.2375Y-6.3
X6.3Y-5.45
X6.425Y-4.8
X6.4875Y-6.2
X6.6125Y-7.05
X6.675Y-4.7
X6.7063Y-7.8
X6.8Y-5.55
X6.8625Y-6.95
X6.9563Y-7.7
X6.9875Y-6.3
X7.05Y-5.45
X7.175Y-4.8
X7.2375Y-6.2
X7.3625Y-7.05
X7.425Y-4.7
X7.55Y-5.55
X7.6125Y-6.95
X7.7375Y-6.3
X7.8Y-5.45
X7.925Y-4.8
X7.9875Y-6.2
X8.1125Y-7.05
X8.175Y-4.7
X8.3Y-5.55
X8.3625Y-6.95
X8.4875Y-6.3
X8.55Y-5.45
X8.675Y-4.8
X8.7375Y-6.2
X8.8625Y-7.05
X8.925Y-4.7
X9.05Y-5.55
X9.1125Y-6.95
X9.2375Y-6.3
X9.3Y-5.45
X9.4248Y-7.7976
X9.425Y-4.8
X9.4875Y-6.2
X9.6125Y-7.05
X9.6748Y-7.6976
X9.675Y-4.7
X9.8Y-5.55
X9.8625Y-6.95
X9.9875Y-6.3
X10.05Y-5.45
X10.1728Y-4.8016
X10.2375Y-6.2
X10.4228Y-4.7016
X10.55Y-5.55
X10.8Y-5.45
X11.0114Y-7.045
X11.2004Y-6.3
X11.2614Y-6.945
X11.2949Y-5.5496
X11.4504Y-6.2
X11.5449Y-5.4496
T4
X2.2106Y-6.3047
X2.4606Y-6.2047
X10.9232Y-4.8008
X11.1732Y-4.7008
T5
X1.5933Y-4.3121
X1.5933Y-7.9643
X7.874Y-4.3307
X10.1457Y-7.9921
X12.2282Y-7.9921
X12.2283Y-4.3031
T0
M30
