G04 #@! TF.GenerationSoftware,KiCad,Pcbnew,6.0.1-79c1e3a40b~116~ubuntu21.04.1*
G04 #@! TF.CreationDate,2022-06-30T07:28:59-05:00*
G04 #@! TF.ProjectId,Keyboard,4b657962-6f61-4726-942e-6b696361645f,rev?*
G04 #@! TF.SameCoordinates,Original*
G04 #@! TF.FileFunction,Copper,L1,Top*
G04 #@! TF.FilePolarity,Positive*
%FSLAX46Y46*%
G04 Gerber Fmt 4.6, Leading zero omitted, Abs format (unit mm)*
G04 Created by KiCad (PCBNEW 6.0.1-79c1e3a40b~116~ubuntu21.04.1) date 2022-06-30 07:28:59*
%MOMM*%
%LPD*%
G01*
G04 APERTURE LIST*
G04 #@! TA.AperFunction,ComponentPad*
%ADD10C,2.286000*%
G04 #@! TD*
G04 #@! TA.AperFunction,ComponentPad*
%ADD11C,2.200000*%
G04 #@! TD*
G04 #@! TA.AperFunction,ComponentPad*
%ADD12C,6.400000*%
G04 #@! TD*
G04 #@! TA.AperFunction,ComponentPad*
%ADD13R,1.700000X1.700000*%
G04 #@! TD*
G04 #@! TA.AperFunction,ComponentPad*
%ADD14O,1.700000X1.700000*%
G04 #@! TD*
G04 #@! TA.AperFunction,ViaPad*
%ADD15C,0.600000*%
G04 #@! TD*
G04 #@! TA.AperFunction,Conductor*
%ADD16C,0.375000*%
G04 #@! TD*
G04 APERTURE END LIST*
D10*
X245745000Y-119380000D03*
X239395000Y-121920000D03*
X74295000Y-119380000D03*
X67945000Y-121920000D03*
X93345000Y-119380000D03*
X86995000Y-121920000D03*
X112395000Y-119380000D03*
X106045000Y-121920000D03*
X131445000Y-119380000D03*
X125095000Y-121920000D03*
X150495000Y-119380000D03*
X144145000Y-121920000D03*
X169545000Y-119380000D03*
X163195000Y-121920000D03*
X188595000Y-119380000D03*
X182245000Y-121920000D03*
X207645000Y-119380000D03*
X201295000Y-121920000D03*
X226695000Y-119380000D03*
X220345000Y-121920000D03*
X245740000Y-195520000D03*
X239390000Y-198060000D03*
X264740000Y-119420000D03*
X258390000Y-121960000D03*
X274320000Y-138430000D03*
X267970000Y-140970000D03*
X260032000Y-157480000D03*
X253682000Y-160020000D03*
X231458000Y-176530000D03*
X225108000Y-179070000D03*
X250508000Y-176530000D03*
X244158000Y-179070000D03*
X88582500Y-157480000D03*
X82232500Y-160020000D03*
X174308000Y-176530000D03*
X167958000Y-179070000D03*
X136208000Y-176530000D03*
X129858000Y-179070000D03*
X126682000Y-157480000D03*
X120332000Y-160020000D03*
X121920000Y-138430000D03*
X115570000Y-140970000D03*
X145732000Y-157480000D03*
X139382000Y-160020000D03*
X164782000Y-157480000D03*
X158432000Y-160020000D03*
X183832000Y-157480000D03*
X177482000Y-160020000D03*
X217170000Y-138430000D03*
X210820000Y-140970000D03*
X202882000Y-157480000D03*
X196532000Y-160020000D03*
X221932000Y-157480000D03*
X215582000Y-160020000D03*
X240982000Y-157480000D03*
X234632000Y-160020000D03*
X212408000Y-176530000D03*
X206058000Y-179070000D03*
X193358000Y-176530000D03*
X187008000Y-179070000D03*
X236220000Y-138430000D03*
X229870000Y-140970000D03*
X255270000Y-138430000D03*
X248920000Y-140970000D03*
X83940000Y-138420000D03*
X77590000Y-140960000D03*
X140970000Y-138430000D03*
X134620000Y-140970000D03*
X107632000Y-157480000D03*
X101282000Y-160020000D03*
X160020000Y-138430000D03*
X153670000Y-140970000D03*
X198120000Y-138430000D03*
X191770000Y-140970000D03*
X155258000Y-176530000D03*
X148908000Y-179070000D03*
X102870000Y-138430000D03*
X96520000Y-140970000D03*
X117158000Y-176530000D03*
X110808000Y-179070000D03*
X179070000Y-138430000D03*
X172720000Y-140970000D03*
X98107500Y-176530000D03*
X91757500Y-179070000D03*
X67151200Y-176530000D03*
X60801200Y-179070000D03*
D11*
X62500000Y-157600000D03*
X56150000Y-160140000D03*
D10*
X176689000Y-195580000D03*
X170339000Y-198120000D03*
X293240000Y-138420000D03*
X286890000Y-140960000D03*
X107740000Y-195620000D03*
X101390000Y-198160000D03*
X286040000Y-176403000D03*
X279690000Y-178943000D03*
D11*
X283800000Y-119400000D03*
X277450000Y-121940000D03*
D12*
X257700000Y-203000000D03*
X40471000Y-109528000D03*
X310596000Y-203000000D03*
X40471000Y-202292000D03*
X200000000Y-110000000D03*
X310600000Y-109300000D03*
D10*
X290840000Y-157480000D03*
X284490000Y-160020000D03*
D13*
X98620000Y-108000000D03*
D14*
X96080000Y-108000000D03*
X93540000Y-108000000D03*
X91000000Y-108000000D03*
X88460000Y-108000000D03*
X85920000Y-108000000D03*
X83380000Y-108000000D03*
X80840000Y-108000000D03*
X78300000Y-108000000D03*
X75760000Y-108000000D03*
X73220000Y-108000000D03*
X70680000Y-108000000D03*
X68140000Y-108000000D03*
X65600000Y-108000000D03*
X63060000Y-108000000D03*
D15*
X124600000Y-146200000D03*
X189800000Y-156200000D03*
X135200000Y-112400000D03*
X155000000Y-193000000D03*
X221932000Y-167004000D03*
X260800000Y-167600000D03*
D16*
X111129479Y-196194520D02*
X107630921Y-199693078D01*
X49667760Y-106119746D02*
X51362027Y-104425480D01*
X175874554Y-198060000D02*
X174009074Y-196194520D01*
X107630921Y-199693078D02*
X107630921Y-201706922D01*
X83380000Y-108000000D02*
X86995000Y-111615000D01*
X69088000Y-147202000D02*
X56150000Y-160140000D01*
X174009074Y-196194520D02*
X111129479Y-196194520D01*
X239390000Y-198060000D02*
X175874554Y-198060000D01*
X106206922Y-203130921D02*
X61298954Y-203130921D01*
X86995000Y-111615000D02*
X86995000Y-121920000D01*
X79805480Y-104425480D02*
X83380000Y-108000000D01*
X67945000Y-121920000D02*
X69088000Y-123063000D01*
X69088000Y-123063000D02*
X69088000Y-147202000D01*
X51362027Y-104425480D02*
X79805480Y-104425480D01*
X49667760Y-191499727D02*
X49667760Y-106119746D01*
X107630921Y-201706922D02*
X106206922Y-203130921D01*
X61298954Y-203130921D02*
X49667760Y-191499727D01*
X75760000Y-108000000D02*
X84437079Y-116677079D01*
X84437079Y-116677079D02*
X84437079Y-128887079D01*
X84437079Y-128887079D02*
X96520000Y-140970000D01*
X112400000Y-136271237D02*
X112400000Y-152088000D01*
X93540000Y-117411237D02*
X112400000Y-136271237D01*
X121475000Y-169675000D02*
X121475000Y-161163000D01*
X131200000Y-178200000D02*
X127800000Y-174800000D01*
X126600000Y-174800000D02*
X121475000Y-169675000D01*
X140525000Y-161163000D02*
X140525000Y-174376763D01*
X136701763Y-178200000D02*
X131200000Y-178200000D01*
X79851200Y-160020000D02*
X82232500Y-160020000D01*
X140525000Y-174376763D02*
X136701763Y-178200000D01*
X60801200Y-179070000D02*
X79851200Y-160020000D01*
X112400000Y-152088000D02*
X120332000Y-160020000D01*
X127800000Y-174800000D02*
X126600000Y-174800000D01*
X93540000Y-108000000D02*
X93540000Y-117411237D01*
X121475000Y-161163000D02*
X120332000Y-160020000D01*
X139382000Y-160020000D02*
X140525000Y-161163000D01*
X175200000Y-181783396D02*
X179016604Y-185600000D01*
X167958000Y-179070000D02*
X172665843Y-179070000D01*
X73220000Y-108000000D02*
X78122921Y-112902921D01*
X129858000Y-179070000D02*
X148908000Y-179070000D01*
X286907921Y-140977921D02*
X286890000Y-140960000D01*
X179016604Y-185600000D02*
X250879396Y-185600000D01*
X93962079Y-162224079D02*
X110808000Y-179070000D01*
X110808000Y-179070000D02*
X129858000Y-179070000D01*
X250879396Y-185600000D02*
X286907921Y-149571475D01*
X78122921Y-126756823D02*
X93962079Y-142595981D01*
X172665843Y-179070000D02*
X175200000Y-181604157D01*
X78122921Y-112902921D02*
X78122921Y-126756823D01*
X93962079Y-142595981D02*
X93962079Y-162224079D01*
X286907921Y-149571475D02*
X286907921Y-140977921D01*
X91757500Y-179070000D02*
X110808000Y-179070000D01*
X175200000Y-181604157D02*
X175200000Y-181783396D01*
X261060000Y-121940000D02*
X256969989Y-117849989D01*
X239395000Y-121920000D02*
X235324989Y-117849989D01*
X96000000Y-107920000D02*
X96080000Y-108000000D01*
X145675000Y-104400000D02*
X99000000Y-104400000D01*
X243465011Y-117849989D02*
X239395000Y-121920000D01*
X96200000Y-107200000D02*
X96000000Y-107200000D01*
X235324989Y-117849989D02*
X224415011Y-117849989D01*
X220345000Y-121920000D02*
X216274989Y-117849989D01*
X96000000Y-107200000D02*
X96000000Y-107920000D01*
X224415011Y-117849989D02*
X220345000Y-121920000D01*
X197224989Y-117849989D02*
X186315011Y-117849989D01*
X216274989Y-117849989D02*
X205365011Y-117849989D01*
X186315011Y-117849989D02*
X182245000Y-121920000D01*
X205365011Y-117849989D02*
X201295000Y-121920000D01*
X167265011Y-117849989D02*
X163195000Y-121920000D01*
X163195000Y-121920000D02*
X145675000Y-104400000D01*
X277450000Y-121940000D02*
X261060000Y-121940000D01*
X201295000Y-121920000D02*
X197224989Y-117849989D01*
X182245000Y-121920000D02*
X178174989Y-117849989D01*
X178174989Y-117849989D02*
X167265011Y-117849989D01*
X99000000Y-104400000D02*
X96200000Y-107200000D01*
X256969989Y-117849989D02*
X243465011Y-117849989D01*
X98264623Y-112000000D02*
X94777011Y-108512388D01*
X94777011Y-108512388D02*
X94777011Y-107487612D01*
X124600000Y-146200000D02*
X122494520Y-144094520D01*
X123450011Y-139444509D02*
X123450011Y-128271248D01*
X122494520Y-144094520D02*
X122494520Y-140400000D01*
X94052388Y-106762989D02*
X92237011Y-106762989D01*
X92237011Y-106762989D02*
X91000000Y-108000000D01*
X107178763Y-112000000D02*
X98264623Y-112000000D01*
X94777011Y-107487612D02*
X94052388Y-106762989D01*
X122494520Y-140400000D02*
X123450011Y-139444509D01*
X123450011Y-128271248D02*
X107178763Y-112000000D01*
X267970000Y-140970000D02*
X269113000Y-142113000D01*
X204400000Y-179000000D02*
X205988000Y-179000000D01*
X258390000Y-121960000D02*
X259533000Y-123103000D01*
X250398921Y-180603078D02*
X250398921Y-183201079D01*
X205988000Y-179000000D02*
X206058000Y-179070000D01*
X244158000Y-179070000D02*
X225108000Y-179070000D01*
X246840921Y-184040921D02*
X244158000Y-181358000D01*
X189800000Y-156200000D02*
X189800000Y-162812000D01*
X225108000Y-179070000D02*
X204470000Y-179070000D01*
X250398921Y-183201079D02*
X249559079Y-184040921D01*
X206058000Y-179070000D02*
X186530000Y-179070000D01*
X204470000Y-179070000D02*
X204400000Y-179000000D01*
X249559079Y-184040921D02*
X246840921Y-184040921D01*
X269113000Y-161888999D02*
X250398921Y-180603078D01*
X269113000Y-142113000D02*
X269113000Y-161888999D01*
X189800000Y-162812000D02*
X206058000Y-179070000D01*
X259533000Y-132533000D02*
X267970000Y-140970000D01*
X244158000Y-181358000D02*
X244158000Y-179070000D01*
X259533000Y-123103000D02*
X259533000Y-132533000D01*
X293240000Y-138420000D02*
X293240000Y-155080000D01*
X50242279Y-190871922D02*
X50242279Y-106357721D01*
X293240000Y-127040000D02*
X293240000Y-138420000D01*
X254060000Y-187200000D02*
X245740000Y-195520000D01*
X67680000Y-105000000D02*
X70680000Y-108000000D01*
X176649000Y-195620000D02*
X176689000Y-195580000D01*
X283800000Y-119400000D02*
X285600000Y-119400000D01*
X107740000Y-195620000D02*
X176649000Y-195620000D01*
X85810600Y-195189400D02*
X54559757Y-195189400D01*
X281069079Y-179757475D02*
X281069079Y-181373921D01*
X51600000Y-105000000D02*
X67680000Y-105000000D01*
X286040000Y-176403000D02*
X284423554Y-176403000D01*
X275243000Y-187200000D02*
X254060000Y-187200000D01*
X286040000Y-168257843D02*
X286040000Y-176403000D01*
X67151200Y-176530000D02*
X85810600Y-195189400D01*
X86241200Y-195620000D02*
X107740000Y-195620000D01*
X290840000Y-163457843D02*
X286040000Y-168257843D01*
X264740000Y-119420000D02*
X283780000Y-119420000D01*
X293240000Y-155080000D02*
X290840000Y-157480000D01*
X50242279Y-106357721D02*
X51600000Y-105000000D01*
X245680000Y-195580000D02*
X245740000Y-195520000D01*
X285600000Y-119400000D02*
X293240000Y-127040000D01*
X176689000Y-195580000D02*
X245680000Y-195580000D01*
X85810600Y-195189400D02*
X86241200Y-195620000D01*
X283780000Y-119420000D02*
X283800000Y-119400000D01*
X284423554Y-176403000D02*
X281069079Y-179757475D01*
X54559757Y-195189400D02*
X50242279Y-190871922D01*
X281069079Y-181373921D02*
X275243000Y-187200000D01*
X290840000Y-157480000D02*
X290840000Y-163457843D01*
X183832000Y-157480000D02*
X183832000Y-163457843D01*
X150495000Y-119380000D02*
X150495000Y-125357843D01*
X174308000Y-176530000D02*
X193358000Y-176530000D01*
X179070000Y-152718000D02*
X183832000Y-157480000D01*
X143515000Y-112400000D02*
X135200000Y-112400000D01*
X169545000Y-128905000D02*
X179070000Y-138430000D01*
X174308000Y-176530000D02*
X174308000Y-167724604D01*
X169545000Y-119380000D02*
X169545000Y-128905000D01*
X179070000Y-138430000D02*
X179070000Y-152718000D01*
X160020000Y-138430000D02*
X164782000Y-143192000D01*
X174308000Y-172981843D02*
X174308000Y-176530000D01*
X164782000Y-143192000D02*
X164782000Y-157480000D01*
X160020000Y-134882843D02*
X160020000Y-138430000D01*
X150495000Y-125357843D02*
X160020000Y-134882843D01*
X183832000Y-163457843D02*
X174308000Y-172981843D01*
X150495000Y-119380000D02*
X143515000Y-112400000D01*
X174308000Y-167724604D02*
X164383396Y-157800000D01*
X155258000Y-192742000D02*
X155258000Y-176530000D01*
X198120000Y-152718000D02*
X202882000Y-157480000D01*
X145732000Y-157480000D02*
X145732000Y-167004000D01*
X140970000Y-152718000D02*
X145732000Y-157480000D01*
X131445000Y-119380000D02*
X131445000Y-123741396D01*
X188595000Y-128905000D02*
X198120000Y-138430000D01*
X140970000Y-133266396D02*
X140970000Y-138430000D01*
X140970000Y-138430000D02*
X140970000Y-152718000D01*
X198120000Y-138430000D02*
X198120000Y-152718000D01*
X188595000Y-119380000D02*
X188595000Y-128905000D01*
X131445000Y-123741396D02*
X140970000Y-133266396D01*
X202882000Y-167004000D02*
X212408000Y-176530000D01*
X202882000Y-157480000D02*
X202882000Y-167004000D01*
X155000000Y-193000000D02*
X155258000Y-192742000D01*
X145732000Y-167004000D02*
X155258000Y-176530000D01*
X121920000Y-152718000D02*
X126682000Y-157480000D01*
X112395000Y-119380000D02*
X112395000Y-128905000D01*
X221932000Y-157480000D02*
X221932000Y-167004000D01*
X221932000Y-167004000D02*
X231458000Y-176530000D01*
X126682000Y-157480000D02*
X126682000Y-167004000D01*
X207645000Y-128905000D02*
X217170000Y-138430000D01*
X217170000Y-152718000D02*
X221932000Y-157480000D01*
X112395000Y-128905000D02*
X121920000Y-138430000D01*
X207645000Y-119380000D02*
X207645000Y-128905000D01*
X217170000Y-138430000D02*
X217170000Y-152718000D01*
X121920000Y-138430000D02*
X121920000Y-152718000D01*
X126682000Y-167004000D02*
X136208000Y-176530000D01*
X107632000Y-167004000D02*
X117158000Y-176530000D01*
X240982000Y-157480000D02*
X240982000Y-167004000D01*
X93345000Y-128905000D02*
X102870000Y-138430000D01*
X240982000Y-167004000D02*
X250508000Y-176530000D01*
X226695000Y-119380000D02*
X226695000Y-128905000D01*
X102870000Y-152718000D02*
X107632000Y-157480000D01*
X236220000Y-152718000D02*
X240982000Y-157480000D01*
X93345000Y-119380000D02*
X93345000Y-128905000D01*
X236220000Y-138430000D02*
X236220000Y-152718000D01*
X107632000Y-157480000D02*
X107632000Y-167004000D01*
X226695000Y-128905000D02*
X236220000Y-138430000D01*
X102870000Y-138430000D02*
X102870000Y-152718000D01*
X83940000Y-152837500D02*
X88582500Y-157480000D01*
X88582500Y-167005000D02*
X98107500Y-176530000D01*
X255270000Y-152718000D02*
X260032000Y-157480000D01*
X74295000Y-119380000D02*
X74295000Y-123741396D01*
X72037010Y-106762989D02*
X71982989Y-106817010D01*
X71982989Y-106817010D02*
X71982989Y-117067989D01*
X80840000Y-108000000D02*
X79602989Y-106762989D01*
X79602989Y-106762989D02*
X72037010Y-106762989D01*
X245745000Y-119380000D02*
X245745000Y-128905000D01*
X88582500Y-157480000D02*
X88582500Y-167005000D01*
X71982989Y-117067989D02*
X74295000Y-119380000D01*
X245745000Y-128905000D02*
X255270000Y-138430000D01*
X74295000Y-123741396D02*
X83940000Y-133386396D01*
X255270000Y-138430000D02*
X255270000Y-152718000D01*
X83940000Y-133386396D02*
X83940000Y-138420000D01*
X83940000Y-138420000D02*
X83940000Y-152837500D01*
X260032000Y-166832000D02*
X260800000Y-167600000D01*
X260032000Y-157480000D02*
X260032000Y-166832000D01*
M02*
