G04 #@! TF.GenerationSoftware,KiCad,Pcbnew,6.0.1-79c1e3a40b~116~ubuntu21.04.1*
G04 #@! TF.CreationDate,2022-06-30T07:28:59-05:00*
G04 #@! TF.ProjectId,Keyboard,4b657962-6f61-4726-942e-6b696361645f,rev?*
G04 #@! TF.SameCoordinates,Original*
G04 #@! TF.FileFunction,Copper,L2,Bot*
G04 #@! TF.FilePolarity,Positive*
%FSLAX46Y46*%
G04 Gerber Fmt 4.6, Leading zero omitted, Abs format (unit mm)*
G04 Created by KiCad (PCBNEW 6.0.1-79c1e3a40b~116~ubuntu21.04.1) date 2022-06-30 07:28:59*
%MOMM*%
%LPD*%
G01*
G04 APERTURE LIST*
G04 #@! TA.AperFunction,ComponentPad*
%ADD10C,2.286000*%
G04 #@! TD*
G04 #@! TA.AperFunction,ComponentPad*
%ADD11C,2.200000*%
G04 #@! TD*
G04 #@! TA.AperFunction,ComponentPad*
%ADD12C,6.400000*%
G04 #@! TD*
G04 #@! TA.AperFunction,ComponentPad*
%ADD13R,1.700000X1.700000*%
G04 #@! TD*
G04 #@! TA.AperFunction,ComponentPad*
%ADD14O,1.700000X1.700000*%
G04 #@! TD*
G04 #@! TA.AperFunction,ViaPad*
%ADD15C,0.600000*%
G04 #@! TD*
G04 #@! TA.AperFunction,Conductor*
%ADD16C,0.375000*%
G04 #@! TD*
G04 APERTURE END LIST*
D10*
X245745000Y-119380000D03*
X239395000Y-121920000D03*
X74295000Y-119380000D03*
X67945000Y-121920000D03*
X93345000Y-119380000D03*
X86995000Y-121920000D03*
X112395000Y-119380000D03*
X106045000Y-121920000D03*
X131445000Y-119380000D03*
X125095000Y-121920000D03*
X150495000Y-119380000D03*
X144145000Y-121920000D03*
X169545000Y-119380000D03*
X163195000Y-121920000D03*
X188595000Y-119380000D03*
X182245000Y-121920000D03*
X207645000Y-119380000D03*
X201295000Y-121920000D03*
X226695000Y-119380000D03*
X220345000Y-121920000D03*
X245740000Y-195520000D03*
X239390000Y-198060000D03*
X264740000Y-119420000D03*
X258390000Y-121960000D03*
X274320000Y-138430000D03*
X267970000Y-140970000D03*
X260032000Y-157480000D03*
X253682000Y-160020000D03*
X231458000Y-176530000D03*
X225108000Y-179070000D03*
X250508000Y-176530000D03*
X244158000Y-179070000D03*
X88582500Y-157480000D03*
X82232500Y-160020000D03*
X174308000Y-176530000D03*
X167958000Y-179070000D03*
X136208000Y-176530000D03*
X129858000Y-179070000D03*
X126682000Y-157480000D03*
X120332000Y-160020000D03*
X121920000Y-138430000D03*
X115570000Y-140970000D03*
X145732000Y-157480000D03*
X139382000Y-160020000D03*
X164782000Y-157480000D03*
X158432000Y-160020000D03*
X183832000Y-157480000D03*
X177482000Y-160020000D03*
X217170000Y-138430000D03*
X210820000Y-140970000D03*
X202882000Y-157480000D03*
X196532000Y-160020000D03*
X221932000Y-157480000D03*
X215582000Y-160020000D03*
X240982000Y-157480000D03*
X234632000Y-160020000D03*
X212408000Y-176530000D03*
X206058000Y-179070000D03*
X193358000Y-176530000D03*
X187008000Y-179070000D03*
X236220000Y-138430000D03*
X229870000Y-140970000D03*
X255270000Y-138430000D03*
X248920000Y-140970000D03*
X83940000Y-138420000D03*
X77590000Y-140960000D03*
X140970000Y-138430000D03*
X134620000Y-140970000D03*
X107632000Y-157480000D03*
X101282000Y-160020000D03*
X160020000Y-138430000D03*
X153670000Y-140970000D03*
X198120000Y-138430000D03*
X191770000Y-140970000D03*
X155258000Y-176530000D03*
X148908000Y-179070000D03*
X102870000Y-138430000D03*
X96520000Y-140970000D03*
X117158000Y-176530000D03*
X110808000Y-179070000D03*
X179070000Y-138430000D03*
X172720000Y-140970000D03*
X98107500Y-176530000D03*
X91757500Y-179070000D03*
X67151200Y-176530000D03*
X60801200Y-179070000D03*
D11*
X62500000Y-157600000D03*
X56150000Y-160140000D03*
D10*
X176689000Y-195580000D03*
X170339000Y-198120000D03*
X293240000Y-138420000D03*
X286890000Y-140960000D03*
X107740000Y-195620000D03*
X101390000Y-198160000D03*
X286040000Y-176403000D03*
X279690000Y-178943000D03*
D11*
X283800000Y-119400000D03*
X277450000Y-121940000D03*
D12*
X257700000Y-203000000D03*
X40471000Y-109528000D03*
X310596000Y-203000000D03*
X40471000Y-202292000D03*
X200000000Y-110000000D03*
X310600000Y-109300000D03*
D10*
X290840000Y-157480000D03*
X284490000Y-160020000D03*
D13*
X98620000Y-108000000D03*
D14*
X96080000Y-108000000D03*
X93540000Y-108000000D03*
X91000000Y-108000000D03*
X88460000Y-108000000D03*
X85920000Y-108000000D03*
X83380000Y-108000000D03*
X80840000Y-108000000D03*
X78300000Y-108000000D03*
X75760000Y-108000000D03*
X73220000Y-108000000D03*
X70680000Y-108000000D03*
X68140000Y-108000000D03*
X65600000Y-108000000D03*
X63060000Y-108000000D03*
D15*
X124600000Y-146200000D03*
X189800000Y-156200000D03*
X135200000Y-112400000D03*
X155000000Y-193000000D03*
X221932000Y-167004000D03*
X260800000Y-167600000D03*
D16*
X67945000Y-121920000D02*
X86995000Y-121920000D01*
X86995000Y-121920000D02*
X106045000Y-121920000D01*
X144145000Y-121920000D02*
X125095000Y-121920000D01*
X125095000Y-121920000D02*
X106045000Y-121920000D01*
X78400000Y-149400000D02*
X78400000Y-141770000D01*
X77600000Y-140970000D02*
X77590000Y-140960000D01*
X115570000Y-140970000D02*
X96520000Y-140970000D01*
X96520000Y-140970000D02*
X77600000Y-140970000D01*
X78400000Y-141770000D02*
X77590000Y-140960000D01*
X79674579Y-176444579D02*
X79674579Y-150674579D01*
X101390000Y-198160000D02*
X79674579Y-176444579D01*
X134620000Y-140970000D02*
X115570000Y-140970000D01*
X153670000Y-140970000D02*
X134620000Y-140970000D01*
X79674579Y-150674579D02*
X78400000Y-149400000D01*
X265737921Y-164990921D02*
X161235078Y-164990921D01*
X101282000Y-160020000D02*
X120332000Y-160020000D01*
X158432000Y-160020000D02*
X139382000Y-160020000D01*
X158432000Y-162187843D02*
X158432000Y-160020000D01*
X161235078Y-164990921D02*
X158432000Y-162187843D01*
X82232500Y-160020000D02*
X101282000Y-160020000D01*
X279690000Y-178943000D02*
X265737921Y-164990921D01*
X148908000Y-179070000D02*
X167958000Y-179070000D01*
X210820000Y-140970000D02*
X191770000Y-140970000D01*
X160400000Y-128650000D02*
X160400000Y-120400000D01*
X262338604Y-140970000D02*
X274982583Y-153613979D01*
X145400000Y-105400000D02*
X103200000Y-105400000D01*
X248920000Y-140970000D02*
X262338604Y-140970000D01*
X248920000Y-140970000D02*
X229870000Y-140970000D01*
X100600000Y-108000000D02*
X98620000Y-108000000D01*
X172720000Y-140970000D02*
X160400000Y-128650000D01*
X160400000Y-120400000D02*
X145400000Y-105400000D01*
X274982583Y-153613979D02*
X278083979Y-153613979D01*
X278083979Y-153613979D02*
X284490000Y-160020000D01*
X103200000Y-105400000D02*
X100600000Y-108000000D01*
X191770000Y-140970000D02*
X172720000Y-140970000D01*
X229870000Y-140970000D02*
X210820000Y-140970000D01*
X196532000Y-160020000D02*
X177482000Y-160020000D01*
X215582000Y-160020000D02*
X196532000Y-160020000D01*
X234895843Y-198120000D02*
X249101922Y-183913921D01*
X234632000Y-160020000D02*
X215582000Y-160020000D01*
X163662000Y-146200000D02*
X124600000Y-146200000D01*
X249101922Y-183913921D02*
X285486079Y-183913921D01*
X272420000Y-160020000D02*
X253682000Y-160020000D01*
X287570011Y-175170011D02*
X272420000Y-160020000D01*
X285486079Y-183913921D02*
X287200000Y-182200000D01*
X170339000Y-198120000D02*
X234895843Y-198120000D01*
X177482000Y-160020000D02*
X163662000Y-146200000D01*
X287200000Y-182200000D02*
X287200000Y-177406763D01*
X253682000Y-160020000D02*
X234632000Y-160020000D01*
X287200000Y-177406763D02*
X287570011Y-177036752D01*
X287570011Y-177036752D02*
X287570011Y-175170011D01*
X150385921Y-123453078D02*
X150385921Y-124930180D01*
X181055741Y-155600000D02*
X189200000Y-155600000D01*
X136169854Y-109237011D02*
X150385921Y-123453078D01*
X150385921Y-124930180D02*
X181055741Y-155600000D01*
X88460000Y-108000000D02*
X89697011Y-109237011D01*
X189200000Y-155600000D02*
X189800000Y-156200000D01*
X89697011Y-109237011D02*
X136169854Y-109237011D01*
X57600000Y-105000000D02*
X58400000Y-104200000D01*
X57600000Y-109310601D02*
X57600000Y-105000000D01*
X85920000Y-105480000D02*
X85920000Y-108000000D01*
X84800000Y-104200000D02*
X86000000Y-105400000D01*
X86000000Y-105400000D02*
X85920000Y-105480000D01*
X58800000Y-110800000D02*
X58800000Y-110510601D01*
X62500000Y-114500000D02*
X58800000Y-110800000D01*
X62500000Y-157600000D02*
X62500000Y-114500000D01*
X58800000Y-110510601D02*
X57600000Y-109310601D01*
X58400000Y-104200000D02*
X84800000Y-104200000D01*
X78300000Y-108000000D02*
X82300000Y-112000000D01*
X135000000Y-112000000D02*
X135200000Y-112200000D01*
X135200000Y-112200000D02*
X135200000Y-112400000D01*
X82300000Y-112000000D02*
X135000000Y-112000000D01*
X145524079Y-126097842D02*
X161626237Y-142200000D01*
X63752979Y-166154375D02*
X100729525Y-203130921D01*
X63987011Y-161912865D02*
X63752979Y-162146897D01*
X63060000Y-108000000D02*
X63987011Y-108927011D01*
X151269079Y-203130921D02*
X155000000Y-199400000D01*
X183388237Y-159200000D02*
X195188237Y-159200000D01*
X146188578Y-122788579D02*
X145524079Y-123453078D01*
X166388237Y-142200000D02*
X183388237Y-159200000D01*
X161626237Y-142200000D02*
X166388237Y-142200000D01*
X196908237Y-157480000D02*
X202882000Y-157480000D01*
X100729525Y-203130921D02*
X151269079Y-203130921D01*
X143768763Y-119380000D02*
X146188578Y-121799815D01*
X145524079Y-123453078D02*
X145524079Y-126097842D01*
X63752979Y-162146897D02*
X63752979Y-166154375D01*
X131445000Y-119380000D02*
X143768763Y-119380000D01*
X155000000Y-199400000D02*
X155000000Y-193000000D01*
X195188237Y-159200000D02*
X196908237Y-157480000D01*
X63987011Y-108927011D02*
X63987011Y-161912865D01*
X146188578Y-121799815D02*
X146188578Y-122788579D01*
X108615000Y-115600000D02*
X112395000Y-119380000D01*
X71982989Y-107553590D02*
X71982989Y-108512388D01*
X71982989Y-108512388D02*
X79070601Y-115600000D01*
X139738000Y-173000000D02*
X216000000Y-173000000D01*
X65600000Y-108000000D02*
X66837011Y-106762989D01*
X71192388Y-106762989D02*
X71982989Y-107553590D01*
X66837011Y-106762989D02*
X71192388Y-106762989D01*
X136208000Y-176530000D02*
X139738000Y-173000000D01*
X79070601Y-115600000D02*
X108615000Y-115600000D01*
X216000000Y-173000000D02*
X222000000Y-167000000D01*
X117158000Y-176530000D02*
X117158000Y-177248604D01*
X80529989Y-120389989D02*
X90010011Y-120389989D01*
X91020000Y-119380000D02*
X93345000Y-119380000D01*
X123950317Y-184040921D02*
X179873316Y-184040921D01*
X188914248Y-174999989D02*
X248977989Y-174999989D01*
X68140000Y-108000000D02*
X80529989Y-120389989D01*
X90010011Y-120389989D02*
X91020000Y-119380000D01*
X117158000Y-177248604D02*
X123950317Y-184040921D01*
X248977989Y-174999989D02*
X250508000Y-176530000D01*
X179873316Y-184040921D02*
X188914248Y-174999989D01*
X106192941Y-184615441D02*
X243538560Y-184615441D01*
X243538560Y-184615441D02*
X245537079Y-182616922D01*
X98107500Y-176530000D02*
X106192941Y-184615441D01*
X274320000Y-138430000D02*
X255270000Y-138430000D01*
X251141752Y-178060011D02*
X260800000Y-168401763D01*
X245537079Y-182616922D02*
X245537079Y-180603078D01*
X245537079Y-180603078D02*
X248080146Y-178060011D01*
X260800000Y-168401763D02*
X260800000Y-167600000D01*
X248080146Y-178060011D02*
X251141752Y-178060011D01*
M02*
