M48
; DRILL file {KiCad (6.0.6)} date Sun Nov 13 19:35:09 2022
; FORMAT={-:-/ absolute / inch / decimal}
; #@! TF.CreationDate,2022-11-13T19:35:09-06:00
; #@! TF.GenerationSoftware,Kicad,Pcbnew,(6.0.6)
; #@! TF.FileFunction,Plated,1,2,PTH
FMAT,2
INCH
; #@! TA.AperFunction,Plated,PTH,ViaDrill
T1C0.0157
; #@! TA.AperFunction,Plated,PTH,ComponentDrill
T2C0.0315
; #@! TA.AperFunction,Plated,PTH,ComponentDrill
T3C0.0354
; #@! TA.AperFunction,Plated,PTH,ComponentDrill
T4C0.0394
; #@! TA.AperFunction,Plated,PTH,ComponentDrill
T5C0.0590
; #@! TA.AperFunction,Plated,PTH,ComponentDrill
T6C0.0591
; #@! TA.AperFunction,Plated,PTH,ComponentDrill
T7C0.1260
%
G90
G05
T1
X2.0157Y-5.3307
X2.912Y-5.525
X3.2693Y-4.3564
X3.3268Y-4.3855
X3.6759Y-6.7634
X4.1207Y-4.6708
X4.2584Y-4.551
X5.3561Y-4.7397
T2
X1.4957Y-4.6654
X1.5823Y-5.8937
X1.6417Y-4.878
X1.6417Y-4.978
X1.6417Y-5.078
X1.6417Y-5.178
X1.6535Y-5.4646
X1.7957Y-4.6654
X1.8504Y-5.4646
X1.8823Y-5.8937
X1.9417Y-4.878
X1.9417Y-4.978
X1.9417Y-5.078
X1.9417Y-5.178
X2.1998Y-7.7787
X2.1998Y-8.0787
X2.2998Y-7.7787
X2.2998Y-8.0787
X2.3998Y-7.7787
X2.3998Y-8.0787
X2.4998Y-7.7787
X2.4998Y-8.0787
X2.5998Y-7.7787
X2.5998Y-8.0787
X2.6998Y-7.7787
X2.6998Y-8.0787
X2.7998Y-7.7787
X2.7998Y-8.0787
X5.3815Y-4.2559
X5.6815Y-4.2559
T3
X2.3041Y-6.2126
X2.4041Y-6.2126
X6.1781Y-4.2559
X6.2781Y-4.2559
T4
X2.8384Y-4.2559
X2.9384Y-4.2559
X3.0384Y-4.2559
X3.1384Y-4.2559
X3.2384Y-4.2559
X3.3384Y-4.2559
X3.4384Y-4.2559
X3.5384Y-4.2559
X3.6384Y-4.2559
X3.7384Y-4.2559
X3.8384Y-4.2559
X3.9384Y-4.2559
X4.0384Y-4.2559
X4.1384Y-4.2559
X4.2384Y-4.2559
X4.3384Y-4.2559
X4.4384Y-4.2559
X4.5384Y-4.2559
T5
X2.3937Y-7.05
X2.6437Y-6.95
X2.675Y-4.8
X2.925Y-4.7
X3.0547Y-5.5496
X3.2375Y-6.3
X3.3047Y-5.4496
X3.425Y-4.8
X3.4875Y-6.2
X3.6125Y-7.05
X3.675Y-4.7
X3.8Y-5.55
X3.8625Y-6.95
X3.9875Y-6.3
X4.05Y-5.45
X4.175Y-4.8
X4.2375Y-6.2
X4.3625Y-7.05
X4.425Y-4.7
X4.55Y-5.55
X4.6125Y-6.95
X4.7375Y-6.3
X4.8Y-5.45
X4.925Y-4.8
X4.9875Y-6.2
X5.1125Y-7.05
X5.175Y-4.7
X5.3Y-5.55
X5.3625Y-6.95
X5.4875Y-6.3
X5.55Y-5.45
X5.675Y-4.8
X5.7375Y-6.2
X5.8625Y-7.05
X5.925Y-4.7
X6.05Y-5.55
X6.1125Y-6.95
X6.2375Y-6.3
X6.3Y-5.45
X6.425Y-4.8
X6.4875Y-6.2
X6.6125Y-7.05
X6.675Y-4.7
X6.7063Y-7.8
X6.8Y-5.55
X6.8625Y-6.95
X6.9563Y-7.7
X6.9875Y-6.3
X7.05Y-5.45
X7.175Y-4.8
X7.2375Y-6.2
X7.3625Y-7.05
X7.425Y-4.7
X7.55Y-5.55
X7.6125Y-6.95
X7.7375Y-6.3
X7.8Y-5.45
X7.925Y-4.8
X7.9875Y-6.2
X8.1125Y-7.05
X8.175Y-4.7
X8.3Y-5.55
X8.3625Y-6.95
X8.4875Y-6.3
X8.55Y-5.45
X8.675Y-4.8
X8.7375Y-6.2
X8.8625Y-7.05
X8.925Y-4.7
X9.05Y-5.55
X9.1125Y-6.95
X9.2375Y-6.3
X9.3Y-5.45
X9.425Y-4.8
X9.4875Y-6.2
X9.6125Y-7.05
X9.675Y-4.7
X9.8Y-5.55
X9.8625Y-6.95
X9.9875Y-6.3
X10.05Y-5.45
X10.1728Y-4.8016
X10.2375Y-6.2
X10.4228Y-4.7016
X10.55Y-5.55
X10.8Y-5.45
X11.0114Y-7.045
X11.2004Y-6.3
X11.2614Y-6.945
X11.4504Y-6.2
T6
X2.252Y-6.6024
X2.502Y-6.5024
X3.8894Y-7.8055
X4.1394Y-7.7055
X9.5256Y-7.8047
X9.7756Y-7.7047
T7
X1.5933Y-4.3121
X1.5933Y-7.9643
X7.874Y-4.3307
X10.5394Y-7.9921
X12.2282Y-7.9921
X12.2283Y-4.3031
T0
M30
