G04 #@! TF.GenerationSoftware,KiCad,Pcbnew,(6.0.6)*
G04 #@! TF.CreationDate,2022-11-13T19:35:14-06:00*
G04 #@! TF.ProjectId,Keyboard,4b657962-6f61-4726-942e-6b696361645f,rev?*
G04 #@! TF.SameCoordinates,Original*
G04 #@! TF.FileFunction,Soldermask,Top*
G04 #@! TF.FilePolarity,Negative*
%FSLAX46Y46*%
G04 Gerber Fmt 4.6, Leading zero omitted, Abs format (unit mm)*
G04 Created by KiCad (PCBNEW (6.0.6)) date 2022-11-13 19:35:14*
%MOMM*%
%LPD*%
G01*
G04 APERTURE LIST*
G04 Aperture macros list*
%AMRoundRect*
0 Rectangle with rounded corners*
0 $1 Rounding radius*
0 $2 $3 $4 $5 $6 $7 $8 $9 X,Y pos of 4 corners*
0 Add a 4 corners polygon primitive as box body*
4,1,4,$2,$3,$4,$5,$6,$7,$8,$9,$2,$3,0*
0 Add four circle primitives for the rounded corners*
1,1,$1+$1,$2,$3*
1,1,$1+$1,$4,$5*
1,1,$1+$1,$6,$7*
1,1,$1+$1,$8,$9*
0 Add four rect primitives between the rounded corners*
20,1,$1+$1,$2,$3,$4,$5,0*
20,1,$1+$1,$4,$5,$6,$7,0*
20,1,$1+$1,$6,$7,$8,$9,0*
20,1,$1+$1,$8,$9,$2,$3,0*%
G04 Aperture macros list end*
%ADD10RoundRect,0.200000X0.800000X-1.200000X0.800000X1.200000X-0.800000X1.200000X-0.800000X-1.200000X0*%
%ADD11O,2.000000X2.800000*%
%ADD12C,2.686000*%
%ADD13C,2.100000*%
%ADD14C,4.400000*%
%ADD15C,2.600000*%
%ADD16C,6.800000*%
%ADD17RoundRect,0.200000X-0.850000X0.850000X-0.850000X-0.850000X0.850000X-0.850000X0.850000X0.850000X0*%
%ADD18O,2.100000X2.100000*%
%ADD19C,2.000000*%
%ADD20O,2.000000X2.000000*%
%ADD21RoundRect,0.200000X-1.200000X-0.800000X1.200000X-0.800000X1.200000X0.800000X-1.200000X0.800000X0*%
%ADD22O,2.800000X2.000000*%
%ADD23RoundRect,0.200000X-0.900000X-0.900000X0.900000X-0.900000X0.900000X0.900000X-0.900000X0.900000X0*%
%ADD24C,2.200000*%
G04 APERTURE END LIST*
D10*
X55875000Y-205200000D03*
D11*
X58415000Y-205200000D03*
X60955000Y-205200000D03*
X63495000Y-205200000D03*
X66035000Y-205200000D03*
X68575000Y-205200000D03*
X71115000Y-205200000D03*
X71115000Y-197580000D03*
X68575000Y-197580000D03*
X66035000Y-197580000D03*
X63495000Y-197580000D03*
X60955000Y-197580000D03*
X58415000Y-197580000D03*
X55875000Y-197580000D03*
D12*
X245745000Y-119380000D03*
X239395000Y-121920000D03*
X74295000Y-119380000D03*
X67945000Y-121920000D03*
X93345000Y-119380000D03*
X86995000Y-121920000D03*
X112395000Y-119380000D03*
X106045000Y-121920000D03*
X131445000Y-119380000D03*
X125095000Y-121920000D03*
X150495000Y-119380000D03*
X144145000Y-121920000D03*
X169545000Y-119380000D03*
X163195000Y-121920000D03*
X188595000Y-119380000D03*
X182245000Y-121920000D03*
X207645000Y-119380000D03*
X201295000Y-121920000D03*
X226695000Y-119380000D03*
X220345000Y-121920000D03*
D13*
X250840000Y-200780000D03*
D14*
X245760000Y-200780000D03*
D13*
X240680000Y-200780000D03*
D15*
X248300000Y-195700000D03*
X241950000Y-198240000D03*
D12*
X264740000Y-119420000D03*
X258390000Y-121960000D03*
X274320000Y-138430000D03*
X267970000Y-140970000D03*
X260032000Y-157480000D03*
X253682000Y-160020000D03*
X231458000Y-176530000D03*
X225108000Y-179070000D03*
X250508000Y-176530000D03*
X244158000Y-179070000D03*
X88582500Y-157480000D03*
X82232500Y-160020000D03*
X174308000Y-176530000D03*
X167958000Y-179070000D03*
X136208000Y-176530000D03*
X129858000Y-179070000D03*
X126682000Y-157480000D03*
X120332000Y-160020000D03*
X121920000Y-138430000D03*
X115570000Y-140970000D03*
X145732000Y-157480000D03*
X139382000Y-160020000D03*
X164782000Y-157480000D03*
X158432000Y-160020000D03*
X183832000Y-157480000D03*
X177482000Y-160020000D03*
X217170000Y-138430000D03*
X210820000Y-140970000D03*
X202882000Y-157480000D03*
X196532000Y-160020000D03*
X221932000Y-157480000D03*
X215582000Y-160020000D03*
X240982000Y-157480000D03*
X234632000Y-160020000D03*
X212408000Y-176530000D03*
X206058000Y-179070000D03*
X193358000Y-176530000D03*
X187008000Y-179070000D03*
X236220000Y-138430000D03*
X229870000Y-140970000D03*
X255270000Y-138430000D03*
X248920000Y-140970000D03*
X83940000Y-138420000D03*
X77590000Y-140960000D03*
X140970000Y-138430000D03*
X134620000Y-140970000D03*
X107632000Y-157480000D03*
X101282000Y-160020000D03*
X160020000Y-138430000D03*
X153670000Y-140970000D03*
X198120000Y-138430000D03*
X191770000Y-140970000D03*
X155258000Y-176530000D03*
X148908000Y-179070000D03*
X102870000Y-138430000D03*
X96520000Y-140970000D03*
X117158000Y-176530000D03*
X110808000Y-179070000D03*
X179070000Y-138430000D03*
X172720000Y-140970000D03*
X98107500Y-176530000D03*
X91757500Y-179070000D03*
X67151200Y-176530000D03*
X60801200Y-179070000D03*
D14*
X59740000Y-162620000D03*
D13*
X64820000Y-162620000D03*
X54660000Y-162620000D03*
D15*
X57200000Y-167700000D03*
X63550000Y-165160000D03*
D12*
X176689000Y-195580000D03*
X170339000Y-198120000D03*
D13*
X107680000Y-200800000D03*
X97520000Y-200800000D03*
D14*
X102600000Y-200800000D03*
D15*
X105140000Y-195720000D03*
X98790000Y-198260000D03*
D12*
X286040000Y-176403000D03*
X279690000Y-178943000D03*
D16*
X267700000Y-203000000D03*
X40471000Y-109528000D03*
X310596000Y-203000000D03*
X40471000Y-202292000D03*
X200000000Y-110000000D03*
X310600000Y-109300000D03*
D12*
X290840000Y-157480000D03*
X284490000Y-160020000D03*
D17*
X115275000Y-108100000D03*
D18*
X112735000Y-108100000D03*
X110195000Y-108100000D03*
X107655000Y-108100000D03*
X105115000Y-108100000D03*
X102575000Y-108100000D03*
X100035000Y-108100000D03*
X97495000Y-108100000D03*
X94955000Y-108100000D03*
X92415000Y-108100000D03*
X89875000Y-108100000D03*
X87335000Y-108100000D03*
X84795000Y-108100000D03*
X82255000Y-108100000D03*
X79715000Y-108100000D03*
X77175000Y-108100000D03*
X74635000Y-108100000D03*
X72095000Y-108100000D03*
D19*
X45610000Y-118500000D03*
D20*
X37990000Y-118500000D03*
D21*
X41700000Y-123900000D03*
D22*
X41700000Y-126440000D03*
X41700000Y-128980000D03*
X41700000Y-131520000D03*
X49320000Y-131520000D03*
X49320000Y-128980000D03*
X49320000Y-126440000D03*
X49320000Y-123900000D03*
D23*
X58525000Y-157800000D03*
D24*
X61065000Y-157800000D03*
D19*
X47000000Y-138800000D03*
X42000000Y-138800000D03*
X144310000Y-108100000D03*
D20*
X136690000Y-108100000D03*
D23*
X156925000Y-108100000D03*
D24*
X159465000Y-108100000D03*
D19*
X47810000Y-149700000D03*
D20*
X40190000Y-149700000D03*
M02*
