G04 #@! TF.GenerationSoftware,KiCad,Pcbnew,(6.0.6)*
G04 #@! TF.CreationDate,2022-11-13T19:35:14-06:00*
G04 #@! TF.ProjectId,Keyboard,4b657962-6f61-4726-942e-6b696361645f,rev?*
G04 #@! TF.SameCoordinates,Original*
G04 #@! TF.FileFunction,Legend,Top*
G04 #@! TF.FilePolarity,Positive*
%FSLAX46Y46*%
G04 Gerber Fmt 4.6, Leading zero omitted, Abs format (unit mm)*
G04 Created by KiCad (PCBNEW (6.0.6)) date 2022-11-13 19:35:14*
%MOMM*%
%LPD*%
G01*
G04 APERTURE LIST*
%ADD10C,0.150000*%
%ADD11C,0.203200*%
%ADD12C,0.120000*%
%ADD13C,0.381000*%
%ADD14C,2.286000*%
G04 APERTURE END LIST*
D10*
X285080952Y-196484761D02*
X286223809Y-196484761D01*
X285652380Y-198484761D02*
X285652380Y-196484761D01*
X286890476Y-198484761D02*
X286890476Y-196484761D01*
X287938095Y-198484761D02*
X288319047Y-198484761D01*
X288509523Y-198389523D01*
X288604761Y-198294285D01*
X288795238Y-198008571D01*
X288890476Y-197627619D01*
X288890476Y-196865714D01*
X288795238Y-196675238D01*
X288700000Y-196580000D01*
X288509523Y-196484761D01*
X288128571Y-196484761D01*
X287938095Y-196580000D01*
X287842857Y-196675238D01*
X287747619Y-196865714D01*
X287747619Y-197341904D01*
X287842857Y-197532380D01*
X287938095Y-197627619D01*
X288128571Y-197722857D01*
X288509523Y-197722857D01*
X288700000Y-197627619D01*
X288795238Y-197532380D01*
X288890476Y-197341904D01*
X289842857Y-198484761D02*
X290223809Y-198484761D01*
X290414285Y-198389523D01*
X290509523Y-198294285D01*
X290700000Y-198008571D01*
X290795238Y-197627619D01*
X290795238Y-196865714D01*
X290700000Y-196675238D01*
X290604761Y-196580000D01*
X290414285Y-196484761D01*
X290033333Y-196484761D01*
X289842857Y-196580000D01*
X289747619Y-196675238D01*
X289652380Y-196865714D01*
X289652380Y-197341904D01*
X289747619Y-197532380D01*
X289842857Y-197627619D01*
X290033333Y-197722857D01*
X290414285Y-197722857D01*
X290604761Y-197627619D01*
X290700000Y-197532380D01*
X290795238Y-197341904D01*
X291176190Y-198675238D02*
X292700000Y-198675238D01*
X293080952Y-196675238D02*
X293176190Y-196580000D01*
X293366666Y-196484761D01*
X293842857Y-196484761D01*
X294033333Y-196580000D01*
X294128571Y-196675238D01*
X294223809Y-196865714D01*
X294223809Y-197056190D01*
X294128571Y-197341904D01*
X292985714Y-198484761D01*
X294223809Y-198484761D01*
X294985714Y-196675238D02*
X295080952Y-196580000D01*
X295271428Y-196484761D01*
X295747619Y-196484761D01*
X295938095Y-196580000D01*
X296033333Y-196675238D01*
X296128571Y-196865714D01*
X296128571Y-197056190D01*
X296033333Y-197341904D01*
X294890476Y-198484761D01*
X296128571Y-198484761D01*
X282604761Y-201704761D02*
X282604761Y-199704761D01*
X283080952Y-199704761D01*
X283366666Y-199800000D01*
X283557142Y-199990476D01*
X283652380Y-200180952D01*
X283747619Y-200561904D01*
X283747619Y-200847619D01*
X283652380Y-201228571D01*
X283557142Y-201419047D01*
X283366666Y-201609523D01*
X283080952Y-201704761D01*
X282604761Y-201704761D01*
X285461904Y-201704761D02*
X285461904Y-200657142D01*
X285366666Y-200466666D01*
X285176190Y-200371428D01*
X284795238Y-200371428D01*
X284604761Y-200466666D01*
X285461904Y-201609523D02*
X285271428Y-201704761D01*
X284795238Y-201704761D01*
X284604761Y-201609523D01*
X284509523Y-201419047D01*
X284509523Y-201228571D01*
X284604761Y-201038095D01*
X284795238Y-200942857D01*
X285271428Y-200942857D01*
X285461904Y-200847619D01*
X286414285Y-200371428D02*
X286414285Y-201704761D01*
X286414285Y-200561904D02*
X286509523Y-200466666D01*
X286700000Y-200371428D01*
X286985714Y-200371428D01*
X287176190Y-200466666D01*
X287271428Y-200657142D01*
X287271428Y-201704761D01*
X289557142Y-199704761D02*
X290033333Y-201704761D01*
X290414285Y-200276190D01*
X290795238Y-201704761D01*
X291271428Y-199704761D01*
X292795238Y-201609523D02*
X292604761Y-201704761D01*
X292223809Y-201704761D01*
X292033333Y-201609523D01*
X291938095Y-201419047D01*
X291938095Y-200657142D01*
X292033333Y-200466666D01*
X292223809Y-200371428D01*
X292604761Y-200371428D01*
X292795238Y-200466666D01*
X292890476Y-200657142D01*
X292890476Y-200847619D01*
X291938095Y-201038095D01*
X293747619Y-201704761D02*
X293747619Y-200371428D01*
X293747619Y-200752380D02*
X293842857Y-200561904D01*
X293938095Y-200466666D01*
X294128571Y-200371428D01*
X294319047Y-200371428D01*
X294985714Y-200371428D02*
X294985714Y-201704761D01*
X294985714Y-200561904D02*
X295080952Y-200466666D01*
X295271428Y-200371428D01*
X295557142Y-200371428D01*
X295747619Y-200466666D01*
X295842857Y-200657142D01*
X295842857Y-201704761D01*
X297557142Y-201609523D02*
X297366666Y-201704761D01*
X296985714Y-201704761D01*
X296795238Y-201609523D01*
X296700000Y-201419047D01*
X296700000Y-200657142D01*
X296795238Y-200466666D01*
X296985714Y-200371428D01*
X297366666Y-200371428D01*
X297557142Y-200466666D01*
X297652380Y-200657142D01*
X297652380Y-200847619D01*
X296700000Y-201038095D01*
X298509523Y-201704761D02*
X298509523Y-200371428D01*
X298509523Y-200752380D02*
X298604761Y-200561904D01*
X298700000Y-200466666D01*
X298890476Y-200371428D01*
X299080952Y-200371428D01*
X278509523Y-204924761D02*
X277366666Y-204924761D01*
X277938095Y-204924761D02*
X277938095Y-202924761D01*
X277747619Y-203210476D01*
X277557142Y-203400952D01*
X277366666Y-203496190D01*
X280414285Y-204924761D02*
X279271428Y-204924761D01*
X279842857Y-204924761D02*
X279842857Y-202924761D01*
X279652380Y-203210476D01*
X279461904Y-203400952D01*
X279271428Y-203496190D01*
X282700000Y-202829523D02*
X280985714Y-205400952D01*
X284414285Y-204924761D02*
X283271428Y-204924761D01*
X283842857Y-204924761D02*
X283842857Y-202924761D01*
X283652380Y-203210476D01*
X283461904Y-203400952D01*
X283271428Y-203496190D01*
X285080952Y-202924761D02*
X286319047Y-202924761D01*
X285652380Y-203686666D01*
X285938095Y-203686666D01*
X286128571Y-203781904D01*
X286223809Y-203877142D01*
X286319047Y-204067619D01*
X286319047Y-204543809D01*
X286223809Y-204734285D01*
X286128571Y-204829523D01*
X285938095Y-204924761D01*
X285366666Y-204924761D01*
X285176190Y-204829523D01*
X285080952Y-204734285D01*
X288604761Y-202829523D02*
X286890476Y-205400952D01*
X289176190Y-203115238D02*
X289271428Y-203020000D01*
X289461904Y-202924761D01*
X289938095Y-202924761D01*
X290128571Y-203020000D01*
X290223809Y-203115238D01*
X290319047Y-203305714D01*
X290319047Y-203496190D01*
X290223809Y-203781904D01*
X289080952Y-204924761D01*
X290319047Y-204924761D01*
X291557142Y-202924761D02*
X291747619Y-202924761D01*
X291938095Y-203020000D01*
X292033333Y-203115238D01*
X292128571Y-203305714D01*
X292223809Y-203686666D01*
X292223809Y-204162857D01*
X292128571Y-204543809D01*
X292033333Y-204734285D01*
X291938095Y-204829523D01*
X291747619Y-204924761D01*
X291557142Y-204924761D01*
X291366666Y-204829523D01*
X291271428Y-204734285D01*
X291176190Y-204543809D01*
X291080952Y-204162857D01*
X291080952Y-203686666D01*
X291176190Y-203305714D01*
X291271428Y-203115238D01*
X291366666Y-203020000D01*
X291557142Y-202924761D01*
X292985714Y-203115238D02*
X293080952Y-203020000D01*
X293271428Y-202924761D01*
X293747619Y-202924761D01*
X293938095Y-203020000D01*
X294033333Y-203115238D01*
X294128571Y-203305714D01*
X294128571Y-203496190D01*
X294033333Y-203781904D01*
X292890476Y-204924761D01*
X294128571Y-204924761D01*
X294890476Y-203115238D02*
X294985714Y-203020000D01*
X295176190Y-202924761D01*
X295652380Y-202924761D01*
X295842857Y-203020000D01*
X295938095Y-203115238D01*
X296033333Y-203305714D01*
X296033333Y-203496190D01*
X295938095Y-203781904D01*
X294795238Y-204924761D01*
X296033333Y-204924761D01*
X298128571Y-202924761D02*
X298795238Y-204924761D01*
X299461904Y-202924761D01*
X300509523Y-202924761D02*
X300700000Y-202924761D01*
X300890476Y-203020000D01*
X300985714Y-203115238D01*
X301080952Y-203305714D01*
X301176190Y-203686666D01*
X301176190Y-204162857D01*
X301080952Y-204543809D01*
X300985714Y-204734285D01*
X300890476Y-204829523D01*
X300700000Y-204924761D01*
X300509523Y-204924761D01*
X300319047Y-204829523D01*
X300223809Y-204734285D01*
X300128571Y-204543809D01*
X300033333Y-204162857D01*
X300033333Y-203686666D01*
X300128571Y-203305714D01*
X300223809Y-203115238D01*
X300319047Y-203020000D01*
X300509523Y-202924761D01*
X302033333Y-204734285D02*
X302128571Y-204829523D01*
X302033333Y-204924761D01*
X301938095Y-204829523D01*
X302033333Y-204734285D01*
X302033333Y-204924761D01*
X303080952Y-204924761D02*
X303461904Y-204924761D01*
X303652380Y-204829523D01*
X303747619Y-204734285D01*
X303938095Y-204448571D01*
X304033333Y-204067619D01*
X304033333Y-203305714D01*
X303938095Y-203115238D01*
X303842857Y-203020000D01*
X303652380Y-202924761D01*
X303271428Y-202924761D01*
X303080952Y-203020000D01*
X302985714Y-203115238D01*
X302890476Y-203305714D01*
X302890476Y-203781904D01*
X302985714Y-203972380D01*
X303080952Y-204067619D01*
X303271428Y-204162857D01*
X303652380Y-204162857D01*
X303842857Y-204067619D01*
X303938095Y-203972380D01*
X304033333Y-203781904D01*
X52997380Y-202151904D02*
X53806904Y-202151904D01*
X53902142Y-202104285D01*
X53949761Y-202056666D01*
X53997380Y-201961428D01*
X53997380Y-201770952D01*
X53949761Y-201675714D01*
X53902142Y-201628095D01*
X53806904Y-201580476D01*
X52997380Y-201580476D01*
X53092619Y-201151904D02*
X53045000Y-201104285D01*
X52997380Y-201009047D01*
X52997380Y-200770952D01*
X53045000Y-200675714D01*
X53092619Y-200628095D01*
X53187857Y-200580476D01*
X53283095Y-200580476D01*
X53425952Y-200628095D01*
X53997380Y-201199523D01*
X53997380Y-200580476D01*
D11*
X240447285Y-117354047D02*
X240665000Y-117414523D01*
X241027857Y-117414523D01*
X241173000Y-117354047D01*
X241245571Y-117293571D01*
X241318142Y-117172619D01*
X241318142Y-117051666D01*
X241245571Y-116930714D01*
X241173000Y-116870238D01*
X241027857Y-116809761D01*
X240737571Y-116749285D01*
X240592428Y-116688809D01*
X240519857Y-116628333D01*
X240447285Y-116507380D01*
X240447285Y-116386428D01*
X240519857Y-116265476D01*
X240592428Y-116205000D01*
X240737571Y-116144523D01*
X241100428Y-116144523D01*
X241318142Y-116205000D01*
X241826142Y-116144523D02*
X242189000Y-117414523D01*
X242479285Y-116507380D01*
X242769571Y-117414523D01*
X243132428Y-116144523D01*
X244511285Y-117414523D02*
X243640428Y-117414523D01*
X244075857Y-117414523D02*
X244075857Y-116144523D01*
X243930714Y-116325952D01*
X243785571Y-116446904D01*
X243640428Y-116507380D01*
X245237000Y-117414523D02*
X245527285Y-117414523D01*
X245672428Y-117354047D01*
X245745000Y-117293571D01*
X245890142Y-117112142D01*
X245962714Y-116870238D01*
X245962714Y-116386428D01*
X245890142Y-116265476D01*
X245817571Y-116205000D01*
X245672428Y-116144523D01*
X245382142Y-116144523D01*
X245237000Y-116205000D01*
X245164428Y-116265476D01*
X245091857Y-116386428D01*
X245091857Y-116688809D01*
X245164428Y-116809761D01*
X245237000Y-116870238D01*
X245382142Y-116930714D01*
X245672428Y-116930714D01*
X245817571Y-116870238D01*
X245890142Y-116809761D01*
X245962714Y-116688809D01*
X243132428Y-131384523D02*
X243277571Y-131384523D01*
X243422714Y-131445000D01*
X243495285Y-131505476D01*
X243567857Y-131626428D01*
X243640428Y-131868333D01*
X243640428Y-132170714D01*
X243567857Y-132412619D01*
X243495285Y-132533571D01*
X243422714Y-132594047D01*
X243277571Y-132654523D01*
X243132428Y-132654523D01*
X242987285Y-132594047D01*
X242914714Y-132533571D01*
X242842142Y-132412619D01*
X242769571Y-132170714D01*
X242769571Y-131868333D01*
X242842142Y-131626428D01*
X242914714Y-131505476D01*
X242987285Y-131445000D01*
X243132428Y-131384523D01*
X68997285Y-117354047D02*
X69215000Y-117414523D01*
X69577857Y-117414523D01*
X69723000Y-117354047D01*
X69795571Y-117293571D01*
X69868142Y-117172619D01*
X69868142Y-117051666D01*
X69795571Y-116930714D01*
X69723000Y-116870238D01*
X69577857Y-116809761D01*
X69287571Y-116749285D01*
X69142428Y-116688809D01*
X69069857Y-116628333D01*
X68997285Y-116507380D01*
X68997285Y-116386428D01*
X69069857Y-116265476D01*
X69142428Y-116205000D01*
X69287571Y-116144523D01*
X69650428Y-116144523D01*
X69868142Y-116205000D01*
X70376142Y-116144523D02*
X70739000Y-117414523D01*
X71029285Y-116507380D01*
X71319571Y-117414523D01*
X71682428Y-116144523D01*
X72916142Y-116567857D02*
X72916142Y-117414523D01*
X72553285Y-116084047D02*
X72190428Y-116991190D01*
X73133857Y-116991190D01*
X73569285Y-116144523D02*
X74512714Y-116144523D01*
X74004714Y-116628333D01*
X74222428Y-116628333D01*
X74367571Y-116688809D01*
X74440142Y-116749285D01*
X74512714Y-116870238D01*
X74512714Y-117172619D01*
X74440142Y-117293571D01*
X74367571Y-117354047D01*
X74222428Y-117414523D01*
X73787000Y-117414523D01*
X73641857Y-117354047D01*
X73569285Y-117293571D01*
X72190428Y-132654523D02*
X71319571Y-132654523D01*
X71755000Y-132654523D02*
X71755000Y-131384523D01*
X71609857Y-131565952D01*
X71464714Y-131686904D01*
X71319571Y-131747380D01*
X88047285Y-117354047D02*
X88265000Y-117414523D01*
X88627857Y-117414523D01*
X88773000Y-117354047D01*
X88845571Y-117293571D01*
X88918142Y-117172619D01*
X88918142Y-117051666D01*
X88845571Y-116930714D01*
X88773000Y-116870238D01*
X88627857Y-116809761D01*
X88337571Y-116749285D01*
X88192428Y-116688809D01*
X88119857Y-116628333D01*
X88047285Y-116507380D01*
X88047285Y-116386428D01*
X88119857Y-116265476D01*
X88192428Y-116205000D01*
X88337571Y-116144523D01*
X88700428Y-116144523D01*
X88918142Y-116205000D01*
X89426142Y-116144523D02*
X89789000Y-117414523D01*
X90079285Y-116507380D01*
X90369571Y-117414523D01*
X90732428Y-116144523D01*
X91966142Y-116567857D02*
X91966142Y-117414523D01*
X91603285Y-116084047D02*
X91240428Y-116991190D01*
X92183857Y-116991190D01*
X93417571Y-116567857D02*
X93417571Y-117414523D01*
X93054714Y-116084047D02*
X92691857Y-116991190D01*
X93635285Y-116991190D01*
X90369571Y-131505476D02*
X90442142Y-131445000D01*
X90587285Y-131384523D01*
X90950142Y-131384523D01*
X91095285Y-131445000D01*
X91167857Y-131505476D01*
X91240428Y-131626428D01*
X91240428Y-131747380D01*
X91167857Y-131928809D01*
X90297000Y-132654523D01*
X91240428Y-132654523D01*
X107097285Y-117354047D02*
X107315000Y-117414523D01*
X107677857Y-117414523D01*
X107823000Y-117354047D01*
X107895571Y-117293571D01*
X107968142Y-117172619D01*
X107968142Y-117051666D01*
X107895571Y-116930714D01*
X107823000Y-116870238D01*
X107677857Y-116809761D01*
X107387571Y-116749285D01*
X107242428Y-116688809D01*
X107169857Y-116628333D01*
X107097285Y-116507380D01*
X107097285Y-116386428D01*
X107169857Y-116265476D01*
X107242428Y-116205000D01*
X107387571Y-116144523D01*
X107750428Y-116144523D01*
X107968142Y-116205000D01*
X108476142Y-116144523D02*
X108839000Y-117414523D01*
X109129285Y-116507380D01*
X109419571Y-117414523D01*
X109782428Y-116144523D01*
X111016142Y-116567857D02*
X111016142Y-117414523D01*
X110653285Y-116084047D02*
X110290428Y-116991190D01*
X111233857Y-116991190D01*
X112540142Y-116144523D02*
X111814428Y-116144523D01*
X111741857Y-116749285D01*
X111814428Y-116688809D01*
X111959571Y-116628333D01*
X112322428Y-116628333D01*
X112467571Y-116688809D01*
X112540142Y-116749285D01*
X112612714Y-116870238D01*
X112612714Y-117172619D01*
X112540142Y-117293571D01*
X112467571Y-117354047D01*
X112322428Y-117414523D01*
X111959571Y-117414523D01*
X111814428Y-117354047D01*
X111741857Y-117293571D01*
X109347000Y-131384523D02*
X110290428Y-131384523D01*
X109782428Y-131868333D01*
X110000142Y-131868333D01*
X110145285Y-131928809D01*
X110217857Y-131989285D01*
X110290428Y-132110238D01*
X110290428Y-132412619D01*
X110217857Y-132533571D01*
X110145285Y-132594047D01*
X110000142Y-132654523D01*
X109564714Y-132654523D01*
X109419571Y-132594047D01*
X109347000Y-132533571D01*
X126147285Y-117354047D02*
X126365000Y-117414523D01*
X126727857Y-117414523D01*
X126873000Y-117354047D01*
X126945571Y-117293571D01*
X127018142Y-117172619D01*
X127018142Y-117051666D01*
X126945571Y-116930714D01*
X126873000Y-116870238D01*
X126727857Y-116809761D01*
X126437571Y-116749285D01*
X126292428Y-116688809D01*
X126219857Y-116628333D01*
X126147285Y-116507380D01*
X126147285Y-116386428D01*
X126219857Y-116265476D01*
X126292428Y-116205000D01*
X126437571Y-116144523D01*
X126800428Y-116144523D01*
X127018142Y-116205000D01*
X127526142Y-116144523D02*
X127889000Y-117414523D01*
X128179285Y-116507380D01*
X128469571Y-117414523D01*
X128832428Y-116144523D01*
X130066142Y-116567857D02*
X130066142Y-117414523D01*
X129703285Y-116084047D02*
X129340428Y-116991190D01*
X130283857Y-116991190D01*
X131517571Y-116144523D02*
X131227285Y-116144523D01*
X131082142Y-116205000D01*
X131009571Y-116265476D01*
X130864428Y-116446904D01*
X130791857Y-116688809D01*
X130791857Y-117172619D01*
X130864428Y-117293571D01*
X130937000Y-117354047D01*
X131082142Y-117414523D01*
X131372428Y-117414523D01*
X131517571Y-117354047D01*
X131590142Y-117293571D01*
X131662714Y-117172619D01*
X131662714Y-116870238D01*
X131590142Y-116749285D01*
X131517571Y-116688809D01*
X131372428Y-116628333D01*
X131082142Y-116628333D01*
X130937000Y-116688809D01*
X130864428Y-116749285D01*
X130791857Y-116870238D01*
X129195285Y-131807857D02*
X129195285Y-132654523D01*
X128832428Y-131324047D02*
X128469571Y-132231190D01*
X129413000Y-132231190D01*
X145197285Y-117354047D02*
X145415000Y-117414523D01*
X145777857Y-117414523D01*
X145923000Y-117354047D01*
X145995571Y-117293571D01*
X146068142Y-117172619D01*
X146068142Y-117051666D01*
X145995571Y-116930714D01*
X145923000Y-116870238D01*
X145777857Y-116809761D01*
X145487571Y-116749285D01*
X145342428Y-116688809D01*
X145269857Y-116628333D01*
X145197285Y-116507380D01*
X145197285Y-116386428D01*
X145269857Y-116265476D01*
X145342428Y-116205000D01*
X145487571Y-116144523D01*
X145850428Y-116144523D01*
X146068142Y-116205000D01*
X146576142Y-116144523D02*
X146939000Y-117414523D01*
X147229285Y-116507380D01*
X147519571Y-117414523D01*
X147882428Y-116144523D01*
X149116142Y-116567857D02*
X149116142Y-117414523D01*
X148753285Y-116084047D02*
X148390428Y-116991190D01*
X149333857Y-116991190D01*
X149769285Y-116144523D02*
X150785285Y-116144523D01*
X150132142Y-117414523D01*
X148317857Y-131384523D02*
X147592142Y-131384523D01*
X147519571Y-131989285D01*
X147592142Y-131928809D01*
X147737285Y-131868333D01*
X148100142Y-131868333D01*
X148245285Y-131928809D01*
X148317857Y-131989285D01*
X148390428Y-132110238D01*
X148390428Y-132412619D01*
X148317857Y-132533571D01*
X148245285Y-132594047D01*
X148100142Y-132654523D01*
X147737285Y-132654523D01*
X147592142Y-132594047D01*
X147519571Y-132533571D01*
X164247285Y-117354047D02*
X164465000Y-117414523D01*
X164827857Y-117414523D01*
X164973000Y-117354047D01*
X165045571Y-117293571D01*
X165118142Y-117172619D01*
X165118142Y-117051666D01*
X165045571Y-116930714D01*
X164973000Y-116870238D01*
X164827857Y-116809761D01*
X164537571Y-116749285D01*
X164392428Y-116688809D01*
X164319857Y-116628333D01*
X164247285Y-116507380D01*
X164247285Y-116386428D01*
X164319857Y-116265476D01*
X164392428Y-116205000D01*
X164537571Y-116144523D01*
X164900428Y-116144523D01*
X165118142Y-116205000D01*
X165626142Y-116144523D02*
X165989000Y-117414523D01*
X166279285Y-116507380D01*
X166569571Y-117414523D01*
X166932428Y-116144523D01*
X167440428Y-116265476D02*
X167513000Y-116205000D01*
X167658142Y-116144523D01*
X168021000Y-116144523D01*
X168166142Y-116205000D01*
X168238714Y-116265476D01*
X168311285Y-116386428D01*
X168311285Y-116507380D01*
X168238714Y-116688809D01*
X167367857Y-117414523D01*
X168311285Y-117414523D01*
X168819285Y-116144523D02*
X169762714Y-116144523D01*
X169254714Y-116628333D01*
X169472428Y-116628333D01*
X169617571Y-116688809D01*
X169690142Y-116749285D01*
X169762714Y-116870238D01*
X169762714Y-117172619D01*
X169690142Y-117293571D01*
X169617571Y-117354047D01*
X169472428Y-117414523D01*
X169037000Y-117414523D01*
X168891857Y-117354047D01*
X168819285Y-117293571D01*
X167295285Y-131384523D02*
X167005000Y-131384523D01*
X166859857Y-131445000D01*
X166787285Y-131505476D01*
X166642142Y-131686904D01*
X166569571Y-131928809D01*
X166569571Y-132412619D01*
X166642142Y-132533571D01*
X166714714Y-132594047D01*
X166859857Y-132654523D01*
X167150142Y-132654523D01*
X167295285Y-132594047D01*
X167367857Y-132533571D01*
X167440428Y-132412619D01*
X167440428Y-132110238D01*
X167367857Y-131989285D01*
X167295285Y-131928809D01*
X167150142Y-131868333D01*
X166859857Y-131868333D01*
X166714714Y-131928809D01*
X166642142Y-131989285D01*
X166569571Y-132110238D01*
X183297285Y-117354047D02*
X183515000Y-117414523D01*
X183877857Y-117414523D01*
X184023000Y-117354047D01*
X184095571Y-117293571D01*
X184168142Y-117172619D01*
X184168142Y-117051666D01*
X184095571Y-116930714D01*
X184023000Y-116870238D01*
X183877857Y-116809761D01*
X183587571Y-116749285D01*
X183442428Y-116688809D01*
X183369857Y-116628333D01*
X183297285Y-116507380D01*
X183297285Y-116386428D01*
X183369857Y-116265476D01*
X183442428Y-116205000D01*
X183587571Y-116144523D01*
X183950428Y-116144523D01*
X184168142Y-116205000D01*
X184676142Y-116144523D02*
X185039000Y-117414523D01*
X185329285Y-116507380D01*
X185619571Y-117414523D01*
X185982428Y-116144523D01*
X186490428Y-116265476D02*
X186563000Y-116205000D01*
X186708142Y-116144523D01*
X187071000Y-116144523D01*
X187216142Y-116205000D01*
X187288714Y-116265476D01*
X187361285Y-116386428D01*
X187361285Y-116507380D01*
X187288714Y-116688809D01*
X186417857Y-117414523D01*
X187361285Y-117414523D01*
X187941857Y-116265476D02*
X188014428Y-116205000D01*
X188159571Y-116144523D01*
X188522428Y-116144523D01*
X188667571Y-116205000D01*
X188740142Y-116265476D01*
X188812714Y-116386428D01*
X188812714Y-116507380D01*
X188740142Y-116688809D01*
X187869285Y-117414523D01*
X188812714Y-117414523D01*
X185547000Y-131384523D02*
X186563000Y-131384523D01*
X185909857Y-132654523D01*
X202347285Y-117354047D02*
X202565000Y-117414523D01*
X202927857Y-117414523D01*
X203073000Y-117354047D01*
X203145571Y-117293571D01*
X203218142Y-117172619D01*
X203218142Y-117051666D01*
X203145571Y-116930714D01*
X203073000Y-116870238D01*
X202927857Y-116809761D01*
X202637571Y-116749285D01*
X202492428Y-116688809D01*
X202419857Y-116628333D01*
X202347285Y-116507380D01*
X202347285Y-116386428D01*
X202419857Y-116265476D01*
X202492428Y-116205000D01*
X202637571Y-116144523D01*
X203000428Y-116144523D01*
X203218142Y-116205000D01*
X203726142Y-116144523D02*
X204089000Y-117414523D01*
X204379285Y-116507380D01*
X204669571Y-117414523D01*
X205032428Y-116144523D01*
X205540428Y-116265476D02*
X205613000Y-116205000D01*
X205758142Y-116144523D01*
X206121000Y-116144523D01*
X206266142Y-116205000D01*
X206338714Y-116265476D01*
X206411285Y-116386428D01*
X206411285Y-116507380D01*
X206338714Y-116688809D01*
X205467857Y-117414523D01*
X206411285Y-117414523D01*
X207862714Y-117414523D02*
X206991857Y-117414523D01*
X207427285Y-117414523D02*
X207427285Y-116144523D01*
X207282142Y-116325952D01*
X207137000Y-116446904D01*
X206991857Y-116507380D01*
X204959857Y-131928809D02*
X204814714Y-131868333D01*
X204742142Y-131807857D01*
X204669571Y-131686904D01*
X204669571Y-131626428D01*
X204742142Y-131505476D01*
X204814714Y-131445000D01*
X204959857Y-131384523D01*
X205250142Y-131384523D01*
X205395285Y-131445000D01*
X205467857Y-131505476D01*
X205540428Y-131626428D01*
X205540428Y-131686904D01*
X205467857Y-131807857D01*
X205395285Y-131868333D01*
X205250142Y-131928809D01*
X204959857Y-131928809D01*
X204814714Y-131989285D01*
X204742142Y-132049761D01*
X204669571Y-132170714D01*
X204669571Y-132412619D01*
X204742142Y-132533571D01*
X204814714Y-132594047D01*
X204959857Y-132654523D01*
X205250142Y-132654523D01*
X205395285Y-132594047D01*
X205467857Y-132533571D01*
X205540428Y-132412619D01*
X205540428Y-132170714D01*
X205467857Y-132049761D01*
X205395285Y-131989285D01*
X205250142Y-131928809D01*
X221397285Y-117354047D02*
X221615000Y-117414523D01*
X221977857Y-117414523D01*
X222123000Y-117354047D01*
X222195571Y-117293571D01*
X222268142Y-117172619D01*
X222268142Y-117051666D01*
X222195571Y-116930714D01*
X222123000Y-116870238D01*
X221977857Y-116809761D01*
X221687571Y-116749285D01*
X221542428Y-116688809D01*
X221469857Y-116628333D01*
X221397285Y-116507380D01*
X221397285Y-116386428D01*
X221469857Y-116265476D01*
X221542428Y-116205000D01*
X221687571Y-116144523D01*
X222050428Y-116144523D01*
X222268142Y-116205000D01*
X222776142Y-116144523D02*
X223139000Y-117414523D01*
X223429285Y-116507380D01*
X223719571Y-117414523D01*
X224082428Y-116144523D01*
X224590428Y-116265476D02*
X224663000Y-116205000D01*
X224808142Y-116144523D01*
X225171000Y-116144523D01*
X225316142Y-116205000D01*
X225388714Y-116265476D01*
X225461285Y-116386428D01*
X225461285Y-116507380D01*
X225388714Y-116688809D01*
X224517857Y-117414523D01*
X225461285Y-117414523D01*
X226404714Y-116144523D02*
X226549857Y-116144523D01*
X226695000Y-116205000D01*
X226767571Y-116265476D01*
X226840142Y-116386428D01*
X226912714Y-116628333D01*
X226912714Y-116930714D01*
X226840142Y-117172619D01*
X226767571Y-117293571D01*
X226695000Y-117354047D01*
X226549857Y-117414523D01*
X226404714Y-117414523D01*
X226259571Y-117354047D01*
X226187000Y-117293571D01*
X226114428Y-117172619D01*
X226041857Y-116930714D01*
X226041857Y-116628333D01*
X226114428Y-116386428D01*
X226187000Y-116265476D01*
X226259571Y-116205000D01*
X226404714Y-116144523D01*
X223864714Y-132654523D02*
X224155000Y-132654523D01*
X224300142Y-132594047D01*
X224372714Y-132533571D01*
X224517857Y-132352142D01*
X224590428Y-132110238D01*
X224590428Y-131626428D01*
X224517857Y-131505476D01*
X224445285Y-131445000D01*
X224300142Y-131384523D01*
X224009857Y-131384523D01*
X223864714Y-131445000D01*
X223792142Y-131505476D01*
X223719571Y-131626428D01*
X223719571Y-131928809D01*
X223792142Y-132049761D01*
X223864714Y-132110238D01*
X224009857Y-132170714D01*
X224300142Y-132170714D01*
X224445285Y-132110238D01*
X224517857Y-132049761D01*
X224590428Y-131928809D01*
D10*
X243950476Y-193310761D02*
X244093333Y-193358380D01*
X244331428Y-193358380D01*
X244426666Y-193310761D01*
X244474285Y-193263142D01*
X244521904Y-193167904D01*
X244521904Y-193072666D01*
X244474285Y-192977428D01*
X244426666Y-192929809D01*
X244331428Y-192882190D01*
X244140952Y-192834571D01*
X244045714Y-192786952D01*
X243998095Y-192739333D01*
X243950476Y-192644095D01*
X243950476Y-192548857D01*
X243998095Y-192453619D01*
X244045714Y-192406000D01*
X244140952Y-192358380D01*
X244379047Y-192358380D01*
X244521904Y-192406000D01*
X244855238Y-192358380D02*
X245093333Y-193358380D01*
X245283809Y-192644095D01*
X245474285Y-193358380D01*
X245712380Y-192358380D01*
X246521904Y-192691714D02*
X246521904Y-193358380D01*
X246283809Y-192310761D02*
X246045714Y-193025047D01*
X246664761Y-193025047D01*
X247188571Y-192786952D02*
X247093333Y-192739333D01*
X247045714Y-192691714D01*
X246998095Y-192596476D01*
X246998095Y-192548857D01*
X247045714Y-192453619D01*
X247093333Y-192406000D01*
X247188571Y-192358380D01*
X247379047Y-192358380D01*
X247474285Y-192406000D01*
X247521904Y-192453619D01*
X247569523Y-192548857D01*
X247569523Y-192596476D01*
X247521904Y-192691714D01*
X247474285Y-192739333D01*
X247379047Y-192786952D01*
X247188571Y-192786952D01*
X247093333Y-192834571D01*
X247045714Y-192882190D01*
X246998095Y-192977428D01*
X246998095Y-193167904D01*
X247045714Y-193263142D01*
X247093333Y-193310761D01*
X247188571Y-193358380D01*
X247379047Y-193358380D01*
X247474285Y-193310761D01*
X247521904Y-193263142D01*
X247569523Y-193167904D01*
X247569523Y-192977428D01*
X247521904Y-192882190D01*
X247474285Y-192834571D01*
X247379047Y-192786952D01*
X244498095Y-208582571D02*
X244164761Y-208582571D01*
X244164761Y-209106380D02*
X244164761Y-208106380D01*
X244640952Y-208106380D01*
X245021904Y-209106380D02*
X245021904Y-208106380D01*
X245593333Y-209106380D01*
X245593333Y-208106380D01*
X246640952Y-209011142D02*
X246593333Y-209058761D01*
X246450476Y-209106380D01*
X246355238Y-209106380D01*
X246212380Y-209058761D01*
X246117142Y-208963523D01*
X246069523Y-208868285D01*
X246021904Y-208677809D01*
X246021904Y-208534952D01*
X246069523Y-208344476D01*
X246117142Y-208249238D01*
X246212380Y-208154000D01*
X246355238Y-208106380D01*
X246450476Y-208106380D01*
X246593333Y-208154000D01*
X246640952Y-208201619D01*
X246926666Y-208106380D02*
X247498095Y-208106380D01*
X247212380Y-209106380D02*
X247212380Y-208106380D01*
D11*
X260168000Y-117394047D02*
X260385714Y-117454523D01*
X260748571Y-117454523D01*
X260893714Y-117394047D01*
X260966285Y-117333571D01*
X261038857Y-117212619D01*
X261038857Y-117091666D01*
X260966285Y-116970714D01*
X260893714Y-116910238D01*
X260748571Y-116849761D01*
X260458285Y-116789285D01*
X260313142Y-116728809D01*
X260240571Y-116668333D01*
X260168000Y-116547380D01*
X260168000Y-116426428D01*
X260240571Y-116305476D01*
X260313142Y-116245000D01*
X260458285Y-116184523D01*
X260821142Y-116184523D01*
X261038857Y-116245000D01*
X261546857Y-116184523D02*
X261909714Y-117454523D01*
X262200000Y-116547380D01*
X262490285Y-117454523D01*
X262853142Y-116184523D01*
X264086857Y-116184523D02*
X263796571Y-116184523D01*
X263651428Y-116245000D01*
X263578857Y-116305476D01*
X263433714Y-116486904D01*
X263361142Y-116728809D01*
X263361142Y-117212619D01*
X263433714Y-117333571D01*
X263506285Y-117394047D01*
X263651428Y-117454523D01*
X263941714Y-117454523D01*
X264086857Y-117394047D01*
X264159428Y-117333571D01*
X264232000Y-117212619D01*
X264232000Y-116910238D01*
X264159428Y-116789285D01*
X264086857Y-116728809D01*
X263941714Y-116668333D01*
X263651428Y-116668333D01*
X263506285Y-116728809D01*
X263433714Y-116789285D01*
X263361142Y-116910238D01*
X258281142Y-132029285D02*
X258789142Y-132029285D01*
X259006857Y-132694523D02*
X258281142Y-132694523D01*
X258281142Y-131424523D01*
X259006857Y-131424523D01*
X260676000Y-132815476D02*
X260530857Y-132755000D01*
X260385714Y-132634047D01*
X260168000Y-132452619D01*
X260022857Y-132392142D01*
X259877714Y-132392142D01*
X259950285Y-132694523D02*
X259805142Y-132634047D01*
X259660000Y-132513095D01*
X259587428Y-132271190D01*
X259587428Y-131847857D01*
X259660000Y-131605952D01*
X259805142Y-131485000D01*
X259950285Y-131424523D01*
X260240571Y-131424523D01*
X260385714Y-131485000D01*
X260530857Y-131605952D01*
X260603428Y-131847857D01*
X260603428Y-132271190D01*
X260530857Y-132513095D01*
X260385714Y-132634047D01*
X260240571Y-132694523D01*
X259950285Y-132694523D01*
X261256571Y-131424523D02*
X261256571Y-132452619D01*
X261329142Y-132573571D01*
X261401714Y-132634047D01*
X261546857Y-132694523D01*
X261837142Y-132694523D01*
X261982285Y-132634047D01*
X262054857Y-132573571D01*
X262127428Y-132452619D01*
X262127428Y-131424523D01*
X262780571Y-132331666D02*
X263506285Y-132331666D01*
X262635428Y-132694523D02*
X263143428Y-131424523D01*
X263651428Y-132694523D01*
X264885142Y-132694523D02*
X264159428Y-132694523D01*
X264159428Y-131424523D01*
X265320571Y-132634047D02*
X265538285Y-132694523D01*
X265901142Y-132694523D01*
X266046285Y-132634047D01*
X266118857Y-132573571D01*
X266191428Y-132452619D01*
X266191428Y-132331666D01*
X266118857Y-132210714D01*
X266046285Y-132150238D01*
X265901142Y-132089761D01*
X265610857Y-132029285D01*
X265465714Y-131968809D01*
X265393142Y-131908333D01*
X265320571Y-131787380D01*
X265320571Y-131666428D01*
X265393142Y-131545476D01*
X265465714Y-131485000D01*
X265610857Y-131424523D01*
X265973714Y-131424523D01*
X266191428Y-131485000D01*
X269748000Y-136404047D02*
X269965714Y-136464523D01*
X270328571Y-136464523D01*
X270473714Y-136404047D01*
X270546285Y-136343571D01*
X270618857Y-136222619D01*
X270618857Y-136101666D01*
X270546285Y-135980714D01*
X270473714Y-135920238D01*
X270328571Y-135859761D01*
X270038285Y-135799285D01*
X269893142Y-135738809D01*
X269820571Y-135678333D01*
X269748000Y-135557380D01*
X269748000Y-135436428D01*
X269820571Y-135315476D01*
X269893142Y-135255000D01*
X270038285Y-135194523D01*
X270401142Y-135194523D01*
X270618857Y-135255000D01*
X271126857Y-135194523D02*
X271489714Y-136464523D01*
X271780000Y-135557380D01*
X272070285Y-136464523D01*
X272433142Y-135194523D01*
X273812000Y-136464523D02*
X272941142Y-136464523D01*
X273376571Y-136464523D02*
X273376571Y-135194523D01*
X273231428Y-135375952D01*
X273086285Y-135496904D01*
X272941142Y-135557380D01*
X268550571Y-151644047D02*
X268768285Y-151704523D01*
X269131142Y-151704523D01*
X269276285Y-151644047D01*
X269348857Y-151583571D01*
X269421428Y-151462619D01*
X269421428Y-151341666D01*
X269348857Y-151220714D01*
X269276285Y-151160238D01*
X269131142Y-151099761D01*
X268840857Y-151039285D01*
X268695714Y-150978809D01*
X268623142Y-150918333D01*
X268550571Y-150797380D01*
X268550571Y-150676428D01*
X268623142Y-150555476D01*
X268695714Y-150495000D01*
X268840857Y-150434523D01*
X269203714Y-150434523D01*
X269421428Y-150495000D01*
X270800285Y-151704523D02*
X270074571Y-151704523D01*
X270074571Y-150434523D01*
X271235714Y-151341666D02*
X271961428Y-151341666D01*
X271090571Y-151704523D02*
X271598571Y-150434523D01*
X272106571Y-151704523D01*
X272542000Y-151644047D02*
X272759714Y-151704523D01*
X273122571Y-151704523D01*
X273267714Y-151644047D01*
X273340285Y-151583571D01*
X273412857Y-151462619D01*
X273412857Y-151341666D01*
X273340285Y-151220714D01*
X273267714Y-151160238D01*
X273122571Y-151099761D01*
X272832285Y-151039285D01*
X272687142Y-150978809D01*
X272614571Y-150918333D01*
X272542000Y-150797380D01*
X272542000Y-150676428D01*
X272614571Y-150555476D01*
X272687142Y-150495000D01*
X272832285Y-150434523D01*
X273195142Y-150434523D01*
X273412857Y-150495000D01*
X274066000Y-151704523D02*
X274066000Y-150434523D01*
X274066000Y-151039285D02*
X274936857Y-151039285D01*
X274936857Y-151704523D02*
X274936857Y-150434523D01*
X255460000Y-155454047D02*
X255677714Y-155514523D01*
X256040571Y-155514523D01*
X256185714Y-155454047D01*
X256258285Y-155393571D01*
X256330857Y-155272619D01*
X256330857Y-155151666D01*
X256258285Y-155030714D01*
X256185714Y-154970238D01*
X256040571Y-154909761D01*
X255750285Y-154849285D01*
X255605142Y-154788809D01*
X255532571Y-154728333D01*
X255460000Y-154607380D01*
X255460000Y-154486428D01*
X255532571Y-154365476D01*
X255605142Y-154305000D01*
X255750285Y-154244523D01*
X256113142Y-154244523D01*
X256330857Y-154305000D01*
X256838857Y-154244523D02*
X257201714Y-155514523D01*
X257492000Y-154607380D01*
X257782285Y-155514523D01*
X258145142Y-154244523D01*
X258580571Y-154244523D02*
X259596571Y-154244523D01*
X258943428Y-155514523D01*
X254952000Y-170633571D02*
X254879428Y-170694047D01*
X254661714Y-170754523D01*
X254516571Y-170754523D01*
X254298857Y-170694047D01*
X254153714Y-170573095D01*
X254081142Y-170452142D01*
X254008571Y-170210238D01*
X254008571Y-170028809D01*
X254081142Y-169786904D01*
X254153714Y-169665952D01*
X254298857Y-169545000D01*
X254516571Y-169484523D01*
X254661714Y-169484523D01*
X254879428Y-169545000D01*
X254952000Y-169605476D01*
X255895428Y-169484523D02*
X256185714Y-169484523D01*
X256330857Y-169545000D01*
X256476000Y-169665952D01*
X256548571Y-169907857D01*
X256548571Y-170331190D01*
X256476000Y-170573095D01*
X256330857Y-170694047D01*
X256185714Y-170754523D01*
X255895428Y-170754523D01*
X255750285Y-170694047D01*
X255605142Y-170573095D01*
X255532571Y-170331190D01*
X255532571Y-169907857D01*
X255605142Y-169665952D01*
X255750285Y-169545000D01*
X255895428Y-169484523D01*
X257927428Y-170754523D02*
X257201714Y-170754523D01*
X257201714Y-169484523D01*
X258725714Y-169484523D02*
X259016000Y-169484523D01*
X259161142Y-169545000D01*
X259306285Y-169665952D01*
X259378857Y-169907857D01*
X259378857Y-170331190D01*
X259306285Y-170573095D01*
X259161142Y-170694047D01*
X259016000Y-170754523D01*
X258725714Y-170754523D01*
X258580571Y-170694047D01*
X258435428Y-170573095D01*
X258362857Y-170331190D01*
X258362857Y-169907857D01*
X258435428Y-169665952D01*
X258580571Y-169545000D01*
X258725714Y-169484523D01*
X260032000Y-170754523D02*
X260032000Y-169484523D01*
X260902857Y-170754523D01*
X260902857Y-169484523D01*
X226886000Y-174504047D02*
X227103714Y-174564523D01*
X227466571Y-174564523D01*
X227611714Y-174504047D01*
X227684285Y-174443571D01*
X227756857Y-174322619D01*
X227756857Y-174201666D01*
X227684285Y-174080714D01*
X227611714Y-174020238D01*
X227466571Y-173959761D01*
X227176285Y-173899285D01*
X227031142Y-173838809D01*
X226958571Y-173778333D01*
X226886000Y-173657380D01*
X226886000Y-173536428D01*
X226958571Y-173415476D01*
X227031142Y-173355000D01*
X227176285Y-173294523D01*
X227539142Y-173294523D01*
X227756857Y-173355000D01*
X228264857Y-173294523D02*
X228627714Y-174564523D01*
X228918000Y-173657380D01*
X229208285Y-174564523D01*
X229571142Y-173294523D01*
X230006571Y-173294523D02*
X230950000Y-173294523D01*
X230442000Y-173778333D01*
X230659714Y-173778333D01*
X230804857Y-173838809D01*
X230877428Y-173899285D01*
X230950000Y-174020238D01*
X230950000Y-174322619D01*
X230877428Y-174443571D01*
X230804857Y-174504047D01*
X230659714Y-174564523D01*
X230224285Y-174564523D01*
X230079142Y-174504047D01*
X230006571Y-174443571D01*
X226196571Y-189683571D02*
X226124000Y-189744047D01*
X225906285Y-189804523D01*
X225761142Y-189804523D01*
X225543428Y-189744047D01*
X225398285Y-189623095D01*
X225325714Y-189502142D01*
X225253142Y-189260238D01*
X225253142Y-189078809D01*
X225325714Y-188836904D01*
X225398285Y-188715952D01*
X225543428Y-188595000D01*
X225761142Y-188534523D01*
X225906285Y-188534523D01*
X226124000Y-188595000D01*
X226196571Y-188655476D01*
X227140000Y-188534523D02*
X227430285Y-188534523D01*
X227575428Y-188595000D01*
X227720571Y-188715952D01*
X227793142Y-188957857D01*
X227793142Y-189381190D01*
X227720571Y-189623095D01*
X227575428Y-189744047D01*
X227430285Y-189804523D01*
X227140000Y-189804523D01*
X226994857Y-189744047D01*
X226849714Y-189623095D01*
X226777142Y-189381190D01*
X226777142Y-188957857D01*
X226849714Y-188715952D01*
X226994857Y-188595000D01*
X227140000Y-188534523D01*
X228446285Y-189804523D02*
X228446285Y-188534523D01*
X228954285Y-189441666D01*
X229462285Y-188534523D01*
X229462285Y-189804523D01*
X230188000Y-189804523D02*
X230188000Y-188534523D01*
X230696000Y-189441666D01*
X231204000Y-188534523D01*
X231204000Y-189804523D01*
X231857142Y-189441666D02*
X232582857Y-189441666D01*
X231712000Y-189804523D02*
X232220000Y-188534523D01*
X232728000Y-189804523D01*
X245936000Y-174504047D02*
X246153714Y-174564523D01*
X246516571Y-174564523D01*
X246661714Y-174504047D01*
X246734285Y-174443571D01*
X246806857Y-174322619D01*
X246806857Y-174201666D01*
X246734285Y-174080714D01*
X246661714Y-174020238D01*
X246516571Y-173959761D01*
X246226285Y-173899285D01*
X246081142Y-173838809D01*
X246008571Y-173778333D01*
X245936000Y-173657380D01*
X245936000Y-173536428D01*
X246008571Y-173415476D01*
X246081142Y-173355000D01*
X246226285Y-173294523D01*
X246589142Y-173294523D01*
X246806857Y-173355000D01*
X247314857Y-173294523D02*
X247677714Y-174564523D01*
X247968000Y-173657380D01*
X248258285Y-174564523D01*
X248621142Y-173294523D01*
X249129142Y-173415476D02*
X249201714Y-173355000D01*
X249346857Y-173294523D01*
X249709714Y-173294523D01*
X249854857Y-173355000D01*
X249927428Y-173415476D01*
X250000000Y-173536428D01*
X250000000Y-173657380D01*
X249927428Y-173838809D01*
X249056571Y-174564523D01*
X250000000Y-174564523D01*
X244194285Y-189804523D02*
X244194285Y-188534523D01*
X244774857Y-188534523D01*
X244920000Y-188595000D01*
X244992571Y-188655476D01*
X245065142Y-188776428D01*
X245065142Y-188957857D01*
X244992571Y-189078809D01*
X244920000Y-189139285D01*
X244774857Y-189199761D01*
X244194285Y-189199761D01*
X245718285Y-189139285D02*
X246226285Y-189139285D01*
X246444000Y-189804523D02*
X245718285Y-189804523D01*
X245718285Y-188534523D01*
X246444000Y-188534523D01*
X247968000Y-189804523D02*
X247460000Y-189199761D01*
X247097142Y-189804523D02*
X247097142Y-188534523D01*
X247677714Y-188534523D01*
X247822857Y-188595000D01*
X247895428Y-188655476D01*
X247968000Y-188776428D01*
X247968000Y-188957857D01*
X247895428Y-189078809D01*
X247822857Y-189139285D01*
X247677714Y-189199761D01*
X247097142Y-189199761D01*
X248621142Y-189804523D02*
X248621142Y-188534523D01*
X249637142Y-188534523D02*
X249927428Y-188534523D01*
X250072571Y-188595000D01*
X250217714Y-188715952D01*
X250290285Y-188957857D01*
X250290285Y-189381190D01*
X250217714Y-189623095D01*
X250072571Y-189744047D01*
X249927428Y-189804523D01*
X249637142Y-189804523D01*
X249492000Y-189744047D01*
X249346857Y-189623095D01*
X249274285Y-189381190D01*
X249274285Y-188957857D01*
X249346857Y-188715952D01*
X249492000Y-188595000D01*
X249637142Y-188534523D01*
X250943428Y-189804523D02*
X250943428Y-188534523D01*
X251306285Y-188534523D01*
X251524000Y-188595000D01*
X251669142Y-188715952D01*
X251741714Y-188836904D01*
X251814285Y-189078809D01*
X251814285Y-189260238D01*
X251741714Y-189502142D01*
X251669142Y-189623095D01*
X251524000Y-189744047D01*
X251306285Y-189804523D01*
X250943428Y-189804523D01*
X83284785Y-155454047D02*
X83502500Y-155514523D01*
X83865357Y-155514523D01*
X84010500Y-155454047D01*
X84083071Y-155393571D01*
X84155642Y-155272619D01*
X84155642Y-155151666D01*
X84083071Y-155030714D01*
X84010500Y-154970238D01*
X83865357Y-154909761D01*
X83575071Y-154849285D01*
X83429928Y-154788809D01*
X83357357Y-154728333D01*
X83284785Y-154607380D01*
X83284785Y-154486428D01*
X83357357Y-154365476D01*
X83429928Y-154305000D01*
X83575071Y-154244523D01*
X83937928Y-154244523D01*
X84155642Y-154305000D01*
X84663642Y-154244523D02*
X85026500Y-155514523D01*
X85316785Y-154607380D01*
X85607071Y-155514523D01*
X85969928Y-154244523D01*
X86405357Y-154244523D02*
X87348785Y-154244523D01*
X86840785Y-154728333D01*
X87058500Y-154728333D01*
X87203642Y-154788809D01*
X87276214Y-154849285D01*
X87348785Y-154970238D01*
X87348785Y-155272619D01*
X87276214Y-155393571D01*
X87203642Y-155454047D01*
X87058500Y-155514523D01*
X86623071Y-155514523D01*
X86477928Y-155454047D01*
X86405357Y-155393571D01*
X88292214Y-154244523D02*
X88437357Y-154244523D01*
X88582500Y-154305000D01*
X88655071Y-154365476D01*
X88727642Y-154486428D01*
X88800214Y-154728333D01*
X88800214Y-155030714D01*
X88727642Y-155272619D01*
X88655071Y-155393571D01*
X88582500Y-155454047D01*
X88437357Y-155514523D01*
X88292214Y-155514523D01*
X88147071Y-155454047D01*
X88074500Y-155393571D01*
X88001928Y-155272619D01*
X87929357Y-155030714D01*
X87929357Y-154728333D01*
X88001928Y-154486428D01*
X88074500Y-154365476D01*
X88147071Y-154305000D01*
X88292214Y-154244523D01*
X85679642Y-170391666D02*
X86405357Y-170391666D01*
X85534500Y-170754523D02*
X86042500Y-169484523D01*
X86550500Y-170754523D01*
X169010285Y-174504047D02*
X169228000Y-174564523D01*
X169590857Y-174564523D01*
X169736000Y-174504047D01*
X169808571Y-174443571D01*
X169881142Y-174322619D01*
X169881142Y-174201666D01*
X169808571Y-174080714D01*
X169736000Y-174020238D01*
X169590857Y-173959761D01*
X169300571Y-173899285D01*
X169155428Y-173838809D01*
X169082857Y-173778333D01*
X169010285Y-173657380D01*
X169010285Y-173536428D01*
X169082857Y-173415476D01*
X169155428Y-173355000D01*
X169300571Y-173294523D01*
X169663428Y-173294523D01*
X169881142Y-173355000D01*
X170389142Y-173294523D02*
X170752000Y-174564523D01*
X171042285Y-173657380D01*
X171332571Y-174564523D01*
X171695428Y-173294523D01*
X172203428Y-173415476D02*
X172276000Y-173355000D01*
X172421142Y-173294523D01*
X172784000Y-173294523D01*
X172929142Y-173355000D01*
X173001714Y-173415476D01*
X173074285Y-173536428D01*
X173074285Y-173657380D01*
X173001714Y-173838809D01*
X172130857Y-174564523D01*
X173074285Y-174564523D01*
X173945142Y-173838809D02*
X173800000Y-173778333D01*
X173727428Y-173717857D01*
X173654857Y-173596904D01*
X173654857Y-173536428D01*
X173727428Y-173415476D01*
X173800000Y-173355000D01*
X173945142Y-173294523D01*
X174235428Y-173294523D01*
X174380571Y-173355000D01*
X174453142Y-173415476D01*
X174525714Y-173536428D01*
X174525714Y-173596904D01*
X174453142Y-173717857D01*
X174380571Y-173778333D01*
X174235428Y-173838809D01*
X173945142Y-173838809D01*
X173800000Y-173899285D01*
X173727428Y-173959761D01*
X173654857Y-174080714D01*
X173654857Y-174322619D01*
X173727428Y-174443571D01*
X173800000Y-174504047D01*
X173945142Y-174564523D01*
X174235428Y-174564523D01*
X174380571Y-174504047D01*
X174453142Y-174443571D01*
X174525714Y-174322619D01*
X174525714Y-174080714D01*
X174453142Y-173959761D01*
X174380571Y-173899285D01*
X174235428Y-173838809D01*
X171876857Y-189139285D02*
X172094571Y-189199761D01*
X172167142Y-189260238D01*
X172239714Y-189381190D01*
X172239714Y-189562619D01*
X172167142Y-189683571D01*
X172094571Y-189744047D01*
X171949428Y-189804523D01*
X171368857Y-189804523D01*
X171368857Y-188534523D01*
X171876857Y-188534523D01*
X172022000Y-188595000D01*
X172094571Y-188655476D01*
X172167142Y-188776428D01*
X172167142Y-188897380D01*
X172094571Y-189018333D01*
X172022000Y-189078809D01*
X171876857Y-189139285D01*
X171368857Y-189139285D01*
X130910285Y-174504047D02*
X131128000Y-174564523D01*
X131490857Y-174564523D01*
X131636000Y-174504047D01*
X131708571Y-174443571D01*
X131781142Y-174322619D01*
X131781142Y-174201666D01*
X131708571Y-174080714D01*
X131636000Y-174020238D01*
X131490857Y-173959761D01*
X131200571Y-173899285D01*
X131055428Y-173838809D01*
X130982857Y-173778333D01*
X130910285Y-173657380D01*
X130910285Y-173536428D01*
X130982857Y-173415476D01*
X131055428Y-173355000D01*
X131200571Y-173294523D01*
X131563428Y-173294523D01*
X131781142Y-173355000D01*
X132289142Y-173294523D02*
X132652000Y-174564523D01*
X132942285Y-173657380D01*
X133232571Y-174564523D01*
X133595428Y-173294523D01*
X134103428Y-173415476D02*
X134176000Y-173355000D01*
X134321142Y-173294523D01*
X134684000Y-173294523D01*
X134829142Y-173355000D01*
X134901714Y-173415476D01*
X134974285Y-173536428D01*
X134974285Y-173657380D01*
X134901714Y-173838809D01*
X134030857Y-174564523D01*
X134974285Y-174564523D01*
X136280571Y-173294523D02*
X135990285Y-173294523D01*
X135845142Y-173355000D01*
X135772571Y-173415476D01*
X135627428Y-173596904D01*
X135554857Y-173838809D01*
X135554857Y-174322619D01*
X135627428Y-174443571D01*
X135700000Y-174504047D01*
X135845142Y-174564523D01*
X136135428Y-174564523D01*
X136280571Y-174504047D01*
X136353142Y-174443571D01*
X136425714Y-174322619D01*
X136425714Y-174020238D01*
X136353142Y-173899285D01*
X136280571Y-173838809D01*
X136135428Y-173778333D01*
X135845142Y-173778333D01*
X135700000Y-173838809D01*
X135627428Y-173899285D01*
X135554857Y-174020238D01*
X134139714Y-189683571D02*
X134067142Y-189744047D01*
X133849428Y-189804523D01*
X133704285Y-189804523D01*
X133486571Y-189744047D01*
X133341428Y-189623095D01*
X133268857Y-189502142D01*
X133196285Y-189260238D01*
X133196285Y-189078809D01*
X133268857Y-188836904D01*
X133341428Y-188715952D01*
X133486571Y-188595000D01*
X133704285Y-188534523D01*
X133849428Y-188534523D01*
X134067142Y-188595000D01*
X134139714Y-188655476D01*
X121384285Y-155454047D02*
X121602000Y-155514523D01*
X121964857Y-155514523D01*
X122110000Y-155454047D01*
X122182571Y-155393571D01*
X122255142Y-155272619D01*
X122255142Y-155151666D01*
X122182571Y-155030714D01*
X122110000Y-154970238D01*
X121964857Y-154909761D01*
X121674571Y-154849285D01*
X121529428Y-154788809D01*
X121456857Y-154728333D01*
X121384285Y-154607380D01*
X121384285Y-154486428D01*
X121456857Y-154365476D01*
X121529428Y-154305000D01*
X121674571Y-154244523D01*
X122037428Y-154244523D01*
X122255142Y-154305000D01*
X122763142Y-154244523D02*
X123126000Y-155514523D01*
X123416285Y-154607380D01*
X123706571Y-155514523D01*
X124069428Y-154244523D01*
X124504857Y-154244523D02*
X125448285Y-154244523D01*
X124940285Y-154728333D01*
X125158000Y-154728333D01*
X125303142Y-154788809D01*
X125375714Y-154849285D01*
X125448285Y-154970238D01*
X125448285Y-155272619D01*
X125375714Y-155393571D01*
X125303142Y-155454047D01*
X125158000Y-155514523D01*
X124722571Y-155514523D01*
X124577428Y-155454047D01*
X124504857Y-155393571D01*
X126028857Y-154365476D02*
X126101428Y-154305000D01*
X126246571Y-154244523D01*
X126609428Y-154244523D01*
X126754571Y-154305000D01*
X126827142Y-154365476D01*
X126899714Y-154486428D01*
X126899714Y-154607380D01*
X126827142Y-154788809D01*
X125956285Y-155514523D01*
X126899714Y-155514523D01*
X123742857Y-170754523D02*
X123742857Y-169484523D01*
X124105714Y-169484523D01*
X124323428Y-169545000D01*
X124468571Y-169665952D01*
X124541142Y-169786904D01*
X124613714Y-170028809D01*
X124613714Y-170210238D01*
X124541142Y-170452142D01*
X124468571Y-170573095D01*
X124323428Y-170694047D01*
X124105714Y-170754523D01*
X123742857Y-170754523D01*
X116622285Y-136404047D02*
X116840000Y-136464523D01*
X117202857Y-136464523D01*
X117348000Y-136404047D01*
X117420571Y-136343571D01*
X117493142Y-136222619D01*
X117493142Y-136101666D01*
X117420571Y-135980714D01*
X117348000Y-135920238D01*
X117202857Y-135859761D01*
X116912571Y-135799285D01*
X116767428Y-135738809D01*
X116694857Y-135678333D01*
X116622285Y-135557380D01*
X116622285Y-135436428D01*
X116694857Y-135315476D01*
X116767428Y-135255000D01*
X116912571Y-135194523D01*
X117275428Y-135194523D01*
X117493142Y-135255000D01*
X118001142Y-135194523D02*
X118364000Y-136464523D01*
X118654285Y-135557380D01*
X118944571Y-136464523D01*
X119307428Y-135194523D01*
X119742857Y-135194523D02*
X120686285Y-135194523D01*
X120178285Y-135678333D01*
X120396000Y-135678333D01*
X120541142Y-135738809D01*
X120613714Y-135799285D01*
X120686285Y-135920238D01*
X120686285Y-136222619D01*
X120613714Y-136343571D01*
X120541142Y-136404047D01*
X120396000Y-136464523D01*
X119960571Y-136464523D01*
X119815428Y-136404047D01*
X119742857Y-136343571D01*
X121412000Y-136464523D02*
X121702285Y-136464523D01*
X121847428Y-136404047D01*
X121920000Y-136343571D01*
X122065142Y-136162142D01*
X122137714Y-135920238D01*
X122137714Y-135436428D01*
X122065142Y-135315476D01*
X121992571Y-135255000D01*
X121847428Y-135194523D01*
X121557142Y-135194523D01*
X121412000Y-135255000D01*
X121339428Y-135315476D01*
X121266857Y-135436428D01*
X121266857Y-135738809D01*
X121339428Y-135859761D01*
X121412000Y-135920238D01*
X121557142Y-135980714D01*
X121847428Y-135980714D01*
X121992571Y-135920238D01*
X122065142Y-135859761D01*
X122137714Y-135738809D01*
X119053428Y-151039285D02*
X119561428Y-151039285D01*
X119779142Y-151704523D02*
X119053428Y-151704523D01*
X119053428Y-150434523D01*
X119779142Y-150434523D01*
X140434285Y-155454047D02*
X140652000Y-155514523D01*
X141014857Y-155514523D01*
X141160000Y-155454047D01*
X141232571Y-155393571D01*
X141305142Y-155272619D01*
X141305142Y-155151666D01*
X141232571Y-155030714D01*
X141160000Y-154970238D01*
X141014857Y-154909761D01*
X140724571Y-154849285D01*
X140579428Y-154788809D01*
X140506857Y-154728333D01*
X140434285Y-154607380D01*
X140434285Y-154486428D01*
X140506857Y-154365476D01*
X140579428Y-154305000D01*
X140724571Y-154244523D01*
X141087428Y-154244523D01*
X141305142Y-154305000D01*
X141813142Y-154244523D02*
X142176000Y-155514523D01*
X142466285Y-154607380D01*
X142756571Y-155514523D01*
X143119428Y-154244523D01*
X143554857Y-154244523D02*
X144498285Y-154244523D01*
X143990285Y-154728333D01*
X144208000Y-154728333D01*
X144353142Y-154788809D01*
X144425714Y-154849285D01*
X144498285Y-154970238D01*
X144498285Y-155272619D01*
X144425714Y-155393571D01*
X144353142Y-155454047D01*
X144208000Y-155514523D01*
X143772571Y-155514523D01*
X143627428Y-155454047D01*
X143554857Y-155393571D01*
X145006285Y-154244523D02*
X145949714Y-154244523D01*
X145441714Y-154728333D01*
X145659428Y-154728333D01*
X145804571Y-154788809D01*
X145877142Y-154849285D01*
X145949714Y-154970238D01*
X145949714Y-155272619D01*
X145877142Y-155393571D01*
X145804571Y-155454047D01*
X145659428Y-155514523D01*
X145224000Y-155514523D01*
X145078857Y-155454047D01*
X145006285Y-155393571D01*
X143409714Y-170089285D02*
X142901714Y-170089285D01*
X142901714Y-170754523D02*
X142901714Y-169484523D01*
X143627428Y-169484523D01*
X159484285Y-155454047D02*
X159702000Y-155514523D01*
X160064857Y-155514523D01*
X160210000Y-155454047D01*
X160282571Y-155393571D01*
X160355142Y-155272619D01*
X160355142Y-155151666D01*
X160282571Y-155030714D01*
X160210000Y-154970238D01*
X160064857Y-154909761D01*
X159774571Y-154849285D01*
X159629428Y-154788809D01*
X159556857Y-154728333D01*
X159484285Y-154607380D01*
X159484285Y-154486428D01*
X159556857Y-154365476D01*
X159629428Y-154305000D01*
X159774571Y-154244523D01*
X160137428Y-154244523D01*
X160355142Y-154305000D01*
X160863142Y-154244523D02*
X161226000Y-155514523D01*
X161516285Y-154607380D01*
X161806571Y-155514523D01*
X162169428Y-154244523D01*
X162604857Y-154244523D02*
X163548285Y-154244523D01*
X163040285Y-154728333D01*
X163258000Y-154728333D01*
X163403142Y-154788809D01*
X163475714Y-154849285D01*
X163548285Y-154970238D01*
X163548285Y-155272619D01*
X163475714Y-155393571D01*
X163403142Y-155454047D01*
X163258000Y-155514523D01*
X162822571Y-155514523D01*
X162677428Y-155454047D01*
X162604857Y-155393571D01*
X164854571Y-154667857D02*
X164854571Y-155514523D01*
X164491714Y-154184047D02*
X164128857Y-155091190D01*
X165072285Y-155091190D01*
X162641142Y-169545000D02*
X162496000Y-169484523D01*
X162278285Y-169484523D01*
X162060571Y-169545000D01*
X161915428Y-169665952D01*
X161842857Y-169786904D01*
X161770285Y-170028809D01*
X161770285Y-170210238D01*
X161842857Y-170452142D01*
X161915428Y-170573095D01*
X162060571Y-170694047D01*
X162278285Y-170754523D01*
X162423428Y-170754523D01*
X162641142Y-170694047D01*
X162713714Y-170633571D01*
X162713714Y-170210238D01*
X162423428Y-170210238D01*
X178534285Y-155454047D02*
X178752000Y-155514523D01*
X179114857Y-155514523D01*
X179260000Y-155454047D01*
X179332571Y-155393571D01*
X179405142Y-155272619D01*
X179405142Y-155151666D01*
X179332571Y-155030714D01*
X179260000Y-154970238D01*
X179114857Y-154909761D01*
X178824571Y-154849285D01*
X178679428Y-154788809D01*
X178606857Y-154728333D01*
X178534285Y-154607380D01*
X178534285Y-154486428D01*
X178606857Y-154365476D01*
X178679428Y-154305000D01*
X178824571Y-154244523D01*
X179187428Y-154244523D01*
X179405142Y-154305000D01*
X179913142Y-154244523D02*
X180276000Y-155514523D01*
X180566285Y-154607380D01*
X180856571Y-155514523D01*
X181219428Y-154244523D01*
X182598285Y-155514523D02*
X181727428Y-155514523D01*
X182162857Y-155514523D02*
X182162857Y-154244523D01*
X182017714Y-154425952D01*
X181872571Y-154546904D01*
X181727428Y-154607380D01*
X184049714Y-155514523D02*
X183178857Y-155514523D01*
X183614285Y-155514523D02*
X183614285Y-154244523D01*
X183469142Y-154425952D01*
X183324000Y-154546904D01*
X183178857Y-154607380D01*
X180856571Y-170754523D02*
X180856571Y-169484523D01*
X180856571Y-170089285D02*
X181727428Y-170089285D01*
X181727428Y-170754523D02*
X181727428Y-169484523D01*
X211872285Y-136404047D02*
X212090000Y-136464523D01*
X212452857Y-136464523D01*
X212598000Y-136404047D01*
X212670571Y-136343571D01*
X212743142Y-136222619D01*
X212743142Y-136101666D01*
X212670571Y-135980714D01*
X212598000Y-135920238D01*
X212452857Y-135859761D01*
X212162571Y-135799285D01*
X212017428Y-135738809D01*
X211944857Y-135678333D01*
X211872285Y-135557380D01*
X211872285Y-135436428D01*
X211944857Y-135315476D01*
X212017428Y-135255000D01*
X212162571Y-135194523D01*
X212525428Y-135194523D01*
X212743142Y-135255000D01*
X213251142Y-135194523D02*
X213614000Y-136464523D01*
X213904285Y-135557380D01*
X214194571Y-136464523D01*
X214557428Y-135194523D01*
X215936285Y-136464523D02*
X215065428Y-136464523D01*
X215500857Y-136464523D02*
X215500857Y-135194523D01*
X215355714Y-135375952D01*
X215210571Y-135496904D01*
X215065428Y-135557380D01*
X217315142Y-135194523D02*
X216589428Y-135194523D01*
X216516857Y-135799285D01*
X216589428Y-135738809D01*
X216734571Y-135678333D01*
X217097428Y-135678333D01*
X217242571Y-135738809D01*
X217315142Y-135799285D01*
X217387714Y-135920238D01*
X217387714Y-136222619D01*
X217315142Y-136343571D01*
X217242571Y-136404047D01*
X217097428Y-136464523D01*
X216734571Y-136464523D01*
X216589428Y-136404047D01*
X216516857Y-136343571D01*
X214630000Y-151704523D02*
X214630000Y-150434523D01*
X197584285Y-155454047D02*
X197802000Y-155514523D01*
X198164857Y-155514523D01*
X198310000Y-155454047D01*
X198382571Y-155393571D01*
X198455142Y-155272619D01*
X198455142Y-155151666D01*
X198382571Y-155030714D01*
X198310000Y-154970238D01*
X198164857Y-154909761D01*
X197874571Y-154849285D01*
X197729428Y-154788809D01*
X197656857Y-154728333D01*
X197584285Y-154607380D01*
X197584285Y-154486428D01*
X197656857Y-154365476D01*
X197729428Y-154305000D01*
X197874571Y-154244523D01*
X198237428Y-154244523D01*
X198455142Y-154305000D01*
X198963142Y-154244523D02*
X199326000Y-155514523D01*
X199616285Y-154607380D01*
X199906571Y-155514523D01*
X200269428Y-154244523D01*
X201648285Y-155514523D02*
X200777428Y-155514523D01*
X201212857Y-155514523D02*
X201212857Y-154244523D01*
X201067714Y-154425952D01*
X200922571Y-154546904D01*
X200777428Y-154607380D01*
X202591714Y-154244523D02*
X202736857Y-154244523D01*
X202882000Y-154305000D01*
X202954571Y-154365476D01*
X203027142Y-154486428D01*
X203099714Y-154728333D01*
X203099714Y-155030714D01*
X203027142Y-155272619D01*
X202954571Y-155393571D01*
X202882000Y-155454047D01*
X202736857Y-155514523D01*
X202591714Y-155514523D01*
X202446571Y-155454047D01*
X202374000Y-155393571D01*
X202301428Y-155272619D01*
X202228857Y-155030714D01*
X202228857Y-154728333D01*
X202301428Y-154486428D01*
X202374000Y-154365476D01*
X202446571Y-154305000D01*
X202591714Y-154244523D01*
X200559714Y-169484523D02*
X200559714Y-170391666D01*
X200487142Y-170573095D01*
X200342000Y-170694047D01*
X200124285Y-170754523D01*
X199979142Y-170754523D01*
X217360000Y-155454047D02*
X217577714Y-155514523D01*
X217940571Y-155514523D01*
X218085714Y-155454047D01*
X218158285Y-155393571D01*
X218230857Y-155272619D01*
X218230857Y-155151666D01*
X218158285Y-155030714D01*
X218085714Y-154970238D01*
X217940571Y-154909761D01*
X217650285Y-154849285D01*
X217505142Y-154788809D01*
X217432571Y-154728333D01*
X217360000Y-154607380D01*
X217360000Y-154486428D01*
X217432571Y-154365476D01*
X217505142Y-154305000D01*
X217650285Y-154244523D01*
X218013142Y-154244523D01*
X218230857Y-154305000D01*
X218738857Y-154244523D02*
X219101714Y-155514523D01*
X219392000Y-154607380D01*
X219682285Y-155514523D01*
X220045142Y-154244523D01*
X220698285Y-155514523D02*
X220988571Y-155514523D01*
X221133714Y-155454047D01*
X221206285Y-155393571D01*
X221351428Y-155212142D01*
X221424000Y-154970238D01*
X221424000Y-154486428D01*
X221351428Y-154365476D01*
X221278857Y-154305000D01*
X221133714Y-154244523D01*
X220843428Y-154244523D01*
X220698285Y-154305000D01*
X220625714Y-154365476D01*
X220553142Y-154486428D01*
X220553142Y-154788809D01*
X220625714Y-154909761D01*
X220698285Y-154970238D01*
X220843428Y-155030714D01*
X221133714Y-155030714D01*
X221278857Y-154970238D01*
X221351428Y-154909761D01*
X221424000Y-154788809D01*
X218992857Y-170754523D02*
X218992857Y-169484523D01*
X219863714Y-170754523D02*
X219210571Y-170028809D01*
X219863714Y-169484523D02*
X218992857Y-170210238D01*
X236410000Y-155454047D02*
X236627714Y-155514523D01*
X236990571Y-155514523D01*
X237135714Y-155454047D01*
X237208285Y-155393571D01*
X237280857Y-155272619D01*
X237280857Y-155151666D01*
X237208285Y-155030714D01*
X237135714Y-154970238D01*
X236990571Y-154909761D01*
X236700285Y-154849285D01*
X236555142Y-154788809D01*
X236482571Y-154728333D01*
X236410000Y-154607380D01*
X236410000Y-154486428D01*
X236482571Y-154365476D01*
X236555142Y-154305000D01*
X236700285Y-154244523D01*
X237063142Y-154244523D01*
X237280857Y-154305000D01*
X237788857Y-154244523D02*
X238151714Y-155514523D01*
X238442000Y-154607380D01*
X238732285Y-155514523D01*
X239095142Y-154244523D01*
X239893428Y-154788809D02*
X239748285Y-154728333D01*
X239675714Y-154667857D01*
X239603142Y-154546904D01*
X239603142Y-154486428D01*
X239675714Y-154365476D01*
X239748285Y-154305000D01*
X239893428Y-154244523D01*
X240183714Y-154244523D01*
X240328857Y-154305000D01*
X240401428Y-154365476D01*
X240474000Y-154486428D01*
X240474000Y-154546904D01*
X240401428Y-154667857D01*
X240328857Y-154728333D01*
X240183714Y-154788809D01*
X239893428Y-154788809D01*
X239748285Y-154849285D01*
X239675714Y-154909761D01*
X239603142Y-155030714D01*
X239603142Y-155272619D01*
X239675714Y-155393571D01*
X239748285Y-155454047D01*
X239893428Y-155514523D01*
X240183714Y-155514523D01*
X240328857Y-155454047D01*
X240401428Y-155393571D01*
X240474000Y-155272619D01*
X240474000Y-155030714D01*
X240401428Y-154909761D01*
X240328857Y-154849285D01*
X240183714Y-154788809D01*
X238913714Y-170754523D02*
X238188000Y-170754523D01*
X238188000Y-169484523D01*
X207836000Y-174504047D02*
X208053714Y-174564523D01*
X208416571Y-174564523D01*
X208561714Y-174504047D01*
X208634285Y-174443571D01*
X208706857Y-174322619D01*
X208706857Y-174201666D01*
X208634285Y-174080714D01*
X208561714Y-174020238D01*
X208416571Y-173959761D01*
X208126285Y-173899285D01*
X207981142Y-173838809D01*
X207908571Y-173778333D01*
X207836000Y-173657380D01*
X207836000Y-173536428D01*
X207908571Y-173415476D01*
X207981142Y-173355000D01*
X208126285Y-173294523D01*
X208489142Y-173294523D01*
X208706857Y-173355000D01*
X209214857Y-173294523D02*
X209577714Y-174564523D01*
X209868000Y-173657380D01*
X210158285Y-174564523D01*
X210521142Y-173294523D01*
X211754857Y-173717857D02*
X211754857Y-174564523D01*
X211392000Y-173234047D02*
X211029142Y-174141190D01*
X211972571Y-174141190D01*
X209360000Y-189804523D02*
X209360000Y-188534523D01*
X209868000Y-189441666D01*
X210376000Y-188534523D01*
X210376000Y-189804523D01*
X188786000Y-174504047D02*
X189003714Y-174564523D01*
X189366571Y-174564523D01*
X189511714Y-174504047D01*
X189584285Y-174443571D01*
X189656857Y-174322619D01*
X189656857Y-174201666D01*
X189584285Y-174080714D01*
X189511714Y-174020238D01*
X189366571Y-173959761D01*
X189076285Y-173899285D01*
X188931142Y-173838809D01*
X188858571Y-173778333D01*
X188786000Y-173657380D01*
X188786000Y-173536428D01*
X188858571Y-173415476D01*
X188931142Y-173355000D01*
X189076285Y-173294523D01*
X189439142Y-173294523D01*
X189656857Y-173355000D01*
X190164857Y-173294523D02*
X190527714Y-174564523D01*
X190818000Y-173657380D01*
X191108285Y-174564523D01*
X191471142Y-173294523D01*
X192777428Y-173294523D02*
X192051714Y-173294523D01*
X191979142Y-173899285D01*
X192051714Y-173838809D01*
X192196857Y-173778333D01*
X192559714Y-173778333D01*
X192704857Y-173838809D01*
X192777428Y-173899285D01*
X192850000Y-174020238D01*
X192850000Y-174322619D01*
X192777428Y-174443571D01*
X192704857Y-174504047D01*
X192559714Y-174564523D01*
X192196857Y-174564523D01*
X192051714Y-174504047D01*
X191979142Y-174443571D01*
X190382571Y-189804523D02*
X190382571Y-188534523D01*
X191253428Y-189804523D01*
X191253428Y-188534523D01*
X230922285Y-136404047D02*
X231140000Y-136464523D01*
X231502857Y-136464523D01*
X231648000Y-136404047D01*
X231720571Y-136343571D01*
X231793142Y-136222619D01*
X231793142Y-136101666D01*
X231720571Y-135980714D01*
X231648000Y-135920238D01*
X231502857Y-135859761D01*
X231212571Y-135799285D01*
X231067428Y-135738809D01*
X230994857Y-135678333D01*
X230922285Y-135557380D01*
X230922285Y-135436428D01*
X230994857Y-135315476D01*
X231067428Y-135255000D01*
X231212571Y-135194523D01*
X231575428Y-135194523D01*
X231793142Y-135255000D01*
X232301142Y-135194523D02*
X232664000Y-136464523D01*
X232954285Y-135557380D01*
X233244571Y-136464523D01*
X233607428Y-135194523D01*
X234986285Y-136464523D02*
X234115428Y-136464523D01*
X234550857Y-136464523D02*
X234550857Y-135194523D01*
X234405714Y-135375952D01*
X234260571Y-135496904D01*
X234115428Y-135557380D01*
X236292571Y-135617857D02*
X236292571Y-136464523D01*
X235929714Y-135134047D02*
X235566857Y-136041190D01*
X236510285Y-136041190D01*
X233534857Y-150434523D02*
X233825142Y-150434523D01*
X233970285Y-150495000D01*
X234115428Y-150615952D01*
X234188000Y-150857857D01*
X234188000Y-151281190D01*
X234115428Y-151523095D01*
X233970285Y-151644047D01*
X233825142Y-151704523D01*
X233534857Y-151704523D01*
X233389714Y-151644047D01*
X233244571Y-151523095D01*
X233172000Y-151281190D01*
X233172000Y-150857857D01*
X233244571Y-150615952D01*
X233389714Y-150495000D01*
X233534857Y-150434523D01*
X249972285Y-136404047D02*
X250190000Y-136464523D01*
X250552857Y-136464523D01*
X250698000Y-136404047D01*
X250770571Y-136343571D01*
X250843142Y-136222619D01*
X250843142Y-136101666D01*
X250770571Y-135980714D01*
X250698000Y-135920238D01*
X250552857Y-135859761D01*
X250262571Y-135799285D01*
X250117428Y-135738809D01*
X250044857Y-135678333D01*
X249972285Y-135557380D01*
X249972285Y-135436428D01*
X250044857Y-135315476D01*
X250117428Y-135255000D01*
X250262571Y-135194523D01*
X250625428Y-135194523D01*
X250843142Y-135255000D01*
X251351142Y-135194523D02*
X251714000Y-136464523D01*
X252004285Y-135557380D01*
X252294571Y-136464523D01*
X252657428Y-135194523D01*
X254036285Y-136464523D02*
X253165428Y-136464523D01*
X253600857Y-136464523D02*
X253600857Y-135194523D01*
X253455714Y-135375952D01*
X253310571Y-135496904D01*
X253165428Y-135557380D01*
X254544285Y-135194523D02*
X255487714Y-135194523D01*
X254979714Y-135678333D01*
X255197428Y-135678333D01*
X255342571Y-135738809D01*
X255415142Y-135799285D01*
X255487714Y-135920238D01*
X255487714Y-136222619D01*
X255415142Y-136343571D01*
X255342571Y-136404047D01*
X255197428Y-136464523D01*
X254762000Y-136464523D01*
X254616857Y-136404047D01*
X254544285Y-136343571D01*
X252330857Y-151704523D02*
X252330857Y-150434523D01*
X252911428Y-150434523D01*
X253056571Y-150495000D01*
X253129142Y-150555476D01*
X253201714Y-150676428D01*
X253201714Y-150857857D01*
X253129142Y-150978809D01*
X253056571Y-151039285D01*
X252911428Y-151099761D01*
X252330857Y-151099761D01*
X78642285Y-136394047D02*
X78860000Y-136454523D01*
X79222857Y-136454523D01*
X79368000Y-136394047D01*
X79440571Y-136333571D01*
X79513142Y-136212619D01*
X79513142Y-136091666D01*
X79440571Y-135970714D01*
X79368000Y-135910238D01*
X79222857Y-135849761D01*
X78932571Y-135789285D01*
X78787428Y-135728809D01*
X78714857Y-135668333D01*
X78642285Y-135547380D01*
X78642285Y-135426428D01*
X78714857Y-135305476D01*
X78787428Y-135245000D01*
X78932571Y-135184523D01*
X79295428Y-135184523D01*
X79513142Y-135245000D01*
X80021142Y-135184523D02*
X80384000Y-136454523D01*
X80674285Y-135547380D01*
X80964571Y-136454523D01*
X81327428Y-135184523D01*
X81762857Y-135184523D02*
X82706285Y-135184523D01*
X82198285Y-135668333D01*
X82416000Y-135668333D01*
X82561142Y-135728809D01*
X82633714Y-135789285D01*
X82706285Y-135910238D01*
X82706285Y-136212619D01*
X82633714Y-136333571D01*
X82561142Y-136394047D01*
X82416000Y-136454523D01*
X81980571Y-136454523D01*
X81835428Y-136394047D01*
X81762857Y-136333571D01*
X83214285Y-135184523D02*
X84230285Y-135184523D01*
X83577142Y-136454523D01*
X81980571Y-151815476D02*
X81835428Y-151755000D01*
X81690285Y-151634047D01*
X81472571Y-151452619D01*
X81327428Y-151392142D01*
X81182285Y-151392142D01*
X81254857Y-151694523D02*
X81109714Y-151634047D01*
X80964571Y-151513095D01*
X80892000Y-151271190D01*
X80892000Y-150847857D01*
X80964571Y-150605952D01*
X81109714Y-150485000D01*
X81254857Y-150424523D01*
X81545142Y-150424523D01*
X81690285Y-150485000D01*
X81835428Y-150605952D01*
X81908000Y-150847857D01*
X81908000Y-151271190D01*
X81835428Y-151513095D01*
X81690285Y-151634047D01*
X81545142Y-151694523D01*
X81254857Y-151694523D01*
X135672285Y-136404047D02*
X135890000Y-136464523D01*
X136252857Y-136464523D01*
X136398000Y-136404047D01*
X136470571Y-136343571D01*
X136543142Y-136222619D01*
X136543142Y-136101666D01*
X136470571Y-135980714D01*
X136398000Y-135920238D01*
X136252857Y-135859761D01*
X135962571Y-135799285D01*
X135817428Y-135738809D01*
X135744857Y-135678333D01*
X135672285Y-135557380D01*
X135672285Y-135436428D01*
X135744857Y-135315476D01*
X135817428Y-135255000D01*
X135962571Y-135194523D01*
X136325428Y-135194523D01*
X136543142Y-135255000D01*
X137051142Y-135194523D02*
X137414000Y-136464523D01*
X137704285Y-135557380D01*
X137994571Y-136464523D01*
X138357428Y-135194523D01*
X139591142Y-135617857D02*
X139591142Y-136464523D01*
X139228285Y-135134047D02*
X138865428Y-136041190D01*
X139808857Y-136041190D01*
X140679714Y-135194523D02*
X140824857Y-135194523D01*
X140970000Y-135255000D01*
X141042571Y-135315476D01*
X141115142Y-135436428D01*
X141187714Y-135678333D01*
X141187714Y-135980714D01*
X141115142Y-136222619D01*
X141042571Y-136343571D01*
X140970000Y-136404047D01*
X140824857Y-136464523D01*
X140679714Y-136464523D01*
X140534571Y-136404047D01*
X140462000Y-136343571D01*
X140389428Y-136222619D01*
X140316857Y-135980714D01*
X140316857Y-135678333D01*
X140389428Y-135436428D01*
X140462000Y-135315476D01*
X140534571Y-135255000D01*
X140679714Y-135194523D01*
X138901714Y-151704523D02*
X138393714Y-151099761D01*
X138030857Y-151704523D02*
X138030857Y-150434523D01*
X138611428Y-150434523D01*
X138756571Y-150495000D01*
X138829142Y-150555476D01*
X138901714Y-150676428D01*
X138901714Y-150857857D01*
X138829142Y-150978809D01*
X138756571Y-151039285D01*
X138611428Y-151099761D01*
X138030857Y-151099761D01*
X102334285Y-155454047D02*
X102552000Y-155514523D01*
X102914857Y-155514523D01*
X103060000Y-155454047D01*
X103132571Y-155393571D01*
X103205142Y-155272619D01*
X103205142Y-155151666D01*
X103132571Y-155030714D01*
X103060000Y-154970238D01*
X102914857Y-154909761D01*
X102624571Y-154849285D01*
X102479428Y-154788809D01*
X102406857Y-154728333D01*
X102334285Y-154607380D01*
X102334285Y-154486428D01*
X102406857Y-154365476D01*
X102479428Y-154305000D01*
X102624571Y-154244523D01*
X102987428Y-154244523D01*
X103205142Y-154305000D01*
X103713142Y-154244523D02*
X104076000Y-155514523D01*
X104366285Y-154607380D01*
X104656571Y-155514523D01*
X105019428Y-154244523D01*
X105454857Y-154244523D02*
X106398285Y-154244523D01*
X105890285Y-154728333D01*
X106108000Y-154728333D01*
X106253142Y-154788809D01*
X106325714Y-154849285D01*
X106398285Y-154970238D01*
X106398285Y-155272619D01*
X106325714Y-155393571D01*
X106253142Y-155454047D01*
X106108000Y-155514523D01*
X105672571Y-155514523D01*
X105527428Y-155454047D01*
X105454857Y-155393571D01*
X107849714Y-155514523D02*
X106978857Y-155514523D01*
X107414285Y-155514523D02*
X107414285Y-154244523D01*
X107269142Y-154425952D01*
X107124000Y-154546904D01*
X106978857Y-154607380D01*
X104656571Y-170694047D02*
X104874285Y-170754523D01*
X105237142Y-170754523D01*
X105382285Y-170694047D01*
X105454857Y-170633571D01*
X105527428Y-170512619D01*
X105527428Y-170391666D01*
X105454857Y-170270714D01*
X105382285Y-170210238D01*
X105237142Y-170149761D01*
X104946857Y-170089285D01*
X104801714Y-170028809D01*
X104729142Y-169968333D01*
X104656571Y-169847380D01*
X104656571Y-169726428D01*
X104729142Y-169605476D01*
X104801714Y-169545000D01*
X104946857Y-169484523D01*
X105309714Y-169484523D01*
X105527428Y-169545000D01*
X154722285Y-136404047D02*
X154940000Y-136464523D01*
X155302857Y-136464523D01*
X155448000Y-136404047D01*
X155520571Y-136343571D01*
X155593142Y-136222619D01*
X155593142Y-136101666D01*
X155520571Y-135980714D01*
X155448000Y-135920238D01*
X155302857Y-135859761D01*
X155012571Y-135799285D01*
X154867428Y-135738809D01*
X154794857Y-135678333D01*
X154722285Y-135557380D01*
X154722285Y-135436428D01*
X154794857Y-135315476D01*
X154867428Y-135255000D01*
X155012571Y-135194523D01*
X155375428Y-135194523D01*
X155593142Y-135255000D01*
X156101142Y-135194523D02*
X156464000Y-136464523D01*
X156754285Y-135557380D01*
X157044571Y-136464523D01*
X157407428Y-135194523D01*
X158641142Y-135617857D02*
X158641142Y-136464523D01*
X158278285Y-135134047D02*
X157915428Y-136041190D01*
X158858857Y-136041190D01*
X160237714Y-136464523D02*
X159366857Y-136464523D01*
X159802285Y-136464523D02*
X159802285Y-135194523D01*
X159657142Y-135375952D01*
X159512000Y-135496904D01*
X159366857Y-135557380D01*
X157044571Y-150434523D02*
X157915428Y-150434523D01*
X157480000Y-151704523D02*
X157480000Y-150434523D01*
X192822285Y-136404047D02*
X193040000Y-136464523D01*
X193402857Y-136464523D01*
X193548000Y-136404047D01*
X193620571Y-136343571D01*
X193693142Y-136222619D01*
X193693142Y-136101666D01*
X193620571Y-135980714D01*
X193548000Y-135920238D01*
X193402857Y-135859761D01*
X193112571Y-135799285D01*
X192967428Y-135738809D01*
X192894857Y-135678333D01*
X192822285Y-135557380D01*
X192822285Y-135436428D01*
X192894857Y-135315476D01*
X192967428Y-135255000D01*
X193112571Y-135194523D01*
X193475428Y-135194523D01*
X193693142Y-135255000D01*
X194201142Y-135194523D02*
X194564000Y-136464523D01*
X194854285Y-135557380D01*
X195144571Y-136464523D01*
X195507428Y-135194523D01*
X196886285Y-136464523D02*
X196015428Y-136464523D01*
X196450857Y-136464523D02*
X196450857Y-135194523D01*
X196305714Y-135375952D01*
X196160571Y-135496904D01*
X196015428Y-135557380D01*
X198192571Y-135194523D02*
X197902285Y-135194523D01*
X197757142Y-135255000D01*
X197684571Y-135315476D01*
X197539428Y-135496904D01*
X197466857Y-135738809D01*
X197466857Y-136222619D01*
X197539428Y-136343571D01*
X197612000Y-136404047D01*
X197757142Y-136464523D01*
X198047428Y-136464523D01*
X198192571Y-136404047D01*
X198265142Y-136343571D01*
X198337714Y-136222619D01*
X198337714Y-135920238D01*
X198265142Y-135799285D01*
X198192571Y-135738809D01*
X198047428Y-135678333D01*
X197757142Y-135678333D01*
X197612000Y-135738809D01*
X197539428Y-135799285D01*
X197466857Y-135920238D01*
X195144571Y-150434523D02*
X195144571Y-151462619D01*
X195217142Y-151583571D01*
X195289714Y-151644047D01*
X195434857Y-151704523D01*
X195725142Y-151704523D01*
X195870285Y-151644047D01*
X195942857Y-151583571D01*
X196015428Y-151462619D01*
X196015428Y-150434523D01*
X149960285Y-174504047D02*
X150178000Y-174564523D01*
X150540857Y-174564523D01*
X150686000Y-174504047D01*
X150758571Y-174443571D01*
X150831142Y-174322619D01*
X150831142Y-174201666D01*
X150758571Y-174080714D01*
X150686000Y-174020238D01*
X150540857Y-173959761D01*
X150250571Y-173899285D01*
X150105428Y-173838809D01*
X150032857Y-173778333D01*
X149960285Y-173657380D01*
X149960285Y-173536428D01*
X150032857Y-173415476D01*
X150105428Y-173355000D01*
X150250571Y-173294523D01*
X150613428Y-173294523D01*
X150831142Y-173355000D01*
X151339142Y-173294523D02*
X151702000Y-174564523D01*
X151992285Y-173657380D01*
X152282571Y-174564523D01*
X152645428Y-173294523D01*
X153153428Y-173415476D02*
X153226000Y-173355000D01*
X153371142Y-173294523D01*
X153734000Y-173294523D01*
X153879142Y-173355000D01*
X153951714Y-173415476D01*
X154024285Y-173536428D01*
X154024285Y-173657380D01*
X153951714Y-173838809D01*
X153080857Y-174564523D01*
X154024285Y-174564523D01*
X154532285Y-173294523D02*
X155548285Y-173294523D01*
X154895142Y-174564523D01*
X152210000Y-188534523D02*
X152718000Y-189804523D01*
X153226000Y-188534523D01*
X97572285Y-136404047D02*
X97790000Y-136464523D01*
X98152857Y-136464523D01*
X98298000Y-136404047D01*
X98370571Y-136343571D01*
X98443142Y-136222619D01*
X98443142Y-136101666D01*
X98370571Y-135980714D01*
X98298000Y-135920238D01*
X98152857Y-135859761D01*
X97862571Y-135799285D01*
X97717428Y-135738809D01*
X97644857Y-135678333D01*
X97572285Y-135557380D01*
X97572285Y-135436428D01*
X97644857Y-135315476D01*
X97717428Y-135255000D01*
X97862571Y-135194523D01*
X98225428Y-135194523D01*
X98443142Y-135255000D01*
X98951142Y-135194523D02*
X99314000Y-136464523D01*
X99604285Y-135557380D01*
X99894571Y-136464523D01*
X100257428Y-135194523D01*
X100692857Y-135194523D02*
X101636285Y-135194523D01*
X101128285Y-135678333D01*
X101346000Y-135678333D01*
X101491142Y-135738809D01*
X101563714Y-135799285D01*
X101636285Y-135920238D01*
X101636285Y-136222619D01*
X101563714Y-136343571D01*
X101491142Y-136404047D01*
X101346000Y-136464523D01*
X100910571Y-136464523D01*
X100765428Y-136404047D01*
X100692857Y-136343571D01*
X102507142Y-135738809D02*
X102362000Y-135678333D01*
X102289428Y-135617857D01*
X102216857Y-135496904D01*
X102216857Y-135436428D01*
X102289428Y-135315476D01*
X102362000Y-135255000D01*
X102507142Y-135194523D01*
X102797428Y-135194523D01*
X102942571Y-135255000D01*
X103015142Y-135315476D01*
X103087714Y-135436428D01*
X103087714Y-135496904D01*
X103015142Y-135617857D01*
X102942571Y-135678333D01*
X102797428Y-135738809D01*
X102507142Y-135738809D01*
X102362000Y-135799285D01*
X102289428Y-135859761D01*
X102216857Y-135980714D01*
X102216857Y-136222619D01*
X102289428Y-136343571D01*
X102362000Y-136404047D01*
X102507142Y-136464523D01*
X102797428Y-136464523D01*
X102942571Y-136404047D01*
X103015142Y-136343571D01*
X103087714Y-136222619D01*
X103087714Y-135980714D01*
X103015142Y-135859761D01*
X102942571Y-135799285D01*
X102797428Y-135738809D01*
X99676857Y-150434523D02*
X100039714Y-151704523D01*
X100330000Y-150797380D01*
X100620285Y-151704523D01*
X100983142Y-150434523D01*
X111860285Y-174504047D02*
X112078000Y-174564523D01*
X112440857Y-174564523D01*
X112586000Y-174504047D01*
X112658571Y-174443571D01*
X112731142Y-174322619D01*
X112731142Y-174201666D01*
X112658571Y-174080714D01*
X112586000Y-174020238D01*
X112440857Y-173959761D01*
X112150571Y-173899285D01*
X112005428Y-173838809D01*
X111932857Y-173778333D01*
X111860285Y-173657380D01*
X111860285Y-173536428D01*
X111932857Y-173415476D01*
X112005428Y-173355000D01*
X112150571Y-173294523D01*
X112513428Y-173294523D01*
X112731142Y-173355000D01*
X113239142Y-173294523D02*
X113602000Y-174564523D01*
X113892285Y-173657380D01*
X114182571Y-174564523D01*
X114545428Y-173294523D01*
X115053428Y-173415476D02*
X115126000Y-173355000D01*
X115271142Y-173294523D01*
X115634000Y-173294523D01*
X115779142Y-173355000D01*
X115851714Y-173415476D01*
X115924285Y-173536428D01*
X115924285Y-173657380D01*
X115851714Y-173838809D01*
X114980857Y-174564523D01*
X115924285Y-174564523D01*
X117303142Y-173294523D02*
X116577428Y-173294523D01*
X116504857Y-173899285D01*
X116577428Y-173838809D01*
X116722571Y-173778333D01*
X117085428Y-173778333D01*
X117230571Y-173838809D01*
X117303142Y-173899285D01*
X117375714Y-174020238D01*
X117375714Y-174322619D01*
X117303142Y-174443571D01*
X117230571Y-174504047D01*
X117085428Y-174564523D01*
X116722571Y-174564523D01*
X116577428Y-174504047D01*
X116504857Y-174443571D01*
X114110000Y-188534523D02*
X115126000Y-189804523D01*
X115126000Y-188534523D02*
X114110000Y-189804523D01*
X173772285Y-136404047D02*
X173990000Y-136464523D01*
X174352857Y-136464523D01*
X174498000Y-136404047D01*
X174570571Y-136343571D01*
X174643142Y-136222619D01*
X174643142Y-136101666D01*
X174570571Y-135980714D01*
X174498000Y-135920238D01*
X174352857Y-135859761D01*
X174062571Y-135799285D01*
X173917428Y-135738809D01*
X173844857Y-135678333D01*
X173772285Y-135557380D01*
X173772285Y-135436428D01*
X173844857Y-135315476D01*
X173917428Y-135255000D01*
X174062571Y-135194523D01*
X174425428Y-135194523D01*
X174643142Y-135255000D01*
X175151142Y-135194523D02*
X175514000Y-136464523D01*
X175804285Y-135557380D01*
X176094571Y-136464523D01*
X176457428Y-135194523D01*
X177836285Y-136464523D02*
X176965428Y-136464523D01*
X177400857Y-136464523D02*
X177400857Y-135194523D01*
X177255714Y-135375952D01*
X177110571Y-135496904D01*
X176965428Y-135557380D01*
X178344285Y-135194523D02*
X179360285Y-135194523D01*
X178707142Y-136464523D01*
X176530000Y-151099761D02*
X176530000Y-151704523D01*
X176022000Y-150434523D02*
X176530000Y-151099761D01*
X177038000Y-150434523D01*
X92809785Y-174504047D02*
X93027500Y-174564523D01*
X93390357Y-174564523D01*
X93535500Y-174504047D01*
X93608071Y-174443571D01*
X93680642Y-174322619D01*
X93680642Y-174201666D01*
X93608071Y-174080714D01*
X93535500Y-174020238D01*
X93390357Y-173959761D01*
X93100071Y-173899285D01*
X92954928Y-173838809D01*
X92882357Y-173778333D01*
X92809785Y-173657380D01*
X92809785Y-173536428D01*
X92882357Y-173415476D01*
X92954928Y-173355000D01*
X93100071Y-173294523D01*
X93462928Y-173294523D01*
X93680642Y-173355000D01*
X94188642Y-173294523D02*
X94551500Y-174564523D01*
X94841785Y-173657380D01*
X95132071Y-174564523D01*
X95494928Y-173294523D01*
X96002928Y-173415476D02*
X96075500Y-173355000D01*
X96220642Y-173294523D01*
X96583500Y-173294523D01*
X96728642Y-173355000D01*
X96801214Y-173415476D01*
X96873785Y-173536428D01*
X96873785Y-173657380D01*
X96801214Y-173838809D01*
X95930357Y-174564523D01*
X96873785Y-174564523D01*
X98180071Y-173717857D02*
X98180071Y-174564523D01*
X97817214Y-173234047D02*
X97454357Y-174141190D01*
X98397785Y-174141190D01*
X95059500Y-188534523D02*
X96075500Y-188534523D01*
X95059500Y-189804523D01*
X96075500Y-189804523D01*
X62012235Y-174504047D02*
X62229950Y-174564523D01*
X62592807Y-174564523D01*
X62737950Y-174504047D01*
X62810521Y-174443571D01*
X62883092Y-174322619D01*
X62883092Y-174201666D01*
X62810521Y-174080714D01*
X62737950Y-174020238D01*
X62592807Y-173959761D01*
X62302521Y-173899285D01*
X62157378Y-173838809D01*
X62084807Y-173778333D01*
X62012235Y-173657380D01*
X62012235Y-173536428D01*
X62084807Y-173415476D01*
X62157378Y-173355000D01*
X62302521Y-173294523D01*
X62665378Y-173294523D01*
X62883092Y-173355000D01*
X63391092Y-173294523D02*
X63753950Y-174564523D01*
X64044235Y-173657380D01*
X64334521Y-174564523D01*
X64697378Y-173294523D01*
X65132807Y-173294523D02*
X66076235Y-173294523D01*
X65568235Y-173778333D01*
X65785950Y-173778333D01*
X65931092Y-173838809D01*
X66003664Y-173899285D01*
X66076235Y-174020238D01*
X66076235Y-174322619D01*
X66003664Y-174443571D01*
X65931092Y-174504047D01*
X65785950Y-174564523D01*
X65350521Y-174564523D01*
X65205378Y-174504047D01*
X65132807Y-174443571D01*
X67382521Y-173294523D02*
X67092235Y-173294523D01*
X66947092Y-173355000D01*
X66874521Y-173415476D01*
X66729378Y-173596904D01*
X66656807Y-173838809D01*
X66656807Y-174322619D01*
X66729378Y-174443571D01*
X66801950Y-174504047D01*
X66947092Y-174564523D01*
X67237378Y-174564523D01*
X67382521Y-174504047D01*
X67455092Y-174443571D01*
X67527664Y-174322619D01*
X67527664Y-174020238D01*
X67455092Y-173899285D01*
X67382521Y-173838809D01*
X67237378Y-173778333D01*
X66947092Y-173778333D01*
X66801950Y-173838809D01*
X66729378Y-173899285D01*
X66656807Y-174020238D01*
X61939664Y-189744047D02*
X62157378Y-189804523D01*
X62520235Y-189804523D01*
X62665378Y-189744047D01*
X62737950Y-189683571D01*
X62810521Y-189562619D01*
X62810521Y-189441666D01*
X62737950Y-189320714D01*
X62665378Y-189260238D01*
X62520235Y-189199761D01*
X62229950Y-189139285D01*
X62084807Y-189078809D01*
X62012235Y-189018333D01*
X61939664Y-188897380D01*
X61939664Y-188776428D01*
X62012235Y-188655476D01*
X62084807Y-188595000D01*
X62229950Y-188534523D01*
X62592807Y-188534523D01*
X62810521Y-188595000D01*
X63463664Y-189804523D02*
X63463664Y-188534523D01*
X63463664Y-189139285D02*
X64334521Y-189139285D01*
X64334521Y-189804523D02*
X64334521Y-188534523D01*
X65060235Y-189804523D02*
X65060235Y-188534523D01*
X66293950Y-189139285D02*
X65785950Y-189139285D01*
X65785950Y-189804523D02*
X65785950Y-188534523D01*
X66511664Y-188534523D01*
X66874521Y-188534523D02*
X67745378Y-188534523D01*
X67309950Y-189804523D02*
X67309950Y-188534523D01*
D10*
X57930476Y-170898761D02*
X58073333Y-170946380D01*
X58311428Y-170946380D01*
X58406666Y-170898761D01*
X58454285Y-170851142D01*
X58501904Y-170755904D01*
X58501904Y-170660666D01*
X58454285Y-170565428D01*
X58406666Y-170517809D01*
X58311428Y-170470190D01*
X58120952Y-170422571D01*
X58025714Y-170374952D01*
X57978095Y-170327333D01*
X57930476Y-170232095D01*
X57930476Y-170136857D01*
X57978095Y-170041619D01*
X58025714Y-169994000D01*
X58120952Y-169946380D01*
X58359047Y-169946380D01*
X58501904Y-169994000D01*
X58835238Y-169946380D02*
X59073333Y-170946380D01*
X59263809Y-170232095D01*
X59454285Y-170946380D01*
X59692380Y-169946380D01*
X60025714Y-170041619D02*
X60073333Y-169994000D01*
X60168571Y-169946380D01*
X60406666Y-169946380D01*
X60501904Y-169994000D01*
X60549523Y-170041619D01*
X60597142Y-170136857D01*
X60597142Y-170232095D01*
X60549523Y-170374952D01*
X59978095Y-170946380D01*
X60597142Y-170946380D01*
X61073333Y-170946380D02*
X61263809Y-170946380D01*
X61359047Y-170898761D01*
X61406666Y-170851142D01*
X61501904Y-170708285D01*
X61549523Y-170517809D01*
X61549523Y-170136857D01*
X61501904Y-170041619D01*
X61454285Y-169994000D01*
X61359047Y-169946380D01*
X61168571Y-169946380D01*
X61073333Y-169994000D01*
X61025714Y-170041619D01*
X60978095Y-170136857D01*
X60978095Y-170374952D01*
X61025714Y-170470190D01*
X61073333Y-170517809D01*
X61168571Y-170565428D01*
X61359047Y-170565428D01*
X61454285Y-170517809D01*
X61501904Y-170470190D01*
X61549523Y-170374952D01*
X58525714Y-155198380D02*
X58049523Y-155198380D01*
X58049523Y-154198380D01*
X59049523Y-154198380D02*
X59240000Y-154198380D01*
X59335238Y-154246000D01*
X59430476Y-154341238D01*
X59478095Y-154531714D01*
X59478095Y-154865047D01*
X59430476Y-155055523D01*
X59335238Y-155150761D01*
X59240000Y-155198380D01*
X59049523Y-155198380D01*
X58954285Y-155150761D01*
X58859047Y-155055523D01*
X58811428Y-154865047D01*
X58811428Y-154531714D01*
X58859047Y-154341238D01*
X58954285Y-154246000D01*
X59049523Y-154198380D01*
X60478095Y-155103142D02*
X60430476Y-155150761D01*
X60287619Y-155198380D01*
X60192380Y-155198380D01*
X60049523Y-155150761D01*
X59954285Y-155055523D01*
X59906666Y-154960285D01*
X59859047Y-154769809D01*
X59859047Y-154626952D01*
X59906666Y-154436476D01*
X59954285Y-154341238D01*
X60049523Y-154246000D01*
X60192380Y-154198380D01*
X60287619Y-154198380D01*
X60430476Y-154246000D01*
X60478095Y-154293619D01*
X60906666Y-155198380D02*
X60906666Y-154198380D01*
X61478095Y-155198380D02*
X61049523Y-154626952D01*
X61478095Y-154198380D02*
X60906666Y-154769809D01*
D11*
X171550035Y-193554047D02*
X171767750Y-193614523D01*
X172130607Y-193614523D01*
X172275750Y-193554047D01*
X172348321Y-193493571D01*
X172420892Y-193372619D01*
X172420892Y-193251666D01*
X172348321Y-193130714D01*
X172275750Y-193070238D01*
X172130607Y-193009761D01*
X171840321Y-192949285D01*
X171695178Y-192888809D01*
X171622607Y-192828333D01*
X171550035Y-192707380D01*
X171550035Y-192586428D01*
X171622607Y-192465476D01*
X171695178Y-192405000D01*
X171840321Y-192344523D01*
X172203178Y-192344523D01*
X172420892Y-192405000D01*
X172928892Y-192344523D02*
X173291750Y-193614523D01*
X173582035Y-192707380D01*
X173872321Y-193614523D01*
X174235178Y-192344523D01*
X175614035Y-193614523D02*
X174743178Y-193614523D01*
X175178607Y-193614523D02*
X175178607Y-192344523D01*
X175033464Y-192525952D01*
X174888321Y-192646904D01*
X174743178Y-192707380D01*
X176194607Y-192465476D02*
X176267178Y-192405000D01*
X176412321Y-192344523D01*
X176775178Y-192344523D01*
X176920321Y-192405000D01*
X176992892Y-192465476D01*
X177065464Y-192586428D01*
X177065464Y-192707380D01*
X176992892Y-192888809D01*
X176122035Y-193614523D01*
X177065464Y-193614523D01*
X170688250Y-208794047D02*
X170905964Y-208854523D01*
X171268821Y-208854523D01*
X171413964Y-208794047D01*
X171486535Y-208733571D01*
X171559107Y-208612619D01*
X171559107Y-208491666D01*
X171486535Y-208370714D01*
X171413964Y-208310238D01*
X171268821Y-208249761D01*
X170978535Y-208189285D01*
X170833392Y-208128809D01*
X170760821Y-208068333D01*
X170688250Y-207947380D01*
X170688250Y-207826428D01*
X170760821Y-207705476D01*
X170833392Y-207645000D01*
X170978535Y-207584523D01*
X171341392Y-207584523D01*
X171559107Y-207645000D01*
X172212250Y-208854523D02*
X172212250Y-207584523D01*
X172792821Y-207584523D01*
X172937964Y-207645000D01*
X173010535Y-207705476D01*
X173083107Y-207826428D01*
X173083107Y-208007857D01*
X173010535Y-208128809D01*
X172937964Y-208189285D01*
X172792821Y-208249761D01*
X172212250Y-208249761D01*
X173663678Y-208491666D02*
X174389392Y-208491666D01*
X173518535Y-208854523D02*
X174026535Y-207584523D01*
X174534535Y-208854523D01*
X175913392Y-208733571D02*
X175840821Y-208794047D01*
X175623107Y-208854523D01*
X175477964Y-208854523D01*
X175260250Y-208794047D01*
X175115107Y-208673095D01*
X175042535Y-208552142D01*
X174969964Y-208310238D01*
X174969964Y-208128809D01*
X175042535Y-207886904D01*
X175115107Y-207765952D01*
X175260250Y-207645000D01*
X175477964Y-207584523D01*
X175623107Y-207584523D01*
X175840821Y-207645000D01*
X175913392Y-207705476D01*
X176566535Y-208189285D02*
X177074535Y-208189285D01*
X177292250Y-208854523D02*
X176566535Y-208854523D01*
X176566535Y-207584523D01*
X177292250Y-207584523D01*
D10*
X100790476Y-193330761D02*
X100933333Y-193378380D01*
X101171428Y-193378380D01*
X101266666Y-193330761D01*
X101314285Y-193283142D01*
X101361904Y-193187904D01*
X101361904Y-193092666D01*
X101314285Y-192997428D01*
X101266666Y-192949809D01*
X101171428Y-192902190D01*
X100980952Y-192854571D01*
X100885714Y-192806952D01*
X100838095Y-192759333D01*
X100790476Y-192664095D01*
X100790476Y-192568857D01*
X100838095Y-192473619D01*
X100885714Y-192426000D01*
X100980952Y-192378380D01*
X101219047Y-192378380D01*
X101361904Y-192426000D01*
X101695238Y-192378380D02*
X101933333Y-193378380D01*
X102123809Y-192664095D01*
X102314285Y-193378380D01*
X102552380Y-192378380D01*
X103361904Y-192711714D02*
X103361904Y-193378380D01*
X103123809Y-192330761D02*
X102885714Y-193045047D01*
X103504761Y-193045047D01*
X103838095Y-192473619D02*
X103885714Y-192426000D01*
X103980952Y-192378380D01*
X104219047Y-192378380D01*
X104314285Y-192426000D01*
X104361904Y-192473619D01*
X104409523Y-192568857D01*
X104409523Y-192664095D01*
X104361904Y-192806952D01*
X103790476Y-193378380D01*
X104409523Y-193378380D01*
X101623809Y-209031142D02*
X101576190Y-209078761D01*
X101433333Y-209126380D01*
X101338095Y-209126380D01*
X101195238Y-209078761D01*
X101100000Y-208983523D01*
X101052380Y-208888285D01*
X101004761Y-208697809D01*
X101004761Y-208554952D01*
X101052380Y-208364476D01*
X101100000Y-208269238D01*
X101195238Y-208174000D01*
X101338095Y-208126380D01*
X101433333Y-208126380D01*
X101576190Y-208174000D01*
X101623809Y-208221619D01*
X101909523Y-208126380D02*
X102480952Y-208126380D01*
X102195238Y-209126380D02*
X102195238Y-208126380D01*
X103385714Y-209126380D02*
X103052380Y-208650190D01*
X102814285Y-209126380D02*
X102814285Y-208126380D01*
X103195238Y-208126380D01*
X103290476Y-208174000D01*
X103338095Y-208221619D01*
X103385714Y-208316857D01*
X103385714Y-208459714D01*
X103338095Y-208554952D01*
X103290476Y-208602571D01*
X103195238Y-208650190D01*
X102814285Y-208650190D01*
X104290476Y-209126380D02*
X103814285Y-209126380D01*
X103814285Y-208126380D01*
D11*
X280901035Y-174377047D02*
X281118750Y-174437523D01*
X281481607Y-174437523D01*
X281626750Y-174377047D01*
X281699321Y-174316571D01*
X281771892Y-174195619D01*
X281771892Y-174074666D01*
X281699321Y-173953714D01*
X281626750Y-173893238D01*
X281481607Y-173832761D01*
X281191321Y-173772285D01*
X281046178Y-173711809D01*
X280973607Y-173651333D01*
X280901035Y-173530380D01*
X280901035Y-173409428D01*
X280973607Y-173288476D01*
X281046178Y-173228000D01*
X281191321Y-173167523D01*
X281554178Y-173167523D01*
X281771892Y-173228000D01*
X282279892Y-173167523D02*
X282642750Y-174437523D01*
X282933035Y-173530380D01*
X283223321Y-174437523D01*
X283586178Y-173167523D01*
X284021607Y-173167523D02*
X284965035Y-173167523D01*
X284457035Y-173651333D01*
X284674750Y-173651333D01*
X284819892Y-173711809D01*
X284892464Y-173772285D01*
X284965035Y-173893238D01*
X284965035Y-174195619D01*
X284892464Y-174316571D01*
X284819892Y-174377047D01*
X284674750Y-174437523D01*
X284239321Y-174437523D01*
X284094178Y-174377047D01*
X284021607Y-174316571D01*
X286343892Y-173167523D02*
X285618178Y-173167523D01*
X285545607Y-173772285D01*
X285618178Y-173711809D01*
X285763321Y-173651333D01*
X286126178Y-173651333D01*
X286271321Y-173711809D01*
X286343892Y-173772285D01*
X286416464Y-173893238D01*
X286416464Y-174195619D01*
X286343892Y-174316571D01*
X286271321Y-174377047D01*
X286126178Y-174437523D01*
X285763321Y-174437523D01*
X285618178Y-174377047D01*
X285545607Y-174316571D01*
X280510964Y-189617047D02*
X280728678Y-189677523D01*
X281091535Y-189677523D01*
X281236678Y-189617047D01*
X281309250Y-189556571D01*
X281381821Y-189435619D01*
X281381821Y-189314666D01*
X281309250Y-189193714D01*
X281236678Y-189133238D01*
X281091535Y-189072761D01*
X280801250Y-189012285D01*
X280656107Y-188951809D01*
X280583535Y-188891333D01*
X280510964Y-188770380D01*
X280510964Y-188649428D01*
X280583535Y-188528476D01*
X280656107Y-188468000D01*
X280801250Y-188407523D01*
X281164107Y-188407523D01*
X281381821Y-188468000D01*
X282034964Y-189677523D02*
X282034964Y-188407523D01*
X282034964Y-189012285D02*
X282905821Y-189012285D01*
X282905821Y-189677523D02*
X282905821Y-188407523D01*
X283631535Y-189677523D02*
X283631535Y-188407523D01*
X284865250Y-189012285D02*
X284357250Y-189012285D01*
X284357250Y-189677523D02*
X284357250Y-188407523D01*
X285082964Y-188407523D01*
X285445821Y-188407523D02*
X286316678Y-188407523D01*
X285881250Y-189677523D02*
X285881250Y-188407523D01*
X285383535Y-155454047D02*
X285601250Y-155514523D01*
X285964107Y-155514523D01*
X286109250Y-155454047D01*
X286181821Y-155393571D01*
X286254392Y-155272619D01*
X286254392Y-155151666D01*
X286181821Y-155030714D01*
X286109250Y-154970238D01*
X285964107Y-154909761D01*
X285673821Y-154849285D01*
X285528678Y-154788809D01*
X285456107Y-154728333D01*
X285383535Y-154607380D01*
X285383535Y-154486428D01*
X285456107Y-154365476D01*
X285528678Y-154305000D01*
X285673821Y-154244523D01*
X286036678Y-154244523D01*
X286254392Y-154305000D01*
X286762392Y-154244523D02*
X287125250Y-155514523D01*
X287415535Y-154607380D01*
X287705821Y-155514523D01*
X288068678Y-154244523D01*
X289447535Y-155514523D02*
X288576678Y-155514523D01*
X289012107Y-155514523D02*
X289012107Y-154244523D01*
X288866964Y-154425952D01*
X288721821Y-154546904D01*
X288576678Y-154607380D01*
X290318392Y-154788809D02*
X290173250Y-154728333D01*
X290100678Y-154667857D01*
X290028107Y-154546904D01*
X290028107Y-154486428D01*
X290100678Y-154365476D01*
X290173250Y-154305000D01*
X290318392Y-154244523D01*
X290608678Y-154244523D01*
X290753821Y-154305000D01*
X290826392Y-154365476D01*
X290898964Y-154486428D01*
X290898964Y-154546904D01*
X290826392Y-154667857D01*
X290753821Y-154728333D01*
X290608678Y-154788809D01*
X290318392Y-154788809D01*
X290173250Y-154849285D01*
X290100678Y-154909761D01*
X290028107Y-155030714D01*
X290028107Y-155272619D01*
X290100678Y-155393571D01*
X290173250Y-155454047D01*
X290318392Y-155514523D01*
X290608678Y-155514523D01*
X290753821Y-155454047D01*
X290826392Y-155393571D01*
X290898964Y-155272619D01*
X290898964Y-155030714D01*
X290826392Y-154909761D01*
X290753821Y-154849285D01*
X290608678Y-154788809D01*
X284984392Y-170089285D02*
X285492392Y-170089285D01*
X285710107Y-170754523D02*
X284984392Y-170754523D01*
X284984392Y-169484523D01*
X285710107Y-169484523D01*
X286363250Y-170754523D02*
X286363250Y-169484523D01*
X287234107Y-170754523D01*
X287234107Y-169484523D01*
X287742107Y-169484523D02*
X288612964Y-169484523D01*
X288177535Y-170754523D02*
X288177535Y-169484523D01*
X289120964Y-170089285D02*
X289628964Y-170089285D01*
X289846678Y-170754523D02*
X289120964Y-170754523D01*
X289120964Y-169484523D01*
X289846678Y-169484523D01*
X291370678Y-170754523D02*
X290862678Y-170149761D01*
X290499821Y-170754523D02*
X290499821Y-169484523D01*
X291080392Y-169484523D01*
X291225535Y-169545000D01*
X291298107Y-169605476D01*
X291370678Y-169726428D01*
X291370678Y-169907857D01*
X291298107Y-170028809D01*
X291225535Y-170089285D01*
X291080392Y-170149761D01*
X290499821Y-170149761D01*
D10*
X117057380Y-108433333D02*
X117771666Y-108433333D01*
X117914523Y-108480952D01*
X118009761Y-108576190D01*
X118057380Y-108719047D01*
X118057380Y-108814285D01*
X118057380Y-107433333D02*
X118057380Y-108004761D01*
X118057380Y-107719047D02*
X117057380Y-107719047D01*
X117200238Y-107814285D01*
X117295476Y-107909523D01*
X117343095Y-108004761D01*
X41633333Y-121322380D02*
X41300000Y-120846190D01*
X41061904Y-121322380D02*
X41061904Y-120322380D01*
X41442857Y-120322380D01*
X41538095Y-120370000D01*
X41585714Y-120417619D01*
X41633333Y-120512857D01*
X41633333Y-120655714D01*
X41585714Y-120750952D01*
X41538095Y-120798571D01*
X41442857Y-120846190D01*
X41061904Y-120846190D01*
X41966666Y-120322380D02*
X42585714Y-120322380D01*
X42252380Y-120703333D01*
X42395238Y-120703333D01*
X42490476Y-120750952D01*
X42538095Y-120798571D01*
X42585714Y-120893809D01*
X42585714Y-121131904D01*
X42538095Y-121227142D01*
X42490476Y-121274761D01*
X42395238Y-121322380D01*
X42109523Y-121322380D01*
X42014285Y-121274761D01*
X41966666Y-121227142D01*
X41014285Y-116582380D02*
X40442857Y-116582380D01*
X40728571Y-116582380D02*
X40728571Y-115582380D01*
X40633333Y-115725238D01*
X40538095Y-115820476D01*
X40442857Y-115868095D01*
X41442857Y-116582380D02*
X41442857Y-115582380D01*
X42014285Y-116582380D02*
X41585714Y-116010952D01*
X42014285Y-115582380D02*
X41442857Y-116153809D01*
X42395238Y-116582380D02*
X42633333Y-116582380D01*
X42633333Y-116391904D01*
X42538095Y-116344285D01*
X42442857Y-116249047D01*
X42395238Y-116106190D01*
X42395238Y-115868095D01*
X42442857Y-115725238D01*
X42538095Y-115630000D01*
X42680952Y-115582380D01*
X42871428Y-115582380D01*
X43014285Y-115630000D01*
X43109523Y-115725238D01*
X43157142Y-115868095D01*
X43157142Y-116106190D01*
X43109523Y-116249047D01*
X43014285Y-116344285D01*
X42919047Y-116391904D01*
X42919047Y-116582380D01*
X43157142Y-116582380D01*
X44748095Y-121022380D02*
X44748095Y-121831904D01*
X44795714Y-121927142D01*
X44843333Y-121974761D01*
X44938571Y-122022380D01*
X45129047Y-122022380D01*
X45224285Y-121974761D01*
X45271904Y-121927142D01*
X45319523Y-121831904D01*
X45319523Y-121022380D01*
X46319523Y-122022380D02*
X45748095Y-122022380D01*
X46033809Y-122022380D02*
X46033809Y-121022380D01*
X45938571Y-121165238D01*
X45843333Y-121260476D01*
X45748095Y-121308095D01*
X62661904Y-158252380D02*
X62661904Y-157252380D01*
X62900000Y-157252380D01*
X63042857Y-157300000D01*
X63138095Y-157395238D01*
X63185714Y-157490476D01*
X63233333Y-157680952D01*
X63233333Y-157823809D01*
X63185714Y-158014285D01*
X63138095Y-158109523D01*
X63042857Y-158204761D01*
X62900000Y-158252380D01*
X62661904Y-158252380D01*
X64185714Y-158252380D02*
X63614285Y-158252380D01*
X63900000Y-158252380D02*
X63900000Y-157252380D01*
X63804761Y-157395238D01*
X63709523Y-157490476D01*
X63614285Y-157538095D01*
X48342857Y-157866666D02*
X48819047Y-157866666D01*
X48247619Y-158152380D02*
X48580952Y-157152380D01*
X48914285Y-158152380D01*
X49390476Y-158152380D02*
X49295238Y-158104761D01*
X49247619Y-158009523D01*
X49247619Y-157152380D01*
X49771428Y-157485714D02*
X49771428Y-158485714D01*
X49771428Y-157533333D02*
X49866666Y-157485714D01*
X50057142Y-157485714D01*
X50152380Y-157533333D01*
X50200000Y-157580952D01*
X50247619Y-157676190D01*
X50247619Y-157961904D01*
X50200000Y-158057142D01*
X50152380Y-158104761D01*
X50057142Y-158152380D01*
X49866666Y-158152380D01*
X49771428Y-158104761D01*
X50676190Y-158152380D02*
X50676190Y-157152380D01*
X51104761Y-158152380D02*
X51104761Y-157628571D01*
X51057142Y-157533333D01*
X50961904Y-157485714D01*
X50819047Y-157485714D01*
X50723809Y-157533333D01*
X50676190Y-157580952D01*
X52009523Y-158152380D02*
X52009523Y-157628571D01*
X51961904Y-157533333D01*
X51866666Y-157485714D01*
X51676190Y-157485714D01*
X51580952Y-157533333D01*
X52009523Y-158104761D02*
X51914285Y-158152380D01*
X51676190Y-158152380D01*
X51580952Y-158104761D01*
X51533333Y-158009523D01*
X51533333Y-157914285D01*
X51580952Y-157819047D01*
X51676190Y-157771428D01*
X51914285Y-157771428D01*
X52009523Y-157723809D01*
X44333333Y-141657142D02*
X44285714Y-141704761D01*
X44142857Y-141752380D01*
X44047619Y-141752380D01*
X43904761Y-141704761D01*
X43809523Y-141609523D01*
X43761904Y-141514285D01*
X43714285Y-141323809D01*
X43714285Y-141180952D01*
X43761904Y-140990476D01*
X43809523Y-140895238D01*
X43904761Y-140800000D01*
X44047619Y-140752380D01*
X44142857Y-140752380D01*
X44285714Y-140800000D01*
X44333333Y-140847619D01*
X45285714Y-141752380D02*
X44714285Y-141752380D01*
X45000000Y-141752380D02*
X45000000Y-140752380D01*
X44904761Y-140895238D01*
X44809523Y-140990476D01*
X44714285Y-141038095D01*
X140333333Y-110922380D02*
X140000000Y-110446190D01*
X139761904Y-110922380D02*
X139761904Y-109922380D01*
X140142857Y-109922380D01*
X140238095Y-109970000D01*
X140285714Y-110017619D01*
X140333333Y-110112857D01*
X140333333Y-110255714D01*
X140285714Y-110350952D01*
X140238095Y-110398571D01*
X140142857Y-110446190D01*
X139761904Y-110446190D01*
X140714285Y-110017619D02*
X140761904Y-109970000D01*
X140857142Y-109922380D01*
X141095238Y-109922380D01*
X141190476Y-109970000D01*
X141238095Y-110017619D01*
X141285714Y-110112857D01*
X141285714Y-110208095D01*
X141238095Y-110350952D01*
X140666666Y-110922380D01*
X141285714Y-110922380D01*
X139166666Y-105515714D02*
X139166666Y-106182380D01*
X138928571Y-105134761D02*
X138690476Y-105849047D01*
X139309523Y-105849047D01*
X139595238Y-105182380D02*
X140261904Y-105182380D01*
X139833333Y-106182380D01*
X140833333Y-105182380D02*
X140928571Y-105182380D01*
X141023809Y-105230000D01*
X141071428Y-105277619D01*
X141119047Y-105372857D01*
X141166666Y-105563333D01*
X141166666Y-105801428D01*
X141119047Y-105991904D01*
X141071428Y-106087142D01*
X141023809Y-106134761D01*
X140928571Y-106182380D01*
X140833333Y-106182380D01*
X140738095Y-106134761D01*
X140690476Y-106087142D01*
X140642857Y-105991904D01*
X140595238Y-105801428D01*
X140595238Y-105563333D01*
X140642857Y-105372857D01*
X140690476Y-105277619D01*
X140738095Y-105230000D01*
X140833333Y-105182380D01*
X141547619Y-106182380D02*
X141785714Y-106182380D01*
X141785714Y-105991904D01*
X141690476Y-105944285D01*
X141595238Y-105849047D01*
X141547619Y-105706190D01*
X141547619Y-105468095D01*
X141595238Y-105325238D01*
X141690476Y-105230000D01*
X141833333Y-105182380D01*
X142023809Y-105182380D01*
X142166666Y-105230000D01*
X142261904Y-105325238D01*
X142309523Y-105468095D01*
X142309523Y-105706190D01*
X142261904Y-105849047D01*
X142166666Y-105944285D01*
X142071428Y-105991904D01*
X142071428Y-106182380D01*
X142309523Y-106182380D01*
X157456904Y-105592380D02*
X157456904Y-104592380D01*
X157695000Y-104592380D01*
X157837857Y-104640000D01*
X157933095Y-104735238D01*
X157980714Y-104830476D01*
X158028333Y-105020952D01*
X158028333Y-105163809D01*
X157980714Y-105354285D01*
X157933095Y-105449523D01*
X157837857Y-105544761D01*
X157695000Y-105592380D01*
X157456904Y-105592380D01*
X158409285Y-104687619D02*
X158456904Y-104640000D01*
X158552142Y-104592380D01*
X158790238Y-104592380D01*
X158885476Y-104640000D01*
X158933095Y-104687619D01*
X158980714Y-104782857D01*
X158980714Y-104878095D01*
X158933095Y-105020952D01*
X158361666Y-105592380D01*
X158980714Y-105592380D01*
X156218809Y-111512380D02*
X156218809Y-110512380D01*
X156599761Y-110512380D01*
X156695000Y-110560000D01*
X156742619Y-110607619D01*
X156790238Y-110702857D01*
X156790238Y-110845714D01*
X156742619Y-110940952D01*
X156695000Y-110988571D01*
X156599761Y-111036190D01*
X156218809Y-111036190D01*
X157361666Y-111512380D02*
X157266428Y-111464761D01*
X157218809Y-111417142D01*
X157171190Y-111321904D01*
X157171190Y-111036190D01*
X157218809Y-110940952D01*
X157266428Y-110893333D01*
X157361666Y-110845714D01*
X157504523Y-110845714D01*
X157599761Y-110893333D01*
X157647380Y-110940952D01*
X157695000Y-111036190D01*
X157695000Y-111321904D01*
X157647380Y-111417142D01*
X157599761Y-111464761D01*
X157504523Y-111512380D01*
X157361666Y-111512380D01*
X158028333Y-110845714D02*
X158218809Y-111512380D01*
X158409285Y-111036190D01*
X158599761Y-111512380D01*
X158790238Y-110845714D01*
X159552142Y-111464761D02*
X159456904Y-111512380D01*
X159266428Y-111512380D01*
X159171190Y-111464761D01*
X159123571Y-111369523D01*
X159123571Y-110988571D01*
X159171190Y-110893333D01*
X159266428Y-110845714D01*
X159456904Y-110845714D01*
X159552142Y-110893333D01*
X159599761Y-110988571D01*
X159599761Y-111083809D01*
X159123571Y-111179047D01*
X160028333Y-111512380D02*
X160028333Y-110845714D01*
X160028333Y-111036190D02*
X160075952Y-110940952D01*
X160123571Y-110893333D01*
X160218809Y-110845714D01*
X160314047Y-110845714D01*
X43833333Y-152522380D02*
X43500000Y-152046190D01*
X43261904Y-152522380D02*
X43261904Y-151522380D01*
X43642857Y-151522380D01*
X43738095Y-151570000D01*
X43785714Y-151617619D01*
X43833333Y-151712857D01*
X43833333Y-151855714D01*
X43785714Y-151950952D01*
X43738095Y-151998571D01*
X43642857Y-152046190D01*
X43261904Y-152046190D01*
X44785714Y-152522380D02*
X44214285Y-152522380D01*
X44500000Y-152522380D02*
X44500000Y-151522380D01*
X44404761Y-151665238D01*
X44309523Y-151760476D01*
X44214285Y-151808095D01*
X42666666Y-147115714D02*
X42666666Y-147782380D01*
X42428571Y-146734761D02*
X42190476Y-147449047D01*
X42809523Y-147449047D01*
X43095238Y-146782380D02*
X43761904Y-146782380D01*
X43333333Y-147782380D01*
X44333333Y-146782380D02*
X44428571Y-146782380D01*
X44523809Y-146830000D01*
X44571428Y-146877619D01*
X44619047Y-146972857D01*
X44666666Y-147163333D01*
X44666666Y-147401428D01*
X44619047Y-147591904D01*
X44571428Y-147687142D01*
X44523809Y-147734761D01*
X44428571Y-147782380D01*
X44333333Y-147782380D01*
X44238095Y-147734761D01*
X44190476Y-147687142D01*
X44142857Y-147591904D01*
X44095238Y-147401428D01*
X44095238Y-147163333D01*
X44142857Y-146972857D01*
X44190476Y-146877619D01*
X44238095Y-146830000D01*
X44333333Y-146782380D01*
X45047619Y-147782380D02*
X45285714Y-147782380D01*
X45285714Y-147591904D01*
X45190476Y-147544285D01*
X45095238Y-147449047D01*
X45047619Y-147306190D01*
X45047619Y-147068095D01*
X45095238Y-146925238D01*
X45190476Y-146830000D01*
X45333333Y-146782380D01*
X45523809Y-146782380D01*
X45666666Y-146830000D01*
X45761904Y-146925238D01*
X45809523Y-147068095D01*
X45809523Y-147306190D01*
X45761904Y-147449047D01*
X45666666Y-147544285D01*
X45571428Y-147591904D01*
X45571428Y-147782380D01*
X45809523Y-147782380D01*
D12*
X72445000Y-199140000D02*
X54545000Y-199140000D01*
X54485000Y-196140000D02*
X54485000Y-206640000D01*
X54485000Y-206640000D02*
X72505000Y-206640000D01*
X54545000Y-202390000D02*
X54545000Y-203640000D01*
X72505000Y-196140000D02*
X54485000Y-196140000D01*
X72505000Y-206640000D02*
X72505000Y-196140000D01*
X72445000Y-203640000D02*
X72445000Y-199140000D01*
X54545000Y-199140000D02*
X54545000Y-200390000D01*
X54545000Y-203640000D02*
X72445000Y-203640000D01*
X54545000Y-202390000D02*
G75*
G03*
X54545000Y-200390000I0J1000000D01*
G01*
D13*
X249555000Y-130810000D02*
X247777000Y-130810000D01*
X249555000Y-129032000D02*
X249555000Y-130810000D01*
X236855000Y-119888000D02*
X236855000Y-118110000D01*
X236855000Y-118110000D02*
X238633000Y-118110000D01*
X236855000Y-130810000D02*
X236855000Y-129032000D01*
X247777000Y-118110000D02*
X249555000Y-118110000D01*
X249555000Y-118110000D02*
X249555000Y-119888000D01*
X238633000Y-130810000D02*
X236855000Y-130810000D01*
X78105000Y-118110000D02*
X78105000Y-119888000D01*
X78105000Y-129032000D02*
X78105000Y-130810000D01*
X76327000Y-118110000D02*
X78105000Y-118110000D01*
X67183000Y-130810000D02*
X65405000Y-130810000D01*
X65405000Y-118110000D02*
X67183000Y-118110000D01*
X65405000Y-119888000D02*
X65405000Y-118110000D01*
X65405000Y-130810000D02*
X65405000Y-129032000D01*
X78105000Y-130810000D02*
X76327000Y-130810000D01*
X95377000Y-118110000D02*
X97155000Y-118110000D01*
X84455000Y-118110000D02*
X86233000Y-118110000D01*
X97155000Y-130810000D02*
X95377000Y-130810000D01*
X97155000Y-118110000D02*
X97155000Y-119888000D01*
X84455000Y-130810000D02*
X84455000Y-129032000D01*
X86233000Y-130810000D02*
X84455000Y-130810000D01*
X97155000Y-129032000D02*
X97155000Y-130810000D01*
X84455000Y-119888000D02*
X84455000Y-118110000D01*
X114427000Y-118110000D02*
X116205000Y-118110000D01*
X103505000Y-119888000D02*
X103505000Y-118110000D01*
X103505000Y-118110000D02*
X105283000Y-118110000D01*
X116205000Y-130810000D02*
X114427000Y-130810000D01*
X116205000Y-129032000D02*
X116205000Y-130810000D01*
X116205000Y-118110000D02*
X116205000Y-119888000D01*
X103505000Y-130810000D02*
X103505000Y-129032000D01*
X105283000Y-130810000D02*
X103505000Y-130810000D01*
X122555000Y-119888000D02*
X122555000Y-118110000D01*
X122555000Y-118110000D02*
X124333000Y-118110000D01*
X135255000Y-118110000D02*
X135255000Y-119888000D01*
X124333000Y-130810000D02*
X122555000Y-130810000D01*
X122555000Y-130810000D02*
X122555000Y-129032000D01*
X135255000Y-130810000D02*
X133477000Y-130810000D01*
X135255000Y-129032000D02*
X135255000Y-130810000D01*
X133477000Y-118110000D02*
X135255000Y-118110000D01*
X141605000Y-130810000D02*
X141605000Y-129032000D01*
X154305000Y-130810000D02*
X152527000Y-130810000D01*
X152527000Y-118110000D02*
X154305000Y-118110000D01*
X141605000Y-118110000D02*
X143383000Y-118110000D01*
X154305000Y-118110000D02*
X154305000Y-119888000D01*
X141605000Y-119888000D02*
X141605000Y-118110000D01*
X143383000Y-130810000D02*
X141605000Y-130810000D01*
X154305000Y-129032000D02*
X154305000Y-130810000D01*
X162433000Y-130810000D02*
X160655000Y-130810000D01*
X160655000Y-130810000D02*
X160655000Y-129032000D01*
X173355000Y-130810000D02*
X171577000Y-130810000D01*
X160655000Y-119888000D02*
X160655000Y-118110000D01*
X171577000Y-118110000D02*
X173355000Y-118110000D01*
X173355000Y-129032000D02*
X173355000Y-130810000D01*
X160655000Y-118110000D02*
X162433000Y-118110000D01*
X173355000Y-118110000D02*
X173355000Y-119888000D01*
X179705000Y-119888000D02*
X179705000Y-118110000D01*
X179705000Y-130810000D02*
X179705000Y-129032000D01*
X192405000Y-118110000D02*
X192405000Y-119888000D01*
X179705000Y-118110000D02*
X181483000Y-118110000D01*
X181483000Y-130810000D02*
X179705000Y-130810000D01*
X190627000Y-118110000D02*
X192405000Y-118110000D01*
X192405000Y-129032000D02*
X192405000Y-130810000D01*
X192405000Y-130810000D02*
X190627000Y-130810000D01*
X211455000Y-129032000D02*
X211455000Y-130810000D01*
X211455000Y-118110000D02*
X211455000Y-119888000D01*
X209677000Y-118110000D02*
X211455000Y-118110000D01*
X200533000Y-130810000D02*
X198755000Y-130810000D01*
X198755000Y-118110000D02*
X200533000Y-118110000D01*
X198755000Y-119888000D02*
X198755000Y-118110000D01*
X211455000Y-130810000D02*
X209677000Y-130810000D01*
X198755000Y-130810000D02*
X198755000Y-129032000D01*
X217805000Y-130810000D02*
X217805000Y-129032000D01*
X230505000Y-118110000D02*
X230505000Y-119888000D01*
X230505000Y-130810000D02*
X228727000Y-130810000D01*
X217805000Y-119888000D02*
X217805000Y-118110000D01*
X228727000Y-118110000D02*
X230505000Y-118110000D01*
X217805000Y-118110000D02*
X219583000Y-118110000D01*
X219583000Y-130810000D02*
X217805000Y-130810000D01*
X230505000Y-129032000D02*
X230505000Y-130810000D01*
D12*
X252745000Y-207765000D02*
X238775000Y-207765000D01*
X238775000Y-193795000D02*
X252745000Y-193795000D01*
X252745000Y-193795000D02*
X252745000Y-207765000D01*
X238775000Y-207765000D02*
X238775000Y-193795000D01*
D13*
X255850000Y-130850000D02*
X255850000Y-129072000D01*
X268550000Y-130850000D02*
X266772000Y-130850000D01*
X266772000Y-118150000D02*
X268550000Y-118150000D01*
X268550000Y-129072000D02*
X268550000Y-130850000D01*
X255850000Y-119928000D02*
X255850000Y-118150000D01*
X257628000Y-130850000D02*
X255850000Y-130850000D01*
X268550000Y-118150000D02*
X268550000Y-119928000D01*
X255850000Y-118150000D02*
X257628000Y-118150000D01*
X265430000Y-137160000D02*
X267208000Y-137160000D01*
X278130000Y-148082000D02*
X278130000Y-149860000D01*
X265430000Y-149860000D02*
X265430000Y-148082000D01*
X276352000Y-137160000D02*
X278130000Y-137160000D01*
X278130000Y-137160000D02*
X278130000Y-138938000D01*
X278130000Y-149860000D02*
X276352000Y-149860000D01*
X265430000Y-138938000D02*
X265430000Y-137160000D01*
X267208000Y-149860000D02*
X265430000Y-149860000D01*
X263842000Y-156210000D02*
X263842000Y-157988000D01*
X251142000Y-157988000D02*
X251142000Y-156210000D01*
X263842000Y-167132000D02*
X263842000Y-168910000D01*
X251142000Y-168910000D02*
X251142000Y-167132000D01*
X251142000Y-156210000D02*
X252920000Y-156210000D01*
X263842000Y-168910000D02*
X262064000Y-168910000D01*
X252920000Y-168910000D02*
X251142000Y-168910000D01*
X262064000Y-156210000D02*
X263842000Y-156210000D01*
X222568000Y-177038000D02*
X222568000Y-175260000D01*
X235268000Y-186182000D02*
X235268000Y-187960000D01*
X235268000Y-187960000D02*
X233490000Y-187960000D01*
X233490000Y-175260000D02*
X235268000Y-175260000D01*
X222568000Y-187960000D02*
X222568000Y-186182000D01*
X224346000Y-187960000D02*
X222568000Y-187960000D01*
X235268000Y-175260000D02*
X235268000Y-177038000D01*
X222568000Y-175260000D02*
X224346000Y-175260000D01*
X252540000Y-175260000D02*
X254318000Y-175260000D01*
X241618000Y-187960000D02*
X241618000Y-186182000D01*
X243396000Y-187960000D02*
X241618000Y-187960000D01*
X254318000Y-175260000D02*
X254318000Y-177038000D01*
X241618000Y-177038000D02*
X241618000Y-175260000D01*
X254318000Y-186182000D02*
X254318000Y-187960000D01*
X254318000Y-187960000D02*
X252540000Y-187960000D01*
X241618000Y-175260000D02*
X243396000Y-175260000D01*
X79692500Y-168910000D02*
X79692500Y-167132000D01*
X92392500Y-156210000D02*
X92392500Y-157988000D01*
X81470500Y-168910000D02*
X79692500Y-168910000D01*
X79692500Y-156210000D02*
X81470500Y-156210000D01*
X90614500Y-156210000D02*
X92392500Y-156210000D01*
X92392500Y-167132000D02*
X92392500Y-168910000D01*
X92392500Y-168910000D02*
X90614500Y-168910000D01*
X79692500Y-157988000D02*
X79692500Y-156210000D01*
X165418000Y-187960000D02*
X165418000Y-186182000D01*
X178118000Y-187960000D02*
X176340000Y-187960000D01*
X178118000Y-175260000D02*
X178118000Y-177038000D01*
X165418000Y-175260000D02*
X167196000Y-175260000D01*
X178118000Y-186182000D02*
X178118000Y-187960000D01*
X165418000Y-177038000D02*
X165418000Y-175260000D01*
X176340000Y-175260000D02*
X178118000Y-175260000D01*
X167196000Y-187960000D02*
X165418000Y-187960000D01*
X140018000Y-187960000D02*
X138240000Y-187960000D01*
X140018000Y-175260000D02*
X140018000Y-177038000D01*
X127318000Y-187960000D02*
X127318000Y-186182000D01*
X140018000Y-186182000D02*
X140018000Y-187960000D01*
X138240000Y-175260000D02*
X140018000Y-175260000D01*
X127318000Y-175260000D02*
X129096000Y-175260000D01*
X129096000Y-187960000D02*
X127318000Y-187960000D01*
X127318000Y-177038000D02*
X127318000Y-175260000D01*
X130492000Y-156210000D02*
X130492000Y-157988000D01*
X117792000Y-156210000D02*
X119570000Y-156210000D01*
X128714000Y-156210000D02*
X130492000Y-156210000D01*
X130492000Y-167132000D02*
X130492000Y-168910000D01*
X117792000Y-157988000D02*
X117792000Y-156210000D01*
X130492000Y-168910000D02*
X128714000Y-168910000D01*
X117792000Y-168910000D02*
X117792000Y-167132000D01*
X119570000Y-168910000D02*
X117792000Y-168910000D01*
X113030000Y-138938000D02*
X113030000Y-137160000D01*
X125730000Y-149860000D02*
X123952000Y-149860000D01*
X123952000Y-137160000D02*
X125730000Y-137160000D01*
X125730000Y-148082000D02*
X125730000Y-149860000D01*
X114808000Y-149860000D02*
X113030000Y-149860000D01*
X113030000Y-137160000D02*
X114808000Y-137160000D01*
X113030000Y-149860000D02*
X113030000Y-148082000D01*
X125730000Y-137160000D02*
X125730000Y-138938000D01*
X138620000Y-168910000D02*
X136842000Y-168910000D01*
X136842000Y-157988000D02*
X136842000Y-156210000D01*
X136842000Y-156210000D02*
X138620000Y-156210000D01*
X149542000Y-156210000D02*
X149542000Y-157988000D01*
X136842000Y-168910000D02*
X136842000Y-167132000D01*
X149542000Y-168910000D02*
X147764000Y-168910000D01*
X149542000Y-167132000D02*
X149542000Y-168910000D01*
X147764000Y-156210000D02*
X149542000Y-156210000D01*
X155892000Y-156210000D02*
X157670000Y-156210000D01*
X166814000Y-156210000D02*
X168592000Y-156210000D01*
X168592000Y-168910000D02*
X166814000Y-168910000D01*
X155892000Y-157988000D02*
X155892000Y-156210000D01*
X168592000Y-167132000D02*
X168592000Y-168910000D01*
X168592000Y-156210000D02*
X168592000Y-157988000D01*
X155892000Y-168910000D02*
X155892000Y-167132000D01*
X157670000Y-168910000D02*
X155892000Y-168910000D01*
X174942000Y-156210000D02*
X176720000Y-156210000D01*
X187642000Y-156210000D02*
X187642000Y-157988000D01*
X174942000Y-168910000D02*
X174942000Y-167132000D01*
X187642000Y-168910000D02*
X185864000Y-168910000D01*
X185864000Y-156210000D02*
X187642000Y-156210000D01*
X187642000Y-167132000D02*
X187642000Y-168910000D01*
X176720000Y-168910000D02*
X174942000Y-168910000D01*
X174942000Y-157988000D02*
X174942000Y-156210000D01*
X208280000Y-137160000D02*
X210058000Y-137160000D01*
X220980000Y-149860000D02*
X219202000Y-149860000D01*
X208280000Y-149860000D02*
X208280000Y-148082000D01*
X210058000Y-149860000D02*
X208280000Y-149860000D01*
X219202000Y-137160000D02*
X220980000Y-137160000D01*
X220980000Y-137160000D02*
X220980000Y-138938000D01*
X208280000Y-138938000D02*
X208280000Y-137160000D01*
X220980000Y-148082000D02*
X220980000Y-149860000D01*
X193992000Y-156210000D02*
X195770000Y-156210000D01*
X206692000Y-168910000D02*
X204914000Y-168910000D01*
X206692000Y-156210000D02*
X206692000Y-157988000D01*
X193992000Y-157988000D02*
X193992000Y-156210000D01*
X204914000Y-156210000D02*
X206692000Y-156210000D01*
X195770000Y-168910000D02*
X193992000Y-168910000D01*
X206692000Y-167132000D02*
X206692000Y-168910000D01*
X193992000Y-168910000D02*
X193992000Y-167132000D01*
X225742000Y-167132000D02*
X225742000Y-168910000D01*
X213042000Y-156210000D02*
X214820000Y-156210000D01*
X213042000Y-168910000D02*
X213042000Y-167132000D01*
X213042000Y-157988000D02*
X213042000Y-156210000D01*
X225742000Y-156210000D02*
X225742000Y-157988000D01*
X225742000Y-168910000D02*
X223964000Y-168910000D01*
X223964000Y-156210000D02*
X225742000Y-156210000D01*
X214820000Y-168910000D02*
X213042000Y-168910000D01*
X243014000Y-156210000D02*
X244792000Y-156210000D01*
X232092000Y-156210000D02*
X233870000Y-156210000D01*
X233870000Y-168910000D02*
X232092000Y-168910000D01*
X244792000Y-168910000D02*
X243014000Y-168910000D01*
X232092000Y-157988000D02*
X232092000Y-156210000D01*
X232092000Y-168910000D02*
X232092000Y-167132000D01*
X244792000Y-156210000D02*
X244792000Y-157988000D01*
X244792000Y-167132000D02*
X244792000Y-168910000D01*
X216218000Y-186182000D02*
X216218000Y-187960000D01*
X203518000Y-175260000D02*
X205296000Y-175260000D01*
X203518000Y-187960000D02*
X203518000Y-186182000D01*
X216218000Y-175260000D02*
X216218000Y-177038000D01*
X216218000Y-187960000D02*
X214440000Y-187960000D01*
X203518000Y-177038000D02*
X203518000Y-175260000D01*
X205296000Y-187960000D02*
X203518000Y-187960000D01*
X214440000Y-175260000D02*
X216218000Y-175260000D01*
X184468000Y-187960000D02*
X184468000Y-186182000D01*
X186246000Y-187960000D02*
X184468000Y-187960000D01*
X195390000Y-175260000D02*
X197168000Y-175260000D01*
X197168000Y-187960000D02*
X195390000Y-187960000D01*
X197168000Y-186182000D02*
X197168000Y-187960000D01*
X184468000Y-177038000D02*
X184468000Y-175260000D01*
X197168000Y-175260000D02*
X197168000Y-177038000D01*
X184468000Y-175260000D02*
X186246000Y-175260000D01*
X240030000Y-137160000D02*
X240030000Y-138938000D01*
X238252000Y-137160000D02*
X240030000Y-137160000D01*
X227330000Y-149860000D02*
X227330000Y-148082000D01*
X240030000Y-149860000D02*
X238252000Y-149860000D01*
X227330000Y-138938000D02*
X227330000Y-137160000D01*
X229108000Y-149860000D02*
X227330000Y-149860000D01*
X240030000Y-148082000D02*
X240030000Y-149860000D01*
X227330000Y-137160000D02*
X229108000Y-137160000D01*
X246380000Y-137160000D02*
X248158000Y-137160000D01*
X259080000Y-137160000D02*
X259080000Y-138938000D01*
X257302000Y-137160000D02*
X259080000Y-137160000D01*
X248158000Y-149860000D02*
X246380000Y-149860000D01*
X259080000Y-149860000D02*
X257302000Y-149860000D01*
X259080000Y-148082000D02*
X259080000Y-149860000D01*
X246380000Y-149860000D02*
X246380000Y-148082000D01*
X246380000Y-138938000D02*
X246380000Y-137160000D01*
X85972000Y-137150000D02*
X87750000Y-137150000D01*
X75050000Y-138928000D02*
X75050000Y-137150000D01*
X87750000Y-148072000D02*
X87750000Y-149850000D01*
X76828000Y-149850000D02*
X75050000Y-149850000D01*
X75050000Y-137150000D02*
X76828000Y-137150000D01*
X87750000Y-149850000D02*
X85972000Y-149850000D01*
X87750000Y-137150000D02*
X87750000Y-138928000D01*
X75050000Y-149850000D02*
X75050000Y-148072000D01*
X144780000Y-148082000D02*
X144780000Y-149860000D01*
X132080000Y-137160000D02*
X133858000Y-137160000D01*
X132080000Y-138938000D02*
X132080000Y-137160000D01*
X133858000Y-149860000D02*
X132080000Y-149860000D01*
X144780000Y-149860000D02*
X143002000Y-149860000D01*
X144780000Y-137160000D02*
X144780000Y-138938000D01*
X143002000Y-137160000D02*
X144780000Y-137160000D01*
X132080000Y-149860000D02*
X132080000Y-148082000D01*
X109664000Y-156210000D02*
X111442000Y-156210000D01*
X98742000Y-156210000D02*
X100520000Y-156210000D01*
X111442000Y-167132000D02*
X111442000Y-168910000D01*
X100520000Y-168910000D02*
X98742000Y-168910000D01*
X98742000Y-168910000D02*
X98742000Y-167132000D01*
X98742000Y-157988000D02*
X98742000Y-156210000D01*
X111442000Y-168910000D02*
X109664000Y-168910000D01*
X111442000Y-156210000D02*
X111442000Y-157988000D01*
X162052000Y-137160000D02*
X163830000Y-137160000D01*
X163830000Y-148082000D02*
X163830000Y-149860000D01*
X163830000Y-137160000D02*
X163830000Y-138938000D01*
X151130000Y-138938000D02*
X151130000Y-137160000D01*
X151130000Y-149860000D02*
X151130000Y-148082000D01*
X152908000Y-149860000D02*
X151130000Y-149860000D01*
X151130000Y-137160000D02*
X152908000Y-137160000D01*
X163830000Y-149860000D02*
X162052000Y-149860000D01*
X191008000Y-149860000D02*
X189230000Y-149860000D01*
X201930000Y-137160000D02*
X201930000Y-138938000D01*
X189230000Y-138938000D02*
X189230000Y-137160000D01*
X189230000Y-137160000D02*
X191008000Y-137160000D01*
X201930000Y-148082000D02*
X201930000Y-149860000D01*
X200152000Y-137160000D02*
X201930000Y-137160000D01*
X201930000Y-149860000D02*
X200152000Y-149860000D01*
X189230000Y-149860000D02*
X189230000Y-148082000D01*
X159068000Y-186182000D02*
X159068000Y-187960000D01*
X146368000Y-177038000D02*
X146368000Y-175260000D01*
X159068000Y-187960000D02*
X157290000Y-187960000D01*
X157290000Y-175260000D02*
X159068000Y-175260000D01*
X146368000Y-187960000D02*
X146368000Y-186182000D01*
X148146000Y-187960000D02*
X146368000Y-187960000D01*
X159068000Y-175260000D02*
X159068000Y-177038000D01*
X146368000Y-175260000D02*
X148146000Y-175260000D01*
X93980000Y-149860000D02*
X93980000Y-148082000D01*
X106680000Y-148082000D02*
X106680000Y-149860000D01*
X106680000Y-137160000D02*
X106680000Y-138938000D01*
X95758000Y-149860000D02*
X93980000Y-149860000D01*
X93980000Y-138938000D02*
X93980000Y-137160000D01*
X93980000Y-137160000D02*
X95758000Y-137160000D01*
X106680000Y-149860000D02*
X104902000Y-149860000D01*
X104902000Y-137160000D02*
X106680000Y-137160000D01*
X120968000Y-187960000D02*
X119190000Y-187960000D01*
X108268000Y-187960000D02*
X108268000Y-186182000D01*
X119190000Y-175260000D02*
X120968000Y-175260000D01*
X108268000Y-175260000D02*
X110046000Y-175260000D01*
X108268000Y-177038000D02*
X108268000Y-175260000D01*
X110046000Y-187960000D02*
X108268000Y-187960000D01*
X120968000Y-175260000D02*
X120968000Y-177038000D01*
X120968000Y-186182000D02*
X120968000Y-187960000D01*
X182880000Y-149860000D02*
X181102000Y-149860000D01*
X182880000Y-137160000D02*
X182880000Y-138938000D01*
X171958000Y-149860000D02*
X170180000Y-149860000D01*
X181102000Y-137160000D02*
X182880000Y-137160000D01*
X182880000Y-148082000D02*
X182880000Y-149860000D01*
X170180000Y-137160000D02*
X171958000Y-137160000D01*
X170180000Y-138938000D02*
X170180000Y-137160000D01*
X170180000Y-149860000D02*
X170180000Y-148082000D01*
X101917500Y-186182000D02*
X101917500Y-187960000D01*
X89217500Y-175260000D02*
X90995500Y-175260000D01*
X89217500Y-187960000D02*
X89217500Y-186182000D01*
X90995500Y-187960000D02*
X89217500Y-187960000D01*
X101917500Y-175260000D02*
X101917500Y-177038000D01*
X89217500Y-177038000D02*
X89217500Y-175260000D01*
X101917500Y-187960000D02*
X100139500Y-187960000D01*
X100139500Y-175260000D02*
X101917500Y-175260000D01*
X58261200Y-187960000D02*
X58261200Y-186182000D01*
X70961200Y-187960000D02*
X69183200Y-187960000D01*
X58261200Y-177038000D02*
X58261200Y-175260000D01*
X69183200Y-175260000D02*
X70961200Y-175260000D01*
X58261200Y-175260000D02*
X60039200Y-175260000D01*
X70961200Y-186182000D02*
X70961200Y-187960000D01*
X70961200Y-175260000D02*
X70961200Y-177038000D01*
X60039200Y-187960000D02*
X58261200Y-187960000D01*
D12*
X66725000Y-155635000D02*
X66725000Y-169605000D01*
X52755000Y-155635000D02*
X66725000Y-155635000D01*
X66725000Y-169605000D02*
X52755000Y-169605000D01*
X52755000Y-169605000D02*
X52755000Y-155635000D01*
D13*
X167799000Y-194310000D02*
X169577000Y-194310000D01*
X180499000Y-194310000D02*
X180499000Y-196088000D01*
X180499000Y-205232000D02*
X180499000Y-207010000D01*
X180499000Y-207010000D02*
X178721000Y-207010000D01*
X167799000Y-196088000D02*
X167799000Y-194310000D01*
X169577000Y-207010000D02*
X167799000Y-207010000D01*
X167799000Y-207010000D02*
X167799000Y-205232000D01*
X178721000Y-194310000D02*
X180499000Y-194310000D01*
D12*
X109585000Y-193815000D02*
X109585000Y-207785000D01*
X95615000Y-207785000D02*
X95615000Y-193815000D01*
X109585000Y-207785000D02*
X95615000Y-207785000D01*
X95615000Y-193815000D02*
X109585000Y-193815000D01*
D13*
X277150000Y-176911000D02*
X277150000Y-175133000D01*
X289850000Y-186055000D02*
X289850000Y-187833000D01*
X277150000Y-175133000D02*
X278928000Y-175133000D01*
X278928000Y-187833000D02*
X277150000Y-187833000D01*
X289850000Y-187833000D02*
X288072000Y-187833000D01*
X289850000Y-175133000D02*
X289850000Y-176911000D01*
X277150000Y-187833000D02*
X277150000Y-186055000D01*
X288072000Y-175133000D02*
X289850000Y-175133000D01*
X292872000Y-156210000D02*
X294650000Y-156210000D01*
X294650000Y-156210000D02*
X294650000Y-157988000D01*
X281950000Y-168910000D02*
X281950000Y-167132000D01*
X294650000Y-168910000D02*
X292872000Y-168910000D01*
X281950000Y-157988000D02*
X281950000Y-156210000D01*
X281950000Y-156210000D02*
X283728000Y-156210000D01*
X294650000Y-167132000D02*
X294650000Y-168910000D01*
X283728000Y-168910000D02*
X281950000Y-168910000D01*
D12*
X114005000Y-106770000D02*
X70765000Y-106770000D01*
X70765000Y-106770000D02*
X70765000Y-109430000D01*
X116605000Y-106770000D02*
X116605000Y-108100000D01*
X114005000Y-106770000D02*
X114005000Y-109430000D01*
X115275000Y-106770000D02*
X116605000Y-106770000D01*
X114005000Y-109430000D02*
X70765000Y-109430000D01*
X45070000Y-117130000D02*
X38530000Y-117130000D01*
X45070000Y-119540000D02*
X45070000Y-119870000D01*
X45070000Y-117460000D02*
X45070000Y-117130000D01*
X38530000Y-117130000D02*
X38530000Y-117460000D01*
X45070000Y-119870000D02*
X38530000Y-119870000D01*
X38530000Y-119870000D02*
X38530000Y-119540000D01*
X47760000Y-132850000D02*
X47760000Y-122570000D01*
X47760000Y-122570000D02*
X46510000Y-122570000D01*
X44510000Y-122570000D02*
X43260000Y-122570000D01*
X43260000Y-132850000D02*
X47760000Y-132850000D01*
X43260000Y-122570000D02*
X43260000Y-132850000D01*
X44510000Y-122570000D02*
G75*
G03*
X46510000Y-122570000I1000000J0D01*
G01*
X58235000Y-156564000D02*
X58235000Y-156720000D01*
X58235000Y-158880000D02*
X58235000Y-159036000D01*
X60836130Y-156720163D02*
G75*
G03*
X58754039Y-156720000I-1041130J-1079837D01*
G01*
X61467335Y-156721392D02*
G75*
G03*
X58235000Y-156564484I-1672335J-1078608D01*
G01*
X58754039Y-158880000D02*
G75*
G03*
X60836130Y-158879837I1040961J1080000D01*
G01*
X58235000Y-159035516D02*
G75*
G03*
X61467335Y-158878608I1560000J1235516D01*
G01*
X40880000Y-140170000D02*
X40880000Y-137430000D01*
X48120000Y-137430000D02*
X40880000Y-137430000D01*
X48120000Y-140170000D02*
X48120000Y-137430000D01*
X48120000Y-140170000D02*
X40880000Y-140170000D01*
X143770000Y-109140000D02*
X143770000Y-109470000D01*
X143770000Y-106730000D02*
X137230000Y-106730000D01*
X137230000Y-106730000D02*
X137230000Y-107060000D01*
X143770000Y-107060000D02*
X143770000Y-106730000D01*
X137230000Y-109470000D02*
X137230000Y-109140000D01*
X143770000Y-109470000D02*
X137230000Y-109470000D01*
X156635000Y-106864000D02*
X156635000Y-107020000D01*
X156635000Y-109180000D02*
X156635000Y-109336000D01*
X157154039Y-109180000D02*
G75*
G03*
X159236130Y-109179837I1040961J1080000D01*
G01*
X156635000Y-109335516D02*
G75*
G03*
X159867335Y-109178608I1560000J1235516D01*
G01*
X159236130Y-107020163D02*
G75*
G03*
X157154039Y-107020000I-1041130J-1079837D01*
G01*
X159867335Y-107021392D02*
G75*
G03*
X156635000Y-106864484I-1672335J-1078608D01*
G01*
X47270000Y-151070000D02*
X40730000Y-151070000D01*
X40730000Y-148330000D02*
X40730000Y-148660000D01*
X47270000Y-148660000D02*
X47270000Y-148330000D01*
X47270000Y-148330000D02*
X40730000Y-148330000D01*
X40730000Y-151070000D02*
X40730000Y-150740000D01*
X47270000Y-150740000D02*
X47270000Y-151070000D01*
D14*
X245745000Y-119380000D03*
X239395000Y-121920000D03*
X74295000Y-119380000D03*
X67945000Y-121920000D03*
X93345000Y-119380000D03*
X86995000Y-121920000D03*
X112395000Y-119380000D03*
X106045000Y-121920000D03*
X131445000Y-119380000D03*
X125095000Y-121920000D03*
X150495000Y-119380000D03*
X144145000Y-121920000D03*
X169545000Y-119380000D03*
X163195000Y-121920000D03*
X188595000Y-119380000D03*
X182245000Y-121920000D03*
X207645000Y-119380000D03*
X201295000Y-121920000D03*
X226695000Y-119380000D03*
X220345000Y-121920000D03*
X264740000Y-119420000D03*
X258390000Y-121960000D03*
X274320000Y-138430000D03*
X267970000Y-140970000D03*
X260032000Y-157480000D03*
X253682000Y-160020000D03*
X231458000Y-176530000D03*
X225108000Y-179070000D03*
X250508000Y-176530000D03*
X244158000Y-179070000D03*
X88582500Y-157480000D03*
X82232500Y-160020000D03*
X174308000Y-176530000D03*
X167958000Y-179070000D03*
X136208000Y-176530000D03*
X129858000Y-179070000D03*
X126682000Y-157480000D03*
X120332000Y-160020000D03*
X121920000Y-138430000D03*
X115570000Y-140970000D03*
X145732000Y-157480000D03*
X139382000Y-160020000D03*
X164782000Y-157480000D03*
X158432000Y-160020000D03*
X183832000Y-157480000D03*
X177482000Y-160020000D03*
X217170000Y-138430000D03*
X210820000Y-140970000D03*
X202882000Y-157480000D03*
X196532000Y-160020000D03*
X221932000Y-157480000D03*
X215582000Y-160020000D03*
X240982000Y-157480000D03*
X234632000Y-160020000D03*
X212408000Y-176530000D03*
X206058000Y-179070000D03*
X193358000Y-176530000D03*
X187008000Y-179070000D03*
X236220000Y-138430000D03*
X229870000Y-140970000D03*
X255270000Y-138430000D03*
X248920000Y-140970000D03*
X83940000Y-138420000D03*
X77590000Y-140960000D03*
X140970000Y-138430000D03*
X134620000Y-140970000D03*
X107632000Y-157480000D03*
X101282000Y-160020000D03*
X160020000Y-138430000D03*
X153670000Y-140970000D03*
X198120000Y-138430000D03*
X191770000Y-140970000D03*
X155258000Y-176530000D03*
X148908000Y-179070000D03*
X102870000Y-138430000D03*
X96520000Y-140970000D03*
X117158000Y-176530000D03*
X110808000Y-179070000D03*
X179070000Y-138430000D03*
X172720000Y-140970000D03*
X98107500Y-176530000D03*
X91757500Y-179070000D03*
X67151200Y-176530000D03*
X60801200Y-179070000D03*
X176689000Y-195580000D03*
X170339000Y-198120000D03*
X286040000Y-176403000D03*
X279690000Y-178943000D03*
X290840000Y-157480000D03*
X284490000Y-160020000D03*
M02*
