M48
; DRILL file {KiCad 6.0.1-79c1e3a40b~116~ubuntu21.04.1} date Thu 30 Jun 2022 07:35:27 AM CDT
; FORMAT={-:-/ absolute / inch / decimal}
; #@! TF.CreationDate,2022-06-30T07:35:27-05:00
; #@! TF.GenerationSoftware,Kicad,Pcbnew,6.0.1-79c1e3a40b~116~ubuntu21.04.1
; #@! TF.FileFunction,Plated,1,2,PTH
FMAT,2
INCH
; #@! TA.AperFunction,Plated,PTH,ViaDrill
T1C0.0157
; #@! TA.AperFunction,Plated,PTH,ComponentDrill
T2C0.0295
; #@! TA.AperFunction,Plated,PTH,ComponentDrill
T3C0.0315
; #@! TA.AperFunction,Plated,PTH,ComponentDrill
T4C0.0354
; #@! TA.AperFunction,Plated,PTH,ComponentDrill
T5C0.0394
; #@! TA.AperFunction,Plated,PTH,ComponentDrill
T6C0.0433
; #@! TA.AperFunction,Plated,PTH,ComponentDrill
T7C0.0551
; #@! TA.AperFunction,Plated,PTH,ComponentDrill
T8C0.1260
%
G90
G05
T1
X2.5305Y-2.0498
X2.5761Y-2.0293
X2.7381Y-1.9078
X2.8646Y-1.8693
X3.122Y-5.803
X3.1297Y-5.6528
X4.3351Y-4.8409
X4.4147Y-6.6089
X4.4857Y-6.5216
X4.7399Y-7.9304
X4.8347Y-6.9512
X4.8563Y-8.025
X4.9171Y-8.0545
X5.0176Y-4.4678
X5.0398Y-7.925
X5.04Y-8.1369
X5.0465Y-4.4389
X5.1044Y-6.8253
X5.1152Y-7.6258
X5.1163Y-8.0996
X5.1571Y-8.2611
X5.1613Y-7.313
X5.1864Y-8.4762
X5.2368Y-7.3017
X5.2406Y-7.925
X5.3292Y-7.9639
X5.3296Y-8.025
X5.3298Y-8.4256
X5.3567Y-5.2693
X5.4913Y-8.0625
X5.4935Y-7.9127
X5.5254Y-8.0291
X5.5275Y-7.4543
X5.5305Y-7.4944
X5.5541Y-7.9662
X5.5846Y-2.2698
X5.6265Y-2.2608
X5.674Y-5.0028
X5.685Y-1.6429
X5.6866Y-3.5831
X5.6922Y-8.3268
X5.6994Y-2.2582
X5.7389Y-2.2546
X5.7538Y-5.7822
X5.7541Y-5.32
X5.7611Y-6.234
X5.773Y-5.9543
X5.7896Y-7.4714
X5.7944Y-6.2746
X5.7984Y-1.806
X5.8087Y-7.387
X5.8209Y-4.4801
X5.8308Y-8.4628
X5.8531Y-8.5086
X5.9008Y-7.0046
X5.9036Y-6.9614
X6.0402Y-8.2526
X6.0477Y-2.4081
X6.1575Y-8.5585
X6.2799Y-7.8333
X6.3358Y-2.8622
X6.341Y-8.3865
X6.4285Y-7.6715
X6.6732Y-2.2538
X6.7981Y-2.5748
X7.3065Y-3.6137
X7.3505Y-3.4968
X7.3812Y-3.6355
X7.4016Y-3.4799
X7.4074Y-3.606
X7.4174Y-4.915
X7.4691Y-6.4
X7.5527Y-4.9712
X7.5825Y-4.8899
X7.6111Y-4.9171
X7.6341Y-8.4664
X7.6598Y-4.8701
X7.7067Y-4.8226
X7.7428Y-4.7759
X7.7591Y-2.1805
X7.7707Y-4.0502
X7.7707Y-2.4099
X7.7889Y-2.0169
X7.8497Y-7.7409
X7.9071Y-3.8557
X7.9084Y-2.9169
X7.9403Y-3.8114
X7.9891Y-2.8816
X8.0047Y-4.6123
X8.0267Y-2.7328
X8.1065Y-6.8645
X8.1832Y-4.2814
X8.1846Y-4.3603
X8.2136Y-4.5053
X8.224Y-3.5406
X8.243Y-4.5544
X8.2747Y-6.2543
X8.3065Y-3.5406
X8.3381Y-3.8713
X8.4014Y-2.1513
X8.4199Y-6.0984
X8.4216Y-4.3275
X8.4278Y-4.1354
X8.4868Y-6.546
X8.536Y-2.7422
X8.5492Y-5.3971
X8.5683Y-2.912
X8.5735Y-5.7533
X8.5931Y-5.4299
X8.6866Y-4.2585
X8.7144Y-7.2423
X8.7486Y-7.2765
X8.8186Y-2.9766
X8.8302Y-2.4886
X8.8878Y-2.989
X8.9226Y-4.9555
X8.9301Y-7.6356
X8.9335Y-4.9009
X9.0085Y-5.8067
X9.015Y-6.0953
X9.0349Y-6.1562
X9.0693Y-5.7305
X9.0892Y-6.1238
X9.149Y-7.9765
X9.1506Y-3.1254
X9.2146Y-2.9719
X9.2385Y-6.0686
X9.2725Y-6.3282
X9.2768Y-6.0261
X9.3187Y-4.5501
X9.3794Y-7.2069
X9.5039Y-5.9693
X9.5094Y-5.882
X9.6085Y-6.0233
X9.6643Y-4.8817
X9.6653Y-4.9762
X9.6966Y-4.0128
X9.8028Y-2.7422
X9.8249Y-3.4317
X9.8546Y-7.9783
X9.9372Y-5.0922
X9.9484Y-7.0198
X9.983Y-2.967
X9.9969Y-2.2248
X10.0005Y-8.3565
X10.0089Y-7.058
X10.0687Y-4.5203
X10.1065Y-6.3855
X10.1148Y-5.298
X10.1519Y-3.9918
X10.225Y-7.5698
X10.2267Y-5.5035
X10.2295Y-2.9692
X10.2866Y-4.6019
X10.3164Y-6.9765
X10.4016Y-3.0654
X10.5829Y-5.6687
X10.6005Y-3.8112
X10.6059Y-7.3503
X10.6754Y-3.6712
X10.6977Y-4.3576
X10.7111Y-7.1674
X10.723Y-6.9763
X10.8327Y-7.5885
X10.8852Y-2.5932
X10.9347Y-2.5762
X10.9431Y-2.8652
X10.9835Y-2.5584
X11.0029Y-2.4257
X11.0154Y-2.363
X11.0189Y-6.8825
X11.023Y-3.8244
X11.0571Y-5.2178
X11.1342Y-4.5275
X11.2426Y-7.5182
X11.4494Y-6.9333
X11.5587Y-7.4553
X11.7288Y-6.7795
X11.8668Y-7.4343
X11.9685Y-7.4948
X11.9734Y-3.7109
X12.0099Y-8.4387
X12.1936Y-7.0758
X12.1964Y-7.3943
X12.2345Y-5.1099
X12.2402Y-7.5724
X12.2699Y-5.0492
X12.3076Y-2.9471
X12.3163Y-5.0836
X12.3258Y-5.5807
X12.3311Y-5.8508
X12.3533Y-5.0649
X12.3901Y-5.3698
X12.3977Y-6.8108
X12.4132Y-6.4225
X12.7485Y-6.5959
X12.7681Y-4.8809
X12.7879Y-4.2012
X12.7961Y-3.0214
X12.8272Y-4.7756
X12.8412Y-5.1718
X12.8599Y-6.7373
X12.8638Y-6.5171
X12.873Y-3.3005
X12.8898Y-6.7633
X12.9639Y-4.1991
X12.9717Y-4.0245
X13.0027Y-4.057
X13.0212Y-2.5215
X13.0602Y-5.4758
X13.1077Y-5.525
X13.1836Y-6.2446
X13.1866Y-2.257
X13.2179Y-2.1596
X13.2463Y-6.4455
X13.2518Y-6.5463
X13.289Y-5.7598
X13.4585Y-4.4474
X13.539Y-2.843
X13.5991Y-5.7902
X13.61Y-2.2154
X13.634Y-3.7053
X13.8253Y-5.695
X13.9684Y-2.8805
X13.9707Y-3.3699
X13.9899Y-3.2708
X14.0738Y-3.2546
X14.174Y-3.0269
X14.1847Y-3.2383
X14.2098Y-1.9021
X14.2219Y-2.7894
X14.3937Y-3.0907
X14.3996Y-7.0785
X14.401Y-2.8284
X14.4151Y-4.3134
X14.427Y-7.2053
X14.4417Y-3.3496
X14.4535Y-2.7253
X14.4663Y-4.5391
X14.4826Y-5.3198
X14.5125Y-5.6744
X14.5389Y-3.2049
X14.5608Y-3.5565
X14.576Y-5.9624
X14.6049Y-5.614
X14.7479Y-4.5838
X14.7482Y-2.6569
X14.7488Y-4.4043
X14.7884Y-7.4758
X14.8022Y-2.6301
X14.8065Y-7.7299
X14.8116Y-7.6333
X14.8445Y-4.2644
X14.8509Y-7.4419
X14.8774Y-2.7135
X14.8822Y-2.7854
X14.9833Y-1.7182
X15.0147Y-4.3399
X15.0397Y-4.3963
X15.0472Y-4.4465
X15.063Y-2.2753
X15.0688Y-4.0877
X15.0877Y-4.8262
X15.1226Y-3.8192
X15.1275Y-5.5802
X15.1365Y-2.5266
X15.212Y-4.5379
X15.2183Y-3.6091
X15.2364Y-3.8374
X15.276Y-4.6898
X15.2965Y-5.9548
X15.3347Y-5.9949
X15.3482Y-4.9215
X15.4832Y-2.7512
X15.5428Y-2.7456
X15.7978Y-6.6565
T2
X2.45Y-5.3
X2.5Y-5.25
X2.55Y-5.3
X2.9Y-3.975
X2.95Y-3.925
X3.0Y-3.975
X3.175Y-3.9705
X3.225Y-3.9205
X3.275Y-3.9705
X5.0Y-5.9705
X5.025Y-4.7955
X5.025Y-5.175
X5.025Y-5.5705
X5.05Y-5.9205
X5.075Y-4.7455
X5.075Y-5.125
X5.075Y-5.5205
X5.1Y-5.9705
X5.125Y-4.7955
X5.125Y-5.175
X5.125Y-5.5705
X9.225Y-6.2705
X9.275Y-6.2205
X9.325Y-6.2705
X12.075Y-3.2455
X12.125Y-3.1955
X12.175Y-3.2455
T3
X1.3Y-6.975
X1.45Y-2.65
X1.475Y-3.15
X1.5016Y-2.3
X1.5016Y-2.475
X1.575Y-1.525
X1.6Y-6.975
X1.6984Y-2.3
X1.6984Y-2.475
X1.75Y-2.65
X1.775Y-3.15
X1.875Y-1.525
X1.9Y-3.15
X1.9016Y-2.9
X1.95Y-7.175
X1.95Y-7.475
X1.95Y-7.775
X1.9504Y-1.7746
X1.9504Y-1.8746
X1.9504Y-1.9746
X1.9504Y-2.0746
X1.9504Y-2.1746
X1.9504Y-2.2746
X1.9504Y-2.3746
X1.9504Y-2.4746
X1.9766Y-2.65
X2.0016Y-1.525
X2.0016Y-6.775
X2.0969Y-3.15
X2.0984Y-2.9
X2.1734Y-2.65
X2.1984Y-1.525
X2.1984Y-6.775
X2.25Y-7.175
X2.25Y-7.475
X2.25Y-7.775
X2.2504Y-1.7746
X2.2504Y-1.8746
X2.2504Y-1.9746
X2.2504Y-2.0746
X2.2504Y-2.1746
X2.2504Y-2.2746
X2.2504Y-2.3746
X2.2504Y-2.4746
X2.325Y-5.525
X2.325Y-5.7
X2.325Y-5.875
X2.325Y-6.05
X2.325Y-6.225
X2.325Y-6.4
X2.35Y-3.025
X2.35Y-3.775
X2.35Y-3.975
X2.35Y-4.175
X2.35Y-4.375
X2.35Y-4.925
X2.3504Y-3.2746
X2.3504Y-3.3746
X2.3504Y-3.4746
X2.3766Y-6.575
X2.4016Y-4.575
X2.4016Y-4.75
X2.5734Y-6.575
X2.5984Y-4.575
X2.5984Y-4.75
X2.625Y-5.525
X2.625Y-5.7
X2.625Y-5.875
X2.625Y-6.05
X2.625Y-6.225
X2.625Y-6.4
X2.65Y-3.025
X2.65Y-3.775
X2.65Y-3.975
X2.65Y-4.175
X2.65Y-4.375
X2.65Y-4.925
X2.65Y-7.775
X2.6504Y-3.2746
X2.6504Y-3.3746
X2.6504Y-3.4746
X2.725Y-2.2
X2.875Y-3.025
X2.8754Y-3.2746
X2.8754Y-3.3746
X2.8754Y-3.4746
X2.925Y-4.2
X2.925Y-5.875
X2.925Y-6.075
X2.925Y-6.25
X2.925Y-6.45
X2.9266Y-4.375
X2.9266Y-4.575
X2.9266Y-4.75
X2.95Y-5.325
X2.95Y-5.525
X2.95Y-7.775
X2.9766Y-5.7
X3.0016Y-5.15
X3.025Y-2.2
X3.1219Y-4.2
X3.1234Y-4.375
X3.1234Y-4.575
X3.1234Y-4.75
X3.1734Y-5.7
X3.175Y-3.025
X3.1754Y-3.2746
X3.1754Y-3.3746
X3.1754Y-3.4746
X3.1984Y-5.15
X3.225Y-5.875
X3.225Y-6.075
X3.225Y-6.25
X3.225Y-6.45
X3.25Y-5.325
X3.25Y-5.525
X3.275Y-1.3
X3.275Y-1.475
X3.275Y-1.65
X3.275Y-1.825
X3.275Y-2.0
X3.275Y-2.2
X3.3516Y-4.575
X3.5484Y-4.575
X3.5516Y-4.125
X3.5516Y-4.375
X3.575Y-1.3
X3.575Y-1.475
X3.575Y-1.65
X3.575Y-1.825
X3.575Y-2.0
X3.575Y-2.2
X3.6031Y-3.925
X3.65Y-6.875
X3.65Y-6.975
X3.65Y-7.075
X3.65Y-7.175
X3.65Y-7.275
X3.65Y-7.375
X3.65Y-7.475
X3.65Y-7.575
X3.65Y-7.675
X3.65Y-7.775
X3.65Y-7.875
X3.65Y-7.975
X3.8Y-3.925
X3.85Y-1.3
X3.85Y-1.475
X3.85Y-1.65
X3.85Y-1.825
X3.85Y-2.0
X3.85Y-2.2
X3.8516Y-4.125
X3.8516Y-4.375
X3.9531Y-6.1
X3.9563Y-4.75
X3.9563Y-4.9
X3.9563Y-5.075
X3.9563Y-5.25
X3.9563Y-5.425
X3.9563Y-5.6
X3.9563Y-5.75
X3.9563Y-5.925
X4.0469Y-1.3
X4.0469Y-1.475
X4.0469Y-1.65
X4.0469Y-1.825
X4.0469Y-2.0
X4.0469Y-2.2
X4.0766Y-4.125
X4.1016Y-4.375
X4.15Y-6.1
X4.1531Y-4.75
X4.1531Y-4.9
X4.1531Y-5.075
X4.1531Y-5.25
X4.1531Y-5.425
X4.1531Y-5.6
X4.1531Y-5.75
X4.1531Y-5.925
X4.2984Y-4.375
X4.3Y-3.075
X4.3Y-3.5
X4.3Y-3.85
X4.325Y-1.575
X4.325Y-1.825
X4.325Y-2.075
X4.3516Y-3.25
X4.3516Y-3.675
X4.3766Y-4.125
X4.45Y-4.725
X4.45Y-4.9
X4.45Y-5.075
X4.45Y-5.25
X4.45Y-5.425
X4.45Y-5.6
X4.45Y-5.775
X4.45Y-5.95
X4.45Y-6.15
X4.45Y-6.35
X4.45Y-6.875
X4.45Y-6.975
X4.45Y-7.075
X4.45Y-7.175
X4.45Y-7.275
X4.45Y-7.375
X4.45Y-7.475
X4.45Y-7.575
X4.45Y-7.675
X4.45Y-7.775
X4.45Y-7.875
X4.45Y-7.975
X4.45Y-8.075
X4.45Y-8.175
X4.45Y-8.275
X4.45Y-8.375
X4.5484Y-3.25
X4.5484Y-3.675
X4.6Y-3.075
X4.6Y-3.5
X4.6Y-3.85
X4.625Y-1.575
X4.625Y-1.825
X4.625Y-2.075
X4.75Y-4.725
X4.75Y-4.9
X4.75Y-5.075
X4.75Y-5.25
X4.75Y-5.425
X4.75Y-5.6
X4.75Y-5.775
X4.75Y-5.95
X4.75Y-6.15
X4.75Y-6.35
X4.7766Y-8.475
X4.825Y-7.125
X4.85Y-3.075
X4.85Y-3.25
X4.85Y-4.275
X4.85Y-4.45
X4.8504Y-3.5254
X4.8504Y-3.6254
X4.8504Y-3.7254
X4.8504Y-3.8254
X4.9Y-1.575
X4.9Y-1.825
X4.9Y-2.075
X4.9016Y-2.9
X4.9016Y-4.1
X4.95Y-6.3
X4.95Y-6.5
X4.95Y-6.7
X4.95Y-6.9
X4.9734Y-8.475
X5.0219Y-7.125
X5.0984Y-2.9
X5.0984Y-4.1
X5.1016Y-8.475
X5.15Y-3.075
X5.15Y-3.25
X5.15Y-4.275
X5.15Y-4.45
X5.1504Y-3.5254
X5.1504Y-3.6254
X5.1504Y-3.7254
X5.1504Y-3.8254
X5.1516Y-7.125
X5.2Y-1.575
X5.2Y-1.825
X5.2Y-2.075
X5.25Y-6.3
X5.25Y-6.5
X5.25Y-6.7
X5.25Y-6.9
X5.2984Y-8.475
X5.3484Y-7.125
X5.4266Y-8.475
X5.45Y-1.575
X5.45Y-1.75
X5.45Y-1.925
X5.45Y-2.1
X5.475Y-3.725
X5.475Y-3.825
X5.475Y-3.925
X5.475Y-4.025
X5.475Y-4.125
X5.475Y-4.225
X5.475Y-4.325
X5.475Y-4.425
X5.475Y-4.525
X5.475Y-4.625
X5.475Y-4.725
X5.475Y-4.825
X5.475Y-4.925
X5.475Y-5.025
X5.475Y-5.125
X5.475Y-5.225
X5.475Y-5.325
X5.475Y-5.425
X5.475Y-5.525
X5.475Y-5.625
X5.4766Y-7.125
X5.6234Y-8.475
X5.625Y-3.275
X5.6734Y-7.125
X5.6766Y-3.45
X5.6766Y-5.925
X5.6766Y-6.025
X5.6766Y-6.125
X5.6766Y-6.225
X5.6766Y-6.325
X5.6766Y-6.425
X5.6766Y-6.525
X5.6766Y-6.625
X5.7281Y-6.825
X5.75Y-1.575
X5.75Y-1.75
X5.75Y-1.925
X5.75Y-2.1
X5.7516Y-8.475
X5.8Y-7.125
X5.8734Y-3.45
X5.9Y-7.3502
X5.9Y-7.4502
X5.9Y-7.5502
X5.9Y-7.6502
X5.9Y-7.7502
X5.9Y-7.8502
X5.9Y-7.9502
X5.9Y-8.0502
X5.9Y-8.1502
X5.9Y-8.2502
X5.925Y-3.275
X5.925Y-6.825
X5.9484Y-8.475
X5.9766Y-5.925
X5.9766Y-6.025
X5.9766Y-6.125
X5.9766Y-6.225
X5.9766Y-6.325
X5.9766Y-6.425
X5.9766Y-6.525
X5.9766Y-6.625
X5.9969Y-7.125
X6.075Y-3.725
X6.075Y-3.825
X6.075Y-3.925
X6.075Y-4.025
X6.075Y-4.125
X6.075Y-4.225
X6.075Y-4.325
X6.075Y-4.425
X6.075Y-4.525
X6.075Y-4.625
X6.075Y-4.725
X6.075Y-4.825
X6.075Y-4.925
X6.075Y-5.025
X6.075Y-5.125
X6.075Y-5.225
X6.075Y-5.325
X6.075Y-5.425
X6.075Y-5.525
X6.075Y-5.625
X6.25Y-1.8748
X6.25Y-1.9748
X6.25Y-2.0748
X6.25Y-2.1748
X6.25Y-2.2748
X6.25Y-2.3748
X6.25Y-2.4748
X6.25Y-2.5748
X6.25Y-2.6748
X6.25Y-2.7748
X6.2543Y-6.1
X6.3016Y-1.675
X6.325Y-5.025
X6.325Y-5.325
X6.35Y-3.7
X6.35Y-4.0
X6.3527Y-6.1
X6.4984Y-1.675
X6.55Y-1.8748
X6.55Y-1.9748
X6.55Y-2.0748
X6.55Y-2.1748
X6.55Y-2.2748
X6.55Y-2.3748
X6.55Y-2.4748
X6.55Y-2.5748
X6.55Y-2.6748
X6.55Y-2.7748
X6.65Y-3.4
X6.65Y-4.1
X6.65Y-4.4
X6.65Y-4.7
X6.65Y-6.7
X6.65Y-7.3
X6.65Y-7.475
X6.7016Y-3.7
X6.7016Y-3.9
X6.7016Y-5.6
X6.7016Y-5.9
X6.7016Y-6.2
X6.7543Y-5.175
X6.8527Y-5.175
X6.8984Y-3.7
X6.8984Y-3.9
X6.8984Y-5.6
X6.8984Y-5.9
X6.8984Y-6.2
X6.9157Y-1.8748
X6.9157Y-1.9748
X6.9157Y-2.0748
X6.9157Y-2.1748
X6.9157Y-2.2748
X6.9157Y-2.3748
X6.9157Y-2.4748
X6.9157Y-2.5748
X6.9157Y-2.6748
X6.9157Y-2.7748
X6.95Y-3.4
X6.95Y-4.1
X6.95Y-4.4
X6.95Y-4.7
X6.95Y-6.7
X6.95Y-7.3
X6.95Y-7.475
X6.975Y-1.675
X6.9752Y-7.7502
X6.9752Y-7.8502
X6.9752Y-7.9502
X6.9752Y-8.0502
X6.9752Y-8.1502
X7.1719Y-1.675
X7.2Y-5.0
X7.2Y-5.3
X7.2Y-5.6
X7.2Y-5.9
X7.2Y-6.2
X7.2Y-6.5
X7.2004Y-3.7502
X7.2004Y-3.8502
X7.2004Y-3.9502
X7.2004Y-4.0502
X7.2004Y-4.1502
X7.2004Y-4.2502
X7.2004Y-4.3502
X7.2004Y-4.4502
X7.2004Y-4.5502
X7.2004Y-4.6502
X7.2157Y-1.8748
X7.2157Y-1.9748
X7.2157Y-2.0748
X7.2157Y-2.1748
X7.2157Y-2.2748
X7.2157Y-2.3748
X7.2157Y-2.4748
X7.2157Y-2.5748
X7.2157Y-2.6748
X7.2157Y-2.7748
X7.25Y-3.4
X7.2516Y-6.7
X7.2516Y-7.0
X7.2516Y-7.3
X7.3752Y-7.7502
X7.3752Y-7.8502
X7.3752Y-7.9502
X7.3752Y-8.0502
X7.3752Y-8.1502
X7.4421Y-3.4
X7.4484Y-6.7
X7.4484Y-7.0
X7.4484Y-7.3
X7.5Y-5.0
X7.5Y-5.3
X7.5Y-5.6
X7.5Y-5.9
X7.5Y-6.2
X7.5Y-6.5
X7.5004Y-3.7502
X7.5004Y-3.8502
X7.5004Y-3.9502
X7.5004Y-4.0502
X7.5004Y-4.1502
X7.5004Y-4.2502
X7.5004Y-4.3502
X7.5004Y-4.4502
X7.5004Y-4.5502
X7.5004Y-4.6502
X7.575Y-7.625
X7.575Y-7.825
X7.575Y-8.0
X7.575Y-8.175
X7.575Y-8.375
X7.5814Y-1.8748
X7.5814Y-1.9748
X7.5814Y-2.0748
X7.5814Y-2.1748
X7.5814Y-2.2748
X7.5814Y-2.3748
X7.5814Y-2.4748
X7.5814Y-2.5748
X7.5814Y-2.6748
X7.5814Y-2.7748
X7.6266Y-1.675
X7.75Y-3.4
X7.7531Y-3.1
X7.7793Y-7.15
X7.8234Y-1.675
X7.85Y-3.7
X7.85Y-3.8
X7.85Y-3.9
X7.85Y-4.0
X7.85Y-4.1
X7.85Y-4.2
X7.85Y-4.3
X7.85Y-4.4
X7.85Y-4.5
X7.85Y-4.6
X7.85Y-4.7
X7.85Y-4.8
X7.85Y-4.9
X7.85Y-5.0
X7.85Y-5.1
X7.85Y-5.2
X7.85Y-5.3
X7.85Y-5.4
X7.85Y-5.5
X7.85Y-5.6
X7.85Y-5.7
X7.85Y-5.8
X7.85Y-5.9
X7.85Y-6.0
X7.85Y-6.1
X7.85Y-6.2
X7.85Y-6.3
X7.85Y-6.4
X7.85Y-6.5
X7.85Y-6.6
X7.85Y-6.7
X7.85Y-6.8
X7.875Y-7.625
X7.875Y-7.825
X7.875Y-8.0
X7.875Y-8.175
X7.875Y-8.375
X7.8777Y-7.15
X7.8814Y-1.8748
X7.8814Y-1.9748
X7.8814Y-2.0748
X7.8814Y-2.1748
X7.8814Y-2.2748
X7.8814Y-2.3748
X7.8814Y-2.4748
X7.8814Y-2.5748
X7.8814Y-2.6748
X7.8814Y-2.7748
X7.95Y-3.1
X8.05Y-3.4
X8.247Y-1.8748
X8.247Y-1.9748
X8.247Y-2.0748
X8.247Y-2.1748
X8.247Y-2.2748
X8.247Y-2.3748
X8.247Y-2.4748
X8.2988Y-7.727
X8.2988Y-7.827
X8.2988Y-7.927
X8.2988Y-8.027
X8.2988Y-8.127
X8.2988Y-8.227
X8.2988Y-8.327
X8.2988Y-8.427
X8.3Y-3.4
X8.3016Y-1.675
X8.3516Y-7.525
X8.4984Y-1.675
X8.547Y-1.8748
X8.547Y-1.9748
X8.547Y-2.0748
X8.547Y-2.1748
X8.547Y-2.2748
X8.547Y-2.3748
X8.547Y-2.4748
X8.5484Y-7.525
X8.5988Y-7.727
X8.5988Y-7.827
X8.5988Y-7.927
X8.5988Y-8.027
X8.5988Y-8.127
X8.5988Y-8.227
X8.5988Y-8.327
X8.5988Y-8.427
X8.6Y-3.4
X8.75Y-3.7
X8.75Y-3.8
X8.75Y-3.9
X8.75Y-4.0
X8.75Y-4.1
X8.75Y-4.2
X8.75Y-4.3
X8.75Y-4.4
X8.75Y-4.5
X8.75Y-4.6
X8.75Y-4.7
X8.75Y-4.8
X8.75Y-4.9
X8.75Y-5.0
X8.75Y-5.1
X8.75Y-5.2
X8.75Y-5.3
X8.75Y-5.4
X8.75Y-5.5
X8.75Y-5.6
X8.75Y-5.7
X8.75Y-5.8
X8.75Y-5.9
X8.75Y-6.0
X8.75Y-6.1
X8.75Y-6.2
X8.75Y-6.3
X8.75Y-6.4
X8.75Y-6.5
X8.75Y-6.6
X8.75Y-6.7
X8.75Y-6.8
X8.8Y-3.4
X8.9127Y-1.8748
X8.9127Y-1.9748
X8.9127Y-2.0748
X8.9127Y-2.1748
X8.9127Y-2.2748
X8.9127Y-2.3748
X8.9127Y-2.4748
X8.9127Y-2.5748
X8.9492Y-7.727
X8.9492Y-7.827
X8.9492Y-7.927
X8.9492Y-8.027
X8.9492Y-8.127
X8.9492Y-8.227
X8.9492Y-8.327
X8.975Y-7.275
X8.9766Y-1.675
X9.025Y-7.525
X9.1Y-3.4
X9.1004Y-3.6998
X9.1004Y-3.7998
X9.1004Y-3.8998
X9.1004Y-3.9998
X9.1004Y-4.0998
X9.1004Y-4.1998
X9.1004Y-4.2998
X9.1004Y-4.7998
X9.1004Y-4.8998
X9.1004Y-4.9998
X9.1004Y-5.0998
X9.1004Y-5.1998
X9.1004Y-5.2998
X9.1004Y-5.3998
X9.125Y-5.925
X9.125Y-6.55
X9.1734Y-1.675
X9.175Y-5.6
X9.1766Y-4.5
X9.2127Y-1.8748
X9.2127Y-1.9748
X9.2127Y-2.0748
X9.2127Y-2.1748
X9.2127Y-2.2748
X9.2127Y-2.3748
X9.2127Y-2.4748
X9.2127Y-2.5748
X9.2219Y-7.525
X9.2492Y-7.727
X9.2492Y-7.827
X9.2492Y-7.927
X9.2492Y-8.027
X9.2492Y-8.127
X9.2492Y-8.227
X9.2492Y-8.327
X9.275Y-7.275
X9.3719Y-5.6
X9.3734Y-4.5
X9.4004Y-3.6998
X9.4004Y-3.7998
X9.4004Y-3.8998
X9.4004Y-3.9998
X9.4004Y-4.0998
X9.4004Y-4.1998
X9.4004Y-4.2998
X9.4004Y-4.7998
X9.4004Y-4.8998
X9.4004Y-4.9998
X9.4004Y-5.0998
X9.4004Y-5.1998
X9.4004Y-5.2998
X9.4004Y-5.3998
X9.425Y-5.925
X9.425Y-6.55
X9.5784Y-1.8748
X9.5784Y-1.9748
X9.5784Y-2.0748
X9.5784Y-2.1748
X9.5784Y-2.2748
X9.5784Y-2.3748
X9.5784Y-2.4748
X9.5996Y-7.727
X9.5996Y-7.827
X9.5996Y-7.927
X9.5996Y-8.027
X9.5996Y-8.127
X9.5996Y-8.227
X9.5996Y-8.327
X9.5996Y-8.427
X9.65Y-7.25
X9.6516Y-1.675
X9.6516Y-7.525
X9.8469Y-7.25
X9.8484Y-1.675
X9.8484Y-7.525
X9.8748Y-3.7244
X9.8748Y-3.8244
X9.8748Y-3.9244
X9.8748Y-4.0244
X9.8748Y-4.1244
X9.8748Y-4.2244
X9.8748Y-4.3244
X9.8748Y-4.4244
X9.8748Y-4.5244
X9.8748Y-4.6244
X9.8748Y-4.7244
X9.8748Y-4.8244
X9.8748Y-4.9244
X9.8748Y-5.0244
X9.8748Y-5.5244
X9.8748Y-5.6244
X9.8748Y-5.7244
X9.8748Y-5.8244
X9.8748Y-5.9244
X9.8748Y-6.0244
X9.8748Y-6.1244
X9.8748Y-6.2244
X9.8748Y-6.3244
X9.8748Y-6.4244
X9.8748Y-6.5244
X9.8748Y-6.6244
X9.8748Y-6.7244
X9.8748Y-6.8244
X9.8784Y-1.8748
X9.8784Y-1.9748
X9.8784Y-2.0748
X9.8784Y-2.1748
X9.8784Y-2.2748
X9.8784Y-2.3748
X9.8784Y-2.4748
X9.8996Y-7.727
X9.8996Y-7.827
X9.8996Y-7.927
X9.8996Y-8.027
X9.8996Y-8.127
X9.8996Y-8.227
X9.8996Y-8.327
X9.8996Y-8.427
X10.075Y-7.025
X10.0766Y-5.225
X10.225Y-7.275
X10.244Y-1.8748
X10.244Y-1.9748
X10.244Y-2.0748
X10.244Y-2.1748
X10.244Y-2.2748
X10.244Y-2.3748
X10.244Y-2.4748
X10.25Y-7.727
X10.25Y-7.827
X10.25Y-7.927
X10.25Y-8.027
X10.25Y-8.127
X10.25Y-8.227
X10.25Y-8.327
X10.2719Y-7.025
X10.2734Y-5.225
X10.2766Y-7.525
X10.3016Y-1.675
X10.4734Y-7.525
X10.4748Y-3.7244
X10.4748Y-3.8244
X10.4748Y-3.9244
X10.4748Y-4.0244
X10.4748Y-4.1244
X10.4748Y-4.2244
X10.4748Y-4.3244
X10.4748Y-4.4244
X10.4748Y-4.5244
X10.4748Y-4.6244
X10.4748Y-4.7244
X10.4748Y-4.8244
X10.4748Y-4.9244
X10.4748Y-5.0244
X10.4748Y-5.5244
X10.4748Y-5.6244
X10.4748Y-5.7244
X10.4748Y-5.8244
X10.4748Y-5.9244
X10.4748Y-6.0244
X10.4748Y-6.1244
X10.4748Y-6.2244
X10.4748Y-6.3244
X10.4748Y-6.4244
X10.4748Y-6.5244
X10.4748Y-6.6244
X10.4748Y-6.7244
X10.4748Y-6.8244
X10.4984Y-1.675
X10.525Y-7.275
X10.544Y-1.8748
X10.544Y-1.9748
X10.544Y-2.0748
X10.544Y-2.1748
X10.544Y-2.2748
X10.544Y-2.3748
X10.544Y-2.4748
X10.55Y-7.727
X10.55Y-7.827
X10.55Y-7.927
X10.55Y-8.027
X10.55Y-8.127
X10.55Y-8.227
X10.55Y-8.327
X10.725Y-7.275
X10.7998Y-3.7244
X10.7998Y-3.8244
X10.7998Y-3.9244
X10.7998Y-4.0244
X10.7998Y-4.1244
X10.7998Y-4.2244
X10.7998Y-4.3244
X10.7998Y-4.4244
X10.7998Y-4.5244
X10.7998Y-4.6244
X10.7998Y-4.7244
X10.7998Y-4.8244
X10.7998Y-4.9244
X10.7998Y-5.0244
X10.8Y-5.525
X10.8Y-5.625
X10.8Y-5.725
X10.8Y-5.825
X10.8Y-5.925
X10.8Y-6.025
X10.8Y-6.125
X10.8Y-6.225
X10.8Y-6.325
X10.8Y-6.425
X10.8Y-6.525
X10.8Y-6.625
X10.8Y-6.725
X10.8Y-6.825
X10.9004Y-7.727
X10.9004Y-7.827
X10.9004Y-7.927
X10.9004Y-8.027
X10.9004Y-8.127
X10.9004Y-8.227
X10.9004Y-8.327
X10.9097Y-1.8748
X10.9097Y-1.9748
X10.9097Y-2.0748
X10.9097Y-2.1748
X10.9097Y-2.2748
X10.9097Y-2.3748
X10.9097Y-2.4748
X10.9516Y-1.675
X10.9766Y-7.525
X11.0016Y-5.225
X11.025Y-7.275
X11.0266Y-7.025
X11.1484Y-1.675
X11.1734Y-7.525
X11.1984Y-5.225
X11.2004Y-7.727
X11.2004Y-7.827
X11.2004Y-7.927
X11.2004Y-8.027
X11.2004Y-8.127
X11.2004Y-8.227
X11.2004Y-8.327
X11.2097Y-1.8748
X11.2097Y-1.9748
X11.2097Y-2.0748
X11.2097Y-2.1748
X11.2097Y-2.2748
X11.2097Y-2.3748
X11.2097Y-2.4748
X11.2234Y-7.025
X11.3998Y-3.7244
X11.3998Y-3.8244
X11.3998Y-3.9244
X11.3998Y-4.0244
X11.3998Y-4.1244
X11.3998Y-4.2244
X11.3998Y-4.3244
X11.3998Y-4.4244
X11.3998Y-4.5244
X11.3998Y-4.6244
X11.3998Y-4.7244
X11.3998Y-4.8244
X11.3998Y-4.9244
X11.3998Y-5.0244
X11.4Y-5.525
X11.4Y-5.625
X11.4Y-5.725
X11.4Y-5.825
X11.4Y-5.925
X11.4Y-6.025
X11.4Y-6.125
X11.4Y-6.225
X11.4Y-6.325
X11.4Y-6.425
X11.4Y-6.525
X11.4Y-6.625
X11.4Y-6.725
X11.4Y-6.825
X11.575Y-7.125
X11.575Y-7.525
X11.575Y-7.8
X11.5754Y-1.8748
X11.5754Y-1.9748
X11.5754Y-2.0748
X11.5754Y-2.1748
X11.5754Y-2.2748
X11.5754Y-2.3748
X11.5754Y-2.4748
X11.6266Y-1.675
X11.8234Y-1.675
X11.875Y-7.125
X11.875Y-7.525
X11.875Y-7.8
X11.8754Y-1.8748
X11.8754Y-1.9748
X11.8754Y-2.0748
X11.8754Y-2.1748
X11.8754Y-2.2748
X11.8754Y-2.3748
X11.8754Y-2.4748
X11.9Y-2.925
X12.0516Y-7.45
X12.075Y-4.925
X12.075Y-5.025
X12.075Y-5.125
X12.075Y-5.225
X12.075Y-5.325
X12.075Y-5.425
X12.075Y-5.525
X12.075Y-5.625
X12.075Y-5.725
X12.075Y-5.825
X12.075Y-5.925
X12.075Y-6.025
X12.075Y-6.125
X12.075Y-6.225
X12.075Y-6.325
X12.075Y-6.425
X12.075Y-6.525
X12.075Y-6.625
X12.075Y-6.725
X12.075Y-6.825
X12.1004Y-3.8248
X12.1004Y-3.9248
X12.1004Y-4.0248
X12.1004Y-4.1248
X12.1004Y-4.2248
X12.1004Y-4.3248
X12.1004Y-4.4248
X12.1516Y-3.575
X12.1793Y-2.3
X12.2Y-2.925
X12.2Y-7.675
X12.2Y-7.775
X12.2Y-7.875
X12.2Y-7.975
X12.2Y-8.075
X12.2Y-8.175
X12.2Y-8.275
X12.2Y-8.375
X12.2484Y-7.45
X12.2535Y-7.15
X12.275Y-4.7
X12.2777Y-2.3
X12.3484Y-3.575
X12.35Y-2.625
X12.4004Y-3.8248
X12.4004Y-3.9248
X12.4004Y-4.0248
X12.4004Y-4.1248
X12.4004Y-4.2248
X12.4004Y-4.3248
X12.4004Y-4.4248
X12.4457Y-7.15
X12.45Y-2.925
X12.45Y-3.125
X12.45Y-3.3
X12.4719Y-4.7
X12.4793Y-1.9
X12.5Y-7.675
X12.5Y-7.775
X12.5Y-7.875
X12.5Y-7.975
X12.5Y-8.075
X12.5Y-8.175
X12.5Y-8.275
X12.5Y-8.375
X12.5777Y-1.9
X12.675Y-4.925
X12.675Y-5.025
X12.675Y-5.125
X12.675Y-5.225
X12.675Y-5.325
X12.675Y-5.425
X12.675Y-5.525
X12.675Y-5.625
X12.675Y-5.725
X12.675Y-5.825
X12.675Y-5.925
X12.675Y-6.025
X12.675Y-6.125
X12.675Y-6.225
X12.675Y-6.325
X12.675Y-6.425
X12.675Y-6.525
X12.675Y-6.625
X12.675Y-6.725
X12.675Y-6.825
X12.675Y-7.15
X12.7266Y-7.35
X12.75Y-2.625
X12.75Y-2.925
X12.75Y-3.125
X12.75Y-3.3
X12.875Y-5.375
X12.875Y-7.65
X12.875Y-7.75
X12.875Y-7.85
X12.875Y-7.95
X12.875Y-8.05
X12.875Y-8.15
X12.875Y-8.25
X12.875Y-8.35
X12.9234Y-7.35
X12.9266Y-5.625
X12.9516Y-3.3
X12.975Y-7.15
X13.0254Y-5.9002
X13.0254Y-6.0002
X13.0254Y-6.1002
X13.0254Y-6.2002
X13.0254Y-6.3002
X13.0254Y-6.4002
X13.0254Y-6.5002
X13.0254Y-6.6002
X13.0254Y-6.7002
X13.0254Y-6.8002
X13.0504Y-4.2252
X13.0504Y-4.3252
X13.0504Y-4.4252
X13.0504Y-4.5252
X13.0504Y-4.6252
X13.0504Y-4.7252
X13.0504Y-4.8252
X13.0504Y-4.9252
X13.0504Y-5.0252
X13.0504Y-5.1252
X13.1016Y-3.975
X13.1016Y-7.15
X13.1234Y-5.625
X13.1484Y-3.3
X13.175Y-5.375
X13.175Y-7.65
X13.175Y-7.75
X13.175Y-7.85
X13.175Y-7.95
X13.175Y-8.05
X13.175Y-8.15
X13.175Y-8.25
X13.175Y-8.35
X13.2984Y-3.975
X13.2984Y-7.15
X13.3254Y-5.9002
X13.3254Y-6.0002
X13.3254Y-6.1002
X13.3254Y-6.2002
X13.3254Y-6.3002
X13.3254Y-6.4002
X13.3254Y-6.5002
X13.3254Y-6.6002
X13.3254Y-6.7002
X13.3254Y-6.8002
X13.3504Y-4.2252
X13.3504Y-4.3252
X13.3504Y-4.4252
X13.3504Y-4.5252
X13.3504Y-4.6252
X13.3504Y-4.7252
X13.3504Y-4.8252
X13.3504Y-4.9252
X13.3504Y-5.0252
X13.3504Y-5.1252
X13.3793Y-5.5
X13.45Y-7.15
X13.4777Y-5.5
X13.55Y-2.9
X13.575Y-7.65
X13.575Y-7.75
X13.575Y-7.85
X13.575Y-7.95
X13.575Y-8.05
X13.575Y-8.15
X13.575Y-8.25
X13.575Y-8.35
X13.7498Y-5.5244
X13.7498Y-5.6244
X13.7498Y-5.7244
X13.7498Y-5.8244
X13.7498Y-5.9244
X13.7498Y-6.0244
X13.7498Y-6.1244
X13.7498Y-6.2244
X13.7498Y-6.3244
X13.7498Y-6.4244
X13.7498Y-6.5244
X13.7498Y-6.6244
X13.7498Y-6.7244
X13.7498Y-6.8244
X13.75Y-7.15
X13.85Y-2.9
X13.875Y-7.65
X13.875Y-7.75
X13.875Y-7.85
X13.875Y-7.95
X13.875Y-8.05
X13.875Y-8.15
X13.875Y-8.25
X13.875Y-8.35
X13.925Y-7.15
X13.9254Y-4.1752
X13.9254Y-4.2752
X13.9254Y-4.3752
X13.9254Y-4.4752
X13.9254Y-4.5752
X13.9254Y-4.6752
X13.9254Y-4.7752
X13.9254Y-4.8752
X13.9254Y-4.9752
X13.9254Y-5.0752
X13.9516Y-5.275
X13.9766Y-3.925
X14.1484Y-5.275
X14.1734Y-3.925
X14.1754Y-7.3998
X14.1754Y-7.4998
X14.1754Y-7.5998
X14.1754Y-7.6998
X14.1754Y-7.7998
X14.1754Y-7.8998
X14.1754Y-7.9998
X14.225Y-7.15
X14.2254Y-4.1752
X14.2254Y-4.2752
X14.2254Y-4.3752
X14.2254Y-4.4752
X14.2254Y-4.5752
X14.2254Y-4.6752
X14.2254Y-4.7752
X14.2254Y-4.8752
X14.2254Y-4.9752
X14.2254Y-5.0752
X14.3498Y-5.5244
X14.3498Y-5.6244
X14.3498Y-5.7244
X14.3498Y-5.8244
X14.3498Y-5.9244
X14.3498Y-6.0244
X14.3498Y-6.1244
X14.3498Y-6.2244
X14.3498Y-6.3244
X14.3498Y-6.4244
X14.3498Y-6.5244
X14.3498Y-6.6244
X14.3498Y-6.7244
X14.3498Y-6.8244
X14.4754Y-7.3998
X14.4754Y-7.4998
X14.4754Y-7.5998
X14.4754Y-7.6998
X14.4754Y-7.7998
X14.4754Y-7.8998
X14.4754Y-7.9998
X14.625Y-5.35
X14.625Y-5.525
X14.625Y-5.7
X14.625Y-5.9
X14.6254Y-6.1246
X14.6254Y-6.2246
X14.6254Y-6.3246
X14.6254Y-6.4246
X14.6254Y-6.5246
X14.6254Y-6.6246
X14.6254Y-6.7246
X14.6254Y-6.8246
X14.6504Y-3.0496
X14.6504Y-3.1496
X14.6504Y-3.2496
X14.6504Y-3.3496
X14.6504Y-3.4496
X14.6504Y-3.5496
X14.6504Y-3.6496
X14.6504Y-3.7496
X14.6504Y-4.2002
X14.6504Y-4.3002
X14.6504Y-4.4002
X14.6504Y-4.5002
X14.6504Y-4.6002
X14.6504Y-4.7002
X14.6504Y-4.8002
X14.6504Y-4.9002
X14.6504Y-5.0002
X14.6504Y-5.1002
X14.675Y-7.325
X14.675Y-7.525
X14.675Y-7.725
X14.7016Y-4.0
X14.7266Y-2.875
X14.8984Y-4.0
X14.9234Y-2.875
X14.925Y-5.35
X14.925Y-5.525
X14.925Y-5.7
X14.925Y-5.9
X14.9254Y-6.1246
X14.9254Y-6.2246
X14.9254Y-6.3246
X14.9254Y-6.4246
X14.9254Y-6.5246
X14.9254Y-6.6246
X14.9254Y-6.7246
X14.9254Y-6.8246
X14.9504Y-3.0496
X14.9504Y-3.1496
X14.9504Y-3.2496
X14.9504Y-3.3496
X14.9504Y-3.4496
X14.9504Y-3.5496
X14.9504Y-3.6496
X14.9504Y-3.7496
X14.9504Y-4.2002
X14.9504Y-4.3002
X14.9504Y-4.4002
X14.9504Y-4.5002
X14.9504Y-4.6002
X14.9504Y-4.7002
X14.9504Y-4.8002
X14.9504Y-4.9002
X14.9504Y-5.0002
X14.9504Y-5.1002
X14.975Y-7.325
X14.975Y-7.525
X14.975Y-7.725
X15.4Y-5.7
X15.4Y-5.9
X15.4Y-6.075
X15.4Y-6.25
X15.4Y-6.45
X15.4Y-6.65
X15.4Y-6.85
X15.4Y-7.05
X15.7Y-5.7
X15.7Y-5.9
X15.7Y-6.075
X15.7Y-6.25
X15.7Y-6.45
X15.7Y-6.65
X15.7Y-6.85
X15.7Y-7.05
T4
X1.4Y-7.275
X1.5Y-7.275
X1.95Y-6.975
X2.25Y-6.975
X6.325Y-4.425
X6.325Y-4.725
X6.65Y-7.05
X6.95Y-7.05
X9.125Y-6.85
X9.425Y-6.85
T5
X1.4866Y-3.811
X1.4866Y-3.9201
X1.4866Y-4.0291
X1.4866Y-4.1382
X1.5116Y-5.386
X1.5116Y-5.4951
X1.5116Y-5.6041
X1.5116Y-5.7132
X1.5984Y-3.7565
X1.5984Y-3.8656
X1.5984Y-3.9746
X1.5984Y-4.0837
X1.5984Y-4.1927
X1.6234Y-5.3315
X1.6234Y-5.4406
X1.6234Y-5.5496
X1.6234Y-5.6587
X1.6234Y-5.7677
X2.775Y-1.3
X2.875Y-1.3
X4.3498Y-1.3
X4.4498Y-1.3
X4.5498Y-1.3
X4.6498Y-1.3
X4.7498Y-1.3
X4.8498Y-1.3
X4.9498Y-1.3
X5.0498Y-1.3
X5.1498Y-1.3
X5.2498Y-1.3
X5.3498Y-1.3
X5.4498Y-1.3
X5.5498Y-1.3
X5.6498Y-1.3
X5.7498Y-1.3
X6.375Y-6.9252
X6.375Y-7.0252
X6.375Y-7.1252
X6.375Y-7.2252
X6.375Y-7.3252
X6.375Y-7.4252
X6.375Y-7.5252
X6.375Y-7.6252
X6.375Y-7.7252
X6.375Y-7.8252
X6.375Y-7.9252
X6.375Y-8.0252
X6.375Y-8.1252
X6.375Y-8.2252
X6.375Y-8.3252
X6.45Y-1.3
X6.55Y-1.3
X6.85Y-1.3
X6.95Y-1.3
X7.25Y-1.3
X7.35Y-1.3
X10.075Y-3.5
X10.175Y-3.5
X10.275Y-3.5
X11.025Y-3.5
X11.125Y-3.5
X11.225Y-3.5
X11.8998Y-1.325
X11.9998Y-1.325
X13.3196Y-1.5756
X13.3196Y-1.7724
X13.3256Y-2.3752
X13.3256Y-2.4752
X13.4196Y-1.5756
X13.4196Y-1.7724
X13.4256Y-2.3752
X13.4256Y-2.4752
X13.5196Y-1.5756
X13.5196Y-1.7724
X13.5256Y-2.3752
X13.5256Y-2.4752
X13.6196Y-1.5756
X13.6196Y-1.7724
X13.6256Y-2.3752
X13.6256Y-2.4752
X13.7196Y-1.5756
X13.7196Y-1.7724
X13.7256Y-2.3752
X13.7256Y-2.4752
X13.8196Y-1.5756
X13.8196Y-1.7724
X13.8256Y-2.3752
X13.8256Y-2.4752
X13.9196Y-1.5756
X13.9196Y-1.7724
X13.9256Y-2.3752
X13.9256Y-2.4752
X14.0196Y-1.5756
X14.0196Y-1.7724
X14.0256Y-2.3752
X14.0256Y-2.4752
X14.1196Y-1.5756
X14.1196Y-1.7724
X14.1256Y-2.3752
X14.1256Y-2.4752
X14.2196Y-1.5756
X14.2196Y-1.7724
X14.2256Y-2.3752
X14.2256Y-2.4752
X14.3196Y-1.5756
X14.3196Y-1.7724
X14.3256Y-2.3752
X14.3256Y-2.4752
X14.4196Y-1.5756
X14.4196Y-1.7724
X14.4256Y-2.3752
X14.4256Y-2.4752
X14.5196Y-1.5756
X14.5196Y-1.7724
X14.5256Y-2.3752
X14.5256Y-2.4752
X14.6196Y-1.5756
X14.6196Y-1.7724
X14.6256Y-2.3752
X14.6256Y-2.4752
X14.7196Y-1.5756
X14.7196Y-1.7724
X14.7256Y-2.3752
X14.7256Y-2.4752
X14.8196Y-1.5756
X14.8196Y-1.7724
X14.8256Y-2.3752
X14.8256Y-2.4752
X14.9196Y-1.5756
X14.9196Y-1.7724
X14.9256Y-2.3752
X14.9256Y-2.4752
X15.0196Y-1.5756
X15.0196Y-1.7724
X15.0256Y-2.3752
X15.0256Y-2.4752
X15.4252Y-2.9502
X15.4252Y-3.0502
X15.4252Y-3.1502
X15.4252Y-3.2502
X15.4252Y-3.3502
X15.4252Y-3.4502
X15.4252Y-3.5502
X15.4252Y-3.6502
X15.4252Y-3.7502
X15.4252Y-3.8502
X15.4252Y-3.9502
X15.4252Y-4.0502
X15.4252Y-4.1502
X15.4252Y-4.2502
X15.4252Y-4.3502
X15.4252Y-4.4502
X15.4252Y-4.5502
X15.4252Y-4.6502
X15.4252Y-4.7502
X15.4252Y-4.8502
X15.4252Y-4.9502
X15.4252Y-5.0502
X15.5252Y-2.9502
X15.5252Y-3.0502
X15.5252Y-3.1502
X15.5252Y-3.2502
X15.5252Y-3.3502
X15.5252Y-3.4502
X15.5252Y-3.5502
X15.5252Y-3.6502
X15.5252Y-3.7502
X15.5252Y-3.8502
X15.5252Y-3.9502
X15.5252Y-4.0502
X15.5252Y-4.1502
X15.5252Y-4.2502
X15.5252Y-4.3502
X15.5252Y-4.4502
X15.5252Y-4.5502
X15.5252Y-4.6502
X15.5252Y-4.7502
X15.5252Y-4.8502
X15.5252Y-4.9502
X15.5252Y-5.0502
X15.8974Y-2.925
X15.8974Y-3.025
X15.8974Y-3.125
X15.8974Y-3.225
X15.9006Y-3.325
X15.9006Y-3.425
X15.9006Y-3.525
X15.9006Y-3.625
X15.9006Y-3.725
X15.9006Y-3.825
X15.9006Y-3.925
X15.9006Y-4.025
X15.9006Y-4.125
X15.9006Y-4.225
X15.9006Y-4.325
X15.9006Y-4.425
X15.9006Y-4.525
X15.9006Y-4.625
X15.9006Y-4.725
X15.9006Y-4.825
X15.9006Y-4.925
X15.9006Y-5.025
X16.0943Y-2.925
X16.0943Y-3.025
X16.0943Y-3.125
X16.0943Y-3.225
X16.0974Y-3.325
X16.0974Y-3.425
X16.0974Y-3.525
X16.0974Y-3.625
X16.0974Y-3.725
X16.0974Y-3.825
X16.0974Y-3.925
X16.0974Y-4.025
X16.0974Y-4.125
X16.0974Y-4.225
X16.0974Y-4.325
X16.0974Y-4.425
X16.0974Y-4.525
X16.0974Y-4.625
X16.0974Y-4.725
X16.0974Y-4.825
X16.0974Y-4.925
X16.0974Y-5.025
T6
X1.4Y-7.775
X1.5Y-7.775
X1.6Y-7.775
T7
X1.6903Y-8.2653
X1.6903Y-8.4818
X1.8556Y-8.2653
X1.8556Y-8.4818
X2.021Y-8.2653
X2.021Y-8.4818
X2.1863Y-8.2653
X2.1863Y-8.4818
X2.3517Y-8.2653
X2.3517Y-8.4818
X2.517Y-8.2653
X2.517Y-8.4818
X2.6824Y-8.2653
X2.6824Y-8.4818
X2.8477Y-8.2653
X2.8477Y-8.4818
X3.0131Y-8.2653
X3.0131Y-8.4818
X3.1784Y-8.2653
X3.1784Y-8.4818
T8
X1.2362Y-3.4825
X1.2362Y-4.4667
X1.2612Y-5.0575
X1.2612Y-6.0417
T0
M30
