%TF.GenerationSoftware,KiCad,Pcbnew,6.0.1-79c1e3a40b~116~ubuntu21.04.1*%
%TF.CreationDate,2022-06-30T07:35:42-05:00*%
%TF.ProjectId,Console,436f6e73-6f6c-4652-9e6b-696361645f70,rev?*%
%TF.SameCoordinates,Original*%
%TF.FileFunction,Paste,Top*%
%TF.FilePolarity,Positive*%
%FSLAX46Y46*%
G04 Gerber Fmt 4.6, Leading zero omitted, Abs format (unit mm)*
G04 Created by KiCad (PCBNEW 6.0.1-79c1e3a40b~116~ubuntu21.04.1) date 2022-06-30 07:35:42*
%MOMM*%
%LPD*%
G01*
G04 APERTURE LIST*
G04 Aperture macros list*
%AMRoundRect*
0 Rectangle with rounded corners*
0 $1 Rounding radius*
0 $2 $3 $4 $5 $6 $7 $8 $9 X,Y pos of 4 corners*
0 Add a 4 corners polygon primitive as box body*
4,1,4,$2,$3,$4,$5,$6,$7,$8,$9,$2,$3,0*
0 Add four circle primitives for the rounded corners*
1,1,$1+$1,$2,$3*
1,1,$1+$1,$4,$5*
1,1,$1+$1,$6,$7*
1,1,$1+$1,$8,$9*
0 Add four rect primitives between the rounded corners*
20,1,$1+$1,$2,$3,$4,$5,0*
20,1,$1+$1,$4,$5,$6,$7,0*
20,1,$1+$1,$6,$7,$8,$9,0*
20,1,$1+$1,$8,$9,$2,$3,0*%
G04 Aperture macros list end*
%ADD10RoundRect,0.150000X-0.825000X-0.150000X0.825000X-0.150000X0.825000X0.150000X-0.825000X0.150000X0*%
G04 APERTURE END LIST*
D10*
%TO.C,U27*%
X137860000Y-186690000D03*
X137860000Y-187960000D03*
X137860000Y-189230000D03*
X137860000Y-190500000D03*
X137860000Y-191770000D03*
X137860000Y-193040000D03*
X137860000Y-194310000D03*
X142810000Y-194310000D03*
X142810000Y-193040000D03*
X142810000Y-191770000D03*
X142810000Y-190500000D03*
X142810000Y-189230000D03*
X142810000Y-187960000D03*
X142810000Y-186690000D03*
%TD*%
%TO.C,U25*%
X126430000Y-201295000D03*
X126430000Y-202565000D03*
X126430000Y-203835000D03*
X126430000Y-205105000D03*
X126430000Y-206375000D03*
X126430000Y-207645000D03*
X126430000Y-208915000D03*
X131380000Y-208915000D03*
X131380000Y-207645000D03*
X131380000Y-206375000D03*
X131380000Y-205105000D03*
X131380000Y-203835000D03*
X131380000Y-202565000D03*
X131380000Y-201295000D03*
%TD*%
%TO.C,U28*%
X137860000Y-201295000D03*
X137860000Y-202565000D03*
X137860000Y-203835000D03*
X137860000Y-205105000D03*
X137860000Y-206375000D03*
X137860000Y-207645000D03*
X137860000Y-208915000D03*
X142810000Y-208915000D03*
X142810000Y-207645000D03*
X142810000Y-206375000D03*
X142810000Y-205105000D03*
X142810000Y-203835000D03*
X142810000Y-202565000D03*
X142810000Y-201295000D03*
%TD*%
%TO.C,U26*%
X126430000Y-186690000D03*
X126430000Y-187960000D03*
X126430000Y-189230000D03*
X126430000Y-190500000D03*
X126430000Y-191770000D03*
X126430000Y-193040000D03*
X126430000Y-194310000D03*
X131380000Y-194310000D03*
X131380000Y-193040000D03*
X131380000Y-191770000D03*
X131380000Y-190500000D03*
X131380000Y-189230000D03*
X131380000Y-187960000D03*
X131380000Y-186690000D03*
%TD*%
M02*
